<svg xmlns="http://www.w3.org/2000/svg" xmlns:xlink="http://www.w3.org/1999/xlink" width="940" zoomAndPan="magnify" viewBox="0 0 705 591.000005" height="788" preserveAspectRatio="xMidYMid meet" version="1.0"><path fill="#d19262" d="M 589.335938 143.363281 C 585.269531 135.230469 582.21875 128.117188 575.101562 123.039062 C 569.003906 117.957031 556.800781 103.390625 554.769531 105.761719 C 552.734375 108.132812 555.445312 116.261719 542.566406 105.761719 C 536.464844 100.679688 530.367188 93.566406 523.25 88.488281 C 511.046875 80.355469 484.273438 71.550781 481.5625 73.242188 C 478.851562 74.9375 485.289062 81.371094 483.59375 84.421875 C 481.898438 87.46875 474.445312 79.339844 469.359375 77.308594 C 464.277344 75.277344 459.191406 74.257812 453.089844 72.226562 C 448.007812 71.210938 442.925781 71.210938 436.824219 71.210938 C 431.738281 71.210938 421.234375 67.484375 419.539062 71.210938 C 417.84375 74.9375 424.621094 75.277344 424.621094 78.324219 C 420.554688 80.355469 409.371094 76.292969 404.289062 75.277344 C 397.171875 74.257812 390.050781 72.226562 382.933594 71.210938 C 370.734375 70.195312 346.332031 74.9375 345.316406 78.324219 C 344.296875 81.710938 352.773438 84.421875 354.804688 86.453125 C 346.671875 89.503906 328.03125 89.503906 319.894531 90.519531 C 308.710938 92.550781 298.542969 92.550781 287.359375 94.582031 C 278.210938 96.617188 270.074219 98.648438 261.941406 101.695312 C 254.824219 103.730469 236.183594 107.792969 236.523438 111.859375 C 236.859375 115.925781 247.027344 119.648438 216.1875 123.039062 C 199.984375 124.816406 174.839844 140.652344 175.515625 143.363281 C 176.195312 146.070312 186.636719 145.824219 186.339844 148.34375 C 186.160156 149.855469 184.160156 151.617188 179.582031 153.523438 C 170.433594 156.574219 161.28125 160.636719 153.148438 164.703125 C 143.996094 169.785156 134.847656 173.847656 127.730469 180.960938 C 122.644531 186.042969 109.085938 201.285156 112.476562 203.316406 C 115.867188 205.351562 130.777344 193.15625 126.710938 205.351562 C 123.660156 213.480469 118.578125 220.59375 114.511719 227.707031 C 107.394531 242.949219 89.429688 268.015625 90.109375 271.40625 C 90.785156 274.792969 97.226562 267 100.617188 269.03125 C 104.003906 271.066406 77.230469 312.730469 80.957031 315.101562 C 84.6875 317.472656 88.414062 310.359375 92.140625 313.070312 C 95.871094 315.777344 80.617188 331.699219 82.992188 336.441406 C 85.363281 341.183594 94.046875 332.171875 92.585938 336.847656 C 91.125 341.523438 88.074219 350.667969 87.058594 352.703125 C 86.042969 360.832031 80.28125 376.414062 84.007812 379.121094 C 87.734375 381.832031 94.242188 376.800781 96.277344 388.992188 C 97.292969 397.125 103.667969 422.820312 107.054688 424.175781 C 110.445312 425.53125 113.496094 414.011719 116.542969 414.011719 C 119.59375 414.011719 115.527344 430.949219 118.578125 438.0625 C 121.628906 443.144531 124.679688 453.644531 127.730469 455.339844 C 130.777344 457.03125 133.457031 446.25 134.847656 447.886719 C 136.234375 449.523438 141.964844 461.433594 146.03125 466.515625 C 148.503906 469.605469 153.300781 475.03125 157.085938 476.273438 C 162.070312 477.90625 164.484375 470.363281 169.425781 471.601562 C 181.746094 477.761719 195.597656 485.777344 209.71875 486.210938 C 226.105469 486.71875 240.960938 476.550781 256.808594 473.722656 C 264.652344 472.320312 274.148438 473.683594 281.34375 469.671875 C 295.226562 461.929688 308.28125 444.289062 319.859375 433.265625 C 330.855469 422.792969 341.792969 412.261719 352.699219 401.699219 C 374.558594 380.539062 396.484375 359.453125 418.550781 338.515625 C 460.542969 298.683594 502.261719 258.570312 544.234375 218.722656 C 552.625 210.757812 560.691406 201.914062 569.621094 194.542969 C 569.636719 194.527344 587.300781 179.941406 587.300781 179.941406 C 587.203125 179.277344 587.085938 178.636719 586.980469 177.984375 L 592.386719 172.832031 C 594.421875 163.6875 594.421875 151.492188 589.335938 143.363281 Z M 589.335938 143.363281 " fill-opacity="1" fill-rule="nonzero"/><path fill="#e7d6c6" d="M 622.769531 179.945312 C 618.640625 187.507812 610.324219 193.644531 601.601562 195.289062 C 613.109375 217.300781 617.09375 244.578125 612.886719 269.371094 C 611.96875 276.484375 608.289062 282.582031 606.460938 289.695312 C 604.609375 297.824219 590.355469 459.75 423.421875 503.6875 C 362.886719 519.644531 297.203125 511.59375 235.566406 497.003906 C 225.195312 494.542969 200.265625 487.164062 187.859375 474.503906 C 193.515625 464.707031 211 461.171875 220.519531 459.363281 C 221.617188 459.160156 221.375 457.738281 220.519531 457.410156 C 218.28125 456.558594 216.023438 455.925781 213.644531 455.683594 C 212.261719 455.542969 206.304688 455.359375 206.304688 455.378906 C 206.304688 452.898438 209.050781 450.988281 210.878906 449.808594 C 216.796875 445.988281 224.140625 444.140625 230.828125 442.230469 C 238.394531 440.054688 246.039062 438.183594 253.542969 435.847656 C 258.382812 434.34375 263.875 432.71875 267.738281 429.304688 C 268.632812 428.511719 267.492188 427.148438 266.519531 427.695312 C 259.5625 431.640625 249.882812 433.855469 242.238281 430.601562 C 259.320312 422.351562 278.640625 418.714844 293.503906 406.253906 C 294.296875 405.605469 293.441406 404.28125 292.507812 404.566406 C 286.203125 406.457031 276.136719 410.195312 270.382812 405.421875 C 294.644531 399.628906 313.941406 384.996094 330.777344 366.96875 C 331.511719 366.195312 330.777344 365.078125 329.800781 365.261719 C 326.691406 365.871094 323.722656 366.804688 320.753906 367.820312 C 330.738281 350.871094 349.304688 340.566406 356.808594 321.808594 C 357.171875 320.890625 356.015625 320.324219 355.304688 320.648438 C 352.496094 322.03125 349.710938 323.167969 346.78125 323.960938 C 356.097656 311.441406 365.675781 299.023438 372.304688 284.796875 C 372.585938 284.164062 372.261719 283.171875 371.410156 283.25 C 369.171875 283.476562 367.117188 282.742188 365.003906 282.234375 C 370.148438 274.816406 377.589844 269.492188 382.898438 262.214844 C 389.382812 253.355469 390.21875 243.070312 391.152344 232.460938 C 391.703125 226.160156 392.148438 219.699219 394.222656 213.683594 C 396.117188 208.132812 399.003906 202.910156 401.953125 197.871094 C 402.949219 196.183594 404.003906 194.578125 405.042969 192.929688 C 399.125 190.105469 393.960938 185.390625 390.992188 179.941406 C 386.921875 172.828125 385.90625 161.652344 392.007812 156.570312 C 398.109375 151.835938 412.730469 159.699219 423.933594 166.386719 C 436.601562 176.40625 454.863281 183.277344 456.816406 182.644531 C 459.703125 181.730469 454.191406 175.105469 452.851562 173.074219 C 459.621094 172.402344 469.605469 175.429688 475.21875 173.847656 C 477.597656 173.175781 464.949219 169.78125 464.949219 165.714844 C 464.949219 161.652344 473.085938 163.011719 476.480469 163.011719 C 479.875 163.011719 486.648438 165.714844 488.679688 164.355469 C 491.386719 162.320312 493.417969 154.191406 493.417969 150.820312 C 500.882812 149.457031 507.652344 154.882812 513.082031 158.949219 C 517.820312 162.320312 518.511719 159.617188 521.890625 155.554688 C 524.613281 152.851562 526.648438 148.785156 529.351562 154.191406 C 532.054688 160.289062 528.679688 171.8125 538.847656 163.011719 C 542.222656 160.289062 544.949219 158.257812 549.015625 162.320312 C 551.71875 165.046875 551.050781 169.78125 553.082031 173.175781 C 556.457031 177.910156 557.148438 173.175781 561.21875 171.144531 C 565.957031 168.417969 565.957031 171.8125 567.988281 175.207031 C 573.417969 184.679688 579.171875 175.878906 582.222656 171.050781 C 585.273438 166.222656 614.617188 151.023438 621.753906 156.570312 C 627.851562 161.652344 626.835938 172.832031 622.769531 179.945312 Z M 622.769531 179.945312 " fill-opacity="1" fill-rule="nonzero"/><path fill="#e0ae8c" d="M 621.75 156.574219 C 614.613281 151.023438 585.269531 166.226562 582.21875 171.054688 C 582.082031 171.269531 581.9375 171.5 581.792969 171.726562 C 586.84375 170.605469 592.765625 167.800781 597.308594 169.617188 C 599.566406 170.523438 604.945312 173.925781 602.949219 177.023438 C 602.425781 177.832031 601.523438 178.601562 601.121094 179.441406 C 599.425781 182.972656 606.128906 182.933594 607.554688 183.09375 C 609.902344 183.363281 612.363281 184.957031 614.21875 186.320312 C 614.945312 186.847656 615.578125 187.414062 616.175781 187.996094 C 618.863281 185.648438 621.144531 182.914062 622.765625 179.945312 C 626.835938 172.832031 627.851562 161.652344 621.75 156.574219 Z M 621.75 156.574219 " fill-opacity="1" fill-rule="nonzero"/><path fill="#e0ae8c" d="M 401.417969 190.886719 C 401.550781 186.824219 403.078125 183.101562 407.742188 182.109375 C 410.550781 181.515625 413.386719 181.496094 416.242188 181.5625 C 419.261719 181.628906 419.445312 182.308594 419.726562 179.296875 C 419.917969 177.214844 420.152344 175.253906 419.875 173.175781 C 419.816406 172.71875 420.234375 172.324219 420.621094 172.195312 C 424.03125 171.058594 427.433594 170.960938 430.84375 171.246094 C 428.449219 169.734375 426.105469 168.113281 423.929688 166.394531 C 412.722656 159.707031 398.101562 151.839844 392.003906 156.578125 C 385.902344 161.65625 386.917969 172.835938 390.984375 179.949219 C 393.328125 184.242188 397.050781 188.070312 401.417969 190.886719 Z M 401.417969 190.886719 " fill-opacity="1" fill-rule="nonzero"/><path fill="#9c4639" d="M 559.5 233.777344 C 559.507812 233.382812 559.515625 232.988281 559.523438 232.59375 C 559.707031 230.984375 560.148438 229.570312 560.84375 228.34375 C 562.082031 226.175781 563.785156 225.300781 565.640625 225.359375 C 565.511719 225.34375 565.382812 225.328125 565.257812 225.3125 C 565.417969 225.320312 565.578125 225.347656 565.738281 225.359375 C 565.917969 225.367188 566.101562 225.390625 566.285156 225.417969 C 566.789062 225.464844 567.292969 225.5 567.816406 225.574219 C 569.253906 225.769531 570.953125 227.367188 572.042969 228.722656 C 574.25 231.46875 575.324219 235.925781 574.875 239.949219 C 574.3125 245.03125 571.417969 248.824219 567.933594 249.074219 C 565.167969 249.273438 562.398438 247.226562 560.75 243.769531 C 559.910156 242 559.410156 240.058594 559.257812 237.949219 C 559.148438 236.429688 559.25 235.0625 559.5 233.777344 Z M 559.5 233.777344 " fill-opacity="1" fill-rule="nonzero"/><path fill="#9c4639" d="M 459.75 233.78125 C 459.757812 233.386719 459.765625 232.992188 459.773438 232.597656 C 459.957031 230.988281 460.398438 229.570312 461.09375 228.34375 C 462.332031 226.175781 464.035156 225.304688 465.890625 225.359375 C 465.761719 225.34375 465.632812 225.328125 465.503906 225.3125 C 465.664062 225.320312 465.828125 225.347656 465.988281 225.359375 C 466.167969 225.367188 466.351562 225.390625 466.535156 225.417969 C 467.039062 225.464844 467.542969 225.503906 468.066406 225.574219 C 469.503906 225.769531 471.203125 227.367188 472.292969 228.722656 C 474.5 231.46875 475.574219 235.925781 475.125 239.953125 C 474.558594 245.03125 471.667969 248.824219 468.183594 249.074219 C 465.417969 249.273438 462.648438 247.226562 461 243.773438 C 460.160156 242 459.660156 240.058594 459.507812 237.949219 C 459.394531 236.429688 459.496094 235.0625 459.75 233.78125 Z M 459.75 233.78125 " fill-opacity="1" fill-rule="nonzero"/><path fill="#e0ae8c" d="M 430.382812 494.972656 C 432.761719 503.777344 441.886719 515.203125 444.9375 522.316406 C 447.988281 529.429688 475.121094 530.878906 485.964844 528.164062 C 492.742188 526.132812 496.132812 522.070312 492.066406 514.617188 C 489.355469 508.519531 483.929688 507.164062 477.152344 507.164062 C 469.695312 507.164062 468.34375 505.808594 464.273438 499.035156 C 461.5625 494.96875 459.867188 491.988281 456.140625 486.230469 C 452.414062 480.46875 428.003906 486.164062 430.382812 494.972656 Z M 430.382812 494.972656 " fill-opacity="1" fill-rule="nonzero"/><path fill="#e0ae8c" d="M 475.222656 473.96875 C 473.765625 481.082031 488.675781 494.972656 484.609375 502.421875 C 482.578125 505.132812 481.21875 505.8125 483.253906 508.519531 C 485.289062 511.230469 489.355469 511.910156 492.746094 512.585938 C 499.523438 513.941406 511.046875 513.941406 515.789062 507.84375 C 519.855469 502.421875 519.855469 497.003906 515.113281 493.617188 C 509.011719 488.875 508.335938 485.488281 508.335938 477.355469 C 508.335938 469.226562 511.386719 459.742188 503.25 455.679688 C 495.117188 451.613281 476.683594 466.855469 475.222656 473.96875 Z M 475.222656 473.96875 " fill-opacity="1" fill-rule="nonzero"/><path fill="#e0ae8c" d="M 225.71875 495.28125 C 223.644531 504.117188 221.769531 516.132812 225.675781 520.035156 C 228.800781 523.941406 242.339844 520.269531 247.027344 521.050781 C 254.058594 523.394531 262.601562 525.746094 270.414062 525.746094 C 275.882812 525.746094 281.957031 526.503906 283.519531 518.699219 C 285.082031 505.425781 263.210938 508.550781 257.742188 504.648438 C 257.742188 500.742188 262.652344 498.015625 263.992188 492.9375 C 265.332031 487.855469 227.792969 486.445312 225.71875 495.28125 Z M 225.71875 495.28125 " fill-opacity="1" fill-rule="nonzero"/><path fill="#e7d6c6" d="M 496.488281 102.53125 C 506.566406 105.082031 515.1875 108.871094 522.011719 116.816406 C 522.371094 117.234375 523.246094 117.046875 523.328125 116.46875 C 524.921875 105.097656 504.660156 100.941406 496.808594 100.140625 C 495.425781 100 495.183594 102.199219 496.488281 102.53125 Z M 496.488281 102.53125 " fill-opacity="1" fill-rule="nonzero"/><path fill="#e7d6c6" d="M 442.945312 86.925781 C 447.59375 88.695312 451.941406 91.25 456.285156 93.644531 C 459.710938 95.53125 462.996094 97.933594 466.984375 98.117188 C 468.417969 98.179688 468.800781 96.488281 468.046875 95.554688 C 465.363281 92.230469 460.832031 90.664062 457.054688 88.855469 C 452.734375 86.785156 448.300781 85.433594 443.578125 84.628906 C 442.0625 84.367188 441.503906 86.375 442.945312 86.925781 Z M 442.945312 86.925781 " fill-opacity="1" fill-rule="nonzero"/><path fill="#e7d6c6" d="M 410.046875 110.726562 C 421.578125 112.066406 432.964844 113.675781 442.011719 121.578125 C 442.578125 122.074219 443.644531 121.613281 443.363281 120.789062 C 439.011719 107.960938 421.03125 108.414062 410.046875 108.25 C 408.414062 108.226562 408.503906 110.546875 410.046875 110.726562 Z M 410.046875 110.726562 " fill-opacity="1" fill-rule="nonzero"/><path fill="#e7d6c6" d="M 373.738281 90.566406 C 380.703125 92.007812 388.667969 94.355469 395.816406 93.480469 C 396.640625 93.378906 397.195312 92.214844 396.285156 91.75 C 389.851562 88.453125 381.53125 88.792969 374.511719 87.761719 C 372.703125 87.5 371.867188 90.175781 373.738281 90.566406 Z M 373.738281 90.566406 " fill-opacity="1" fill-rule="nonzero"/><path fill="#e7d6c6" d="M 301.929688 132.382812 C 313.28125 130.734375 325.371094 129.71875 336.425781 126.6875 C 337.332031 126.441406 337.382812 125.027344 336.425781 124.804688 C 324.953125 122.15625 312.320312 127.25 301.257812 129.949219 C 299.636719 130.347656 300.367188 132.613281 301.929688 132.382812 Z M 301.929688 132.382812 " fill-opacity="1" fill-rule="nonzero"/><path fill="#e7d6c6" d="M 256.453125 124.027344 C 274.097656 118.199219 291.703125 116.441406 309.945312 113.65625 C 310.933594 113.503906 310.546875 112.171875 309.726562 112.0625 C 291.351562 109.710938 272.730469 115.054688 255.90625 122.050781 C 254.726562 122.542969 255.164062 124.449219 256.453125 124.027344 Z M 256.453125 124.027344 " fill-opacity="1" fill-rule="nonzero"/><path fill="#e7d6c6" d="M 312.4375 162.355469 C 321.195312 162.050781 330.496094 162.625 339.140625 161.261719 C 339.96875 161.132812 340.144531 159.773438 339.378906 159.433594 C 331.070312 155.757812 321.082031 158.476562 312.441406 159.59375 C 310.730469 159.816406 310.609375 162.421875 312.4375 162.355469 Z M 312.4375 162.355469 " fill-opacity="1" fill-rule="nonzero"/><path fill="#e7d6c6" d="M 360.566406 136.542969 C 369.335938 136.214844 378.375 135.507812 386.511719 139.464844 C 387.335938 139.867188 388.410156 139.011719 387.847656 138.128906 C 382.167969 129.214844 368.804688 132.769531 360.21875 133.96875 C 358.742188 134.175781 359.113281 136.597656 360.566406 136.542969 Z M 360.566406 136.542969 " fill-opacity="1" fill-rule="nonzero"/><path fill="#e0ae8c" d="M 522.320312 236.175781 C 509.90625 236.175781 499.976562 240.917969 490.667969 250.402344 C 485.703125 256.5 482.601562 263.273438 476.394531 267.339844 C 470.1875 271.40625 461.5 274.792969 460.878906 282.921875 C 460.257812 293.082031 462.742188 296.472656 472.050781 299.179688 C 478.878906 301.890625 486.328125 303.246094 493.152344 304.601562 C 505.566406 306.632812 517.355469 307.3125 530.390625 306.632812 C 542.042969 306.027344 585.070312 291.796875 567.007812 272.082031 C 561.359375 265.917969 552.769531 264.480469 546.460938 259.390625 C 539.828125 254.046875 540.695312 245.464844 535.386719 239.539062 C 531.546875 235.257812 524.746094 236.699219 519.824219 236.851562 C 520.601562 236.644531 521.523438 236.175781 522.320312 236.175781 Z M 522.320312 236.175781 " fill-opacity="1" fill-rule="nonzero"/><path fill="#e7d6c6" d="M 188.757812 179.898438 C 194.414062 177.964844 200.199219 176.550781 206.121094 175.722656 C 212.035156 174.898438 218.238281 175.296875 224.023438 173.871094 C 225.382812 173.535156 225.398438 171.441406 224.023438 171.113281 C 212.007812 168.246094 198.394531 171.90625 187.710938 177.414062 C 186.347656 178.121094 187.296875 180.398438 188.757812 179.898438 Z M 188.757812 179.898438 " fill-opacity="1" fill-rule="nonzero"/><path fill="#e7d6c6" d="M 218.523438 155.980469 C 223.390625 154.199219 228.601562 153.746094 233.75 153.542969 C 238.585938 153.351562 243.523438 154.59375 248.304688 153.789062 C 249.226562 153.632812 249.152344 152.4375 248.539062 152.003906 C 240.804688 146.535156 225.15625 149.113281 217.644531 153.890625 C 216.589844 154.558594 217.257812 156.445312 218.523438 155.980469 Z M 218.523438 155.980469 " fill-opacity="1" fill-rule="nonzero"/><path fill="#e7d6c6" d="M 216.21875 231.292969 C 231.074219 221.203125 246.972656 217.109375 263.914062 212.121094 C 265.0625 211.785156 264.820312 210.097656 263.636719 210.0625 C 245.5625 209.542969 228.367188 218.066406 214.515625 229.085938 C 213.265625 230.078125 214.90625 232.183594 216.21875 231.292969 Z M 216.21875 231.292969 " fill-opacity="1" fill-rule="nonzero"/><path fill="#e7d6c6" d="M 149.871094 228.160156 C 156.230469 222.421875 163.648438 218.46875 171.167969 214.496094 C 172 214.054688 171.394531 212.90625 170.5625 213.0625 C 161.664062 214.730469 154.402344 220.136719 148.289062 226.578125 C 147.289062 227.628906 148.804688 229.125 149.871094 228.160156 Z M 149.871094 228.160156 " fill-opacity="1" fill-rule="nonzero"/><path fill="#e7d6c6" d="M 155.574219 284.902344 C 159.375 279.804688 163.03125 274.535156 167.585938 270.070312 C 171.953125 265.785156 179.320312 264.445312 182.359375 258.964844 C 182.640625 258.457031 182.296875 257.585938 181.617188 257.675781 C 175.941406 258.402344 170.296875 262.359375 165.859375 265.816406 C 160.171875 270.246094 156.941406 277.585938 153.4375 283.652344 C 152.613281 285.066406 154.640625 286.148438 155.574219 284.902344 Z M 155.574219 284.902344 " fill-opacity="1" fill-rule="nonzero"/><path fill="#e7d6c6" d="M 113.558594 279.152344 C 115.652344 272 122.25 268.125 126.742188 262.625 C 127.425781 261.789062 126.566406 260.433594 125.53125 261.054688 C 118.980469 264.988281 112.535156 270.601562 111.398438 278.558594 C 111.199219 279.949219 113.140625 280.578125 113.558594 279.152344 Z M 113.558594 279.152344 " fill-opacity="1" fill-rule="nonzero"/><path fill="#e7d6c6" d="M 128.765625 344.980469 C 132.796875 338.351562 137.476562 332.214844 142.53125 326.335938 C 147.726562 320.292969 154.285156 315.574219 159.363281 309.457031 C 160.195312 308.457031 159.179688 307.167969 158.007812 307.699219 C 143.425781 314.300781 133.390625 330.003906 127.371094 344.164062 C 126.96875 345.097656 128.207031 345.898438 128.765625 344.980469 Z M 128.765625 344.980469 " fill-opacity="1" fill-rule="nonzero"/><path fill="#e7d6c6" d="M 165.800781 358.78125 C 169.265625 353.84375 172.859375 349.664062 177.871094 346.226562 C 182.320312 343.175781 187.378906 341.082031 191.324219 337.332031 C 192.285156 336.417969 191.277344 334.964844 190.09375 335.222656 C 179.25 337.585938 166.003906 346.390625 163.410156 357.769531 C 163.066406 359.265625 164.957031 359.988281 165.800781 358.78125 Z M 165.800781 358.78125 " fill-opacity="1" fill-rule="nonzero"/><path fill="#e7d6c6" d="M 167.382812 395.917969 C 172.863281 396.535156 177.007812 393.976562 181.71875 391.539062 C 189.671875 387.425781 198.21875 384.4375 205.351562 378.941406 C 206.476562 378.070312 205.898438 375.945312 204.304688 376.457031 C 197.984375 378.492188 192.015625 381.097656 186.035156 383.960938 C 180.304688 386.703125 173.773438 392.871094 167.382812 393.488281 C 165.808594 393.640625 165.828125 395.746094 167.382812 395.917969 Z M 167.382812 395.917969 " fill-opacity="1" fill-rule="nonzero"/><path fill="#e7d6c6" d="M 207.046875 410.195312 C 219.800781 407.269531 235.972656 403.476562 243.777344 391.988281 C 244.515625 390.902344 243.039062 389.40625 241.949219 390.164062 C 230.953125 397.84375 218.90625 403.058594 206.347656 407.667969 C 204.777344 408.246094 205.378906 410.578125 207.046875 410.195312 Z M 207.046875 410.195312 " fill-opacity="1" fill-rule="nonzero"/><path fill="#e7d6c6" d="M 115.167969 389.960938 C 115.730469 384.265625 117.988281 378.925781 118.75 373.257812 C 118.878906 372.296875 117.722656 371.695312 117.140625 372.578125 C 113.652344 377.847656 112.152344 383.660156 112.5 389.960938 C 112.59375 391.703125 115 391.652344 115.167969 389.960938 Z M 115.167969 389.960938 " fill-opacity="1" fill-rule="nonzero"/><path fill="#e7d6c6" d="M 244.96875 334.855469 C 251.128906 333.375 255.128906 328.582031 259.34375 324.132812 C 264.976562 318.1875 270.917969 312.476562 275.019531 305.308594 C 275.847656 303.863281 273.996094 302.601562 272.808594 303.605469 C 267.785156 307.875 263.328125 312.746094 258.902344 317.625 C 254.316406 322.679688 249.921875 329.066406 244.066406 332.726562 C 242.9375 333.429688 243.667969 335.167969 244.96875 334.855469 Z M 244.96875 334.855469 " fill-opacity="1" fill-rule="nonzero"/><path fill="#e7d6c6" d="M 282.527344 340.835938 C 291.496094 335.625 296.457031 329.289062 298.398438 319.066406 C 298.617188 317.914062 297.058594 317.492188 296.652344 318.585938 C 293.554688 326.988281 288.789062 333.769531 281.347656 338.820312 C 280.113281 339.65625 281.210938 341.601562 282.527344 340.835938 Z M 282.527344 340.835938 " fill-opacity="1" fill-rule="nonzero"/><path fill="#e7d6c6" d="M 228.964844 287.296875 C 238.0625 280.6875 245.464844 273.082031 252.71875 264.558594 C 253.4375 263.714844 252.347656 262.621094 251.503906 263.34375 C 243.234375 270.433594 235.90625 278.492188 227.578125 285.5 C 226.589844 286.332031 227.914062 288.058594 228.964844 287.296875 Z M 228.964844 287.296875 " fill-opacity="1" fill-rule="nonzero"/><path fill="#e7d6c6" d="M 306.40625 215.769531 C 321.933594 209.214844 336.363281 206.488281 353.109375 208.628906 C 353.878906 208.722656 354.332031 207.558594 353.75 207.082031 C 340.453125 196.195312 317.949219 206.652344 304.917969 213.222656 C 303.175781 214.097656 304.703125 216.488281 306.40625 215.769531 Z M 306.40625 215.769531 " fill-opacity="1" fill-rule="nonzero"/><path fill="#e7d6c6" d="M 323.578125 242.996094 C 327.378906 243.710938 331.078125 243.199219 334.875 242.640625 C 340.289062 241.84375 345.636719 241.566406 351.078125 241.121094 C 351.980469 241.050781 352.242188 240 351.523438 239.480469 C 344.261719 234.253906 331.460938 238.265625 323.578125 240.195312 C 322.230469 240.523438 322.140625 242.726562 323.578125 242.996094 Z M 323.578125 242.996094 " fill-opacity="1" fill-rule="nonzero"/><path fill="#e7d6c6" d="M 318.875 293.621094 C 332.992188 291.480469 343.121094 281.648438 351.816406 270.789062 C 352.523438 269.910156 351.636719 268.492188 350.546875 269.144531 C 338.945312 276.085938 331.804688 287.875 318.203125 291.1875 C 316.585938 291.582031 317.308594 293.859375 318.875 293.621094 Z M 318.875 293.621094 " fill-opacity="1" fill-rule="nonzero"/><path fill="#9c4639" d="M 464.582031 112.875 C 469.460938 114.710938 474.390625 116.308594 479.035156 118.714844 C 483.851562 121.210938 486.3125 124.8125 490.105469 128.386719 C 490.589844 128.84375 491.335938 128.625 491.539062 128.007812 C 495.402344 116.347656 472.277344 112.09375 465.328125 110.164062 C 463.550781 109.671875 462.914062 112.25 464.582031 112.875 Z M 464.582031 112.875 " fill-opacity="1" fill-rule="nonzero"/><path fill="#9c4639" d="M 412.359375 143.453125 C 415.992188 144.449219 419.910156 144.710938 423.644531 145.070312 C 427.875 145.480469 431.6875 147.1875 435.804688 147.726562 C 436.292969 147.789062 436.839844 147.230469 436.78125 146.75 C 435.792969 138.472656 418.585938 141.433594 413.15625 140.5625 C 411.289062 140.261719 410.453125 142.929688 412.359375 143.453125 Z M 412.359375 143.453125 " fill-opacity="1" fill-rule="nonzero"/><path fill="#9c4639" d="M 545.671875 132.386719 C 545.988281 134.367188 546.445312 136.3125 546.808594 138.28125 C 547.105469 139.871094 547.640625 141.695312 548.875 142.816406 C 549.332031 143.230469 550.039062 143.273438 550.492188 142.816406 C 553.433594 139.828125 550.515625 134.597656 549.625 131.300781 C 548.921875 128.691406 545.269531 129.84375 545.671875 132.386719 Z M 545.671875 132.386719 " fill-opacity="1" fill-rule="nonzero"/><path fill="#9c4639" d="M 330.347656 179.335938 C 335.4375 180.878906 340.484375 180.605469 345.746094 180.363281 C 352.140625 180.070312 358.261719 180.40625 364.632812 180.945312 C 365.472656 181.015625 366.007812 179.78125 365.339844 179.238281 C 356.320312 171.898438 341.421875 176.449219 330.742188 176.4375 C 329.046875 176.4375 328.765625 178.855469 330.347656 179.335938 Z M 330.347656 179.335938 " fill-opacity="1" fill-rule="nonzero"/><path fill="#9c4639" d="M 255.5 182.003906 C 260.398438 182.570312 264.511719 181.226562 269.003906 179.316406 C 275.605469 176.503906 282.832031 175.582031 289.644531 173.410156 C 290.503906 173.136719 290.605469 171.796875 289.644531 171.574219 C 284.777344 170.441406 280.445312 171.542969 275.683594 172.769531 C 268.851562 174.527344 262.636719 178.925781 255.5 179.238281 C 253.683594 179.320312 253.765625 181.804688 255.5 182.003906 Z M 255.5 182.003906 " fill-opacity="1" fill-rule="nonzero"/><path fill="#9c4639" d="M 277.867188 247.253906 C 285.816406 246.226562 294.910156 243.183594 301.394531 238.355469 C 302.078125 237.847656 301.960938 236.503906 300.914062 236.578125 C 292.832031 237.164062 285.1875 241.941406 277.441406 244.121094 C 275.765625 244.59375 276.039062 247.492188 277.867188 247.253906 Z M 277.867188 247.253906 " fill-opacity="1" fill-rule="nonzero"/><path fill="#9c4639" d="M 203.03125 280.511719 C 204.109375 275.1875 210.15625 271.152344 214.039062 267.75 C 218.734375 263.636719 223.730469 260.03125 227.890625 255.324219 C 228.761719 254.339844 227.621094 252.613281 226.417969 253.417969 C 220.136719 257.617188 214.132812 262.246094 208.671875 267.480469 C 205.042969 270.964844 200.910156 274.882812 200.832031 280.210938 C 200.8125 281.457031 202.777344 281.765625 203.03125 280.511719 Z M 203.03125 280.511719 " fill-opacity="1" fill-rule="nonzero"/><path fill="#9c4639" d="M 207.210938 350.496094 C 216.160156 347.492188 224.84375 338.644531 227.078125 329.375 C 227.488281 327.675781 225.382812 326.988281 224.421875 328.253906 C 218.90625 335.53125 213.824219 342.367188 205.722656 346.96875 C 203.84375 348.035156 205.109375 351.203125 207.210938 350.496094 Z M 207.210938 350.496094 " fill-opacity="1" fill-rule="nonzero"/><path fill="#9c4639" d="M 170.0625 446.625 C 179.234375 441.917969 190.117188 437.929688 192.816406 426.832031 C 193.109375 425.628906 191.515625 424.984375 190.855469 426.003906 C 185.289062 434.582031 177.261719 439.152344 168.765625 444.40625 C 167.351562 445.28125 168.59375 447.382812 170.0625 446.625 Z M 170.0625 446.625 " fill-opacity="1" fill-rule="nonzero"/><path fill="#9c4639" d="M 109.226562 330.078125 C 112.601562 320.21875 117.210938 310.777344 120.265625 300.8125 C 120.617188 299.664062 118.9375 298.984375 118.351562 300.007812 C 113.058594 309.191406 108.230469 318.765625 106.238281 329.253906 C 105.867188 331.210938 108.574219 331.976562 109.226562 330.078125 Z M 109.226562 330.078125 " fill-opacity="1" fill-rule="nonzero"/><path fill="#9c4639" d="M 148.054688 204.851562 C 151.929688 203.425781 155.308594 200.742188 158.621094 198.324219 C 162.46875 195.507812 166.445312 192.511719 169.445312 188.78125 C 170.15625 187.894531 169.292969 186.699219 168.234375 187.210938 C 164.066406 189.21875 160.316406 192.132812 156.585938 194.839844 C 153.261719 197.257812 149.507812 199.617188 146.851562 202.777344 C 146.128906 203.636719 146.78125 205.316406 148.054688 204.851562 Z M 148.054688 204.851562 " fill-opacity="1" fill-rule="nonzero"/><path fill="#9c4639" d="M 350.398438 104.09375 C 355.339844 104.304688 360.28125 104.359375 365.210938 104.773438 C 370.714844 105.238281 375.898438 106.820312 381.300781 107.789062 C 382.253906 107.960938 383.167969 106.800781 382.320312 106.035156 C 373.742188 98.289062 360.933594 100.730469 350.398438 101.332031 C 348.621094 101.433594 348.609375 104.019531 350.398438 104.09375 Z M 350.398438 104.09375 " fill-opacity="1" fill-rule="nonzero"/><path fill="#9c4639" d="M 533.191406 261 C 539.828125 263.78125 530.828125 276.582031 523.792969 276.582031 C 518.871094 276.582031 505.492188 266.417969 510.578125 262.691406 C 515.660156 258.964844 526.550781 258.214844 533.191406 261 Z M 533.191406 261 " fill-opacity="1" fill-rule="nonzero"/><path fill="#9c4639" d="M 542.007812 282.375 C 534.8125 283.996094 530.214844 279.558594 525.757812 274.621094 C 524.492188 273.226562 522.347656 273.773438 521.402344 275.183594 C 518.757812 279.125 514.691406 281.363281 510.226562 282.695312 C 506.09375 283.929688 502.011719 282.027344 497.785156 282.652344 C 496.996094 282.769531 496.527344 283.945312 497 284.574219 C 504.351562 294.425781 520.746094 286.179688 526.1875 277.980469 C 524.738281 278.167969 523.285156 278.355469 521.832031 278.539062 C 526.90625 284.101562 536.703125 292.371094 543.5625 285.042969 C 544.671875 283.851562 543.570312 282.023438 542.007812 282.375 Z M 542.007812 282.375 " fill-opacity="1" fill-rule="nonzero"/><path fill="#e0ae8c" d="M 443.375 248.183594 C 418.578125 248.183594 416.882812 284.894531 440.074219 286.441406 C 465.300781 288.128906 470.511719 248.183594 443.375 248.183594 Z M 443.375 248.183594 " fill-opacity="1" fill-rule="nonzero"/><path fill="#e0ae8c" d="M 591.070312 248.183594 C 566.273438 248.183594 564.578125 284.894531 587.765625 286.441406 C 613 288.128906 618.207031 248.183594 591.070312 248.183594 Z M 591.070312 248.183594 " fill-opacity="1" fill-rule="nonzero"/><path fill="#7e7935" d="M 495.269531 420.582031 C 490.324219 411.300781 484.582031 409.933594 479.085938 409.183594 C 479.28125 409.0625 479.476562 408.941406 479.671875 408.820312 C 482.371094 408.070312 485.066406 407.3125 487.761719 406.546875 C 491.875 405.371094 495.988281 404.199219 500.097656 403.03125 C 501.242188 408.546875 503.246094 414.574219 506.367188 419.75 C 511.023438 427.480469 520.429688 431.980469 527.835938 434.492188 C 531.070312 435.40625 524.265625 416.699219 521.128906 412.238281 C 515.402344 404.089844 509.820312 402.230469 504.472656 401.789062 C 510.75 400.007812 517.035156 398.25 523.328125 396.519531 C 523.398438 396.664062 523.46875 396.808594 523.542969 396.953125 C 523.691406 396.824219 523.839844 396.691406 523.988281 396.5625 C 525.648438 402.746094 526.847656 407.171875 530.78125 412.847656 C 536.53125 421.140625 555.832031 427.695312 564.277344 429.972656 C 567.949219 430.761719 552.050781 410.5 548.226562 405.742188 C 540.863281 396.574219 534.179688 395.214844 527.882812 395.269531 C 528.3125 395.152344 528.738281 395.03125 529.164062 394.917969 C 535.117188 393.304688 541.066406 391.664062 546.890625 389.703125 C 549.175781 395.570312 552.503906 401.847656 556.902344 406.980469 C 563.46875 414.644531 579.40625 414.710938 588.042969 416.113281 C 591.773438 416.523438 576.074219 400.308594 571.789062 395.964844 C 564.691406 388.777344 558.679688 387.269531 553.160156 387.429688 C 557.773438 385.617188 562.273438 383.519531 566.59375 380.972656 C 567.800781 380.261719 568.960938 379.503906 570.105469 378.71875 C 572.421875 383.011719 575.652344 387.253906 579.773438 390.285156 C 586.035156 394.890625 596.375 394.597656 604.019531 393.542969 C 607.242188 392.945312 597.960938 380.203125 594.101562 377.632812 C 587.070312 372.945312 580.933594 373.316406 575.125 374.945312 C 577.375 373.113281 579.546875 371.183594 581.6875 369.210938 C 588.839844 369.007812 596.082031 368.230469 601.851562 360.023438 C 604.394531 356.402344 606.859375 353.738281 609.351562 350.082031 C 613.367188 345.363281 605.089844 343.488281 602.011719 344.070312 C 594.84375 345.773438 588.703125 347.453125 584.722656 353.714844 C 582.085938 357.863281 580.675781 362.789062 580.101562 367.433594 C 577.875 369.472656 575.617188 371.46875 573.269531 373.363281 C 576.402344 369.074219 578.496094 364.023438 576.730469 356.542969 C 575.722656 352.273438 567.507812 339.589844 565.921875 342.144531 C 562.484375 348.335938 558.835938 357.132812 560.855469 364.214844 C 562.226562 369.035156 565.046875 373.507812 568.203125 377.148438 C 567.027344 377.957031 565.824219 378.734375 564.582031 379.46875 C 559.703125 382.347656 554.53125 384.605469 549.222656 386.515625 C 552.835938 382.140625 555.585938 376.695312 553.578125 366.707031 C 552.570312 361.679688 550.800781 339.675781 549.332031 342.1875 C 546.15625 348.308594 536.710938 363.714844 538.515625 371.910156 C 539.734375 377.445312 542.269531 383.027344 545.1875 387.898438 C 539.476562 389.761719 533.648438 391.3125 527.878906 392.867188 C 531.378906 389.035156 533.992188 383.957031 533.109375 374.78125 C 532.617188 369.675781 528.582031 348.75 526.867188 351.097656 C 523.082031 356.863281 516.636719 370.082031 517.589844 378.417969 C 518.210938 383.828125 520.039062 389.402344 522.308594 394.390625 C 516.097656 396.09375 509.890625 397.832031 503.691406 399.59375 C 507.039062 396.367188 509.667969 391.988281 509.402344 383.742188 C 509.257812 379.15625 504.625 364.355469 502.953125 366.351562 C 499.246094 371.28125 494.96875 378.609375 495.34375 386.101562 C 495.59375 391.089844 496.96875 396.316406 498.78125 400.992188 C 494.5625 402.195312 490.347656 403.402344 486.125 404.601562 C 485.4375 404.800781 484.746094 404.984375 484.058594 405.179688 C 486.089844 402.832031 487.636719 399.550781 488.105469 394.398438 C 488.472656 390.371094 486.03125 376.925781 484.355469 378.492188 C 480.578125 382.398438 476.042969 388.34375 475.558594 394.933594 C 475.265625 398.960938 475.78125 403.25 476.695312 407.238281 C 473.320312 408.164062 469.941406 409.074219 466.554688 409.964844 C 460.199219 411.636719 453.9375 413.613281 448.179688 416.832031 C 446.875 417.558594 448.089844 419.527344 449.390625 418.800781 C 455.253906 415.53125 461.652344 413.644531 468.113281 411.945312 C 471.167969 411.144531 474.214844 410.320312 477.261719 409.484375 C 477.324219 409.707031 477.378906 409.9375 477.441406 410.15625 C 477.578125 410.078125 477.710938 410 477.84375 409.921875 C 478.226562 414.949219 479.328125 420.578125 481.542969 425.550781 C 486.035156 435.640625 491.332031 437.195312 498.722656 440.769531 C 501.449219 441.921875 497.527344 424.824219 495.269531 420.582031 Z M 495.269531 420.582031 " fill-opacity="1" fill-rule="nonzero"/><path fill="#7e7935" d="M 208.796875 136.902344 C 215.125 145.304688 213.933594 151.082031 212.292969 156.378906 C 212.484375 156.25 212.679688 156.125 212.871094 156 C 214.691406 153.871094 216.515625 151.75 218.351562 149.636719 C 221.15625 146.410156 223.957031 143.179688 226.753906 139.949219 C 222.238281 136.582031 217.621094 132.21875 214.242188 127.203125 C 209.203125 119.71875 209.101562 109.296875 209.949219 101.523438 C 210.488281 98.210938 224.574219 112.28125 227.292969 117.007812 C 232.261719 125.636719 231.589844 131.480469 229.730469 136.511719 C 233.996094 131.578125 238.246094 126.628906 242.476562 121.660156 C 242.378906 121.53125 242.273438 121.40625 242.171875 121.28125 C 242.351562 121.203125 242.53125 121.121094 242.710938 121.042969 C 237.808594 116.921875 234.300781 113.96875 230.816406 108.003906 C 225.726562 99.289062 227.945312 79.039062 229.449219 70.425781 C 230.285156 66.769531 241.9375 89.734375 244.636719 95.203125 C 249.835938 105.753906 248.242188 112.378906 245.535156 118.0625 C 245.820312 117.722656 246.109375 117.386719 246.394531 117.046875 C 250.375 112.339844 254.375 107.640625 258.617188 103.195312 C 254.261719 98.644531 249.976562 92.980469 247.179688 86.824219 C 243.011719 77.640625 249.6875 63.175781 252.0625 54.761719 C 253.269531 51.207031 261.339844 72.28125 263.464844 77.996094 C 266.980469 87.464844 265.804688 93.546875 263.328125 98.480469 C 266.921875 95.066406 270.726562 91.875 274.863281 89.042969 C 276.015625 88.25 277.191406 87.515625 278.386719 86.8125 C 275.472656 82.902344 272.996094 78.183594 271.992188 73.164062 C 270.460938 65.546875 275.09375 56.304688 279.285156 49.824219 C 281.1875 47.15625 288.816406 60.953125 289.519531 65.53125 C 290.796875 73.882812 287.867188 79.289062 283.933594 83.859375 C 286.546875 82.59375 289.214844 81.441406 291.90625 80.339844 C 295.117188 73.949219 298.882812 67.714844 308.761719 65.960938 C 313.121094 65.1875 316.578125 64.078125 320.949219 63.367188 C 326.925781 61.726562 325.125 70.019531 323.296875 72.554688 C 318.722656 78.332031 314.605469 83.183594 307.246094 84.140625 C 302.367188 84.773438 297.304688 83.96875 292.851562 82.523438 C 290.0625 83.679688 287.296875 84.882812 284.589844 86.207031 C 289.800781 85.179688 295.265625 85.417969 301.304688 90.179688 C 304.75 92.894531 312.777344 105.699219 309.789062 106.054688 C 302.722656 106.550781 293.207031 106.136719 287.632812 101.316406 C 283.84375 98.035156 280.980469 93.589844 279.015625 89.191406 C 277.785156 89.917969 276.570312 90.675781 275.382812 91.492188 C 270.710938 94.695312 266.476562 98.425781 262.5 102.425781 C 267.996094 101 274.097656 100.8125 282.300781 106.851562 C 286.4375 109.890625 305.640625 120.792969 302.738281 121.0625 C 295.847656 121.351562 277.882812 123.394531 271.214844 118.300781 C 266.710938 114.855469 262.722656 110.195312 259.539062 105.496094 C 255.433594 109.882812 251.5625 114.503906 247.714844 119.074219 C 252.671875 117.523438 258.378906 117.304688 266.324219 121.980469 C 270.746094 124.585938 288.015625 137.085938 285.160156 137.652344 C 278.332031 138.644531 263.621094 138.890625 256.46875 134.503906 C 251.824219 131.65625 247.542969 127.644531 243.980469 123.476562 C 239.808594 128.386719 235.609375 133.273438 231.394531 138.140625 C 235.730469 136.472656 240.816406 135.945312 248.175781 139.667969 C 252.273438 141.742188 263.738281 152.195312 261.222656 152.859375 C 255.183594 154.132812 246.730469 154.914062 240.097656 151.40625 C 235.679688 149.066406 231.523438 145.613281 228.046875 141.996094 C 225.175781 145.308594 222.300781 148.621094 219.425781 151.929688 C 218.953125 152.472656 218.496094 153.015625 218.027344 153.558594 C 221.015625 152.710938 224.644531 152.699219 229.515625 154.453125 C 233.324219 155.820312 244.480469 163.71875 242.355469 164.574219 C 237.214844 166.34375 229.90625 167.941406 223.726562 165.589844 C 219.949219 164.15625 216.277344 161.875 213.046875 159.359375 C 210.78125 162.027344 208.527344 164.703125 206.289062 167.394531 C 202.085938 172.441406 197.644531 177.277344 192.296875 181.136719 C 191.082031 182.007812 189.808594 180.078125 191.019531 179.203125 C 196.464844 175.273438 200.878906 170.277344 205.148438 165.140625 C 207.167969 162.714844 209.203125 160.300781 211.25 157.894531 C 211.074219 157.746094 210.890625 157.597656 210.71875 157.445312 C 210.84375 157.359375 210.972656 157.269531 211.097656 157.183594 C 206.699219 154.710938 202.0625 151.332031 198.488281 147.226562 C 191.238281 138.890625 192.066406 133.4375 191.949219 125.234375 C 192.0625 122.285156 205.90625 133.0625 208.796875 136.902344 Z M 208.796875 136.902344 " fill-opacity="1" fill-rule="nonzero"/></svg>