<svg xmlns="http://www.w3.org/2000/svg" xmlns:xlink="http://www.w3.org/1999/xlink" width="940" zoomAndPan="magnify" viewBox="0 0 705 591.000005" height="788" preserveAspectRatio="xMidYMid meet" version="1.0"><defs><clipPath id="e735acf925"><path d="M 393 472 L 403 472 L 403 525.800781 L 393 525.800781 Z M 393 472 " clip-rule="nonzero"/></clipPath><clipPath id="9cbe4db68f"><path d="M 298 473 L 309 473 L 309 525.800781 L 298 525.800781 Z M 298 473 " clip-rule="nonzero"/></clipPath></defs><g clip-path="url(#e735acf925)"><path fill="#b33f4a" d="M 402.617188 519.546875 C 402.617188 522.730469 400.585938 525.3125 398.058594 525.3125 C 395.546875 525.3125 393.5 522.730469 393.5 519.546875 L 393.5 478.464844 C 393.5 475.28125 395.546875 472.699219 398.058594 472.699219 C 400.585938 472.699219 402.617188 475.28125 402.617188 478.464844 L 402.617188 519.546875 " fill-opacity="1" fill-rule="nonzero"/></g><path fill="#b33f4a" d="M 378.582031 521.1875 C 377.007812 522.679688 374.320312 522.402344 372.601562 520.574219 C 370.855469 518.746094 370.730469 516.054688 372.3125 514.5625 L 393.039062 493.691406 C 394.621094 492.191406 396.972656 494.0625 398.699219 495.894531 C 400.425781 497.730469 400.550781 500.414062 398.96875 501.90625 L 378.582031 521.1875 " fill-opacity="1" fill-rule="nonzero"/><path fill="#b33f4a" d="M 417.164062 521.222656 C 418.742188 522.71875 421.421875 522.460938 423.15625 520.640625 C 424.90625 518.832031 425.035156 516.136719 423.476562 514.632812 L 402.859375 493.65625 C 401.300781 492.152344 398.917969 494.011719 397.175781 495.835938 C 395.429688 497.65625 395.289062 500.347656 396.871094 501.839844 L 417.164062 521.222656 " fill-opacity="1" fill-rule="nonzero"/><g clip-path="url(#9cbe4db68f)"><path fill="#b33f4a" d="M 308.0625 519.902344 C 308.0625 523.082031 306.011719 525.667969 303.496094 525.667969 C 300.984375 525.667969 298.9375 523.082031 298.9375 519.902344 L 298.9375 478.808594 C 298.9375 475.628906 300.984375 473.050781 303.496094 473.050781 C 306.011719 473.050781 308.0625 475.628906 308.0625 478.808594 L 308.0625 519.902344 " fill-opacity="1" fill-rule="nonzero"/></g><path fill="#b33f4a" d="M 284.015625 521.535156 C 282.441406 523.023438 279.761719 522.753906 278.027344 520.917969 C 276.300781 519.09375 276.175781 516.398438 277.757812 514.910156 L 298.472656 494.035156 C 300.050781 492.539062 302.398438 494.414062 304.136719 496.25 C 305.871094 498.074219 305.988281 500.761719 304.40625 502.25 L 284.015625 521.535156 " fill-opacity="1" fill-rule="nonzero"/><path fill="#b33f4a" d="M 322.609375 521.566406 C 324.175781 523.074219 326.855469 522.804688 328.597656 520.988281 C 330.34375 519.175781 330.46875 516.484375 328.902344 514.984375 L 308.304688 494.003906 C 306.738281 492.503906 304.355469 494.355469 302.609375 496.191406 C 300.867188 497.992188 300.730469 500.683594 302.308594 502.191406 L 322.609375 521.566406 " fill-opacity="1" fill-rule="nonzero"/><path fill="#ff4c6d" d="M 520.464844 278.21875 C 515.386719 244.898438 507.871094 188.742188 507.71875 188.195312 C 507.71875 188.195312 512.960938 138.265625 496.128906 68.050781 C 496.09375 67.917969 494.121094 63.726562 488.832031 68.347656 C 477.847656 77.960938 445.945312 97.015625 435.574219 98.277344 C 435.574219 98.277344 433.527344 98.773438 432.867188 98.613281 C 432.203125 98.453125 430.585938 97.125 430.585938 97.125 C 407.773438 82.160156 382.222656 74.339844 354.632812 73.84375 L 354.632812 73.828125 C 354.496094 73.828125 354.386719 73.828125 354.269531 73.828125 C 354.183594 73.828125 354.117188 73.816406 354.03125 73.816406 C 353.519531 73.808594 353.011719 73.816406 352.507812 73.816406 C 352.003906 73.816406 351.503906 73.808594 350.976562 73.816406 C 350.90625 73.816406 350.832031 73.828125 350.746094 73.828125 C 350.628906 73.828125 350.511719 73.828125 350.386719 73.828125 L 350.386719 73.84375 C 322.796875 74.339844 297.242188 82.160156 274.429688 97.125 C 274.429688 97.125 272.8125 98.453125 272.15625 98.613281 C 271.488281 98.773438 269.441406 98.277344 269.441406 98.277344 C 259.0625 97.015625 227.175781 77.960938 216.175781 68.347656 C 210.894531 63.726562 208.921875 67.917969 208.886719 68.050781 C 192.046875 138.265625 197.296875 188.195312 197.296875 188.195312 C 197.144531 188.742188 189.621094 244.898438 184.550781 278.21875 C 173.378906 351.503906 180.835938 402.394531 207.3125 433.796875 C 223.359375 452.820312 242.839844 463.054688 266.78125 468.660156 C 248.9375 459.011719 236.890625 439.535156 238.980469 400.398438 C 242.871094 327.710938 289.519531 284.238281 352.507812 283.226562 C 415.507812 284.238281 462.144531 327.710938 466.035156 400.398438 C 468.125 439.535156 457.753906 459.0625 439.910156 468.71875 C 463.863281 463.105469 481.65625 452.820312 497.695312 433.796875 C 524.191406 402.394531 531.636719 351.503906 520.464844 278.21875 " fill-opacity="1" fill-rule="nonzero"/><path fill="#fa506d" d="M 466.035156 400.398438 C 462.101562 327.054688 414.664062 283.429688 350.796875 283.1875 C 286.921875 282.96875 237.808594 326.1875 234.71875 399.589844 C 233.082031 438.097656 243.589844 457.617188 261.515625 467.480469 C 287.03125 473.53125 316.59375 474.785156 348.3125 475.242188 C 356.417969 475.351562 367.109375 475.453125 377.964844 475.234375 C 377.984375 475.234375 377.984375 475.234375 377.984375 475.234375 C 398.394531 474.835938 419.828125 473.421875 439.910156 468.71875 C 457.753906 459.0625 468.125 439.535156 466.035156 400.398438 " fill-opacity="1" fill-rule="nonzero"/><path fill="#fecfd5" d="M 286.984375 364.367188 C 286.738281 364.367188 286.476562 364.347656 286.242188 364.332031 C 274.800781 363.871094 266.882812 353.828125 266.78125 353.726562 L 267.421875 353.273438 C 267.496094 353.390625 275.214844 363.128906 286.257812 363.601562 C 293.234375 363.851562 300.074219 360.4375 306.5625 353.390625 L 307.140625 353.894531 C 300.714844 360.863281 293.949219 364.390625 286.984375 364.367188 " fill-opacity="1" fill-rule="nonzero"/><path fill="#fecfd5" d="M 287 365.425781 C 286.714844 365.433594 286.425781 365.410156 286.175781 365.417969 C 274.246094 364.914062 266.039062 354.492188 265.964844 354.382812 L 265.265625 353.507812 L 267.640625 351.773438 L 268.28125 352.609375 C 268.347656 352.726562 275.777344 362.085938 286.308594 362.523438 C 292.878906 362.765625 299.519531 359.449219 305.792969 352.660156 L 306.492188 351.875 L 308.691406 353.8125 L 307.984375 354.621094 C 301.304688 361.824219 294.253906 365.433594 287 365.425781 " fill-opacity="1" fill-rule="nonzero"/><path fill="#fecfd5" d="M 352.40625 364.585938 C 352.152344 364.59375 351.902344 364.585938 351.640625 364.570312 C 340.234375 364.089844 332.324219 354.046875 332.214844 353.972656 L 332.863281 353.507812 C 332.929688 353.625 340.636719 363.363281 351.683594 363.820312 C 358.667969 364.089844 365.507812 360.671875 372.003906 353.625 L 372.582031 354.113281 C 366.148438 361.09375 359.375 364.617188 352.40625 364.585938 " fill-opacity="1" fill-rule="nonzero"/><path fill="#fecfd5" d="M 352.40625 365.644531 C 352.136719 365.644531 351.867188 365.644531 351.613281 365.644531 C 339.660156 365.148438 331.457031 354.722656 331.371094 354.621094 L 330.714844 353.734375 L 333.089844 351.992188 L 333.738281 352.894531 C 333.789062 352.9375 341.269531 362.3125 351.722656 362.75 C 358.386719 363.027344 364.949219 359.6875 371.210938 352.886719 L 371.925781 352.136719 L 374.132812 354.046875 L 373.402344 354.871094 C 366.738281 362.070312 359.695312 365.679688 352.40625 365.644531 " fill-opacity="1" fill-rule="nonzero"/><path fill="#fecfd5" d="M 414.074219 364.8125 C 413.828125 364.8125 413.558594 364.804688 413.308594 364.777344 C 401.890625 364.316406 393.980469 354.265625 393.878906 354.171875 L 394.503906 353.726562 C 394.605469 353.84375 402.296875 363.574219 413.339844 364.039062 C 420.339844 364.316406 427.183594 360.890625 433.6875 353.84375 L 434.257812 354.332031 C 427.824219 361.3125 421.015625 364.847656 414.074219 364.8125 " fill-opacity="1" fill-rule="nonzero"/><path fill="#fecfd5" d="M 414.082031 365.871094 C 413.820312 365.871094 413.535156 365.871094 413.257812 365.871094 C 401.816406 365.394531 393.929688 355.949219 393.046875 354.871094 L 392.347656 353.972656 L 394.773438 352.1875 L 395.40625 353.113281 C 395.429688 353.171875 402.902344 362.546875 413.390625 362.96875 C 419.945312 363.214844 426.585938 359.90625 432.867188 353.105469 L 433.601562 352.320312 L 435.800781 354.273438 L 435.027344 355.074219 C 428.402344 362.269531 421.351562 365.898438 414.082031 365.871094 " fill-opacity="1" fill-rule="nonzero"/><path fill="#fecfd5" d="M 296.300781 406.695312 C 296.03125 406.695312 295.792969 406.695312 295.535156 406.6875 C 284.109375 406.230469 276.183594 396.164062 276.089844 396.074219 L 276.730469 395.652344 C 276.796875 395.734375 284.503906 405.515625 295.566406 405.953125 C 302.550781 406.230469 309.390625 402.796875 315.894531 395.753906 L 316.460938 396.234375 C 310.03125 403.183594 303.25 406.746094 296.300781 406.695312 " fill-opacity="1" fill-rule="nonzero"/><path fill="#fecfd5" d="M 296.285156 407.761719 C 295.996094 407.78125 295.71875 407.78125 295.472656 407.746094 C 284.074219 407.316406 276.125 397.855469 275.265625 396.746094 L 274.539062 395.878906 L 276.933594 394.152344 L 277.574219 394.976562 C 277.882812 395.355469 285.214844 404.429688 295.609375 404.851562 C 302.246094 405.144531 308.820312 401.820312 315.085938 395.027344 L 315.769531 394.261719 L 318.011719 396.15625 L 317.226562 396.988281 C 310.621094 404.160156 303.554688 407.804688 296.285156 407.761719 " fill-opacity="1" fill-rule="nonzero"/><path fill="#fecfd5" d="M 348.65625 406.6875 C 348.386719 406.6875 348.160156 406.675781 347.898438 406.675781 C 336.449219 406.207031 328.550781 396.550781 328.464844 396.453125 L 329.078125 396.03125 C 329.164062 396.132812 336.878906 405.515625 347.941406 405.929688 C 354.882812 406.207031 361.75 402.925781 368.261719 396.148438 L 368.808594 396.644531 C 362.371094 403.351562 355.609375 406.710938 348.65625 406.6875 " fill-opacity="1" fill-rule="nonzero"/><path fill="#fecfd5" d="M 348.65625 407.761719 C 348.378906 407.761719 348.101562 407.761719 347.839844 407.746094 C 336.191406 407.257812 327.976562 397.554688 327.65625 397.160156 L 326.878906 396.234375 L 329.265625 394.589844 L 329.90625 395.332031 C 330.226562 395.71875 337.707031 404.472656 347.976562 404.875 C 354.648438 405.164062 361.210938 401.9375 367.46875 395.417969 L 368.167969 394.667969 L 370.417969 396.542969 L 369.59375 397.378906 C 362.972656 404.304688 355.910156 407.789062 348.65625 407.761719 " fill-opacity="1" fill-rule="nonzero"/><path fill="#fecfd5" d="M 404.476562 406.886719 C 404.226562 406.855469 403.949219 406.886719 403.6875 406.855469 C 392.28125 406.398438 384.371094 396.746094 384.300781 396.652344 L 384.910156 396.214844 C 385 396.324219 392.71875 405.691406 403.753906 406.140625 C 410.710938 406.417969 417.5625 403.109375 424.066406 396.351562 L 424.621094 396.855469 C 418.234375 403.539062 411.4375 406.898438 404.476562 406.886719 " fill-opacity="1" fill-rule="nonzero"/><path fill="#fecfd5" d="M 404.460938 407.957031 C 404.199219 407.957031 403.949219 407.949219 403.652344 407.949219 C 391.648438 407.453125 383.519531 397.410156 383.433594 397.308594 L 382.71875 396.425781 L 385.101562 394.800781 L 385.734375 395.550781 C 385.816406 395.636719 393.300781 404.648438 403.796875 405.070312 C 410.351562 405.332031 416.988281 402.148438 423.28125 395.609375 L 423.980469 394.867188 L 426.203125 396.710938 L 425.40625 397.578125 C 418.78125 404.488281 411.742188 407.972656 404.460938 407.957031 " fill-opacity="1" fill-rule="nonzero"/><path fill="#fecfd5" d="M 380.621094 444.753906 C 380.351562 444.753906 380.097656 444.753906 379.835938 444.753906 C 368.414062 444.285156 360.496094 434.621094 360.394531 434.554688 L 361.023438 434.117188 C 361.101562 434.226562 368.824219 443.59375 379.886719 444.023438 C 386.847656 444.285156 393.695312 441 400.207031 434.226562 L 400.753906 434.707031 C 394.335938 441.414062 387.5625 444.765625 380.621094 444.753906 " fill-opacity="1" fill-rule="nonzero"/><path fill="#fecfd5" d="M 380.628906 445.824219 C 380.332031 445.824219 380.0625 445.824219 379.785156 445.816406 C 368.335938 445.378906 360.46875 436.253906 359.609375 435.234375 L 358.835938 434.328125 L 361.269531 432.636719 L 361.875 433.460938 C 361.960938 433.519531 369.355469 442.542969 379.921875 442.953125 C 386.601562 443.242188 393.148438 440.015625 399.433594 433.484375 L 400.113281 432.761719 L 402.347656 434.621094 L 401.5625 435.453125 C 394.910156 442.355469 387.867188 445.859375 380.628906 445.824219 " fill-opacity="1" fill-rule="nonzero"/><path fill="#fecfd5" d="M 319.886719 444.527344 C 319.644531 444.535156 319.382812 444.527344 319.121094 444.535156 C 307.691406 444.089844 299.789062 434.410156 299.710938 434.328125 L 300.320312 433.890625 C 300.410156 434 308.109375 443.375 319.171875 443.804688 C 326.140625 444.074219 332.964844 440.800781 339.492188 434.007812 L 340.046875 434.488281 C 333.636719 441.195312 326.855469 444.5625 319.886719 444.527344 " fill-opacity="1" fill-rule="nonzero"/><path fill="#fecfd5" d="M 319.886719 445.613281 C 319.636719 445.621094 319.339844 445.613281 319.078125 445.613281 C 307.089844 445.117188 298.929688 435.074219 298.835938 434.984375 L 298.152344 434.074219 L 300.539062 432.441406 L 301.160156 433.234375 C 301.246094 433.308594 308.691406 442.332031 319.207031 442.734375 C 325.910156 442.996094 332.425781 439.804688 338.699219 433.265625 L 339.390625 432.542969 L 341.648438 434.410156 L 340.839844 435.226562 C 334.203125 442.15625 327.160156 445.648438 319.886719 445.613281 " fill-opacity="1" fill-rule="nonzero"/><path fill="#ffffff" d="M 477.054688 181.933594 C 477.621094 211.703125 453.921875 236.3125 424.117188 236.886719 C 394.320312 237.457031 369.683594 213.789062 369.113281 184.019531 C 368.523438 154.230469 392.230469 129.628906 422.042969 129.058594 C 451.839844 128.484375 476.464844 152.152344 477.054688 181.933594 " fill-opacity="1" fill-rule="nonzero"/><path fill="#ffffff" d="M 423.871094 234.445312 C 399.035156 234.445312 378.824219 214.253906 378.824219 189.441406 C 378.824219 164.628906 399.035156 144.433594 423.871094 144.433594 C 448.707031 144.433594 468.917969 164.628906 468.917969 189.441406 C 468.917969 214.253906 448.707031 234.445312 423.871094 234.445312 " fill-opacity="1" fill-rule="nonzero"/><path fill="#231f20" d="M 386.425781 183.035156 C 386.425781 199.925781 400.140625 213.621094 417.039062 213.621094 C 433.964844 213.621094 447.679688 199.925781 447.679688 183.035156 C 447.679688 166.132812 433.964844 152.429688 417.039062 152.429688 C 400.140625 152.429688 386.425781 166.132812 386.425781 183.035156 " fill-opacity="1" fill-rule="nonzero"/><path fill="#ffffff" d="M 390.78125 192.804688 C 390.78125 197.316406 394.4375 200.972656 398.953125 200.972656 C 403.46875 200.972656 407.132812 197.316406 407.132812 192.804688 C 407.132812 188.296875 403.46875 184.632812 398.953125 184.632812 C 394.4375 184.632812 390.78125 188.296875 390.78125 192.804688 " fill-opacity="1" fill-rule="nonzero"/><path fill="#ffffff" d="M 337.148438 184.019531 C 337.714844 213.804688 314.023438 238.402344 284.210938 238.972656 C 254.421875 239.546875 229.789062 215.878906 229.234375 186.105469 C 228.625 156.335938 252.339844 131.734375 282.136719 131.152344 C 311.945312 130.5625 336.578125 154.25 337.148438 184.019531 " fill-opacity="1" fill-rule="nonzero"/><path fill="#ffffff" d="M 283.25 234.445312 C 258.414062 234.445312 238.203125 214.253906 238.203125 189.441406 C 238.203125 164.628906 258.414062 144.433594 283.25 144.433594 C 308.09375 144.433594 328.296875 164.628906 328.296875 189.441406 C 328.296875 214.253906 308.09375 234.445312 283.25 234.445312 " fill-opacity="1" fill-rule="nonzero"/><path fill="#231f20" d="M 320.695312 186.445312 C 320.695312 203.335938 306.980469 217.039062 290.066406 217.039062 C 273.15625 217.039062 259.441406 203.335938 259.441406 186.445312 C 259.441406 169.542969 273.15625 155.839844 290.066406 155.839844 C 306.980469 155.839844 320.695312 169.542969 320.695312 186.445312 " fill-opacity="1" fill-rule="nonzero"/><path fill="#ffffff" d="M 299.214844 192.804688 C 299.214844 197.316406 302.863281 200.972656 307.378906 200.972656 C 311.902344 200.972656 315.558594 197.316406 315.558594 192.804688 C 315.558594 188.296875 311.902344 184.632812 307.378906 184.632812 C 302.863281 184.632812 299.214844 188.296875 299.214844 192.804688 " fill-opacity="1" fill-rule="nonzero"/><path fill="#f4cd7f" d="M 366.46875 217.855469 C 364.210938 229.90625 354.519531 239.664062 354.519531 239.664062 C 354.519531 239.664062 345.136719 231.480469 343.242188 217.527344 C 340.496094 197.664062 348.742188 198.902344 355.160156 198.984375 C 361.597656 199.085938 370.097656 198.78125 366.46875 217.855469 " fill-opacity="1" fill-rule="nonzero"/><path fill="#b33f4a" d="M 632.738281 377.65625 C 637.980469 373.195312 637.632812 364.191406 631.957031 357.53125 C 631.957031 357.53125 555.453125 232.972656 516.085938 221.691406 C 499.53125 216.960938 492.84375 262.496094 492.96875 279.222656 C 493.179688 308.613281 512.503906 369.820312 512.503906 369.820312 C 515.480469 377.714844 523.675781 383.078125 530.804688 381.78125 C 537.929688 380.5 541.292969 373.0625 538.300781 365.140625 L 532.824219 350.546875 L 551.292969 383.515625 C 555.511719 391.054688 564.179688 394.96875 570.652344 392.257812 C 577.113281 389.558594 578.933594 381.25 574.703125 373.726562 L 561.039062 349.300781 L 585.527344 384.253906 C 590.550781 391.402344 599.378906 394.238281 605.265625 390.601562 C 611.136719 386.964844 611.855469 378.230469 606.84375 371.101562 L 588.789062 345.359375 L 612.964844 373.699219 C 618.644531 380.351562 627.492188 382.132812 632.738281 377.65625 " fill-opacity="1" fill-rule="nonzero"/><path fill="#b33f4a" d="M 72.285156 377.65625 C 67.039062 373.195312 67.390625 364.191406 73.050781 357.53125 C 73.050781 357.53125 149.554688 232.972656 188.929688 221.691406 C 205.484375 216.960938 212.15625 262.496094 212.039062 279.222656 C 211.84375 308.613281 192.511719 369.820312 192.511719 369.820312 C 189.546875 377.714844 181.339844 383.078125 174.214844 381.78125 C 167.09375 380.5 163.714844 373.0625 166.707031 365.140625 L 172.191406 350.546875 L 153.726562 383.515625 C 149.503906 391.054688 140.828125 394.96875 134.367188 392.257812 C 127.902344 389.558594 126.085938 381.25 130.320312 373.726562 L 143.984375 349.300781 L 119.472656 384.253906 C 114.464844 391.402344 105.644531 394.238281 99.757812 390.601562 C 93.867188 386.964844 93.167969 378.230469 98.164062 371.101562 L 116.21875 345.359375 L 92.050781 373.699219 C 86.363281 380.351562 77.527344 382.132812 72.285156 377.65625 " fill-opacity="1" fill-rule="nonzero"/></svg>