<svg xmlns="http://www.w3.org/2000/svg" xmlns:xlink="http://www.w3.org/1999/xlink" width="940" zoomAndPan="magnify" viewBox="0 0 705 591.000005" height="788" preserveAspectRatio="xMidYMid meet" version="1.0"><defs><filter x="0%" y="0%" width="100%" height="100%" id="1a0da29181"><feColorMatrix values="0 0 0 0 1 0 0 0 0 1 0 0 0 0 1 0 0 0 1 0" color-interpolation-filters="sRGB"/></filter><clipPath id="555f6e254d"><path d="M 321 19.539062 L 427 19.539062 L 427 132 L 321 132 Z M 321 19.539062 " clip-rule="nonzero"/></clipPath><clipPath id="c6c1747e0d"><path d="M 107 19.539062 L 213 19.539062 L 213 132 L 107 132 Z M 107 19.539062 " clip-rule="nonzero"/></clipPath><clipPath id="730fcdd39a"><path d="M 426 505 L 573 505 L 573 570.605469 L 426 570.605469 Z M 426 505 " clip-rule="nonzero"/></clipPath><clipPath id="fe2fe464b5"><path d="M 448 368 L 597.957031 368 L 597.957031 457 L 448 457 Z M 448 368 " clip-rule="nonzero"/></clipPath><clipPath id="ce620fe525"><path d="M 458 431 L 597.957031 431 L 597.957031 523 L 458 523 Z M 458 431 " clip-rule="nonzero"/></clipPath><clipPath id="5870688f2c"><path d="M 344 165 L 597.957031 165 L 597.957031 570.605469 L 344 570.605469 Z M 344 165 " clip-rule="nonzero"/></clipPath><mask id="4b93ac8bd5"><g filter="url(#1a0da29181)"><rect x="-70.5" width="846" fill="#000000" y="-59.100001" height="709.200006" fill-opacity="0.098"/></g></mask><clipPath id="f91e608b80"><path d="M 133 349 L 229 349 L 229 405.605469 L 133 405.605469 Z M 133 349 " clip-rule="nonzero"/></clipPath><clipPath id="78fdd0f8e5"><path d="M 182 266 L 253.957031 266 L 253.957031 358 L 182 358 Z M 182 266 " clip-rule="nonzero"/></clipPath><clipPath id="5f784957ed"><path d="M 191 203 L 253.957031 203 L 253.957031 289 L 191 289 Z M 191 203 " clip-rule="nonzero"/></clipPath><clipPath id="3349b5bbd2"><rect x="0" width="254" y="0" height="406"/></clipPath></defs><path fill="#777777" d="M 228.617188 386.996094 C 228.617188 386.996094 190.390625 485.800781 231.917969 557.085938 C 236.59375 565.066406 266.84375 562.039062 268.492188 559.011719 C 289.667969 522.132812 228.617188 386.996094 228.617188 386.996094 Z M 228.617188 386.996094 " fill-opacity="1" fill-rule="nonzero"/><g clip-path="url(#555f6e254d)"><path fill="#fafafa" d="M 321.296875 63.332031 C 321.296875 63.332031 362.273438 -1.34375 426.625 27.277344 C 426.625 27.277344 426.625 101.863281 380.699219 131.589844 Z M 321.296875 63.332031 " fill-opacity="1" fill-rule="nonzero"/></g><path fill="#020202" d="M 370.523438 119.203125 L 380.972656 131.039062 C 426.898438 101.3125 426.898438 27.003906 426.898438 26.726562 C 408.199219 40.488281 387.296875 67.1875 370.523438 119.203125 Z M 370.523438 119.203125 " fill-opacity="0.098" fill-rule="nonzero"/><path fill="#777777" d="M 412.597656 562.039062 C 402.699219 561.765625 383.722656 562.316406 376.023438 562.039062 C 345.496094 560.664062 343.296875 546.902344 341.648438 542.773438 C 341.371094 541.949219 340.820312 540.847656 340.273438 540.023438 C 337.523438 535.34375 328.996094 520.480469 322.945312 498.1875 C 319.371094 484.703125 308.644531 467.914062 299.019531 457.730469 C 297.371094 455.804688 288.84375 445.621094 278.394531 431.859375 C 259.96875 425.527344 281.417969 290.945312 307.269531 265.898438 C 309.746094 264.796875 310.84375 264.246094 310.84375 264.246094 C 310.84375 264.246094 310.84375 264.246094 311.121094 264.246094 C 319.371094 260.394531 329.269531 263.972656 333.394531 272.226562 C 339.722656 285.4375 344.945312 297.550781 349.621094 306.082031 C 362.546875 329.199219 381.25 364.152344 395.273438 382.042969 C 435.148438 432.132812 434.324219 513.601562 432.675781 542.5 C 432.398438 549.378906 429.375 555.160156 423.050781 557.359375 " fill-opacity="1" fill-rule="nonzero"/><path fill="#414141" d="M 225.042969 331.675781 C 226.417969 329.199219 229.441406 328.097656 231.917969 329.199219 C 238.519531 332.226562 241.269531 339.933594 238.242188 346.539062 L 207.992188 410.667969 C 206.617188 413.417969 205.792969 416.445312 205.242188 419.75 L 202.214844 439.839844 C 201.667969 443.96875 189.015625 457.730469 184.617188 451.125 C 181.589844 446.445312 184.066406 429.382812 185.714844 420.023438 C 185.441406 419.75 193.417969 388.648438 225.042969 331.675781 Z M 225.042969 331.675781 " fill-opacity="1" fill-rule="nonzero"/><path fill="#020202" d="M 396.375 382.59375 C 382.347656 364.703125 363.648438 329.75 350.722656 306.632812 C 346.046875 298.101562 340.820312 285.988281 334.496094 272.777344 C 330.371094 264.523438 320.472656 260.945312 312.21875 264.796875 C 311.945312 264.796875 311.945312 264.796875 311.945312 264.796875 C 311.945312 264.796875 310.570312 265.347656 308.371094 266.449219 C 305.070312 269.476562 302.046875 274.429688 298.746094 280.761719 C 311.671875 322.042969 324.320312 378.464844 348.523438 403.511719 C 384.546875 440.664062 402.699219 506.71875 415.074219 561.765625 L 424.148438 557.910156 C 430.476562 555.710938 433.5 549.929688 433.773438 543.046875 C 435.425781 514.148438 436.25 432.683594 396.375 382.59375 Z M 396.375 382.59375 " fill-opacity="0.098" fill-rule="nonzero"/><path fill="#777777" d="M 209.367188 405.988281 C 202.765625 397.179688 199.191406 386.445312 198.640625 375.4375 C 196.167969 316.265625 220.09375 265.074219 220.09375 265.074219 C 220.09375 265.074219 220.09375 265.074219 220.367188 265.074219 L 220.640625 265.074219 C 222.015625 265.898438 229.992188 269.75 239.617188 273.878906 C 239.894531 274.15625 241.542969 274.15625 241.816406 274.429688 C 236.316406 289.015625 219.265625 384.246094 227.242188 429.382812 Z M 209.367188 405.988281 " fill-opacity="1" fill-rule="nonzero"/><path fill="#f0f0f0" d="M 265.195312 562.316406 C 286.371094 568.644531 312.769531 571.949219 352.371094 553.230469 L 358.699219 552.957031 C 362.273438 530.664062 307.546875 453.050781 294.34375 435.4375 C 292.417969 432.960938 291.042969 429.65625 290.21875 426.628906 C 279.496094 380.117188 287.746094 286.539062 313.046875 262.320312 C 313.046875 262.320312 277.84375 278.007812 268.21875 278.007812 C 261.34375 278.007812 250.34375 274.429688 240.71875 270.578125 L 240.71875 271.128906 C 235.21875 285.714844 193.140625 343.234375 211.015625 425.253906 C 210.742188 424.703125 250.066406 557.636719 265.195312 562.316406 Z M 265.195312 562.316406 " fill-opacity="1" fill-rule="nonzero"/><g clip-path="url(#c6c1747e0d)"><path fill="#fafafa" d="M 212.390625 63.332031 C 212.390625 63.332031 171.414062 -1.34375 107.0625 27.277344 C 107.0625 27.277344 107.0625 101.863281 152.988281 131.589844 Z M 212.390625 63.332031 " fill-opacity="1" fill-rule="nonzero"/></g><path fill="#777777" d="M 338.347656 72.140625 C 293.519531 42.691406 240.71875 43.242188 195.617188 72.964844 C 173.613281 87.554688 140.890625 137.917969 140.890625 177.550781 C 140.890625 214.707031 395.824219 221.863281 395.824219 184.984375 C 396.097656 145.074219 360.621094 86.453125 338.347656 72.140625 Z M 338.347656 72.140625 " fill-opacity="1" fill-rule="nonzero"/><path fill="#fafafa" d="M 267.117188 202.320312 C 229.441406 202.320312 200.292969 255.988281 200.292969 255.988281 C 258.320312 289.84375 277.570312 293.421875 335.320312 255.714844 C 335.597656 255.714844 304.796875 202.320312 267.117188 202.320312 Z M 267.117188 202.320312 " fill-opacity="1" fill-rule="nonzero"/><path fill="#fafafa" d="M 203.042969 257.089844 C 134.5625 226.542969 137.039062 222.414062 137.039062 205.074219 C 137.039062 147.828125 196.714844 111.222656 213.492188 113.699219 C 254.46875 119.753906 256.667969 208.101562 256.667969 208.101562 Z M 203.042969 257.089844 " fill-opacity="1" fill-rule="nonzero"/><path fill="#fafafa" d="M 278.945312 207.824219 C 278.945312 207.824219 280.871094 119.480469 321.570312 113.425781 C 338.347656 110.945312 400.222656 147 400.222656 203.972656 C 400.222656 221.585938 396.375 230.667969 332.019531 256.816406 " fill-opacity="1" fill-rule="nonzero"/><path fill="#777777" d="M 278.945312 205.074219 C 278.945312 212.78125 273.71875 217.183594 267.667969 217.183594 C 261.617188 217.183594 256.394531 212.503906 256.394531 204.796875 C 256.394531 197.09375 261.617188 192.414062 267.667969 192.414062 C 273.71875 192.414062 278.945312 197.367188 278.945312 205.074219 Z M 278.945312 205.074219 " fill-opacity="1" fill-rule="nonzero"/><g clip-path="url(#730fcdd39a)"><path fill="#fafafa" d="M 572.105469 514.699219 C 564.128906 525.433594 554.503906 536.992188 542.128906 548.277344 C 494.277344 591.761719 428 557.636719 426.625 556.261719 C 426.625 556.261719 453.300781 537.820312 461.828125 505.894531 C 540.753906 536.167969 569.90625 516.078125 572.105469 514.699219 Z M 572.105469 514.699219 " fill-opacity="1" fill-rule="nonzero"/></g><path fill="#fafafa" d="M 558.355469 316.265625 C 558.355469 316.265625 509.679688 351.492188 444.777344 323.96875 C 444.777344 312.6875 445.601562 301.953125 446.699219 292.042969 C 447.527344 285.988281 448.351562 280.210938 449.449219 274.707031 C 449.449219 274.707031 500.601562 289.566406 538.828125 274.980469 C 540.203125 280.484375 541.855469 282.410156 543.503906 286.265625 C 544.878906 289.015625 545.980469 292.042969 547.355469 294.796875 C 550.105469 301.953125 553.953125 308.558594 558.355469 316.265625 Z M 558.355469 316.265625 " fill-opacity="1" fill-rule="nonzero"/><g clip-path="url(#fe2fe464b5)"><path fill="#fafafa" d="M 597.40625 431.308594 C 595.480469 433.234375 551.203125 472.589844 458.527344 448.921875 C 453.574219 424.425781 450.550781 404.335938 448.902344 389.472656 C 533.328125 416.722656 583.105469 368.558594 583.105469 368.558594 C 586.957031 379.015625 590.53125 390.851562 593.28125 404.613281 C 595.480469 413.96875 596.855469 423.050781 597.40625 431.308594 Z M 597.40625 431.308594 " fill-opacity="1" fill-rule="nonzero"/></g><path fill="#777777" d="M 449.449219 274.707031 C 467.328125 183.605469 532.230469 167.644531 535.527344 166.542969 C 533.054688 167.917969 505.003906 187.460938 538.554688 274.707031 C 500.601562 291.21875 449.449219 274.707031 449.449219 274.707031 Z M 449.449219 274.707031 " fill-opacity="1" fill-rule="nonzero"/><path fill="#777777" d="M 446.425781 357.273438 C 445.324219 345.4375 445.050781 334.429688 445.050781 323.96875 C 509.679688 351.21875 558.628906 316.265625 558.628906 316.265625 C 566.332031 330.027344 575.40625 346.265625 583.382812 368.558594 C 583.382812 368.558594 533.605469 416.722656 449.175781 389.472656 C 446.425781 368.558594 446.425781 357.273438 446.425781 357.273438 Z M 446.425781 357.273438 " fill-opacity="1" fill-rule="nonzero"/><g clip-path="url(#ce620fe525)"><path fill="#777777" d="M 572.105469 514.425781 C 572.105469 514.425781 572.105469 514.699219 572.105469 514.425781 C 569.90625 516.078125 540.753906 536.167969 461.828125 505.894531 C 464.851562 494.609375 465.675781 481.949219 462.652344 467.914062 C 461.277344 461.308594 459.625 454.976562 458.527344 448.921875 C 551.203125 472.867188 595.480469 433.234375 597.40625 431.308594 C 600.15625 464.335938 591.355469 488.828125 572.105469 514.425781 Z M 572.105469 514.425781 " fill-opacity="1" fill-rule="nonzero"/></g><path fill="#777777" d="M 336.144531 73.792969 C 336.144531 73.792969 362.273438 31.683594 403.523438 50.398438 C 403.523438 50.398438 403.523438 98.5625 374.097656 118.101562 Z M 336.144531 73.792969 " fill-opacity="1" fill-rule="nonzero"/><path fill="#777777" d="M 197.542969 73.792969 C 197.542969 73.792969 171.414062 31.683594 130.164062 50.398438 C 130.164062 50.398438 130.164062 98.5625 159.589844 118.101562 Z M 197.542969 73.792969 " fill-opacity="1" fill-rule="nonzero"/><path fill="#777777" d="M 207.992188 253.789062 C 205.515625 256.265625 201.667969 256.816406 198.640625 255.441406 C 169.765625 243.054688 156.015625 235.898438 152.714844 233.148438 C 148.589844 229.84375 146.9375 220.761719 148.039062 216.082031 C 158.214844 173.699219 198.640625 146.449219 211.566406 148.101562 C 237.96875 151.957031 243.191406 201.21875 244.019531 216.082031 C 244.292969 218.558594 243.191406 221.3125 241.269531 222.964844 Z M 207.992188 253.789062 " fill-opacity="1" fill-rule="nonzero"/><path fill="#777777" d="M 327.347656 253.789062 C 329.820312 256.265625 333.671875 256.816406 336.695312 255.441406 C 365.574219 243.054688 379.324219 235.898438 382.625 233.148438 C 386.75 229.84375 388.398438 220.761719 387.296875 216.082031 C 377.121094 173.699219 336.695312 146.449219 323.769531 148.101562 C 297.371094 151.957031 292.144531 201.21875 291.320312 216.082031 C 291.042969 218.558594 292.144531 221.3125 294.070312 222.964844 Z M 327.347656 253.789062 " fill-opacity="1" fill-rule="nonzero"/><path fill="#414141" d="M 209.640625 200.121094 C 209.640625 195.164062 211.839844 191.039062 214.589844 191.039062 C 217.34375 191.039062 219.542969 195.164062 219.542969 200.121094 C 219.542969 205.074219 217.34375 209.203125 214.589844 209.203125 C 211.839844 209.203125 209.640625 205.074219 209.640625 200.121094 Z M 209.640625 200.121094 " fill-opacity="1" fill-rule="nonzero"/><path fill="#414141" d="M 319.097656 200.121094 C 319.097656 195.164062 321.296875 191.039062 324.046875 191.039062 C 326.796875 191.039062 328.996094 195.164062 328.996094 200.121094 C 328.996094 205.074219 326.796875 209.203125 324.046875 209.203125 C 321.296875 209.203125 319.097656 205.074219 319.097656 200.121094 Z M 319.097656 200.121094 " fill-opacity="1" fill-rule="nonzero"/><path fill="#414141" d="M 269.320312 246.90625 C 278.121094 246.90625 285.542969 240.578125 285.542969 235.898438 C 285.542969 232.871094 276.195312 231.496094 269.59375 231.496094 C 261.617188 231.496094 253.917969 232.871094 253.917969 235.898438 C 253.644531 240.300781 260.519531 246.90625 269.320312 246.90625 Z M 269.320312 246.90625 " fill-opacity="1" fill-rule="nonzero"/><path fill="#414141" d="M 376.296875 564.792969 C 376.296875 564.792969 376.023438 548.277344 366.671875 548.277344 C 357.324219 548.277344 328.445312 548.277344 328.445312 564.792969 Z M 376.296875 564.792969 " fill-opacity="1" fill-rule="nonzero"/><path fill="#414141" d="M 265.195312 564.792969 C 265.195312 564.792969 264.917969 548.277344 255.570312 548.277344 C 246.21875 548.277344 217.34375 548.277344 217.34375 564.792969 Z M 265.195312 564.792969 " fill-opacity="1" fill-rule="nonzero"/><path fill="#414141" d="M 306.996094 392.777344 C 307.820312 391.402344 310.570312 390.300781 313.320312 390.851562 C 319.921875 391.949219 323.769531 396.078125 321.847656 399.933594 L 302.59375 438.1875 C 301.769531 439.839844 301.21875 441.765625 301.21875 443.417969 L 301.21875 454.703125 C 301.21875 456.902344 291.320312 465.984375 286.09375 462.683594 C 282.519531 460.207031 282.246094 450.574219 282.519531 445.34375 C 282.519531 445.070312 285.542969 427.179688 306.996094 392.777344 Z M 306.996094 392.777344 " fill-opacity="1" fill-rule="nonzero"/><path fill="#020202" d="M 400.222656 204.25 C 400.222656 174.800781 384 151.128906 365.847656 135.167969 C 357.320312 165.714844 350.171875 203.699219 345.773438 251.585938 C 396.648438 229.570312 400.222656 220.488281 400.222656 204.25 Z M 400.222656 204.25 " fill-opacity="0.098" fill-rule="nonzero"/><g clip-path="url(#5870688f2c)"><g mask="url(#4b93ac8bd5)"><g transform="matrix(1, 0, 0, 1, 344, 165)"><g clip-path="url(#3349b5bbd2)"><path fill="#020202" d="M 214.355469 151.265625 C 214.355469 151.265625 194.554688 165.300781 163.753906 168.601562 C 172.003906 184.839844 182.730469 202.457031 191.527344 227.777344 C 222.332031 219.519531 239.105469 203.28125 239.105469 203.28125 C 231.128906 181.265625 222.054688 165.027344 214.355469 151.265625 Z M 214.355469 151.265625 " fill-opacity="1" fill-rule="nonzero"/><path fill="#020202" d="M 194.828125 109.707031 C 164.304688 30.441406 184.652344 7.046875 190.703125 2.644531 C 190.980469 2.367188 190.980469 2.09375 191.253906 1.816406 C 190.980469 1.816406 190.429688 2.09375 189.878906 2.09375 C 168.703125 20.257812 145.328125 50.808594 147.253906 97.320312 C 147.527344 103.648438 148.078125 109.980469 148.902344 116.859375 C 163.753906 117.6875 180.253906 116.035156 194.828125 109.707031 Z M 194.828125 109.707031 " fill-opacity="1" fill-rule="nonzero"/><path fill="#020202" d="M 199.503906 121.265625 C 197.855469 117.136719 196.480469 115.484375 194.828125 109.980469 C 180.253906 115.484375 163.753906 117.410156 148.902344 116.863281 C 149.726562 123.742188 150.828125 131.449219 152.476562 139.15625 C 154.402344 149.335938 158.527344 158.695312 163.753906 168.878906 C 194.828125 165.574219 214.355469 151.539062 214.355469 151.539062 C 210.230469 143.832031 206.378906 137.226562 203.078125 130.347656 C 201.980469 127.042969 200.605469 124.015625 199.503906 121.265625 Z M 199.503906 121.265625 " fill-opacity="1" fill-rule="nonzero"/><g clip-path="url(#f91e608b80)"><path fill="#020202" d="M 182.730469 357.132812 C 162.652344 386.582031 135.425781 403.644531 133.226562 405.296875 C 153.851562 406.398438 177.503906 401.992188 198.128906 383.554688 C 210.503906 372.269531 219.855469 360.710938 228.105469 349.976562 C 226.457031 350.527344 213.804688 359.609375 182.730469 357.132812 Z M 182.730469 357.132812 " fill-opacity="1" fill-rule="nonzero"/></g><g clip-path="url(#78fdd0f8e5)"><path fill="#020202" d="M 253.40625 266.308594 C 252.03125 267.410156 236.355469 281.445312 204.730469 288.050781 C 205.003906 315.296875 195.105469 338.691406 182.730469 357.132812 C 213.804688 359.609375 226.457031 350.800781 228.105469 349.699219 L 228.378906 349.425781 C 247.355469 323.828125 256.15625 299.335938 253.40625 266.308594 Z M 253.40625 266.308594 " fill-opacity="1" fill-rule="nonzero"/></g><g clip-path="url(#5f784957ed)"><path fill="#020202" d="M 249.28125 239.335938 C 246.257812 225.851562 242.957031 213.742188 239.105469 203.28125 C 239.105469 203.28125 222.332031 219.519531 191.527344 227.777344 C 196.753906 243.1875 201.703125 261.078125 204.730469 283.648438 C 204.730469 285.023438 204.730469 286.675781 205.003906 288.050781 C 236.628906 281.445312 252.582031 267.410156 253.679688 266.308594 C 252.855469 258.050781 251.480469 248.96875 249.28125 239.335938 Z M 249.28125 239.335938 " fill-opacity="1" fill-rule="nonzero"/></g><path fill="#020202" d="M 38.625 68.148438 C 42.75 64.84375 44.398438 55.761719 43.296875 51.082031 C 38.347656 30.714844 26.523438 13.925781 14.148438 1.816406 C 8.921875 26.039062 3.972656 54.109375 1.496094 86.3125 C 24.597656 76.402344 35.597656 70.347656 38.625 68.148438 Z M 38.625 68.148438 " fill-opacity="1" fill-rule="nonzero"/></g></g></g></g><path fill="#020202" d="M 371.898438 115.351562 L 374.097656 117.828125 C 401.324219 99.9375 403.25 56.453125 403.523438 50.949219 C 392.25 65.808594 381.523438 86.453125 371.898438 115.351562 Z M 371.898438 115.351562 " fill-opacity="0.098" fill-rule="nonzero"/></svg>