<svg xmlns="http://www.w3.org/2000/svg" xmlns:xlink="http://www.w3.org/1999/xlink" width="940" zoomAndPan="magnify" viewBox="0 0 705 591.000005" height="788" preserveAspectRatio="xMidYMid meet" version="1.0"><defs><clipPath id="6c7379ba32"><path d="M 303 259 L 511.839844 259 L 511.839844 509 L 303 509 Z M 303 259 " clip-rule="nonzero"/></clipPath><clipPath id="630056fee8"><path d="M 310 517 L 316 517 L 316 530.703125 L 310 530.703125 Z M 310 517 " clip-rule="nonzero"/></clipPath><clipPath id="1dc79f9f89"><path d="M 436 517 L 442 517 L 442 530.703125 L 436 530.703125 Z M 436 517 " clip-rule="nonzero"/></clipPath><clipPath id="4e70fb3c87"><path d="M 465 517 L 471 517 L 471 530.703125 L 465 530.703125 Z M 465 517 " clip-rule="nonzero"/></clipPath><clipPath id="c3bda8d188"><path d="M 342 517 L 348 517 L 348 530.703125 L 342 530.703125 Z M 342 517 " clip-rule="nonzero"/></clipPath></defs><path fill="#a596bb" d="M 335.738281 206.265625 C 356.183594 196.625 350.542969 177.9375 358.058594 173.734375 C 350.957031 173.964844 343.765625 174.527344 337.058594 176.867188 C 331.140625 178.929688 325.582031 182.523438 321.996094 187.609375 C 323.433594 189.902344 328.464844 197.550781 334.339844 206.445312 Z M 335.738281 206.265625 " fill-opacity="1" fill-rule="nonzero"/><path fill="#a596bb" d="M 326.289062 502.757812 C 323.9375 493.574219 321.371094 479.15625 318.648438 463.890625 C 316.410156 451.320312 314.015625 437.898438 311.488281 425.9375 C 310.570312 425.859375 309.648438 425.753906 308.722656 425.621094 L 304.050781 510.367188 L 326.15625 510.367188 L 327.441406 504.171875 C 326.894531 503.882812 326.457031 503.398438 326.289062 502.757812 Z M 326.289062 502.757812 " fill-opacity="1" fill-rule="nonzero"/><path fill="#e39294" d="M 302.027344 529.628906 L 310.695312 529.628906 C 310.40625 529.203125 310.253906 528.6875 310.308594 528.136719 L 311.171875 519.765625 C 311.300781 518.523438 312.417969 517.621094 313.644531 517.753906 C 314.882812 517.878906 315.785156 518.988281 315.65625 520.226562 L 314.792969 528.597656 C 314.753906 528.988281 314.589844 529.324219 314.382812 529.625 L 320.945312 529.625 L 326.15625 510.363281 L 304.050781 510.363281 Z M 302.027344 529.628906 " fill-opacity="1" fill-rule="nonzero"/><path fill="#a596bb" d="M 448.21875 493.140625 C 448.121094 492.691406 440.035156 456.523438 433.625 431.671875 C 421.746094 424.425781 405.050781 413.875 404.722656 413.671875 C 404.6875 413.675781 404.648438 413.683594 404.609375 413.691406 L 424.761719 510.363281 L 450.429688 510.363281 L 450.421875 494.902344 C 450.421875 494.902344 450.417969 494.902344 450.417969 494.902344 C 449.386719 494.90625 448.457031 494.191406 448.21875 493.140625 Z M 448.21875 493.140625 " fill-opacity="1" fill-rule="nonzero"/><path fill="#e39294" d="M 424.261719 510.363281 L 429.804688 529.628906 L 437.710938 529.628906 C 437.503906 529.328125 437.34375 528.992188 437.300781 528.605469 L 436.410156 520.234375 C 436.28125 518.996094 437.175781 517.886719 438.414062 517.753906 C 439.652344 517.621094 440.761719 518.519531 440.890625 519.757812 L 441.78125 528.132812 C 441.839844 528.683594 441.6875 529.203125 441.398438 529.628906 L 448.097656 529.628906 L 450.429688 510.363281 Z M 424.261719 510.363281 " fill-opacity="1" fill-rule="nonzero"/><path fill="#f6b7b8" d="M 466.253906 529.628906 C 466.042969 529.320312 465.878906 528.976562 465.839844 528.578125 L 465.054688 520.207031 C 464.9375 518.964844 465.847656 517.867188 467.085938 517.75 C 468.332031 517.628906 469.421875 518.542969 469.539062 519.785156 L 470.328125 528.160156 C 470.378906 528.703125 470.222656 529.210938 469.941406 529.628906 L 475.382812 529.628906 L 477.527344 511.882812 L 454.960938 511.882812 L 459.476562 529.628906 Z M 466.253906 529.628906 " fill-opacity="1" fill-rule="nonzero"/><path fill="#f6b7b8" d="M 343.554688 529.628906 C 343.347656 529.324219 343.183594 528.988281 343.144531 528.597656 L 342.296875 520.222656 C 342.175781 518.980469 343.074219 517.878906 344.316406 517.753906 C 345.542969 517.625 346.65625 518.53125 346.78125 519.769531 L 347.628906 528.144531 C 347.683594 528.691406 347.527344 529.207031 347.242188 529.628906 L 352.628906 529.628906 L 355.234375 513.390625 L 331.292969 511.914062 L 336.136719 529.628906 Z M 343.554688 529.628906 " fill-opacity="1" fill-rule="nonzero"/><path fill="#fdeff6" d="M 307.351562 277.222656 C 307.148438 271.371094 306.78125 265.3125 306.246094 259.078125 L 288.527344 242.042969 L 288.546875 242.050781 C 284.164062 240.070312 280.085938 237.902344 276.515625 235.53125 C 264.703125 262.367188 260.171875 292.203125 262.273438 321.464844 C 259.902344 338.726562 256.671875 357.960938 266.519531 372.652344 C 266.414062 369.351562 267.085938 367.246094 268.152344 364.121094 C 267.632812 370.625 270.609375 387.792969 277.769531 390.621094 C 277.863281 388.601562 278.308594 383.066406 278.460938 380.707031 C 279.386719 382.910156 279.984375 388.394531 280.972656 390.621094 C 285.164062 400.035156 288.863281 414.042969 297.949219 419.78125 C 298.761719 420.292969 307.511719 422.679688 310.914062 423.242188 C 308.726562 413.171875 306.445312 404.316406 304.078125 398.175781 C 303.671875 397.125 304.113281 395.960938 305.0625 395.417969 C 304.914062 394.289062 304.777344 393.160156 304.65625 392.027344 L 304.125 389.644531 L 304.414062 389.59375 C 303.855469 383.421875 303.667969 377.167969 303.738281 370.757812 C 305.519531 376.746094 307.125 382.785156 308.394531 388.902344 L 309.453125 388.71875 C 318.75 375.453125 314.542969 356.914062 312.042969 341.15625 C 314.667969 344.085938 316.734375 347.519531 318.089844 351.21875 C 324.660156 323.035156 311.5 304.132812 307.367188 277.183594 Z M 287.21875 325.296875 C 287.21875 326.542969 286.207031 327.554688 284.964844 327.554688 C 283.71875 327.554688 282.707031 326.542969 282.707031 325.296875 L 282.707031 320.757812 C 282.707031 319.511719 283.71875 318.503906 284.964844 318.503906 C 286.207031 318.503906 287.21875 319.511719 287.21875 320.757812 Z M 294.351562 327.890625 C 294.351562 329.136719 293.339844 330.148438 292.097656 330.148438 C 290.851562 330.148438 289.839844 329.136719 289.839844 327.890625 L 289.839844 327.242188 C 289.839844 326 290.851562 324.988281 292.097656 324.988281 C 293.339844 324.988281 294.351562 326 294.351562 327.242188 Z M 294.351562 327.890625 " fill-opacity="1" fill-rule="nonzero"/><path fill="#fdeff6" d="M 356.445312 402.644531 L 355.964844 416.464844 C 367.21875 422.09375 392.28125 415.859375 404.613281 413.691406 C 404.648438 413.683594 404.6875 413.675781 404.722656 413.671875 C 406.058594 413.4375 407.25 413.25 408.246094 413.136719 C 408.238281 413.128906 408.234375 413.125 408.226562 413.121094 C 387.261719 396.519531 376.070312 402.234375 356.445312 402.644531 Z M 356.445312 402.644531 " fill-opacity="1" fill-rule="nonzero"/><path fill="#fdeff6" d="M 286.28125 229.746094 C 287.433594 230.574219 288.84375 230.949219 290.230469 231.242188 C 295.300781 232.316406 300.515625 232.515625 305.699219 232.515625 C 307.277344 232.515625 308.902344 232.488281 310.355469 231.871094 C 311.804688 231.253906 313.109375 229.875 313.125 228.296875 L 312.292969 225.480469 C 309.335938 221.023438 305.992188 216.265625 300.886719 214.675781 C 297.925781 213.753906 294.683594 214.042969 291.757812 215.0625 C 288.714844 216.125 285.839844 218.101562 284.476562 221.019531 C 283.109375 223.941406 283.667969 227.863281 286.28125 229.746094 Z M 290.6875 220.144531 C 291.046875 218.949219 292.3125 218.277344 293.496094 218.632812 C 294.691406 218.992188 295.363281 220.25 295.007812 221.441406 C 294.742188 222.320312 294.9375 223.417969 295.511719 224.3125 C 296.09375 225.21875 297.074219 225.980469 298.273438 226.460938 C 298.746094 226.652344 299.136719 226.738281 299.390625 226.734375 C 299.621094 226.730469 299.898438 226.65625 300.1875 226.515625 C 301.433594 225.925781 302.226562 224.289062 301.921875 222.945312 C 301.644531 221.730469 302.40625 220.523438 303.621094 220.246094 C 304.839844 219.96875 306.042969 220.734375 306.316406 221.945312 C 307.09375 225.367188 305.289062 229.085938 302.117188 230.589844 C 301.242188 231.003906 300.355469 231.222656 299.472656 231.242188 C 299.4375 231.242188 299.40625 231.242188 299.371094 231.242188 C 298.503906 231.242188 297.59375 231.046875 296.597656 230.648438 C 294.507812 229.808594 292.820312 228.460938 291.71875 226.75 C 290.433594 224.75 290.046875 222.28125 290.6875 220.144531 Z M 290.6875 220.144531 " fill-opacity="1" fill-rule="nonzero"/><path fill="#fdeff6" d="M 260.476562 203.546875 C 259.734375 199.878906 258.84375 196.214844 256.988281 192.984375 C 254.804688 189.191406 251.464844 186.222656 248.160156 183.355469 C 246.0625 181.53125 243.804688 179.675781 241.222656 178.808594 C 241.667969 184.496094 243.855469 190.050781 247.4375 194.496094 C 250.765625 198.621094 255.28125 201.789062 260.289062 203.53125 C 260.351562 203.527344 260.414062 203.542969 260.476562 203.546875 Z M 260.476562 203.546875 " fill-opacity="1" fill-rule="nonzero"/><g clip-path="url(#6c7379ba32)"><path fill="#d2cae5" d="M 336.550781 314.660156 C 324.503906 309.863281 311.117188 294.976562 309.375 262.082031 L 306.246094 259.078125 C 306.78125 265.3125 307.148438 271.371094 307.351562 277.222656 L 307.363281 277.183594 C 311.496094 304.136719 324.65625 323.035156 318.085938 351.21875 C 316.730469 347.523438 314.667969 344.089844 312.039062 341.160156 C 314.542969 356.914062 318.75 375.457031 309.453125 388.722656 L 308.394531 388.902344 C 307.121094 382.785156 305.515625 376.75 303.738281 370.761719 C 303.667969 377.167969 303.855469 383.421875 304.414062 389.59375 L 304.121094 389.644531 L 304.65625 392.027344 C 304.777344 393.160156 304.914062 394.292969 305.0625 395.417969 C 305.160156 395.363281 305.261719 395.304688 305.371094 395.265625 C 305.371094 395.261719 305.371094 395.261719 305.375 395.261719 C 306.53125 394.824219 307.835938 395.398438 308.28125 396.558594 C 313.765625 410.792969 318.71875 438.578125 323.085938 463.097656 C 325.792969 478.277344 328.347656 492.617188 330.65625 501.640625 C 330.90625 502.621094 330.464844 503.609375 329.644531 504.113281 L 330.382812 507.4375 C 330.585938 507.394531 330.792969 507.367188 331.011719 507.378906 L 355.71875 508.902344 L 355.675781 416.429688 C 355.785156 416.433594 355.890625 416.4375 355.960938 416.464844 L 356.445312 402.644531 C 376.070312 402.234375 387.261719 396.519531 408.226562 413.121094 C 408.445312 413.097656 408.667969 413.078125 408.886719 413.054688 C 413.378906 413.078125 419.453125 413.285156 426.113281 413.589844 C 425.597656 413.300781 425.046875 413.003906 424.476562 412.695312 C 416.652344 408.480469 403.558594 401.429688 405.996094 372.15625 C 406.101562 370.914062 407.191406 369.984375 408.429688 370.097656 C 409.671875 370.199219 410.589844 371.289062 410.488281 372.53125 C 408.296875 398.859375 418.882812 404.5625 426.617188 408.726562 C 428.003906 409.472656 429.300781 410.183594 430.421875 410.964844 C 432 412.066406 433.214844 413.316406 433.742188 415.058594 C 440.046875 435.925781 452.492188 491.597656 452.621094 492.15625 C 452.886719 493.355469 452.144531 494.542969 450.953125 494.832031 L 454.042969 507.441406 C 454.214844 507.402344 454.390625 507.371094 454.578125 507.371094 L 477.652344 507.371094 L 475.574219 422.34375 L 475.894531 416.289062 C 476.734375 405.285156 483.726562 379.460938 481.597656 355.851562 C 484.824219 357.574219 488.207031 359.007812 491.71875 360.070312 C 490.984375 358.039062 489.773438 356.179688 488.214844 354.679688 C 495.773438 357.226562 503.800781 358.386719 511.769531 358.078125 C 507.601562 349.863281 500 343.464844 491.199219 340.753906 C 496.996094 340.457031 502.859375 341.585938 508.128906 344.015625 C 502.332031 333.945312 494.011719 325.335938 484.144531 319.203125 C 478.835938 315.90625 461.703125 312.316406 455.691406 314.019531 C 445.71875 309.449219 432.226562 307.429688 414.09375 309.207031 C 372.003906 313.335938 340.617188 316.28125 336.550781 314.660156 Z M 448.46875 403.644531 C 448.289062 402.410156 449.140625 401.265625 450.375 401.085938 C 451.601562 400.910156 452.753906 401.761719 452.929688 402.996094 L 453.585938 407.535156 C 453.765625 408.769531 452.910156 409.910156 451.679688 410.089844 C 451.570312 410.105469 451.460938 410.113281 451.355469 410.113281 C 450.25 410.113281 449.289062 409.304688 449.125 408.179688 Z M 453.179688 423.714844 C 453.046875 423.738281 452.914062 423.75 452.785156 423.75 C 451.710938 423.75 450.761719 422.980469 450.566406 421.890625 L 449.875 418.007812 C 449.652344 416.78125 450.46875 415.609375 451.695312 415.390625 C 452.921875 415.167969 454.09375 415.988281 454.3125 417.214844 L 455.003906 421.101562 C 455.226562 422.324219 454.40625 423.496094 453.179688 423.714844 Z M 460.414062 436.363281 C 460.292969 436.382812 460.171875 436.394531 460.054688 436.394531 C 458.964844 436.394531 458.011719 435.605469 457.832031 434.496094 L 457.105469 429.96875 C 456.90625 428.738281 457.742188 427.582031 458.96875 427.382812 C 460.199219 427.1875 461.355469 428.023438 461.554688 429.25 L 462.28125 433.78125 C 462.480469 435.011719 461.644531 436.167969 460.414062 436.363281 Z M 473.324219 443.546875 C 473.324219 444.792969 472.316406 445.800781 471.070312 445.800781 C 469.824219 445.800781 468.816406 444.792969 468.816406 443.546875 L 468.816406 439.976562 C 468.816406 438.734375 469.824219 437.722656 471.070312 437.722656 C 472.3125 437.722656 473.324219 438.734375 473.324219 439.976562 Z M 473.324219 407.21875 C 473.324219 408.464844 472.316406 409.472656 471.070312 409.472656 C 469.824219 409.472656 468.816406 408.464844 468.816406 407.21875 L 468.816406 402.351562 C 468.816406 401.109375 469.824219 400.097656 471.070312 400.097656 C 472.3125 400.097656 473.324219 401.109375 473.324219 402.351562 Z M 441.9375 318.65625 C 443.09375 318.199219 444.402344 318.765625 444.863281 319.925781 C 445.273438 320.96875 445.433594 322.109375 445.335938 323.230469 C 445.226562 324.398438 444.246094 325.277344 443.09375 325.277344 C 443.023438 325.277344 442.953125 325.273438 442.882812 325.269531 C 441.644531 325.152344 440.730469 324.058594 440.84375 322.816406 C 440.882812 322.398438 440.824219 321.972656 440.667969 321.582031 C 440.210938 320.421875 440.78125 319.113281 441.9375 318.65625 Z M 430.253906 315.285156 C 431.394531 314.792969 432.722656 315.316406 433.21875 316.457031 L 435.179688 320.992188 C 435.675781 322.132812 435.152344 323.460938 434.011719 323.957031 C 433.71875 324.082031 433.414062 324.140625 433.113281 324.140625 C 432.242188 324.140625 431.414062 323.632812 431.046875 322.785156 L 429.082031 318.25 C 428.585938 317.109375 429.113281 315.78125 430.253906 315.285156 Z M 412.992188 316.511719 C 414.078125 315.902344 415.453125 316.285156 416.0625 317.371094 L 418.625 321.929688 C 419.234375 323.015625 418.847656 324.390625 417.765625 325 C 417.414062 325.199219 417.035156 325.289062 416.660156 325.289062 C 415.875 325.289062 415.109375 324.875 414.695312 324.140625 L 412.132812 319.582031 C 411.523438 318.496094 411.90625 317.121094 412.992188 316.511719 Z M 326.105469 443.410156 C 325.988281 443.429688 325.875 443.4375 325.757812 443.4375 C 324.667969 443.4375 323.707031 442.640625 323.535156 441.527344 L 322.742188 436.355469 C 322.550781 435.125 323.398438 433.976562 324.625 433.789062 C 325.84375 433.59375 327.007812 434.441406 327.195312 435.671875 L 327.988281 440.839844 C 328.179688 442.070312 327.335938 443.21875 326.105469 443.410156 Z M 339.886719 448.253906 C 339.628906 448.351562 339.363281 448.394531 339.101562 448.394531 C 338.1875 448.394531 337.328125 447.832031 336.988281 446.925781 C 336.253906 444.945312 335.996094 442.789062 336.242188 440.6875 C 336.386719 439.453125 337.515625 438.566406 338.742188 438.714844 C 339.980469 438.859375 340.867188 439.976562 340.71875 441.214844 C 340.554688 442.609375 340.726562 444.042969 341.214844 445.355469 C 341.648438 446.523438 341.054688 447.820312 339.886719 448.253906 Z M 340.15625 431.390625 C 339.898438 431.488281 339.632812 431.535156 339.371094 431.535156 C 338.457031 431.535156 337.597656 430.972656 337.257812 430.0625 C 336.523438 428.082031 336.265625 425.925781 336.515625 423.824219 C 336.660156 422.589844 337.761719 421.707031 339.019531 421.851562 C 340.253906 421.996094 341.136719 423.117188 340.992188 424.355469 C 340.828125 425.746094 340.996094 427.179688 341.484375 428.496094 C 341.917969 429.660156 341.324219 430.957031 340.15625 431.390625 Z M 340.15625 431.390625 " fill-opacity="1" fill-rule="nonzero"/></g><path fill="#d2cae5" d="M 358.367188 242.679688 L 358.367188 242.683594 L 358.371094 242.683594 L 358.367188 242.683594 Z M 358.367188 242.679688 " fill-opacity="1" fill-rule="nonzero"/><path fill="#d2cae5" d="M 241.308594 198.632812 C 243.863281 202.792969 247.476562 206.472656 252.035156 208.210938 C 255.777344 209.636719 261.699219 210.496094 262.433594 216.835938 L 262.675781 216.035156 C 262.722656 217.894531 263.09375 219.683594 263.734375 221.40625 C 240.988281 397.371094 264.929688 403.96875 264.929688 403.96875 L 269.71875 389.230469 C 269.742188 389.28125 269.769531 389.332031 269.792969 389.382812 C 267.816406 405.023438 274.125 414.113281 274.125 414.113281 L 278.714844 405.699219 C 282.0625 411.035156 285.449219 415.425781 288.527344 417.609375 C 295.0625 422.253906 301.945312 424.648438 308.71875 425.621094 C 309.644531 425.753906 310.566406 425.859375 311.484375 425.9375 C 311.292969 425.035156 311.101562 424.128906 310.910156 423.242188 C 307.507812 422.683594 298.757812 420.296875 297.945312 419.78125 C 288.859375 414.046875 285.160156 400.039062 280.96875 390.625 C 279.980469 388.398438 279.382812 382.914062 278.457031 380.710938 C 278.304688 383.066406 277.859375 388.605469 277.765625 390.625 C 270.605469 387.796875 267.628906 370.628906 268.148438 364.125 C 267.082031 367.25 266.410156 369.351562 266.515625 372.65625 C 256.664062 357.960938 259.898438 338.726562 262.269531 321.46875 C 260.167969 292.203125 264.699219 262.371094 276.511719 235.53125 C 280.082031 237.902344 284.160156 240.074219 288.542969 242.050781 L 309.238281 249.613281 L 309.253906 249.621094 L 309.265625 249.773438 C 309.265625 249.722656 309.269531 249.675781 309.269531 249.625 C 331.261719 256.214844 352.761719 259.066406 352.761719 259.066406 C 360.199219 254.472656 360.925781 248.660156 358.367188 242.6875 C 359.914062 246.300781 360.160156 250.421875 357.882812 253.808594 C 355.839844 256.84375 351.671875 254.71875 349.5 252.546875 C 347.875 250.917969 346.933594 248.625 346.9375 246.324219 C 346.941406 245.476562 347.070312 244.617188 347.445312 243.859375 C 348.398438 241.921875 350.703125 241.042969 352.851562 240.808594 C 354.839844 240.59375 356.347656 240.28125 357.449219 241.308594 C 354.269531 236.523438 343.320312 220.039062 334.335938 206.445312 C 328.460938 197.554688 323.429688 189.90625 321.992188 187.613281 C 321.992188 187.609375 321.992188 187.609375 321.992188 187.609375 C 321.457031 186.753906 317.828125 185.042969 312.605469 183.710938 C 312.570312 185.320312 312.765625 186.929688 313.230469 188.519531 C 313.230469 188.519531 312.710938 191.691406 308.808594 190.863281 C 302.492188 189.523438 303.738281 185.25 303.738281 185.25 C 303.699219 184.1875 303.746094 183.167969 303.828125 182.167969 C 298.691406 181.65625 293.007812 181.78125 287.523438 183.164062 C 287.839844 184.347656 288.097656 185.585938 288.25 186.894531 C 288.25 186.894531 290.125 190.929688 284.082031 193.207031 C 280.351562 194.617188 279.359375 191.5625 279.359375 191.5625 C 279.589844 189.828125 279.515625 188.125 279.195312 186.460938 C 274.578125 189.082031 270.457031 193.027344 267.40625 198.773438 C 266.648438 199.601562 265.46875 200.65625 264.648438 200.3125 C 262.925781 199.59375 263.84375 196.394531 261.050781 189.9375 C 256.984375 180.535156 244.996094 173.183594 234.914062 171.375 C 234.519531 171.304688 234.078125 171.25 233.742188 171.472656 C 233.371094 171.71875 233.265625 172.214844 233.214844 172.65625 C 232.722656 176.917969 234.144531 181.144531 235.542969 185.199219 C 237.144531 189.8125 238.753906 194.472656 241.308594 198.632812 Z M 284.472656 221.019531 C 285.835938 218.101562 288.714844 216.125 291.757812 215.0625 C 294.683594 214.042969 297.925781 213.753906 300.882812 214.675781 C 305.988281 216.265625 309.335938 221.023438 312.292969 225.480469 L 313.125 228.300781 C 313.105469 229.878906 311.804688 231.253906 310.355469 231.871094 C 308.902344 232.488281 307.277344 232.515625 305.699219 232.515625 C 300.515625 232.519531 295.300781 232.316406 290.230469 231.246094 C 288.84375 230.953125 287.433594 230.578125 286.28125 229.746094 C 283.667969 227.863281 283.109375 223.941406 284.472656 221.019531 Z M 238.789062 176.195312 C 240.007812 176.121094 241.097656 177.070312 241.171875 178.3125 C 241.183594 178.476562 241.210938 178.640625 241.222656 178.808594 C 243.804688 179.675781 246.0625 181.535156 248.160156 183.355469 C 251.464844 186.222656 254.804688 189.191406 256.988281 192.984375 C 258.84375 196.214844 259.734375 199.878906 260.476562 203.546875 C 260.777344 203.554688 261.078125 203.609375 261.367188 203.746094 L 262.285156 204.179688 C 263.34375 204.683594 263.84375 205.910156 263.433594 207.007812 C 263.097656 207.90625 262.242188 208.472656 261.324219 208.472656 C 261.121094 208.472656 260.917969 208.445312 260.714844 208.390625 C 254.164062 206.550781 248.203125 202.625 243.929688 197.328125 C 239.660156 192.03125 237.082031 185.375 236.675781 178.582031 C 236.601562 177.339844 237.546875 176.269531 238.789062 176.195312 Z M 238.789062 176.195312 " fill-opacity="1" fill-rule="nonzero"/><path fill="#ffe5bb" d="M 287.527344 183.160156 C 284.960938 173.515625 277.652344 168.03125 276.742188 166.503906 C 273.613281 161.242188 275.789062 150.363281 272.554688 145.15625 C 272.339844 144.816406 272.082031 144.464844 271.671875 144.332031 C 270.539062 143.964844 269.769531 145.441406 269.640625 146.539062 C 269.222656 150.003906 269.839844 158.878906 269.945312 162.351562 C 257.875 161.277344 248.777344 153 243.5 136.898438 C 241.757812 131.585938 242.210938 121.921875 238.214844 121.1875 C 234.21875 120.453125 234.769531 126.75 234.804688 129.933594 C 234.867188 135.367188 237.820312 146.023438 240.378906 150.878906 C 232.066406 149.710938 222.761719 146.390625 218.539062 134.371094 C 215.996094 127.128906 217.175781 116.445312 217.214844 108.789062 C 217.234375 105.398438 219.007812 99.832031 215.773438 98.824219 C 212.539062 97.8125 212.03125 103.234375 211.984375 106.003906 C 211.933594 108.777344 210.125 120.808594 209.222656 123.476562 C 205.722656 118.535156 202.660156 103.148438 202.175781 96.183594 C 201.691406 89.21875 202.691406 82.089844 201.035156 75.300781 C 200.757812 74.175781 200.070312 72.828125 198.792969 72.890625 C 197.867188 72.933594 197.210938 73.730469 196.765625 74.472656 C 194.871094 77.605469 194.101562 81.171875 193.71875 84.695312 C 193.046875 90.878906 193.484375 97.09375 194.292969 103.230469 C 196.632812 120.949219 202.886719 139.363281 218.109375 150.417969 C 224.425781 155.003906 231.945312 158.058594 239.625 160.472656 C 248.648438 163.308594 258.148438 165.382812 266.144531 170.0625 C 272.550781 173.8125 277.917969 179.769531 279.199219 186.460938 C 279.519531 188.125 279.597656 189.828125 279.363281 191.5625 C 279.363281 191.5625 280.355469 194.617188 284.089844 193.207031 C 290.132812 190.929688 288.253906 186.894531 288.253906 186.894531 C 288.101562 185.582031 287.84375 184.34375 287.527344 183.160156 Z M 287.527344 183.160156 " fill-opacity="1" fill-rule="nonzero"/><path fill="#ffe5bb" d="M 384.003906 88.359375 C 383.878906 82.171875 383.371094 75.960938 381.777344 69.953125 C 380.867188 66.527344 379.566406 63.113281 377.222656 60.308594 C 376.667969 59.640625 375.898438 58.953125 374.980469 59.046875 C 373.707031 59.175781 373.230469 60.613281 373.128906 61.765625 C 372.511719 68.730469 374.578125 75.625 375.152344 82.585938 C 375.722656 89.542969 375.019531 105.214844 372.300781 110.625 C 371.003906 108.125 367.402344 96.503906 366.9375 93.773438 C 366.46875 91.039062 365.148438 85.761719 362.105469 87.246094 C 359.0625 88.730469 361.652344 93.96875 362.183594 97.316406 C 363.378906 104.878906 366.15625 115.261719 364.730469 122.804688 C 362.375 135.324219 353.675781 140.011719 345.636719 142.421875 C 347.429688 137.234375 348.742188 126.25 347.984375 120.875 C 347.539062 117.71875 347.136719 111.410156 343.296875 112.742188 C 339.453125 114.070312 341.363281 123.554688 340.441406 129.070312 C 337.652344 145.785156 329.910156 155.339844 318.140625 158.222656 C 317.71875 154.777344 316.988281 145.910156 316.054688 142.546875 C 315.761719 141.480469 314.777344 140.136719 313.710938 140.671875 C 313.328125 140.863281 313.125 141.25 312.964844 141.621094 C 310.554688 147.253906 314.34375 157.683594 312.046875 163.355469 C 311.363281 165.042969 304.675781 171.84375 303.832031 182.167969 C 303.75 183.167969 303.707031 184.1875 303.742188 185.25 C 303.742188 185.25 302.496094 189.519531 308.8125 190.863281 C 312.714844 191.691406 313.234375 188.519531 313.234375 188.519531 C 312.769531 186.929688 312.574219 185.316406 312.609375 183.710938 C 312.765625 176.816406 317.21875 170.003906 323.058594 165.273438 C 330.257812 159.4375 339.335938 155.953125 347.828125 151.785156 C 355.054688 148.242188 362.03125 144.085938 367.582031 138.601562 C 380.960938 125.375 384.363281 106.230469 384.003906 88.359375 Z M 384.003906 88.359375 " fill-opacity="1" fill-rule="nonzero"/><g clip-path="url(#630056fee8)"><path fill="#16213d" d="M 311.171875 519.765625 L 310.308594 528.136719 C 310.253906 528.6875 310.40625 529.203125 310.695312 529.628906 C 311.054688 530.160156 311.632812 530.539062 312.320312 530.613281 C 312.398438 530.621094 312.476562 530.625 312.554688 530.625 C 313.3125 530.625 313.96875 530.222656 314.382812 529.628906 C 314.589844 529.328125 314.753906 528.992188 314.792969 528.601562 L 315.65625 520.226562 C 315.785156 518.988281 314.882812 517.882812 313.644531 517.753906 C 312.417969 517.625 311.300781 518.527344 311.171875 519.765625 Z M 311.171875 519.765625 " fill-opacity="1" fill-rule="nonzero"/></g><g clip-path="url(#1dc79f9f89)"><path fill="#16213d" d="M 438.414062 517.753906 C 437.175781 517.886719 436.28125 518.996094 436.414062 520.234375 L 437.300781 528.609375 C 437.34375 528.996094 437.503906 529.328125 437.710938 529.628906 C 438.121094 530.222656 438.785156 530.625 439.539062 530.625 C 439.617188 530.625 439.699219 530.621094 439.78125 530.613281 C 440.46875 530.539062 441.039062 530.160156 441.398438 529.628906 C 441.6875 529.203125 441.839844 528.683594 441.78125 528.132812 L 440.894531 519.757812 C 440.761719 518.519531 439.652344 517.621094 438.414062 517.753906 Z M 438.414062 517.753906 " fill-opacity="1" fill-rule="nonzero"/></g><path fill="#16213d" d="M 433.625 431.671875 C 440.035156 456.523438 448.121094 492.691406 448.222656 493.140625 C 448.457031 494.191406 449.386719 494.90625 450.417969 494.90625 C 450.421875 494.90625 450.421875 494.90625 450.421875 494.90625 C 450.582031 494.90625 450.746094 494.886719 450.914062 494.851562 C 450.929688 494.847656 450.941406 494.839844 450.957031 494.835938 C 452.144531 494.542969 452.886719 493.359375 452.621094 492.160156 C 452.496094 491.597656 440.050781 435.925781 433.742188 415.058594 C 433.214844 413.320312 432 412.070312 430.425781 410.96875 C 429.304688 410.1875 428.003906 409.476562 426.617188 408.726562 C 418.886719 404.5625 408.296875 398.859375 410.492188 372.53125 C 410.59375 371.292969 409.671875 370.203125 408.433594 370.097656 C 407.191406 369.988281 406.101562 370.917969 406 372.160156 C 403.5625 401.429688 416.65625 408.484375 424.480469 412.699219 C 425.050781 413.003906 425.597656 413.300781 426.113281 413.589844 C 419.457031 413.289062 413.382812 413.082031 408.890625 413.058594 C 408.671875 413.078125 408.449219 413.101562 408.230469 413.125 C 408.234375 413.128906 408.238281 413.132812 408.246094 413.136719 C 407.25 413.253906 406.0625 413.4375 404.726562 413.671875 C 405.050781 413.875 421.746094 424.425781 433.625 431.671875 Z M 433.625 431.671875 " fill-opacity="1" fill-rule="nonzero"/><path fill="#16213d" d="M 454.578125 511.882812 L 477.710938 511.882812 C 478.953125 511.882812 479.964844 510.875 479.964844 509.628906 C 479.964844 508.382812 478.957031 507.375 477.710938 507.375 L 454.578125 507.375 C 454.394531 507.375 454.214844 507.402344 454.042969 507.445312 C 453.058594 507.683594 452.324219 508.566406 452.324219 509.628906 C 452.324219 510.875 453.332031 511.882812 454.578125 511.882812 Z M 454.578125 511.882812 " fill-opacity="1" fill-rule="nonzero"/><g clip-path="url(#4e70fb3c87)"><path fill="#16213d" d="M 467.085938 517.753906 C 465.847656 517.867188 464.9375 518.96875 465.054688 520.207031 L 465.839844 528.578125 C 465.875 528.976562 466.042969 529.320312 466.253906 529.628906 C 466.664062 530.222656 467.324219 530.625 468.082031 530.625 C 468.152344 530.625 468.222656 530.621094 468.292969 530.613281 C 468.992188 530.550781 469.578125 530.167969 469.941406 529.628906 C 470.222656 529.210938 470.375 528.703125 470.328125 528.160156 L 469.539062 519.785156 C 469.421875 518.546875 468.332031 517.628906 467.085938 517.753906 Z M 467.085938 517.753906 " fill-opacity="1" fill-rule="nonzero"/></g><path fill="#16213d" d="M 355.578125 513.410156 C 355.628906 513.414062 355.675781 513.414062 355.71875 513.414062 C 356.902344 513.414062 357.894531 512.496094 357.96875 511.300781 C 358.042969 510.058594 357.097656 508.988281 355.855469 508.910156 L 355.714844 508.902344 L 331.011719 507.378906 C 330.789062 507.367188 330.582031 507.394531 330.382812 507.4375 C 329.402344 507.648438 328.6875 508.457031 328.621094 509.488281 C 328.542969 510.730469 329.488281 511.800781 330.730469 511.878906 L 331.292969 511.914062 L 355.230469 513.390625 Z M 355.578125 513.410156 " fill-opacity="1" fill-rule="nonzero"/><g clip-path="url(#c3bda8d188)"><path fill="#16213d" d="M 344.316406 517.753906 C 343.074219 517.878906 342.171875 518.984375 342.296875 520.222656 L 343.144531 528.597656 C 343.183594 528.988281 343.347656 529.324219 343.554688 529.628906 C 343.964844 530.222656 344.625 530.625 345.382812 530.625 C 345.460938 530.625 345.535156 530.621094 345.613281 530.609375 C 346.300781 530.542969 346.882812 530.160156 347.242188 529.625 C 347.53125 529.203125 347.683594 528.6875 347.628906 528.140625 L 346.785156 519.765625 C 346.660156 518.53125 345.542969 517.625 344.316406 517.753906 Z M 344.316406 517.753906 " fill-opacity="1" fill-rule="nonzero"/></g><path fill="#16213d" d="M 323.535156 441.523438 C 323.707031 442.636719 324.667969 443.433594 325.757812 443.433594 C 325.875 443.433594 325.992188 443.429688 326.105469 443.410156 C 327.335938 443.21875 328.179688 442.066406 327.988281 440.839844 L 327.195312 435.671875 C 327.007812 434.441406 325.84375 433.59375 324.625 433.789062 C 323.394531 433.976562 322.550781 435.128906 322.742188 436.355469 Z M 323.535156 441.523438 " fill-opacity="1" fill-rule="nonzero"/><path fill="#16213d" d="M 338.742188 438.710938 C 337.515625 438.566406 336.386719 439.449219 336.242188 440.6875 C 335.996094 442.789062 336.253906 444.945312 336.988281 446.921875 C 337.324219 447.832031 338.1875 448.394531 339.101562 448.394531 C 339.363281 448.394531 339.628906 448.347656 339.886719 448.253906 C 341.054688 447.820312 341.648438 446.519531 341.214844 445.355469 C 340.726562 444.039062 340.558594 442.605469 340.71875 441.210938 C 340.863281 439.976562 339.980469 438.855469 338.742188 438.710938 Z M 338.742188 438.710938 " fill-opacity="1" fill-rule="nonzero"/><path fill="#16213d" d="M 339.019531 421.851562 C 337.765625 421.707031 336.660156 422.585938 336.515625 423.824219 C 336.265625 425.921875 336.523438 428.078125 337.261719 430.0625 C 337.597656 430.96875 338.457031 431.53125 339.375 431.53125 C 339.636719 431.53125 339.898438 431.488281 340.160156 431.390625 C 341.324219 430.957031 341.917969 429.660156 341.488281 428.492188 C 341 427.175781 340.828125 425.746094 340.992188 424.351562 C 341.136719 423.117188 340.253906 421.996094 339.019531 421.851562 Z M 339.019531 421.851562 " fill-opacity="1" fill-rule="nonzero"/><path fill="#16213d" d="M 414.695312 324.140625 C 415.109375 324.878906 415.871094 325.292969 416.660156 325.292969 C 417.035156 325.292969 417.414062 325.199219 417.761719 325.003906 C 418.847656 324.390625 419.234375 323.015625 418.621094 321.933594 L 416.058594 317.375 C 415.453125 316.289062 414.078125 315.902344 412.992188 316.511719 C 411.90625 317.121094 411.519531 318.496094 412.132812 319.582031 Z M 414.695312 324.140625 " fill-opacity="1" fill-rule="nonzero"/><path fill="#16213d" d="M 430.253906 315.285156 C 429.109375 315.78125 428.585938 317.109375 429.082031 318.25 L 431.046875 322.785156 C 431.414062 323.632812 432.242188 324.140625 433.113281 324.140625 C 433.414062 324.140625 433.71875 324.082031 434.011719 323.957031 C 435.152344 323.460938 435.675781 322.132812 435.179688 320.992188 L 433.21875 316.457031 C 432.722656 315.316406 431.394531 314.792969 430.253906 315.285156 Z M 430.253906 315.285156 " fill-opacity="1" fill-rule="nonzero"/><path fill="#16213d" d="M 282.710938 325.296875 C 282.710938 326.542969 283.71875 327.554688 284.964844 327.554688 C 286.207031 327.554688 287.21875 326.542969 287.21875 325.296875 L 287.21875 320.757812 C 287.21875 319.511719 286.210938 318.503906 284.964844 318.503906 C 283.71875 318.503906 282.710938 319.511719 282.710938 320.757812 Z M 282.710938 325.296875 " fill-opacity="1" fill-rule="nonzero"/><path fill="#16213d" d="M 294.351562 327.890625 L 294.351562 327.242188 C 294.351562 326 293.339844 324.988281 292.097656 324.988281 C 290.851562 324.988281 289.839844 326 289.839844 327.242188 L 289.839844 327.890625 C 289.839844 329.136719 290.851562 330.148438 292.097656 330.148438 C 293.339844 330.148438 294.351562 329.136719 294.351562 327.890625 Z M 294.351562 327.890625 " fill-opacity="1" fill-rule="nonzero"/><path fill="#16213d" d="M 471.070312 409.472656 C 472.3125 409.472656 473.324219 408.464844 473.324219 407.21875 L 473.324219 402.351562 C 473.324219 401.109375 472.316406 400.097656 471.070312 400.097656 C 469.824219 400.097656 468.816406 401.109375 468.816406 402.351562 L 468.816406 407.21875 C 468.816406 408.464844 469.824219 409.472656 471.070312 409.472656 Z M 471.070312 409.472656 " fill-opacity="1" fill-rule="nonzero"/><path fill="#16213d" d="M 451.679688 410.089844 C 452.910156 409.910156 453.765625 408.769531 453.585938 407.535156 L 452.929688 402.996094 C 452.75 401.761719 451.597656 400.910156 450.375 401.085938 C 449.140625 401.265625 448.289062 402.410156 448.46875 403.644531 L 449.125 408.179688 C 449.289062 409.304688 450.25 410.113281 451.351562 410.113281 C 451.460938 410.113281 451.570312 410.105469 451.679688 410.089844 Z M 451.679688 410.089844 " fill-opacity="1" fill-rule="nonzero"/><path fill="#16213d" d="M 450.570312 421.890625 C 450.761719 422.980469 451.714844 423.75 452.785156 423.75 C 452.917969 423.75 453.046875 423.738281 453.183594 423.714844 C 454.40625 423.496094 455.226562 422.324219 455.007812 421.097656 L 454.3125 417.210938 C 454.09375 415.984375 452.921875 415.167969 451.699219 415.390625 C 450.472656 415.609375 449.65625 416.78125 449.878906 418.007812 Z M 450.570312 421.890625 " fill-opacity="1" fill-rule="nonzero"/><path fill="#16213d" d="M 460.054688 436.394531 C 460.171875 436.394531 460.292969 436.382812 460.414062 436.363281 C 461.644531 436.167969 462.480469 435.011719 462.28125 433.78125 L 461.554688 429.25 C 461.355469 428.023438 460.199219 427.1875 458.96875 427.382812 C 457.742188 427.582031 456.90625 428.742188 457.105469 429.96875 L 457.832031 434.496094 C 458.007812 435.601562 458.964844 436.394531 460.054688 436.394531 Z M 460.054688 436.394531 " fill-opacity="1" fill-rule="nonzero"/><path fill="#16213d" d="M 468.816406 443.546875 C 468.816406 444.792969 469.824219 445.800781 471.070312 445.800781 C 472.3125 445.800781 473.324219 444.792969 473.324219 443.546875 L 473.324219 439.976562 C 473.324219 438.734375 472.316406 437.722656 471.070312 437.722656 C 469.824219 437.722656 468.816406 438.734375 468.816406 439.976562 Z M 468.816406 443.546875 " fill-opacity="1" fill-rule="nonzero"/><path fill="#16213d" d="M 441.9375 318.65625 C 440.78125 319.113281 440.210938 320.421875 440.667969 321.582031 C 440.824219 321.972656 440.882812 322.398438 440.84375 322.816406 C 440.730469 324.058594 441.644531 325.152344 442.882812 325.269531 C 442.953125 325.273438 443.023438 325.277344 443.09375 325.277344 C 444.246094 325.277344 445.226562 324.398438 445.335938 323.230469 C 445.433594 322.113281 445.273438 320.96875 444.863281 319.925781 C 444.402344 318.765625 443.09375 318.199219 441.9375 318.65625 Z M 441.9375 318.65625 " fill-opacity="1" fill-rule="nonzero"/><path fill="#16213d" d="M 309.375 262.085938 L 310.175781 262.855469 L 309.269531 249.769531 L 309.257812 249.621094 L 309.242188 249.613281 L 288.542969 242.050781 L 288.527344 242.042969 L 306.246094 259.078125 Z M 309.375 262.085938 " fill-opacity="1" fill-rule="nonzero"/><path fill="#16213d" d="M 326.289062 502.757812 C 326.457031 503.402344 326.894531 503.882812 327.4375 504.167969 C 327.757812 504.335938 328.101562 504.453125 328.472656 504.453125 C 328.65625 504.453125 328.84375 504.429688 329.03125 504.382812 C 329.253906 504.324219 329.457031 504.230469 329.644531 504.113281 C 330.464844 503.613281 330.90625 502.621094 330.65625 501.640625 C 328.347656 492.617188 325.792969 478.277344 323.085938 463.097656 C 318.71875 438.582031 313.765625 410.792969 308.28125 396.558594 C 307.835938 395.398438 306.53125 394.824219 305.375 395.265625 C 305.375 395.265625 305.371094 395.265625 305.371094 395.265625 C 305.261719 395.308594 305.160156 395.363281 305.0625 395.421875 C 304.113281 395.964844 303.671875 397.128906 304.078125 398.179688 C 306.441406 404.320312 308.726562 413.175781 310.914062 423.242188 C 311.105469 424.128906 311.296875 425.035156 311.488281 425.941406 C 314.015625 437.898438 316.410156 451.320312 318.648438 463.890625 C 321.367188 479.152344 323.9375 493.574219 326.289062 502.757812 Z M 326.289062 502.757812 " fill-opacity="1" fill-rule="nonzero"/><path fill="#16213d" d="M 357.886719 253.804688 C 360.164062 250.417969 359.917969 246.300781 358.367188 242.683594 C 358.101562 242.0625 357.796875 241.625 357.457031 241.308594 C 356.351562 240.28125 354.84375 240.59375 352.855469 240.808594 C 350.707031 241.042969 348.402344 241.921875 347.449219 243.859375 C 347.078125 244.617188 346.945312 245.476562 346.945312 246.324219 C 346.9375 248.625 347.878906 250.917969 349.507812 252.546875 C 351.675781 254.71875 355.84375 256.84375 357.886719 253.804688 Z M 357.886719 253.804688 " fill-opacity="1" fill-rule="nonzero"/><path fill="#16213d" d="M 293.496094 218.632812 C 292.316406 218.277344 291.050781 218.949219 290.6875 220.144531 C 290.046875 222.28125 290.433594 224.75 291.71875 226.75 C 292.820312 228.464844 294.507812 229.8125 296.597656 230.648438 C 297.59375 231.050781 298.503906 231.246094 299.371094 231.246094 C 299.40625 231.246094 299.4375 231.242188 299.472656 231.242188 C 300.355469 231.226562 301.242188 231.007812 302.117188 230.59375 C 305.289062 229.089844 307.097656 225.371094 306.316406 221.949219 C 306.042969 220.734375 304.839844 219.96875 303.621094 220.25 C 302.40625 220.527344 301.644531 221.734375 301.921875 222.945312 C 302.226562 224.292969 301.433594 225.929688 300.1875 226.519531 C 299.898438 226.65625 299.621094 226.730469 299.390625 226.738281 C 299.136719 226.738281 298.746094 226.652344 298.273438 226.464844 C 297.074219 225.984375 296.09375 225.21875 295.511719 224.3125 C 294.9375 223.421875 294.742188 222.320312 295.007812 221.445312 C 295.363281 220.25 294.691406 218.992188 293.496094 218.632812 Z M 293.496094 218.632812 " fill-opacity="1" fill-rule="nonzero"/><path fill="#16213d" d="M 236.675781 178.582031 C 237.082031 185.375 239.660156 192.03125 243.929688 197.328125 C 248.203125 202.625 254.164062 206.550781 260.714844 208.390625 C 260.917969 208.445312 261.121094 208.472656 261.324219 208.472656 C 262.242188 208.472656 263.097656 207.90625 263.433594 207.007812 C 263.84375 205.910156 263.347656 204.683594 262.285156 204.179688 L 261.367188 203.746094 C 261.078125 203.609375 260.773438 203.554688 260.476562 203.546875 C 260.414062 203.542969 260.351562 203.527344 260.289062 203.53125 C 255.285156 201.789062 250.765625 198.625 247.4375 194.496094 C 243.855469 190.054688 241.667969 184.5 241.222656 178.808594 C 241.210938 178.640625 241.183594 178.476562 241.171875 178.3125 C 241.097656 177.070312 240.007812 176.121094 238.789062 176.195312 C 237.546875 176.269531 236.601562 177.339844 236.675781 178.582031 Z M 236.675781 178.582031 " fill-opacity="1" fill-rule="nonzero"/></svg>