<svg xmlns="http://www.w3.org/2000/svg" xmlns:xlink="http://www.w3.org/1999/xlink" width="940" zoomAndPan="magnify" viewBox="0 0 705 591.000005" height="788" preserveAspectRatio="xMidYMid meet" version="1.0"><defs><clipPath id="33f5bf2c0e"><path d="M 273 366.710938 L 366 366.710938 L 366 525.3125 L 273 525.3125 Z M 273 366.710938 " clip-rule="nonzero"/></clipPath><clipPath id="061b64af31"><path d="M 301.378906 500 L 324.648438 500 L 324.648438 525.3125 L 301.378906 525.3125 Z M 301.378906 500 " clip-rule="nonzero"/></clipPath><clipPath id="ec7868bb4c"><path d="M 319.0625 499 L 342 499 L 342 525.3125 L 319.0625 525.3125 Z M 319.0625 499 " clip-rule="nonzero"/></clipPath><clipPath id="b3069c8343"><path d="M 420.527344 64.304688 L 571.757812 64.304688 L 571.757812 282 L 420.527344 282 Z M 420.527344 64.304688 " clip-rule="nonzero"/></clipPath></defs><path fill="#7d9fbd" d="M 281.273438 311.671875 C 279.34375 324.8125 257.304688 346.453125 244.933594 380.074219 C 236.949219 401.757812 235.144531 416.808594 237.585938 438.429688 C 241.917969 476.796875 246.503906 491.113281 363.382812 488.667969 C 480.253906 486.226562 492.703125 440.957031 492.703125 440.957031 C 492.085938 444.5 498.640625 425.007812 473.128906 416.117188 C 473.128906 416.117188 451.769531 351.089844 410.789062 323.265625 C 367.648438 293.976562 301.734375 172.613281 281.273438 311.671875 " fill-opacity="1" fill-rule="nonzero"/><path fill="#47536f" d="M 310.328125 246.023438 C 295.816406 250.589844 285.9375 272.007812 280.128906 311.507812 C 279.285156 317.230469 274.300781 324.875 267.992188 334.566406 C 260.257812 346.4375 250.632812 361.21875 243.839844 379.675781 C 235.898438 401.265625 233.960938 416.675781 236.433594 438.554688 C 238.726562 458.835938 241.304688 471.742188 257.761719 479.894531 C 274.480469 488.171875 305.085938 491.046875 363.402344 489.828125 C 473.882812 487.511719 491.648438 447.570312 493.617188 441.894531 C 493.699219 441.769531 493.808594 441.722656 493.863281 441.53125 C 493.878906 441.480469 494.128906 440.351562 494.128906 438.542969 C 494.128906 433.121094 491.839844 421.65625 474.050781 415.234375 C 471.980469 409.214844 450.410156 348.769531 411.433594 322.308594 C 401.085938 315.28125 389.492188 302.976562 377.210938 289.957031 C 353.984375 265.320312 329.96875 239.84375 310.328125 246.023438 Z M 238.738281 438.296875 C 236.3125 416.8125 238.214844 401.683594 246.019531 380.472656 C 252.722656 362.261719 262.265625 347.609375 269.9375 335.832031 C 276.398438 325.910156 281.503906 318.070312 282.421875 311.84375 C 288.089844 273.3125 297.445312 252.507812 311.023438 248.238281 C 329.277344 242.496094 352.785156 267.433594 375.523438 291.546875 C 387.890625 304.664062 399.570312 317.050781 410.136719 324.226562 C 450.308594 351.503906 471.816406 415.839844 472.023438 416.480469 L 472.210938 417.027344 L 472.75 417.214844 C 489.78125 423.148438 491.839844 433.75 491.839844 438.496094 C 491.839844 439.703125 491.722656 440.390625 491.667969 440.667969 C 491.664062 440.667969 491.585938 440.648438 491.585938 440.648438 C 491.460938 441.09375 477.757812 485.113281 363.351562 487.507812 C 244.574219 489.996094 242.867188 474.859375 238.738281 438.296875 " fill-opacity="1" fill-rule="nonzero"/><path fill="#707c9b" d="M 492.628906 441.183594 C 492.648438 441.171875 492.671875 441.113281 492.703125 440.957031 C 492.703125 440.957031 492.675781 441.046875 492.628906 441.183594 " fill-opacity="1" fill-rule="nonzero"/><path fill="#7d9fbd" d="M 184.007812 402.609375 C 172.386719 398.8125 178.132812 367.957031 189.027344 366.539062 C 199.917969 365.121094 206.917969 394.882812 200.800781 399.855469 C 194.6875 404.808594 187.585938 403.777344 184.007812 402.609375 " fill-opacity="1" fill-rule="nonzero"/><path fill="#47536f" d="M 188.871094 365.324219 C 182.03125 366.21875 177.414062 376.664062 176.542969 386.039062 C 176.4375 387.167969 176.386719 388.261719 176.386719 389.3125 C 176.386719 396.855469 179.039062 402.277344 183.628906 403.773438 C 186.015625 404.554688 194.371094 406.644531 201.574219 400.796875 C 205.921875 397.269531 204.652344 384.796875 200.796875 375.820312 C 197.636719 368.464844 193.394531 364.738281 188.871094 365.324219 Z M 184.390625 401.445312 C 179.507812 399.855469 178.394531 392.558594 178.980469 386.261719 C 179.761719 377.894531 183.878906 368.445312 189.183594 367.75 C 193.871094 367.140625 197.292969 373.867188 198.546875 376.785156 C 202.226562 385.347656 202.972656 396.507812 200.023438 398.894531 C 193.957031 403.828125 187.070312 402.324219 184.390625 401.445312 Z M 184.390625 401.445312 " fill-opacity="1" fill-rule="nonzero"/><path fill="#7d9fbd" d="M 184.054688 397.679688 C 184.820312 416.152344 192.484375 433.089844 204.558594 442.976562 C 214.371094 451.007812 226.738281 454.117188 240.320312 451.972656 C 242.992188 451.546875 244.816406 449.046875 244.390625 446.375 C 243.972656 443.703125 241.46875 441.886719 238.792969 442.304688 C 227.890625 444.023438 218.460938 441.699219 210.761719 435.410156 C 200.964844 427.375 194.480469 412.765625 193.835938 397.269531 C 193.726562 394.570312 191.449219 392.480469 188.742188 392.585938 C 186.039062 392.699219 183.945312 394.984375 184.054688 397.679688 " fill-opacity="1" fill-rule="nonzero"/><path fill="#47536f" d="M 188.695312 391.367188 C 187.058594 391.433594 185.550781 392.128906 184.445312 393.335938 C 183.335938 394.539062 182.765625 396.097656 182.832031 397.730469 C 183.609375 416.554688 191.441406 433.816406 203.789062 443.921875 C 213.871094 452.183594 226.574219 455.386719 240.511719 453.179688 C 242.128906 452.929688 243.546875 452.054688 244.507812 450.734375 C 245.46875 449.410156 245.855469 447.796875 245.601562 446.183594 C 245.34375 444.5625 244.476562 443.152344 243.15625 442.191406 C 241.835938 441.230469 240.214844 440.839844 238.605469 441.101562 C 228.058594 442.761719 218.953125 440.527344 211.539062 434.460938 C 202 426.644531 195.6875 412.382812 195.0625 397.222656 C 194.992188 395.59375 194.292969 394.082031 193.089844 392.96875 C 191.890625 391.875 190.328125 391.300781 188.695312 391.367188 Z M 205.335938 442.03125 C 193.523438 432.363281 186.027344 415.761719 185.28125 397.621094 C 185.242188 396.648438 185.582031 395.714844 186.246094 394.992188 C 186.910156 394.269531 187.8125 393.851562 188.792969 393.8125 C 189.773438 393.765625 190.710938 394.113281 191.4375 394.773438 C 192.15625 395.441406 192.574219 396.347656 192.613281 397.328125 C 193.269531 413.152344 199.925781 428.109375 209.988281 436.351562 C 217.960938 442.886719 227.722656 445.289062 238.984375 443.511719 C 239.953125 443.363281 240.921875 443.589844 241.714844 444.164062 C 242.507812 444.746094 243.03125 445.601562 243.183594 446.570312 C 243.335938 447.535156 243.109375 448.488281 242.53125 449.296875 C 241.949219 450.085938 241.101562 450.609375 240.128906 450.761719 C 226.902344 452.855469 214.867188 449.835938 205.335938 442.03125 " fill-opacity="1" fill-rule="nonzero"/><path fill="#7d9fbd" d="M 287.097656 467.257812 C 287.097656 494.851562 267.371094 517.214844 243.039062 517.214844 C 218.703125 517.214844 198.976562 494.851562 198.976562 467.257812 C 198.976562 439.671875 218.703125 417.3125 243.039062 417.3125 C 267.371094 417.3125 287.097656 439.671875 287.097656 467.257812 " fill-opacity="1" fill-rule="nonzero"/><path fill="#47536f" d="M 284.261719 480.332031 C 279.222656 500.871094 262.671875 515.992188 243.039062 515.992188 C 219.417969 515.992188 200.203125 494.132812 200.203125 467.257812 C 200.203125 445.691406 212.597656 427.371094 229.707031 420.976562 C 231.691406 419.34375 233.800781 417.945312 235.980469 416.773438 C 214.363281 420.613281 197.757812 441.765625 197.757812 467.257812 C 197.757812 495.484375 218.066406 518.4375 243.039062 518.4375 C 265.425781 518.4375 284.023438 499.957031 287.632812 475.800781 C 286.625 477.363281 285.464844 478.867188 284.261719 480.332031 " fill-opacity="1" fill-rule="nonzero"/><path fill="#bfcedc" d="M 228.734375 445.445312 C 228.996094 452.644531 224.648438 458.660156 219.023438 458.863281 C 213.398438 459.066406 208.625 453.394531 208.359375 446.1875 C 208.097656 438.980469 212.441406 432.96875 218.066406 432.761719 C 223.695312 432.558594 228.46875 438.234375 228.734375 445.445312 " fill-opacity="1" fill-rule="nonzero"/><path fill="#47536f" d="M 218.023438 431.542969 C 211.734375 431.769531 206.851562 438.363281 207.136719 446.234375 C 207.292969 450.597656 209.007812 454.605469 211.824219 457.230469 C 213.90625 459.164062 216.480469 460.183594 219.070312 460.085938 C 225.359375 459.851562 230.242188 453.265625 229.953125 445.398438 C 229.796875 441.023438 228.082031 437.015625 225.261719 434.390625 C 223.179688 432.457031 220.609375 431.445312 218.023438 431.542969 Z M 213.492188 455.4375 C 211.144531 453.261719 209.71875 449.871094 209.585938 446.140625 C 209.34375 439.621094 213.171875 434.167969 218.117188 433.984375 C 220.074219 433.917969 221.96875 434.675781 223.589844 436.179688 C 225.949219 438.367188 227.371094 441.761719 227.507812 445.484375 C 227.746094 452.003906 223.917969 457.460938 218.976562 457.636719 C 217.015625 457.710938 215.117188 456.953125 213.492188 455.4375 " fill-opacity="1" fill-rule="nonzero"/><path fill="#bfcedc" d="M 246.472656 438.289062 C 246.734375 445.492188 242.390625 451.5 236.765625 451.710938 C 231.140625 451.917969 226.371094 446.234375 226.101562 439.027344 C 225.839844 431.820312 230.183594 425.808594 235.808594 425.609375 C 241.433594 425.402344 246.207031 431.070312 246.472656 438.289062 " fill-opacity="1" fill-rule="nonzero"/><path fill="#47536f" d="M 235.765625 424.378906 C 229.476562 424.613281 224.589844 431.203125 224.878906 439.070312 C 225.167969 446.945312 230.523438 453.160156 236.808594 452.929688 C 243.101562 452.695312 247.984375 446.109375 247.699219 438.234375 C 247.40625 430.371094 242.050781 424.152344 235.765625 424.378906 Z M 227.324219 438.980469 C 227.085938 432.460938 230.914062 427.007812 235.855469 426.828125 C 240.796875 426.644531 245.011719 431.804688 245.25 438.328125 C 245.257812 438.519531 245.261719 438.710938 245.261719 438.898438 C 245.261719 445.167969 241.519531 450.308594 236.722656 450.476562 C 231.777344 450.664062 227.566406 445.503906 227.324219 438.980469 " fill-opacity="1" fill-rule="nonzero"/><path fill="#bfcedc" d="M 266.042969 439.285156 C 266.308594 446.5 261.964844 452.507812 256.339844 452.710938 C 250.714844 452.921875 245.941406 447.242188 245.679688 440.03125 C 245.414062 432.828125 249.757812 426.820312 255.386719 426.617188 C 261.011719 426.40625 265.78125 432.085938 266.042969 439.285156 " fill-opacity="1" fill-rule="nonzero"/><path fill="#47536f" d="M 255.34375 425.390625 C 249.050781 425.621094 244.164062 432.210938 244.453125 440.078125 C 244.613281 444.453125 246.320312 448.453125 249.144531 451.082031 C 251.222656 453.015625 253.796875 454.03125 256.382812 453.933594 C 258.972656 453.84375 261.460938 452.640625 263.394531 450.5625 C 265.878906 447.882812 267.28125 444.039062 267.28125 439.917969 C 267.28125 439.695312 267.277344 439.472656 267.269531 439.246094 C 267.109375 434.878906 265.402344 430.867188 262.578125 428.246094 C 260.496094 426.3125 257.925781 425.296875 255.34375 425.390625 Z M 250.808594 449.289062 C 248.464844 447.105469 247.035156 443.71875 246.898438 439.992188 C 246.664062 433.46875 250.488281 428.015625 255.429688 427.835938 C 257.386719 427.769531 259.285156 428.523438 260.914062 430.035156 C 263.261719 432.222656 264.6875 435.609375 264.824219 439.332031 C 264.960938 443.058594 263.785156 446.542969 261.601562 448.898438 C 260.09375 450.523438 258.257812 451.417969 256.296875 451.488281 C 254.335938 451.558594 252.4375 450.800781 250.808594 449.289062 Z M 267.269531 439.246094 Z M 267.269531 439.246094 " fill-opacity="1" fill-rule="nonzero"/><path fill="#d4a7b7" d="M 277.347656 469.886719 C 283.519531 492.300781 273.175781 514.683594 254.25 519.898438 C 235.320312 525.101562 214.976562 511.152344 208.804688 488.742188 C 202.644531 466.335938 212.984375 443.9375 231.914062 438.734375 C 250.835938 433.53125 271.183594 447.484375 277.347656 469.886719 " fill-opacity="1" fill-rule="nonzero"/><path fill="#eeccd3" d="M 272.148438 466.324219 C 277.613281 486.171875 268.449219 506 251.691406 510.605469 C 234.929688 515.214844 216.917969 502.867188 211.449219 483.015625 C 205.988281 463.175781 215.152344 443.34375 231.914062 438.734375 C 248.671875 434.128906 266.6875 446.484375 272.148438 466.324219 " fill-opacity="1" fill-rule="nonzero"/><path fill="#47536f" d="M 231.585938 437.554688 C 212.039062 442.9375 201.289062 466.042969 207.628906 489.0625 C 213.964844 512.089844 235.027344 526.449219 254.570312 521.070312 C 274.121094 515.695312 284.867188 492.59375 278.53125 469.5625 C 272.191406 446.542969 251.132812 432.175781 231.585938 437.554688 Z M 209.988281 488.414062 C 204.011719 466.6875 213.988281 444.933594 232.238281 439.914062 C 250.476562 434.898438 270.191406 448.488281 276.171875 470.210938 C 282.148438 491.9375 272.171875 513.695312 253.921875 518.71875 C 235.679688 523.730469 215.972656 510.136719 209.988281 488.414062 " fill-opacity="1" fill-rule="nonzero"/><path fill="#7d9fbd" d="M 428.695312 471.886719 C 431.941406 499.277344 454.160156 519.171875 478.324219 516.308594 C 502.488281 513.457031 519.445312 488.925781 516.203125 461.53125 C 512.953125 434.132812 490.738281 414.234375 466.574219 417.097656 C 442.410156 419.953125 425.453125 444.480469 428.695312 471.886719 " fill-opacity="1" fill-rule="nonzero"/><path fill="#47536f" d="M 433.046875 484.535156 C 440.46875 504.332031 458.683594 517.40625 478.179688 515.097656 C 501.636719 512.316406 518.148438 488.355469 514.984375 461.675781 C 512.445312 440.25 497.980469 423.511719 480.242188 419.179688 C 478.078125 417.789062 475.820312 416.640625 473.515625 415.734375 C 495.4375 417.011719 514.417969 436.058594 517.417969 461.386719 C 520.734375 489.410156 503.265625 514.585938 478.46875 517.53125 C 456.234375 520.15625 435.589844 503.992188 429.164062 480.421875 C 430.351562 481.859375 431.679688 483.214844 433.046875 484.535156 " fill-opacity="1" fill-rule="nonzero"/><path fill="#bfcedc" d="M 484.367188 441.257812 C 486.296875 448.214844 492.257812 452.625 497.679688 451.121094 C 503.105469 449.617188 505.941406 442.765625 504.011719 435.824219 C 502.085938 428.871094 496.121094 424.453125 490.703125 425.949219 C 485.277344 427.457031 482.441406 434.3125 484.367188 441.257812 " fill-opacity="1" fill-rule="nonzero"/><path fill="#47536f" d="M 484.339844 429.675781 C 482.441406 433.03125 482.019531 437.367188 483.1875 441.582031 C 485.292969 449.171875 491.941406 453.972656 498.003906 452.300781 C 500.503906 451.613281 502.644531 449.859375 504.042969 447.386719 C 505.941406 444.039062 506.359375 439.703125 505.1875 435.488281 C 503.085938 427.902344 496.4375 423.09375 490.378906 424.773438 C 487.882812 425.46875 485.734375 427.203125 484.339844 429.675781 Z M 497.351562 449.945312 C 492.589844 451.257812 487.292969 447.222656 485.546875 440.9375 C 484.550781 437.335938 484.886719 433.675781 486.46875 430.878906 C 487.558594 428.949219 489.132812 427.65625 491.027344 427.136719 C 495.792969 425.8125 501.09375 429.851562 502.832031 436.140625 C 503.828125 439.738281 503.496094 443.394531 501.914062 446.183594 C 500.824219 448.117188 499.246094 449.417969 497.351562 449.945312 " fill-opacity="1" fill-rule="nonzero"/><path fill="#bfcedc" d="M 466.734375 441.03125 C 469.257812 447.78125 475.582031 451.667969 480.859375 449.6875 C 486.128906 447.714844 488.355469 440.644531 485.828125 433.886719 C 483.296875 427.136719 476.976562 423.253906 471.707031 425.226562 C 466.433594 427.203125 464.207031 434.277344 466.734375 441.03125 " fill-opacity="1" fill-rule="nonzero"/><path fill="#47536f" d="M 465.585938 441.464844 C 468.34375 448.832031 475.390625 453.042969 481.28125 450.835938 C 487.179688 448.640625 489.734375 440.84375 486.976562 433.464844 C 484.214844 426.089844 477.167969 421.878906 471.28125 424.085938 C 465.382812 426.289062 462.828125 434.082031 465.585938 441.464844 Z M 480.433594 448.550781 C 475.9375 450.230469 470.5 446.925781 468.09375 441.136719 C 468.019531 440.960938 467.949219 440.789062 467.878906 440.605469 C 465.59375 434.488281 467.5 428.105469 472.128906 426.386719 C 476.761719 424.640625 482.394531 428.207031 484.679688 434.316406 C 486.964844 440.429688 485.058594 446.816406 480.433594 448.550781 " fill-opacity="1" fill-rule="nonzero"/><path fill="#bfcedc" d="M 448.027344 447.996094 C 449.949219 454.945312 455.910156 459.359375 461.339844 457.859375 C 466.761719 456.355469 469.597656 449.5 467.667969 442.550781 C 465.738281 435.605469 459.785156 431.183594 454.355469 432.6875 C 448.933594 434.195312 446.097656 441.046875 448.027344 447.996094 " fill-opacity="1" fill-rule="nonzero"/><path fill="#47536f" d="M 447.988281 436.40625 C 446.09375 439.769531 445.671875 444.097656 446.84375 448.320312 C 446.90625 448.535156 446.96875 448.753906 447.039062 448.964844 C 448.285156 452.890625 450.773438 456.136719 453.960938 457.9375 C 456.429688 459.335938 459.171875 459.726562 461.660156 459.03125 C 464.15625 458.34375 466.300781 456.597656 467.695312 454.125 C 469.601562 450.773438 470.019531 446.4375 468.847656 442.21875 C 466.742188 434.628906 460.097656 429.824219 454.03125 431.507812 C 451.535156 432.199219 449.390625 433.9375 447.988281 436.40625 Z M 461.011719 456.671875 C 459.117188 457.203125 457.089844 456.898438 455.167969 455.808594 C 452.375 454.230469 450.195312 451.253906 449.203125 447.671875 C 448.207031 444.070312 448.542969 440.410156 450.121094 437.617188 C 451.21875 435.6875 452.796875 434.394531 454.683594 433.871094 C 459.453125 432.539062 464.742188 436.585938 466.488281 442.875 C 467.484375 446.472656 467.15625 450.128906 465.574219 452.929688 C 464.476562 454.855469 462.902344 456.148438 461.011719 456.671875 Z M 446.84375 448.320312 Z M 446.84375 448.320312 " fill-opacity="1" fill-rule="nonzero"/><path fill="#d4a7b7" d="M 447.046875 472.734375 C 443.558594 495.722656 456.460938 516.738281 475.871094 519.679688 C 495.273438 522.628906 513.839844 506.378906 517.332031 483.398438 C 520.824219 460.425781 507.910156 439.398438 488.507812 436.460938 C 469.09375 433.515625 450.539062 449.753906 447.046875 472.734375 " fill-opacity="1" fill-rule="nonzero"/><path fill="#eeccd3" d="M 451.792969 468.582031 C 448.699219 488.9375 460.132812 507.546875 477.316406 510.15625 C 494.5 512.765625 510.933594 498.375 514.035156 478.027344 C 517.121094 457.6875 505.691406 439.0625 488.507812 436.460938 C 471.320312 433.847656 454.882812 448.234375 451.792969 468.582031 " fill-opacity="1" fill-rule="nonzero"/><path fill="#47536f" d="M 445.832031 472.546875 C 442.253906 496.160156 455.640625 517.847656 475.6875 520.894531 C 495.730469 523.933594 514.949219 507.195312 518.542969 483.578125 C 522.125 459.972656 508.734375 438.289062 488.691406 435.25 C 468.648438 432.210938 449.425781 448.949219 445.832031 472.546875 Z M 476.050781 518.46875 C 457.347656 515.628906 444.871094 495.191406 448.253906 472.917969 C 451.640625 450.640625 469.617188 434.832031 488.320312 437.664062 C 507.03125 440.503906 519.503906 460.941406 516.121094 483.214844 C 512.734375 505.496094 494.757812 521.3125 476.050781 518.46875 " fill-opacity="1" fill-rule="nonzero"/><path fill="#7d9fbd" d="M 397.28125 376.910156 C 397.28125 376.910156 377.078125 403.875 354.730469 408.453125 L 360.335938 512.75 C 360.335938 512.75 402.789062 529.527344 429.59375 507.9375 C 434.804688 503.742188 430.632812 408.394531 437.027344 384.183594 L 397.28125 376.910156 " fill-opacity="1" fill-rule="nonzero"/><path fill="#6a89ac" d="M 372.867188 418.941406 C 378.0625 401.214844 391.332031 391.515625 397.28125 376.910156 C 386.328125 392.636719 366.769531 405.988281 354.730469 408.453125 L 360.335938 512.75 C 360.335938 512.75 360.675781 512.886719 361.289062 513.105469 C 361.851562 511.015625 362.152344 508.972656 362.152344 507.019531 C 375.621094 473.070312 365.023438 445.691406 372.867188 418.941406 " fill-opacity="1" fill-rule="nonzero"/><path fill="#47536f" d="M 396.300781 376.179688 C 396.105469 376.445312 376.105469 402.835938 354.488281 407.257812 C 353.894531 407.382812 353.480469 407.914062 353.511719 408.523438 L 359.113281 512.8125 C 359.140625 513.289062 359.4375 513.707031 359.882812 513.886719 C 360.3125 514.054688 403.316406 530.675781 430.363281 508.886719 C 433.046875 506.730469 433.523438 492.140625 434.046875 456.828125 C 434.457031 428.761719 434.925781 396.929688 438.207031 384.492188 C 438.378906 383.84375 437.992188 383.171875 437.335938 383.003906 C 436.683594 382.824219 436.011719 383.21875 435.839844 383.871094 C 432.480469 396.601562 432.011719 428.582031 431.589844 456.796875 C 431.261719 479.28125 430.890625 504.769531 428.804688 507 C 404.722656 526.398438 367.054688 513.875 361.507812 511.882812 C 361.429688 510.320312 356.113281 411.3125 356.011719 409.386719 C 378.117188 404.1875 397.433594 378.75 398.261719 377.648438 C 398.425781 377.425781 398.503906 377.167969 398.503906 376.910156 C 398.503906 376.539062 398.332031 376.171875 398.015625 375.9375 C 397.472656 375.53125 396.707031 375.636719 396.300781 376.179688 " fill-opacity="1" fill-rule="nonzero"/><path fill="#bfcedc" d="M 389.335938 512.164062 C 388.519531 503.023438 383.429688 496 377.960938 496.484375 C 372.484375 496.964844 368.707031 504.777344 369.519531 513.914062 C 369.558594 514.367188 369.613281 514.804688 369.675781 515.242188 C 375.082031 517.300781 381.882812 518.394531 389.132812 518.585938 C 389.449219 516.589844 389.53125 514.417969 389.335938 512.164062 " fill-opacity="1" fill-rule="nonzero"/><path fill="#47536f" d="M 377.851562 495.261719 C 375.726562 495.449219 373.757812 496.566406 372.148438 498.480469 C 369.1875 502.015625 367.753906 507.832031 368.300781 514.027344 L 368.464844 515.410156 C 368.515625 515.863281 368.820312 516.21875 369.246094 516.382812 C 374.605469 518.429688 381.476562 519.605469 389.105469 519.808594 C 389.722656 519.824219 390.253906 519.382812 390.347656 518.773438 C 390.6875 516.609375 390.753906 514.355469 390.550781 512.066406 C 389.664062 502.085938 384.082031 494.710938 377.851562 495.261719 Z M 370.738281 513.816406 C 370.671875 513.035156 370.632812 512.253906 370.632812 511.488281 C 370.632812 506.875 371.871094 502.628906 374.027344 500.054688 C 375.210938 498.640625 376.605469 497.828125 378.0625 497.699219 C 382.769531 497.285156 387.375 503.953125 388.117188 512.277344 C 388.179688 513.0625 388.21875 513.839844 388.21875 514.609375 C 388.21875 515.523438 388.109375 516.410156 388.011719 517.292969 C 381.433594 517.035156 375.527344 516.011719 370.796875 514.320312 C 370.769531 514.074219 370.738281 513.816406 370.738281 513.816406 " fill-opacity="1" fill-rule="nonzero"/><path fill="#bfcedc" d="M 423.023438 507.25 C 422.210938 498.109375 417.113281 491.082031 411.640625 491.566406 C 406.171875 492.046875 402.398438 499.855469 403.214844 509.003906 C 403.492188 512.195312 404.445312 515.636719 405.601562 518.082031 C 411.824219 517.140625 417.941406 514.921875 422.894531 512.476562 C 423.113281 510.679688 423.199219 509.230469 423.023438 507.25 " fill-opacity="1" fill-rule="nonzero"/><path fill="#47536f" d="M 411.535156 490.351562 C 409.417969 490.539062 407.441406 491.652344 405.839844 493.566406 C 402.875 497.101562 401.441406 502.914062 401.992188 509.109375 C 402.273438 512.300781 403.226562 515.9375 404.496094 518.605469 C 404.730469 519.09375 405.253906 519.371094 405.785156 519.292969 C 413.011719 518.199219 419.371094 515.578125 423.425781 513.574219 C 423.800781 513.382812 424.050781 513.035156 424.105469 512.632812 C 424.324219 510.832031 424.429688 509.28125 424.246094 507.144531 C 423.355469 497.171875 417.773438 489.792969 411.535156 490.351562 Z M 404.429688 508.894531 C 404.363281 508.109375 404.328125 507.339844 404.328125 506.574219 C 404.328125 501.953125 405.554688 497.707031 407.714844 495.136719 C 408.898438 493.726562 410.285156 492.921875 411.75 492.785156 C 416.460938 492.363281 421.0625 499.042969 421.804688 507.359375 C 421.863281 508.046875 421.894531 508.671875 421.894531 509.265625 C 421.894531 510.082031 421.808594 510.847656 421.722656 511.636719 C 416.691406 514.046875 411.332031 515.785156 406.378906 516.636719 C 405.417969 514.320312 404.660156 511.488281 404.429688 508.894531 " fill-opacity="1" fill-rule="nonzero"/><path fill="#bfcedc" d="M 406.6875 510.996094 C 406.050781 501.835938 401.09375 494.714844 395.609375 495.097656 C 390.132812 495.476562 386.207031 503.207031 386.839844 512.363281 C 386.996094 514.671875 387.4375 516.839844 388.074219 518.796875 C 393.988281 519.128906 400.222656 518.847656 406.246094 517.988281 C 406.6875 515.835938 406.851562 513.480469 406.6875 510.996094 " fill-opacity="1" fill-rule="nonzero"/><path fill="#47536f" d="M 395.523438 493.871094 C 389.28125 494.308594 384.925781 502.464844 385.617188 512.449219 C 385.78125 514.804688 386.21875 517.082031 386.917969 519.183594 C 387.074219 519.660156 387.503906 519.984375 388.011719 520.019531 C 393.957031 520.351562 400.316406 520.070312 406.421875 519.195312 C 406.933594 519.128906 407.347656 518.734375 407.445312 518.226562 C 407.917969 515.882812 408.074219 513.421875 407.902344 510.910156 C 407.214844 500.929688 401.773438 493.445312 395.523438 493.871094 Z M 388.0625 512.277344 C 388.019531 511.679688 388.003906 511.082031 388.003906 510.488281 C 388.003906 502.933594 391.320312 496.617188 395.695312 496.316406 C 400.410156 495.996094 404.882812 502.753906 405.464844 511.082031 C 405.503906 511.6875 405.523438 512.292969 405.523438 512.890625 C 405.523438 514.238281 405.34375 515.554688 405.136719 516.835938 C 399.792969 517.542969 394.296875 517.832031 389.082031 517.601562 C 388.589844 515.910156 388.1875 514.15625 388.0625 512.277344 " fill-opacity="1" fill-rule="nonzero"/><path fill="#47536f" d="M 384.128906 438.636719 C 381.894531 445.527344 383.53125 455.207031 392.40625 460.164062 C 400.5625 464.714844 407.746094 461.121094 410.964844 455.851562 C 414.074219 450.769531 414.003906 443.472656 407.851562 439.371094 C 404.351562 437.03125 400.535156 436.699219 397.367188 438.464844 C 394.519531 440.042969 392.664062 443.0625 392.753906 445.980469 C 392.824219 448.222656 394.078125 450.085938 396.191406 451.097656 C 396.800781 451.382812 397.535156 451.128906 397.816406 450.523438 C 398.109375 449.90625 397.847656 449.175781 397.242188 448.894531 C 395.609375 448.113281 395.226562 446.835938 395.199219 445.902344 C 395.140625 443.914062 396.515625 441.734375 398.550781 440.605469 C 400.921875 439.285156 403.746094 439.570312 406.492188 441.402344 C 411.585938 444.796875 411.300781 450.609375 408.878906 454.574219 C 406.164062 459.015625 400.382812 461.8125 393.597656 458.027344 C 385.929688 453.746094 384.519531 445.367188 386.453125 439.390625 C 387.90625 434.910156 391.722656 430.40625 398.09375 431.152344 C 398.761719 431.234375 399.371094 430.753906 399.449219 430.082031 C 399.535156 429.40625 399.050781 428.800781 398.378906 428.722656 C 391.917969 427.960938 386.324219 431.851562 384.128906 438.636719 " fill-opacity="1" fill-rule="nonzero"/><path fill="#7d9fbd" d="M 363.382812 367.960938 L 274.652344 395.691406 C 274.652344 395.691406 291.785156 486.832031 291.785156 506.410156 C 291.785156 525.980469 340.105469 529.007812 362.769531 516.804688 C 368.078125 513.949219 360.523438 398.957031 363.382812 367.960938 " fill-opacity="1" fill-rule="nonzero"/><g clip-path="url(#33f5bf2c0e)"><path fill="#47536f" d="M 362.160156 367.851562 C 360.863281 381.960938 361.707031 413.292969 362.515625 443.59375 C 363.347656 474.457031 364.378906 512.875 362.042969 515.839844 C 345.535156 524.691406 314.191406 525.238281 300.074219 516.8125 C 295.386719 514.007812 293.011719 510.507812 293.011719 506.410156 C 293.011719 486.945312 276.554688 399.195312 275.855469 395.464844 C 275.726562 394.808594 275.089844 394.371094 274.425781 394.496094 C 273.765625 394.621094 273.324219 395.253906 273.449219 395.925781 C 273.621094 396.835938 290.5625 487.171875 290.5625 506.410156 C 290.5625 511.367188 293.417969 515.6875 298.820312 518.917969 C 313.800781 527.859375 345.769531 527.34375 363.347656 517.886719 C 366.421875 516.230469 366.453125 498.765625 364.964844 443.523438 C 364.152344 413.296875 363.308594 382.046875 364.597656 368.078125 C 364.660156 367.402344 364.167969 366.808594 363.496094 366.746094 C 362.820312 366.679688 362.222656 367.179688 362.160156 367.851562 " fill-opacity="1" fill-rule="nonzero"/></g><path fill="#47536f" d="M 316.457031 440.691406 C 314.03125 448.183594 315.8125 458.691406 325.445312 464.066406 C 334.285156 468.996094 342.066406 465.101562 345.550781 459.394531 C 348.917969 453.894531 348.84375 446 342.1875 441.554688 C 338.40625 439.035156 334.269531 438.679688 330.851562 440.574219 C 327.78125 442.277344 325.785156 445.539062 325.882812 448.679688 C 325.957031 451.089844 327.300781 453.089844 329.566406 454.167969 C 330.175781 454.453125 330.902344 454.199219 331.199219 453.585938 C 331.488281 452.980469 331.230469 452.246094 330.617188 451.957031 C 328.785156 451.085938 328.363281 449.644531 328.328125 448.601562 C 328.261719 446.386719 329.789062 443.96875 332.042969 442.714844 C 334.671875 441.257812 337.785156 441.570312 340.832031 443.59375 C 346.453125 447.335938 346.136719 453.746094 343.464844 458.121094 C 340.46875 463.019531 334.101562 466.097656 326.640625 461.933594 C 318.210938 457.226562 316.65625 448.015625 318.789062 441.453125 C 320.378906 436.523438 324.585938 431.558594 331.609375 432.382812 C 332.28125 432.460938 332.886719 431.980469 332.964844 431.3125 C 333.050781 430.636719 332.566406 430.035156 331.894531 429.953125 C 324.898438 429.132812 318.84375 433.351562 316.457031 440.691406 " fill-opacity="1" fill-rule="nonzero"/><path fill="#bfcedc" d="M 322.777344 517.429688 C 322.359375 508.253906 317.578125 501.019531 312.085938 501.265625 C 306.601562 501.511719 302.488281 509.148438 302.90625 518.316406 C 302.925781 518.769531 302.96875 519.210938 303.011719 519.652344 C 308.320312 521.941406 315.0625 523.335938 322.304688 523.835938 C 322.699219 521.84375 322.875 519.6875 322.777344 517.429688 " fill-opacity="1" fill-rule="nonzero"/><g clip-path="url(#061b64af31)"><path fill="#47536f" d="M 312.035156 500.042969 C 309.90625 500.144531 307.890625 501.164062 306.203125 503.019531 C 303.089844 506.414062 301.402344 512.160156 301.683594 518.378906 L 301.789062 519.757812 C 301.820312 520.214844 302.105469 520.59375 302.523438 520.777344 C 307.789062 523.042969 314.597656 524.523438 322.21875 525.050781 C 322.832031 525.097656 323.378906 524.671875 323.5 524.074219 C 323.9375 521.929688 324.101562 519.671875 324 517.367188 C 323.542969 507.371094 318.289062 499.765625 312.035156 500.042969 Z M 304.128906 518.265625 C 304.117188 517.871094 304.101562 517.472656 304.101562 517.082031 C 304.101562 512.019531 305.558594 507.339844 308.007812 504.664062 C 309.246094 503.304688 310.679688 502.546875 312.140625 502.488281 C 316.867188 502.277344 321.175781 509.140625 321.554688 517.480469 C 321.570312 517.878906 321.582031 518.285156 321.582031 518.679688 C 321.582031 519.984375 321.402344 521.242188 321.210938 522.492188 C 314.65625 521.949219 308.808594 520.667969 304.171875 518.777344 C 304.152344 518.53125 304.128906 518.265625 304.128906 518.265625 " fill-opacity="1" fill-rule="nonzero"/></g><path fill="#bfcedc" d="M 356.648438 513.980469 C 356.230469 504.800781 351.445312 497.566406 345.957031 497.8125 C 340.46875 498.054688 336.363281 505.691406 336.78125 514.871094 C 336.921875 518.066406 337.609375 521.015625 338.65625 523.515625 C 344.914062 522.839844 350.988281 521.542969 356.300781 519.636719 C 356.601562 517.863281 356.734375 515.957031 356.648438 513.980469 " fill-opacity="1" fill-rule="nonzero"/><path fill="#47536f" d="M 345.898438 496.589844 C 343.777344 496.683594 341.761719 497.714844 340.074219 499.554688 C 336.964844 502.964844 335.273438 508.710938 335.558594 514.925781 C 335.699219 518.132812 336.382812 521.269531 337.527344 523.984375 C 337.738281 524.480469 338.253906 524.785156 338.785156 524.730469 C 345.277344 524.035156 351.480469 522.667969 356.714844 520.796875 C 357.132812 520.640625 357.433594 520.28125 357.507812 519.84375 C 357.835938 517.898438 357.957031 515.910156 357.871094 513.914062 C 357.417969 503.917969 352.15625 496.3125 345.898438 496.589844 Z M 337.996094 514.808594 C 337.984375 514.414062 337.972656 514.011719 337.972656 513.625 C 337.972656 508.566406 339.429688 503.890625 341.878906 501.210938 C 343.113281 499.851562 344.546875 499.101562 346.011719 499.035156 C 350.734375 498.824219 355.046875 505.6875 355.421875 514.027344 C 355.441406 514.410156 355.453125 514.792969 355.453125 515.167969 C 355.453125 516.359375 355.316406 517.53125 355.152344 518.691406 C 350.515625 520.289062 345.160156 521.472656 339.503906 522.136719 C 338.671875 519.890625 338.117188 517.40625 337.996094 514.808594 " fill-opacity="1" fill-rule="nonzero"/><path fill="#bfcedc" d="M 340.234375 516.425781 C 339.820312 507.246094 335.039062 500.011719 329.546875 500.253906 C 324.058594 500.511719 319.953125 508.144531 320.363281 517.316406 C 320.472656 519.621094 320.851562 521.804688 321.449219 523.773438 C 327.347656 524.25 333.582031 524.117188 339.628906 523.398438 C 340.117188 521.265625 340.347656 518.898438 340.234375 516.425781 " fill-opacity="1" fill-rule="nonzero"/><g clip-path="url(#ec7868bb4c)"><path fill="#47536f" d="M 329.492188 499.035156 C 323.242188 499.3125 318.695312 507.371094 319.144531 517.367188 C 319.25 519.722656 319.632812 522 320.277344 524.128906 C 320.425781 524.605469 320.847656 524.957031 321.351562 524.988281 C 327.285156 525.46875 333.65625 525.335938 339.777344 524.617188 C 340.289062 524.558594 340.710938 524.175781 340.828125 523.679688 C 341.359375 521.328125 341.570312 518.871094 341.457031 516.363281 C 341.003906 506.371094 335.75 498.75 329.492188 499.035156 Z M 321.585938 517.261719 C 321.570312 516.867188 321.5625 516.476562 321.5625 516.089844 C 321.5625 508.253906 325.109375 501.679688 329.601562 501.476562 C 334.324219 501.265625 338.632812 508.132812 339.011719 516.476562 C 339.03125 516.875 339.042969 517.273438 339.042969 517.675781 C 339.042969 519.242188 338.816406 520.753906 338.539062 522.242188 C 333.183594 522.8125 327.6875 522.949219 322.480469 522.589844 C 322.03125 520.886719 321.675781 519.128906 321.585938 517.261719 " fill-opacity="1" fill-rule="nonzero"/></g><path fill="#7d9fbd" d="M 272.027344 105.871094 C 272.027344 105.871094 244.425781 68.710938 194.175781 83.207031 C 143.925781 97.707031 117.535156 162.800781 153.46875 210.066406 C 189.414062 257.316406 161.644531 288.570312 200.464844 299.914062 C 248.054688 313.820312 303.40625 163.550781 272.027344 105.871094 " fill-opacity="1" fill-rule="nonzero"/><path fill="#6a89ac" d="M 219.882812 288.847656 C 211.945312 295.699219 198.722656 289.027344 191.480469 282.5 C 172.546875 263.703125 184.894531 235.449219 166.355469 215.242188 C 155.0625 201.566406 145.945312 185.46875 144.210938 169.917969 C 142.21875 154.492188 142.890625 135.34375 148.570312 119.222656 C 132.855469 145.792969 131.550781 181.230469 153.46875 210.066406 C 189.414062 257.316406 161.644531 288.570312 200.464844 299.914062 C 219.589844 305.507812 239.972656 284.554688 255.472656 253.757812 C 248.730469 250.472656 242.367188 246.066406 236.53125 241.410156 C 228.75 256.292969 239.550781 268.664062 219.882812 288.847656 " fill-opacity="1" fill-rule="nonzero"/><path fill="#47536f" d="M 193.851562 82.089844 C 168.746094 89.339844 148.597656 109.21875 139.960938 135.269531 C 131.316406 161.359375 135.898438 188.875 152.542969 210.765625 C 169.183594 232.636719 172.007812 250.945312 174.277344 265.65625 C 176.886719 282.5625 178.769531 294.78125 200.136719 301.023438 C 212.585938 304.664062 226.207031 297.847656 239.539062 281.320312 C 255.917969 261.015625 270.074219 228.375 277.40625 194.007812 C 285.261719 157.179688 283.671875 124.855469 273.042969 105.3125 C 273.019531 105.265625 272.988281 105.21875 272.957031 105.175781 C 272.671875 104.796875 244.292969 67.546875 193.851562 82.089844 Z M 200.789062 298.800781 C 180.839844 292.972656 179.140625 281.960938 176.570312 265.300781 C 174.261719 250.332031 171.386719 231.703125 154.394531 209.359375 C 138.214844 188.089844 133.761719 161.351562 142.164062 136 C 150.5625 110.675781 170.125 91.351562 194.496094 84.324219 C 242.820312 70.382812 270.183594 105.367188 271.039062 106.488281 C 277.1875 117.835938 279.910156 133.121094 279.910156 150.167969 C 279.910156 194.265625 261.722656 250.121094 237.734375 279.863281 C 228.878906 290.84375 215.285156 303.03125 200.789062 298.800781 " fill-opacity="1" fill-rule="nonzero"/><path fill="#eedbe1" d="M 254.292969 137.714844 C 254.292969 137.714844 238.972656 104.515625 203.164062 109.082031 C 167.355469 113.65625 154.15625 167.371094 174.792969 201.476562 C 195.429688 235.585938 179.65625 272.429688 207.28125 277.296875 C 234.90625 282.148438 262.308594 197.285156 254.292969 137.714844 " fill-opacity="1" fill-rule="nonzero"/><path fill="#e8c6d7" d="M 254.292969 137.714844 C 254.292969 137.714844 249.0625 126.414062 237.601562 117.902344 C 242.894531 125.300781 244.5 134.621094 238.429688 140.191406 C 226.140625 151.871094 205.320312 145.355469 193.542969 169.914062 C 202.867188 163.445312 217.800781 162.652344 220.0625 170.816406 C 227.089844 199.90625 210.148438 207.703125 227.898438 243.585938 C 232.964844 253.839844 219.648438 272.121094 211.171875 271.929688 C 187.746094 271.421875 192.722656 218.019531 179.417969 200.765625 C 177.367188 197.933594 174.449219 195.925781 171.394531 195.027344 C 172.40625 197.226562 173.527344 199.390625 174.792969 201.476562 C 195.429688 235.585938 179.65625 272.429688 207.28125 277.296875 C 234.90625 282.148438 262.308594 197.285156 254.292969 137.714844 " fill-opacity="1" fill-rule="nonzero"/><path fill="#bb88a1" d="M 205.605469 159.070312 C 205.296875 159.320312 205.246094 159.785156 205.5 160.09375 C 205.75 160.410156 206.210938 160.449219 206.519531 160.207031 C 206.6875 160.066406 223.105469 147.046875 238.785156 154.953125 C 239.140625 155.132812 239.578125 154.984375 239.765625 154.628906 C 239.9375 154.273438 239.789062 153.835938 239.4375 153.660156 C 222.917969 145.316406 205.769531 158.929688 205.605469 159.070312 " fill-opacity="1" fill-rule="nonzero"/><path fill="#b4c7d8" d="M 240.835938 93.222656 C 240.140625 96.007812 234.6875 97.054688 228.664062 95.550781 C 222.640625 94.046875 218.328125 90.5625 219.027344 87.785156 C 219.71875 84.992188 225.171875 83.960938 231.191406 85.457031 C 237.203125 86.960938 241.523438 90.441406 240.835938 93.222656 " fill-opacity="1" fill-rule="nonzero"/><path fill="#7d9fbd" d="M 423.816406 106.027344 C 423.816406 106.027344 441.8125 63.386719 494.066406 65.542969 C 546.328125 67.703125 587.425781 124.664062 563.738281 179.117188 C 540.046875 233.550781 574.441406 257.3125 539.433594 277.535156 C 496.507812 302.347656 407.042969 169.511719 423.816406 106.027344 " fill-opacity="1" fill-rule="nonzero"/><path fill="#6a89ac" d="M 517.945312 271.417969 C 527.277344 276.1875 538.542969 266.566406 544.035156 258.507812 C 557.953125 235.742188 539.238281 211.230469 552.445312 187.199219 C 560.175781 171.238281 565.210938 153.433594 563.191406 137.910156 C 561.460938 122.460938 556.265625 104.023438 546.929688 89.710938 C 568.507812 111.777344 578.179688 145.90625 563.738281 179.117188 C 540.046875 233.550781 574.441406 257.3125 539.433594 277.535156 C 522.175781 287.523438 497.398438 271.996094 475.027344 245.761719 C 480.800781 240.964844 485.929688 235.1875 490.496094 229.28125 C 501.585938 241.882812 494.042969 256.472656 517.945312 271.417969 " fill-opacity="1" fill-rule="nonzero"/><g clip-path="url(#b3069c8343)"><path fill="#47536f" d="M 422.746094 105.574219 C 422.730469 105.625 422.710938 105.675781 422.695312 105.730469 C 417.011719 127.234375 423.15625 159.023438 439.539062 192.9375 C 454.828125 224.585938 476.335938 252.929688 497.074219 268.765625 C 513.941406 281.648438 528.792969 285.023438 540.007812 278.539062 C 559.277344 267.40625 558.207031 255.09375 556.726562 238.058594 C 555.4375 223.226562 553.835938 204.777344 564.800781 179.582031 C 575.769531 154.355469 573.691406 126.535156 559.097656 103.25 C 544.519531 79.992188 520.226562 65.460938 494.117188 64.382812 C 441.660156 62.21875 422.929688 105.140625 422.746094 105.574219 Z M 494.019531 66.703125 C 519.367188 67.75 542.960938 81.871094 557.132812 104.480469 C 571.3125 127.109375 573.335938 154.144531 562.671875 178.65625 C 551.472656 204.390625 553.105469 223.167969 554.414062 238.257812 C 555.875 255.046875 556.84375 266.136719 538.847656 276.535156 C 525.78125 284.085938 509.683594 275.480469 498.484375 266.921875 C 461.144531 238.417969 422.957031 169.5 422.957031 123.023438 C 422.957031 117.066406 423.589844 111.476562 424.929688 106.390625 C 425.476562 105.132812 443.742188 64.625 494.019531 66.703125 " fill-opacity="1" fill-rule="nonzero"/></g><path fill="#eedbe1" d="M 448.617188 132.753906 C 448.617188 132.753906 455.605469 96.878906 491.480469 92.8125 C 527.351562 88.753906 552.925781 137.796875 540.980469 175.832031 C 529.039062 213.867188 553.117188 245.917969 527.4375 257.195312 C 501.75 268.476562 454.988281 192.535156 448.617188 132.753906 " fill-opacity="1" fill-rule="nonzero"/><path fill="#e8c6d7" d="M 448.617188 132.753906 C 448.617188 132.753906 451.007812 120.535156 460.117188 109.558594 C 456.746094 117.996094 457.402344 127.441406 464.617188 131.398438 C 479.324219 139.828125 498 128.566406 515.273438 149.621094 C 504.679688 145.5625 489.984375 148.324219 489.730469 156.792969 C 489.8125 186.71875 508.125 190.273438 499.398438 229.335938 C 496.90625 240.507812 514.191406 255.105469 522.378906 252.910156 C 545.011719 246.851562 527.492188 196.164062 536.320312 176.234375 C 537.644531 173.003906 539.992188 170.359375 542.75 168.753906 C 542.304688 171.136719 541.707031 173.503906 540.980469 175.832031 C 529.039062 213.867188 553.117188 245.917969 527.4375 257.195312 C 501.75 268.476562 454.988281 192.535156 448.617188 132.753906 " fill-opacity="1" fill-rule="nonzero"/><path fill="#bb88a1" d="M 500.984375 141.953125 C 501.34375 142.128906 501.496094 142.558594 501.324219 142.917969 C 501.160156 143.285156 500.726562 143.433594 500.355469 143.277344 C 500.167969 143.179688 481.125 134.425781 467.765625 145.828125 C 467.46875 146.078125 467.011719 146.046875 466.75 145.742188 C 466.484375 145.441406 466.527344 144.988281 466.832031 144.722656 C 480.898438 132.699219 500.78125 141.863281 500.984375 141.953125 " fill-opacity="1" fill-rule="nonzero"/><path fill="#b4c7d8" d="M 451.121094 86.351562 C 452.476562 88.890625 458 88.609375 463.496094 85.71875 C 468.992188 82.828125 472.359375 78.421875 471.015625 75.882812 C 469.683594 73.347656 464.132812 73.625 458.648438 76.519531 C 453.160156 79.40625 449.777344 83.808594 451.121094 86.351562 " fill-opacity="1" fill-rule="nonzero"/><path fill="#7d9fbd" d="M 245.238281 155.023438 C 245.238281 155.023438 203.984375 260.707031 251.332031 313.164062 C 296.828125 363.566406 430.601562 361.503906 472.722656 320.734375 C 514.839844 279.960938 490.664062 154.234375 444.109375 101.753906 C 397.558594 49.277344 283.617188 51.019531 245.238281 155.023438 " fill-opacity="1" fill-rule="nonzero"/><path fill="#6a89ac" d="M 490.800781 285.59375 C 490.382812 286.332031 489.941406 287.0625 489.460938 287.726562 C 481.109375 294.582031 470.367188 280.386719 462.003906 285.546875 C 453.628906 290.722656 455.871094 300.816406 449.144531 302.589844 C 435.714844 307.828125 425.371094 291.929688 413.441406 283.660156 C 410.050781 282.019531 408.402344 285.402344 406.71875 285.429688 C 420.433594 302.121094 415.710938 327.488281 437.785156 337.332031 C 439.394531 337.835938 441.023438 338.277344 442.65625 338.695312 C 454.894531 333.96875 465.253906 327.964844 472.722656 320.734375 C 481.492188 312.242188 487.382812 300.042969 490.800781 285.59375 " fill-opacity="1" fill-rule="nonzero"/><path fill="#6a89ac" d="M 351.769531 329.160156 C 332.199219 331.59375 293.800781 336.164062 271.808594 321.214844 C 242.757812 298.597656 232.757812 261.726562 229.195312 227.03125 C 226.855469 257.066406 230.613281 290.207031 251.332031 313.164062 C 293.792969 360.195312 413.125 361.53125 463.113281 328.371094 C 422.589844 328.394531 390.296875 324.527344 351.769531 329.160156 " fill-opacity="1" fill-rule="nonzero"/><path fill="#47536f" d="M 339.980469 68.828125 C 314.222656 73.667969 267.535156 91.257812 244.152344 154.621094 C 243.828125 155.453125 227.582031 197.960938 227.582031 242.351562 C 227.582031 268.199219 233.09375 294.6875 250.46875 313.941406 C 270.640625 336.289062 311.042969 350.578125 358.542969 352.179688 C 407.476562 353.832031 452.609375 341.808594 473.527344 321.558594 C 493.195312 302.527344 500.222656 263.851562 492.816406 215.460938 C 485.902344 170.320312 467.570312 126.457031 444.976562 100.988281 C 421.003906 73.964844 379.792969 61.339844 339.980469 68.828125 Z M 358.621094 349.863281 C 311.734375 348.285156 271.949219 334.277344 252.195312 312.390625 C 205.871094 261.066406 245.90625 156.492188 246.316406 155.445312 C 246.320312 155.4375 246.324219 155.429688 246.324219 155.425781 C 269.3125 93.132812 315.136719 75.859375 340.410156 71.105469 C 379.4375 63.765625 419.800781 76.097656 443.242188 102.527344 C 465.554688 127.679688 483.675781 171.085938 490.523438 215.808594 C 497.820312 263.449219 491.035156 301.390625 471.917969 319.898438 C 451.429688 339.730469 406.957031 351.488281 358.621094 349.863281 Z M 244.152344 154.621094 C 244.152344 154.621094 244.15625 154.601562 244.15625 154.601562 C 244.15625 154.613281 244.152344 154.613281 244.152344 154.621094 " fill-opacity="1" fill-rule="nonzero"/><path fill="#47536f" d="M 408.890625 83.855469 C 403.785156 76.964844 391.214844 71.300781 379.023438 73.742188 C 378.4375 73.875 378.046875 74.4375 378.175781 75.023438 C 378.292969 75.613281 378.867188 75.996094 379.445312 75.875 C 390.796875 73.601562 402.4375 78.804688 407.136719 85.152344 C 408.765625 87.34375 410.316406 90.660156 408.492188 94.046875 C 407.574219 95.773438 406.191406 96.871094 404.289062 97.414062 C 397.558594 99.339844 387.09375 93.433594 386.976562 93.375 C 386.796875 93.269531 386.589844 93.246094 386.390625 93.25 C 381.234375 91.082031 376.257812 89.945312 375.875 89.863281 C 375.289062 89.726562 374.710938 90.09375 374.585938 90.683594 C 374.449219 91.265625 374.816406 91.859375 375.398438 91.980469 C 375.566406 92.019531 392.070312 95.765625 395.4375 102.363281 C 396.136719 103.726562 396.171875 105.097656 395.539062 106.546875 C 394.828125 108.222656 393.667969 109.277344 392.015625 109.777344 C 385.421875 111.816406 373.8125 104.53125 373.695312 104.460938 C 373.1875 104.144531 372.507812 104.292969 372.179688 104.804688 C 371.863281 105.304688 372.019531 105.972656 372.515625 106.304688 C 373.035156 106.621094 385.113281 114.191406 392.65625 111.863281 C 394.933594 111.160156 396.574219 109.667969 397.542969 107.410156 C 398.433594 105.363281 398.371094 103.320312 397.375 101.371094 C 396.992188 100.613281 396.445312 99.910156 395.835938 99.234375 C 398.839844 99.976562 402.085938 100.308594 404.890625 99.507812 C 407.351562 98.804688 409.214844 97.3125 410.417969 95.085938 C 412.253906 91.652344 411.710938 87.667969 408.890625 83.855469 " fill-opacity="1" fill-rule="nonzero"/><path fill="#7d9fbd" d="M 497.160156 304.476562 C 495.207031 293.613281 480.382812 298.523438 480.382812 298.523438 C 480.382812 298.523438 476.914062 282.960938 464.261719 287.117188 C 451.605469 291.269531 464.488281 304.179688 464.488281 304.179688 C 464.488281 304.179688 432.480469 314.21875 419.652344 291.699219 C 407.257812 269.921875 391.269531 259.035156 365.4375 282.601562 L 355.382812 332.636719 C 379.953125 365.171875 457.71875 370.503906 485.296875 313.523438 C 485.296875 313.523438 499.121094 315.335938 497.160156 304.476562 " fill-opacity="1" fill-rule="nonzero"/><path fill="#9fb7cf" d="M 403.386719 288.84375 C 396.679688 292.3125 390 297.460938 385.023438 304.273438 C 395.0625 297.394531 408.46875 290.46875 415.308594 297.132812 C 428.964844 308.761719 449.375 320.3125 466.09375 308.28125 C 471.09375 303.144531 457.507812 296.574219 464.207031 293.109375 C 467.785156 290.667969 473.097656 290.773438 477.710938 292.210938 C 475.34375 288.472656 471.179688 284.84375 464.261719 287.117188 C 451.605469 291.269531 464.488281 304.179688 464.488281 304.179688 C 464.488281 304.179688 432.480469 314.21875 419.652344 291.699219 C 408.476562 272.058594 394.382812 261.300781 372.785156 276.628906 C 383.898438 274.605469 395.199219 279.738281 403.386719 288.84375 " fill-opacity="1" fill-rule="nonzero"/><path fill="#6a89ac" d="M 473.273438 309.863281 C 479.972656 322.84375 462.421875 333.695312 453.765625 338.152344 C 429.960938 351.539062 386.070312 360.742188 357 324.554688 L 355.382812 332.636719 C 379.953125 365.171875 457.71875 370.503906 485.296875 313.523438 C 485.296875 313.523438 493.703125 314.597656 496.46875 309.914062 C 488.804688 315.65625 481.050781 313.628906 473.273438 309.863281 " fill-opacity="1" fill-rule="nonzero"/><path fill="#47536f" d="M 498.304688 304.273438 C 497.777344 301.347656 496.359375 299.183594 494.082031 297.832031 C 489.761719 295.261719 483.671875 296.453125 481.1875 297.101562 C 480.464844 294.730469 478.375 289.28125 473.769531 286.667969 C 470.886719 285.03125 467.566406 284.816406 463.898438 286.015625 C 460.421875 287.164062 458.34375 289.050781 457.71875 291.648438 C 457.59375 292.183594 457.539062 292.726562 457.539062 293.28125 C 457.539062 297.246094 460.558594 301.402344 462.359375 303.539062 C 455.644531 305.171875 431.199219 309.621094 420.660156 291.125 C 412.804688 277.328125 404.515625 269.917969 395.316406 268.460938 C 386.710938 267.097656 377.417969 270.789062 366.972656 279.699219 C 366.429688 280.671875 367.199219 281.703125 368 281.894531 C 378.09375 273.148438 386.933594 269.488281 394.953125 270.75 C 403.414062 272.089844 411.164062 279.128906 418.644531 292.273438 C 431.785156 315.335938 464.507812 305.386719 464.839844 305.28125 C 465.222656 305.160156 465.515625 304.847656 465.617188 304.457031 C 465.710938 304.0625 465.597656 303.648438 465.3125 303.359375 C 463.511719 301.554688 459.058594 296.035156 459.980469 292.183594 C 460.398438 290.429688 461.964844 289.097656 464.625 288.21875 C 467.640625 287.226562 470.328125 287.382812 472.613281 288.679688 C 477.558594 291.480469 479.230469 298.703125 479.253906 298.777344 C 479.324219 299.097656 479.527344 299.371094 479.808594 299.535156 C 480.097656 299.695312 480.4375 299.726562 480.746094 299.625 C 480.824219 299.601562 488.410156 297.152344 492.902344 299.824219 C 494.589844 300.832031 495.609375 302.421875 496.019531 304.683594 L 496.019531 304.6875 C 496.457031 307.105469 496.078125 308.90625 494.859375 310.179688 C 492.011719 313.179688 485.511719 312.378906 485.449219 312.371094 C 484.957031 312.308594 484.472656 312.570312 484.257812 313.019531 C 472.59375 337.109375 449.886719 352.507812 421.976562 355.253906 C 395.476562 357.863281 369.363281 348.671875 356.703125 332.390625 C 356.082031 332.886719 355.460938 333.363281 354.835938 333.800781 C 367.96875 350.703125 394.925781 360.246094 422.203125 357.566406 C 450.652344 354.761719 473.8125 339.152344 485.933594 314.742188 C 487.984375 314.886719 493.519531 314.957031 496.535156 311.789062 C 497.851562 310.40625 498.511719 308.628906 498.511719 306.480469 C 498.511719 305.785156 498.4375 305.050781 498.304688 304.273438 " fill-opacity="1" fill-rule="nonzero"/><path fill="#527494" d="M 473.828125 302.28125 C 478.996094 306.035156 486.015625 303.957031 489.796875 299.058594 C 484.8125 297.183594 478.074219 299.394531 478.074219 299.394531 C 478.074219 299.394531 477.921875 295.425781 473.910156 291.871094 C 470.335938 296.605469 472.214844 299.15625 473.828125 302.28125 " fill-opacity="1" fill-rule="nonzero"/><path fill="#dbdde1" d="M 350.582031 312.917969 C 344.523438 309.414062 339.769531 301.972656 336.269531 301.488281 C 326.636719 300.167969 316.15625 318.09375 330.804688 327.339844 C 345.449219 336.582031 371.878906 331.335938 372.90625 326.234375 C 373.558594 322.996094 361.25 319.09375 350.582031 312.917969 " fill-opacity="1" fill-rule="nonzero"/><path fill="#b6bac1" d="M 329.359375 303.628906 C 322.984375 308.515625 319.785156 320.371094 330.804688 327.339844 C 345.449219 336.582031 371.878906 331.335938 372.90625 326.234375 C 372.917969 326.21875 372.902344 326.191406 372.902344 326.175781 C 361.394531 329.304688 321.910156 327.453125 329.359375 303.628906 " fill-opacity="1" fill-rule="nonzero"/><path fill="#61696d" d="M 323.308594 310.03125 C 320.707031 317.152344 323.269531 324.003906 330.160156 328.355469 C 341.722656 335.644531 360.703125 334.296875 369.402344 330.570312 C 372.203125 329.371094 373.777344 328 374.085938 326.476562 C 374.6875 323.46875 370.085938 321.273438 362.460938 317.644531 C 358.9375 315.964844 354.945312 314.054688 351.1875 311.878906 C 348.421875 310.28125 345.878906 307.761719 343.628906 305.535156 C 340.851562 302.78125 338.660156 300.605469 336.433594 300.300781 C 331.234375 299.585938 325.589844 303.773438 323.308594 310.03125 Z M 331.445312 326.328125 C 325.578125 322.621094 323.375 316.835938 325.5625 310.855469 C 327.433594 305.714844 332.066406 302.125 336.105469 302.679688 C 337.539062 302.875 339.679688 304.996094 341.941406 307.242188 C 344.292969 309.566406 346.953125 312.207031 349.984375 313.957031 C 353.828125 316.179688 357.867188 318.109375 361.429688 319.804688 C 365.625 321.804688 371.96875 324.832031 371.730469 326.003906 C 371.632812 326.488281 370.71875 327.402344 368.460938 328.367188 C 360.234375 331.886719 342.316406 333.1875 331.445312 326.328125 " fill-opacity="1" fill-rule="nonzero"/><path fill="#47536f" d="M 411.648438 180.375 C 415.480469 187.808594 421.042969 176.992188 428.316406 178.71875 C 435.613281 180.433594 437.835938 183.675781 439.621094 182.199219 C 441.425781 180.71875 435.613281 173.539062 425.835938 171.804688 C 418.328125 170.476562 409.03125 175.335938 411.648438 180.375 " fill-opacity="1" fill-rule="nonzero"/><path fill="#47536f" d="M 319.394531 186.226562 C 316.132812 193.910156 309.777344 183.546875 302.652344 185.804688 C 295.503906 188.054688 293.539062 191.453125 291.636719 190.105469 C 289.722656 188.777344 294.992188 181.179688 304.617188 178.726562 C 312.003906 176.835938 321.636719 180.996094 319.394531 186.226562 " fill-opacity="1" fill-rule="nonzero"/><path fill="#262221" d="M 316.898438 257.894531 C 316.972656 263.46875 312.496094 268.0625 306.910156 268.125 C 301.3125 268.203125 296.726562 263.742188 296.652344 258.160156 C 296.582031 252.578125 301.050781 248.003906 306.644531 247.933594 C 312.234375 247.859375 316.835938 252.324219 316.898438 257.894531 " fill-opacity="1" fill-rule="nonzero"/><path fill="#ffffff" d="M 312.992188 254.597656 C 313.015625 256.550781 311.453125 258.152344 309.507812 258.167969 C 307.550781 258.199219 305.941406 256.636719 305.917969 254.691406 C 305.890625 252.742188 307.449219 251.144531 309.414062 251.117188 C 311.363281 251.089844 312.960938 252.648438 312.992188 254.597656 " fill-opacity="1" fill-rule="nonzero"/><path fill="#262221" d="M 439.355469 253.0625 C 439.414062 258.648438 434.953125 263.21875 429.363281 263.289062 C 423.769531 263.375 419.160156 258.914062 419.101562 253.320312 C 419.027344 247.75 423.511719 243.167969 429.097656 243.09375 C 434.691406 243.027344 439.285156 247.484375 439.355469 253.0625 " fill-opacity="1" fill-rule="nonzero"/><path fill="#ffffff" d="M 435.4375 249.773438 C 435.464844 251.714844 433.90625 253.320312 431.953125 253.335938 C 429.996094 253.367188 428.390625 251.804688 428.363281 249.855469 C 428.34375 247.90625 429.898438 246.308594 431.859375 246.289062 C 433.816406 246.257812 435.414062 247.8125 435.4375 249.773438 " fill-opacity="1" fill-rule="nonzero"/><path fill="#efacd2" d="M 298.039062 273.621094 C 298.722656 277.882812 292.582031 282.425781 284.3125 283.785156 C 276.035156 285.128906 268.761719 282.761719 268.066406 278.488281 C 267.371094 274.238281 273.523438 269.6875 281.792969 268.347656 C 290.070312 266.992188 297.339844 269.363281 298.039062 273.621094 " fill-opacity="1" fill-rule="nonzero"/><path fill="#efacd2" d="M 474.503906 268.320312 C 474.371094 272.640625 467.453125 275.925781 459.089844 275.671875 C 450.707031 275.402344 444.015625 271.691406 444.164062 267.367188 C 444.292969 263.070312 451.195312 259.773438 459.5625 260.039062 C 467.957031 260.300781 474.644531 264.003906 474.503906 268.320312 " fill-opacity="1" fill-rule="nonzero"/><path fill="#47536f" d="M 235.980469 416.773438 C 240.726562 415.664062 252.636719 415.15625 258.179688 420.304688 C 258.179688 420.304688 258.566406 422.371094 255.730469 421.464844 C 252.894531 420.5625 245.699219 415.972656 229.707031 420.976562 C 229.707031 420.976562 231.832031 417.738281 235.980469 416.773438 " fill-opacity="1" fill-rule="nonzero"/><path fill="#47536f" d="M 480.464844 416.773438 C 475.59375 415.664062 463.359375 415.15625 457.667969 420.304688 C 457.667969 420.304688 457.273438 422.371094 460.183594 421.464844 C 463.09375 420.5625 470.484375 415.972656 486.910156 420.976562 C 486.910156 420.976562 484.730469 417.738281 480.464844 416.773438 " fill-opacity="1" fill-rule="nonzero"/></svg>