<svg xmlns="http://www.w3.org/2000/svg" xmlns:xlink="http://www.w3.org/1999/xlink" width="940" zoomAndPan="magnify" viewBox="0 0 705 591.000005" height="788" preserveAspectRatio="xMidYMid meet" version="1.0"><defs><clipPath id="6484ba7da8"><path d="M 152.628906 75 L 552.449219 75 L 552.449219 516.011719 L 152.628906 516.011719 Z M 152.628906 75 " clip-rule="nonzero"/></clipPath><clipPath id="04eb76225f"><path d="M 152.628906 181 L 552.449219 181 L 552.449219 490 L 152.628906 490 Z M 152.628906 181 " clip-rule="nonzero"/></clipPath></defs><g clip-path="url(#6484ba7da8)"><path fill="#c9552d" d="M 552.441406 316.027344 C 552.441406 390.082031 512.210938 454.632812 452.492188 489.210938 C 423.109375 506.214844 388.929688 516.011719 352.539062 516.011719 C 316.148438 516.011719 281.96875 506.308594 252.585938 489.210938 C 192.867188 454.726562 152.636719 390.082031 152.636719 316.027344 C 152.636719 264.15625 172.414062 216.898438 204.773438 181.359375 L 204.867188 181.359375 C 218.695312 166.183594 234.824219 153.214844 252.683594 142.839844 C 254.890625 141.496094 257.195312 140.246094 259.5 139.09375 L 213.222656 92.890625 C 209.1875 88.859375 209.1875 82.328125 213.222656 78.292969 C 217.253906 74.257812 223.78125 74.257812 227.816406 78.292969 L 279.472656 129.96875 C 302.132812 121.035156 326.808594 116.136719 352.539062 116.136719 C 375.199219 116.136719 396.992188 119.882812 417.253906 126.894531 L 465.835938 78.292969 C 469.871094 74.257812 476.398438 74.257812 480.429688 78.292969 C 484.464844 82.328125 484.464844 88.859375 480.429688 92.890625 L 438.089844 135.253906 C 442.984375 137.558594 447.785156 140.152344 452.492188 142.839844 C 470.351562 153.214844 486.480469 166.183594 500.210938 181.359375 C 500.210938 181.359375 500.210938 181.359375 500.113281 181.453125 C 505.203125 187.023438 509.90625 192.789062 514.324219 198.9375 C 519.605469 206.234375 524.503906 213.921875 528.726562 221.988281 C 528.726562 221.988281 528.726562 222.085938 528.726562 222.085938 C 529.398438 223.429688 530.070312 224.679688 530.742188 226.023438 C 531.414062 227.367188 532.085938 228.710938 532.757812 230.058594 C 532.855469 230.152344 532.855469 230.25 532.953125 230.347656 C 533.527344 231.59375 534.105469 232.84375 534.679688 234.1875 C 534.679688 234.285156 534.777344 234.378906 534.777344 234.476562 C 535.351562 235.820312 535.929688 237.070312 536.503906 238.414062 C 536.503906 238.511719 536.601562 238.605469 536.601562 238.703125 C 537.175781 240.046875 537.65625 241.296875 538.234375 242.640625 C 538.328125 242.832031 538.328125 243.023438 538.425781 243.121094 C 538.90625 244.371094 539.382812 245.617188 539.863281 246.867188 C 539.863281 246.964844 539.960938 247.058594 539.960938 247.058594 C 540.441406 248.402344 540.921875 249.75 541.402344 251.191406 C 541.402344 251.285156 541.496094 251.476562 541.496094 251.574219 C 541.976562 252.917969 542.359375 254.261719 542.839844 255.609375 C 542.9375 255.800781 542.9375 256.089844 543.035156 256.28125 C 543.417969 257.527344 543.800781 258.777344 544.183594 260.027344 C 544.28125 260.316406 544.378906 260.601562 544.472656 260.890625 C 544.859375 262.042969 545.144531 263.292969 545.433594 264.445312 C 545.53125 264.734375 545.625 265.117188 545.625 265.40625 C 545.914062 266.558594 546.203125 267.808594 546.488281 268.960938 C 546.585938 269.34375 546.683594 269.632812 546.777344 270.015625 C 547.066406 271.167969 547.355469 272.320312 547.546875 273.472656 C 547.640625 273.859375 547.640625 274.144531 547.738281 274.53125 C 548.027344 275.683594 548.21875 276.933594 548.507812 278.085938 C 548.601562 278.46875 548.601562 278.851562 548.699219 279.140625 C 548.890625 280.292969 549.179688 281.445312 549.371094 282.695312 C 549.464844 283.175781 549.464844 283.558594 549.5625 284.039062 C 549.753906 285.191406 549.945312 286.25 550.042969 287.402344 C 550.136719 287.882812 550.136719 288.265625 550.234375 288.746094 C 550.425781 289.898438 550.523438 290.957031 550.714844 292.109375 C 550.8125 292.683594 550.8125 293.261719 550.90625 293.835938 C 551.003906 294.796875 551.097656 295.855469 551.195312 296.816406 C 551.289062 297.488281 551.289062 298.160156 551.386719 298.734375 C 551.484375 299.695312 551.578125 300.5625 551.578125 301.523438 C 551.675781 302.675781 551.675781 303.730469 551.769531 304.882812 C 551.769531 305.363281 551.867188 305.84375 551.867188 306.324219 C 551.960938 307.476562 551.960938 308.628906 551.960938 309.78125 C 551.960938 310.261719 551.960938 310.648438 551.960938 311.128906 C 552.441406 312.761719 552.441406 314.394531 552.441406 316.027344 Z M 552.441406 316.027344 " fill-opacity="1" fill-rule="nonzero"/></g><g clip-path="url(#04eb76225f)"><path fill="#f5692d" d="M 552.441406 316.027344 C 552.441406 390.082031 512.210938 454.632812 452.492188 489.210938 C 392.769531 454.632812 352.539062 389.988281 352.539062 316.027344 C 352.539062 291.4375 356.957031 267.902344 365.019531 246.195312 C 418.5 242.929688 466.316406 218.53125 500.210938 181.359375 C 532.664062 216.898438 552.441406 264.15625 552.441406 316.027344 Z M 339.960938 246.195312 C 286.480469 242.929688 238.664062 218.53125 204.773438 181.359375 C 172.414062 216.898438 152.636719 264.15625 152.636719 316.027344 C 152.636719 390.082031 192.867188 454.726562 252.585938 489.210938 C 312.308594 454.632812 352.539062 389.988281 352.539062 316.027344 C 352.539062 291.53125 348.121094 268 339.960938 246.195312 Z M 339.960938 246.195312 " fill-opacity="1" fill-rule="nonzero"/></g><path fill="#55697d" d="M 500.210938 181.359375 C 466.316406 218.628906 418.5 242.929688 365.019531 246.195312 C 360.890625 246.484375 356.667969 246.578125 352.539062 246.578125 C 348.410156 246.578125 344.1875 246.484375 340.058594 246.195312 C 286.578125 242.929688 238.761719 218.53125 204.867188 181.359375 C 218.695312 166.183594 234.824219 153.214844 252.683594 142.839844 C 254.890625 141.496094 257.195312 140.246094 259.5 139.09375 L 213.222656 92.890625 C 209.1875 88.859375 209.1875 82.328125 213.222656 78.292969 C 217.253906 74.257812 223.78125 74.257812 227.816406 78.292969 L 279.472656 129.96875 C 302.132812 121.035156 326.808594 116.136719 352.539062 116.136719 C 375.199219 116.136719 396.992188 119.882812 417.253906 126.894531 L 465.835938 78.292969 C 469.871094 74.257812 476.398438 74.257812 480.429688 78.292969 C 484.464844 82.328125 484.464844 88.859375 480.429688 92.890625 L 438.089844 135.253906 C 442.984375 137.558594 447.785156 140.152344 452.492188 142.839844 C 470.351562 153.214844 486.480469 166.183594 500.210938 181.359375 Z M 532.855469 365.972656 C 532.855469 379.804688 521.71875 390.949219 507.890625 390.949219 C 494.066406 390.949219 482.925781 379.804688 482.925781 365.972656 C 482.925781 352.140625 494.066406 341 507.890625 341 C 521.621094 341 532.855469 352.238281 532.855469 365.972656 Z M 500.210938 256.570312 C 500.210938 270.398438 489.074219 281.542969 475.246094 281.542969 C 461.421875 281.542969 450.28125 270.398438 450.28125 256.570312 C 450.28125 242.738281 461.421875 231.59375 475.246094 231.59375 C 488.976562 231.5 500.210938 242.738281 500.210938 256.570312 Z M 432.902344 341 C 432.902344 354.832031 421.765625 365.972656 407.941406 365.972656 C 394.113281 365.972656 382.976562 354.832031 382.976562 341 C 382.976562 327.167969 394.113281 316.027344 407.941406 316.027344 C 421.765625 316.027344 432.902344 327.167969 432.902344 341 Z M 254.796875 258.394531 C 254.796875 272.226562 243.65625 283.367188 229.832031 283.367188 C 216.003906 283.367188 204.867188 272.226562 204.867188 258.394531 C 204.867188 244.5625 216.003906 233.417969 229.832031 233.417969 C 243.65625 233.417969 254.796875 244.65625 254.796875 258.394531 Z M 222.917969 373.660156 C 222.917969 387.488281 211.78125 398.632812 197.953125 398.632812 C 184.128906 398.632812 172.992188 387.488281 172.992188 373.660156 C 172.992188 359.828125 184.128906 348.683594 197.953125 348.683594 C 211.78125 348.683594 222.917969 359.828125 222.917969 373.660156 Z M 322.871094 341 C 322.871094 354.832031 311.734375 365.972656 297.90625 365.972656 C 284.082031 365.972656 272.941406 354.832031 272.941406 341 C 272.941406 327.167969 284.082031 316.027344 297.90625 316.027344 C 311.734375 316.027344 322.871094 327.167969 322.871094 341 Z M 322.871094 341 " fill-opacity="1" fill-rule="nonzero"/></svg>