<svg xmlns="http://www.w3.org/2000/svg" xmlns:xlink="http://www.w3.org/1999/xlink" width="940" zoomAndPan="magnify" viewBox="0 0 705 591.000005" height="788" preserveAspectRatio="xMidYMid meet" version="1.0"><defs><clipPath id="0a5fcba6d8"><path d="M 251 148 L 645.105469 148 L 645.105469 402 L 251 402 Z M 251 148 " clip-rule="nonzero"/></clipPath></defs><path fill="#297881" d="M 506.417969 176.957031 C 505.378906 179.109375 516.140625 182.164062 522.949219 183.691406 C 519.890625 185.355469 517.042969 187.367188 514.40625 189.867188 C 504.542969 199.238281 498.640625 212.566406 496.347656 226.378906 C 495.375 227.003906 494.265625 227.492188 493.085938 227.699219 C 485.445312 229.15625 482.460938 220.964844 482.460938 220.964844 C 482.460938 220.964844 483.152344 232.558594 475.722656 232.765625 C 468.363281 232.972656 464.679688 222.421875 464.679688 222.421875 C 464.679688 222.421875 464.957031 233.253906 456.070312 235.75 C 447.179688 238.25 446 227.074219 446 227.074219 C 446 227.074219 444.886719 235.75 436.972656 237.070312 C 435.027344 237.347656 433.429688 237 432.039062 236.304688 C 431.972656 236.238281 431.832031 236.167969 431.761719 236.167969 C 431.554688 236.027344 431.347656 235.890625 431.136719 235.75 C 431.070312 235.679688 430.929688 235.613281 430.859375 235.542969 C 430.652344 235.402344 430.511719 235.265625 430.304688 235.125 C 430.234375 235.058594 430.164062 234.988281 430.027344 234.917969 C 429.820312 234.710938 429.609375 234.5 429.472656 234.363281 C 429.402344 234.292969 429.402344 234.292969 429.332031 234.222656 C 429.125 233.945312 428.914062 233.738281 428.707031 233.460938 C 428.636719 233.390625 428.636719 233.320312 428.570312 233.253906 C 428.429688 233.042969 428.289062 232.90625 428.152344 232.695312 C 428.082031 232.628906 428.011719 232.488281 428.011719 232.417969 C 427.945312 232.28125 427.804688 232.070312 427.734375 231.933594 C 427.664062 231.863281 427.664062 231.726562 427.597656 231.65625 C 427.527344 231.449219 427.386719 231.308594 427.320312 231.101562 C 427.320312 231.03125 427.25 230.960938 427.25 230.890625 C 427.109375 230.683594 427.039062 230.476562 426.972656 230.265625 C 426.972656 230.199219 426.972656 230.199219 426.902344 230.128906 C 426.832031 229.988281 426.761719 229.851562 426.695312 229.710938 C 426.695312 229.640625 426.625 229.574219 426.625 229.574219 C 426.554688 229.433594 426.554688 229.363281 426.554688 229.296875 C 426.554688 229.226562 426.554688 229.226562 426.484375 229.15625 C 426.484375 229.085938 426.414062 229.019531 426.414062 228.949219 C 426.414062 228.949219 426.414062 228.878906 426.414062 228.878906 C 426.414062 228.808594 426.414062 228.808594 426.414062 228.808594 C 426.414062 228.808594 424.75 238.804688 416.136719 238.875 C 407.527344 238.945312 406.832031 230.40625 406.832031 230.40625 C 406.832031 230.40625 404.054688 239.570312 395.582031 243.039062 C 390.304688 245.191406 383.21875 241.789062 378.636719 238.875 C 376.761719 241.859375 374.816406 244.773438 372.59375 247.621094 C 371.207031 249.496094 369.746094 251.371094 368.359375 253.382812 C 366.34375 253.175781 364.328125 252.964844 362.316406 252.6875 C 360.441406 247.898438 362.800781 240.886719 362.800781 240.886719 C 362.800781 240.886719 355.855469 245.398438 349.886719 240.886719 C 343.914062 236.375 349.886719 225.753906 349.886719 225.753906 C 349.886719 225.753906 339.882812 227.003906 338.632812 221.242188 C 337.382812 215.550781 346.414062 207.359375 346.414062 207.359375 C 346.414062 207.359375 334.535156 204.515625 335.371094 197.921875 C 336.203125 191.394531 346.414062 189.3125 346.414062 189.3125 C 346.414062 189.3125 338.21875 185.21875 340.300781 174.734375 C 340.789062 172.097656 342.59375 170.363281 344.882812 169.25 C 365.648438 179.039062 383.84375 189.171875 391.621094 196.671875 C 392.941406 197.988281 394.609375 199.726562 396.34375 201.738281 C 402.386719 187.160156 408.011719 174.109375 417.386719 165.988281 C 435.164062 150.648438 453.570312 151.273438 473.847656 153.703125 C 493.847656 156.132812 506.140625 160.921875 524.195312 158.699219 C 526.28125 160.4375 528.015625 162.519531 528.15625 164.738281 C 528.503906 170.222656 507.945312 173.902344 506.417969 176.957031 Z M 243.699219 419.976562 C 230.089844 424.976562 213.210938 429.417969 199.183594 431.429688 C 177.101562 445.175781 183.90625 451.214844 188.835938 450.9375 C 195.363281 450.589844 249.8125 436.777344 279.742188 420.808594 C 266.199219 428.585938 249.742188 437.46875 233.976562 444.410156 C 226.753906 447.535156 218.558594 450.660156 210.367188 453.226562 C 209.53125 456.976562 212.796875 458.503906 215.367188 458.226562 C 221.894531 457.53125 275.578125 441.011719 304.605469 423.585938 C 308.078125 421.367188 311.273438 419.285156 314.257812 417.269531 C 301.339844 414.285156 290.644531 409.011719 283.425781 402.832031 C 271.0625 408.800781 257.101562 415.050781 243.699219 419.976562 Z M 198.210938 423.726562 C 204.253906 423.726562 251.546875 414.910156 283.078125 402.484375 C 273.632812 394.15625 270.4375 384.160156 276.894531 375.691406 C 277.035156 375.550781 277.105469 375.414062 277.242188 375.273438 C 268.632812 380.410156 257.726562 385.617188 243.839844 390.546875 C 182.449219 412.132812 191.683594 423.726562 198.210938 423.726562 Z M 198.210938 423.726562 " fill-opacity="1" fill-rule="nonzero"/><path fill="#7ac9b4" d="M 431.136719 235.820312 C 431.070312 235.75 430.929688 235.679688 430.859375 235.613281 C 430.652344 235.472656 430.511719 235.335938 430.304688 235.195312 C 430.234375 235.125 430.164062 235.058594 430.027344 234.988281 C 429.820312 234.777344 429.609375 234.570312 429.472656 234.433594 C 429.402344 234.363281 429.402344 234.363281 429.332031 234.292969 C 429.125 234.015625 428.914062 233.808594 428.707031 233.53125 C 428.636719 233.460938 428.636719 233.390625 428.570312 233.320312 C 428.429688 233.113281 428.289062 232.972656 428.152344 232.765625 C 428.082031 232.695312 428.011719 232.558594 428.011719 232.488281 C 427.875 232.351562 427.804688 232.140625 427.734375 232.003906 C 427.664062 231.933594 427.664062 231.792969 427.597656 231.726562 C 427.527344 231.515625 427.386719 231.378906 427.320312 231.167969 C 427.320312 231.101562 427.25 231.03125 427.25 230.960938 C 427.109375 230.753906 427.039062 230.542969 426.972656 230.335938 C 426.972656 230.265625 426.972656 230.265625 426.902344 230.199219 C 426.832031 230.058594 426.761719 229.921875 426.695312 229.78125 C 426.695312 229.710938 426.625 229.640625 426.625 229.640625 C 426.554688 229.503906 426.554688 229.433594 426.554688 229.363281 C 426.554688 229.296875 426.554688 229.296875 426.484375 229.226562 C 426.484375 229.15625 426.414062 229.085938 426.414062 229.019531 C 426.414062 229.019531 426.414062 228.949219 426.414062 228.949219 C 426.414062 228.878906 426.414062 228.878906 426.414062 228.878906 C 426.414062 228.878906 424.75 238.875 416.136719 238.945312 C 407.527344 239.011719 406.832031 230.476562 406.832031 230.476562 C 406.832031 230.476562 404.054688 239.636719 395.582031 243.109375 C 390.304688 245.261719 383.21875 241.859375 378.636719 238.945312 C 376.761719 241.929688 374.816406 244.84375 372.59375 247.691406 C 370.441406 250.535156 368.289062 253.453125 366.203125 256.574219 C 361.550781 263.378906 356.96875 270.734375 352.453125 278.234375 C 338.078125 302.320312 324.675781 328.140625 313.078125 342.164062 C 307.453125 348.964844 301.339844 352.4375 294.257812 358.058594 C 285.230469 363.613281 271.132812 370.761719 251.269531 377.21875 C 211.894531 389.851562 170.640625 415.394531 171.820312 427.058594 C 172.167969 430.460938 175.988281 432.125 181.890625 432.609375 C 169.53125 441.914062 161.753906 450.589844 162.65625 455.863281 C 163.628906 461.902344 175.574219 461.835938 190.710938 458.640625 C 189.601562 460.863281 189.113281 462.804688 189.460938 464.402344 C 191.890625 475.855469 233.144531 463.015625 260.089844 449.546875 C 275.507812 441.84375 291.480469 432.125 304.605469 423.726562 C 275.578125 441.148438 221.894531 457.667969 215.367188 458.363281 C 212.726562 458.640625 209.53125 457.113281 210.367188 453.367188 C 218.558594 450.726562 226.753906 447.675781 233.976562 444.550781 C 249.742188 437.679688 266.199219 428.722656 279.742188 420.949219 C 249.882812 436.914062 195.433594 450.726562 188.835938 451.074219 C 183.976562 451.351562 177.167969 445.246094 199.183594 431.570312 C 213.144531 429.558594 230.019531 425.113281 243.699219 420.117188 C 257.101562 415.1875 271.0625 408.941406 283.492188 402.972656 C 290.714844 409.148438 301.480469 414.425781 314.328125 417.410156 C 325.160156 419.90625 337.453125 420.878906 350.578125 419.421875 C 370.859375 417.199219 391.554688 410.746094 410.164062 401.097656 C 404.75 394.78125 396.621094 381.523438 397.246094 359.308594 C 398.152344 326.199219 432.320312 280.039062 432.320312 280.039062 C 430.929688 278.996094 429.679688 277.46875 428.984375 275.316406 C 427.039062 268.585938 433.082031 260.601562 433.082031 260.601562 C 433.082031 260.601562 425.445312 256.296875 425.445312 249.84375 C 425.445312 241.234375 433.082031 236.929688 433.082031 236.929688 C 432.734375 236.792969 432.386719 236.652344 432.109375 236.515625 C 432.039062 236.445312 431.902344 236.375 431.832031 236.375 C 431.554688 236.097656 431.347656 235.960938 431.136719 235.820312 Z M 198.210938 423.726562 C 191.683594 423.65625 182.449219 412.132812 243.769531 390.546875 C 257.660156 385.6875 268.5625 380.480469 277.171875 375.273438 C 277.035156 375.414062 276.964844 375.550781 276.828125 375.691406 C 270.4375 384.160156 273.5625 394.15625 283.007812 402.484375 C 251.617188 414.910156 204.253906 423.796875 198.210938 423.726562 Z M 198.210938 423.726562 " fill-opacity="1" fill-rule="nonzero"/><path fill="#814895" d="M 495.375 236.515625 C 494.820312 251.4375 490.585938 289.0625 477.460938 325.574219 C 475.515625 326.128906 473.570312 326.269531 472.113281 325.433594 C 467.597656 323.003906 466.554688 315.023438 466.554688 315.023438 C 466.554688 315.023438 459.820312 319.328125 453.082031 315.023438 C 446.347656 310.71875 449.402344 302.734375 449.402344 302.734375 C 449.402344 302.734375 442.042969 304.609375 438.847656 299.058594 C 435.652344 293.503906 438.847656 282.1875 438.847656 282.1875 C 438.847656 282.1875 431 281.84375 428.984375 275.109375 C 427.039062 268.375 433.082031 260.394531 433.082031 260.394531 C 433.082031 260.394531 425.445312 256.089844 425.445312 249.632812 C 425.445312 241.027344 433.082031 236.722656 433.082031 236.722656 C 434.195312 237.140625 435.511719 237.277344 436.972656 237 C 444.886719 235.75 446 227.003906 446 227.003906 C 446 227.003906 447.25 238.179688 456.070312 235.679688 C 464.957031 233.183594 464.679688 222.355469 464.679688 222.355469 C 464.679688 222.355469 468.363281 232.835938 475.722656 232.695312 C 483.085938 232.488281 482.460938 220.894531 482.460938 220.894531 C 482.460938 220.894531 485.445312 229.085938 493.085938 227.628906 C 494.335938 227.421875 495.375 226.933594 496.347656 226.3125 C 495.792969 229.78125 495.515625 233.113281 495.375 236.515625 Z M 328.566406 249.007812 C 339.191406 250.121094 351.136719 251.371094 362.316406 252.617188 C 360.441406 247.828125 362.800781 240.816406 362.800781 240.816406 C 362.800781 240.816406 355.855469 245.332031 349.886719 240.816406 C 343.914062 236.304688 349.886719 225.6875 349.886719 225.6875 C 349.886719 225.6875 339.882812 226.933594 338.632812 221.175781 C 337.382812 215.480469 346.414062 207.289062 346.414062 207.289062 C 346.414062 207.289062 334.535156 204.445312 335.371094 197.851562 C 336.203125 191.324219 346.414062 189.242188 346.414062 189.242188 C 346.414062 189.242188 338.21875 185.148438 340.300781 174.667969 C 340.789062 172.027344 342.59375 170.292969 344.882812 169.183594 C 319.746094 157.3125 290.925781 145.859375 272.242188 140.167969 C 238.144531 129.753906 136.960938 113.789062 133.902344 126.074219 C 131.613281 135.03125 205.296875 202.222656 250.507812 243.804688 C 282.035156 245.46875 308.703125 247.066406 319.8125 248.175781 C 322.59375 248.382812 325.578125 248.730469 328.566406 249.007812 Z M 375.925781 293.15625 C 375.925781 293.15625 371.414062 300.097656 366.484375 299.058594 C 361.550781 298.015625 361.136719 292.742188 361.136719 292.742188 C 361.136719 292.742188 355.789062 301.347656 350.09375 298.433594 C 344.398438 295.585938 345.578125 289.6875 345.578125 289.6875 C 345.578125 289.6875 337.382812 296.765625 333.980469 292.671875 C 330.578125 288.574219 333.980469 282.1875 333.980469 282.1875 C 333.980469 282.1875 324.746094 284.898438 322.730469 277.957031 C 320.71875 271.011719 328.425781 266.085938 328.425781 266.085938 C 328.425781 266.085938 320.230469 264.835938 323.496094 255.046875 C 324.328125 252.480469 326.203125 250.535156 328.566406 248.941406 C 325.507812 248.664062 322.59375 248.316406 319.8125 248.105469 C 308.703125 247.066406 281.964844 245.46875 250.507812 243.734375 C 191.753906 240.539062 116.402344 237 93.972656 235.820312 C 59.59375 233.945312 186.058594 282.1875 225.992188 296.695312 C 255.851562 307.59375 314.882812 346.191406 333.285156 338.277344 C 344.257812 333.554688 362.59375 318.144531 378.359375 299.125 C 375.648438 296.976562 375.925781 293.15625 375.925781 293.15625 Z M 375.925781 293.15625 " fill-opacity="1" fill-rule="nonzero"/><path fill="#814895" d="M 465.582031 175.152344 C 459.679688 176.402344 459.125 184.035156 461 187.714844 C 462.875 191.394531 471.765625 193.269531 477.597656 189.867188 C 483.363281 186.464844 481.558594 171.75 465.582031 175.152344 Z M 468.847656 182.996094 C 467.25 183.691406 464.957031 183.757812 464.679688 181.539062 C 464.542969 180.636719 464.957031 179.734375 465.652344 179.109375 C 466 178.621094 466.417969 178.207031 466.902344 177.929688 C 467.945312 177.375 469.054688 177.441406 469.820312 178.066406 C 470.238281 178.207031 470.585938 178.484375 470.863281 178.832031 C 472.179688 180.566406 470.445312 182.300781 468.847656 182.996094 Z M 468.847656 182.996094 " fill-opacity="1" fill-rule="nonzero"/><g clip-path="url(#0a5fcba6d8)"><path fill="#f6bd4f" d="M 477.390625 325.574219 C 475.375 331.125 473.222656 336.609375 470.792969 342.023438 C 459.890625 366.390625 437.109375 387.074219 410.09375 401.027344 C 404.679688 394.710938 396.554688 381.453125 397.179688 359.238281 C 398.082031 326.128906 432.25 279.96875 432.25 279.96875 C 435.167969 282.121094 438.777344 282.328125 438.777344 282.328125 C 438.777344 282.328125 435.582031 293.644531 438.777344 299.195312 C 441.972656 304.75 449.332031 302.875 449.332031 302.875 C 449.332031 302.875 446.277344 310.859375 453.015625 315.160156 C 459.75 319.464844 466.488281 315.160156 466.488281 315.160156 C 466.488281 315.160156 467.457031 323.144531 472.042969 325.574219 C 473.570312 326.269531 475.515625 326.128906 477.390625 325.574219 Z M 524.824219 158.5625 C 524.613281 158.5625 524.40625 158.632812 524.265625 158.632812 C 526.351562 160.367188 528.085938 162.449219 528.226562 164.671875 C 528.503906 170.222656 507.945312 173.902344 506.417969 176.957031 C 505.378906 179.109375 516.140625 182.164062 522.949219 183.691406 C 534.40625 177.441406 549.335938 175.429688 569.617188 169.597656 C 595.378906 162.242188 645.105469 152.316406 645.105469 152.316406 C 618.089844 142.457031 543.226562 156.132812 524.824219 158.5625 Z M 479.335938 191.535156 C 472.113281 195.699219 461 193.40625 458.707031 188.894531 C 456.417969 184.316406 457.042969 174.804688 464.402344 173.277344 C 484.265625 168.972656 486.558594 187.300781 479.335938 191.535156 Z M 465.582031 175.152344 C 459.679688 176.402344 459.125 184.035156 461 187.714844 C 462.875 191.394531 471.765625 193.269531 477.597656 189.867188 C 483.363281 186.464844 481.558594 171.75 465.582031 175.152344 Z M 394.679688 203.679688 C 389.886719 212.566406 385.304688 221.242188 381.832031 230.683594 C 381.691406 231.101562 382.316406 231.515625 382.59375 231.167969 C 389.121094 223.117188 392.941406 214.09375 395.652344 204.097656 C 395.789062 203.542969 394.957031 203.125 394.679688 203.679688 Z M 251.894531 243.316406 C 275.230469 246.996094 299.742188 250.050781 323.355469 250.46875 C 323.84375 250.46875 323.980469 249.703125 323.496094 249.566406 C 300.714844 243.664062 275.4375 242 251.964844 243.179688 C 251.894531 243.246094 251.824219 243.316406 251.894531 243.316406 Z M 251.894531 243.316406 " fill-opacity="1" fill-rule="nonzero"/></g><path fill="#297881" d="M 403.914062 257.339844 C 398.707031 271.5 389.121094 286.144531 378.425781 299.125 C 375.648438 296.976562 375.925781 293.085938 375.925781 293.085938 C 375.925781 293.085938 371.414062 300.027344 366.484375 298.988281 C 361.550781 297.945312 361.136719 292.671875 361.136719 292.671875 C 361.136719 292.671875 355.789062 301.277344 350.09375 298.363281 C 344.398438 295.515625 345.578125 289.617188 345.578125 289.617188 C 345.578125 289.617188 337.382812 296.695312 333.980469 292.601562 C 330.578125 288.507812 333.980469 282.121094 333.980469 282.121094 C 333.980469 282.121094 324.746094 284.828125 322.730469 277.886719 C 320.71875 270.945312 328.425781 266.015625 328.425781 266.015625 C 328.425781 266.015625 320.230469 264.765625 323.496094 254.980469 C 324.328125 252.410156 326.203125 250.46875 328.566406 248.871094 C 339.191406 249.980469 351.136719 251.230469 362.316406 252.480469 C 364.398438 252.6875 366.414062 252.964844 368.359375 253.175781 C 388.011719 255.464844 403.914062 257.339844 403.914062 257.339844 Z M 334.46875 367.015625 C 333.355469 370.414062 329.882812 371.386719 326.757812 370.554688 C 326.203125 375.273438 320.648438 376.386719 316.34375 375.203125 C 316.273438 375.273438 316.273438 375.34375 316.203125 375.414062 C 313.980469 377.289062 312.660156 380.550781 314.398438 383.1875 C 315.855469 385.339844 318.632812 385.964844 321.0625 386.449219 C 321.757812 386.589844 321.6875 387.492188 321.273438 387.839844 C 317.800781 390.476562 312.871094 387.839844 311.273438 384.230469 C 310.300781 382.078125 310.371094 379.648438 311.339844 377.632812 C 310.507812 378.050781 309.675781 378.46875 308.773438 378.746094 C 307.175781 379.160156 305.578125 379.300781 303.910156 379.023438 C 302.3125 378.746094 300.714844 378.050781 299.398438 377.078125 C 296.273438 378.882812 292.3125 383.050781 296.0625 386.3125 C 298.703125 388.601562 303.078125 387.839844 306.339844 388.464844 C 306.550781 388.53125 306.550781 388.808594 306.410156 388.878906 C 302.105469 391.796875 295.089844 391.585938 292.660156 386.242188 C 290.578125 381.730469 294.675781 377.703125 298.773438 376.523438 C 297.867188 375.691406 297.105469 374.648438 296.617188 373.539062 C 293.632812 366.320312 301.480469 362.015625 307.175781 360.628906 C 307.246094 360.628906 307.246094 360.699219 307.246094 360.765625 C 303.632812 363.058594 296.757812 366.945312 299.257812 372.289062 C 301.410156 376.941406 309.398438 376.59375 312.589844 373.121094 C 308.355469 368.75 309.746094 361.878906 315.09375 359.585938 C 314.46875 358.960938 313.910156 358.269531 313.5625 357.503906 C 311.203125 352.714844 313.425781 345.980469 318.980469 344.730469 C 319.050781 344.730469 319.1875 344.800781 319.121094 344.941406 C 317.175781 347.925781 314.8125 351.117188 316.273438 354.867188 C 317.382812 357.644531 320.4375 358.894531 323.285156 358.476562 C 324.050781 357.644531 325.09375 356.949219 326.34375 356.671875 C 326.621094 356.601562 326.898438 356.949219 326.621094 357.15625 C 324.398438 359.101562 323.21875 363.128906 325.160156 365.625 C 327.035156 368.054688 331.410156 367.847656 333.980469 366.667969 C 334.191406 366.457031 334.605469 366.667969 334.46875 367.015625 Z M 324.605469 369.582031 C 323.84375 369.097656 323.21875 368.472656 322.660156 367.777344 C 321.34375 365.972656 320.996094 363.683594 321.550781 361.601562 C 319.605469 362.015625 317.453125 361.390625 315.71875 360.074219 C 312.453125 362.847656 311.621094 367.984375 315.160156 370.972656 C 316.898438 372.496094 319.398438 372.84375 321.480469 371.804688 C 322.59375 371.316406 323.5625 370.347656 324.605469 369.582031 Z M 324.605469 369.582031 " fill-opacity="1" fill-rule="nonzero"/><path fill="#7ac9b4" d="M 312.9375 374.164062 L 312.871094 373.957031 C 312.9375 373.886719 313.078125 373.746094 313.148438 373.679688 C 313.078125 373.816406 313.007812 373.957031 312.9375 374.164062 Z M 469.820312 178.066406 C 469.054688 177.511719 467.945312 177.375 466.902344 177.929688 C 466.417969 178.207031 466 178.621094 465.652344 179.109375 C 465.027344 179.734375 464.613281 180.636719 464.679688 181.539062 C 464.957031 183.757812 467.25 183.691406 468.847656 182.996094 C 470.375 182.300781 472.113281 180.636719 470.863281 178.832031 C 470.585938 178.484375 470.238281 178.207031 469.820312 178.066406 Z M 312.589844 332.722656 C 322.382812 330.847656 331.273438 324.671875 339.882812 319.882812 C 348.980469 314.746094 358.078125 309.886719 365.996094 303.015625 C 366.203125 302.875 365.996094 302.527344 365.789062 302.597656 C 346.621094 309.398438 330.230469 322.65625 312.589844 332.515625 C 312.382812 332.585938 312.453125 332.722656 312.589844 332.722656 Z M 294.257812 323.492188 C 311.6875 319.1875 330.371094 311.34375 344.121094 299.613281 C 344.605469 299.195312 343.980469 298.570312 343.496094 298.847656 C 326.898438 306.554688 310.855469 315.648438 294.1875 323.351562 C 294.050781 323.351562 294.117188 323.492188 294.257812 323.492188 Z M 275.855469 314.050781 C 294.328125 307.941406 313.839844 302.875 330.925781 293.433594 C 331.203125 293.296875 330.996094 292.878906 330.71875 292.949219 C 311.6875 297.113281 293.632812 306.347656 275.855469 314.050781 C 275.785156 313.980469 275.785156 314.050781 275.855469 314.050781 Z M 244.253906 298.988281 C 269.117188 297.042969 296.964844 291.144531 319.328125 279.96875 C 319.605469 279.828125 319.398438 279.480469 319.121094 279.550781 C 306.410156 282.050781 294.1875 286.144531 281.6875 289.546875 C 269.257812 292.949219 256.617188 295.449219 244.1875 298.847656 C 244.117188 298.847656 244.117188 298.988281 244.253906 298.988281 Z M 197.101562 280.730469 C 218.003906 278.371094 238.839844 275.664062 259.742188 273.652344 C 279.394531 271.777344 299.742188 271.984375 319.050781 267.542969 C 319.328125 267.472656 319.1875 267.125 318.980469 267.125 C 298.214844 265.183594 276.6875 269.140625 256.0625 271.707031 C 236.339844 274.136719 216.617188 276.773438 197.101562 280.59375 C 197.03125 280.59375 197.03125 280.800781 197.101562 280.730469 Z M 188.90625 174.804688 C 214.671875 175.707031 240.503906 177.929688 265.992188 181.816406 C 289.117188 185.355469 312.453125 192.851562 335.71875 194.242188 C 336.414062 194.308594 336.757812 193.199219 336.066406 192.851562 C 315.023438 182.996094 289.328125 180.84375 266.410156 178.207031 C 240.644531 175.222656 214.742188 174.109375 188.835938 174.734375 C 188.835938 174.734375 188.835938 174.804688 188.90625 174.804688 Z M 227.3125 218.1875 C 245.503906 218.050781 263.769531 217.355469 281.964844 217.5625 C 300.089844 217.773438 318.21875 220.132812 336.34375 219.992188 C 336.828125 219.992188 336.898438 219.300781 336.480469 219.160156 C 319.746094 213.953125 301.203125 213.953125 283.769531 214.09375 C 264.882812 214.300781 246.0625 215.621094 227.3125 217.703125 C 226.964844 217.773438 226.964844 218.1875 227.3125 218.1875 Z M 384.816406 290.035156 C 382.941406 293.226562 378.914062 294.128906 375.859375 291.90625 C 374.746094 291.074219 373.984375 289.964844 373.566406 288.714844 C 371.96875 290.449219 369.46875 291.558594 366.96875 291.351562 C 364.050781 291.144531 361.621094 289.0625 360.925781 286.492188 C 358.914062 288.574219 355.789062 289.410156 352.800781 288.226562 C 349.816406 287.046875 348.21875 284.0625 348.289062 281.078125 C 345.925781 282.257812 342.664062 281.703125 340.855469 279.480469 C 338.21875 276.359375 338.84375 272.054688 341.550781 269.417969 C 337.453125 268.929688 333.21875 265.667969 334.121094 261.226562 C 334.535156 259.074219 336.273438 257.410156 338.289062 256.644531 C 341.132812 255.535156 343.703125 256.296875 346.414062 257.199219 C 346.550781 257.269531 346.550781 257.410156 346.414062 257.410156 C 343.425781 257.476562 337.246094 257.410156 336.898438 261.574219 C 336.621094 264.90625 340.789062 265.878906 343.355469 267.195312 C 343.289062 262.890625 349.050781 260.878906 352.941406 261.296875 C 353.21875 261.296875 353.289062 261.710938 353.011719 261.851562 C 350.441406 262.753906 344.191406 264.210938 346.132812 268.375 C 347.800781 271.984375 352.105469 269.902344 354.886719 269.277344 C 355.441406 269.140625 355.925781 269.695312 355.648438 270.25 C 354.746094 271.917969 353.21875 272.886719 351.550781 273.234375 C 351.066406 275.59375 353.21875 278.300781 356.273438 278.09375 C 359.261719 277.886719 361.621094 275.039062 362.941406 272.539062 C 363.078125 272.261719 363.496094 272.332031 363.566406 272.609375 C 363.566406 272.75 363.636719 272.820312 363.636719 272.957031 C 363.703125 272.886719 363.703125 272.820312 363.773438 272.75 C 363.773438 272.75 363.84375 272.75 363.84375 272.75 C 363.773438 272.886719 363.703125 273.027344 363.703125 273.164062 C 364.050781 274.832031 363.566406 276.359375 362.734375 277.609375 C 362.734375 277.957031 362.800781 278.300781 362.941406 278.578125 C 363.566406 280.59375 365.300781 282.1875 367.386719 282.398438 C 369.398438 282.605469 371.34375 281.703125 372.386719 279.898438 C 373.21875 278.371094 373.148438 276.359375 373.011719 274.691406 C 373.011719 274.277344 373.566406 274.066406 373.84375 274.34375 C 375.789062 276.21875 375.582031 279.066406 374.191406 281.285156 C 374.191406 281.285156 374.191406 281.285156 374.191406 281.355469 C 374.261719 281.425781 374.261719 281.496094 374.332031 281.566406 C 374.675781 281.285156 375.234375 281.355469 375.371094 281.84375 C 375.441406 282.121094 375.441406 282.328125 375.511719 282.535156 C 376.761719 283.160156 378.21875 282.8125 379.332031 282.050781 C 382.039062 280.316406 383.429688 276.21875 380.71875 273.859375 C 380.511719 273.722656 380.71875 273.441406 380.929688 273.441406 C 386.898438 274.691406 383.289062 282.605469 379.191406 283.925781 C 378.011719 284.339844 376.691406 284.339844 375.582031 283.925781 C 375.582031 285.035156 375.234375 286.144531 374.746094 287.117188 C 375.234375 288.296875 376.066406 289.269531 377.246094 289.894531 C 379.261719 290.9375 382.386719 290.589844 384.261719 289.410156 C 384.609375 289.269531 385.023438 289.6875 384.816406 290.035156 Z M 349.539062 277.121094 C 349.675781 276.984375 349.816406 276.84375 349.953125 276.84375 C 349.605469 276.011719 349.46875 275.109375 349.605469 274.136719 C 349.675781 273.859375 349.675781 273.582031 349.816406 273.375 C 347.316406 273.234375 344.816406 271.847656 343.84375 269.417969 C 343.496094 269.488281 343.148438 269.554688 342.800781 269.554688 C 340.648438 271.777344 339.882812 275.246094 342.039062 277.816406 C 344.050781 280.246094 347.730469 279.621094 349.539062 277.121094 Z M 362.453125 281.148438 C 362.246094 280.800781 362.109375 280.453125 361.96875 280.105469 C 361.828125 279.621094 361.691406 279.136719 361.691406 278.71875 C 359.46875 280.664062 355.925781 281.425781 353.148438 280.105469 C 352.246094 279.691406 351.414062 278.996094 350.789062 278.234375 C 350.511719 279.203125 350.023438 279.96875 349.328125 280.523438 C 349.328125 283.507812 351.34375 286.355469 354.746094 286.492188 C 358.703125 286.632812 360.023438 283.578125 362.453125 281.148438 Z M 373.773438 282.675781 C 373.636719 282.535156 373.566406 282.398438 373.496094 282.1875 C 372.039062 283.855469 369.746094 284.6875 367.453125 284.410156 C 365.648438 284.203125 364.050781 283.300781 363.011719 281.980469 C 362.941406 283.160156 362.59375 284.273438 361.96875 285.242188 C 362.941406 287.742188 365.300781 289.476562 368.21875 288.921875 C 371.484375 288.296875 372.871094 285.519531 373.773438 282.675781 Z M 366.96875 235.472656 C 362.800781 233.390625 361.414062 228.460938 363.078125 224.574219 C 360.511719 225.0625 357.523438 223.8125 355.925781 221.242188 C 353.636719 217.496094 355.164062 213.261719 358.078125 210.484375 C 354.605469 211.246094 351.203125 210.414062 349.605469 206.457031 C 348.148438 202.710938 349.816406 198.890625 352.941406 196.878906 C 350.511719 195.074219 349.261719 191.257812 350.09375 188.480469 C 351.480469 183.414062 357.523438 182.789062 361.96875 182.648438 C 362.386719 182.648438 362.386719 183.273438 361.96875 183.273438 C 358.496094 183.691406 353.078125 184.523438 352.039062 188.6875 C 351.273438 192.019531 353.566406 193.964844 355.855469 195.699219 C 356.066406 195.769531 356.273438 195.90625 356.414062 196.113281 C 356.480469 196.183594 356.480469 196.183594 356.550781 196.253906 C 357.246094 196.808594 356.691406 198.058594 355.855469 197.988281 C 355.511719 197.988281 355.230469 197.921875 354.953125 197.851562 C 352.246094 199.726562 350.230469 203.195312 352.941406 206.109375 C 355.09375 208.472656 358.148438 207.222656 360.996094 207.222656 C 361.203125 205.765625 361.96875 204.445312 363.21875 203.613281 C 363.359375 203.472656 363.566406 203.402344 363.773438 203.265625 C 362.871094 202.988281 362.039062 202.5 361.203125 201.945312 C 359.121094 200.417969 357.246094 197.921875 357.664062 195.210938 C 358.078125 192.574219 360.371094 190.5625 362.941406 189.9375 C 366.136719 189.105469 368.984375 190.699219 371.691406 192.160156 C 371.761719 192.226562 371.691406 192.296875 371.621094 192.296875 C 368.496094 191.8125 360.441406 190.632812 360.441406 195.769531 C 360.441406 199.585938 366.273438 200.972656 369.121094 201.875 C 369.539062 202.015625 369.675781 202.640625 369.261719 202.847656 C 368.84375 203.058594 368.425781 203.265625 368.011719 203.402344 C 368.078125 203.472656 368.148438 203.472656 368.148438 203.542969 C 368.148438 203.542969 368.148438 203.613281 368.148438 203.613281 C 367.871094 203.613281 367.664062 203.613281 367.453125 203.613281 C 367.109375 203.679688 366.761719 203.75 366.414062 203.75 C 363.84375 204.375 362.175781 206.804688 363.84375 209.582031 C 365.578125 212.496094 369.332031 212.21875 372.246094 212.425781 C 372.457031 212.425781 372.523438 212.636719 372.386719 212.773438 C 371.414062 214.023438 370.09375 214.648438 368.773438 214.855469 C 367.175781 216.382812 366.414062 218.746094 367.800781 220.757812 C 369.261719 222.769531 373.289062 222.910156 375.09375 221.382812 C 375.511719 221.035156 376.066406 221.453125 375.789062 221.9375 C 374.816406 223.8125 373.082031 224.992188 370.925781 224.785156 C 369.191406 224.644531 367.453125 223.8125 366.414062 222.355469 C 365.925781 223.1875 365.234375 223.882812 364.46875 224.226562 C 363.496094 227.492188 364.609375 231.449219 367.941406 232.90625 C 371.484375 234.5 375.582031 232.210938 376.621094 228.601562 C 376.691406 228.394531 376.96875 228.394531 377.039062 228.601562 C 378.21875 234.292969 371.96875 237.972656 366.96875 235.472656 Z M 365.441406 220.203125 C 365.023438 218.257812 365.859375 216.105469 367.316406 214.71875 C 364.539062 214.371094 361.898438 212.289062 361.136719 209.441406 C 360.789062 209.582031 360.441406 209.789062 360.09375 209.929688 C 358.148438 212.21875 356.898438 215.136719 357.871094 218.121094 C 358.914062 221.453125 362.871094 222.421875 365.441406 220.203125 Z M 484.613281 290.378906 C 484.75 293.921875 481.835938 295.792969 478.917969 295.449219 C 479.265625 295.585938 479.613281 295.933594 479.613281 296.351562 C 479.960938 302.113281 472.738281 305.582031 467.875 303.917969 C 464.75 302.875 461.902344 298.917969 461.902344 295.378906 C 459.820312 297.320312 456.972656 298.433594 454.125 297.945312 C 446.972656 296.695312 446.417969 289.6875 448.777344 284.273438 C 446.417969 285.035156 443.636719 284.617188 441.484375 282.746094 C 439.332031 280.800781 438.222656 277.886719 438.984375 275.109375 C 439.886719 271.777344 443.082031 269.625 445.929688 268.097656 C 446.136719 267.960938 446.484375 268.238281 446.277344 268.445312 C 443.847656 271.917969 439.054688 274.691406 442.457031 279.414062 C 445.097656 283.09375 450.097656 281.078125 452.597656 278.164062 C 451.902344 277.261719 451.484375 276.21875 451.417969 275.039062 C 451.207031 271.917969 453.429688 269.140625 456 267.683594 C 456 267.683594 456.070312 267.683594 456.070312 267.75 C 454.679688 269.625 453.359375 271.429688 453.429688 273.929688 C 453.5 276.496094 455.167969 278.234375 457.734375 278.09375 C 459.820312 278.023438 461.488281 276.773438 462.457031 274.96875 C 463.152344 273.582031 463.292969 272.054688 464.125 270.734375 C 464.472656 270.25 465.304688 270.109375 465.582031 270.734375 C 466.832031 273.234375 465.304688 276.359375 463.5 278.300781 C 463.015625 278.789062 462.457031 279.273438 461.902344 279.621094 C 461.832031 283.160156 465.097656 286.078125 468.917969 285.3125 C 473.292969 284.410156 474.402344 279.621094 474.820312 275.871094 C 474.890625 275.527344 475.238281 275.457031 475.445312 275.734375 C 477.597656 278.925781 476.765625 282.46875 474.542969 284.964844 C 474.335938 287.464844 475.027344 290.101562 477.042969 291.839844 C 479.75 294.128906 481.695312 291.558594 484.058594 290.242188 C 484.265625 289.964844 484.613281 290.101562 484.613281 290.378906 Z M 463.292969 286.078125 C 461.554688 284.550781 460.582031 282.257812 460.863281 279.96875 C 459.402344 280.59375 457.738281 280.800781 456.070312 280.382812 C 455.097656 280.105469 454.195312 279.691406 453.5 279.066406 C 453.082031 281.285156 451.554688 283.023438 449.679688 283.925781 C 448.222656 288.367188 447.875 294.335938 453.640625 295.515625 C 459.472656 296.695312 463.015625 291.074219 463.292969 286.078125 Z M 478.570312 295.449219 C 477.738281 295.308594 476.902344 294.960938 476.140625 294.476562 C 473.5 292.601562 472.390625 289.476562 472.667969 286.355469 C 471.347656 287.257812 469.75 287.8125 468.152344 287.8125 C 466.832031 287.882812 465.652344 287.535156 464.542969 286.980469 C 465.792969 289.132812 464.75 291.976562 463.292969 293.921875 C 463.292969 293.988281 463.222656 293.988281 463.222656 294.058594 C 463.640625 297.390625 464.75 300.445312 468.5 301.554688 C 472.945312 302.875 475.792969 299.335938 477.738281 296.003906 C 477.945312 295.585938 478.292969 295.449219 478.570312 295.449219 Z M 485.238281 266.085938 C 484.542969 265.597656 483.710938 266.433594 483.847656 267.125 C 484.75 270.527344 483.917969 274.691406 479.613281 274.554688 C 474.265625 274.414062 473.152344 267.960938 476.070312 264.417969 C 476.140625 264.351562 476 264.210938 475.929688 264.28125 C 470.792969 268.375 472.945312 276.429688 479.472656 277.332031 C 485.308594 278.09375 490.722656 269.902344 485.238281 266.085938 Z M 474.195312 283.714844 C 474.195312 283.578125 474.125 283.4375 474.125 283.371094 C 473.988281 282.8125 473.222656 283.578125 473.777344 283.714844 C 473.917969 283.714844 474.054688 283.714844 474.195312 283.714844 C 474.195312 283.785156 474.195312 283.714844 474.195312 283.714844 Z M 474.195312 283.714844 " fill-opacity="1" fill-rule="nonzero"/></svg>