<svg xmlns="http://www.w3.org/2000/svg" xmlns:xlink="http://www.w3.org/1999/xlink" width="940" zoomAndPan="magnify" viewBox="0 0 705 591.000005" height="788" preserveAspectRatio="xMidYMid meet" version="1.0"><defs><clipPath id="e2640d809b"><path d="M 477.417969 278.828125 L 588.945312 278.828125 L 588.945312 442.546875 L 477.417969 442.546875 Z M 477.417969 278.828125 " clip-rule="nonzero"/></clipPath><clipPath id="c8023cfbbb"><path d="M 351.632812 452.316406 L 396.253906 452.316406 L 396.253906 477.617188 L 351.632812 477.617188 Z M 351.632812 452.316406 " clip-rule="nonzero"/></clipPath><clipPath id="6c67135e3a"><path d="M 407.535156 452.316406 L 452.328125 452.316406 L 452.328125 477.617188 L 407.535156 477.617188 Z M 407.535156 452.316406 " clip-rule="nonzero"/></clipPath><clipPath id="f0d9df189a"><path d="M 525.578125 278.828125 L 588.945312 278.828125 L 588.945312 393.53125 L 525.578125 393.53125 Z M 525.578125 278.828125 " clip-rule="nonzero"/></clipPath></defs><path fill="#478c2a" d="M 130.019531 422.195312 C 130.019531 422.195312 103.296875 406.855469 99.355469 374.871094 C 97.414062 359.121094 118.628906 395.902344 118.628906 395.902344 C 118.628906 395.902344 94.097656 345.074219 99.355469 338.066406 C 104.613281 331.054688 116.875 387.140625 123.886719 381.882812 C 130.894531 376.625 116.875 360.851562 123.886719 346.828125 C 130.894531 332.804688 137.902344 327.546875 130.894531 348.582031 C 125.417969 365.011719 132.777344 372.617188 136.257812 375.160156 C 137.96875 376.410156 139.664062 377.679688 141.28125 379.050781 L 169.441406 402.914062 L 130.019531 422.195312 " fill-opacity="1" fill-rule="nonzero"/><path fill="#478c2a" d="M 69.566406 269.710938 C 69.566406 269.710938 36.277344 229.398438 38.027344 238.164062 C 39.78125 246.925781 57.300781 271.460938 57.300781 271.460938 C 57.300781 271.460938 31.019531 241.667969 31.019531 253.9375 C 31.019531 266.207031 59.054688 288.988281 59.054688 288.988281 C 59.054688 288.988281 36.277344 281.980469 32.769531 274.96875 C 29.265625 267.957031 59.054688 320.539062 81.832031 317.03125 C 104.613281 313.527344 69.566406 269.710938 69.566406 269.710938 " fill-opacity="1" fill-rule="nonzero"/><path fill="#417c25" d="M 356.054688 318.347656 C 356.054688 318.347656 325.824219 282.855469 231.207031 298.628906 C 136.589844 314.402344 82.710938 298.628906 69.566406 269.710938 C 69.566406 269.710938 87.964844 306.519531 76.136719 317.03125 C 76.136719 317.03125 116.875 353.839844 187.839844 338.066406 C 258.804688 322.292969 292.972656 315.71875 345.539062 340.695312 C 398.105469 365.667969 356.054688 318.347656 356.054688 318.347656 " fill-opacity="1" fill-rule="nonzero"/><g clip-path="url(#e2640d809b)"><path fill="#f78f31" d="M 491.410156 418.25 C 491.410156 418.25 478.269531 351.210938 530.835938 330.175781 C 583.402344 309.148438 553.171875 278.914062 553.171875 278.914062 C 553.171875 278.914062 597.855469 322.292969 587.34375 376.1875 C 576.828125 430.082031 496.667969 451.113281 482.210938 439.28125 C 467.753906 427.453125 491.410156 418.25 491.410156 418.25 " fill-opacity="1" fill-rule="nonzero"/></g><path fill="#ed8a22" d="M 475.480469 346.582031 C 475.480469 346.582031 505.863281 406.417969 495.351562 437.96875 C 484.835938 469.515625 327.140625 487.917969 306.113281 437.96875 C 285.085938 388.015625 358.679688 332.808594 358.679688 332.808594 L 475.480469 346.582031 " fill-opacity="1" fill-rule="nonzero"/><path fill="#478c2a" d="M 333.070312 308.386719 C 333.070312 308.386719 310.582031 302.347656 312.269531 318.085938 C 313.957031 333.824219 333.570312 329.414062 336.449219 339.863281 C 339.324219 350.3125 361.785156 355.039062 405.167969 355.324219 C 448.554688 355.609375 464.6875 350.96875 475.480469 346.582031 C 487.59375 341.65625 495.507812 340.03125 494.980469 317.691406 C 494.449219 295.351562 459.257812 308.019531 459.257812 308.019531 L 333.070312 308.386719 " fill-opacity="1" fill-rule="nonzero"/><path fill="#ed8a22" d="M 356.359375 146.148438 C 356.359375 146.148438 335.683594 112.847656 285.90625 118.105469 C 236.128906 123.363281 230.769531 118.105469 230.769531 118.105469 C 230.769531 118.105469 239.191406 218.882812 307.347656 199.605469 C 375.507812 180.324219 356.359375 146.148438 356.359375 146.148438 " fill-opacity="1" fill-rule="nonzero"/><path fill="#af5d14" d="M 341.046875 158.414062 C 341.046875 158.414062 328.027344 133 292.035156 134.753906 C 256.039062 136.503906 249.914062 132.125 249.914062 132.125 C 249.914062 132.125 263.699219 192.59375 315.007812 186.457031 C 366.316406 180.324219 341.046875 158.414062 341.046875 158.414062 " fill-opacity="1" fill-rule="nonzero"/><path fill="#ed8a22" d="M 432.734375 135.628906 C 432.734375 135.628906 452.851562 102.328125 501.28125 107.589844 C 549.710938 112.847656 554.925781 107.589844 554.925781 107.589844 C 554.925781 107.589844 546.730469 208.367188 480.417969 189.089844 C 414.109375 169.808594 432.734375 135.628906 432.734375 135.628906 " fill-opacity="1" fill-rule="nonzero"/><path fill="#af5d14" d="M 447.636719 147.902344 C 447.636719 147.902344 460.304688 122.488281 495.320312 124.238281 C 530.339844 125.992188 536.300781 121.609375 536.300781 121.609375 C 536.300781 121.609375 522.890625 182.078125 472.96875 175.941406 C 423.050781 169.808594 447.636719 147.902344 447.636719 147.902344 " fill-opacity="1" fill-rule="nonzero"/><path fill="#ed8a22" d="M 265.132812 270.230469 C 265.132812 270.230469 278.078125 136.507812 402.484375 133.878906 C 526.894531 131.25 531.210938 283.210938 531.210938 283.210938 C 531.210938 283.210938 520.761719 251.308594 482.210938 263.574219 C 443.664062 275.84375 432.273438 301.257812 402.484375 303.886719 C 372.699219 306.515625 344.664062 281.980469 344.664062 281.980469 C 344.664062 281.980469 321.398438 234.820312 265.132812 270.230469 " fill-opacity="1" fill-rule="nonzero"/><path fill="#ededed" d="M 466.3125 237.773438 C 411.148438 244.265625 422.507812 294.570312 422.507812 294.570312 L 388.433594 294.570312 C 388.433594 278.34375 385.195312 247.507812 341.386719 239.394531 C 297.582031 231.28125 265.132812 270.230469 265.132812 270.230469 C 265.132812 270.230469 330.03125 333.519531 404.660156 311.613281 C 404.660156 311.613281 404.042969 310.921875 402.894531 309.71875 C 404.023438 309.390625 404.660156 309.179688 404.660156 309.179688 C 404.660156 309.179688 405.394531 309.328125 406.707031 309.546875 C 405.382812 310.851562 404.660156 311.613281 404.660156 311.613281 C 404.660156 311.613281 467.1875 328.261719 531.210938 283.210938 C 531.210938 283.210938 521.476562 231.28125 466.3125 237.773438 " fill-opacity="1" fill-rule="nonzero"/><path fill="#161616" d="M 405.113281 287.238281 C 405.113281 287.238281 380.582031 287.238281 383.210938 296 C 385.839844 304.761719 404.660156 311.613281 404.660156 311.613281 C 404.660156 311.613281 425.265625 303.886719 425.265625 295.125 C 425.265625 286.359375 405.113281 287.238281 405.113281 287.238281 " fill-opacity="1" fill-rule="nonzero"/><path fill="#161616" d="M 382.34375 240.5625 C 383.277344 245.910156 380.53125 250.851562 376.214844 251.601562 C 371.894531 252.355469 367.644531 248.628906 366.714844 243.285156 C 365.785156 237.9375 368.527344 232.996094 372.84375 232.242188 C 377.164062 231.492188 381.414062 235.21875 382.34375 240.5625 " fill-opacity="1" fill-rule="nonzero"/><path fill="#161616" d="M 423.902344 240.5625 C 422.972656 245.910156 425.71875 250.851562 430.035156 251.605469 C 434.351562 252.355469 438.605469 248.628906 439.535156 243.285156 C 440.464844 237.9375 437.71875 232.996094 433.40625 232.246094 C 429.085938 231.492188 424.832031 235.21875 423.902344 240.5625 " fill-opacity="1" fill-rule="nonzero"/><path fill="#ffffff" d="M 378.394531 234.875 C 378.394531 235.964844 377.507812 236.847656 376.421875 236.847656 C 375.332031 236.847656 374.449219 235.964844 374.449219 234.875 C 374.449219 233.789062 375.332031 232.90625 376.421875 232.90625 C 377.507812 232.90625 378.394531 233.789062 378.394531 234.875 " fill-opacity="1" fill-rule="nonzero"/><path fill="#ffffff" d="M 374.011719 247.996094 C 374.011719 249.449219 372.835938 250.625 371.382812 250.625 C 369.933594 250.625 368.757812 249.449219 368.757812 247.996094 C 368.757812 246.546875 369.933594 245.367188 371.382812 245.367188 C 372.835938 245.367188 374.011719 246.546875 374.011719 247.996094 " fill-opacity="1" fill-rule="nonzero"/><path fill="#ffffff" d="M 438.40625 236.410156 C 438.40625 237.378906 437.621094 238.160156 436.65625 238.160156 C 435.6875 238.160156 434.902344 237.378906 434.902344 236.410156 C 434.902344 235.441406 435.6875 234.65625 436.65625 234.65625 C 437.621094 234.65625 438.40625 235.441406 438.40625 236.410156 " fill-opacity="1" fill-rule="nonzero"/><path fill="#ffffff" d="M 430.179688 247.023438 C 430.179688 248.476562 429.003906 249.652344 427.554688 249.652344 C 426.101562 249.652344 424.921875 248.476562 424.921875 247.023438 C 424.921875 245.570312 426.101562 244.394531 427.554688 244.394531 C 429.003906 244.394531 430.179688 245.570312 430.179688 247.023438 " fill-opacity="1" fill-rule="nonzero"/><path fill="#478c2a" d="M 405.167969 355.324219 C 405.167969 355.324219 308.742188 343.324219 265.375 393.273438 C 222.007812 443.226562 162.871094 443.226562 130.019531 422.195312 C 130.019531 422.195312 147.101562 398.535156 137.902344 376.1875 C 137.902344 376.1875 169.441406 407.734375 203.609375 390.644531 C 237.777344 373.554688 250.917969 345.953125 295.601562 342.007812 C 340.28125 338.066406 369.195312 340.695312 369.195312 340.695312 L 405.167969 355.324219 " fill-opacity="1" fill-rule="nonzero"/><g clip-path="url(#c8023cfbbb)"><path fill="#161616" d="M 379.171875 452.425781 C 379.171875 452.425781 345.003906 452.425781 352.886719 468.199219 C 360.773438 483.976562 396.253906 477.402344 396.253906 466.886719 C 396.253906 456.371094 396.253906 456.371094 396.253906 456.371094 C 396.253906 456.371094 387.054688 461.628906 379.171875 452.425781 " fill-opacity="1" fill-rule="nonzero"/></g><g clip-path="url(#6c67135e3a)"><path fill="#161616" d="M 424.765625 452.425781 C 424.765625 452.425781 458.933594 452.425781 451.046875 468.199219 C 443.164062 483.976562 407.679688 477.402344 407.679688 466.886719 C 407.679688 456.371094 407.679688 456.371094 407.679688 456.371094 C 407.679688 456.371094 416.878906 461.628906 424.765625 452.425781 " fill-opacity="1" fill-rule="nonzero"/></g><g clip-path="url(#f0d9df189a)"><path fill="#ededed" d="M 553.171875 278.914062 C 553.171875 278.914062 583.402344 309.148438 530.835938 330.175781 C 529.019531 330.90625 527.289062 331.691406 525.628906 332.523438 C 528.355469 339.609375 533.707031 348.277344 543.976562 351.210938 C 560.011719 355.792969 577.042969 373.359375 581.152344 393.464844 C 583.996094 388.136719 586.132812 382.382812 587.34375 376.1875 C 597.855469 322.292969 553.171875 278.914062 553.171875 278.914062 " fill-opacity="1" fill-rule="nonzero"/></g><path fill="#f78f31" d="M 517.695312 236.847656 C 517.695312 236.847656 494.039062 148.777344 425.703125 143.515625 C 425.703125 143.515625 470.382812 154.03125 517.695312 236.847656 " fill-opacity="1" fill-rule="nonzero"/><path fill="#878787" d="M 413.4375 290.742188 C 413.4375 290.742188 423.511719 291.621094 422.199219 296.878906 C 420.882812 302.136719 412.558594 305.203125 413.4375 303.011719 C 414.3125 300.820312 416.066406 296.4375 411.683594 294.25 C 407.304688 292.058594 411.683594 290.304688 413.4375 290.742188 " fill-opacity="1" fill-rule="nonzero"/><path fill="#5aa03a" d="M 433.585938 324.921875 C 433.585938 324.921875 480.898438 310.460938 482.210938 320.976562 C 483.523438 331.492188 467.753906 348.582031 428.332031 344.636719 C 388.90625 340.695312 433.585938 324.921875 433.585938 324.921875 " fill-opacity="1" fill-rule="nonzero"/><path fill="#478c2a" d="M 319.253906 306.519531 C 319.253906 306.519531 287.714844 343.324219 341.597656 347.265625 C 395.476562 351.210938 319.253906 306.519531 319.253906 306.519531 " fill-opacity="1" fill-rule="nonzero"/></svg>