<svg xmlns="http://www.w3.org/2000/svg" xmlns:xlink="http://www.w3.org/1999/xlink" width="940" zoomAndPan="magnify" viewBox="0 0 705 591.000005" height="788" preserveAspectRatio="xMidYMid meet" version="1.0"><path fill="#ffe76c" d="M 287.390625 354.261719 C 275.347656 332.328125 306.90625 301.617188 250.605469 262.230469 C 209.246094 233.292969 140.527344 280.988281 160.882812 337.925781 C 161.347656 337.554688 161.816406 317.019531 168.445312 311.511719 C 167.042969 321.875 153.320312 342.128906 190.292969 385.53125 C 180.207031 357.34375 183.289062 338.769531 188.238281 328.035156 C 178.621094 352.023438 198.042969 376.664062 221.476562 385.71875 C 215.128906 355.570312 260.96875 274.921875 273.386719 350.433594 C 274.226562 355.289062 288.136719 377.503906 288.136719 360.703125 C 288.136719 358.648438 288.136719 356.6875 288.792969 354.730469 Z M 287.390625 354.261719 " fill-opacity="1" fill-rule="evenodd"/><path fill="#92d0d8" d="M 418.753906 408.121094 C 417.636719 418.015625 419.597656 440.320312 413.058594 464.125 C 410.820312 472.246094 437.429688 476.257812 442.65625 472.246094 C 496.527344 371.625 425.292969 380.957031 418.753906 408.121094 Z M 418.753906 408.121094 " fill-opacity="1" fill-rule="evenodd"/><path fill="#ffe76c" d="M 326.136719 199.128906 C 277.589844 205.199219 299.808594 158.808594 262.554688 165.339844 C 262.371094 165.339844 272.917969 147.699219 303.355469 163.753906 C 303.917969 163.101562 300.742188 158.246094 294.953125 154.792969 C 291.125 152.460938 285.992188 151.714844 280.855469 149.566406 C 282.628906 145.554688 302.328125 147.980469 318.015625 152.648438 C 320.535156 150.21875 312.972656 139.953125 312.878906 130.058594 C 312.785156 120.164062 319.042969 112.882812 321.65625 111.949219 C 320.628906 124.644531 339.117188 136.777344 342.664062 136.40625 C 338.273438 118.109375 344.4375 105.695312 350.972656 100.65625 C 348.453125 107.84375 350.320312 120.722656 356.761719 127.632812 C 352 115.3125 364.699219 106.628906 372.167969 103.550781 C 370.207031 110.269531 369.179688 126.792969 377.207031 126.886719 C 377.582031 114.65625 396.816406 97.109375 417.449219 102.988281 C 408.765625 116.898438 403.257812 125.113281 405.871094 126.605469 C 410.726562 129.40625 425.476562 115.683594 438.828125 120.351562 C 433.226562 121.9375 429.210938 126.699219 432.574219 130.523438 C 435.09375 133.417969 445.550781 120.722656 450.5 126.136719 C 445.738281 128.191406 444.246094 130.804688 445.550781 135.378906 C 470.011719 122.871094 519.402344 147.417969 532.566406 178.222656 C 527.246094 175.421875 514.828125 181.023438 517.347656 180.648438 C 520.710938 180.183594 536.863281 180.554688 542.558594 185.410156 C 535.648438 184.570312 529.671875 185.128906 531.074219 186.4375 C 542.371094 185.128906 556.1875 198.476562 556.003906 202.210938 C 548.8125 196.050781 541.625 196.984375 540.691406 199.316406 C 548.625 198.105469 555.535156 205.570312 556.28125 210.050781 C 557.589844 217.796875 557.589844 225.265625 554.976562 233.011719 C 544.519531 219.292969 541.71875 222.371094 539.570312 224.800781 C 564.3125 237.585938 550.585938 269.324219 545.636719 272.308594 C 544.703125 258.402344 534.527344 250.5625 531.261719 251.214844 C 547.503906 288.550781 508.667969 311.605469 504.746094 308.992188 C 506.050781 306.285156 508.105469 252.054688 499.609375 241.320312 C 481.589844 218.730469 477.203125 203.144531 472.90625 197.824219 C 443.777344 177.941406 403.257812 138.925781 371.699219 144.246094 C 334.167969 150.6875 328.753906 178.59375 326.136719 199.128906 Z M 326.136719 199.128906 " fill-opacity="1" fill-rule="evenodd"/><path fill="#92d0d8" d="M 479.816406 268.203125 C 491.859375 262.136719 516.507812 244.402344 547.414062 232.917969 C 557.960938 229 548.8125 203.332031 541.4375 201.742188 C 397.46875 227.878906 445.085938 282.109375 479.816406 268.203125 Z M 479.816406 268.203125 " fill-opacity="1" fill-rule="evenodd"/><path fill="#52bbc9" d="M 384.769531 454.417969 C 349.945312 465.523438 253.875 434.160156 279.457031 359.117188 C 319.136719 242.71875 401.109375 336.996094 418.289062 295.832031 C 373.753906 318.792969 342.476562 280.988281 333.140625 251.402344 C 318.109375 203.796875 321.9375 137.152344 388.691406 145.367188 C 415.300781 148.632812 438.828125 171.875 464.503906 188.675781 C 556.9375 286.125 500.078125 417.640625 384.769531 454.417969 Z M 384.769531 454.417969 " fill-opacity="1" fill-rule="evenodd"/><path fill="#52bbc9" d="M 335.195312 204.730469 C 290.191406 172.339844 250.230469 219.480469 269.839844 211.917969 C 274.695312 210.050781 288.511719 209.492188 301.675781 214.71875 C 321.65625 222.558594 327.539062 248.414062 335.195312 204.730469 Z M 335.195312 204.730469 " fill-opacity="1" fill-rule="evenodd"/><path fill="#52bbc9" d="M 380.195312 110.832031 C 376.554688 105.511719 369.460938 82.734375 386.359375 94.871094 C 412.96875 114.003906 417.636719 126.042969 414.742188 158.152344 C 414.179688 164.128906 401.296875 180.929688 390.652344 169.726562 C 362.832031 140.511719 396.253906 134.445312 380.195312 110.832031 Z M 380.195312 110.832031 " fill-opacity="1" fill-rule="evenodd"/><path fill="#92d0d8" d="M 320.164062 214.4375 C 322.402344 246.734375 339.675781 290.789062 369.925781 303.484375 C 384.117188 309.367188 397.5625 313.660156 416.234375 296.019531 C 454.234375 260.082031 431.734375 181.957031 395.039062 151.527344 C 374.3125 134.351562 357.976562 142.566406 348.636719 150.21875 C 317.921875 175.234375 318.386719 189.890625 320.164062 214.4375 Z M 320.164062 214.4375 " fill-opacity="1" fill-rule="evenodd"/><path fill="#543417" d="M 412.875 238.148438 C 411.101562 235.066406 408.859375 231.984375 404.9375 233.105469 C 400.363281 234.414062 405.03125 242.8125 409.324219 245.335938 C 413.058594 247.386719 416.421875 244.121094 412.875 238.148438 Z M 412.875 238.148438 " fill-opacity="1" fill-rule="evenodd"/><path fill="#543417" d="M 350.878906 267.457031 C 349.105469 264.375 346.863281 261.296875 342.945312 262.414062 C 338.367188 263.722656 343.035156 272.121094 347.332031 274.644531 C 351.066406 276.695312 354.425781 273.429688 350.878906 267.457031 Z M 350.878906 267.457031 " fill-opacity="1" fill-rule="evenodd"/><path fill="#96d3e5" d="M 330.433594 179.902344 C 343.96875 188.957031 346.023438 197.824219 363.109375 183.074219 C 366.9375 179.808594 370.953125 163.195312 360.871094 156.007812 C 225.582031 59.027344 232.492188 88.988281 330.433594 179.902344 Z M 330.433594 179.902344 " fill-opacity="1" fill-rule="evenodd"/><path fill="#8dd0e1" d="M 349.851562 191.011719 C 353.308594 190.636719 357.414062 188.394531 363.296875 183.167969 C 367.125 179.902344 371.140625 163.289062 361.054688 156.101562 C 321.097656 127.445312 293.554688 109.898438 277.027344 101.683594 C 281.507812 107.375 335.289062 137.898438 352.933594 159.742188 C 368.992188 179.527344 349.105469 191.101562 349.851562 191.011719 Z M 349.851562 191.011719 " fill-opacity="1" fill-rule="evenodd"/><path fill="#92d0d8" d="M 393.453125 298.445312 C 403.445312 295.832031 413.714844 290.417969 418.570312 292.472656 C 420.53125 293.3125 420.902344 296.671875 421.277344 299.285156 C 422.957031 310.578125 413.527344 328.035156 399.335938 320.753906 C 398.589844 320.378906 393.453125 328.5 381.035156 326.445312 C 371.886719 321.125 368.523438 307.40625 371.046875 303.953125 C 374.6875 301.339844 386.359375 300.21875 393.453125 298.445312 Z M 393.453125 298.445312 " fill-opacity="1" fill-rule="evenodd"/><path fill="#543417" d="M 407.457031 310.859375 C 407.085938 313.378906 413.058594 311.886719 408.671875 309.179688 C 408.578125 309.367188 407.550781 309.738281 407.457031 310.859375 Z M 407.457031 310.859375 " fill-opacity="1" fill-rule="evenodd"/><path fill="#543417" d="M 382.25 317.859375 C 381.875 320.285156 387.851562 318.886719 383.464844 316.179688 C 383.464844 316.367188 382.4375 316.738281 382.25 317.859375 Z M 382.25 317.859375 " fill-opacity="1" fill-rule="evenodd"/><path fill="#f9d2cf" d="M 408.484375 249.90625 C 418.195312 241.878906 427.53125 248.320312 421.277344 253.734375 C 416.328125 258.027344 407.457031 260.457031 406.617188 253.175781 C 406.523438 251.585938 407.832031 250.46875 408.484375 249.90625 Z M 408.484375 249.90625 " fill-opacity="1" fill-rule="evenodd"/><path fill="#f9d2cf" d="M 350.320312 279.402344 C 358.160156 269.601562 368.617188 274.082031 363.671875 280.523438 C 359.75 285.75 351.53125 289.855469 349.199219 282.949219 C 348.640625 281.457031 349.757812 280.148438 350.320312 279.402344 Z M 350.320312 279.402344 " fill-opacity="1" fill-rule="evenodd"/><path fill="#92d0d8" d="M 354.707031 463.46875 C 350.785156 472.617188 346.304688 494.554688 333.234375 515.460938 C 328.753906 522.648438 349.574219 530.675781 355.734375 528.25 C 395.695312 512.847656 441.070312 419.320312 382.71875 340.726562 C 350.320312 297.230469 302.421875 328.128906 293.085938 370.410156 C 285.710938 403.453125 304.476562 442.46875 354.707031 463.46875 Z M 354.707031 463.46875 " fill-opacity="1" fill-rule="evenodd"/><path fill="#92d0d8" d="M 478.789062 314.6875 C 490.460938 307.871094 513.988281 288.832031 544.144531 275.578125 C 554.414062 271.097656 543.863281 245.988281 536.394531 244.773438 C 380.847656 289.203125 421.835938 347.914062 478.789062 314.6875 Z M 478.789062 314.6875 " fill-opacity="1" fill-rule="evenodd"/><path fill="#789f3d" d="M 349.386719 207.15625 C 348.171875 206.691406 346.492188 206.597656 344.71875 206.878906 C 347.144531 211.265625 343.597656 216.863281 342.101562 214.4375 C 341.261719 213.132812 342.757812 208.558594 343.691406 207.15625 C 343.691406 207.0625 343.785156 207.0625 343.785156 206.972656 C 342.011719 207.25 339.957031 207.90625 337.996094 208.746094 C 341.355469 212.570312 339.117188 218.824219 337.0625 216.773438 C 335.941406 215.652344 336.316406 210.796875 336.96875 209.210938 C 334.914062 210.144531 332.859375 211.265625 330.992188 212.570312 C 334.726562 215.464844 333.980469 221.53125 331.644531 220.132812 C 330.433594 219.386719 329.777344 215 329.964844 213.316406 C 329.871094 213.410156 329.777344 213.503906 329.6875 213.503906 C 328.378906 214.53125 327.070312 215.746094 326.042969 216.957031 C 329.871094 218.917969 329.964844 224.613281 327.726562 223.585938 C 326.511719 223.027344 325.484375 219.199219 325.484375 217.707031 C 325.484375 217.613281 325.484375 217.613281 325.484375 217.519531 C 324.363281 218.824219 323.429688 220.132812 322.589844 221.4375 C 325.671875 222.746094 326.230469 227.132812 324.363281 226.480469 C 323.429688 226.105469 322.308594 223.304688 322.125 222.09375 C 320.910156 223.960938 320.070312 225.734375 319.507812 226.851562 C 319.601562 226.945312 319.695312 227.226562 319.695312 227.414062 C 319.695312 228.53125 318.761719 231.613281 317.828125 232.078125 C 316.054688 232.828125 316.242188 228.347656 319.320312 226.851562 C 319.601562 226.105469 319.882812 225.359375 320.164062 224.613281 C 319.042969 225.453125 316.894531 226.574219 316.148438 226.292969 C 314.28125 225.640625 317.453125 222.464844 320.722656 223.492188 C 321.46875 222.09375 322.214844 220.691406 323.148438 219.480469 C 321.9375 220.132812 319.601562 221.066406 318.855469 220.597656 C 317.082031 219.664062 320.722656 216.957031 323.898438 218.453125 C 324.644531 217.425781 325.484375 216.492188 326.417969 215.652344 C 325.109375 216.117188 322.871094 216.398438 322.214844 215.933594 C 320.628906 214.71875 324.644531 212.757812 327.445312 214.625 C 328.84375 213.226562 330.433594 212.105469 331.925781 210.984375 C 329.777344 211.078125 326.136719 210.703125 325.390625 209.679688 C 323.617188 207.25 330.339844 205.945312 333.699219 209.863281 C 335.660156 208.746094 337.621094 207.8125 339.394531 207.34375 L 339.488281 207.34375 C 337.25 207.0625 333.421875 206.039062 332.859375 204.730469 C 331.460938 201.835938 338.835938 201.742188 341.542969 206.691406 C 341.542969 206.691406 341.542969 206.785156 341.542969 206.785156 C 343.503906 206.316406 345.558594 205.945312 347.613281 206.039062 C 351.71875 205.945312 350.414062 207.53125 349.386719 207.15625 Z M 349.386719 207.15625 " fill-opacity="1" fill-rule="evenodd"/><path fill="#789f3d" d="M 377.582031 189.609375 C 377.675781 188.304688 378.140625 186.808594 379.074219 185.128906 C 382.25 189.050781 388.785156 187.742188 387.105469 185.410156 C 386.171875 184.195312 381.410156 183.824219 379.824219 184.195312 C 379.730469 184.195312 379.730469 184.195312 379.636719 184.289062 C 380.570312 182.703125 381.875 181.117188 383.371094 179.527344 C 385.703125 184.007812 392.332031 184.289062 391.214844 181.582031 C 390.558594 180.089844 385.890625 178.6875 384.210938 178.6875 C 385.796875 177.101562 387.664062 175.609375 389.625 174.394531 C 390.933594 178.96875 396.910156 180.460938 396.347656 177.847656 C 396.066406 176.449219 392.332031 174.207031 390.652344 173.742188 C 390.746094 173.648438 390.839844 173.648438 390.933594 173.554688 C 392.425781 172.714844 393.921875 171.96875 395.507812 171.410156 C 395.882812 175.703125 401.109375 177.847656 401.015625 175.421875 C 400.921875 174.113281 397.75 171.6875 396.441406 171.222656 C 396.347656 171.222656 396.347656 171.222656 396.253906 171.222656 C 397.84375 170.660156 399.429688 170.289062 400.921875 170.007812 C 401.015625 173.367188 404.9375 175.515625 405.03125 173.554688 C 405.125 172.527344 402.882812 170.476562 401.761719 169.820312 C 404.003906 169.449219 405.871094 169.261719 407.179688 169.167969 C 407.273438 169.355469 407.457031 169.542969 407.644531 169.542969 C 408.671875 169.914062 411.941406 170.195312 412.6875 169.449219 C 414.085938 168.046875 409.792969 166.554688 407.273438 168.886719 C 406.429688 168.886719 405.683594 168.792969 404.84375 168.886719 C 406.058594 168.140625 407.832031 166.554688 407.925781 165.714844 C 408.019531 163.753906 403.910156 165.527344 403.539062 168.980469 C 401.949219 169.074219 400.363281 169.355469 398.867188 169.726562 C 399.988281 168.886719 401.578125 167.019531 401.484375 166.179688 C 401.296875 164.222656 397.375 166.648438 397.65625 170.007812 C 396.441406 170.382812 395.226562 170.753906 394.105469 171.222656 C 395.039062 170.101562 396.160156 168.234375 395.882812 167.394531 C 395.320312 165.527344 391.960938 168.515625 392.707031 171.78125 C 390.933594 172.621094 389.253906 173.554688 387.664062 174.675781 C 388.597656 172.714844 389.53125 169.261719 388.878906 168.140625 C 387.292969 165.527344 383.558594 171.316406 385.984375 175.980469 C 384.210938 177.382812 382.625 178.875 381.503906 180.367188 L 381.410156 180.460938 C 381.96875 178.316406 382.34375 174.394531 381.410156 173.273438 C 379.261719 170.847656 376.460938 177.753906 380.007812 182.050781 C 380.007812 182.050781 380.101562 182.050781 380.101562 182.050781 C 378.890625 183.730469 377.863281 185.503906 377.113281 187.464844 C 375.527344 191.382812 377.488281 190.730469 377.582031 189.609375 Z M 377.582031 189.609375 " fill-opacity="1" fill-rule="evenodd"/><path fill="#a59bcc" d="M 336.222656 205.945312 C 330.152344 207.34375 321.375 193.25 335.101562 192.503906 C 339.675781 193.4375 340.140625 195.582031 340.050781 194.648438 C 339.582031 190.078125 339.957031 185.222656 343.691406 182.890625 C 347.144531 180.742188 356.386719 182.421875 355.640625 191.851562 C 355.453125 194.558594 358.253906 188.957031 364.230469 191.382812 C 375.621094 195.863281 362.832031 201.835938 364.042969 202.675781 C 367.683594 205.105469 370.019531 207.53125 369.367188 210.238281 C 368.804688 212.476562 361.242188 215.652344 359.09375 214.625 C 360.308594 220.597656 348.824219 232.078125 343.128906 216.492188 C 338.742188 219.757812 332.765625 218.078125 332.488281 214.066406 C 332.113281 210.332031 335.941406 206.222656 336.222656 205.945312 Z M 336.222656 205.945312 " fill-opacity="1" fill-rule="evenodd"/><path fill="#fbbf26" d="M 341.449219 204.449219 C 339.957031 206.503906 344.996094 207.996094 344.8125 205.476562 C 344.71875 203.609375 342.007812 203.703125 341.449219 204.449219 Z M 341.449219 204.449219 " fill-opacity="1" fill-rule="evenodd"/><path fill="#fbbf26" d="M 346.210938 200.15625 C 345.371094 205.199219 352.746094 203.238281 349.386719 199.597656 C 348.824219 198.945312 346.304688 199.691406 346.210938 200.15625 Z M 346.210938 200.15625 " fill-opacity="1" fill-rule="evenodd"/><path fill="#fbbf26" d="M 347.050781 206.222656 C 344.8125 205.757812 346.863281 203.050781 347.796875 205.011719 C 347.984375 205.289062 347.238281 206.222656 347.050781 206.222656 Z M 347.050781 206.222656 " fill-opacity="1" fill-rule="evenodd"/><path fill="#fbbf26" d="M 350.878906 204.636719 C 350.972656 207.15625 355.921875 205.289062 354.148438 203.332031 C 352.933594 201.929688 350.785156 203.703125 350.878906 204.636719 Z M 350.878906 204.636719 " fill-opacity="1" fill-rule="evenodd"/><path fill="#fbbf26" d="M 352 198.382812 C 354.425781 202.863281 359.003906 196.796875 354.148438 195.957031 C 353.308594 195.863281 351.8125 197.917969 352 198.382812 Z M 352 198.382812 " fill-opacity="1" fill-rule="evenodd"/><path fill="#fbbf26" d="M 356.292969 202.675781 C 354.242188 203.703125 354.148438 200.25 356.203125 201.277344 C 356.480469 201.371094 356.480469 202.585938 356.292969 202.675781 Z M 356.292969 202.675781 " fill-opacity="1" fill-rule="evenodd"/><path fill="#fbbf26" d="M 357.042969 206.503906 C 354.800781 206.039062 356.855469 203.332031 357.789062 205.289062 C 357.976562 205.664062 357.320312 206.597656 357.042969 206.503906 Z M 357.042969 206.503906 " fill-opacity="1" fill-rule="evenodd"/><path fill="#fbbf26" d="M 346.585938 195.957031 C 349.011719 200.4375 353.585938 194.371094 348.730469 193.53125 C 347.796875 193.4375 346.304688 195.582031 346.585938 195.957031 Z M 346.585938 195.957031 " fill-opacity="1" fill-rule="evenodd"/><path fill="#fbbf26" d="M 351.8125 208.746094 C 349.574219 208.277344 351.625 205.570312 352.558594 207.53125 C 352.746094 207.90625 352.09375 208.835938 351.8125 208.746094 Z M 351.8125 208.746094 " fill-opacity="1" fill-rule="evenodd"/><path fill="#fbbf26" d="M 347.796875 209.769531 C 345.558594 209.304688 347.613281 206.597656 348.546875 208.558594 C 348.730469 208.835938 347.984375 209.769531 347.796875 209.769531 Z M 347.796875 209.769531 " fill-opacity="1" fill-rule="evenodd"/><path fill="#fbbf26" d="M 344.34375 202.957031 C 342.101562 202.492188 344.15625 199.785156 345.089844 201.742188 C 345.277344 202.023438 344.53125 202.957031 344.34375 202.957031 Z M 344.34375 202.957031 " fill-opacity="1" fill-rule="evenodd"/><path fill="#fbbf26" d="M 342.757812 199.410156 C 340.515625 198.945312 342.570312 196.238281 343.503906 198.195312 C 343.691406 198.570312 342.945312 199.503906 342.757812 199.410156 Z M 342.757812 199.410156 " fill-opacity="1" fill-rule="evenodd"/><path fill="#52bbc9" d="M 337.15625 220.410156 C 340.140625 225.359375 348.453125 226.851562 348.546875 224.707031 C 348.640625 222.933594 344.34375 221.160156 340.140625 218.730469 C 337.621094 217.238281 339.117188 218.359375 341.261719 218.546875 C 345.652344 218.824219 352.839844 215.839844 346.023438 215.371094 C 343.785156 215.183594 340.703125 216.023438 339.394531 215.933594 C 355.921875 208.089844 341.542969 212.011719 338.929688 213.039062 C 339.675781 211.078125 339.394531 204.078125 337.808594 203.238281 C 335.941406 202.210938 334.261719 206.316406 335.382812 213.316406 C 329.125 202.117188 324.738281 201.652344 331.273438 213.316406 C 320.535156 207.90625 322.871094 214.160156 325.949219 215.089844 C 326.605469 215.277344 330.527344 216.210938 330.527344 216.210938 C 326.417969 218.265625 323.335938 221.34375 323.710938 221.8125 C 324.457031 222.652344 332.488281 219.199219 332.394531 219.386719 C 330.527344 224.050781 333.605469 229 334.261719 228.53125 C 336.78125 226.945312 338.460938 222.652344 337.15625 220.410156 Z M 337.15625 220.410156 " fill-opacity="1" fill-rule="evenodd"/><path fill="#fbbf26" d="M 336.40625 213.785156 C 336.5 213.785156 340.796875 214.90625 337.621094 217.238281 C 335.753906 218.546875 331.273438 215.464844 336.40625 213.785156 Z M 336.40625 213.785156 " fill-opacity="1" fill-rule="evenodd"/><path fill="#e95707" d="M 366.097656 197.355469 C 363.390625 201.371094 371.046875 211.824219 375.527344 202.023438 C 376.179688 198.382812 374.78125 197.449219 375.339844 197.824219 C 378.515625 199.503906 382.15625 200.625 384.957031 198.570312 C 387.570312 196.703125 388.972656 189.421875 381.875 187.277344 C 379.824219 186.621094 384.675781 186.25 384.769531 181.117188 C 384.769531 171.5 376.742188 179.15625 376.460938 178.035156 C 375.714844 174.675781 374.6875 172.15625 372.445312 171.96875 C 366.84375 171.5 367.5 178.316406 367.683594 180.277344 C 363.390625 175.890625 350.597656 180.648438 360.308594 189.328125 C 356.667969 191.570312 356.203125 196.421875 359.003906 197.824219 C 361.617188 199.039062 365.722656 197.449219 366.097656 197.355469 Z M 366.097656 197.355469 " fill-opacity="1" fill-rule="evenodd"/><path fill="#fbbf26" d="M 370.484375 184.195312 C 370.578125 184.101562 377.582031 184.101562 375.621094 191.289062 C 373.660156 198.289062 361.054688 188.582031 370.484375 184.195312 Z M 370.484375 184.195312 " fill-opacity="1" fill-rule="evenodd"/><path fill="#52bbc9" d="M 382.34375 183.167969 C 378.046875 181.675781 375.621094 175.609375 377.207031 175.234375 C 378.515625 174.863281 380.570312 177.847656 383.089844 180.648438 C 384.585938 182.328125 383.558594 181.394531 383.089844 179.808594 C 382.15625 176.542969 383.277344 170.566406 384.769531 175.703125 C 385.238281 177.382812 385.144531 179.808594 385.425781 180.835938 C 388.785156 167.113281 388.039062 178.59375 387.757812 180.648438 C 389.160156 179.808594 394.480469 178.875 395.320312 179.902344 C 396.347656 181.117188 393.546875 183.074219 388.039062 183.355469 C 397.5625 186.25 398.589844 189.515625 388.691406 186.53125 C 394.574219 193.808594 389.4375 192.96875 388.226562 190.917969 C 387.945312 190.449219 386.636719 187.648438 386.636719 187.648438 C 385.703125 191.101562 383.835938 193.902344 383.464844 193.714844 C 382.71875 193.25 384.023438 186.714844 383.929688 186.714844 C 380.757812 188.957031 376.460938 187.371094 376.648438 186.714844 C 377.488281 184.476562 380.382812 182.515625 382.34375 183.167969 Z M 382.34375 183.167969 " fill-opacity="1" fill-rule="evenodd"/><path fill="#fbbf26" d="M 387.476562 182.703125 C 387.476562 182.609375 385.890625 179.621094 384.675781 182.328125 C 384.023438 183.914062 387.011719 186.808594 387.476562 182.703125 Z M 387.476562 182.703125 " fill-opacity="1" fill-rule="evenodd"/></svg>