<svg xmlns="http://www.w3.org/2000/svg" xmlns:xlink="http://www.w3.org/1999/xlink" width="940" zoomAndPan="magnify" viewBox="0 0 705 591.000005" height="788" preserveAspectRatio="xMidYMid meet" version="1.0"><defs><clipPath id="c046440b9a"><path d="M 197 498 L 504 498 L 504 537.65625 L 197 537.65625 Z M 197 498 " clip-rule="nonzero"/></clipPath></defs><path fill="#42424c" d="M 493.253906 517.570312 C 493.253906 526.492188 429.699219 533.742188 351.144531 533.742188 C 272.59375 533.742188 209.035156 526.492188 209.035156 517.570312 C 209.035156 508.644531 272.59375 501.421875 351.144531 501.421875 C 429.699219 501.421875 493.253906 508.644531 493.253906 517.570312 Z M 493.253906 517.570312 " fill-opacity="0.098" fill-rule="nonzero"/><g clip-path="url(#c046440b9a)"><path fill="#42424c" d="M 351.144531 537.402344 C 312.148438 537.707031 273.050781 536.792969 234.203125 531.605469 C 224.414062 530.460938 214.839844 528.351562 205.476562 525.273438 C 202.96875 524.433594 200.734375 523.128906 198.765625 521.355469 C 198.496094 521.082031 198.269531 520.777344 198.078125 520.441406 C 197.839844 520.097656 197.6875 519.714844 197.621094 519.296875 C 197.375 518.417969 197.460938 517.570312 197.875 516.753906 C 198.078125 516.398438 198.28125 516.066406 198.511719 515.738281 L 199.273438 515 C 199.769531 514.53125 200.300781 514.117188 200.875 513.753906 C 205.316406 511.410156 209.996094 509.714844 214.910156 508.667969 C 224.472656 506.488281 234.121094 504.835938 243.863281 503.710938 C 253.574219 502.523438 263.296875 501.566406 273.023438 500.835938 C 292.523438 499.464844 312.019531 498.726562 331.496094 498.445312 C 350.96875 498.167969 370.515625 498.320312 389.964844 499.105469 C 409.414062 499.894531 428.9375 501.089844 448.4375 503.203125 C 458.121094 504.320312 467.808594 505.742188 477.390625 507.472656 C 482.195312 508.378906 486.941406 509.523438 491.628906 510.90625 C 493.96875 511.589844 496.25 512.4375 498.464844 513.449219 C 499.578125 513.984375 500.628906 514.621094 501.617188 515.355469 C 502.132812 515.707031 502.550781 516.144531 502.878906 516.671875 C 503.207031 517.195312 503.414062 517.769531 503.5 518.382812 C 503.402344 517.773438 503.183594 517.210938 502.847656 516.691406 C 502.511719 516.171875 502.085938 515.746094 501.566406 515.40625 C 500.574219 514.707031 499.523438 514.105469 498.414062 513.601562 C 496.183594 512.601562 493.894531 511.753906 491.550781 511.058594 C 486.847656 509.761719 482.070312 508.796875 477.289062 507.957031 C 467.679688 506.328125 457.996094 505.210938 448.308594 504.320312 C 428.910156 502.464844 409.4375 501.445312 389.839844 500.9375 C 350.890625 499.945312 311.867188 500.378906 273.050781 503.253906 C 263.339844 503.929688 253.652344 504.835938 243.992188 505.972656 C 234.335938 507.054688 224.769531 508.664062 215.289062 510.804688 C 210.601562 511.75 206.136719 513.328125 201.894531 515.535156 C 201 516.039062 200.277344 516.722656 199.730469 517.59375 C 199.375 518.28125 199.578125 518.917969 200.242188 519.679688 C 201.964844 521.191406 203.914062 522.308594 206.085938 523.035156 C 215.363281 526.1875 224.855469 528.433594 234.558594 529.773438 C 253.804688 532.699219 273.253906 534.273438 292.699219 535.445312 C 312.148438 536.613281 331.648438 537.402344 351.144531 537.402344 Z M 351.144531 537.402344 " fill-opacity="0.098" fill-rule="nonzero"/></g><path fill="#c97c5d" d="M 263.898438 451.960938 C 255.609375 448.9375 237.6875 444.332031 234.890625 418.574219 C 232.09375 392.816406 246.660156 330.921875 227.492188 275.867188 C 208.324219 220.816406 150.84375 157.929688 130.660156 149.183594 C 130.660156 149.183594 143.371094 200.039062 139.074219 241.363281 C 134.777344 282.683594 121.8125 360.191406 155.21875 409.828125 C 191.851562 464.296875 251.238281 471.035156 263.898438 471.035156 Z M 263.898438 451.960938 " fill-opacity="1" fill-rule="nonzero"/><path fill="#eed7c5" d="M 208.171875 249.90625 C 204.5625 252.703125 192.488281 234.648438 191.851562 233.808594 C 192.105469 235.15625 197.800781 265.597656 192.84375 266.382812 C 187.886719 267.171875 178.960938 244.488281 178.429688 243.089844 C 178.632812 244.539062 182.140625 268.519531 178.429688 268.925781 C 174.71875 269.332031 170.191406 255.984375 170.191406 255.984375 C 170.191406 255.984375 171.03125 282.378906 164.648438 282.378906 C 155.242188 282.378906 151.378906 246.777344 151.378906 246.777344 C 151.378906 246.777344 150.285156 267.859375 144.949219 268.570312 C 142.40625 268.925781 138.898438 261.171875 138.898438 243.140625 C 138.898438 242.582031 138.898438 241.996094 139.074219 241.464844 C 143.371094 200.039062 130.660156 149.183594 130.660156 149.183594 C 145.253906 155.488281 179.34375 190.125 204.382812 229.714844 C 207.359375 237.648438 210.636719 248.023438 208.171875 249.90625 Z M 208.171875 249.90625 " fill-opacity="1" fill-rule="nonzero"/><path fill="#af6348" d="M 156.3125 396.832031 C 155.855469 395.664062 155.371094 394.519531 154.835938 393.375 C 153.988281 391.171875 152.917969 389.078125 151.632812 387.09375 C 151.453125 386.863281 151.222656 386.703125 150.941406 386.613281 C 150.664062 386.523438 150.382812 386.519531 150.101562 386.605469 C 149.820312 386.691406 149.585938 386.847656 149.402344 387.074219 C 149.21875 387.304688 149.113281 387.5625 149.089844 387.855469 C 149.339844 390.492188 150.117188 392.957031 151.429688 395.257812 C 151.960938 396.335938 152.570312 397.371094 153.261719 398.359375 C 153.910156 399.464844 154.753906 400.390625 155.804688 401.128906 C 155.957031 401.210938 156.121094 401.25 156.296875 401.242188 C 156.46875 401.234375 156.632812 401.1875 156.78125 401.097656 C 156.929688 401.003906 157.042969 400.882812 157.128906 400.730469 C 157.210938 400.578125 157.253906 400.414062 157.253906 400.242188 C 157.140625 399.050781 156.824219 397.914062 156.3125 396.832031 Z M 156.3125 396.832031 " fill-opacity="1" fill-rule="nonzero"/><path fill="#af6348" d="M 147.210938 375.039062 C 146.90625 374.101562 146.675781 373.160156 146.398438 372.21875 C 146.148438 371.132812 145.675781 370.15625 144.972656 369.292969 C 144.832031 369.167969 144.667969 369.082031 144.488281 369.027344 C 144.304688 368.976562 144.121094 368.964844 143.933594 368.992188 C 143.75 369.023438 143.578125 369.089844 143.421875 369.195312 C 143.265625 369.300781 143.136719 369.4375 143.042969 369.597656 C 142.75 370.703125 142.652344 371.824219 142.757812 372.957031 C 142.863281 374.09375 143.160156 375.179688 143.652344 376.210938 C 144.273438 378.386719 145.351562 380.3125 146.878906 381.984375 C 147.097656 382.171875 147.347656 382.277344 147.632812 382.304688 C 147.914062 382.335938 148.183594 382.277344 148.429688 382.136719 C 148.667969 381.972656 148.839844 381.757812 148.941406 381.484375 C 149.046875 381.214844 149.0625 380.941406 148.988281 380.660156 C 148.511719 378.75 147.917969 376.878906 147.210938 375.039062 Z M 147.210938 375.039062 " fill-opacity="1" fill-rule="nonzero"/><path fill="#af6348" d="M 143.144531 360.980469 C 143.144531 360.292969 143.144531 359.605469 142.9375 358.894531 C 142.734375 358.179688 142.683594 357.316406 142.507812 356.554688 C 142.34375 355.808594 142.089844 355.097656 141.746094 354.417969 C 141.609375 354.210938 141.425781 354.054688 141.199219 353.953125 C 140.96875 353.851562 140.730469 353.820312 140.484375 353.859375 C 140.238281 353.898438 140.023438 354 139.835938 354.164062 C 139.648438 354.332031 139.523438 354.535156 139.457031 354.773438 C 139.328125 355.535156 139.328125 356.300781 139.457031 357.0625 C 139.546875 357.921875 139.707031 358.769531 139.941406 359.605469 C 140.136719 360.292969 140.382812 360.960938 140.675781 361.613281 C 140.980469 362.300781 141.261719 363.214844 141.972656 363.597656 C 142.171875 363.703125 142.375 363.722656 142.585938 363.65625 C 142.800781 363.59375 142.960938 363.460938 143.066406 363.265625 C 143.328125 362.511719 143.351562 361.75 143.144531 360.980469 Z M 143.144531 360.980469 " fill-opacity="1" fill-rule="nonzero"/><path fill="#af6348" d="M 155.421875 383.636719 C 155.433594 383.441406 155.433594 383.246094 155.421875 383.050781 L 155.269531 382.566406 C 155.269531 382.210938 155.039062 381.832031 154.9375 381.449219 C 154.835938 381.066406 154.457031 380.023438 154.253906 379.289062 C 154.046875 378.550781 153.84375 377.839844 153.589844 377.125 C 153.449219 376.679688 153.253906 376.253906 153.007812 375.855469 C 152.875 375.671875 152.730469 375.503906 152.574219 375.347656 L 152.191406 375.066406 C 152.089844 374.898438 151.949219 374.777344 151.765625 374.707031 C 151.578125 374.636719 151.394531 374.632812 151.207031 374.6875 C 151.015625 374.746094 150.867188 374.855469 150.75 375.015625 C 150.636719 375.175781 150.582031 375.351562 150.589844 375.550781 C 150.164062 377.207031 150.335938 378.800781 151.101562 380.328125 C 151.316406 381.082031 151.570312 381.816406 151.863281 382.542969 C 152.121094 383.484375 152.5625 384.332031 153.183594 385.085938 C 153.425781 385.300781 153.710938 385.425781 154.03125 385.460938 C 154.355469 385.492188 154.65625 385.425781 154.9375 385.261719 C 155.207031 385.085938 155.394531 384.847656 155.507812 384.550781 C 155.621094 384.25 155.632812 383.945312 155.546875 383.636719 C 155.421875 383.839844 155.445312 383.839844 155.421875 383.636719 Z M 155.421875 383.636719 " fill-opacity="1" fill-rule="nonzero"/><path fill="#af6348" d="M 139.992188 343.179688 C 139.992188 342.515625 139.992188 341.855469 139.785156 341.195312 C 139.753906 340.273438 139.390625 339.511719 138.695312 338.90625 C 138.515625 338.8125 138.328125 338.78125 138.128906 338.816406 C 137.929688 338.847656 137.761719 338.9375 137.625 339.085938 C 137.152344 339.730469 136.972656 340.453125 137.09375 341.246094 C 137.09375 341.90625 137.246094 342.59375 137.347656 343.253906 C 137.449219 343.917969 137.601562 344.703125 137.753906 345.417969 C 137.828125 346.019531 138.015625 346.589844 138.3125 347.121094 L 138.441406 347.425781 C 138.488281 347.582031 138.578125 347.707031 138.710938 347.808594 C 138.839844 347.90625 138.988281 347.957031 139.152344 347.960938 C 139.429688 347.960938 139.8125 347.703125 139.839844 347.398438 C 139.863281 347.09375 139.992188 346.664062 140.015625 346.28125 C 140.042969 345.898438 140.015625 345.570312 140.015625 345.1875 C 140.015625 344.804688 140.042969 343.863281 139.992188 343.179688 Z M 139.992188 343.179688 " fill-opacity="1" fill-rule="nonzero"/><path fill="#af6348" d="M 166.023438 412.320312 L 165.792969 411.8125 C 165.789062 411.4375 165.667969 411.109375 165.4375 410.820312 L 165.003906 410.207031 C 164.789062 409.933594 164.5625 409.671875 164.320312 409.421875 L 164.117188 409.167969 L 163.964844 408.988281 C 163.765625 408.707031 163.554688 408.433594 163.328125 408.175781 L 163.125 407.945312 L 163.125 407.765625 C 162.757812 407.230469 162.328125 406.757812 161.828125 406.34375 C 161.496094 406.164062 161.167969 406.164062 160.835938 406.34375 C 160.527344 406.550781 160.367188 406.839844 160.351562 407.207031 C 160.355469 407.820312 160.5 408.394531 160.785156 408.9375 C 161.039062 409.523438 161.347656 410.082031 161.699219 410.617188 C 162.074219 411.121094 162.480469 411.59375 162.921875 412.039062 C 163.199219 412.269531 163.503906 412.445312 163.8125 412.648438 C 163.980469 412.777344 164.164062 412.871094 164.371094 412.929688 C 164.589844 412.996094 164.8125 412.996094 165.03125 412.929688 L 165.617188 412.929688 C 165.746094 412.886719 165.851562 412.808594 165.925781 412.695312 C 166.003906 412.582031 166.035156 412.457031 166.023438 412.320312 Z M 166.023438 412.320312 " fill-opacity="1" fill-rule="nonzero"/><path fill="#af6348" d="M 163.964844 401.539062 L 163.734375 401.078125 C 163.734375 401.078125 163.734375 400.800781 163.53125 400.648438 C 163.328125 400.496094 163.199219 400.089844 163.046875 399.78125 L 162.84375 399.375 C 162.855469 399.300781 162.855469 399.222656 162.84375 399.148438 L 162.691406 398.816406 C 162.65625 398.746094 162.613281 398.675781 162.566406 398.613281 L 162.3125 398.179688 C 162.132812 397.902344 162.007812 397.648438 161.828125 397.394531 C 161.707031 397.171875 161.546875 396.984375 161.34375 396.832031 L 160.9375 396.578125 C 160.757812 396.484375 160.574219 396.46875 160.378906 396.527344 C 160.1875 396.585938 160.042969 396.707031 159.945312 396.882812 C 159.757812 397.222656 159.671875 397.589844 159.691406 397.976562 C 159.730469 398.382812 159.804688 398.78125 159.921875 399.171875 C 160.105469 399.914062 160.386719 400.617188 160.761719 401.28125 C 161.054688 401.875 161.402344 402.4375 161.800781 402.960938 C 162.285156 403.597656 162.84375 404.460938 163.683594 404.664062 C 163.828125 404.695312 163.976562 404.695312 164.121094 404.660156 C 164.265625 404.625 164.394531 404.558594 164.511719 404.464844 C 164.625 404.371094 164.714844 404.257812 164.78125 404.125 C 164.84375 403.988281 164.878906 403.847656 164.878906 403.699219 C 164.828125 402.886719 164.269531 402.171875 163.964844 401.539062 Z M 163.964844 401.539062 " fill-opacity="1" fill-rule="nonzero"/><path fill="#af6348" d="M 164.191406 393.324219 C 163.964844 392.816406 163.734375 392.308594 163.480469 391.824219 C 163.226562 391.339844 163.199219 391.367188 163.046875 391.164062 C 162.90625 390.921875 162.722656 390.726562 162.488281 390.578125 L 162.109375 390.578125 C 161.96875 390.449219 161.800781 390.386719 161.613281 390.386719 C 161.421875 390.386719 161.257812 390.449219 161.117188 390.578125 C 160.921875 390.824219 160.839844 391.105469 160.863281 391.417969 C 160.753906 391.929688 160.8125 392.421875 161.039062 392.890625 C 161.167969 393.273438 161.34375 393.628906 161.496094 394.011719 C 161.648438 394.390625 161.878906 394.902344 162.082031 395.332031 C 162.308594 395.753906 162.578125 396.144531 162.894531 396.503906 C 163.09375 396.691406 163.324219 396.796875 163.59375 396.824219 C 163.863281 396.855469 164.113281 396.796875 164.34375 396.65625 C 164.570312 396.503906 164.726562 396.304688 164.820312 396.050781 C 164.914062 395.796875 164.925781 395.542969 164.851562 395.28125 C 164.738281 394.59375 164.515625 393.941406 164.191406 393.324219 Z M 164.191406 393.324219 " fill-opacity="1" fill-rule="nonzero"/><path fill="#af6348" d="M 149.347656 365.402344 L 149.347656 365.074219 C 149.359375 364.859375 149.359375 364.648438 149.347656 364.4375 C 149.347656 364.105469 149.191406 363.777344 149.140625 363.445312 C 149.089844 363.113281 148.914062 362.226562 148.761719 361.613281 C 148.609375 361.003906 148.40625 360.367188 148.152344 360.394531 C 147.898438 360.417969 148.152344 360.394531 148.152344 360.394531 C 148.085938 360.273438 148 360.171875 147.898438 360.089844 L 147.71875 359.960938 C 147.65625 359.855469 147.566406 359.769531 147.460938 359.707031 C 147.351562 359.648438 147.234375 359.617188 147.109375 359.617188 C 146.984375 359.617188 146.867188 359.648438 146.757812 359.707031 C 146.648438 359.769531 146.5625 359.855469 146.5 359.960938 L 146.5 360.265625 C 146.402344 360.351562 146.324219 360.453125 146.269531 360.570312 C 146.269531 360.878906 146.269531 360.953125 146.269531 360.75 C 146.082031 361.179688 145.996094 361.628906 146.015625 362.097656 C 146.082031 362.859375 146.234375 363.605469 146.472656 364.335938 C 146.671875 365.046875 146.933594 365.734375 147.261719 366.394531 C 147.542969 367.03125 147.90625 367.617188 148.355469 368.148438 C 148.496094 368.28125 148.660156 368.363281 148.851562 368.398438 C 149.042969 368.429688 149.226562 368.40625 149.402344 368.332031 C 149.578125 368.253906 149.71875 368.132812 149.824219 367.972656 C 149.929688 367.808594 149.984375 367.628906 149.980469 367.4375 C 149.828125 366.742188 149.617188 366.0625 149.347656 365.402344 Z M 149.347656 365.402344 " fill-opacity="1" fill-rule="nonzero"/><path fill="#af6348" d="M 146.601562 349.613281 C 146.621094 349.011719 146.46875 348.460938 146.140625 347.960938 C 146.078125 347.785156 146.003906 347.613281 145.914062 347.449219 L 145.710938 347.195312 C 145.652344 347.125 145.582031 347.070312 145.5 347.03125 C 145.417969 346.996094 145.332031 346.976562 145.238281 346.976562 C 145.148438 346.976562 145.0625 346.996094 144.980469 347.03125 C 144.898438 347.070312 144.828125 347.125 144.769531 347.195312 C 144.671875 347.25 144.589844 347.316406 144.515625 347.398438 C 144.363281 347.628906 144.335938 347.652344 144.515625 347.398438 L 144.363281 347.578125 C 144.363281 347.578125 144.058594 348.085938 144.363281 347.730469 C 144.152344 347.96875 143.996094 348.238281 143.90625 348.542969 C 143.855469 348.890625 143.855469 349.238281 143.90625 349.585938 C 143.90625 349.941406 143.90625 350.296875 143.90625 350.628906 C 144.09375 351.773438 144.601562 352.746094 145.429688 353.554688 C 145.523438 353.636719 145.632812 353.691406 145.753906 353.722656 C 145.875 353.75 145.996094 353.746094 146.117188 353.714844 C 146.238281 353.679688 146.34375 353.621094 146.433594 353.535156 C 146.523438 353.445312 146.589844 353.34375 146.625 353.222656 C 146.855469 352.390625 146.9375 351.542969 146.878906 350.679688 C 146.675781 350.398438 146.625 350.019531 146.601562 349.613281 Z M 146.601562 349.613281 " fill-opacity="1" fill-rule="nonzero"/><path fill="#af6348" d="M 143.042969 337.023438 C 143.078125 336.574219 143.078125 336.125 143.042969 335.675781 C 143.035156 335.164062 142.972656 334.652344 142.863281 334.152344 C 142.820312 333.886719 142.726562 333.640625 142.582031 333.414062 L 142.429688 333.210938 C 142.386719 333.117188 142.328125 333.03125 142.253906 332.957031 C 142.183594 332.882812 142.097656 332.832031 142 332.804688 C 141.910156 332.71875 141.804688 332.675781 141.679688 332.675781 C 141.558594 332.675781 141.453125 332.71875 141.363281 332.804688 C 140.976562 333.148438 140.753906 333.582031 140.703125 334.101562 C 140.664062 334.398438 140.664062 334.695312 140.703125 334.992188 C 140.703125 335.246094 140.703125 335.5 140.703125 335.753906 C 140.722656 336.292969 140.78125 336.824219 140.878906 337.355469 C 140.90625 337.898438 141.109375 338.367188 141.492188 338.753906 C 141.625 338.890625 141.785156 338.972656 141.96875 339.003906 C 142.15625 339.039062 142.335938 339.015625 142.507812 338.933594 C 142.683594 338.855469 142.824219 338.738281 142.925781 338.574219 C 143.03125 338.414062 143.078125 338.234375 143.066406 338.042969 C 143.066406 338.042969 143.066406 337.839844 143.066406 337.738281 Z M 143.042969 337.023438 " fill-opacity="1" fill-rule="nonzero"/><path fill="#af6348" d="M 153.71875 358.078125 C 153.675781 357.71875 153.605469 357.363281 153.515625 357.011719 L 153.515625 357.316406 C 153.515625 356.9375 153.515625 356.554688 153.335938 356.171875 C 153.320312 355.699219 153.191406 355.261719 152.957031 354.851562 C 152.753906 354.554688 152.476562 354.402344 152.117188 354.394531 C 151.753906 354.417969 151.484375 354.585938 151.304688 354.902344 C 151.078125 355.335938 151.003906 355.792969 151.074219 356.273438 C 151.101562 356.667969 151.152344 357.058594 151.226562 357.445312 C 151.226562 357.773438 151.378906 358.078125 151.480469 358.386719 C 151.574219 358.609375 151.695312 358.824219 151.835938 359.019531 C 151.996094 359.316406 152.234375 359.519531 152.550781 359.632812 C 152.738281 359.667969 152.921875 359.648438 153.101562 359.570312 C 153.277344 359.488281 153.417969 359.367188 153.515625 359.199219 C 153.691406 358.84375 153.757812 358.472656 153.71875 358.078125 Z M 153.71875 358.078125 " fill-opacity="1" fill-rule="nonzero"/><path fill="#af6348" d="M 138.289062 320.980469 C 138.28125 320.832031 138.246094 320.691406 138.1875 320.558594 C 138.125 320.421875 138.042969 320.304688 137.933594 320.203125 C 137.828125 320.101562 137.707031 320.023438 137.570312 319.96875 C 137.433594 319.914062 137.289062 319.886719 137.144531 319.886719 C 136.84375 319.910156 136.59375 320.035156 136.390625 320.253906 C 136.1875 320.472656 136.082031 320.730469 136.074219 321.03125 C 136.074219 321.792969 136.074219 322.605469 136.074219 323.394531 C 136.019531 324.25 136.078125 325.097656 136.253906 325.9375 C 136.324219 326.140625 136.445312 326.304688 136.617188 326.429688 C 136.789062 326.554688 136.980469 326.621094 137.195312 326.625 C 137.410156 326.609375 137.601562 326.535156 137.769531 326.402344 C 137.9375 326.265625 138.050781 326.09375 138.109375 325.886719 C 138.207031 325.441406 138.265625 324.992188 138.289062 324.539062 C 138.289062 324.15625 138.289062 323.75 138.289062 323.34375 C 138.289062 322.9375 138.289062 321.742188 138.289062 320.980469 Z M 138.289062 320.980469 " fill-opacity="1" fill-rule="nonzero"/><path fill="#af6348" d="M 233.390625 430.195312 L 233.390625 429.6875 C 233.390625 429.457031 233.265625 429.230469 233.214844 429.027344 C 233.164062 428.824219 232.984375 428.136719 232.882812 427.679688 C 232.78125 427.21875 232.425781 426 232.222656 425.136719 C 232.019531 424.269531 231.816406 423.355469 231.585938 422.464844 C 231.511719 422.007812 231.351562 421.585938 231.101562 421.195312 C 231.011719 421.039062 230.898438 420.910156 230.753906 420.804688 C 230.613281 420.699219 230.453125 420.625 230.28125 420.585938 C 230.109375 420.542969 229.933594 420.539062 229.757812 420.570312 C 229.582031 420.601562 229.421875 420.664062 229.273438 420.761719 C 228.359375 421.320312 228.410156 422.847656 228.484375 423.8125 C 228.554688 424.835938 228.742188 425.835938 229.042969 426.8125 C 229.300781 427.703125 229.65625 428.550781 230.113281 429.355469 C 230.570312 430.246094 231.050781 431.261719 232.09375 431.59375 C 232.28125 431.617188 232.464844 431.597656 232.644531 431.535156 C 232.820312 431.46875 232.976562 431.367188 233.105469 431.230469 C 233.234375 431.089844 233.320312 430.929688 233.371094 430.746094 C 233.421875 430.566406 233.429688 430.382812 233.390625 430.195312 Z M 233.390625 430.195312 " fill-opacity="1" fill-rule="nonzero"/><path fill="#af6348" d="M 230.339844 413.210938 C 230.339844 412.371094 230.339844 411.554688 230.339844 410.667969 C 230.339844 409.777344 230.339844 408.960938 230.164062 408.125 C 230.074219 407.636719 229.921875 407.167969 229.703125 406.726562 C 229.703125 406.726562 229.703125 406.445312 229.5 406.265625 C 229.398438 406.117188 229.289062 405.972656 229.171875 405.835938 C 229.113281 405.753906 229.042969 405.691406 228.953125 405.648438 C 228.867188 405.601562 228.773438 405.582031 228.675781 405.582031 C 228.578125 405.582031 228.484375 405.601562 228.398438 405.648438 C 228.308594 405.691406 228.238281 405.753906 228.179688 405.835938 L 227.773438 406.191406 C 227.671875 406.300781 227.589844 406.417969 227.519531 406.546875 C 227.519531 406.699219 227.519531 406.726562 227.519531 406.546875 L 227.214844 406.980469 C 227.132812 407.152344 227.066406 407.332031 227.011719 407.511719 C 226.914062 407.714844 226.847656 407.929688 226.808594 408.148438 C 226.691406 409.105469 226.691406 410.066406 226.808594 411.023438 C 226.808594 412.292969 227.59375 417 229.753906 415.828125 C 230.441406 415.34375 230.339844 414.074219 230.339844 413.210938 Z M 230.339844 413.210938 " fill-opacity="1" fill-rule="nonzero"/><path fill="#af6348" d="M 230.265625 392.714844 C 230.132812 392.507812 229.980469 392.324219 229.804688 392.152344 C 229.585938 391.941406 229.332031 391.882812 229.042969 391.976562 C 229.042969 391.976562 228.535156 392.230469 228.839844 391.976562 L 228.410156 392.152344 C 228.0625 392.417969 227.828125 392.757812 227.695312 393.171875 C 227.4375 393.84375 227.292969 394.539062 227.265625 395.257812 C 227.1875 395.867188 227.1875 396.476562 227.265625 397.085938 C 227.304688 397.679688 227.464844 398.242188 227.746094 398.765625 C 227.851562 398.925781 227.984375 399.050781 228.152344 399.140625 C 228.320312 399.234375 228.496094 399.277344 228.6875 399.277344 C 228.878906 399.277344 229.058594 399.234375 229.222656 399.140625 C 229.390625 399.050781 229.527344 398.925781 229.628906 398.765625 C 229.78125 398.476562 229.882812 398.171875 229.933594 397.851562 L 230.085938 397.1875 C 230.109375 396.945312 230.109375 396.699219 230.085938 396.453125 C 230.085938 396.199219 230.085938 395.941406 230.085938 395.6875 C 230.1875 395.089844 230.238281 394.488281 230.238281 393.882812 C 230.347656 393.496094 230.359375 393.105469 230.265625 392.714844 Z M 230.265625 392.714844 " fill-opacity="1" fill-rule="nonzero"/><path fill="#af6348" d="M 232.476562 377.941406 C 232.378906 377.175781 232.167969 376.449219 231.839844 375.753906 C 231.765625 375.492188 231.59375 375.347656 231.324219 375.316406 C 231.054688 375.285156 230.855469 375.390625 230.722656 375.625 C 230.28125 376.242188 229.941406 376.914062 229.703125 377.632812 C 229.507812 378.402344 229.390625 379.183594 229.347656 379.972656 C 229.273438 380.675781 229.273438 381.382812 229.347656 382.085938 L 229.347656 382.871094 C 229.355469 383.105469 229.421875 383.316406 229.550781 383.507812 C 229.625 383.824219 229.769531 384.105469 229.984375 384.347656 C 230.125 384.449219 230.28125 384.496094 230.453125 384.496094 C 230.628906 384.496094 230.785156 384.449219 230.925781 384.347656 C 231.242188 384.121094 231.472656 383.824219 231.613281 383.457031 C 231.808594 383.085938 231.953125 382.699219 232.042969 382.289062 C 232.25 381.523438 232.371094 380.742188 232.398438 379.949219 C 232.496094 379.28125 232.519531 378.613281 232.476562 377.941406 Z M 232.476562 377.941406 " fill-opacity="1" fill-rule="nonzero"/><path fill="#af6348" d="M 225.917969 424.167969 C 225.980469 423.449219 225.980469 422.726562 225.917969 422.007812 C 225.917969 421.195312 225.738281 420.378906 225.664062 419.464844 C 225.585938 418.550781 225.433594 417.683594 225.28125 416.921875 C 225.203125 416.511719 225.082031 416.113281 224.925781 415.726562 C 224.707031 415.375 224.511719 415.011719 224.339844 414.632812 C 224.265625 414.414062 224.113281 414.304688 223.882812 414.304688 C 223.652344 414.304688 223.5 414.414062 223.425781 414.632812 C 223.273438 415.039062 222.992188 415.34375 222.839844 415.753906 C 222.683594 416.207031 222.589844 416.671875 222.5625 417.152344 C 222.5 418.109375 222.570312 419.058594 222.765625 420 C 222.894531 420.867188 223.105469 421.714844 223.398438 422.542969 C 223.667969 423.425781 224.109375 424.214844 224.722656 424.90625 C 225.179688 425.390625 225.738281 424.90625 225.917969 424.550781 C 225.929688 424.457031 225.929688 424.363281 225.917969 424.269531 Z M 225.917969 424.167969 " fill-opacity="1" fill-rule="nonzero"/><path fill="#af6348" d="M 224.722656 396.757812 C 224.621094 396.605469 224.492188 396.476562 224.339844 396.375 C 223.984375 396.203125 223.628906 396.203125 223.273438 396.375 C 222.996094 396.453125 222.757812 396.59375 222.5625 396.804688 C 222.363281 397.015625 222.238281 397.261719 222.179688 397.546875 C 222.179688 397.851562 222.179688 398.15625 222.179688 398.460938 C 222.140625 398.851562 222.140625 399.242188 222.179688 399.628906 C 222.179688 400.113281 222.308594 400.597656 222.410156 401.054688 C 222.503906 401.496094 222.667969 401.910156 222.890625 402.300781 C 223.070312 402.558594 223.316406 402.683594 223.628906 402.683594 C 223.949219 402.671875 224.1875 402.527344 224.339844 402.25 C 224.554688 401.796875 224.691406 401.324219 224.746094 400.824219 C 224.746094 400.367188 224.949219 399.933594 225 399.476562 C 225.105469 398.929688 225.175781 398.378906 225.207031 397.824219 C 225.207031 397.394531 225.046875 397.039062 224.722656 396.757812 Z M 224.722656 396.757812 " fill-opacity="1" fill-rule="nonzero"/><path fill="#af6348" d="M 223.222656 396.324219 C 222.996094 396.394531 222.800781 396.511719 222.636719 396.679688 Z M 223.222656 396.324219 " fill-opacity="1" fill-rule="nonzero"/><path fill="#af6348" d="M 226.933594 383.40625 L 226.757812 383.179688 L 226.757812 382.695312 C 226.726562 382.605469 226.675781 382.527344 226.605469 382.460938 C 226.535156 382.394531 226.453125 382.351562 226.359375 382.328125 C 226.269531 382.304688 226.175781 382.304688 226.082031 382.332031 C 225.992188 382.355469 225.910156 382.398438 225.839844 382.464844 L 225.636719 382.695312 C 225.558594 382.742188 225.488281 382.800781 225.433594 382.871094 L 225.28125 382.871094 C 225.03125 383.019531 224.847656 383.222656 224.722656 383.484375 C 224.582031 383.765625 224.480469 384.0625 224.417969 384.375 C 224.292969 384.976562 224.207031 385.589844 224.164062 386.203125 C 224.125 386.703125 224.125 387.203125 224.164062 387.703125 C 224.1875 388.03125 224.238281 388.351562 224.316406 388.671875 C 224.40625 389.003906 224.566406 389.300781 224.796875 389.558594 C 224.976562 389.730469 225.1875 389.816406 225.433594 389.816406 C 225.679688 389.816406 225.890625 389.730469 226.070312 389.558594 C 226.371094 389.128906 226.566406 388.65625 226.652344 388.136719 C 226.652344 387.652344 226.832031 387.195312 226.910156 386.710938 C 226.984375 386.230469 227.0625 385.746094 227.113281 385.261719 C 227.136719 384.941406 227.136719 384.617188 227.113281 384.296875 C 227.125 383.984375 227.066406 383.6875 226.933594 383.40625 Z M 226.933594 383.40625 " fill-opacity="1" fill-rule="nonzero"/><path fill="#af6348" d="M 220.984375 411.300781 C 220.984375 411.300781 220.984375 410.691406 220.984375 410.894531 C 220.996094 410.742188 220.996094 410.589844 220.984375 410.4375 C 220.902344 410.15625 220.785156 409.894531 220.628906 409.648438 C 220.582031 409.585938 220.519531 409.535156 220.449219 409.5 C 220.378906 409.464844 220.300781 409.445312 220.222656 409.445312 C 220.140625 409.445312 220.066406 409.464844 219.996094 409.5 C 219.921875 409.535156 219.863281 409.585938 219.816406 409.648438 L 219.484375 409.980469 C 219.34375 410.152344 219.242188 410.347656 219.179688 410.566406 C 219.078125 410.777344 218.996094 411 218.925781 411.226562 C 218.9375 411.414062 218.9375 411.597656 218.925781 411.785156 C 218.796875 412.632812 218.796875 413.480469 218.925781 414.328125 C 218.992188 414.726562 219.109375 415.109375 219.28125 415.472656 C 219.460938 415.777344 219.585938 416.132812 219.96875 416.210938 C 220.136719 416.222656 220.277344 416.171875 220.398438 416.058594 C 220.398438 416.058594 220.398438 416.058594 220.398438 415.929688 C 220.496094 415.769531 220.574219 415.601562 220.628906 415.421875 C 220.714844 415.183594 220.773438 414.9375 220.808594 414.683594 C 220.820312 414.480469 220.820312 414.277344 220.808594 414.074219 C 220.808594 414.074219 220.808594 413.742188 220.808594 413.921875 C 220.832031 413.574219 220.832031 413.226562 220.808594 412.878906 C 220.960938 412.371094 221.011719 411.835938 220.984375 411.300781 Z M 220.984375 411.300781 " fill-opacity="1" fill-rule="nonzero"/><path fill="#af6348" d="M 239.007812 440.367188 C 238.609375 439.605469 238.144531 438.882812 237.609375 438.207031 C 237.328125 437.761719 237.003906 437.34375 236.644531 436.960938 C 236.34375 436.609375 236.019531 436.28125 235.679688 435.96875 C 235.542969 435.839844 235.378906 435.761719 235.195312 435.734375 C 235.007812 435.707031 234.832031 435.734375 234.664062 435.816406 C 234.492188 435.890625 234.359375 436.003906 234.257812 436.164062 C 234.160156 436.320312 234.117188 436.492188 234.128906 436.679688 C 234.285156 437.589844 234.605469 438.4375 235.09375 439.222656 C 235.296875 439.578125 235.527344 439.910156 235.753906 440.238281 C 236.019531 440.671875 236.324219 441.070312 236.671875 441.433594 C 236.878906 441.699219 237.140625 441.890625 237.453125 442.011719 C 237.769531 442.128906 238.09375 442.160156 238.425781 442.097656 C 239.1875 441.96875 239.289062 441.003906 239.007812 440.367188 Z M 239.007812 440.367188 " fill-opacity="1" fill-rule="nonzero"/><path fill="#af6348" d="M 231.101562 370.742188 C 231.101562 370.742188 231.179688 370.820312 231.101562 370.742188 Z M 231.101562 370.742188 " fill-opacity="1" fill-rule="nonzero"/><path fill="#af6348" d="M 233.214844 367.03125 C 233.203125 366.804688 233.125 366.597656 232.984375 366.421875 C 232.839844 366.238281 232.652344 366.117188 232.425781 366.0625 C 232.246094 366.027344 232.070312 366.027344 231.890625 366.0625 C 231.636719 366.152344 231.441406 366.3125 231.304688 366.546875 C 231.152344 366.890625 231.050781 367.246094 231 367.617188 C 230.976562 367.996094 230.976562 368.378906 231 368.761719 C 231 369.039062 231 369.34375 231 369.625 C 231 369.902344 231 369.902344 231 370.058594 C 230.988281 370.167969 230.988281 370.277344 231 370.386719 C 230.964844 370.496094 230.964844 370.609375 231 370.71875 C 231.253906 371.023438 231.738281 371.25 232.070312 370.972656 L 232.324219 370.769531 C 232.460938 370.625 232.546875 370.457031 232.578125 370.261719 L 232.730469 369.851562 C 232.824219 369.5625 232.890625 369.265625 232.933594 368.964844 C 233.117188 368.332031 233.210938 367.6875 233.214844 367.03125 Z M 233.214844 367.03125 " fill-opacity="1" fill-rule="nonzero"/><path fill="#af6348" d="M 263.898438 451.960938 L 263.898438 471.007812 C 256.882812 470.84375 249.949219 469.996094 243.101562 468.464844 C 244.171875 461.292969 249.636719 453.207031 253.652344 447.96875 C 256.984375 449.519531 260.398438 450.847656 263.898438 451.960938 Z M 263.898438 451.960938 " fill-opacity="1" fill-rule="nonzero"/><path fill="#af6348" d="M 253.015625 447.539062 C 250.511719 450.175781 248.25 453.007812 246.230469 456.03125 C 244.863281 458.039062 243.703125 460.15625 242.746094 462.386719 C 241.960938 464.203125 241.328125 466.066406 240.839844 467.984375 L 240.253906 467.855469 C 240.101562 465.785156 240.304688 463.75 240.863281 461.753906 C 241.554688 459.199219 242.636719 456.824219 244.117188 454.632812 C 245.554688 452.464844 247.25 450.523438 249.203125 448.808594 C 250.011719 448.140625 250.859375 447.53125 251.746094 446.976562 Z M 253.015625 447.539062 " fill-opacity="1" fill-rule="nonzero"/><path fill="#af6348" d="M 375.90625 438.5625 C 375.90625 439.070312 395.253906 483.976562 398.785156 490.027344 C 402.320312 496.082031 413.761719 515.738281 415.769531 515.738281 L 436.460938 515.738281 C 438.46875 515.738281 440.453125 511.210938 437.910156 507.675781 C 435.371094 504.140625 429.269531 498.800781 428.707031 497.757812 C 427.539062 495.574219 423.015625 466.660156 421.667969 457.582031 C 420.320312 448.503906 421.996094 412.851562 421.996094 412.851562 Z M 375.90625 438.5625 " fill-opacity="1" fill-rule="nonzero"/><path fill="#c97c5d" d="M 329.917969 331.253906 C 329.691406 338.652344 329.917969 350.296875 324.835938 357.242188 C 319.75 364.183594 267.941406 411.503906 264.253906 421.144531 C 260.566406 430.78125 254.390625 472.484375 260.667969 489.292969 C 266.949219 506.101562 300.328125 513.5 311.308594 516.195312 C 322.292969 518.890625 374.863281 499.617188 374.863281 499.617188 C 374.863281 499.617188 406.285156 479.273438 417.929688 454.988281 C 429.574219 430.703125 433.820312 395.308594 433.84375 387.730469 C 433.84375 370.488281 412.996094 331.253906 412.996094 331.253906 Z M 329.917969 331.253906 " fill-opacity="1" fill-rule="nonzero"/><path fill="#c97c5d" d="M 311.15625 423.101562 C 335.792969 415.675781 391.007812 408.808594 389.660156 436.042969 C 388.3125 463.277344 366.019531 506.507812 366.019531 506.507812 C 371.746094 505.578125 377.507812 505.246094 383.304688 505.515625 C 395.40625 505.667969 405.675781 518.96875 404.152344 520.644531 C 402.625 522.324219 321.578125 520.644531 317.207031 520.644531 C 312.835938 520.644531 318.046875 514.59375 322.597656 513.246094 C 322.597656 513.246094 275.742188 505.160156 275.058594 481.636719 C 274.371094 458.117188 286.496094 430.601562 311.15625 423.101562 Z M 311.15625 423.101562 " fill-opacity="1" fill-rule="nonzero"/><path fill="#af6348" d="M 390.675781 432.765625 C 390.492188 431.589844 390.183594 430.453125 389.753906 429.347656 C 389.320312 428.238281 388.777344 427.195312 388.117188 426.207031 C 387.460938 425.21875 386.703125 424.3125 385.847656 423.488281 C 384.996094 422.664062 384.0625 421.941406 383.050781 421.320312 C 378.582031 418.78125 373.808594 417.085938 368.738281 416.234375 C 363.417969 415.160156 358.046875 414.640625 352.621094 414.683594 C 346.128906 414.710938 339.710938 415.429688 333.375 416.84375 C 332.566406 416.476562 331.71875 416.257812 330.832031 416.183594 C 329.703125 416.046875 328.566406 415.988281 327.425781 416.007812 C 325.179688 416.199219 322.96875 416.597656 320.792969 417.203125 C 320.539062 417.203125 320.792969 417.632812 320.792969 417.582031 C 322.957031 417.230469 325.136719 417.121094 327.324219 417.253906 C 328.367188 417.253906 329.410156 417.253906 330.453125 417.253906 L 330.882812 417.253906 C 325.800781 418.449219 320.714844 419.921875 315.886719 421.601562 C 315.796875 421.632812 315.753906 421.695312 315.753906 421.792969 C 315.753906 421.886719 315.796875 421.949219 315.886719 421.980469 C 326.125 419.027344 336.574219 417.46875 347.230469 417.304688 C 352.34375 417.128906 357.417969 417.472656 362.460938 418.328125 C 367.503906 419.183594 372.410156 420.539062 377.179688 422.390625 C 378.246094 422.730469 379.257812 423.191406 380.21875 423.765625 C 381.179688 424.34375 382.058594 425.019531 382.863281 425.800781 C 383.664062 426.582031 384.367188 427.445312 384.972656 428.390625 C 385.574219 429.332031 386.0625 430.332031 386.433594 431.390625 C 387.601562 436.6875 387.601562 441.984375 386.433594 447.285156 C 384.699219 457.34375 382.039062 467.148438 378.449219 476.703125 C 374.710938 487.640625 370.109375 496.488281 365.304688 506.886719 C 365.152344 507.246094 365.609375 507.625 365.890625 507.296875 C 372.433594 499.363281 377.433594 490.558594 380.890625 480.875 C 385.015625 470.777344 388.085938 460.371094 390.09375 449.648438 C 391.3125 444.054688 391.507812 438.425781 390.675781 432.765625 Z M 390.675781 432.765625 " fill-opacity="1" fill-rule="nonzero"/><path fill="#af6348" d="M 340.671875 513.042969 C 329.429688 512.792969 318.472656 510.894531 307.800781 507.347656 C 302.59375 505.554688 297.59375 503.300781 292.800781 500.582031 C 287.972656 498.023438 283.820312 494.632812 280.34375 490.410156 C 278.414062 487.894531 276.945312 485.128906 275.941406 482.117188 C 274.941406 479.105469 274.460938 476.011719 274.5 472.839844 C 274.5 472.585938 274.117188 472.609375 274.117188 472.839844 C 273.6875 475.882812 273.628906 478.933594 273.9375 481.992188 C 274.457031 484.570312 275.382812 486.996094 276.710938 489.265625 C 279.574219 494.003906 283.328125 497.875 287.972656 500.886719 C 292.886719 504.132812 298.09375 506.800781 303.59375 508.894531 C 309.097656 510.988281 314.761719 512.457031 320.589844 513.296875 C 327.273438 514.316406 333.96875 514.394531 340.671875 513.523438 C 340.714844 513.5 340.75 513.464844 340.773438 513.421875 C 340.796875 513.378906 340.8125 513.332031 340.8125 513.285156 C 340.8125 513.234375 340.796875 513.1875 340.773438 513.144531 C 340.75 513.101562 340.714844 513.066406 340.671875 513.042969 Z M 340.671875 513.042969 " fill-opacity="1" fill-rule="nonzero"/><path fill="#af6348" d="M 309.960938 503.429688 C 309.777344 502.949219 309.480469 502.550781 309.074219 502.234375 C 308.683594 501.886719 308.269531 501.570312 307.828125 501.292969 C 307.003906 500.839844 306.15625 500.429688 305.285156 500.074219 C 304.320312 499.667969 303.328125 499.335938 302.335938 499.003906 C 301.902344 498.84375 301.460938 498.707031 301.011719 498.597656 C 300.640625 498.523438 300.269531 498.523438 299.894531 498.597656 L 299.285156 498.726562 C 299.15625 498.769531 299.039062 498.835938 298.941406 498.933594 C 298.839844 499.027344 298.765625 499.136719 298.71875 499.265625 C 298.667969 499.394531 298.648438 499.527344 298.660156 499.664062 C 298.667969 499.800781 298.707031 499.929688 298.777344 500.046875 C 299.058594 500.519531 299.425781 500.917969 299.871094 501.242188 C 300.296875 501.515625 300.738281 501.757812 301.191406 501.980469 C 302.03125 502.386719 302.84375 502.820312 303.734375 503.175781 C 304.664062 503.589844 305.613281 503.953125 306.582031 504.269531 C 307.03125 504.382812 307.488281 504.460938 307.953125 504.5 C 308.234375 504.5 308.5625 504.5 308.84375 504.5 C 309.101562 504.464844 309.347656 504.386719 309.582031 504.269531 C 309.734375 504.191406 309.847656 504.074219 309.917969 503.917969 C 309.988281 503.757812 310.003906 503.597656 309.960938 503.429688 Z M 309.960938 503.429688 " fill-opacity="1" fill-rule="nonzero"/><path fill="#af6348" d="M 294.683594 495.625 L 293.640625 494.785156 L 292.953125 494.226562 L 292.648438 494.023438 L 292.089844 493.589844 L 291.558594 493.207031 L 290.539062 492.394531 L 290.132812 492.089844 L 289.953125 492.089844 C 289.703125 491.878906 289.441406 491.683594 289.167969 491.503906 C 289.082031 491.429688 288.988281 491.371094 288.886719 491.324219 C 288.640625 491.132812 288.378906 490.960938 288.097656 490.816406 C 287.671875 490.59375 287.222656 490.429688 286.75 490.335938 C 286.039062 490.132812 285.582031 490.84375 285.683594 491.453125 C 285.683594 491.453125 285.683594 491.9375 285.683594 492.140625 C 285.792969 492.441406 285.929688 492.726562 286.089844 493.003906 C 286.25 493.285156 286.445312 493.539062 286.675781 493.765625 C 286.523438 493.589844 286.675781 493.765625 286.675781 493.765625 L 287.082031 494.277344 C 287.839844 495.074219 288.6875 495.757812 289.625 496.335938 C 290.515625 496.921875 291.472656 497.363281 292.496094 497.65625 C 293.335938 497.914062 295.394531 498.546875 295.445312 497.074219 C 295.523438 496.285156 295.089844 495.980469 294.683594 495.625 Z M 294.683594 495.625 " fill-opacity="1" fill-rule="nonzero"/><path fill="#af6348" d="M 283.496094 486.367188 L 283.496094 486.242188 C 283.496094 486.242188 283.496094 486.035156 283.371094 485.910156 C 283.242188 485.78125 283.117188 485.375 282.988281 485.097656 C 282.863281 484.816406 282.558594 484.257812 282.304688 483.851562 C 282.089844 483.453125 281.851562 483.070312 281.589844 482.707031 C 281.417969 482.445312 281.222656 482.199219 281.007812 481.96875 C 280.769531 481.707031 280.484375 481.539062 280.140625 481.460938 C 279.953125 481.417969 279.773438 481.4375 279.601562 481.519531 C 279.425781 481.597656 279.292969 481.722656 279.203125 481.890625 C 278.90625 482.511719 278.90625 483.128906 279.203125 483.75 C 279.425781 484.289062 279.699219 484.804688 280.015625 485.300781 C 280.332031 485.773438 280.695312 486.203125 281.109375 486.597656 C 281.308594 486.8125 281.53125 487.007812 281.769531 487.179688 L 281.945312 487.179688 L 282.355469 487.460938 C 282.527344 487.550781 282.707031 487.582031 282.898438 487.554688 C 283.09375 487.527344 283.257812 487.445312 283.394531 487.308594 C 283.605469 487.015625 283.640625 486.699219 283.496094 486.367188 Z M 283.496094 486.367188 " fill-opacity="1" fill-rule="nonzero"/><path fill="#af6348" d="M 322.519531 506.507812 C 322.289062 506.140625 321.976562 505.867188 321.582031 505.691406 C 321.246094 505.519531 320.898438 505.382812 320.539062 505.285156 C 319.925781 505.109375 319.316406 505.007812 318.683594 504.878906 C 318.046875 504.753906 318.046875 504.753906 317.714844 504.726562 L 316.800781 504.726562 L 315.734375 504.601562 C 315.382812 504.601562 315.0625 504.695312 314.765625 504.878906 C 314.652344 504.910156 314.566406 504.976562 314.511719 505.082031 C 314.207031 505.820312 315.019531 506.429688 315.605469 506.710938 C 316.292969 507.085938 317.007812 507.40625 317.742188 507.675781 C 318.40625 507.898438 319.085938 508.066406 319.773438 508.183594 C 320.6875 508.402344 321.535156 508.25 322.316406 507.726562 C 322.503906 507.582031 322.617188 507.390625 322.65625 507.15625 C 322.695312 506.921875 322.648438 506.707031 322.519531 506.507812 Z M 322.519531 506.507812 " fill-opacity="1" fill-rule="nonzero"/><path fill="#af6348" d="M 317.335938 501.394531 C 317.105469 500.9375 316.417969 500.683594 315.988281 500.453125 C 315.480469 500.210938 314.953125 500.015625 314.410156 499.871094 C 313.863281 499.699219 313.304688 499.632812 312.734375 499.667969 L 312.429688 499.667969 C 312.429688 499.667969 311.335938 499.871094 311.4375 500.074219 C 311.539062 500.277344 311.4375 500.074219 311.4375 500.074219 C 311.332031 500.144531 311.238281 500.230469 311.15625 500.328125 C 310.96875 500.429688 310.910156 500.582031 310.980469 500.785156 C 310.96875 500.921875 310.96875 501.058594 310.980469 501.191406 C 310.980469 501.191406 310.980469 501.371094 310.980469 501.191406 C 311.003906 501.324219 311.054688 501.441406 311.132812 501.546875 C 311.246094 501.730469 311.398438 501.875 311.589844 501.980469 L 311.84375 502.160156 C 312.351562 502.484375 312.902344 502.695312 313.496094 502.792969 C 314.082031 502.859375 314.664062 502.859375 315.25 502.792969 C 315.917969 502.859375 316.53125 502.695312 317.082031 502.3125 C 317.34375 502.054688 317.429688 501.75 317.335938 501.394531 Z M 317.335938 501.394531 " fill-opacity="1" fill-rule="nonzero"/><path fill="#af6348" d="M 330.832031 507.371094 C 330.871094 507.019531 330.742188 506.738281 330.453125 506.53125 C 330.269531 506.261719 330.023438 506.078125 329.714844 505.972656 L 329.15625 505.972656 C 328.722656 505.972656 328.316406 505.796875 327.882812 505.742188 C 327.410156 505.707031 326.9375 505.707031 326.460938 505.742188 C 326.292969 505.71875 326.121094 505.71875 325.953125 505.742188 L 325.570312 505.742188 L 325.214844 505.921875 C 325.078125 506.042969 325.007812 506.195312 325.007812 506.378906 C 325.007812 506.5625 325.078125 506.714844 325.214844 506.835938 L 325.445312 507.066406 L 325.773438 507.269531 C 325.882812 507.378906 326.007812 507.457031 326.15625 507.5 C 326.589844 507.703125 327.039062 507.863281 327.503906 507.980469 L 328.699219 508.183594 L 329.257812 508.183594 C 329.578125 508.226562 329.882812 508.175781 330.171875 508.03125 C 330.515625 507.933594 330.734375 507.714844 330.832031 507.371094 Z M 330.832031 507.371094 " fill-opacity="1" fill-rule="nonzero"/><path fill="#af6348" d="M 303.148438 495.828125 C 302.632812 495.332031 302.054688 494.914062 301.421875 494.582031 L 299.667969 493.742188 C 299.359375 493.589844 299.054688 493.410156 298.75 493.285156 L 298.394531 493.105469 C 298.257812 493.039062 298.113281 492.988281 297.964844 492.953125 C 297.808594 492.953125 297.808594 492.953125 297.964844 492.953125 C 297.300781 492.511719 296.570312 492.316406 295.777344 492.367188 C 295.617188 492.421875 295.492188 492.515625 295.394531 492.652344 C 295.292969 492.789062 295.246094 492.9375 295.242188 493.105469 C 295.390625 493.910156 295.8125 494.519531 296.515625 494.9375 C 296.84375 495.191406 297.125 495.472656 297.480469 495.699219 C 297.761719 495.894531 298.058594 496.0625 298.371094 496.207031 C 299.054688 496.558594 299.769531 496.847656 300.503906 497.074219 C 301.195312 497.273438 301.898438 497.359375 302.613281 497.328125 C 302.996094 497.304688 303.25 497.113281 303.378906 496.753906 C 303.507812 496.394531 303.429688 496.085938 303.148438 495.828125 Z M 303.148438 495.828125 " fill-opacity="1" fill-rule="nonzero"/><path fill="#af6348" d="M 287.4375 483.722656 L 287.4375 483.542969 C 287.4375 483.238281 287.160156 482.933594 287.007812 482.628906 C 286.855469 482.324219 286.421875 481.738281 286.167969 481.308594 C 285.972656 480.933594 285.679688 480.675781 285.277344 480.542969 C 284.980469 480.441406 284.683594 480.441406 284.386719 480.542969 C 284.125 480.699219 283.933594 480.917969 283.816406 481.199219 C 283.695312 481.484375 283.675781 481.773438 283.753906 482.070312 C 283.832031 482.289062 283.941406 482.492188 284.082031 482.679688 C 284.546875 483.574219 285.214844 484.269531 286.089844 484.765625 C 286.304688 484.914062 286.542969 485 286.804688 485.019531 C 286.988281 485.023438 287.15625 484.96875 287.304688 484.863281 C 287.457031 484.753906 287.558594 484.613281 287.617188 484.433594 C 287.648438 484.175781 287.589844 483.9375 287.4375 483.722656 Z M 287.4375 483.722656 " fill-opacity="1" fill-rule="nonzero"/><path fill="#af6348" d="M 280.777344 475.484375 L 280.777344 475.765625 C 280.777344 475.535156 280.777344 475.304688 280.777344 475.101562 C 280.765625 474.949219 280.765625 474.796875 280.777344 474.644531 C 280.761719 474.445312 280.703125 474.257812 280.601562 474.085938 L 280.601562 473.882812 C 280.421875 473.5625 280.152344 473.410156 279.785156 473.425781 C 279.4375 473.441406 279.171875 473.601562 279 473.90625 L 279 474.058594 C 278.898438 474.253906 278.839844 474.457031 278.820312 474.671875 C 278.820312 474.796875 278.820312 474.925781 278.820312 475.050781 C 278.84375 475.390625 278.902344 475.71875 279 476.042969 C 279.0625 476.226562 279.140625 476.402344 279.226562 476.578125 C 279.304688 476.753906 279.40625 476.914062 279.53125 477.0625 L 279.8125 477.265625 C 279.949219 477.386719 280.109375 477.464844 280.292969 477.492188 C 280.535156 477.539062 280.738281 477.46875 280.90625 477.289062 C 281.058594 477.105469 281.144531 476.894531 281.160156 476.652344 L 281.160156 476.375 C 281.066406 476.0625 280.9375 475.765625 280.777344 475.484375 Z M 280.777344 475.484375 " fill-opacity="1" fill-rule="nonzero"/><path fill="#af6348" d="M 296.464844 487.945312 C 296.394531 487.929688 296.328125 487.929688 296.257812 487.945312 L 295.851562 487.792969 C 295.46875 487.636719 295.113281 487.433594 294.785156 487.179688 L 294.453125 486.925781 C 294.3125 486.804688 294.148438 486.742188 293.960938 486.742188 C 293.769531 486.742188 293.605469 486.804688 293.464844 486.925781 C 293.3125 487.046875 293.222656 487.199219 293.1875 487.390625 C 293.152344 487.578125 293.1875 487.753906 293.285156 487.917969 L 293.4375 488.121094 C 293.550781 488.316406 293.6875 488.496094 293.84375 488.65625 L 294.480469 489.140625 C 294.65625 489.261719 294.84375 489.363281 295.039062 489.445312 L 295.800781 489.75 C 296.039062 489.839844 296.277344 489.839844 296.515625 489.75 C 296.667969 489.625 296.789062 489.472656 296.871094 489.292969 C 296.949219 489.097656 296.949219 488.902344 296.871094 488.707031 C 296.894531 488.546875 296.871094 488.398438 296.796875 488.257812 C 296.71875 488.113281 296.609375 488.011719 296.464844 487.945312 Z M 296.464844 487.945312 " fill-opacity="1" fill-rule="nonzero"/><path fill="#eed7c5" d="M 433.894531 387.753906 C 433.894531 395.382812 429.648438 430.78125 418.007812 454.988281 C 406.363281 479.195312 374.789062 499.617188 374.789062 499.617188 C 374.789062 499.617188 385.847656 484.636719 390.90625 478.078125 C 395.964844 471.515625 404.355469 442.273438 403.617188 434.542969 C 402.878906 426.8125 396.21875 406.113281 390.167969 391.824219 C 384.421875 378.320312 362.050781 349.789062 357.78125 331.226562 L 412.84375 331.226562 C 412.84375 331.226562 433.996094 370.464844 433.894531 387.753906 Z M 433.894531 387.753906 " fill-opacity="1" fill-rule="nonzero"/><path fill="#ddc1af" d="M 419.25 376.082031 C 418.007812 369.164062 415.550781 362.703125 411.878906 356.707031 C 408.269531 350.960938 402.601562 346.355469 400.515625 339.746094 C 400.539062 339.679688 400.53125 339.617188 400.492188 339.558594 C 400.453125 339.5 400.394531 339.472656 400.324219 339.472656 C 400.253906 339.472656 400.199219 339.5 400.15625 339.558594 C 400.117188 339.617188 400.109375 339.679688 400.132812 339.746094 C 401.609375 346.101562 406.132812 351.339844 409.335938 356.882812 C 411.945312 361.386719 414.085938 366.101562 415.769531 371.023438 C 413.871094 368.574219 411.785156 366.292969 409.515625 364.183594 C 409.398438 364.085938 409.265625 364.039062 409.113281 364.039062 C 408.960938 364.035156 408.824219 364.085938 408.707031 364.179688 C 408.589844 364.277344 408.515625 364.398438 408.488281 364.546875 C 408.457031 364.695312 408.476562 364.835938 408.550781 364.972656 C 411.496094 370.59375 413.546875 376.527344 414.699219 382.769531 C 416 388.960938 416.410156 395.207031 415.921875 401.511719 C 415.921875 402.148438 416.9375 402.273438 417.015625 401.511719 C 417.820312 395.109375 417.644531 388.734375 416.480469 382.390625 C 415.898438 379.164062 415.054688 376.011719 413.9375 372.929688 C 413.371094 371.4375 412.726562 369.980469 412.007812 368.554688 C 414.125 371.070312 416 373.757812 417.625 376.617188 C 418.109375 377.890625 419.453125 377.203125 419.25 376.082031 Z M 419.25 376.082031 " fill-opacity="1" fill-rule="nonzero"/><path fill="#c97c5d" d="M 340.441406 416.71875 C 340.441406 416.71875 358.925781 442.933594 368.6875 448.835938 C 378.449219 454.734375 423.472656 467.320312 428.351562 470.347656 C 433.234375 473.375 434.074219 481.28125 440.125 482.628906 C 446.171875 483.976562 452.222656 467.652344 449.019531 460.9375 C 443.097656 448.429688 409.03125 424.777344 403.972656 416.71875 C 398.914062 408.65625 382.566406 378.574219 382.566406 378.574219 " fill-opacity="1" fill-rule="nonzero"/><path fill="#af6348" d="M 398.203125 459.667969 C 392.738281 457.886719 387.347656 455.828125 382.007812 453.769531 C 377.050781 452.101562 372.332031 449.921875 367.847656 447.234375 C 363.632812 444.128906 360.101562 440.382812 357.246094 435.992188 C 353.96875 431.644531 350.613281 427.347656 347.078125 423.277344 C 343.164062 418.457031 338.820312 414.066406 334.035156 410.105469 C 333.679688 409.828125 333.070312 410.105469 333.375 410.640625 C 336.375 414.863281 339.628906 418.855469 342.910156 422.847656 C 340.367188 420.890625 338.078125 418.828125 335.738281 416.769531 C 335.636719 416.675781 335.542969 416.679688 335.449219 416.78125 C 335.355469 416.882812 335.359375 416.980469 335.460938 417.074219 C 337.226562 419.089844 339.15625 420.929688 341.257812 422.59375 C 342.375 423.5 343.535156 424.347656 344.738281 425.136719 C 348.042969 429.101562 351.347656 433.070312 354.449219 437.1875 C 357.3125 441.449219 360.742188 445.1875 364.746094 448.402344 C 369.042969 451.238281 373.664062 453.382812 378.601562 454.835938 C 385.007812 456.929688 391.507812 458.675781 398.101562 460.074219 C 398.355469 460.125 398.429688 459.742188 398.203125 459.667969 Z M 398.203125 459.667969 " fill-opacity="1" fill-rule="nonzero"/><path fill="#af6348" d="M 371.128906 444.078125 C 370.984375 443.707031 370.808594 443.351562 370.59375 443.011719 C 370.3125 442.628906 370.035156 442.273438 369.730469 441.917969 C 369.425781 441.5625 369.449219 441.5625 369.730469 441.917969 L 369.425781 441.511719 C 369.273438 441.511719 369.144531 441.230469 368.992188 441.078125 C 368.839844 440.925781 368.433594 440.441406 368.128906 440.136719 C 367.824219 439.832031 366.984375 438.992188 366.375 438.460938 C 366.046875 438.160156 365.699219 437.890625 365.332031 437.644531 C 365.261719 437.632812 365.195312 437.632812 365.128906 437.644531 C 365.023438 437.582031 364.929688 437.507812 364.847656 437.417969 L 364.265625 437.0625 C 363.933594 436.898438 363.621094 436.929688 363.335938 437.164062 C 363.046875 437.398438 362.949219 437.695312 363.042969 438.054688 C 363.042969 438.230469 363.042969 438.410156 363.171875 438.585938 C 363.296875 438.765625 363.347656 438.992188 363.398438 439.042969 C 363.375 439.121094 363.375 439.199219 363.398438 439.273438 C 363.574219 439.699219 363.789062 440.105469 364.035156 440.496094 C 364.582031 441.242188 365.195312 441.9375 365.867188 442.578125 C 366.519531 443.21875 367.238281 443.769531 368.027344 444.230469 C 368.378906 444.4375 368.742188 444.613281 369.121094 444.765625 C 369.375 444.910156 369.644531 445.003906 369.933594 445.046875 L 370.542969 445.046875 C 370.660156 445.046875 370.765625 445.015625 370.867188 444.960938 C 370.96875 444.902344 371.046875 444.824219 371.105469 444.726562 C 371.167969 444.628906 371.199219 444.519531 371.203125 444.40625 C 371.207031 444.289062 371.179688 444.183594 371.128906 444.078125 Z M 371.128906 444.078125 " fill-opacity="1" fill-rule="nonzero"/><path fill="#af6348" d="M 360.171875 432.714844 L 359.664062 431.824219 C 359.664062 431.671875 359.484375 431.519531 359.382812 431.390625 L 359.179688 431.109375 L 358.519531 430.273438 C 358.015625 429.648438 357.441406 429.109375 356.789062 428.644531 C 356.789062 428.644531 356.460938 428.390625 356.636719 428.644531 L 356.460938 428.492188 C 356.292969 428.347656 356.117188 428.222656 355.925781 428.109375 L 354.933594 427.753906 C 354.816406 427.722656 354.699219 427.734375 354.59375 427.792969 C 354.484375 427.851562 354.410156 427.941406 354.375 428.058594 C 354.339844 428.398438 354.339844 428.738281 354.375 429.078125 C 354.425781 429.289062 354.5 429.492188 354.601562 429.6875 L 354.601562 429.914062 C 354.9375 430.730469 355.394531 431.46875 355.976562 432.128906 C 356.441406 432.65625 356.949219 433.140625 357.5 433.578125 C 357.824219 433.828125 358.164062 434.058594 358.519531 434.265625 C 358.855469 434.53125 359.234375 434.691406 359.664062 434.746094 C 359.886719 434.742188 360.078125 434.65625 360.230469 434.492188 C 360.382812 434.328125 360.457031 434.132812 360.449219 433.90625 C 360.449219 433.488281 360.355469 433.089844 360.171875 432.714844 Z M 360.171875 432.714844 " fill-opacity="1" fill-rule="nonzero"/><path fill="#af6348" d="M 352.214844 423.6875 C 352.078125 423.390625 351.921875 423.101562 351.757812 422.820312 L 351.476562 422.390625 C 351.347656 422.207031 351.203125 422.039062 351.042969 421.878906 C 350.828125 421.617188 350.589844 421.371094 350.332031 421.144531 C 350.042969 420.90625 349.738281 420.695312 349.417969 420.507812 C 349.171875 420.34375 348.925781 420.34375 348.679688 420.507812 C 348.457031 420.691406 348.386719 420.917969 348.476562 421.195312 C 348.613281 421.535156 348.773438 421.867188 348.960938 422.1875 C 349.191406 422.515625 349.445312 422.832031 349.722656 423.125 C 350.203125 423.675781 350.753906 424.140625 351.375 424.523438 C 351.484375 424.613281 351.613281 424.660156 351.757812 424.660156 C 351.898438 424.660156 352.027344 424.613281 352.136719 424.523438 C 352.246094 424.410156 352.304688 424.273438 352.320312 424.117188 C 352.332031 423.960938 352.296875 423.816406 352.214844 423.6875 Z M 352.214844 423.6875 " fill-opacity="1" fill-rule="nonzero"/><path fill="#af6348" d="M 384.066406 449.648438 C 383.796875 449.304688 383.460938 449.058594 383.050781 448.910156 C 382.6875 448.730469 382.316406 448.578125 381.933594 448.453125 L 381.09375 448.148438 L 380.761719 448.019531 L 380.355469 447.84375 C 379.699219 447.585938 379.03125 447.363281 378.347656 447.183594 L 377.382812 447.003906 C 377.050781 446.925781 376.71875 446.925781 376.390625 447.003906 C 376.261719 447.035156 376.164062 447.109375 376.097656 447.222656 C 376.03125 447.339844 376.019531 447.460938 376.058594 447.589844 C 376.058594 447.742188 376.058594 447.816406 376.238281 447.917969 L 376.617188 448.429688 C 376.824219 448.675781 377.050781 448.894531 377.304688 449.089844 C 377.878906 449.558594 378.507812 449.941406 379.1875 450.234375 C 379.871094 450.511719 380.585938 450.792969 381.296875 451.023438 L 382.289062 451.199219 C 382.769531 451.371094 383.253906 451.371094 383.738281 451.199219 C 383.871094 451.125 383.984375 451.03125 384.074219 450.90625 C 384.167969 450.785156 384.226562 450.648438 384.261719 450.5 C 384.292969 450.351562 384.289062 450.203125 384.257812 450.054688 C 384.222656 449.90625 384.160156 449.769531 384.066406 449.648438 Z M 384.066406 449.648438 " fill-opacity="1" fill-rule="nonzero"/><path fill="#af6348" d="M 377.660156 443.671875 C 376.984375 442.777344 376.136719 442.089844 375.117188 441.613281 L 374.535156 441.257812 L 373.875 440.925781 C 373.59375 440.773438 373.3125 440.699219 373.035156 440.570312 C 373.238281 440.570312 373.035156 440.570312 373.035156 440.570312 L 372.273438 440.570312 C 372.171875 440.574219 372.074219 440.601562 371.988281 440.648438 C 371.898438 440.695312 371.824219 440.761719 371.761719 440.84375 C 371.703125 440.925781 371.664062 441.015625 371.648438 441.113281 C 371.628906 441.214844 371.632812 441.3125 371.660156 441.410156 C 371.777344 442 372.058594 442.5 372.5 442.910156 C 372.679688 443.0625 372.832031 443.265625 373.035156 443.417969 C 373.296875 443.636719 373.578125 443.832031 373.875 444.003906 C 374.296875 444.277344 374.734375 444.511719 375.195312 444.714844 C 375.515625 444.828125 375.847656 444.902344 376.1875 444.945312 L 376.71875 444.945312 C 376.898438 444.96875 377.078125 444.96875 377.253906 444.945312 C 377.382812 444.90625 377.492188 444.839844 377.585938 444.746094 C 377.679688 444.652344 377.75 444.542969 377.789062 444.414062 C 377.828125 444.289062 377.839844 444.160156 377.816406 444.027344 C 377.792969 443.898438 377.742188 443.777344 377.660156 443.671875 Z M 377.660156 443.671875 " fill-opacity="1" fill-rule="nonzero"/><path fill="#af6348" d="M 365.839844 433.90625 C 365.714844 433.578125 365.539062 433.28125 365.304688 433.019531 L 365.050781 432.714844 C 364.695312 432.28125 364.289062 431.875 363.90625 431.441406 L 363.449219 430.882812 L 363.449219 430.753906 L 363.09375 430.347656 L 362.558594 429.839844 C 362.328125 429.566406 362.042969 429.378906 361.695312 429.28125 C 361.472656 429.230469 361.261719 429.265625 361.066406 429.382812 C 360.871094 429.5 360.742188 429.671875 360.679688 429.890625 C 360.671875 430.5625 360.882812 431.15625 361.316406 431.671875 C 361.644531 432.160156 362.019531 432.621094 362.433594 433.042969 C 362.753906 433.425781 363.089844 433.789062 363.449219 434.136719 C 363.632812 434.3125 363.828125 434.472656 364.035156 434.621094 C 364.308594 434.882812 364.632812 435.0625 365 435.152344 C 365.121094 435.183594 365.246094 435.1875 365.371094 435.167969 C 365.492188 435.144531 365.605469 435.097656 365.710938 435.027344 C 365.816406 434.957031 365.902344 434.871094 365.96875 434.761719 C 366.035156 434.65625 366.078125 434.542969 366.09375 434.417969 C 366.042969 434.230469 365.957031 434.0625 365.839844 433.90625 Z M 365.839844 433.90625 " fill-opacity="1" fill-rule="nonzero"/><path fill="#af6348" d="M 356.460938 423.890625 C 356.460938 423.890625 356.460938 423.761719 356.460938 423.710938 L 356.460938 423.53125 L 356.179688 423.125 C 356.074219 422.945312 355.957031 422.777344 355.824219 422.617188 C 355.648438 422.410156 355.429688 422.292969 355.164062 422.261719 C 354.945312 422.265625 354.792969 422.367188 354.703125 422.566406 C 354.667969 422.738281 354.667969 422.90625 354.703125 423.074219 C 354.765625 423.269531 354.84375 423.453125 354.933594 423.636719 L 355.390625 424.5 C 355.445312 424.617188 355.519531 424.71875 355.621094 424.804688 L 355.847656 424.984375 L 356.152344 424.984375 C 356.347656 425.074219 356.542969 425.074219 356.738281 424.984375 L 356.585938 424.984375 L 356.816406 424.984375 C 357.003906 424.867188 357.097656 424.695312 357.09375 424.472656 C 357.011719 424.140625 356.796875 423.945312 356.460938 423.890625 Z M 356.460938 423.890625 " fill-opacity="1" fill-rule="nonzero"/><path fill="#af6348" d="M 356.230469 423.660156 L 356.253906 423.6875 Z M 356.230469 423.660156 " fill-opacity="1" fill-rule="nonzero"/><path fill="#af6348" d="M 390.21875 449.039062 C 390.074219 448.882812 389.914062 448.746094 389.738281 448.632812 C 389.425781 448.46875 389.105469 448.332031 388.769531 448.222656 C 388.523438 448.113281 388.269531 448.027344 388.007812 447.96875 L 387.625 447.96875 C 387.363281 447.863281 387.101562 447.863281 386.839844 447.96875 C 386.703125 448.011719 386.605469 448.09375 386.535156 448.21875 C 386.464844 448.339844 386.449219 448.46875 386.484375 448.605469 L 386.484375 448.808594 C 386.558594 448.984375 386.660156 449.148438 386.789062 449.292969 L 386.992188 449.546875 C 387.253906 449.789062 387.53125 450.007812 387.828125 450.207031 C 388.027344 450.304688 388.230469 450.386719 388.441406 450.460938 L 388.847656 450.613281 C 389.050781 450.652344 389.253906 450.652344 389.457031 450.613281 C 389.722656 450.636719 389.96875 450.578125 390.195312 450.4375 C 390.332031 450.34375 390.425781 450.222656 390.480469 450.066406 C 390.539062 449.910156 390.542969 449.753906 390.5 449.597656 C 390.445312 449.390625 390.351562 449.207031 390.21875 449.039062 Z M 390.21875 449.039062 " fill-opacity="1" fill-rule="nonzero"/><path fill="#42424c" d="M 419.351562 343.941406 C 405.980469 347.960938 389.636719 351.976562 380.128906 350.984375 C 366.273438 349.511719 340.824219 341.347656 329.714844 337.609375 C 329.714844 335.320312 329.714844 333.132812 329.894531 331.226562 L 413.023438 331.226562 C 413.023438 331.226562 415.820312 336.515625 419.351562 343.941406 Z M 419.351562 343.941406 " fill-opacity="0.098" fill-rule="nonzero"/><path fill="#42424c" d="M 420.472656 345.621094 L 420.21875 345.621094 C 412.617188 348.820312 404.828125 351.476562 396.855469 353.578125 C 392.757812 354.703125 388.59375 355.5 384.371094 355.96875 C 383.292969 356.113281 382.207031 356.183594 381.117188 356.171875 L 379.464844 356.171875 L 377.789062 355.996094 C 375.675781 355.644531 373.59375 355.179688 371.535156 354.597656 C 363.449219 352.332031 355.570312 349.714844 347.738281 346.96875 C 341.664062 344.804688 335.585938 342.542969 329.589844 340.152344 C 329.589844 339.949219 329.589844 339.769531 329.589844 339.59375 L 336.578125 341.601562 L 348.476562 345.289062 C 356.433594 347.679688 364.367188 350.375 372.324219 352.410156 C 374.277344 352.996094 376.257812 353.453125 378.269531 353.78125 L 379.695312 353.960938 L 381.195312 353.960938 C 382.1875 353.960938 383.203125 353.960938 384.21875 353.808594 C 388.324219 353.40625 392.390625 352.773438 396.421875 351.902344 C 400.488281 351.035156 404.507812 349.992188 408.523438 348.898438 C 412.539062 347.808594 416.351562 346.738281 420.292969 345.621094 Z M 420.472656 345.621094 " fill-opacity="0.098" fill-rule="nonzero"/><path fill="#c97c5d" d="M 255.230469 226.714844 C 255.230469 226.714844 247.144531 224.730469 244.476562 221.933594 C 241.804688 219.136719 221.441406 148.546875 219.917969 108.699219 C 218.390625 68.855469 227.492188 52.527344 243.28125 61.886719 C 259.066406 71.246094 328.011719 118.769531 332.867188 123.652344 C 334.367188 125.226562 335.589844 126.988281 336.539062 128.941406 C 337.488281 130.894531 338.121094 132.945312 338.433594 135.097656 Z M 255.230469 226.714844 " fill-opacity="1" fill-rule="nonzero"/><path fill="#eed7c5" d="M 331.242188 143.003906 L 255.964844 225.902344 C 252.40625 225.140625 247.703125 223.894531 246.304688 222.417969 C 243.914062 219.875 225.96875 156.125 224.621094 120.144531 C 223.273438 84.164062 231.28125 69.515625 245.261719 77.90625 C 259.246094 86.296875 320.132812 129.246094 324.453125 133.644531 C 327.015625 136.550781 329.277344 139.667969 331.242188 143.003906 Z M 331.242188 143.003906 " fill-opacity="1" fill-rule="nonzero"/><path fill="#42424c" d="M 253.933594 74.195312 C 248.644531 76.457031 236.441406 63.183594 236.441406 63.183594 C 236.441406 63.183594 234.636719 74.296875 231.355469 74.675781 C 228.078125 75.058594 228.816406 66.792969 228.816406 66.792969 C 228.816406 66.792969 224.722656 80.398438 223.375 83.527344 C 222.484375 85.5625 221.390625 86.960938 220.347656 86.628906 C 222.535156 63.105469 230.824219 54.511719 243.28125 61.886719 C 245.058594 63.03125 247.601562 64.632812 250.730469 66.617188 C 254.363281 69.847656 256.726562 72.972656 253.933594 74.195312 Z M 253.933594 74.195312 " fill-opacity="1" fill-rule="nonzero"/><path fill="#ddc1af" d="M 284.335938 138.757812 C 280.832031 132.789062 276.6875 127.304688 271.898438 122.308594 C 267.105469 117.3125 261.804688 112.9375 255.992188 109.183594 C 249.519531 104.945312 242.628906 101.554688 235.324219 99.011719 C 235.019531 99.011719 234.839844 99.417969 235.121094 99.546875 C 258.941406 111.21875 277.320312 132.195312 289.066406 155.691406 C 285.851562 150.449219 281.96875 145.757812 277.417969 141.625 C 272.863281 137.492188 267.824219 134.078125 262.296875 131.382812 C 257.746094 129.195312 252.128906 127.214844 247.269531 129.652344 C 246.992188 129.78125 247.269531 130.238281 247.5 130.136719 C 252.457031 128.484375 257.160156 131.101562 261.328125 133.621094 C 264.945312 135.859375 268.386719 138.34375 271.652344 141.070312 C 278.09375 146.402344 283.636719 152.546875 288.277344 159.507812 C 290.664062 163.039062 292.757812 166.734375 294.554688 170.59375 C 295.21875 173.136719 295.800781 175.476562 296.257812 177.917969 C 296.257812 178.324219 297.046875 178.222656 296.996094 177.789062 C 296.25 170.917969 294.8125 164.195312 292.679688 157.621094 C 290.546875 151.046875 287.765625 144.757812 284.335938 138.757812 Z M 284.335938 138.757812 " fill-opacity="1" fill-rule="nonzero"/><path fill="#c97c5d" d="M 490.714844 226.714844 C 490.714844 226.714844 498.773438 224.730469 501.464844 221.933594 C 504.160156 219.136719 524.5 148.546875 526 108.699219 C 527.5 68.855469 518.371094 52.527344 502.636719 61.9375 C 486.898438 71.347656 417.929688 118.769531 413.046875 123.652344 C 411.550781 125.222656 410.328125 126.988281 409.382812 128.941406 C 408.4375 130.894531 407.8125 132.945312 407.507812 135.097656 Z M 490.714844 226.714844 " fill-opacity="1" fill-rule="nonzero"/><path fill="#eed7c5" d="M 414.699219 143.003906 L 489.976562 225.902344 C 493.535156 225.140625 498.210938 223.894531 499.636719 222.417969 C 502 219.875 519.972656 156.125 521.320312 120.144531 C 522.667969 84.164062 514.535156 69.515625 500.652344 77.90625 C 486.773438 86.296875 425.785156 129.246094 421.488281 133.644531 C 418.925781 136.550781 416.664062 139.667969 414.699219 143.003906 Z M 414.699219 143.003906 " fill-opacity="1" fill-rule="nonzero"/><path fill="#42424c" d="M 491.984375 74.195312 C 497.296875 76.457031 509.472656 63.183594 509.472656 63.183594 C 509.472656 63.183594 511.28125 74.296875 514.6875 74.675781 C 518.09375 75.058594 517.226562 66.792969 517.226562 66.792969 C 517.226562 66.792969 521.066406 80.398438 522.464844 83.527344 C 523.378906 85.5625 524.472656 86.960938 525.492188 86.628906 C 523.304688 63.105469 515.015625 54.511719 502.609375 61.9375 C 500.804688 63.03125 498.261719 64.632812 495.1875 66.617188 C 491.652344 69.847656 489.113281 72.972656 491.984375 74.195312 Z M 491.984375 74.195312 " fill-opacity="1" fill-rule="nonzero"/><path fill="#c97c5d" d="M 371.660156 121.160156 C 338.054688 122.101562 303.023438 132.730469 293.363281 133.289062 C 288.710938 133.34375 284.15625 132.703125 279.699219 131.367188 C 275.242188 130.03125 271.085938 128.0625 267.226562 125.457031 C 261.378906 121.363281 255.304688 122.484375 258.433594 130.238281 C 261.558594 137.996094 273.683594 141.988281 285.046875 142.089844 C 278.839844 144.617188 272.433594 146.464844 265.828125 147.632812 C 255.890625 149.207031 256.144531 158.132812 262.347656 159.710938 C 268.550781 161.289062 278.386719 153.964844 278.386719 153.964844 C 278.386719 153.964844 269.441406 157.066406 259.015625 193.300781 C 248.59375 229.539062 236.898438 267.757812 245.644531 292.042969 C 254.390625 316.324219 296.4375 335.804688 372.171875 336.515625 C 446.53125 337.304688 494.679688 319.070312 505.304688 284.4375 C 511.710938 263.636719 484.96875 184.25 478.382812 169.398438 C 473.800781 159.589844 467.910156 150.636719 460.714844 142.546875 C 460.714844 142.546875 474.824219 148.0625 476.882812 143.539062 C 478.941406 139.011719 476.476562 133.953125 454.816406 131.230469 C 454.816406 131.230469 468.46875 126.652344 474.113281 116.429688 C 479.757812 106.207031 470.527344 104.300781 465.085938 111.472656 C 459.648438 118.644531 439.234375 126.195312 439.234375 126.195312 C 416.863281 122.457031 394.339844 120.777344 371.660156 121.160156 Z M 371.660156 121.160156 " fill-opacity="1" fill-rule="nonzero"/><path fill="#eed7c5" d="M 428.683594 327.4375 C 426.726562 330.234375 421.996094 332.523438 415.972656 334.53125 C 401.410156 336.085938 386.8125 336.746094 372.171875 336.515625 C 356.582031 336.429688 341.066406 335.324219 325.621094 333.210938 C 322.476562 332.058594 319.652344 330.363281 317.15625 328.125 C 306.988281 318.257812 326.128906 262.214844 339.578125 251.230469 C 353.027344 240.242188 394.441406 242.378906 404.785156 249.449219 C 418.4375 258.957031 436.972656 315.5625 428.683594 327.4375 Z M 428.683594 327.4375 " fill-opacity="1" fill-rule="nonzero"/><path fill="#42424c" d="M 327.78125 250.644531 C 326.84375 257.6875 322.039062 262.773438 317.054688 261.984375 C 312.070312 261.195312 308.765625 255.144531 309.707031 248.203125 C 310.648438 241.261719 315.453125 236.148438 320.4375 236.835938 C 325.417969 237.523438 328.722656 243.675781 327.78125 250.644531 Z M 327.78125 250.644531 " fill-opacity="1" fill-rule="nonzero"/><path fill="#42424c" d="M 327.707031 245.480469 C 327.707031 245.203125 327.097656 245.835938 327.097656 246.144531 C 327.097656 253.769531 325.597656 262.695312 318.53125 264.960938 C 318.300781 264.960938 318.300781 265.417969 318.53125 265.390625 C 327.121094 264.554688 328.953125 252.832031 327.707031 245.480469 Z M 327.707031 245.480469 " fill-opacity="1" fill-rule="nonzero"/><path fill="#42424c" d="M 418.921875 250.871094 C 420.039062 257.789062 424.972656 262.746094 429.953125 261.933594 C 434.9375 261.121094 438.039062 254.863281 436.917969 247.949219 C 435.800781 241.03125 430.84375 236.074219 425.886719 236.886719 C 420.929688 237.699219 417.929688 243.957031 418.921875 250.871094 Z M 418.921875 250.871094 " fill-opacity="1" fill-rule="nonzero"/><path fill="#42424c" d="M 418.84375 245.734375 C 418.84375 245.429688 419.453125 246.066406 419.480469 246.371094 C 419.785156 254 421.414062 262.875 428.554688 264.933594 C 428.785156 264.933594 428.785156 265.390625 428.554688 265.367188 C 419.9375 264.78125 417.929688 253.085938 418.84375 245.734375 Z M 418.84375 245.734375 " fill-opacity="1" fill-rule="nonzero"/><path fill="#42424c" d="M 389.480469 246.015625 C 390.296875 249.21875 376.390625 259.570312 372.476562 259.570312 C 368.558594 259.570312 354.679688 249.21875 355.46875 246.015625 C 356.253906 242.8125 366.222656 241.566406 372.476562 241.566406 C 378.730469 241.566406 388.695312 242.8125 389.480469 246.015625 Z M 389.480469 246.015625 " fill-opacity="1" fill-rule="nonzero"/><path fill="#42424c" d="M 440.125 217.992188 C 439.867188 222.035156 425.148438 219.746094 424.539062 214.355469 C 423.929688 208.964844 440.503906 211.914062 440.125 217.992188 Z M 440.125 217.992188 " fill-opacity="1" fill-rule="nonzero"/><path fill="#42424c" d="M 308.613281 217.992188 C 308.867188 222.035156 323.5625 219.746094 324.171875 214.355469 C 324.785156 208.964844 308.308594 211.914062 308.613281 217.992188 Z M 308.613281 217.992188 " fill-opacity="1" fill-rule="nonzero"/><path fill="#af6348" d="M 252.203125 287.261719 C 252.203125 286.550781 252.023438 285.863281 251.898438 285.152344 C 251.769531 284.4375 251.71875 283.90625 251.59375 283.21875 C 251.464844 282.53125 251.363281 282.125 251.289062 281.589844 C 251.109375 280.292969 250.984375 279.046875 250.804688 277.699219 C 250.820312 276.886719 250.652344 276.117188 250.296875 275.386719 C 250.105469 275.035156 249.828125 274.789062 249.457031 274.644531 C 249.085938 274.5 248.714844 274.492188 248.339844 274.621094 C 246.839844 275.207031 246.914062 277.164062 246.863281 278.539062 C 246.839844 279.949219 246.992188 281.339844 247.324219 282.710938 C 247.585938 284.070312 248.019531 285.375 248.617188 286.625 C 249.082031 287.867188 249.84375 288.886719 250.90625 289.675781 C 251.03125 289.742188 251.167969 289.78125 251.308594 289.785156 C 251.453125 289.789062 251.589844 289.765625 251.722656 289.707031 C 251.851562 289.652344 251.964844 289.570312 252.058594 289.460938 C 252.152344 289.351562 252.214844 289.230469 252.253906 289.09375 C 252.339844 288.480469 252.324219 287.867188 252.203125 287.261719 Z M 252.203125 287.261719 " fill-opacity="1" fill-rule="nonzero"/><path fill="#af6348" d="M 250.144531 257.6875 C 250.140625 257.445312 250.0625 257.230469 249.910156 257.039062 C 249.757812 256.851562 249.5625 256.726562 249.328125 256.671875 C 249.089844 256.613281 248.863281 256.636719 248.640625 256.734375 C 248.417969 256.832031 248.25 256.992188 248.136719 257.203125 C 247.589844 258.164062 247.15625 259.171875 246.839844 260.230469 C 246.578125 261.394531 246.417969 262.574219 246.355469 263.765625 C 246.253906 264.832031 246.253906 265.902344 246.355469 266.96875 C 246.40625 267.570312 246.53125 268.15625 246.738281 268.722656 C 246.878906 269.359375 247.164062 269.917969 247.601562 270.402344 C 247.710938 270.496094 247.832031 270.566406 247.972656 270.609375 C 248.109375 270.648438 248.25 270.65625 248.394531 270.636719 C 248.535156 270.613281 248.667969 270.5625 248.785156 270.480469 C 248.90625 270.398438 249.003906 270.296875 249.078125 270.171875 C 249.34375 269.714844 249.511719 269.222656 249.585938 268.699219 C 249.726562 268.121094 249.800781 267.535156 249.8125 266.945312 C 249.8125 265.953125 249.8125 264.933594 249.992188 263.941406 C 250.167969 262.953125 250.167969 261.984375 250.246094 260.992188 C 250.320312 260 250.144531 258.832031 250.144531 257.6875 Z M 250.144531 257.6875 " fill-opacity="1" fill-rule="nonzero"/><path fill="#af6348" d="M 250.269531 252.421875 C 250.269531 252.421875 250.144531 252.601562 250.269531 252.421875 Z M 250.269531 252.421875 " fill-opacity="1" fill-rule="nonzero"/><path fill="#af6348" d="M 251.109375 245.9375 C 251.0625 245.777344 250.984375 245.632812 250.871094 245.507812 C 250.757812 245.382812 250.621094 245.292969 250.460938 245.230469 C 250.304688 245.171875 250.140625 245.148438 249.972656 245.167969 C 249.804688 245.183594 249.652344 245.238281 249.507812 245.328125 C 248.996094 245.714844 248.621094 246.207031 248.390625 246.804688 C 248.152344 247.363281 247.96875 247.941406 247.832031 248.53125 C 247.710938 249.15625 247.667969 249.78125 247.703125 250.414062 C 247.691406 250.773438 247.742188 251.121094 247.855469 251.457031 C 247.929688 251.671875 248.023438 251.875 248.136719 252.066406 C 248.277344 252.277344 248.453125 252.445312 248.667969 252.578125 C 249.109375 252.730469 249.160156 252.730469 248.820312 252.578125 C 249.019531 252.714844 249.238281 252.785156 249.480469 252.789062 C 249.71875 252.792969 249.941406 252.730469 250.144531 252.601562 L 250.347656 252.421875 C 250.46875 252.316406 250.5625 252.191406 250.628906 252.042969 C 250.710938 251.871094 250.777344 251.691406 250.832031 251.507812 C 250.855469 251.160156 250.855469 250.8125 250.832031 250.464844 C 250.832031 249.984375 250.832031 249.5 250.832031 249.015625 L 250.832031 248.328125 C 250.84375 248.226562 250.84375 248.125 250.832031 248.023438 C 250.804688 247.890625 250.804688 247.753906 250.832031 247.617188 C 250.832031 247.820312 250.832031 247.871094 250.832031 247.746094 L 250.832031 247.515625 C 250.855469 247.296875 250.855469 247.074219 250.832031 246.855469 C 250.980469 246.566406 251.074219 246.261719 251.109375 245.9375 Z M 251.109375 245.9375 " fill-opacity="1" fill-rule="nonzero"/><path fill="#af6348" d="M 254.414062 252.398438 C 254.328125 252.089844 254.277344 251.777344 254.261719 251.457031 C 254.265625 251.234375 254.164062 251.085938 253.957031 251.003906 C 253.75 250.921875 253.574219 250.964844 253.421875 251.125 C 253.167969 251.433594 252.863281 251.6875 252.609375 251.964844 C 252.351562 252.28125 252.148438 252.628906 252 253.007812 C 251.613281 253.816406 251.371094 254.664062 251.261719 255.550781 C 251.167969 256.398438 251.167969 257.246094 251.261719 258.09375 C 251.300781 258.542969 251.378906 258.980469 251.492188 259.417969 C 251.601562 259.910156 251.832031 260.34375 252.179688 260.714844 C 252.371094 260.90625 252.605469 261.003906 252.878906 261.003906 C 253.148438 261.003906 253.382812 260.90625 253.574219 260.714844 C 254.050781 259.933594 254.265625 259.085938 254.210938 258.171875 C 254.222656 258.070312 254.222656 257.96875 254.210938 257.867188 L 254.210938 254.992188 C 254.210938 254.609375 254.210938 254.253906 254.210938 253.898438 C 254.339844 253.40625 254.40625 252.90625 254.414062 252.398438 Z M 254.414062 252.398438 " fill-opacity="1" fill-rule="nonzero"/><path fill="#af6348" d="M 254.617188 272.945312 C 254.707031 272.273438 254.707031 271.605469 254.617188 270.9375 C 254.464844 270.199219 253.984375 269.128906 253.066406 269.15625 C 252.558594 269.234375 252.195312 269.503906 251.972656 269.96875 C 251.789062 270.363281 251.679688 270.78125 251.644531 271.214844 C 251.597656 271.914062 251.640625 272.609375 251.769531 273.300781 C 251.871094 273.894531 252.007812 274.480469 252.179688 275.054688 C 252.265625 275.667969 252.519531 276.203125 252.941406 276.65625 C 253.035156 276.769531 253.160156 276.828125 253.308594 276.828125 C 253.457031 276.828125 253.582031 276.769531 253.679688 276.65625 C 254.027344 276.179688 254.214844 275.644531 254.238281 275.054688 C 254.402344 274.359375 254.53125 273.65625 254.617188 272.945312 Z M 254.617188 272.945312 " fill-opacity="1" fill-rule="nonzero"/><path fill="#af6348" d="M 258.355469 292.015625 C 258.40625 291.6875 258.382812 291.863281 258.355469 292.015625 Z M 258.355469 292.015625 " fill-opacity="1" fill-rule="nonzero"/><path fill="#af6348" d="M 258.101562 290.3125 C 257.898438 289.800781 257.667969 289.300781 257.414062 288.8125 L 257.59375 289.21875 C 257.460938 288.90625 257.300781 288.609375 257.109375 288.328125 L 256.78125 287.746094 C 256.347656 287.082031 255.507812 286.320312 254.695312 286.828125 C 253.882812 287.335938 253.957031 289.015625 254.1875 289.957031 C 254.351562 290.417969 254.5625 290.859375 254.820312 291.277344 C 255.097656 291.726562 255.453125 292.101562 255.890625 292.398438 C 256.332031 292.789062 256.847656 292.984375 257.441406 292.984375 C 257.777344 292.988281 258.035156 292.84375 258.203125 292.550781 C 258.226562 292.441406 258.226562 292.328125 258.203125 292.21875 L 258.203125 292.015625 C 258.277344 291.644531 258.277344 291.269531 258.203125 290.898438 C 258.226562 290.746094 258.152344 290.515625 258.101562 290.3125 Z M 258.101562 290.3125 " fill-opacity="1" fill-rule="nonzero"/><path fill="#af6348" d="M 262.601562 303.179688 L 262.601562 303.382812 L 262.449219 303 C 262.308594 302.804688 262.15625 302.617188 261.992188 302.441406 L 261.429688 301.855469 C 261.042969 301.484375 260.6875 301.101562 260.363281 300.710938 C 259.964844 300.289062 259.542969 299.890625 259.09375 299.519531 C 258.609375 299.109375 257.542969 298.296875 256.957031 298.933594 C 256.804688 299.222656 256.726562 299.53125 256.726562 299.859375 C 256.726562 300.1875 256.804688 300.5 256.957031 300.789062 C 257.179688 301.367188 257.46875 301.910156 257.820312 302.417969 L 258.992188 303.867188 C 259.382812 304.371094 259.851562 304.792969 260.390625 305.136719 C 260.820312 305.289062 260.898438 305.339844 260.667969 305.136719 C 260.441406 304.933594 260.667969 305.136719 260.667969 305.136719 C 260.773438 305.222656 260.882812 305.296875 261 305.367188 C 261.425781 305.675781 261.890625 305.761719 262.398438 305.621094 C 262.695312 305.507812 262.921875 305.3125 263.078125 305.03125 C 263.230469 304.753906 263.273438 304.457031 263.210938 304.144531 C 263.09375 303.769531 262.890625 303.449219 262.601562 303.179688 Z M 262.601562 303.179688 " fill-opacity="1" fill-rule="nonzero"/><path fill="#af6348" d="M 270.253906 305.339844 C 270.160156 305.058594 269.980469 304.847656 269.71875 304.703125 L 269.515625 304.703125 C 269.515625 304.703125 269.515625 304.550781 269.3125 304.5 L 269.058594 304.375 L 268.574219 304.121094 C 268.335938 303.984375 268.089844 303.867188 267.839844 303.765625 C 267.667969 303.789062 267.5 303.789062 267.328125 303.765625 L 267.582031 303.765625 L 267.125 303.765625 C 266.957031 303.699219 266.789062 303.699219 266.617188 303.765625 C 266.433594 303.789062 266.269531 303.863281 266.132812 303.992188 C 266.03125 304.148438 265.980469 304.316406 265.980469 304.5 C 265.980469 304.6875 266.03125 304.855469 266.132812 305.011719 C 266.179688 305.105469 266.238281 305.191406 266.3125 305.265625 C 266.300781 305.316406 266.300781 305.367188 266.3125 305.417969 C 266.378906 305.496094 266.441406 305.582031 266.492188 305.671875 C 266.625 305.851562 266.789062 306.003906 266.972656 306.128906 L 267.253906 306.308594 C 267.503906 306.476562 267.777344 306.601562 268.066406 306.6875 L 268.371094 306.816406 L 268.929688 306.816406 C 269.195312 306.878906 269.449219 306.847656 269.691406 306.722656 C 269.929688 306.597656 270.101562 306.40625 270.203125 306.15625 C 270.339844 305.890625 270.359375 305.621094 270.253906 305.339844 Z M 270.253906 305.339844 " fill-opacity="1" fill-rule="nonzero"/><path fill="#af6348" d="M 258.507812 276.859375 C 258.476562 276.210938 258.390625 275.566406 258.253906 274.929688 C 258.203125 274.722656 258.128906 274.527344 258.023438 274.34375 L 258.023438 274.140625 L 257.847656 273.886719 L 257.847656 273.734375 L 257.59375 273.324219 C 257.535156 273.222656 257.453125 273.144531 257.351562 273.085938 C 257.25 273.027344 257.140625 272.996094 257.019531 272.996094 C 256.902344 272.996094 256.792969 273.027344 256.691406 273.085938 C 256.589844 273.144531 256.507812 273.222656 256.449219 273.324219 L 256.269531 273.707031 C 256.269531 273.707031 256.269531 274.039062 256.269531 273.9375 C 256.269531 273.835938 256.269531 273.9375 256.117188 274.164062 C 256.042969 274.292969 255.992188 274.429688 255.964844 274.570312 C 255.863281 274.789062 255.8125 275.019531 255.8125 275.257812 C 255.773438 275.835938 255.773438 276.410156 255.8125 276.988281 C 255.84375 277.636719 255.910156 278.28125 256.015625 278.921875 C 256.015625 279.175781 256.015625 279.453125 256.144531 279.707031 C 256.269531 279.964844 256.421875 280.371094 256.5 280.574219 C 256.5625 280.796875 256.6875 280.980469 256.875 281.125 C 257.058594 281.265625 257.269531 281.335938 257.503906 281.335938 C 257.738281 281.335938 257.949219 281.265625 258.132812 281.125 C 258.320312 280.980469 258.445312 280.796875 258.507812 280.574219 C 258.507812 280.574219 258.507812 280.371094 258.507812 280.140625 C 258.519531 280.015625 258.519531 279.886719 258.507812 279.757812 C 258.53125 279.394531 258.53125 279.03125 258.507812 278.667969 C 258.558594 278.03125 258.535156 277.421875 258.507812 276.859375 Z M 258.507812 276.859375 " fill-opacity="1" fill-rule="nonzero"/><path fill="#af6348" d="M 258.175781 239.328125 C 257.769531 238.972656 257.304688 238.863281 256.78125 238.996094 C 256.269531 239.160156 255.949219 239.496094 255.8125 240.015625 C 255.652344 240.632812 255.570312 241.257812 255.558594 241.894531 C 255.558594 242.40625 255.558594 242.9375 255.558594 243.421875 C 255.605469 243.996094 255.6875 244.5625 255.8125 245.125 C 255.898438 245.410156 256.019531 245.683594 256.167969 245.9375 C 256.320312 246.167969 256.625 246.472656 256.957031 246.347656 C 257.214844 246.214844 257.414062 246.023438 257.5625 245.777344 C 257.707031 245.527344 257.777344 245.261719 257.769531 244.972656 L 258 243.523438 C 258.152344 242.558594 258.433594 241.617188 258.585938 240.648438 C 258.695312 240.132812 258.558594 239.691406 258.175781 239.328125 Z M 258.175781 239.328125 " fill-opacity="1" fill-rule="nonzero"/><path fill="#af6348" d="M 253.652344 231.75 C 253.65625 231.554688 253.59375 231.382812 253.46875 231.234375 C 253.34375 231.082031 253.183594 230.992188 252.992188 230.960938 C 252.59375 230.933594 252.296875 231.09375 252.101562 231.445312 L 251.972656 231.625 C 251.855469 231.746094 251.753906 231.882812 251.667969 232.03125 C 251.414062 232.410156 251.195312 232.808594 251.007812 233.226562 C 250.800781 233.734375 250.65625 234.257812 250.578125 234.800781 C 250.472656 235.378906 250.472656 235.953125 250.578125 236.53125 C 250.585938 236.808594 250.683594 237.050781 250.871094 237.257812 C 251.058594 237.464844 251.292969 237.585938 251.566406 237.625 C 251.84375 237.648438 252.097656 237.582031 252.328125 237.421875 C 252.558594 237.265625 252.710938 237.050781 252.789062 236.785156 C 252.960938 236.328125 253.101562 235.859375 253.21875 235.386719 C 253.21875 235.15625 253.21875 234.953125 253.21875 234.75 C 253.21875 234.546875 253.21875 234.320312 253.21875 234.113281 L 253.21875 233.046875 C 253.234375 232.84375 253.234375 232.640625 253.21875 232.4375 L 253.21875 232.257812 C 253.601562 232.03125 253.652344 231.902344 253.652344 231.75 Z M 253.652344 231.75 " fill-opacity="1" fill-rule="nonzero"/></svg>