<svg xmlns="http://www.w3.org/2000/svg" xmlns:xlink="http://www.w3.org/1999/xlink" width="940" zoomAndPan="magnify" viewBox="0 0 705 591.000005" height="788" preserveAspectRatio="xMidYMid meet" version="1.0"><path fill="#f0882e" d="M 272.589844 158.695312 C 270.082031 121.398438 252.074219 99.128906 214.089844 112.453125 C 177.988281 125.15625 193.753906 201.085938 254.132812 185.167969 C 256.730469 184.542969 272.945312 164.058594 272.589844 158.695312 Z M 272.589844 158.695312 " fill-opacity="1" fill-rule="evenodd"/><path fill="#f0882e" d="M 405.265625 144.207031 C 419.238281 109.59375 443.25 94.03125 475.050781 118.445312 C 505.332031 141.613281 466.898438 208.777344 414.492188 175.0625 C 412.253906 173.628906 403.203125 149.125 405.265625 144.207031 Z M 405.265625 144.207031 " fill-opacity="1" fill-rule="evenodd"/><path fill="#fbcf9e" d="M 418.613281 144.652344 C 427.929688 121.578125 443.875 111.203125 465.105469 127.480469 C 485.265625 142.953125 459.640625 187.671875 424.792969 165.222656 C 423.269531 164.238281 417.269531 147.960938 418.613281 144.652344 Z M 418.613281 144.652344 " fill-opacity="1" fill-rule="evenodd"/><path fill="#fbcf9e" d="M 258.164062 153.597656 C 256.464844 128.820312 244.460938 113.976562 219.285156 122.828125 C 195.277344 131.328125 205.757812 181.859375 245.980469 171.304688 C 247.59375 170.855469 258.433594 157.171875 258.164062 153.597656 Z M 258.164062 153.597656 " fill-opacity="1" fill-rule="evenodd"/><path fill="#f0882e" d="M 213.910156 431.925781 C 201.636719 434.070312 174.132812 483.082031 243.113281 484.601562 C 249.386719 484.78125 317.738281 481.203125 323.382812 502.132812 C 323.832031 503.921875 320.160156 506.335938 317.292969 506.605469 C 254.132812 511.523438 202.53125 505.261719 184.078125 472.976562 C 176.554688 459.828125 177.808594 438.722656 195.457031 426.109375 C 206.742188 418.0625 212.207031 414.574219 213.285156 430.941406 Z M 213.910156 431.925781 " fill-opacity="1" fill-rule="evenodd"/><path fill="#ee7a00" d="M 413.863281 274.425781 C 405.445312 277.734375 425.242188 307.875 443.875 387.652344 C 452.566406 424.949219 478.007812 442.925781 498.96875 441.316406 C 511.871094 440.332031 528.265625 436.394531 532.207031 425.933594 C 539.015625 408.132812 510.617188 388.457031 500.3125 400.890625 C 468.242188 374.59375 447.371094 261.277344 413.863281 274.425781 Z M 413.863281 274.425781 " fill-opacity="1" fill-rule="evenodd"/><path fill="#f0882e" d="M 431.511719 307.25 C 454.804688 331.488281 497 424.679688 462.328125 437.113281 C 445.757812 443.015625 440.023438 459.292969 410.371094 463.496094 C 365.757812 469.757812 357.695312 466.535156 314.785156 464.390625 C 265.0625 461.976562 262.195312 461.976562 229.050781 434.964844 C 212.027344 421.101562 222.957031 381.214844 233.796875 356.441406 C 264.792969 285.335938 385.199219 225.773438 431.511719 307.25 Z M 431.511719 307.25 " fill-opacity="1" fill-rule="evenodd"/><path fill="#fbcf9e" d="M 388.78125 337.746094 C 270.082031 279.882812 181.121094 468.414062 301.34375 479.773438 C 355.367188 484.871094 439.308594 491.3125 442.621094 410.28125 C 444.054688 375.667969 417.179688 351.609375 388.78125 337.746094 Z M 388.78125 337.746094 " fill-opacity="1" fill-rule="evenodd"/><path fill="#e07200" d="M 204.503906 375.488281 C 255.65625 347.765625 302.152344 432.371094 263.273438 468.683594 C 218.660156 510.449219 162.9375 398.027344 204.503906 375.488281 Z M 204.503906 375.488281 " fill-opacity="1" fill-rule="evenodd"/><path fill="#f4afb3" d="M 222.152344 406.078125 C 255.65625 388.546875 282.441406 440.6875 257.898438 462.691406 C 230.214844 487.554688 196.710938 419.402344 222.152344 406.078125 Z M 222.152344 406.078125 " fill-opacity="1" fill-rule="evenodd"/><path fill="#f4afb3" d="M 198.414062 400.890625 C 207.730469 396.328125 215.253906 409.386719 209.253906 414.664062 C 199.21875 423.429688 188.46875 405.71875 198.414062 400.890625 Z M 198.414062 400.890625 " fill-opacity="1" fill-rule="evenodd"/><path fill="#f4afb3" d="M 213.105469 385.058594 C 222.421875 380.5 229.945312 393.554688 223.855469 398.832031 C 213.910156 407.507812 203.160156 389.800781 213.105469 385.058594 Z M 213.105469 385.058594 " fill-opacity="1" fill-rule="evenodd"/><path fill="#f4afb3" d="M 242.578125 378.710938 C 232.542969 381.304688 235.320312 396.058594 243.292969 396.238281 C 256.554688 396.417969 253.238281 376.027344 242.578125 378.710938 Z M 242.578125 378.710938 " fill-opacity="1" fill-rule="evenodd"/><path fill="#31302f" d="M 332.789062 384.34375 C 338.34375 380.585938 344.347656 388.277344 340.941406 392.214844 C 335.386719 398.742188 326.878906 388.367188 332.789062 384.34375 Z M 332.789062 384.34375 " fill-opacity="1" fill-rule="evenodd"/><path fill="#e07200" d="M 475.945312 407.417969 C 427.929688 367.53125 360.917969 437.917969 394.960938 482.1875 C 432.230469 530.664062 512.320312 437.648438 475.945312 407.417969 Z M 475.945312 407.417969 " fill-opacity="1" fill-rule="evenodd"/><path fill="#f4afb3" d="M 450.863281 432.371094 C 421.390625 402.050781 382.507812 445.875 401.679688 477.804688 C 420.851562 509.644531 470.929688 453.03125 450.863281 432.371094 Z M 450.863281 432.371094 " fill-opacity="1" fill-rule="evenodd"/><path fill="#f4afb3" d="M 475.230469 433.535156 C 467.4375 426.738281 456.777344 437.378906 461.253906 444.089844 C 468.601562 455.089844 483.5625 440.6875 475.230469 433.535156 Z M 475.230469 433.535156 " fill-opacity="1" fill-rule="evenodd"/><path fill="#f4afb3" d="M 465.195312 414.394531 C 457.402344 407.597656 446.742188 418.242188 451.222656 424.949219 C 458.476562 435.949219 473.4375 421.550781 465.195312 414.394531 Z M 465.195312 414.394531 " fill-opacity="1" fill-rule="evenodd"/><path fill="#f4afb3" d="M 439.664062 401.875 C 448.625 406.972656 442.171875 420.566406 434.378906 418.597656 C 421.570312 415.378906 430.078125 396.507812 439.664062 401.875 Z M 439.664062 401.875 " fill-opacity="1" fill-rule="evenodd"/><path fill="#f4a261" d="M 340.761719 326.386719 C 289.339844 327.820312 248.222656 318.875 229.585938 283.011719 C 196.710938 219.867188 252.074219 112.992188 328.488281 108.429688 C 453.550781 100.917969 542.417969 320.574219 340.761719 326.386719 Z M 340.761719 326.386719 " fill-opacity="1" fill-rule="evenodd"/><path fill="#31302f" d="M 349.453125 295.175781 C 349.453125 295.980469 349.453125 296.605469 349.453125 297.054688 C 351.960938 296.875 356.53125 296.335938 362.261719 295.175781 C 361.90625 300.363281 352.765625 301.167969 345.691406 300.542969 C 341.300781 300.09375 332.699219 296.785156 332.878906 292.582031 C 332.878906 292.492188 339.6875 295.355469 344.703125 296.605469 C 345.242188 293.207031 346.945312 282.652344 346.765625 280.953125 C 346.675781 279.792969 345.78125 268.164062 346.675781 268.253906 C 351.871094 268.703125 349.09375 288.734375 349.453125 295.175781 Z M 349.453125 295.175781 " fill-opacity="1" fill-rule="evenodd"/><path fill="#8e6334" d="M 345.421875 234.179688 C 324.636719 234.984375 303.675781 254.660156 345.691406 279.523438 C 358.589844 287.125 404.816406 231.855469 345.421875 234.179688 Z M 345.421875 234.179688 " fill-opacity="1" fill-rule="evenodd"/><path fill="#31302f" d="M 420.316406 245 C 413.058594 249.382812 406.789062 238.382812 412.074219 234.984375 C 421.660156 228.902344 426.136719 241.421875 420.316406 245 Z M 420.316406 245 " fill-opacity="1" fill-rule="evenodd"/><path fill="#31302f" d="M 274.113281 246.253906 C 268.109375 250.367188 262.914062 240.261719 267.394531 237.21875 C 275.367188 231.585938 279.039062 242.945312 274.113281 246.253906 Z M 274.113281 246.253906 " fill-opacity="1" fill-rule="evenodd"/><path fill="#f4afb3" d="M 397.46875 276.125 C 417.089844 286.855469 434.199219 267.003906 419.867188 258.863281 C 393.976562 244.195312 381.613281 267.449219 397.46875 276.125 Z M 397.46875 276.125 " fill-opacity="1" fill-rule="evenodd"/><path fill="#f4afb3" d="M 285.578125 280.328125 C 263.628906 284.441406 253.507812 260.292969 269.632812 256.984375 C 298.746094 251.082031 303.316406 277.019531 285.578125 280.328125 Z M 285.578125 280.328125 " fill-opacity="1" fill-rule="evenodd"/><path fill="#525051" d="M 278.054688 134.726562 C 277.246094 134.902344 313.707031 184.628906 315.5 185.523438 C 315.320312 175.6875 317.558594 165.847656 305.914062 135.171875 C 295.792969 108.519531 280.652344 134.097656 278.054688 134.726562 Z M 278.054688 134.726562 " fill-opacity="1" fill-rule="evenodd"/><path fill="#525051" d="M 395.589844 131.773438 C 396.394531 131.953125 359.933594 181.679688 358.140625 182.574219 C 358.230469 172.734375 356.082031 162.898438 367.726562 132.21875 C 377.851562 105.566406 392.992188 131.148438 395.589844 131.773438 Z M 395.589844 131.773438 " fill-opacity="1" fill-rule="evenodd"/><path fill="#525051" d="M 338.882812 181.320312 C 334.402344 172.558594 327.683594 164.953125 323.5625 132.398438 C 321.054688 112.902344 337 106.820312 345.78125 116.746094 C 355.277344 127.570312 345.871094 155.386719 338.882812 181.320312 Z M 338.882812 181.320312 " fill-opacity="1" fill-rule="evenodd"/><path fill="#525051" d="M 429.898438 315.566406 C 424.347656 318.785156 413.417969 346.960938 413.417969 348.121094 C 418.433594 345.527344 424.167969 344.097656 436.976562 330.054688 C 448.085938 317.890625 431.242188 314.761719 429.898438 315.566406 Z M 429.898438 315.566406 " fill-opacity="1" fill-rule="evenodd"/><path fill="#525051" d="M 464.570312 384.96875 C 460.269531 386.222656 440.738281 378.796875 439.84375 378.082031 C 444.949219 375.578125 447.371094 372.269531 457.042969 370.75 C 473.347656 368.066406 466.09375 384.523438 464.570312 384.96875 Z M 464.570312 384.96875 " fill-opacity="1" fill-rule="evenodd"/><path fill="#525051" d="M 426.226562 360.910156 C 428.914062 357.246094 430.707031 352.863281 443.339844 344.367188 C 450.863281 339.265625 456.777344 344.542969 454.445312 350.269531 C 451.9375 356.441406 438.5 358.40625 426.226562 360.910156 Z M 426.226562 360.910156 " fill-opacity="1" fill-rule="evenodd"/><path fill="#525051" d="M 263.183594 324.511719 C 267.929688 327.195312 277.15625 351.074219 277.15625 352.058594 C 272.859375 349.820312 268.109375 348.660156 257.269531 336.761719 C 247.863281 326.566406 262.105469 323.882812 263.183594 324.511719 Z M 263.183594 324.511719 " fill-opacity="1" fill-rule="evenodd"/><path fill="#525051" d="M 265.871094 365.382812 C 263.363281 361.984375 261.75 357.960938 250.011719 350 C 243.027344 345.261719 237.5625 350.179688 239.710938 355.457031 C 242.039062 361.269531 254.492188 363.058594 265.871094 365.382812 Z M 265.871094 365.382812 " fill-opacity="1" fill-rule="evenodd"/><path fill="#759d35" d="M 322.308594 115.226562 C 320.785156 113.082031 318.1875 111.203125 314.960938 109.59375 C 314.066406 119.519531 301.972656 124.707031 302.152344 118.984375 C 302.242188 115.941406 309.765625 110.039062 312.8125 108.878906 C 312.902344 108.789062 313.082031 108.789062 313.171875 108.789062 C 309.855469 107.269531 305.914062 106.105469 301.703125 105.210938 C 302.867188 115.226562 292.296875 123.097656 291.132812 117.375 C 290.503906 114.332031 296.597656 106.730469 299.375 104.761719 C 294.984375 103.957031 290.328125 103.601562 285.757812 103.691406 C 288.714844 112.542969 280.652344 121.757812 278.5 116.746094 C 277.335938 114.152344 281.097656 106.285156 283.339844 103.691406 C 283.070312 103.691406 282.890625 103.691406 282.621094 103.691406 C 279.21875 103.867188 275.902344 104.496094 272.769531 105.300781 C 276.890625 112.722656 270.707031 122.203125 268.199219 118 C 266.855469 115.855469 269.453125 108.25 271.066406 105.925781 C 271.15625 105.835938 271.246094 105.746094 271.335938 105.65625 C 268.109375 106.550781 265.0625 107.714844 262.285156 108.878906 C 265.960938 114.511719 261.839844 122.292969 259.597656 119.164062 C 258.433594 117.554688 259.6875 111.648438 260.761719 109.503906 C 256.730469 111.292969 253.417969 113.171875 251.265625 114.421875 C 251.355469 114.78125 251.179688 115.316406 251 115.585938 C 249.746094 117.464844 244.726562 121.488281 242.757812 121.039062 C 238.90625 120.324219 244.28125 113.082031 251.089844 114.066406 C 252.34375 113.082031 253.6875 112.1875 255.03125 111.382812 C 252.253906 111.5625 247.59375 110.933594 246.519531 109.59375 C 244.28125 106.460938 252.96875 104.851562 257.269531 110.039062 C 260.046875 108.519531 262.824219 107.179688 265.78125 106.105469 C 263.003906 105.925781 258.253906 104.761719 257.449219 103.152344 C 255.566406 99.753906 264.617188 99.308594 268.109375 105.210938 C 268.109375 105.210938 268.109375 105.300781 268.109375 105.300781 C 270.527344 104.496094 272.945312 103.867188 275.277344 103.421875 C 272.589844 102.617188 268.648438 100.738281 268.109375 99.21875 C 266.945312 95.550781 275.722656 96.714844 278.144531 102.976562 C 281.996094 102.347656 285.847656 102.082031 289.519531 102.082031 C 285.847656 99.933594 280.382812 95.28125 280.203125 92.601562 C 279.933594 86.609375 292.476562 91.882812 293.640625 102.167969 C 298.210938 102.4375 302.332031 103.242188 305.914062 104.316406 L 306.183594 104.40625 C 302.777344 101.453125 297.851562 95.460938 298.210938 92.6875 C 299.105469 86.339844 311.378906 94.476562 310.304688 105.566406 C 310.304688 105.65625 310.304688 105.65625 310.214844 105.746094 C 314.066406 107.179688 317.738281 108.878906 321.144531 111.292969 C 327.59375 115.855469 323.652344 117.015625 322.308594 115.226562 Z M 322.308594 115.226562 " fill-opacity="1" fill-rule="evenodd"/><path fill="#759d35" d="M 388.152344 117.730469 C 389.675781 115.675781 392.273438 113.707031 395.5 112.097656 C 396.484375 122.023438 408.488281 127.210938 408.308594 121.488281 C 408.21875 118.445312 400.695312 112.542969 397.648438 111.382812 C 397.558594 111.292969 397.378906 111.292969 397.292969 111.292969 C 400.605469 109.773438 404.546875 108.609375 408.757812 107.714844 C 407.59375 117.730469 418.164062 125.601562 419.328125 119.878906 C 419.957031 116.835938 413.863281 109.234375 411.085938 107.269531 C 415.476562 106.460938 420.136719 106.105469 424.703125 106.105469 C 421.746094 114.960938 429.8125 124.171875 431.960938 119.164062 C 433.125 116.570312 429.363281 108.699219 427.125 106.105469 C 427.390625 106.105469 427.570312 106.105469 427.839844 106.105469 C 431.242188 106.285156 434.558594 106.910156 437.695312 107.714844 C 433.574219 115.136719 439.753906 124.617188 442.261719 120.414062 C 443.605469 118.179688 441.007812 110.667969 439.394531 108.339844 C 439.308594 108.25 439.21875 108.160156 439.128906 108.074219 C 442.351562 108.96875 445.398438 110.128906 448.175781 111.292969 C 444.503906 116.925781 448.625 124.707031 450.863281 121.578125 C 452.027344 119.96875 450.773438 114.066406 449.699219 111.917969 C 453.730469 113.707031 457.042969 115.585938 459.195312 116.835938 C 459.105469 117.195312 459.285156 117.730469 459.464844 118 C 460.71875 119.878906 465.734375 123.902344 467.792969 123.457031 C 471.648438 122.738281 466.273438 115.496094 459.464844 116.480469 C 458.210938 115.496094 456.867188 114.601562 455.609375 113.796875 C 458.386719 113.976562 463.046875 113.347656 464.121094 112.007812 C 466.449219 108.878906 457.671875 107.269531 453.371094 112.453125 C 450.59375 110.933594 447.726562 109.59375 444.859375 108.519531 C 447.636719 108.339844 452.386719 107.179688 453.191406 105.566406 C 455.074219 102.167969 446.027344 101.722656 442.53125 107.625 C 442.53125 107.625 442.53125 107.625 442.53125 107.714844 C 440.113281 106.910156 437.695312 106.285156 435.273438 105.835938 C 437.964844 105.03125 441.90625 103.152344 442.441406 101.542969 C 443.605469 97.875 434.828125 99.039062 432.410156 105.300781 C 428.554688 104.675781 424.703125 104.40625 421.03125 104.40625 C 424.703125 102.257812 430.167969 97.609375 430.347656 94.925781 C 430.617188 88.933594 418.074219 94.210938 416.910156 104.496094 C 412.339844 104.851562 408.21875 105.566406 404.636719 106.640625 L 404.367188 106.730469 C 407.773438 103.78125 412.789062 97.789062 412.339844 95.015625 C 411.535156 88.664062 399.171875 96.804688 400.246094 107.894531 C 400.246094 107.984375 400.246094 107.984375 400.335938 108.074219 C 396.484375 109.503906 392.8125 111.203125 389.40625 113.527344 C 382.867188 118.359375 386.808594 119.519531 388.152344 117.730469 Z M 388.152344 117.730469 " fill-opacity="1" fill-rule="evenodd"/><path fill="#fbbf04" d="M 302.152344 98.503906 C 290.683594 94.03125 291.847656 61.207031 315.230469 75.25 C 321.769531 81.867188 319.980469 85.800781 320.875 84.28125 C 325.175781 76.324219 331.085938 68.71875 339.957031 69.078125 C 348.109375 69.347656 361.367188 82.402344 349.453125 97.070312 C 346.046875 101.1875 356.886719 95.195312 364.144531 105.835938 C 377.851562 125.78125 350.167969 121.308594 351.246094 124.082031 C 354.46875 132.132812 355.632812 138.75 351.511719 142.328125 C 348.109375 145.367188 332.164062 142.238281 329.742188 138.035156 C 324.996094 149.214844 293.460938 155.207031 301.433594 123.457031 C 290.59375 123.992188 282.621094 114.421875 286.5625 107.625 C 290.417969 101.1875 301.257812 98.679688 302.152344 98.503906 Z M 302.152344 98.503906 " fill-opacity="1" fill-rule="evenodd"/><path fill="#ee7a00" d="M 312.453125 101.902344 C 307.707031 103.601562 314.335938 111.738281 316.933594 107.355469 C 318.726562 104.136719 314.15625 101.273438 312.453125 101.902344 Z M 312.453125 101.902344 " fill-opacity="1" fill-rule="evenodd"/><path fill="#ee7a00" d="M 324.996094 100.203125 C 318.007812 107.535156 332.253906 112.453125 330.820312 102.707031 C 330.550781 101.097656 325.625 99.488281 324.996094 100.203125 Z M 324.996094 100.203125 " fill-opacity="1" fill-rule="evenodd"/><path fill="#ee7a00" d="M 319.621094 110.933594 C 316.484375 107.714844 322.847656 105.480469 322.21875 109.859375 C 322.039062 110.578125 319.890625 111.292969 319.621094 110.933594 Z M 319.621094 110.933594 " fill-opacity="1" fill-rule="evenodd"/><path fill="#ee7a00" d="M 327.503906 112.722656 C 324.726562 117.015625 335.03125 119.339844 334.402344 114.332031 C 333.953125 110.578125 328.578125 111.113281 327.503906 112.722656 Z M 327.503906 112.722656 " fill-opacity="1" fill-rule="evenodd"/><path fill="#ee7a00" d="M 336.464844 103.691406 C 335.386719 113.796875 349.722656 108.878906 342.644531 102.082031 C 341.390625 101.007812 336.550781 102.707031 336.464844 103.691406 Z M 336.464844 103.691406 " fill-opacity="1" fill-rule="evenodd"/><path fill="#ee7a00" d="M 338.792969 115.496094 C 334.3125 114.871094 337.984375 109.234375 340.136719 112.992188 C 340.496094 113.617188 339.238281 115.585938 338.792969 115.496094 Z M 338.792969 115.496094 " fill-opacity="1" fill-rule="evenodd"/><path fill="#ee7a00" d="M 335.65625 122.738281 C 332.519531 119.519531 338.882812 117.285156 338.253906 121.667969 C 338.164062 122.292969 335.925781 123.007812 335.65625 122.738281 Z M 335.65625 122.738281 " fill-opacity="1" fill-rule="evenodd"/><path fill="#ee7a00" d="M 330.101562 93.671875 C 329.027344 103.78125 343.359375 98.859375 336.285156 92.0625 C 335.121094 90.988281 330.191406 92.777344 330.101562 93.671875 Z M 330.101562 93.671875 " fill-opacity="1" fill-rule="evenodd"/><path fill="#ee7a00" d="M 324.636719 120.503906 C 321.503906 117.285156 327.863281 115.046875 327.234375 119.429688 C 327.144531 120.148438 324.90625 120.863281 324.636719 120.503906 Z M 324.636719 120.503906 " fill-opacity="1" fill-rule="evenodd"/><path fill="#ee7a00" d="M 316.933594 117.640625 C 313.796875 114.421875 320.160156 112.1875 319.53125 116.570312 C 319.351562 117.285156 317.203125 118 316.933594 117.640625 Z M 316.933594 117.640625 " fill-opacity="1" fill-rule="evenodd"/><path fill="#ee7a00" d="M 318.816406 102.617188 C 315.679688 99.398438 322.039062 97.160156 321.414062 101.542969 C 321.324219 102.257812 319.082031 102.976562 318.816406 102.617188 Z M 318.816406 102.617188 " fill-opacity="1" fill-rule="evenodd"/><path fill="#ee7a00" d="M 320.070312 95.195312 C 316.933594 91.972656 323.292969 89.738281 322.667969 94.121094 C 322.578125 94.746094 320.335938 95.460938 320.070312 95.195312 Z M 320.070312 95.195312 " fill-opacity="1" fill-rule="evenodd"/><path fill="#4cbac9" d="M 287.460938 123.277344 C 286.832031 134.726562 298.835938 146.351562 301.433594 143.042969 C 303.585938 140.269531 298.480469 132.578125 294.359375 123.902344 C 291.847656 118.625 293.015625 122.113281 296.328125 124.796875 C 303.226562 130.253906 318.277344 133.292969 307.707031 124.886719 C 304.300781 122.203125 298.300781 119.96875 296.148438 118.445312 C 331.984375 123.8125 304.03125 114.421875 298.746094 113.171875 C 302.152344 110.84375 309.410156 98.949219 307.796875 95.910156 C 305.824219 92.242188 298.480469 96.980469 292.566406 109.773438 C 294.894531 84.460938 288.085938 78.828125 285.757812 105.210938 C 274.203125 84.371094 271.15625 97.25 274.917969 102.257812 C 275.722656 103.332031 281.1875 109.144531 281.1875 109.144531 C 272.140625 107.984375 263.628906 109.59375 263.808594 110.753906 C 264.078125 112.992188 281.007812 116.210938 280.832031 116.390625 C 272.5 121.847656 272.140625 133.5625 273.753906 133.5625 C 279.664062 133.5625 287.191406 128.554688 287.460938 123.277344 Z M 287.460938 123.277344 " fill-opacity="1" fill-rule="evenodd"/><path fill="#fbbf04" d="M 293.730469 111.5625 C 293.910156 111.5625 299.644531 118.269531 291.847656 118.445312 C 287.28125 118.625 283.429688 108.699219 293.730469 111.5625 Z M 293.730469 111.5625 " fill-opacity="1" fill-rule="evenodd"/><path fill="#ea5c05" d="M 360.652344 117.640625 C 351.601562 121.21875 352.589844 146.886719 370.953125 135.886719 C 376.148438 130.699219 374.714844 127.570312 375.34375 128.820312 C 378.746094 135.082031 383.40625 140.984375 390.304688 140.71875 C 396.753906 140.449219 407.144531 130.253906 397.828125 118.804688 C 395.140625 115.585938 403.652344 120.234375 409.296875 111.917969 C 420.046875 96.265625 398.367188 99.753906 399.171875 97.609375 C 401.679688 91.257812 402.757812 85.980469 399.351562 83.296875 C 390.574219 76.234375 384.210938 88.308594 382.242188 91.527344 C 380.179688 79.542969 353.753906 73.191406 360.023438 98.054688 C 351.511719 97.699219 345.242188 105.121094 348.378906 110.398438 C 351.421875 115.496094 359.933594 117.464844 360.652344 117.640625 Z M 360.652344 117.640625 " fill-opacity="1" fill-rule="evenodd"/><path fill="#fbbf04" d="M 382.507812 101.007812 C 382.777344 101.097656 394.246094 108.699219 382.957031 118.269531 C 372.027344 127.660156 362.261719 97.699219 382.507812 101.007812 Z M 382.507812 101.007812 " fill-opacity="1" fill-rule="evenodd"/><path fill="#4cbac9" d="M 403.203125 112.542969 C 397.828125 105.390625 400.605469 92.777344 403.742188 93.761719 C 406.339844 94.65625 406.339844 101.8125 407.414062 109.144531 C 408.042969 113.617188 407.324219 110.84375 408.308594 107.714844 C 410.371094 101.273438 418.792969 92.777344 415.566406 102.796875 C 414.492188 106.015625 411.625 110.039062 410.910156 111.917969 C 431.691406 93.046875 417.714844 111.113281 414.851562 114.242188 C 418.074219 114.332031 427.839844 118.804688 428.109375 121.488281 C 428.46875 124.707031 421.660156 124.796875 412.339844 119.164062 C 424.792969 134.457031 422.824219 140.984375 409.921875 124.976562 C 411.445312 143.398438 403.921875 136.425781 404.277344 131.503906 C 404.367188 130.433594 405.355469 124.441406 405.355469 124.351562 C 400.070312 129 393.796875 131.59375 393.4375 130.789062 C 392.632812 129.269531 402.21875 119.878906 401.949219 119.878906 C 394.246094 119.878906 388.960938 112.542969 389.945312 111.828125 C 393.707031 109.324219 400.695312 109.324219 403.203125 112.542969 Z M 403.203125 112.542969 " fill-opacity="1" fill-rule="evenodd"/><path fill="#fbbf04" d="M 412.253906 117.375 C 412.339844 117.285156 413.148438 110.488281 408.042969 113.707031 C 405.085938 115.585938 406.875 123.722656 412.253906 117.375 Z M 412.253906 117.375 " fill-opacity="1" fill-rule="evenodd"/></svg>