<svg xmlns="http://www.w3.org/2000/svg" xmlns:xlink="http://www.w3.org/1999/xlink" width="940" zoomAndPan="magnify" viewBox="0 0 705 591.000005" height="788" preserveAspectRatio="xMidYMid meet" version="1.0"><defs><clipPath id="cfb6443e21"><path d="M 125.816406 59 L 579.550781 59 L 579.550781 530.703125 L 125.816406 530.703125 Z M 125.816406 59 " clip-rule="nonzero"/></clipPath></defs><path fill="#f8c592" d="M 334.90625 162.816406 C 335.632812 157.566406 336.167969 152.316406 336.773438 147.070312 C 337.136719 143.804688 337.28125 140.515625 337.546875 137.226562 C 337.933594 132.511719 338.371094 127.796875 338.710938 123.078125 C 338.878906 120.5625 339.046875 118.023438 339.21875 115.507812 C 339.484375 111.347656 339.652344 107.191406 340.1875 103.03125 C 340.210938 102.789062 340.1875 102.546875 340.1875 102.304688 C 331.371094 102.085938 322.628906 103.125 313.957031 104.527344 C 300.707031 106.683594 287.484375 109.003906 274.84375 113.769531 C 271.71875 114.953125 271.71875 114.832031 269.464844 112.195312 C 268.640625 111.226562 267.964844 110.140625 266.996094 109.246094 C 263.917969 106.367188 260.382812 104.117188 256.847656 101.84375 C 249.824219 97.296875 242.507812 93.332031 234.734375 90.210938 C 224.828125 86.222656 214.800781 82.519531 204.628906 79.28125 C 197.894531 77.152344 191.113281 75.167969 184.1875 73.789062 C 170.867188 71.203125 157.328125 70.71875 143.863281 69.96875 C 143.28125 69.945312 142.652344 69.871094 142.117188 70.257812 C 142.238281 70.742188 142.652344 70.984375 142.964844 71.273438 C 147.109375 75.410156 151.636719 79.136719 156.3125 82.640625 C 166.121094 89.996094 176.558594 96.453125 186.902344 103.003906 C 201.433594 112.21875 215.964844 121.457031 229.089844 132.679688 C 234.539062 137.324219 239.625 142.304688 243.5 148.402344 C 244.957031 150.671875 246.238281 153.042969 246.699219 155.777344 C 246.84375 156.648438 246.675781 157.46875 245.632812 157.613281 C 244.617188 157.761719 244.203125 157.011719 244.082031 156.140625 C 243.914062 155.097656 243.550781 154.132812 243.113281 153.1875 C 241.128906 148.933594 238.246094 145.328125 235.050781 141.941406 C 229.359375 135.921875 222.84375 130.792969 216.207031 125.859375 C 213.46875 123.828125 210.734375 121.75 207.800781 119.960938 C 207.730469 119.863281 207.632812 119.765625 207.535156 119.933594 C 207.511719 119.960938 207.609375 120.054688 207.65625 120.105469 C 209.425781 125.910156 210.828125 131.785156 212.308594 137.664062 C 214.269531 145.425781 216.496094 153.09375 219.742188 160.421875 C 222.210938 166.03125 225.289062 171.230469 229.746094 175.535156 C 230.640625 176.40625 230.449219 177.519531 229.453125 177.859375 C 228.703125 178.125 228.21875 177.6875 227.757812 177.230469 C 225.09375 174.664062 222.890625 171.761719 221 168.59375 C 219.332031 165.8125 217.949219 162.886719 216.472656 159.621094 C 216.449219 160.128906 216.425781 160.324219 216.425781 160.492188 C 216.351562 165.355469 216.277344 170.238281 216.910156 175.074219 C 217.585938 180.15625 218.992188 184.96875 222.042969 189.199219 C 223.085938 190.652344 224.246094 191.957031 225.484375 193.238281 C 226.039062 193.820312 226.113281 194.472656 225.554688 195.078125 C 225 195.65625 224.320312 195.609375 223.714844 195.125 C 223.496094 194.957031 223.300781 194.738281 223.109375 194.542969 C 217.078125 188.570312 214.730469 181.097656 214.027344 172.898438 C 213.6875 168.789062 213.761719 164.675781 213.808594 160.589844 C 213.832031 158.777344 213.929688 156.960938 214.609375 155.246094 C 214.753906 154.882812 214.632812 154.617188 214.535156 154.324219 C 212.136719 147.578125 210.441406 140.636719 208.625 133.746094 C 207.171875 128.15625 206.179688 122.425781 203.441406 117.25 C 203.152344 116.695312 202.738281 116.402344 202.304688 116.113281 C 191.695312 108.980469 180.75 102.402344 170.042969 95.410156 C 160.960938 89.488281 152.074219 83.269531 144.007812 75.96875 C 142.796875 74.878906 141.632812 73.742188 140.375 72.558594 C 140.277344 72.800781 140.203125 72.917969 140.203125 73.015625 C 140.082031 74.082031 140.324219 75.097656 140.375 76.136719 C 140.640625 84.964844 141.488281 93.71875 142.53125 102.496094 C 144.199219 116.671875 147.882812 130.308594 153.164062 143.539062 C 155.996094 150.625 159.363281 157.421875 163.164062 164.046875 C 168.203125 172.828125 173.628906 181.363281 179.925781 189.296875 C 184.9375 195.609375 190.171875 201.726562 196.441406 206.902344 C 202.085938 211.546875 208.09375 215.683594 214.339844 219.457031 C 219.839844 222.769531 225.433594 225.886719 231.609375 227.824219 C 233.570312 228.425781 234.78125 229.832031 235.96875 231.28125 C 236.285156 231.667969 236.332031 232.152344 236.261719 232.660156 C 235.75 237.132812 235.460938 241.632812 235.605469 246.132812 C 235.777344 251.574219 236.042969 256.988281 236.503906 262.40625 C 237.203125 270.628906 238.535156 278.707031 241.515625 286.445312 C 242.679688 289.46875 243.914062 292.421875 245.972656 294.960938 C 245.972656 293.363281 245.292969 291.9375 244.980469 290.390625 C 243.5 282.890625 244.859375 275.855469 247.8125 268.914062 C 249.195312 265.695312 251.710938 263.640625 254.183594 261.511719 C 258.953125 257.375 263.917969 253.484375 269.03125 249.757812 C 274.890625 245.503906 281.019531 241.632812 287.292969 238.003906 C 293.25 234.546875 299.425781 231.5 305.164062 227.652344 C 311.875 223.15625 317.152344 217.351562 321.246094 210.433594 C 325.898438 202.597656 328.609375 194.035156 330.742188 185.257812 C 332.535156 177.859375 333.839844 170.359375 334.90625 162.816406 Z M 290.292969 132.535156 C 290.246094 131.90625 290.609375 131.519531 291.09375 131.277344 C 291.652344 131.011719 292.109375 131.375 292.472656 131.738281 C 294.167969 133.476562 295.621094 135.390625 297.074219 137.324219 C 298.820312 139.644531 300.441406 142.039062 301.582031 144.722656 C 301.847656 145.378906 302.039062 146.078125 302.257812 146.78125 C 302.523438 147.625 302.160156 148.253906 301.386719 148.496094 C 300.539062 148.738281 300.007812 148.230469 299.765625 147.433594 C 299.039062 144.964844 297.777344 142.789062 296.300781 140.683594 C 294.582031 138.242188 292.691406 135.945312 290.777344 133.671875 C 290.488281 133.332031 290.222656 132.996094 290.292969 132.535156 Z M 284.023438 138.414062 C 284.652344 137.515625 285.546875 137.757812 286.273438 138.242188 C 290.292969 140.976562 293.734375 144.335938 296.519531 148.351562 C 296.710938 148.617188 296.859375 148.910156 296.832031 149.246094 C 296.90625 149.949219 296.519531 150.433594 295.914062 150.648438 C 295.136719 150.914062 294.679688 150.3125 294.363281 149.777344 C 293.105469 147.796875 291.433594 146.152344 289.785156 144.507812 C 288.285156 142.984375 286.613281 141.652344 284.84375 140.46875 C 284.117188 139.984375 283.320312 139.378906 284.023438 138.414062 Z M 304.027344 207.796875 C 303.105469 209.273438 302.015625 210.605469 300.683594 211.742188 C 295.648438 215.996094 289.808594 214.859375 285.71875 209.949219 C 282.324219 205.886719 280.703125 201.050781 280 195.921875 C 279.03125 188.863281 279.6875 181.945312 282.714844 175.390625 C 283.902344 172.804688 285.449219 170.457031 287.726562 168.691406 C 292.28125 165.136719 297.316406 165.425781 301.410156 169.5625 C 304.875 173.070312 306.617188 177.445312 307.683594 182.136719 C 308.3125 184.847656 308.554688 187.628906 308.507812 190.410156 C 308.484375 196.578125 307.320312 202.453125 304.027344 207.796875 Z M 304.027344 207.796875 " fill-opacity="1" fill-rule="nonzero"/><path fill="#f8c592" d="M 567.054688 103.972656 C 564.605469 104.410156 562.113281 104.675781 559.640625 105.011719 C 552.933594 105.980469 546.222656 107.117188 539.589844 108.542969 C 527.113281 111.226562 515.101562 115.242188 503.402344 120.296875 C 499.191406 122.113281 495.046875 124.117188 490.980469 126.222656 C 490.519531 126.464844 490.132812 126.609375 490.589844 127.238281 C 491.101562 127.914062 490.710938 128.542969 490.15625 129.027344 C 489.1875 129.851562 488.4375 130.84375 487.757812 131.90625 C 485.988281 134.710938 484.730469 137.757812 483.566406 140.855469 C 480.03125 150.140625 477.632812 159.765625 474.65625 169.222656 C 474.484375 169.730469 474.460938 170.070312 475.164062 170.070312 C 476.011719 170.09375 476.324219 170.746094 476.445312 171.449219 C 476.808594 173.820312 477.078125 176.238281 477.246094 178.632812 C 477.511719 182.550781 477.34375 186.417969 476.738281 190.289062 C 476.035156 194.835938 474.628906 199.117188 471.675781 202.769531 C 470.996094 203.613281 470.269531 204.4375 469.351562 205.042969 C 468.695312 205.476562 468.019531 205.476562 467.535156 204.800781 C 467.050781 204.144531 467.148438 203.492188 467.753906 202.960938 C 470.828125 200.398438 472.402344 196.988281 473.445312 193.238281 C 474.871094 188.039062 474.824219 182.71875 474.507812 177.421875 C 474.414062 175.679688 474.339844 173.867188 473.734375 172.003906 C 473.082031 173.527344 472.523438 174.882812 471.894531 176.238281 C 470.027344 180.226562 467.726562 183.953125 464.578125 187.121094 C 463.925781 187.773438 463.152344 188.160156 462.375 187.3125 C 461.625 186.515625 462.109375 185.839844 462.714844 185.210938 C 465.210938 182.742188 467.074219 179.839844 468.671875 176.746094 C 471.796875 170.746094 473.347656 164.191406 475.308594 157.785156 C 478.3125 147.964844 480.808594 137.953125 486.351562 129.101562 C 486.425781 129.003906 486.59375 128.8125 486.570312 128.785156 C 486.378906 128.59375 486.257812 128.761719 486.136719 128.882812 C 485.988281 128.933594 485.820312 128.980469 485.699219 129.050781 C 471.480469 137.15625 458.0625 146.296875 447.164062 158.703125 C 446.414062 159.550781 445.589844 159.671875 444.984375 159.042969 C 444.234375 158.269531 444.648438 157.566406 445.203125 156.914062 C 447.382812 154.300781 449.78125 151.929688 452.277344 149.609375 C 461.601562 140.902344 472.085938 133.769531 483.15625 127.457031 C 505.945312 114.421875 530.433594 106.367188 556.421875 102.789062 C 557.824219 102.59375 559.207031 102.328125 560.585938 102.085938 C 549.035156 99.5 537.457031 97.417969 525.710938 96.332031 C 521.449219 95.945312 517.183594 95.628906 512.898438 95.605469 C 508.707031 95.582031 504.519531 96.015625 500.328125 96.1875 C 489.816406 96.621094 479.355469 97.710938 468.867188 98.847656 C 454.769531 100.371094 441.257812 104.09375 428.054688 109.101562 C 425.148438 110.1875 422.195312 111.15625 419.457031 112.679688 C 419.046875 112.921875 418.78125 112.726562 418.441406 112.605469 C 413.621094 110.839844 408.730469 109.414062 403.714844 108.328125 C 395.527344 106.5625 387.292969 104.988281 378.988281 103.78125 C 374.117188 103.078125 369.226562 102.570312 364.308594 102.351562 C 364.117188 104.3125 364.550781 106.246094 364.671875 108.207031 C 364.769531 109.703125 364.867188 111.253906 365.011719 112.753906 C 365.375 117.082031 365.519531 121.410156 365.8125 125.738281 C 366.175781 130.890625 366.5625 136.066406 367.023438 141.21875 C 367.457031 146.054688 367.917969 150.867188 368.476562 155.679688 C 369.808594 166.949219 371.625 178.148438 374.554688 189.128906 C 376.082031 194.8125 377.921875 200.375 380.511719 205.667969 C 382.742188 210.214844 385.503906 214.449219 388.796875 218.367188 C 393.738281 224.21875 399.9375 228.429688 406.550781 232.078125 C 415.121094 236.796875 423.671875 241.558594 431.714844 247.148438 C 437.234375 250.96875 442.589844 255.054688 447.675781 259.433594 C 449.707031 261.199219 451.792969 262.914062 453.851562 264.65625 C 454.578125 265.261719 455.011719 266.082031 455.472656 266.90625 C 455.835938 267.535156 455.957031 268.285156 456.585938 268.742188 C 456.660156 268.429688 456.78125 268.140625 456.828125 267.824219 C 457.75 259.261719 458.476562 250.675781 458.257812 242.066406 C 458.113281 236.261719 457.75 230.484375 456.925781 224.726562 C 456.878906 224.316406 456.851562 223.882812 457.070312 223.542969 C 458.0625 222.042969 459.179688 220.472656 460.921875 220.035156 C 467.847656 218.292969 474.582031 215.949219 481.316406 213.554688 C 487.515625 211.351562 493.570312 208.765625 499.238281 205.429688 C 509.992188 199.117188 519.460938 191.183594 528.082031 182.234375 C 535.566406 174.472656 542.617188 166.371094 548.378906 157.203125 C 551.527344 152.222656 554.410156 147.09375 556.785156 141.726562 C 559.425781 135.777344 561.457031 129.632812 563.300781 123.417969 C 565.117188 117.273438 566.691406 111.082031 567.78125 104.746094 C 567.996094 104.046875 567.972656 103.804688 567.054688 103.972656 Z M 421.203125 146.972656 C 421.589844 147.820312 421.058594 148.328125 420.355469 148.691406 C 417.835938 150.019531 415.316406 151.398438 413.015625 153.09375 C 412.699219 153.335938 412.386719 153.40625 411.972656 153.40625 C 411.464844 153.453125 411.03125 153.285156 410.789062 152.777344 C 410.519531 152.246094 410.667969 151.761719 411.101562 151.351562 C 412.046875 150.382812 413.234375 149.777344 414.347656 149.078125 C 415.898438 148.0625 417.519531 147.191406 419.191406 146.34375 C 420.0625 145.910156 420.789062 146.101562 421.203125 146.972656 Z M 403.328125 149.511719 C 404.828125 146.875 406.792969 144.578125 408.800781 142.355469 C 410.835938 140.128906 413.039062 138.074219 415.511719 136.332031 C 416.238281 135.824219 416.988281 135.363281 417.882812 135.21875 C 418.488281 135.195312 418.949219 135.4375 419.09375 136.019531 C 419.289062 136.695312 419.117188 137.300781 418.441406 137.664062 C 415.921875 138.992188 413.839844 140.902344 411.902344 142.933594 C 409.550781 145.351562 407.300781 147.867188 405.652344 150.84375 C 405.242188 151.59375 404.734375 152.246094 403.765625 151.835938 C 402.941406 151.472656 402.769531 150.480469 403.328125 149.511719 Z M 419.289062 207.796875 C 418.320312 209.371094 417.15625 210.820312 415.65625 211.957031 C 411.101562 215.417969 406.113281 215.125 402.042969 211.085938 C 398.917969 207.992188 397.152344 204.121094 396.109375 199.914062 C 394.027344 191.523438 394.4375 183.300781 398 175.367188 C 399.160156 172.777344 400.738281 170.433594 403.011719 168.667969 C 407.566406 165.113281 412.628906 165.425781 416.695312 169.539062 C 420.210938 173.070312 421.929688 177.496094 422.996094 182.234375 C 423.601562 184.917969 423.792969 187.652344 423.792969 190.386719 C 423.792969 196.578125 422.605469 202.476562 419.289062 207.796875 Z M 419.289062 207.796875 " fill-opacity="1" fill-rule="nonzero"/><path fill="#f8c592" d="M 304.851562 433.199219 C 300.757812 430.371094 296.203125 428.363281 291.796875 426.136719 C 284.964844 422.679688 278.5 418.761719 273.097656 413.246094 C 270.265625 410.34375 267.429688 407.417969 264.695312 404.394531 C 261.472656 400.839844 258.398438 397.164062 255.878906 393.101562 C 254.472656 390.828125 253.042969 388.457031 253.238281 385.605469 C 253.359375 383.863281 253.917969 382.21875 254.667969 380.671875 C 256.484375 376.921875 258.882812 373.65625 262.367188 371.261719 C 263.796875 370.296875 265.203125 370.296875 266.632812 371.261719 C 268.230469 372.304688 269.636719 373.558594 270.992188 374.890625 C 272.273438 376.171875 273.605469 377.40625 275.058594 378.492188 C 276.125 379.292969 277.3125 379.703125 278.523438 378.953125 C 279.757812 378.179688 279.78125 376.847656 279.589844 375.59375 C 279.347656 374.140625 279.007812 372.691406 278.621094 371.261719 C 276.828125 364.855469 274.867188 358.46875 273.195312 352.035156 C 271.574219 345.796875 270.121094 339.507812 269.660156 333.027344 C 269.464844 330.390625 269.296875 327.730469 269.34375 325.09375 C 269.394531 322.699219 269.222656 320.257812 269.730469 317.886719 C 269.730469 317.402344 269.730469 316.917969 269.730469 316.410156 C 269.5625 316.289062 269.417969 316.144531 269.246094 316.050781 C 264.546875 313.414062 259.921875 310.65625 255.585938 307.4375 C 252.222656 304.949219 248.832031 302.480469 247.402344 298.25 C 244.058594 303.0625 241.152344 308.117188 238.367188 313.242188 C 234.636719 320.113281 231.902344 327.441406 229.019531 334.695312 C 227.734375 337.9375 226.304688 341.152344 225.433594 344.515625 C 223.738281 351.117188 222.816406 357.886719 221.898438 364.660156 C 220.855469 372.230469 220.566406 379.824219 220.613281 387.417969 C 220.636719 393.078125 220.976562 398.761719 221.679688 404.394531 C 222.453125 410.464844 223.519531 416.441406 225.070312 422.363281 C 225.96875 425.773438 227.058594 429.136719 228.292969 432.449219 C 228.726562 433.609375 228.339844 434.578125 227.371094 434.964844 C 226.378906 435.375 225.457031 434.917969 224.949219 433.78125 C 224.828125 433.488281 224.730469 433.175781 224.609375 432.886719 C 221.171875 423.648438 219.183594 414.09375 218.046875 404.324219 C 217.222656 397.359375 216.910156 390.367188 216.980469 383.355469 C 217.078125 375.230469 217.804688 367.152344 219.015625 359.097656 C 220.226562 350.996094 221.824219 342.964844 224.101562 335.105469 C 224.609375 333.367188 225.117188 331.601562 225.652344 329.785156 C 225.070312 329.882812 224.804688 330.195312 224.488281 330.4375 C 221.703125 332.640625 219.234375 335.179688 216.738281 337.71875 C 210.804688 343.8125 205.5 350.34375 201.019531 357.574219 C 198.164062 362.195312 195.378906 366.886719 193.269531 371.914062 C 192.496094 373.753906 191.625 375.472656 190.21875 376.898438 C 191.042969 378.375 192.351562 379.484375 193.367188 380.816406 C 198.621094 387.660156 202.644531 395.207031 206.179688 403.015625 C 208.601562 408.363281 210.757812 413.804688 212.550781 419.414062 C 214.367188 425.121094 215.578125 430.949219 216.425781 436.875 C 216.738281 439.125 217.125 441.398438 217.175781 443.671875 C 217.949219 443.332031 218.773438 443.210938 219.621094 443.164062 C 224.269531 442.777344 228.96875 442.875 233.570312 442.027344 C 233.839844 441.980469 234.128906 441.90625 234.371094 442.125 C 235.65625 443.1875 236.914062 444.226562 237.617188 445.800781 C 239.601562 450.203125 241.636719 454.578125 244.203125 458.667969 C 247.378906 459.34375 250.5 460.164062 253.601562 461.207031 C 259.460938 463.140625 265.519531 464.496094 271.621094 465.511719 C 277.433594 466.476562 283.246094 467.398438 289.179688 467.132812 C 291.140625 467.035156 293.105469 466.890625 294.96875 466.140625 C 298.285156 464.808594 301 462.585938 303.347656 459.972656 C 306.886719 456.03125 309.621094 451.605469 310.734375 446.355469 C 311.414062 443.1875 311.367188 440.140625 309.402344 437.359375 C 308.21875 435.523438 306.523438 434.386719 304.851562 433.199219 Z M 304.851562 433.199219 " fill-opacity="1" fill-rule="nonzero"/><path fill="#f8c592" d="M 496.429688 368.457031 C 493.160156 361.78125 489.136719 355.566406 484.777344 349.546875 C 483.980469 348.457031 483.300781 347.273438 482.140625 346.304688 C 482.140625 346.691406 482.089844 346.933594 482.140625 347.152344 C 483.519531 353.730469 484.292969 360.378906 485.09375 367.03125 C 485.894531 373.875 486.304688 380.742188 486.425781 387.613281 C 486.523438 393.296875 486.230469 398.980469 485.941406 404.636719 C 485.722656 408.484375 485.382812 412.351562 484.949219 416.175781 C 484.414062 420.914062 483.761719 425.652344 483.058594 430.371094 C 482.648438 433.175781 482.089844 435.980469 481.558594 438.785156 C 481.316406 440.042969 480.515625 440.625 479.449219 440.457031 C 478.410156 440.308594 477.898438 439.488281 478.019531 438.183594 C 478.046875 437.941406 478.09375 437.699219 478.140625 437.457031 C 478.433594 435.910156 478.722656 434.386719 479.015625 432.835938 C 479.960938 427.492188 480.6875 422.125 481.265625 416.730469 C 481.777344 412.0625 482.164062 407.371094 482.453125 402.679688 C 482.648438 399.65625 482.648438 396.632812 482.792969 393.632812 C 483.058594 388.507812 482.71875 383.402344 482.527344 378.300781 C 482.355469 374.238281 481.871094 370.199219 481.4375 366.183594 C 481.097656 363.0625 480.953125 359.921875 480.128906 356.898438 C 479.234375 353.535156 478.117188 350.222656 477.027344 346.882812 C 475.769531 343.015625 474.097656 339.316406 472.71875 335.519531 C 471.191406 331.308594 469.59375 327.148438 467.632812 323.136719 C 464.484375 316.605469 460.753906 310.367188 456.902344 304.246094 C 454.988281 301.222656 453.097656 298.175781 450.945312 295.324219 C 450.410156 295.589844 450.21875 296.144531 449.855469 296.582031 C 448.738281 297.933594 447.648438 299.289062 446.558594 300.644531 C 446.632812 301.296875 446.730469 301.949219 446.800781 302.601562 C 446.898438 303.402344 446.972656 304.199219 447.070312 304.996094 C 447.382812 307.945312 447.601562 310.898438 447.867188 313.847656 C 448.230469 317.933594 448.402344 322.023438 448.425781 326.109375 C 448.425781 328.457031 448.328125 330.824219 448.109375 333.195312 C 447.648438 338.324219 446.632812 343.355469 445.46875 348.335938 C 443.75 355.640625 441.472656 362.796875 439.464844 370.03125 C 438.882812 372.109375 438.277344 374.214844 438.105469 376.367188 C 438.035156 377.429688 438.324219 378.398438 439.316406 378.953125 C 440.289062 379.484375 441.28125 379.339844 442.175781 378.761719 C 442.710938 378.421875 443.242188 378.035156 443.726562 377.597656 C 445.640625 375.882812 447.527344 374.117188 449.441406 372.398438 C 452.25 369.910156 453.800781 369.910156 456.636719 372.15625 C 459.46875 374.429688 461.457031 377.332031 463.054688 380.5 C 464.894531 384.105469 465.089844 387.734375 462.933594 391.289062 C 461.941406 392.933594 460.921875 394.578125 459.785156 396.148438 C 454.941406 402.75 449.296875 408.675781 443.4375 414.359375 C 441.039062 416.683594 438.496094 418.859375 435.660156 420.671875 C 428.6875 425.121094 421.03125 428.289062 413.886719 432.449219 C 412.242188 433.78125 410.375 434.820312 408.972656 436.464844 C 407.542969 438.109375 406.792969 439.996094 406.597656 442.125 C 406.523438 444.566406 406.984375 446.9375 407.832031 449.210938 C 409.941406 454.871094 413.453125 459.511719 418.125 463.359375 C 421.832031 466.40625 426.191406 467.226562 430.648438 467.132812 C 434.910156 467.035156 439.195312 466.527344 443.4375 465.824219 C 450.894531 464.589844 458.257812 463.019531 465.453125 460.625 C 466.976562 460.117188 468.359375 459.269531 469.980469 458.980469 C 471.507812 455.789062 472.839844 452.5 473.976562 449.160156 C 474.703125 447.058594 475.71875 445.21875 477.511719 443.839844 C 477.972656 443.476562 478.433594 443.261719 479.039062 443.261719 C 480.515625 443.210938 482.019531 443.210938 483.496094 442.96875 C 484.34375 442.824219 484.972656 442.945312 485.601562 443.503906 C 485.867188 438.738281 486.691406 434.023438 487.636719 429.355469 C 489.671875 419.414062 493.375 410.054688 497.613281 400.863281 C 499.699219 396.367188 502.046875 392.011719 504.640625 387.78125 C 504.808594 387.515625 504.882812 387.199219 505.003906 386.886719 C 504.035156 385.726562 502.96875 384.683594 502.460938 383.160156 C 500.691406 378.203125 498.753906 373.246094 496.429688 368.457031 Z M 496.429688 368.457031 " fill-opacity="1" fill-rule="nonzero"/><path fill="#f8c592" d="M 368.523438 349.519531 C 365.835938 346.253906 362.734375 343.59375 358.8125 341.855469 C 354.234375 339.824219 349.511719 339.363281 344.667969 340.210938 C 338.683594 341.25 333.867188 344.417969 329.992188 349.035156 C 325.484375 355.058594 323.863281 361.757812 325.414062 369.109375 C 326.648438 374.964844 329.773438 379.679688 334.519531 383.308594 C 337.621094 385.675781 341.132812 387.078125 344.910156 387.878906 C 345.441406 388 345.976562 388.09375 346 387.25 C 346.046875 386.015625 346.167969 384.757812 346.195312 383.523438 C 346.21875 380.257812 346.144531 376.996094 346.242188 373.730469 C 346.289062 372.304688 345.976562 371.238281 344.886719 370.222656 C 343.289062 368.773438 343.070312 366.0625 344.0625 363.960938 C 345.128906 361.636719 347.574219 360.597656 349.414062 360.695312 C 351.667969 360.816406 353.53125 361.878906 354.476562 364.03125 C 355.398438 366.136719 355.226562 368.191406 353.824219 370.078125 C 353.554688 370.441406 353.265625 370.730469 353.242188 371.214844 C 353.191406 372.929688 353.097656 374.671875 353.023438 376.390625 C 352.925781 379.777344 353.121094 383.136719 353.21875 386.523438 C 353.242188 387.585938 353.484375 387.828125 354.550781 387.5625 C 360.335938 386.136719 364.988281 382.992188 368.574219 378.277344 C 371.890625 373.898438 373.441406 368.84375 373.320312 363.402344 C 373.199219 358.324219 371.574219 353.65625 368.523438 349.519531 Z M 368.523438 349.519531 " fill-opacity="1" fill-rule="nonzero"/><path fill="#e6ded4" d="M 320.835938 450.394531 C 321.539062 451.3125 322.167969 452.5 323.667969 452.304688 C 324.371094 451.242188 325.292969 450.394531 326.238281 449.550781 C 326.695312 449.136719 327.085938 449.089844 327.59375 449.378906 C 327.542969 448.582031 327.398438 447.808594 326.9375 447.105469 C 324.058594 442.65625 320.738281 438.519531 317.613281 434.265625 C 311.316406 425.703125 304.777344 417.3125 299.207031 408.21875 C 298.164062 406.523438 296.347656 405.96875 294.75 406.789062 C 293.007812 407.683594 292.28125 409.667969 293.128906 411.507812 C 293.589844 412.472656 294.144531 413.417969 294.75 414.335938 C 300.03125 422.4375 305.84375 430.175781 311.609375 437.941406 C 314.707031 442.074219 317.734375 446.257812 320.835938 450.394531 Z M 320.835938 450.394531 " fill-opacity="1" fill-rule="nonzero"/><path fill="#e6ded4" d="M 391.023438 477.601562 C 389.523438 477.3125 388.410156 478.183594 387.511719 479.246094 C 386.445312 480.503906 385.671875 481.980469 384.871094 483.40625 C 380.78125 490.832031 377.945312 498.59375 378.1875 507.230469 C 378.210938 507.761719 378.382812 508.367188 377.992188 508.851562 C 378.164062 509.210938 378.332031 509.574219 378.527344 509.914062 C 380.269531 512.597656 383.175781 513.6875 385.867188 515.066406 C 386.082031 514 385.71875 512.984375 385.597656 511.96875 C 385.164062 508.535156 384.921875 505.078125 385.503906 501.667969 C 386.664062 495.066406 389.136719 488.96875 393.058594 483.457031 C 394.753906 481.132812 393.710938 478.109375 391.023438 477.601562 Z M 391.023438 477.601562 " fill-opacity="1" fill-rule="nonzero"/><path fill="#e6ded4" d="M 343.578125 512.648438 C 343.578125 508.074219 342.171875 503.867188 340.210938 499.828125 C 337.644531 494.53125 334.109375 489.816406 331.203125 484.714844 C 330.5 483.503906 328.683594 482.828125 327.542969 483.164062 C 325.390625 483.820312 323.742188 485.875 325.535156 488.777344 C 327.859375 492.574219 330.28125 496.347656 332.507812 500.191406 C 335.003906 504.519531 336.820312 509.089844 336.554688 514.242188 C 336.503906 515.160156 336.601562 516.082031 336.625 517.023438 C 339.167969 516.152344 341.589844 514.96875 343.84375 513.515625 C 343.554688 513.300781 343.578125 512.960938 343.578125 512.648438 Z M 343.578125 512.648438 " fill-opacity="1" fill-rule="nonzero"/><path fill="#e6ded4" d="M 324.929688 518.960938 C 322.214844 516.515625 319.40625 514.195312 316.9375 511.484375 C 313.496094 507.714844 311.050781 503.382812 309.210938 498.667969 C 308.53125 496.949219 308.070312 495.160156 307.464844 493.421875 C 306.835938 491.582031 304.511719 490.035156 302.550781 491.316406 C 301.121094 492.257812 300.371094 493.929688 300.855469 495.621094 C 303.226562 503.941406 306.910156 511.511719 313.183594 517.652344 C 313.761719 518.234375 314.585938 518.644531 314.757812 519.5625 C 318.292969 520.167969 321.851562 520.484375 325.414062 519.757812 C 325.414062 519.394531 325.171875 519.175781 324.929688 518.960938 Z M 324.929688 518.960938 " fill-opacity="1" fill-rule="nonzero"/><path fill="#e6ded4" d="M 406.792969 494.53125 C 404.394531 497.046875 403.0625 500.238281 401.730469 503.382812 C 399.671875 508.316406 398.894531 513.6875 396.617188 518.546875 C 399.089844 519.078125 401.609375 519.296875 404.152344 519.226562 C 404.25 517.796875 405 516.566406 405.363281 515.210938 C 406.9375 509.480469 408.488281 503.722656 412.070312 498.789062 C 412.628906 498.039062 413.039062 497.121094 412.75 496.082031 C 411.972656 493.421875 408.730469 492.5 406.792969 494.53125 Z M 406.792969 494.53125 " fill-opacity="1" fill-rule="nonzero"/><path fill="#e6ded4" d="M 446.488281 300.644531 C 446.003906 300.691406 445.738281 301.078125 445.421875 301.394531 C 442.636719 304.320312 439.390625 306.714844 436.097656 309.011719 C 429.898438 313.316406 423.332031 316.96875 416.429688 320.039062 C 409.503906 323.109375 402.359375 325.578125 395.042969 327.511719 C 385.839844 329.929688 376.515625 331.648438 367.046875 332.640625 C 362.25 333.125 357.429688 333.414062 352.636719 333.511719 C 344.835938 333.679688 337.015625 333.582031 329.238281 332.859375 C 325.535156 332.519531 321.828125 332.132812 318.148438 331.550781 C 311.050781 330.4375 304.027344 328.964844 297.125 327.027344 C 289.398438 324.851562 281.867188 322.167969 274.625 318.710938 C 273 317.933594 271.425781 316.992188 269.730469 316.363281 C 269.730469 316.847656 269.730469 317.332031 269.730469 317.839844 C 270.871094 318.953125 271.960938 320.136719 273.148438 321.199219 C 276.660156 324.34375 280.339844 327.246094 284.214844 329.882812 C 292.085938 335.25 300.34375 339.871094 309.234375 343.328125 C 310.15625 343.691406 311.050781 344.394531 312.042969 344.273438 C 313.15625 344.128906 314.003906 344.492188 314.851562 345.070312 C 315.652344 345.628906 316.5 346.0625 317.445312 346.328125 C 321.585938 347.464844 325.777344 348.3125 330.015625 349.035156 C 333.890625 344.394531 338.710938 341.25 344.691406 340.210938 C 349.511719 339.363281 354.257812 339.824219 358.835938 341.855469 C 362.761719 343.59375 365.859375 346.28125 368.546875 349.519531 C 368.71875 349.449219 368.886719 349.304688 369.082031 349.277344 C 375.910156 347.875 382.742188 346.425781 389.449219 344.417969 C 393.664062 343.160156 398 342.289062 401.875 339.945312 C 408.171875 336.148438 414.394531 332.203125 420.355469 327.898438 C 424.8125 324.683594 429.144531 321.296875 433.214844 317.574219 C 436.265625 314.765625 439.171875 311.839844 441.886719 308.695312 C 443.582031 306.714844 445.058594 304.585938 446.800781 302.625 C 446.65625 301.949219 446.558594 301.296875 446.488281 300.644531 Z M 446.488281 300.644531 " fill-opacity="1" fill-rule="nonzero"/><path fill="#e6ded4" d="M 426.773438 405.484375 C 425.320312 405.21875 424.132812 405.917969 423.308594 407.007812 C 420.574219 410.707031 417.933594 414.503906 415.21875 418.253906 C 410.8125 424.324219 406.355469 430.371094 401.972656 436.441406 C 400.589844 438.351562 399.039062 440.164062 397.902344 442.246094 C 396.957031 443.988281 397.394531 445.605469 398.992188 446.792969 C 400.324219 447.785156 401.921875 447.515625 403.328125 446.210938 C 404.585938 445.027344 405.289062 443.382812 406.523438 442.171875 C 406.71875 440.042969 407.46875 438.15625 408.898438 436.511719 C 410.328125 434.894531 412.167969 433.828125 413.816406 432.5 C 413.523438 432.113281 413.960938 431.894531 414.105469 431.699219 C 416.308594 428.628906 418.539062 425.582031 420.742188 422.535156 C 423.480469 418.761719 426.265625 415.039062 428.832031 411.167969 C 429.339844 410.394531 429.847656 409.59375 429.75 408.628906 C 429.582031 407.128906 428.324219 405.773438 426.773438 405.484375 Z M 426.773438 405.484375 " fill-opacity="1" fill-rule="nonzero"/><g clip-path="url(#cfb6443e21)"><path fill="#703a44" d="M 468.625 228.332031 C 472.597656 227.023438 476.542969 225.597656 480.539062 224.292969 C 491.269531 220.808594 500.980469 215.34375 510.210938 209.03125 C 520.117188 202.261719 529.101562 194.304688 537.261719 185.5 C 545.59375 176.527344 552.789062 166.683594 559.398438 156.382812 C 562.765625 151.132812 565.695312 145.59375 568.117188 139.839844 C 570.902344 133.164062 572.988281 126.269531 574.996094 119.355469 C 576.886719 112.847656 578.023438 106.199219 579.164062 99.523438 C 579.550781 97.320312 578.992188 96.304688 576.863281 95.507812 C 573.519531 94.25 570.007812 93.574219 566.519531 92.824219 C 556.542969 90.648438 546.539062 88.710938 536.4375 87.238281 C 527.769531 85.980469 519.027344 85.277344 510.257812 85.472656 C 497.011719 85.761719 483.835938 86.851562 470.660156 88.277344 C 456.078125 89.847656 442.03125 93.429688 428.371094 98.652344 C 425.390625 99.789062 422.363281 100.78125 419.554688 102.304688 C 419.238281 102.472656 418.972656 102.425781 418.660156 102.328125 C 412.578125 100.128906 406.355469 98.457031 400.035156 97.175781 C 391.894531 95.53125 383.710938 94.03125 375.476562 92.945312 C 369.589844 92.171875 363.65625 91.929688 357.722656 91.855469 C 346.023438 91.734375 334.300781 91.492188 322.652344 92.921875 C 312.914062 94.105469 303.277344 95.871094 293.683594 97.878906 C 286.953125 99.28125 280.414062 101.265625 273.996094 103.730469 C 272.664062 104.238281 271.960938 104.019531 271.015625 103.078125 C 267.457031 99.402344 263.847656 95.773438 259.390625 93.136719 C 258.566406 92.65625 257.742188 92.121094 256.945312 91.589844 C 249.871094 86.972656 242.484375 82.980469 234.636719 79.835938 C 226.476562 76.546875 218.265625 73.476562 209.910156 70.695312 C 201.746094 67.960938 193.5625 65.398438 185.132812 63.679688 C 171.011719 60.730469 156.648438 60.199219 142.3125 59.546875 C 140.542969 59.472656 138.726562 59.667969 136.984375 59.0625 C 135.941406 59.0625 134.875 59.0625 133.835938 59.0625 C 133.761719 59.132812 133.691406 59.253906 133.59375 59.28125 C 130.515625 60.125 130.058594 60.777344 129.742188 64.671875 C 129.355469 69.511719 129.863281 74.347656 130.058594 79.160156 C 130.492188 90.308594 131.632812 101.410156 133.59375 112.414062 C 135.359375 122.449219 138.339844 132.125 141.996094 141.628906 C 143.910156 146.636719 146.042969 151.542969 148.535156 156.308594 C 157.957031 174.375 169.21875 191.109375 183.945312 205.402344 C 189.636719 210.941406 195.160156 216.648438 201.601562 221.367188 C 208.769531 226.613281 216.253906 231.328125 224.246094 235.246094 C 225.191406 235.707031 225.507812 236.214844 225.410156 237.253906 C 225.191406 239.648438 224.949219 242.09375 225.023438 244.488281 C 225.09375 247.703125 225.265625 250.917969 225.433594 254.136719 C 225.796875 260.328125 226.257812 266.519531 227.300781 272.636719 C 228.390625 279.070312 230.230469 285.261719 233.085938 291.140625 C 234.03125 293.097656 235.292969 294.886719 236.597656 296.628906 C 237.15625 297.355469 237.132812 297.886719 236.625 298.660156 C 232.3125 305.191406 228.414062 311.960938 225.023438 319 C 224.804688 319.433594 224.609375 319.847656 224.222656 320.183594 C 217.949219 325.53125 212.355469 331.574219 206.589844 337.429688 C 201.09375 343.015625 196.03125 348.964844 191.816406 355.589844 C 190.023438 358.421875 188.207031 361.226562 186.683594 364.199219 C 186.199219 365.167969 185.933594 365.410156 184.960938 364.613281 C 178.398438 359.242188 171.207031 354.914062 163.164062 352.109375 C 158.613281 350.535156 154.15625 350.292969 149.3125 351.527344 C 138.460938 354.285156 131.726562 361.203125 127.660156 371.214844 C 126.421875 374.238281 126.542969 377.527344 126.058594 380.671875 C 126.011719 381.007812 126.207031 381.394531 125.816406 381.664062 C 125.816406 384.082031 125.816406 386.5 125.816406 388.917969 C 126.253906 390.753906 126.253906 392.640625 126.519531 394.480469 C 128.167969 406.015625 131.074219 417.191406 135.871094 427.855469 C 140.035156 437.09375 145.679688 445.316406 152.921875 452.425781 C 158.054688 457.503906 162.945312 462.828125 168.90625 466.984375 C 172.464844 469.476562 176.097656 471.894531 180.117188 473.636719 C 185.253906 475.863281 190.605469 476.226562 196.105469 475.425781 C 201.140625 474.675781 205.550781 472.546875 209.835938 469.984375 C 210.394531 469.671875 210.878906 469.210938 211.3125 468.75 C 214.269531 465.824219 217.152344 462.851562 220.152344 459.972656 C 221.945312 458.253906 223.230469 456.246094 224.078125 453.949219 C 224.269531 453.417969 224.515625 453.199219 225.09375 453.175781 C 226.71875 453.105469 228.316406 452.984375 229.914062 452.839844 C 230.472656 452.789062 230.691406 453.007812 230.933594 453.441406 C 239.988281 470.445312 251.496094 485.679688 264.550781 499.78125 C 269.683594 505.320312 275.035156 510.710938 280.898438 515.550781 C 287.992188 521.378906 296.082031 525.199219 304.828125 527.8125 C 309.28125 529.140625 313.835938 530.035156 318.460938 530.398438 C 318.679688 530.421875 318.96875 530.351562 319.089844 530.640625 C 320.132812 530.640625 321.199219 530.640625 322.242188 530.640625 C 322.410156 530.398438 322.652344 530.445312 322.894531 530.421875 C 328.320312 529.988281 333.574219 528.800781 338.589844 526.648438 C 341.226562 525.511719 343.894531 524.351562 346 522.367188 C 349.511719 519.054688 352.949219 515.621094 356.269531 512.113281 C 358.375 509.890625 359.320312 506.988281 359.152344 504.011719 C 358.882812 499.441406 357.480469 495.066406 355.976562 490.785156 C 353.484375 483.648438 349.921875 477.023438 346.074219 470.542969 C 345.128906 468.945312 344.207031 467.347656 343.191406 465.65625 C 349.246094 466.648438 355.058594 467.664062 361.039062 467.179688 C 366.925781 466.695312 372.8125 466.308594 378.769531 465.246094 C 377.21875 468.460938 375.789062 471.484375 374.335938 474.484375 C 371.140625 481.0625 368.546875 487.882812 367.121094 495.066406 C 366.394531 498.667969 365.472656 502.273438 366.441406 506.019531 C 367.023438 508.246094 368.015625 510.226562 369.664062 511.871094 C 372.179688 514.386719 374.773438 516.804688 377.171875 519.417969 C 380.050781 522.5625 383.589844 524.640625 387.464844 526.238281 C 394.414062 529.09375 401.609375 530.421875 409.117188 529.214844 C 413.5 528.511719 417.785156 527.351562 421.953125 525.753906 C 427.136719 523.773438 432.101562 521.328125 436.386719 517.75 C 442.925781 512.285156 449.007812 506.285156 454.457031 499.757812 C 464.628906 487.589844 472.984375 474.21875 479.933594 459.949219 C 480.175781 459.441406 480.203125 458.789062 480.636719 458.449219 C 483.738281 461.519531 486.835938 464.519531 489.863281 467.589844 C 491.292969 469.042969 492.820312 470.300781 494.585938 471.316406 C 501.660156 475.328125 509.167969 477.070312 517.257812 475.523438 C 522.148438 474.578125 526.339844 472.039062 530.457031 469.453125 C 538.984375 464.082031 545.835938 456.804688 552.640625 449.550781 C 561.214844 440.457031 566.882812 429.597656 570.734375 417.769531 C 573.109375 410.492188 574.898438 403.042969 575.941406 395.449219 C 576.691406 390.007812 577.105469 384.539062 576.230469 379.074219 C 575.699219 375.617188 574.65625 372.277344 573.519531 368.964844 C 570.296875 359.652344 563.878906 353.703125 554.335938 351.09375 C 552.667969 350.632812 550.945312 351.191406 549.277344 350.921875 C 547.121094 350.585938 545.011719 350.875 542.929688 351.382812 C 534.671875 353.390625 527.476562 357.574219 520.648438 362.433594 C 516.675781 365.265625 513.308594 368.722656 509.894531 372.15625 C 508.902344 373.148438 508.902344 373.148438 508.367188 371.914062 C 506.042969 366.714844 503.234375 361.804688 500.207031 356.96875 C 495.773438 349.90625 490.566406 343.472656 484.683594 337.550781 C 483.929688 336.773438 483.15625 336 482.792969 334.9375 C 479.5 325.214844 474.558594 316.316406 469.253906 307.609375 C 466.371094 302.867188 463.273438 298.25 460.171875 293.628906 C 459.832031 293.121094 459.808594 292.785156 460.148438 292.226562 C 461.820312 289.347656 462.910156 286.230469 463.972656 283.109375 C 466.03125 276.992188 467.050781 270.679688 467.632812 264.292969 C 468.308594 256.988281 468.84375 249.6875 468.695312 242.359375 C 468.601562 238.054688 468.308594 233.75 467.898438 229.445312 C 467.921875 228.863281 467.945312 228.546875 468.625 228.332031 Z M 460.996094 220.058594 C 459.25 220.496094 458.136719 222.066406 457.144531 223.566406 C 456.925781 223.90625 456.949219 224.316406 457 224.75 C 457.820312 230.507812 458.1875 236.289062 458.332031 242.09375 C 458.550781 250.703125 457.820312 259.289062 456.902344 267.847656 C 456.878906 268.164062 456.757812 268.476562 456.660156 268.792969 C 456.394531 272.539062 455.640625 276.167969 454.601562 279.773438 C 453.339844 284.171875 451.984375 288.550781 449.636719 292.515625 C 449.417969 292.902344 449.515625 293.195312 449.734375 293.507812 C 450.121094 294.113281 450.484375 294.742188 450.847656 295.347656 C 453.003906 298.199219 454.914062 301.246094 456.804688 304.269531 C 460.679688 310.414062 464.386719 316.628906 467.535156 323.160156 C 469.472656 327.175781 471.070312 331.332031 472.621094 335.542969 C 474 339.339844 475.671875 343.0625 476.929688 346.910156 C 478.023438 350.222656 479.136719 353.535156 480.03125 356.921875 C 480.832031 359.945312 481 363.113281 481.339844 366.207031 C 481.777344 370.246094 482.285156 374.285156 482.429688 378.324219 C 482.648438 383.429688 482.960938 388.554688 482.695312 393.65625 C 482.550781 396.679688 482.550781 399.703125 482.355469 402.703125 C 482.042969 407.394531 481.679688 412.085938 481.171875 416.753906 C 480.589844 422.148438 479.863281 427.515625 478.917969 432.863281 C 478.652344 434.410156 478.335938 435.933594 478.046875 437.480469 C 477.996094 437.722656 477.949219 437.964844 477.925781 438.207031 C 477.804688 439.511719 478.3125 440.308594 479.355469 440.480469 C 480.417969 440.648438 481.21875 440.070312 481.460938 438.8125 C 481.992188 436.003906 482.550781 433.222656 482.960938 430.394531 C 483.664062 425.679688 484.320312 420.9375 484.851562 416.199219 C 485.289062 412.351562 485.625 408.507812 485.84375 404.660156 C 486.160156 399.003906 486.425781 393.320312 486.328125 387.636719 C 486.207031 380.742188 485.796875 373.898438 484.996094 367.054688 C 484.222656 360.402344 483.445312 353.730469 482.042969 347.175781 C 481.992188 346.957031 482.042969 346.714844 482.042969 346.328125 C 483.203125 347.296875 483.90625 348.480469 484.683594 349.570312 C 489.015625 355.589844 493.0625 361.804688 496.332031 368.480469 C 498.679688 373.246094 500.59375 378.226562 502.265625 383.257812 C 502.773438 384.804688 503.863281 385.820312 504.808594 386.984375 C 505.703125 387.878906 506.429688 387.660156 507.253906 386.789062 C 508.320312 385.675781 509.410156 384.589844 510.257812 383.308594 C 513.308594 378.640625 517.425781 375.058594 521.957031 371.890625 C 526.4375 368.746094 531.160156 366.113281 536.199219 363.960938 C 539.636719 362.484375 543.171875 361.324219 546.925781 361.179688 C 550.996094 361.007812 554.578125 362.507812 557.875 364.804688 C 561.191406 367.128906 562.816406 370.660156 564.460938 374.164062 C 565.601562 376.609375 566.058594 379.21875 566.085938 381.902344 C 566.542969 385.023438 566.15625 388.144531 565.988281 391.261719 C 565.140625 400.332031 563.105469 409.136719 560.296875 417.769531 C 556.492188 429.425781 550.824219 440.042969 542.566406 449.1875 C 539.394531 452.691406 535.589844 455.5 531.691406 458.160156 C 528.300781 460.480469 524.8125 462.679688 520.914062 464.058594 C 513.695312 466.574219 506.578125 466.066406 499.554688 463.308594 C 497.496094 462.488281 495.53125 461.472656 493.617188 460.335938 C 489.984375 458.183594 488.75 454.628906 488.097656 450.78125 C 488 450.226562 487.976562 449.644531 488.023438 449.089844 C 488.242188 446.71875 487.347656 444.882812 485.410156 443.527344 C 484.804688 442.996094 484.171875 442.875 483.300781 442.996094 C 481.847656 443.238281 480.347656 443.238281 478.84375 443.285156 C 478.238281 443.308594 477.777344 443.503906 477.320312 443.867188 C 475.550781 445.242188 474.507812 447.082031 473.78125 449.1875 C 472.644531 452.523438 471.335938 455.8125 469.785156 459.003906 C 468.089844 462.800781 466.25 466.503906 464.191406 470.105469 C 459.082031 478.957031 453.582031 487.589844 447.3125 495.691406 C 443.605469 500.480469 439.707031 505.078125 434.691406 508.582031 C 429.023438 512.550781 422.800781 515.332031 416.164062 517.195312 C 412.191406 518.304688 408.171875 519.105469 404.03125 519.175781 C 401.488281 519.25 398.992188 519.03125 396.496094 518.5 C 392.769531 517.796875 389.183594 516.660156 385.769531 515.015625 C 383.082031 513.636719 380.175781 512.574219 378.429688 509.867188 C 378.210938 509.527344 378.066406 509.164062 377.898438 508.800781 C 376.226562 505.730469 376.175781 502.464844 376.710938 499.101562 C 377.871094 491.582031 380.175781 484.398438 383.273438 477.457031 C 387.003906 469.113281 391.144531 460.964844 396.109375 453.273438 C 396.714844 452.328125 396.835938 451.582031 395.890625 450.855469 C 395.796875 450.78125 395.722656 450.683594 395.648438 450.589844 C 393.929688 448.703125 393.882812 448.679688 391.75 449.910156 C 386.980469 452.691406 381.796875 454.265625 376.394531 455.136719 C 370.824219 456.03125 365.183594 456.636719 359.5625 456.753906 C 350.070312 456.949219 340.792969 455.425781 332 451.605469 C 330.449219 450.925781 328.875 450.324219 327.496094 449.308594 C 326.988281 449.015625 326.601562 449.066406 326.140625 449.476562 C 325.195312 450.324219 324.273438 451.167969 323.574219 452.234375 C 329.992188 460.792969 335.585938 469.839844 340.5 479.320312 C 343.988281 486.019531 346.605469 493.03125 348.203125 500.457031 C 349.003906 504.207031 348.640625 507.6875 346.652344 511.003906 C 345.953125 512.1875 344.863281 512.792969 343.746094 513.445312 C 341.496094 514.894531 339.074219 516.082031 336.53125 516.953125 C 332.921875 518.355469 329.167969 519.273438 325.316406 519.660156 C 321.757812 520.363281 318.195312 520.070312 314.660156 519.46875 C 311.316406 519.078125 308.070312 518.304688 304.875 517.363281 C 296.132812 514.773438 288.066406 510.929688 280.921875 505.171875 C 274.746094 500.214844 269.707031 494.195312 264.765625 488.097656 C 259.027344 481.039062 253.625 473.710938 248.660156 466.066406 C 247.0625 463.601562 245.464844 461.15625 244.179688 458.496094 C 241.589844 454.410156 239.578125 450.03125 237.59375 445.628906 C 236.890625 444.082031 235.628906 443.019531 234.347656 441.953125 C 234.082031 441.738281 233.8125 441.808594 233.546875 441.859375 C 228.945312 442.703125 224.246094 442.609375 219.597656 442.996094 C 218.75 443.066406 217.925781 443.1875 217.152344 443.503906 C 217.125 443.574219 217.101562 443.671875 217.054688 443.71875 C 214.703125 445.269531 214.65625 447.664062 214.414062 450.152344 C 214.003906 454.722656 212.136719 458.449219 207.777344 460.792969 C 202.546875 463.601562 197.046875 465.316406 191.164062 465.414062 C 186.996094 465.488281 182.902344 464.617188 179.101562 462.730469 C 173.386719 459.898438 168.203125 456.320312 163.382812 452.183594 C 158.054688 447.613281 154.105469 441.929688 150.523438 435.980469 C 145.53125 427.710938 142.289062 418.714844 139.890625 409.378906 C 138.363281 403.453125 137.105469 397.453125 136.597656 391.335938 C 136.113281 385.75 135.699219 380.113281 137.734375 374.746094 C 139.914062 368.964844 143.183594 364.105469 149.433594 361.878906 C 153.816406 360.308594 158.078125 360.742188 162.339844 362.144531 C 171.230469 365.070312 179.027344 369.910156 186.175781 375.882812 C 186.390625 376.050781 186.585938 376.269531 186.804688 376.4375 C 188.476562 377.914062 188.476562 377.914062 190.21875 376.730469 C 191.625 375.300781 192.496094 373.585938 193.269531 371.746094 C 195.378906 366.714844 198.136719 362.046875 201.019531 357.40625 C 205.5 350.171875 210.804688 343.621094 216.738281 337.550781 C 219.210938 335.011719 221.703125 332.46875 224.488281 330.269531 C 224.804688 330.027344 225.070312 329.714844 225.652344 329.617188 C 225.121094 331.429688 224.609375 333.195312 224.101562 334.9375 C 221.824219 342.820312 220.226562 350.828125 219.015625 358.929688 C 217.804688 366.980469 217.078125 375.058594 216.980469 383.1875 C 216.910156 390.199219 217.222656 397.1875 218.046875 404.152344 C 219.183594 413.925781 221.195312 423.476562 224.609375 432.714844 C 224.730469 433.007812 224.804688 433.320312 224.949219 433.609375 C 225.457031 434.746094 226.355469 435.183594 227.371094 434.796875 C 228.363281 434.410156 228.726562 433.441406 228.292969 432.28125 C 227.058594 428.96875 225.96875 425.605469 225.070312 422.195312 C 223.519531 416.292969 222.453125 410.296875 221.679688 404.226562 C 220.976562 398.589844 220.636719 392.933594 220.613281 387.25 C 220.566406 379.65625 220.878906 372.0625 221.898438 364.492188 C 222.816406 357.71875 223.714844 350.949219 225.433594 344.34375 C 226.304688 340.984375 227.734375 337.765625 229.019531 334.527344 C 231.902344 327.269531 234.636719 319.96875 238.367188 313.074219 C 241.152344 307.945312 244.058594 302.890625 247.402344 298.078125 C 247.714844 297.425781 247.351562 296.96875 247.015625 296.460938 C 246.625 295.902344 246.3125 295.324219 245.949219 294.765625 C 243.863281 292.226562 242.628906 289.277344 241.492188 286.253906 C 238.511719 278.515625 237.203125 270.4375 236.476562 262.214844 C 236.019531 256.796875 235.75 251.355469 235.582031 245.9375 C 235.4375 241.4375 235.75 236.941406 236.234375 232.464844 C 236.285156 231.957031 236.234375 231.449219 235.945312 231.089844 C 234.734375 229.636719 233.523438 228.234375 231.585938 227.628906 C 225.433594 225.695312 219.816406 222.574219 214.316406 219.261719 C 208.070312 215.488281 202.0625 211.351562 196.417969 206.710938 C 190.144531 201.558594 184.914062 195.441406 179.902344 189.101562 C 173.605469 181.171875 168.179688 172.632812 163.140625 163.855469 C 159.363281 157.226562 155.972656 150.433594 153.136719 143.347656 C 147.859375 130.117188 144.152344 116.476562 142.503906 102.304688 C 141.488281 93.550781 140.617188 84.769531 140.351562 75.941406 C 140.324219 74.902344 140.058594 73.863281 140.179688 72.824219 C 140.203125 72.726562 140.253906 72.605469 140.351562 72.363281 C 141.609375 73.546875 142.773438 74.683594 143.984375 75.773438 C 152.046875 83.078125 160.9375 89.292969 170.019531 95.21875 C 180.722656 102.207031 191.671875 108.785156 202.28125 115.921875 C 202.714844 116.210938 203.128906 116.5 203.417969 117.058594 C 206.15625 122.257812 207.148438 127.988281 208.601562 133.550781 C 210.394531 140.46875 212.089844 147.410156 214.511719 154.132812 C 214.609375 154.421875 214.730469 154.6875 214.582031 155.050781 C 213.90625 156.769531 213.808594 158.582031 213.785156 160.394531 C 213.761719 164.507812 213.664062 168.617188 214.003906 172.707031 C 214.703125 180.90625 217.078125 188.378906 223.085938 194.351562 C 223.277344 194.542969 223.472656 194.761719 223.691406 194.933594 C 224.320312 195.441406 224.972656 195.488281 225.53125 194.882812 C 226.089844 194.304688 226.015625 193.625 225.457031 193.046875 C 224.222656 191.761719 223.058594 190.433594 222.019531 189.007812 C 218.96875 184.773438 217.5625 179.960938 216.882812 174.882812 C 216.253906 170.023438 216.328125 165.160156 216.398438 160.300781 C 216.398438 160.128906 216.425781 159.9375 216.449219 159.429688 C 217.902344 162.695312 219.28125 165.621094 220.976562 168.402344 C 222.890625 171.546875 225.09375 174.472656 227.734375 177.035156 C 228.21875 177.496094 228.703125 177.929688 229.429688 177.664062 C 230.421875 177.300781 230.617188 176.1875 229.722656 175.34375 C 225.265625 171.039062 222.1875 165.8125 219.71875 160.226562 C 216.496094 152.898438 214.246094 145.207031 212.28125 137.46875 C 210.804688 131.59375 209.402344 125.714844 207.632812 119.910156 C 207.585938 119.863281 207.511719 119.765625 207.511719 119.742188 C 207.609375 119.597656 207.679688 119.691406 207.777344 119.765625 C 210.707031 121.554688 213.421875 123.636719 216.183594 125.667969 C 222.816406 130.601562 229.308594 135.703125 235.023438 141.75 C 238.222656 145.136719 241.105469 148.738281 243.089844 152.996094 C 243.527344 153.9375 243.890625 154.90625 244.058594 155.945312 C 244.179688 156.816406 244.617188 157.566406 245.609375 157.421875 C 246.652344 157.277344 246.820312 156.453125 246.675781 155.582031 C 246.214844 152.875 244.929688 150.503906 243.476562 148.207031 C 239.601562 142.113281 234.492188 137.15625 229.066406 132.488281 C 215.941406 121.265625 201.40625 112.027344 186.875 102.8125 C 176.535156 96.257812 166.09375 89.824219 156.285156 82.449219 C 151.613281 78.941406 147.082031 75.21875 142.941406 71.082031 C 142.625 70.765625 142.238281 70.550781 142.09375 70.066406 C 142.625 69.679688 143.257812 69.75 143.835938 69.777344 C 157.328125 70.527344 170.84375 71.007812 184.140625 73.644531 C 191.066406 75.023438 197.847656 76.984375 204.582031 79.136719 C 214.777344 82.375 224.78125 86.050781 234.6875 90.066406 C 242.460938 93.1875 249.773438 97.152344 256.796875 101.699219 C 260.308594 103.972656 263.847656 106.222656 266.945312 109.101562 C 267.914062 109.996094 268.59375 111.082031 269.417969 112.050781 C 271.667969 114.6875 271.667969 114.785156 274.792969 113.621094 C 287.4375 108.859375 300.660156 106.535156 313.910156 104.382812 C 322.605469 102.980469 331.324219 101.941406 340.136719 102.160156 C 340.9375 102.109375 341.738281 102.0625 342.535156 102.039062 C 349.828125 101.796875 357.09375 102.109375 364.359375 102.257812 C 369.273438 102.472656 374.167969 102.957031 379.035156 103.683594 C 387.34375 104.890625 395.578125 106.441406 403.765625 108.230469 C 408.777344 109.316406 413.667969 110.746094 418.488281 112.511719 C 418.804688 112.632812 419.070312 112.824219 419.507812 112.582031 C 422.21875 111.058594 425.199219 110.117188 428.105469 109.003906 C 441.304688 103.996094 454.820312 100.273438 468.914062 98.75 C 479.378906 97.613281 489.839844 96.523438 500.375 96.089844 C 504.566406 95.917969 508.757812 95.484375 512.945312 95.507812 C 517.210938 95.53125 521.496094 95.824219 525.757812 96.234375 C 537.503906 97.320312 549.082031 99.402344 560.636719 101.988281 C 559.253906 102.230469 557.875 102.496094 556.46875 102.691406 C 530.480469 106.269531 505.996094 114.324219 483.203125 127.359375 C 472.136719 133.671875 461.671875 140.804688 452.324219 149.511719 C 449.855469 151.835938 447.433594 154.203125 445.253906 156.816406 C 444.695312 157.46875 444.285156 158.171875 445.035156 158.945312 C 445.640625 159.574219 446.488281 159.453125 447.214844 158.605469 C 458.089844 146.175781 471.53125 137.058594 485.746094 128.957031 C 485.894531 128.882812 486.039062 128.835938 486.183594 128.785156 C 486.304688 128.640625 486.449219 128.496094 486.621094 128.691406 C 486.644531 128.714844 486.472656 128.882812 486.402344 129.003906 C 480.855469 137.855469 478.359375 147.867188 475.355469 157.6875 C 473.394531 164.097656 471.84375 170.648438 468.722656 176.648438 C 467.121094 179.742188 465.257812 182.644531 462.761719 185.113281 C 462.15625 185.71875 461.671875 186.417969 462.425781 187.21875 C 463.199219 188.039062 463.972656 187.675781 464.628906 187.023438 C 467.753906 183.855469 470.054688 180.15625 471.941406 176.140625 C 472.570312 174.808594 473.128906 173.429688 473.78125 171.90625 C 474.386719 173.769531 474.4375 175.585938 474.558594 177.324219 C 474.871094 182.621094 474.898438 187.941406 473.492188 193.140625 C 472.476562 196.890625 470.875 200.324219 467.800781 202.863281 C 467.195312 203.371094 467.097656 204.050781 467.582031 204.703125 C 468.089844 205.355469 468.746094 205.355469 469.398438 204.945312 C 470.320312 204.339844 471.046875 203.515625 471.722656 202.671875 C 474.679688 199.019531 476.082031 194.761719 476.785156 190.191406 C 477.390625 186.320312 477.5625 182.429688 477.292969 178.535156 C 477.125 176.117188 476.882812 173.722656 476.496094 171.351562 C 476.398438 170.648438 476.058594 169.996094 475.210938 169.972656 C 474.507812 169.972656 474.535156 169.632812 474.703125 169.125 C 477.683594 159.671875 480.082031 150.046875 483.617188 140.757812 C 484.777344 137.664062 486.039062 134.613281 487.804688 131.808594 C 488.484375 130.746094 489.234375 129.753906 490.203125 128.933594 C 490.761719 128.449219 491.148438 127.820312 490.640625 127.140625 C 490.179688 126.488281 490.542969 126.367188 491.027344 126.125 C 495.097656 123.996094 499.238281 122.015625 503.453125 120.199219 C 515.148438 115.144531 527.164062 111.132812 539.636719 108.445312 C 546.273438 107.019531 552.957031 105.882812 559.691406 104.917969 C 562.160156 104.554688 564.632812 104.3125 567.101562 103.875 C 568.023438 103.707031 568.023438 103.949219 567.902344 104.699219 C 566.8125 111.011719 565.238281 117.226562 563.421875 123.371094 C 561.578125 129.585938 559.519531 135.726562 556.90625 141.675781 C 554.507812 147.070312 551.625 152.171875 548.5 157.15625 C 542.738281 166.320312 535.664062 174.421875 528.203125 182.1875 C 519.582031 191.136719 510.089844 199.066406 499.359375 205.378906 C 493.691406 208.71875 487.636719 211.304688 481.4375 213.503906 C 474.65625 215.972656 467.921875 218.320312 460.996094 220.058594 Z M 460.996094 220.058594 " fill-opacity="1" fill-rule="nonzero"/></g><path fill="#703a44" d="M 307.707031 182.113281 C 306.644531 177.421875 304.898438 173.019531 301.433594 169.539062 C 297.34375 165.425781 292.304688 165.113281 287.75 168.667969 C 285.476562 170.457031 283.925781 172.804688 282.738281 175.367188 C 279.710938 181.921875 279.054688 188.835938 280.023438 195.898438 C 280.726562 201.027344 282.351562 205.863281 285.742188 209.925781 C 289.835938 214.835938 295.671875 215.996094 300.707031 211.714844 C 302.039062 210.578125 303.132812 209.25 304.050781 207.773438 C 307.34375 202.429688 308.53125 196.550781 308.554688 190.359375 C 308.554688 187.605469 308.3125 184.847656 307.707031 182.113281 Z M 290.441406 188.328125 C 286.613281 188.355469 283.367188 185.136719 283.320312 181.292969 C 283.269531 177.46875 286.515625 174.230469 290.367188 174.207031 C 294.242188 174.179688 297.4375 177.375 297.464844 181.242188 C 297.488281 185.113281 294.316406 188.328125 290.441406 188.328125 Z M 290.441406 188.328125 " fill-opacity="1" fill-rule="nonzero"/><path fill="#703a44" d="M 416.722656 169.539062 C 412.628906 165.425781 407.566406 165.113281 403.039062 168.667969 C 400.761719 170.457031 399.1875 172.777344 398.023438 175.367188 C 394.464844 183.324219 394.050781 191.546875 396.132812 199.914062 C 397.175781 204.121094 398.96875 207.96875 402.070312 211.085938 C 406.136719 215.125 411.125 215.417969 415.679688 211.957031 C 417.179688 210.820312 418.34375 209.371094 419.3125 207.796875 C 422.605469 202.453125 423.792969 196.578125 423.816406 190.386719 C 423.816406 187.628906 423.625 184.917969 423.019531 182.234375 C 421.929688 177.496094 420.210938 173.070312 416.722656 169.539062 Z M 405.582031 188.28125 C 401.707031 188.207031 398.628906 185.066406 398.652344 181.21875 C 398.675781 177.324219 401.898438 174.15625 405.773438 174.207031 C 409.671875 174.253906 412.871094 177.519531 412.773438 181.363281 C 412.652344 185.332031 409.503906 188.355469 405.582031 188.28125 Z M 405.582031 188.28125 " fill-opacity="1" fill-rule="nonzero"/><path fill="#703a44" d="M 394.558594 260.011719 C 391.21875 262.722656 387.632812 265.019531 383.636719 266.589844 C 375.085938 269.929688 366.199219 271.671875 357.019531 271.910156 C 355.300781 271.960938 355.203125 271.910156 355.226562 270.21875 C 355.277344 267.4375 355.398438 264.65625 355.421875 261.875 C 355.421875 261.222656 355.664062 260.957031 356.269531 260.835938 C 357.457031 260.59375 358.570312 260.0625 359.585938 259.433594 C 365.835938 255.539062 371.429688 250.917969 375.886719 245.019531 C 376.589844 244.097656 377.171875 243.109375 377.171875 241.945312 C 377.097656 235.875 375.304688 233.023438 370.460938 231.476562 C 359.078125 227.800781 347.671875 227.265625 336.140625 231.160156 C 331.226562 232.828125 328.320312 235.730469 327.714844 240.882812 C 327.714844 240.929688 327.691406 240.957031 327.691406 241.003906 C 327.472656 241.875 327.640625 242.671875 328.125 243.421875 C 330.207031 246.640625 332.386719 249.808594 335.320312 252.324219 C 339.484375 255.902344 343.53125 259.625 349.125 260.933594 C 349.707031 261.078125 349.65625 261.414062 349.65625 261.828125 C 349.632812 264.851562 349.585938 267.875 349.632812 270.894531 C 349.632812 271.765625 349.292969 271.984375 348.496094 271.960938 C 346.242188 271.886719 343.988281 271.910156 341.738281 271.671875 C 334.980469 270.96875 328.367188 269.636719 321.949219 267.363281 C 317.152344 265.648438 312.84375 263.109375 308.917969 259.867188 C 307.878906 259.019531 306.714844 258.828125 305.554688 259.433594 C 304.488281 259.964844 304.074219 260.933594 304.148438 262.140625 C 304.222656 263.496094 305.191406 264.195312 306.0625 264.921875 C 309.550781 267.847656 313.425781 270.097656 317.613281 271.886719 C 319.9375 272.878906 322.410156 273.484375 324.757812 274.453125 C 325.121094 274.5 325.484375 274.523438 325.824219 274.621094 C 333.527344 276.605469 341.351562 277.863281 349.34375 277.667969 C 350.117188 277.644531 350.40625 277.835938 350.40625 278.660156 C 350.40625 282.796875 350.503906 286.953125 350.578125 291.089844 C 350.769531 301.925781 350.796875 312.761719 350.890625 323.59375 C 350.890625 323.980469 350.917969 324.417969 351.039062 324.78125 C 351.253906 325.480469 351.789062 325.820312 352.515625 325.796875 C 353.242188 325.769531 353.75 325.382812 353.945312 324.707031 C 354.039062 324.320312 354.039062 323.910156 354.039062 323.523438 C 353.96875 318.976562 353.96875 314.429688 353.871094 309.882812 C 353.652344 299.578125 353.652344 289.253906 353.53125 278.949219 C 353.53125 277.957031 353.75 277.621094 354.792969 277.667969 C 358.304688 277.835938 361.792969 277.546875 365.277344 277.085938 C 370.511719 276.410156 375.644531 275.296875 380.730469 273.871094 C 381.214844 273.703125 381.699219 273.507812 382.207031 273.339844 C 388.167969 271.355469 393.640625 268.5 398.339844 264.316406 C 399.792969 263.011719 399.984375 261.269531 398.917969 260.0625 C 397.757812 258.78125 396.109375 258.78125 394.558594 260.011719 Z M 394.558594 260.011719 " fill-opacity="1" fill-rule="nonzero"/><path fill="#da828f" d="M 566.15625 381.929688 C 564.558594 380.40625 562.765625 379.390625 560.464844 379.460938 C 557.488281 379.558594 554.941406 381.421875 553.949219 384.347656 C 553.003906 387.128906 554 390.199219 556.492188 392.207031 C 558.578125 393.875 561.992188 394.042969 564.339844 392.570312 C 564.945312 392.183594 565.503906 391.722656 566.109375 391.3125 C 566.230469 388.191406 566.617188 385.074219 566.15625 381.929688 Z M 566.15625 381.929688 " fill-opacity="1" fill-rule="nonzero"/><path fill="#da828f" d="M 365.230469 277.085938 C 361.742188 277.546875 358.253906 277.835938 354.742188 277.667969 C 353.703125 277.621094 353.484375 277.957031 353.484375 278.949219 C 353.605469 289.253906 353.605469 299.578125 353.824219 309.882812 C 353.917969 314.429688 353.917969 318.976562 353.992188 323.523438 C 353.992188 323.933594 354.015625 324.34375 353.894531 324.707031 C 353.703125 325.382812 353.191406 325.796875 352.464844 325.796875 C 351.738281 325.820312 351.207031 325.457031 350.988281 324.78125 C 350.867188 324.417969 350.84375 323.980469 350.84375 323.59375 C 350.746094 312.761719 350.722656 301.925781 350.527344 291.089844 C 350.457031 286.953125 350.359375 282.796875 350.359375 278.660156 C 350.359375 277.835938 350.070312 277.644531 349.292969 277.667969 C 341.300781 277.863281 333.503906 276.605469 325.777344 274.621094 C 325.4375 274.523438 325.050781 274.5 324.710938 274.453125 C 324.6875 274.933594 324.613281 275.417969 324.613281 275.878906 C 324.636719 279.941406 324.757812 284.003906 325.097656 288.042969 C 325.535156 293.242188 326.261719 298.417969 327.59375 303.472656 C 329.433594 310.339844 332.363281 316.628906 337.835938 321.441406 C 340.550781 323.8125 343.652344 325.457031 347.234375 326.085938 C 349.972656 326.570312 352.707031 326.183594 355.445312 326.304688 C 358.496094 326.425781 361.308594 325.410156 363.921875 323.910156 C 369.179688 320.910156 372.542969 316.242188 375.015625 310.875 C 378.1875 303.980469 379.300781 296.605469 380.078125 289.179688 C 380.585938 284.101562 380.683594 278.972656 380.632812 273.871094 C 375.597656 275.296875 370.460938 276.410156 365.230469 277.085938 Z M 365.230469 277.085938 " fill-opacity="1" fill-rule="nonzero"/><path fill="#da828f" d="M 188.742188 427.128906 C 180.699219 427.152344 174.332031 433.296875 174.378906 441.445312 C 174.425781 449.550781 180.652344 455.59375 188.621094 455.644531 C 196.441406 455.691406 202.980469 449.742188 203.007812 441.351562 C 202.980469 433.25 196.492188 427.226562 188.742188 427.128906 Z M 188.742188 427.128906 " fill-opacity="1" fill-rule="nonzero"/><path fill="#da828f" d="M 166.773438 370.898438 C 162.316406 370.898438 158.441406 374.695312 158.5625 379.171875 C 158.683594 383.71875 161.808594 387.394531 166.773438 387.394531 C 171.761719 387.394531 174.789062 383.695312 175.007812 379.171875 C 175.007812 374.695312 171.230469 370.898438 166.773438 370.898438 Z M 166.773438 370.898438 " fill-opacity="1" fill-rule="nonzero"/><path fill="#da828f" d="M 146.113281 380.042969 C 142.289062 380.019531 139.1875 383.160156 139.164062 386.910156 C 139.140625 390.804688 142.3125 394.042969 146.1875 393.949219 C 150.304688 393.851562 153.234375 390.515625 153.015625 387.007812 C 153.234375 383.378906 150.160156 380.066406 146.113281 380.042969 Z M 146.113281 380.042969 " fill-opacity="1" fill-rule="nonzero"/><path fill="#da828f" d="M 184.382812 400.210938 C 187.796875 400.1875 190.242188 397.359375 190.050781 394.550781 C 190.316406 391.261719 187.410156 388.722656 184.453125 388.699219 C 181.234375 388.675781 178.640625 391.167969 178.617188 394.359375 C 178.617188 397.648438 181.113281 400.234375 184.382812 400.210938 Z M 184.382812 400.210938 " fill-opacity="1" fill-rule="nonzero"/><path fill="#da828f" d="M 518.152344 426.523438 C 509.871094 426.523438 503.863281 432.835938 503.71875 440.816406 C 503.574219 448.703125 510.113281 455.207031 518.03125 455.230469 C 526.023438 455.257812 532.515625 448.894531 532.46875 440.964844 C 532.417969 432.957031 526.316406 426.550781 518.152344 426.523438 Z M 518.152344 426.523438 " fill-opacity="1" fill-rule="nonzero"/><path fill="#da828f" d="M 539.976562 370.34375 C 535.445312 370.367188 531.714844 374.117188 531.714844 378.6875 C 531.714844 383.308594 535.347656 386.984375 539.953125 387.007812 C 544.527344 387.03125 548.257812 383.332031 548.28125 378.761719 C 548.308594 374.117188 544.554688 370.320312 539.976562 370.34375 Z M 539.976562 370.34375 " fill-opacity="1" fill-rule="nonzero"/><path fill="#da828f" d="M 522.390625 399.824219 C 525.660156 399.824219 528.324219 397.1875 528.324219 393.925781 C 528.324219 390.804688 525.613281 388.167969 522.390625 388.191406 C 519.195312 388.191406 516.480469 390.875 516.53125 393.996094 C 516.578125 397.238281 519.195312 399.824219 522.390625 399.824219 Z M 522.390625 399.824219 " fill-opacity="1" fill-rule="nonzero"/><path fill="#fef9ea" d="M 443.386719 465.875 C 439.148438 466.574219 434.863281 467.082031 430.597656 467.179688 C 426.117188 467.277344 421.757812 466.453125 418.078125 463.40625 C 413.402344 459.539062 409.890625 454.917969 407.785156 449.257812 C 406.9375 446.984375 406.476562 444.613281 406.550781 442.171875 C 405.339844 443.40625 404.636719 445.027344 403.351562 446.210938 C 401.949219 447.515625 400.347656 447.785156 399.015625 446.792969 C 397.417969 445.605469 396.980469 443.988281 397.925781 442.246094 C 399.066406 440.164062 400.617188 438.351562 401.996094 436.441406 C 406.402344 430.371094 410.835938 424.324219 415.242188 418.253906 C 417.957031 414.53125 420.597656 410.730469 423.332031 407.007812 C 424.132812 405.917969 425.34375 405.195312 426.796875 405.484375 C 428.324219 405.773438 429.605469 407.128906 429.777344 408.605469 C 429.898438 409.570312 429.363281 410.394531 428.855469 411.144531 C 426.289062 415.039062 423.503906 418.761719 420.765625 422.511719 C 418.5625 425.558594 416.332031 428.605469 414.128906 431.675781 C 413.984375 431.871094 413.574219 432.085938 413.839844 432.472656 C 420.984375 428.339844 428.636719 425.144531 435.613281 420.695312 C 438.445312 418.882812 440.988281 416.730469 443.386719 414.382812 C 449.25 408.675781 454.890625 402.777344 459.734375 396.171875 C 460.875 394.625 461.890625 392.957031 462.882812 391.3125 C 465.039062 387.757812 464.847656 384.105469 463.003906 380.527344 C 461.382812 377.355469 459.421875 374.457031 456.585938 372.183594 C 453.753906 369.933594 452.203125 369.933594 449.394531 372.421875 C 447.480469 374.140625 445.589844 375.90625 443.679688 377.625 C 443.195312 378.058594 442.683594 378.445312 442.128906 378.785156 C 441.230469 379.363281 440.214844 379.511719 439.269531 378.976562 C 438.277344 378.421875 437.984375 377.453125 438.058594 376.390625 C 438.226562 374.214844 438.835938 372.132812 439.414062 370.054688 C 441.402344 362.824219 443.703125 355.664062 445.421875 348.359375 C 446.609375 343.378906 447.601562 338.347656 448.0625 333.21875 C 448.28125 330.851562 448.402344 328.480469 448.375 326.132812 C 448.351562 322.046875 448.207031 317.960938 447.820312 313.871094 C 447.554688 310.921875 447.335938 307.972656 447.019531 305.019531 C 446.949219 304.222656 446.851562 303.425781 446.753906 302.625 C 445.035156 304.585938 443.558594 306.714844 441.835938 308.695312 C 439.125 311.839844 436.21875 314.765625 433.167969 317.574219 C 429.097656 321.296875 424.761719 324.683594 420.304688 327.898438 C 414.347656 332.203125 408.125 336.148438 401.828125 339.945312 C 397.949219 342.289062 393.617188 343.160156 389.402344 344.417969 C 382.71875 346.425781 375.886719 347.875 369.03125 349.277344 C 368.839844 349.328125 368.695312 349.449219 368.5 349.519531 C 371.550781 353.65625 373.199219 358.324219 373.296875 363.425781 C 373.417969 368.894531 371.867188 373.921875 368.546875 378.300781 C 364.988281 383.015625 360.3125 386.136719 354.523438 387.585938 C 353.460938 387.855469 353.21875 387.613281 353.191406 386.546875 C 353.097656 383.160156 352.902344 379.800781 353 376.414062 C 353.046875 374.695312 353.167969 372.957031 353.21875 371.238281 C 353.242188 370.730469 353.53125 370.441406 353.796875 370.101562 C 355.203125 368.214844 355.371094 366.160156 354.453125 364.054688 C 353.507812 361.902344 351.644531 360.839844 349.390625 360.71875 C 347.550781 360.621094 345.105469 361.660156 344.039062 363.984375 C 343.070312 366.113281 343.289062 368.796875 344.863281 370.246094 C 345.953125 371.261719 346.265625 372.328125 346.21875 373.753906 C 346.121094 377.019531 346.21875 380.285156 346.167969 383.546875 C 346.167969 384.78125 346.023438 386.039062 345.976562 387.273438 C 345.953125 388.121094 345.417969 388 344.886719 387.902344 C 341.082031 387.128906 337.570312 385.699219 334.496094 383.332031 C 329.75 379.679688 326.625 374.988281 325.390625 369.132812 C 323.839844 361.757812 325.460938 355.082031 329.964844 349.0625 C 325.753906 348.335938 321.539062 347.488281 317.394531 346.351562 C 316.453125 346.085938 315.605469 345.652344 314.804688 345.09375 C 313.957031 344.515625 313.109375 344.175781 311.996094 344.296875 C 311.003906 344.417969 310.105469 343.714844 309.1875 343.355469 C 300.296875 339.894531 292.015625 335.25 284.167969 329.90625 C 280.292969 327.246094 276.609375 324.367188 273.097656 321.226562 C 271.910156 320.160156 270.820312 318.976562 269.683594 317.863281 C 269.175781 320.234375 269.34375 322.675781 269.296875 325.070312 C 269.246094 327.707031 269.417969 330.367188 269.609375 333.003906 C 270.09375 339.484375 271.523438 345.773438 273.148438 352.011719 C 274.816406 358.445312 276.78125 364.828125 278.570312 371.238281 C 278.984375 372.664062 279.296875 374.117188 279.539062 375.566406 C 279.757812 376.824219 279.710938 378.15625 278.476562 378.929688 C 277.265625 379.703125 276.078125 379.292969 275.011719 378.46875 C 273.558594 377.382812 272.226562 376.148438 270.941406 374.867188 C 269.585938 373.535156 268.183594 372.277344 266.582031 371.238281 C 265.128906 370.296875 263.726562 370.269531 262.320312 371.238281 C 258.832031 373.632812 256.433594 376.898438 254.617188 380.648438 C 253.867188 382.21875 253.3125 383.839844 253.191406 385.582031 C 252.996094 388.433594 254.425781 390.78125 255.828125 393.078125 C 258.347656 397.164062 261.425781 400.816406 264.644531 404.371094 C 267.382812 407.394531 270.191406 410.320312 273.050781 413.222656 C 278.449219 418.738281 284.917969 422.65625 291.746094 426.113281 C 296.15625 428.363281 300.707031 430.347656 304.800781 433.175781 C 306.496094 434.335938 308.167969 435.496094 309.378906 437.214844 C 311.339844 440.019531 311.390625 443.066406 310.710938 446.210938 C 309.597656 451.484375 306.886719 455.886719 303.324219 459.828125 C 300.976562 462.4375 298.261719 464.664062 294.945312 465.996094 C 293.078125 466.746094 291.117188 466.890625 289.15625 466.984375 C 283.246094 467.253906 277.410156 466.332031 271.597656 465.367188 C 265.492188 464.351562 259.4375 463.019531 253.578125 461.0625 C 250.476562 460.046875 247.351562 459.199219 244.179688 458.519531 C 245.464844 461.183594 247.0625 463.625 248.660156 466.089844 C 253.625 473.734375 259.027344 481.0625 264.765625 488.125 C 269.707031 494.21875 274.746094 500.238281 280.921875 505.199219 C 288.089844 510.953125 296.15625 514.800781 304.875 517.386719 C 308.097656 518.332031 311.339844 519.105469 314.660156 519.492188 C 314.464844 518.570312 313.667969 518.136719 313.085938 517.582031 C 306.789062 511.4375 303.105469 503.867188 300.757812 495.546875 C 300.273438 493.855469 301.023438 492.1875 302.453125 491.242188 C 304.414062 489.960938 306.738281 491.535156 307.371094 493.347656 C 307.976562 495.089844 308.433594 496.878906 309.113281 498.59375 C 310.953125 503.3125 313.425781 507.617188 316.839844 511.414062 C 319.308594 514.121094 322.121094 516.445312 324.832031 518.886719 C 325.074219 519.105469 325.316406 519.320312 325.339844 519.683594 C 329.191406 519.273438 332.945312 518.355469 336.554688 516.976562 C 336.53125 516.058594 336.433594 515.113281 336.480469 514.195312 C 336.746094 509.042969 334.929688 504.472656 332.4375 500.144531 C 330.207031 496.273438 327.785156 492.523438 325.460938 488.726562 C 323.695312 485.824219 325.316406 483.746094 327.472656 483.117188 C 328.609375 482.777344 330.425781 483.457031 331.128906 484.664062 C 334.058594 489.742188 337.59375 494.484375 340.136719 499.78125 C 342.101562 503.820312 343.480469 508.027344 343.503906 512.597656 C 343.503906 512.914062 343.457031 513.25 343.773438 513.46875 C 344.886719 512.816406 345.953125 512.210938 346.679688 511.027344 C 348.664062 507.714844 349.027344 504.230469 348.226562 500.480469 C 346.628906 493.082031 344.039062 486.042969 340.527344 479.34375 C 335.585938 469.886719 329.992188 460.820312 323.597656 452.257812 C 322.09375 452.425781 321.464844 451.265625 320.761719 450.347656 C 317.636719 446.210938 314.609375 442.027344 311.535156 437.867188 C 305.769531 430.105469 299.957031 422.367188 294.679688 414.261719 C 294.097656 413.367188 293.515625 412.425781 293.054688 411.433594 C 292.207031 409.597656 292.910156 407.613281 294.679688 406.71875 C 296.277344 405.894531 298.09375 406.453125 299.132812 408.144531 C 304.707031 417.238281 311.21875 425.628906 317.542969 434.191406 C 320.691406 438.449219 323.984375 442.582031 326.867188 447.035156 C 327.328125 447.734375 327.472656 448.484375 327.519531 449.308594 C 328.902344 450.296875 330.476562 450.925781 332.023438 451.605469 C 340.816406 455.425781 350.070312 456.925781 359.585938 456.757812 C 365.230469 456.660156 370.847656 456.054688 376.417969 455.136719 C 381.820312 454.265625 387.003906 452.691406 391.773438 449.910156 C 393.90625 448.652344 393.953125 448.703125 395.675781 450.589844 C 395.746094 450.6875 395.820312 450.78125 395.917969 450.855469 C 396.859375 451.582031 396.738281 452.332031 396.132812 453.273438 C 391.167969 460.964844 387.027344 469.113281 383.296875 477.457031 C 380.199219 484.398438 377.898438 491.582031 376.734375 499.101562 C 376.226562 502.464844 376.25 505.730469 377.921875 508.800781 C 378.308594 508.292969 378.140625 507.714844 378.117188 507.179688 C 377.875 498.546875 380.707031 490.785156 384.800781 483.359375 C 385.597656 481.90625 386.375 480.457031 387.441406 479.199219 C 388.335938 478.136719 389.449219 477.242188 390.953125 477.554688 C 393.617188 478.0625 394.65625 481.085938 393.011719 483.433594 C 389.085938 488.921875 386.617188 495.015625 385.453125 501.644531 C 384.847656 505.054688 385.113281 508.511719 385.550781 511.945312 C 385.671875 512.960938 386.035156 513.976562 385.816406 515.042969 C 389.230469 516.6875 392.816406 517.796875 396.546875 518.523438 C 398.824219 513.664062 399.597656 508.292969 401.65625 503.359375 C 402.988281 500.214844 404.296875 497.023438 406.71875 494.507812 C 408.65625 492.476562 411.902344 493.371094 412.652344 496.054688 C 412.941406 497.121094 412.53125 498.015625 411.972656 498.765625 C 408.390625 503.699219 406.839844 509.429688 405.265625 515.1875 C 404.902344 516.539062 404.152344 517.773438 404.054688 519.199219 C 408.195312 519.105469 412.214844 518.332031 416.1875 517.21875 C 422.824219 515.332031 429.050781 512.574219 434.714844 508.609375 C 439.753906 505.101562 443.628906 500.507812 447.335938 495.71875 C 453.609375 487.617188 459.105469 479.007812 464.214844 470.128906 C 466.300781 466.550781 468.140625 462.828125 469.8125 459.03125 C 468.210938 459.296875 466.808594 460.167969 465.28125 460.675781 C 458.210938 463.066406 450.847656 464.664062 443.386719 465.875 Z M 443.386719 465.875 " fill-opacity="1" fill-rule="nonzero"/><path fill="#fef9ea" d="M 245.949219 294.9375 C 246.3125 295.492188 246.625 296.074219 247.015625 296.628906 C 247.351562 297.136719 247.742188 297.597656 247.402344 298.25 C 248.832031 302.480469 252.222656 304.925781 255.585938 307.4375 C 259.921875 310.65625 264.523438 313.4375 269.246094 316.050781 C 269.417969 316.144531 269.5625 316.289062 269.730469 316.410156 C 271.453125 317.039062 273 317.984375 274.625 318.757812 C 281.867188 322.214844 289.398438 324.902344 297.125 327.078125 C 304.050781 329.011719 311.074219 330.488281 318.148438 331.601562 C 321.828125 332.179688 325.535156 332.566406 329.238281 332.90625 C 337.039062 333.632812 344.835938 333.726562 352.636719 333.558594 C 357.457031 333.460938 362.25 333.171875 367.046875 332.6875 C 376.515625 331.722656 385.839844 329.980469 395.042969 327.5625 C 402.359375 325.625 409.503906 323.160156 416.429688 320.085938 C 423.332031 317.015625 429.898438 313.363281 436.097656 309.058594 C 439.390625 306.761719 442.613281 304.367188 445.421875 301.441406 C 445.710938 301.128906 445.980469 300.738281 446.488281 300.691406 C 447.578125 299.335938 448.667969 297.957031 449.78125 296.628906 C 450.144531 296.195312 450.3125 295.636719 450.871094 295.371094 C 450.507812 294.765625 450.144531 294.136719 449.734375 293.53125 C 449.515625 293.21875 449.417969 292.929688 449.636719 292.542969 C 451.984375 288.574219 453.339844 284.199219 454.601562 279.796875 C 455.640625 276.191406 456.394531 272.566406 456.660156 268.816406 C 456.03125 268.355469 455.910156 267.605469 455.546875 266.976562 C 455.085938 266.179688 454.648438 265.359375 453.921875 264.730469 C 451.863281 262.988281 449.804688 261.246094 447.746094 259.503906 C 442.636719 255.128906 437.308594 251.066406 431.785156 247.21875 C 423.746094 241.632812 415.195312 236.867188 406.621094 232.152344 C 400.007812 228.5 393.808594 224.316406 388.867188 218.4375 C 385.574219 214.523438 382.8125 210.289062 380.585938 205.742188 C 377.992188 200.46875 376.128906 194.882812 374.628906 189.199219 C 371.695312 178.21875 369.878906 167.023438 368.546875 155.753906 C 367.96875 150.941406 367.53125 146.101562 367.09375 141.289062 C 366.636719 136.140625 366.246094 130.988281 365.882812 125.8125 C 365.59375 121.484375 365.449219 117.152344 365.085938 112.824219 C 364.964844 111.300781 364.84375 109.777344 364.746094 108.277344 C 364.625 106.320312 364.1875 104.382812 364.382812 102.425781 C 357.117188 102.28125 349.828125 101.964844 342.5625 102.207031 C 341.761719 102.230469 340.960938 102.28125 340.164062 102.328125 C 340.164062 102.570312 340.210938 102.8125 340.164062 103.054688 C 339.628906 107.191406 339.460938 111.375 339.195312 115.535156 C 339.023438 118.046875 338.878906 120.589844 338.683594 123.101562 C 338.371094 127.820312 337.910156 132.535156 337.523438 137.25 C 337.257812 140.539062 337.109375 143.828125 336.746094 147.09375 C 336.140625 152.34375 335.609375 157.613281 334.882812 162.839844 C 333.839844 170.382812 332.507812 177.882812 330.691406 185.28125 C 328.539062 194.0625 325.824219 202.621094 321.199219 210.457031 C 317.105469 217.375 311.800781 223.15625 305.117188 227.679688 C 299.402344 231.523438 293.199219 234.570312 287.242188 238.027344 C 280.96875 241.679688 274.84375 245.527344 268.980469 249.78125 C 263.871094 253.507812 258.90625 257.402344 254.132812 261.535156 C 251.664062 263.6875 249.144531 265.71875 247.765625 268.9375 C 244.808594 275.878906 243.453125 282.914062 244.929688 290.414062 C 245.246094 291.886719 245.949219 293.339844 245.949219 294.9375 Z M 305.527344 259.433594 C 306.714844 258.828125 307.878906 259.019531 308.894531 259.867188 C 312.820312 263.109375 317.128906 265.648438 321.925781 267.363281 C 328.34375 269.636719 334.957031 270.96875 341.714844 271.671875 C 343.964844 271.910156 346.21875 271.863281 348.46875 271.960938 C 349.269531 271.984375 349.609375 271.789062 349.609375 270.894531 C 349.585938 267.871094 349.632812 264.851562 349.632812 261.828125 C 349.632812 261.414062 349.679688 261.054688 349.101562 260.933594 C 343.53125 259.625 339.460938 255.878906 335.292969 252.320312 C 332.363281 249.808594 330.183594 246.640625 328.101562 243.421875 C 327.617188 242.671875 327.449219 241.875 327.664062 241.003906 C 327.664062 240.957031 327.691406 240.929688 327.691406 240.882812 C 328.296875 235.730469 331.203125 232.828125 336.117188 231.160156 C 347.648438 227.265625 359.054688 227.800781 370.4375 231.476562 C 375.257812 233.023438 377.074219 235.902344 377.144531 241.945312 C 377.171875 243.109375 376.566406 244.097656 375.863281 245.019531 C 371.382812 250.917969 365.789062 255.539062 359.5625 259.433594 C 358.546875 260.0625 357.429688 260.59375 356.246094 260.835938 C 355.640625 260.957031 355.398438 261.199219 355.398438 261.875 C 355.371094 264.65625 355.25 267.4375 355.203125 270.21875 C 355.179688 271.910156 355.277344 271.960938 356.996094 271.910156 C 366.175781 271.671875 375.0625 269.929688 383.613281 266.589844 C 387.632812 265.019531 391.195312 262.699219 394.535156 260.011719 C 396.085938 258.753906 397.734375 258.78125 398.847656 260.039062 C 399.914062 261.246094 399.71875 262.988281 398.265625 264.292969 C 393.566406 268.5 388.09375 271.355469 382.136719 273.316406 C 381.652344 273.484375 381.144531 273.675781 380.65625 273.847656 C 380.707031 278.949219 380.609375 284.078125 380.101562 289.15625 C 379.351562 296.605469 378.210938 303.980469 375.039062 310.847656 C 372.570312 316.21875 369.203125 320.863281 363.945312 323.886719 C 361.332031 325.382812 358.519531 326.398438 355.46875 326.277344 C 352.734375 326.160156 349.996094 326.546875 347.257812 326.0625 C 343.652344 325.433594 340.574219 323.8125 337.863281 321.417969 C 332.386719 316.605469 329.433594 310.339844 327.617188 303.449219 C 326.285156 298.394531 325.558594 293.242188 325.121094 288.019531 C 324.785156 283.957031 324.664062 279.917969 324.636719 275.855469 C 324.636719 275.371094 324.710938 274.886719 324.734375 274.425781 C 322.386719 273.460938 319.914062 272.855469 317.589844 271.863281 C 313.398438 270.074219 309.523438 267.824219 306.039062 264.898438 C 305.164062 264.148438 304.195312 263.445312 304.125 262.117188 C 304.074219 260.933594 304.464844 259.964844 305.527344 259.433594 Z M 305.527344 259.433594 " fill-opacity="1" fill-rule="nonzero"/><path fill="#fef9ea" d="M 212.574219 419.367188 C 210.78125 413.78125 208.625 408.3125 206.203125 402.96875 C 202.667969 395.15625 198.648438 387.613281 193.390625 380.765625 C 192.375 379.4375 191.066406 378.324219 190.242188 376.847656 C 188.523438 378.035156 188.523438 378.035156 186.828125 376.558594 C 186.609375 376.367188 186.417969 376.171875 186.199219 376.003906 C 179.078125 370.03125 171.253906 365.191406 162.367188 362.265625 C 158.101562 360.863281 153.839844 360.429688 149.457031 362 C 143.207031 364.226562 139.9375 369.085938 137.757812 374.867188 C 135.722656 380.234375 136.136719 385.894531 136.621094 391.457031 C 137.152344 397.574219 138.386719 403.550781 139.914062 409.5 C 142.3125 418.808594 145.558594 427.808594 150.546875 436.101562 C 154.132812 442.050781 158.078125 447.710938 163.40625 452.304688 C 168.226562 456.441406 173.410156 460.019531 179.125 462.851562 C 182.929688 464.738281 186.996094 465.609375 191.1875 465.535156 C 197.074219 465.4375 202.570312 463.722656 207.800781 460.914062 C 212.160156 458.570312 214.027344 454.84375 214.4375 450.273438 C 214.679688 447.785156 214.730469 445.390625 217.078125 443.839844 C 217.125 443.792969 217.152344 443.695312 217.175781 443.625 C 217.101562 441.324219 216.738281 439.078125 216.425781 436.828125 C 215.601562 430.902344 214.390625 425.050781 212.574219 419.367188 Z M 146.1875 393.972656 C 142.3125 394.042969 139.140625 390.828125 139.164062 386.933594 C 139.1875 383.1875 142.289062 380.042969 146.113281 380.066406 C 150.160156 380.089844 153.257812 383.378906 152.992188 387.054688 C 153.234375 390.515625 150.304688 393.875 146.1875 393.972656 Z M 184.453125 388.722656 C 187.410156 388.75 190.316406 391.289062 190.050781 394.578125 C 190.242188 397.382812 187.773438 400.1875 184.382812 400.234375 C 181.113281 400.261719 178.617188 397.648438 178.640625 394.382812 C 178.640625 391.191406 181.234375 388.699219 184.453125 388.722656 Z M 166.773438 387.394531 C 161.808594 387.394531 158.683594 383.71875 158.5625 379.171875 C 158.441406 374.695312 162.316406 370.898438 166.773438 370.898438 C 171.230469 370.898438 175.007812 374.695312 175.007812 379.171875 C 174.789062 383.695312 171.761719 387.394531 166.773438 387.394531 Z M 188.597656 455.644531 C 180.628906 455.59375 174.425781 449.574219 174.355469 441.445312 C 174.304688 433.296875 180.699219 427.179688 188.71875 427.128906 C 196.46875 427.203125 202.957031 433.25 202.957031 441.324219 C 202.980469 449.742188 196.417969 455.691406 188.597656 455.644531 Z M 188.597656 455.644531 " fill-opacity="1" fill-rule="nonzero"/><path fill="#fef9ea" d="M 556.46875 392.207031 C 553.972656 390.222656 552.980469 387.152344 553.925781 384.347656 C 554.917969 381.421875 557.488281 379.558594 560.441406 379.460938 C 562.765625 379.390625 564.535156 380.40625 566.132812 381.929688 C 566.109375 379.242188 565.648438 376.632812 564.511719 374.1875 C 562.886719 370.683594 561.242188 367.152344 557.921875 364.828125 C 554.652344 362.53125 551.042969 361.03125 546.976562 361.203125 C 543.222656 361.347656 539.683594 362.507812 536.246094 363.984375 C 531.230469 366.136719 526.484375 368.773438 522.003906 371.914062 C 517.476562 375.085938 513.359375 378.664062 510.304688 383.332031 C 509.457031 384.613281 508.367188 385.699219 507.304688 386.8125 C 506.480469 387.683594 505.753906 387.902344 504.855469 387.007812 C 504.734375 387.296875 504.664062 387.613281 504.492188 387.902344 C 501.878906 392.109375 499.554688 396.464844 497.46875 400.984375 C 493.230469 410.152344 489.5 419.511719 487.492188 429.476562 C 486.546875 434.144531 485.722656 438.835938 485.457031 443.625 C 487.394531 444.976562 488.289062 446.816406 488.074219 449.1875 C 488.023438 449.742188 488.046875 450.324219 488.144531 450.878906 C 488.800781 454.75 490.035156 458.28125 493.667969 460.433594 C 495.582031 461.570312 497.542969 462.585938 499.601562 463.40625 C 506.625 466.164062 513.769531 466.695312 520.964844 464.15625 C 524.863281 462.777344 528.351562 460.578125 531.742188 458.253906 C 535.617188 455.59375 539.441406 452.789062 542.617188 449.28125 C 550.875 440.140625 556.542969 429.523438 560.34375 417.867188 C 563.152344 409.234375 565.1875 400.40625 566.035156 391.359375 C 565.453125 391.773438 564.898438 392.230469 564.269531 392.617188 C 561.96875 394.042969 558.550781 393.875 556.46875 392.207031 Z M 522.390625 388.191406 C 525.613281 388.191406 528.324219 390.804688 528.324219 393.925781 C 528.324219 397.1875 525.660156 399.824219 522.390625 399.824219 C 519.195312 399.824219 516.601562 397.238281 516.53125 393.996094 C 516.480469 390.875 519.195312 388.191406 522.390625 388.191406 Z M 518.03125 455.230469 C 510.113281 455.207031 503.574219 448.726562 503.71875 440.816406 C 503.863281 432.835938 509.871094 426.523438 518.152344 426.523438 C 526.292969 426.523438 532.417969 432.957031 532.46875 440.9375 C 532.515625 448.894531 526.023438 455.257812 518.03125 455.230469 Z M 539.953125 387.007812 C 535.347656 386.984375 531.714844 383.308594 531.714844 378.6875 C 531.714844 374.117188 535.421875 370.367188 539.976562 370.34375 C 544.554688 370.320312 548.308594 374.117188 548.28125 378.761719 C 548.257812 383.332031 544.554688 387.03125 539.953125 387.007812 Z M 539.953125 387.007812 " fill-opacity="1" fill-rule="nonzero"/><path fill="#fef9ea" d="M 296.277344 140.710938 C 297.730469 142.789062 298.988281 144.992188 299.738281 147.457031 C 299.980469 148.230469 300.515625 148.761719 301.363281 148.519531 C 302.136719 148.28125 302.5 147.652344 302.234375 146.804688 C 302.015625 146.101562 301.847656 145.402344 301.554688 144.75 C 300.441406 142.0625 298.820312 139.644531 297.050781 137.347656 C 295.597656 135.414062 294.144531 133.503906 292.449219 131.761719 C 292.085938 131.375 291.625 131.011719 291.070312 131.300781 C 290.585938 131.542969 290.222656 131.929688 290.269531 132.558594 C 290.222656 133.019531 290.464844 133.359375 290.753906 133.71875 C 292.691406 135.96875 294.582031 138.265625 296.277344 140.710938 Z M 296.277344 140.710938 " fill-opacity="1" fill-rule="nonzero"/><path fill="#fef9ea" d="M 284.820312 140.445312 C 286.589844 141.628906 288.261719 142.957031 289.761719 144.484375 C 291.410156 146.152344 293.078125 147.773438 294.339844 149.753906 C 294.679688 150.285156 295.113281 150.890625 295.890625 150.625 C 296.496094 150.40625 296.882812 149.949219 296.808594 149.222656 C 296.832031 148.882812 296.6875 148.59375 296.496094 148.328125 C 293.710938 144.3125 290.269531 140.953125 286.25 138.21875 C 285.523438 137.734375 284.628906 137.492188 283.996094 138.386719 C 283.320312 139.378906 284.117188 139.984375 284.820312 140.445312 Z M 284.820312 140.445312 " fill-opacity="1" fill-rule="nonzero"/><path fill="#fef9ea" d="M 403.738281 151.808594 C 404.734375 152.222656 405.21875 151.570312 405.628906 150.820312 C 407.277344 147.84375 409.527344 145.328125 411.878906 142.910156 C 413.839844 140.902344 415.898438 138.96875 418.417969 137.636719 C 419.09375 137.277344 419.265625 136.695312 419.070312 135.992188 C 418.902344 135.414062 418.464844 135.171875 417.859375 135.195312 C 416.964844 135.339844 416.210938 135.800781 415.484375 136.308594 C 413.015625 138.050781 410.789062 140.105469 408.777344 142.328125 C 406.765625 144.554688 404.804688 146.851562 403.304688 149.488281 C 402.769531 150.480469 402.941406 151.472656 403.738281 151.808594 Z M 403.738281 151.808594 " fill-opacity="1" fill-rule="nonzero"/><path fill="#fef9ea" d="M 411.078125 151.351562 C 410.667969 151.761719 410.519531 152.246094 410.761719 152.777344 C 411.003906 153.261719 411.441406 153.453125 411.949219 153.40625 C 412.335938 153.429688 412.675781 153.335938 412.992188 153.09375 C 415.292969 151.398438 417.8125 150.019531 420.332031 148.691406 C 421.03125 148.304688 421.589844 147.820312 421.179688 146.972656 C 420.765625 146.101562 420.039062 145.910156 419.144531 146.367188 C 417.472656 147.191406 415.847656 148.085938 414.300781 149.101562 C 413.234375 149.804688 412.023438 150.40625 411.078125 151.351562 Z M 411.078125 151.351562 " fill-opacity="1" fill-rule="nonzero"/><path fill="#fef9ea" d="M 290.441406 188.328125 C 294.316406 188.304688 297.488281 185.113281 297.488281 181.21875 C 297.488281 177.347656 294.265625 174.179688 290.390625 174.179688 C 286.515625 174.207031 283.296875 177.445312 283.34375 181.265625 C 283.367188 185.160156 286.613281 188.355469 290.441406 188.328125 Z M 290.441406 188.328125 " fill-opacity="1" fill-rule="nonzero"/><path fill="#fef9ea" d="M 405.582031 188.28125 C 409.527344 188.355469 412.675781 185.304688 412.773438 181.339844 C 412.871094 177.496094 409.699219 174.230469 405.773438 174.179688 C 401.875 174.132812 398.652344 177.300781 398.652344 181.195312 C 398.628906 185.089844 401.707031 188.234375 405.582031 188.28125 Z M 405.582031 188.28125 " fill-opacity="1" fill-rule="nonzero"/></svg>