<svg xmlns="http://www.w3.org/2000/svg" xmlns:xlink="http://www.w3.org/1999/xlink" width="940" zoomAndPan="magnify" viewBox="0 0 705 591.000005" height="788" preserveAspectRatio="xMidYMid meet" version="1.0"><path fill="#fde2c4" d="M 248.832031 286.519531 C 234.804688 272.292969 212.5625 299.144531 226.390625 313.972656 C 228.292969 315.976562 205.449219 314.675781 201.441406 331.808594 C 196.632812 352.449219 214.164062 362.566406 213.164062 362.667969 C 206.050781 363.46875 196.632812 367.578125 192.324219 375.390625 C 188.816406 381.605469 189.621094 398.636719 197.535156 403.746094 C 177.09375 402.042969 167.578125 443.722656 205.347656 448.234375 C 180.703125 481.898438 221.78125 524.582031 262.457031 486.40625 C 273.679688 549.929688 330.6875 530.089844 348.117188 502.636719 C 368.257812 518.269531 408.03125 531.59375 415.445312 498.03125 C 445 523.378906 468.644531 487.609375 464.539062 472.078125 C 477.261719 476.1875 512.628906 467.570312 488.382812 426.289062 C 492.390625 420.277344 537.375 404.246094 486.480469 370.683594 C 508.722656 349.640625 494.59375 316.980469 469.246094 316.078125 C 486.78125 290.828125 459.527344 264.578125 432.980469 285.015625 C 427.269531 263.476562 390.097656 256.664062 370.160156 288.722656 C 364.449219 297.84375 339.402344 259.265625 304.9375 293.632812 C 301.832031 283.515625 269.671875 244.136719 248.832031 286.519531 Z M 248.832031 286.519531 " fill-opacity="1" fill-rule="evenodd"/><path fill="#e7d29a" d="M 437.886719 186.726562 C 433.878906 134.726562 432.878906 99.257812 357.4375 89.640625 C 211.460938 71.003906 187.414062 219.992188 255.042969 283.414062 C 316.859375 341.425781 447.90625 317.78125 437.886719 186.726562 Z M 437.886719 186.726562 " fill-opacity="1" fill-rule="evenodd"/><path fill="#3b3a39" d="M 333.492188 281.910156 C 337.097656 281.8125 344.410156 279.707031 344.511719 276.199219 C 344.511719 276.101562 338.699219 278.003906 334.492188 278.703125 C 334.292969 275.898438 333.589844 267.082031 333.792969 265.679688 C 333.890625 264.679688 335.496094 255.257812 334.691406 255.257812 C 330.386719 255.257812 331.285156 271.890625 330.585938 277.203125 C 330.484375 277.902344 330.484375 278.304688 330.484375 278.703125 C 328.480469 278.40625 324.773438 277.601562 320.066406 276.300781 C 320.164062 280.707031 327.578125 282.011719 333.492188 281.910156 Z M 333.492188 281.910156 " fill-opacity="1" fill-rule="evenodd"/><path fill="#d79ea3" d="M 323.671875 259.46875 C 316.660156 248.648438 308.144531 234.921875 323.972656 225.402344 C 345.011719 212.878906 366.652344 236.625 338.097656 263.375 C 332.488281 268.6875 326.777344 264.277344 323.671875 259.46875 Z M 323.671875 259.46875 " fill-opacity="1" fill-rule="evenodd"/><path fill="#3b3a39" d="M 422.757812 229.910156 C 415.945312 234.820312 408.933594 224.5 413.84375 220.691406 C 422.859375 213.980469 428.269531 225.902344 422.757812 229.910156 Z M 422.757812 229.910156 " fill-opacity="1" fill-rule="evenodd"/><path fill="#3b3a39" d="M 253.140625 235.320312 C 247.527344 239.828125 241.617188 230.3125 245.726562 226.90625 C 253.140625 220.691406 257.648438 231.613281 253.140625 235.320312 Z M 253.140625 235.320312 " fill-opacity="1" fill-rule="evenodd"/><path fill="#f9d4d5" d="M 417.550781 243.4375 C 427.667969 259.167969 399.515625 269.386719 391.800781 257.863281 C 377.875 237.125 409.433594 230.8125 417.550781 243.4375 Z M 417.550781 243.4375 " fill-opacity="1" fill-rule="evenodd"/><path fill="#f9d4d5" d="M 284.097656 246.34375 C 294.214844 262.074219 266.0625 272.292969 258.347656 260.769531 C 244.421875 239.929688 275.980469 233.617188 284.097656 246.34375 Z M 284.097656 246.34375 " fill-opacity="1" fill-rule="evenodd"/><path fill="#e7d29a" d="M 228.292969 158.972656 C 225.488281 152.5625 198.835938 181.117188 195.03125 203.960938 C 191.625 224.800781 190.519531 250.449219 170.382812 262.171875 C 168.277344 274.796875 214.265625 247.945312 222.082031 220.089844 C 225.886719 206.867188 234.304688 172.898438 228.292969 158.972656 Z M 228.292969 158.972656 " fill-opacity="1" fill-rule="evenodd"/><path fill="#d79ea3" d="M 223.683594 166.988281 C 223.582031 166.789062 186.414062 210.171875 202.84375 237.226562 C 205.347656 234.320312 214.566406 223.898438 220.078125 207.46875 C 225.988281 189.53125 224.683594 169.394531 223.683594 166.988281 Z M 223.683594 166.988281 " fill-opacity="1" fill-rule="evenodd"/><path fill="#e7d29a" d="M 430.273438 146.046875 C 423.660156 143.742188 426.96875 182.71875 441.496094 200.855469 C 454.71875 217.386719 472.953125 235.320312 468.246094 258.164062 C 476.261719 268.085938 486.980469 215.984375 471.550781 191.535156 C 464.238281 179.8125 444.601562 150.859375 430.273438 146.046875 Z M 430.273438 146.046875 " fill-opacity="1" fill-rule="evenodd"/><path fill="#d79ea3" d="M 433.078125 154.765625 C 432.878906 154.664062 440.191406 211.375 471.453125 217.1875 C 471.050781 213.378906 469.449219 199.550781 460.832031 184.523438 C 451.414062 168.089844 435.582031 155.667969 433.078125 154.765625 Z M 433.078125 154.765625 " fill-opacity="1" fill-rule="evenodd"/><path fill="#fde2c4" d="M 218.773438 114.6875 C 206.050781 124.507812 207.855469 149.253906 232.097656 147.851562 C 240.214844 147.351562 239.511719 132.019531 240.015625 147.050781 C 240.214844 153.363281 250.035156 159.976562 258.449219 155.867188 C 258.25 163.683594 263.558594 171.195312 275.882812 170.496094 C 279.1875 170.296875 280.691406 167.1875 281.492188 165.484375 C 281.792969 165.6875 282.09375 165.785156 282.292969 165.886719 C 282.292969 166.789062 282.394531 167.992188 282.394531 169.792969 C 282.695312 177.308594 299.027344 185.222656 305.238281 167.289062 C 315.558594 200.253906 336.195312 183.921875 337.699219 168.691406 C 342.105469 177.308594 364.851562 174.503906 364.851562 160.476562 C 364.25 167.691406 387.992188 168.890625 387.292969 150.859375 C 395.609375 162.480469 414.144531 163.582031 414.445312 142.542969 C 414.542969 138.535156 417.550781 147.550781 423.863281 151.15625 C 441.394531 161.175781 456.222656 152.058594 446.402344 133.324219 C 465.238281 135.027344 461.53125 104.867188 441.394531 111.980469 C 440.894531 109.277344 439.792969 106.171875 437.988281 102.964844 C 465.039062 105.371094 453.515625 53.46875 416.148438 87.535156 C 423.160156 66.492188 381.582031 48.859375 371.964844 72.40625 C 335.394531 40.042969 323.171875 83.226562 322.570312 89.136719 C 314.753906 67.695312 281.292969 59.480469 277.484375 100.058594 C 265.761719 63.789062 240.015625 79.519531 238.914062 99.15625 C 232.398438 77.113281 199.636719 99.457031 218.773438 114.6875 Z M 218.773438 114.6875 " fill-opacity="1" fill-rule="evenodd"/><path fill="#f1dca8" d="M 270.671875 402.042969 C 272.777344 429.898438 291.511719 516.164062 306.539062 533.199219 C 318.964844 532.394531 326.476562 532.996094 331.285156 528.890625 C 331.285156 522.375 315.054688 406.953125 312.25 406.152344 C 307.84375 404.847656 270.671875 401.34375 270.671875 402.042969 Z M 270.671875 402.042969 " fill-opacity="1" fill-rule="evenodd"/><path fill="#ca9965" d="M 298.324219 518.167969 C 302.832031 518.269531 326.476562 516.363281 329.582031 512.957031 C 330.285156 513.058594 330.984375 524.78125 331.386719 528.085938 C 331.6875 531.496094 308.945312 535.601562 305.539062 532.695312 C 304.335938 531.695312 297.921875 518.167969 298.324219 518.167969 Z M 298.324219 518.167969 " fill-opacity="1" fill-rule="evenodd"/><path fill="#f1dca8" d="M 418.652344 396.734375 C 416.546875 424.585938 397.8125 510.855469 382.785156 527.886719 C 370.359375 527.085938 362.847656 527.6875 358.039062 523.578125 C 358.039062 517.066406 374.269531 401.644531 377.074219 400.839844 C 381.480469 399.539062 418.652344 396.03125 418.652344 396.734375 Z M 418.652344 396.734375 " fill-opacity="1" fill-rule="evenodd"/><path fill="#ca9965" d="M 391 512.859375 C 386.492188 512.957031 362.847656 511.054688 359.742188 507.648438 C 359.039062 507.75 358.335938 519.472656 357.9375 522.777344 C 357.636719 526.183594 380.378906 530.292969 383.785156 527.386719 C 384.988281 526.382812 391.398438 512.859375 391 512.859375 Z M 391 512.859375 " fill-opacity="1" fill-rule="evenodd"/><path fill="#728442" d="M 300.328125 91.140625 C 298.824219 89.136719 296.421875 87.335938 293.414062 85.832031 C 292.511719 95.148438 281.292969 100.058594 281.492188 94.648438 C 281.59375 91.84375 288.605469 86.230469 291.511719 85.128906 C 291.613281 85.03125 291.710938 85.03125 291.914062 85.03125 C 288.804688 83.628906 285.097656 82.523438 281.191406 81.625 C 282.292969 90.941406 272.375 98.355469 271.273438 93.046875 C 270.671875 90.140625 276.382812 83.027344 278.988281 81.222656 C 274.878906 80.519531 270.472656 80.121094 266.265625 80.121094 C 269.070312 88.4375 261.554688 97.054688 259.449219 92.445312 C 258.347656 90.039062 261.855469 82.625 263.960938 80.21875 C 263.757812 80.21875 263.558594 80.21875 263.359375 80.21875 C 260.152344 80.421875 257.046875 80.921875 254.140625 81.722656 C 257.949219 88.738281 252.238281 97.554688 249.832031 93.648438 C 248.628906 91.542969 250.933594 84.429688 252.4375 82.324219 C 252.539062 82.222656 252.539062 82.125 252.636719 82.125 C 249.632812 82.925781 246.726562 84.027344 244.121094 85.128906 C 247.527344 90.339844 243.722656 97.753906 241.617188 94.847656 C 240.515625 93.347656 241.71875 87.734375 242.71875 85.832031 C 238.914062 87.535156 235.804688 89.238281 233.800781 90.441406 C 233.800781 90.742188 233.703125 91.242188 233.601562 91.542969 C 232.398438 93.246094 227.691406 97.054688 225.886719 96.652344 C 222.28125 95.949219 227.289062 89.136719 233.703125 90.140625 C 234.90625 89.238281 236.105469 88.335938 237.308594 87.636719 C 234.703125 87.734375 230.296875 87.234375 229.394531 85.933594 C 227.289062 83.027344 235.40625 81.523438 239.414062 86.332031 C 242.019531 84.828125 244.625 83.628906 247.328125 82.625 C 244.722656 82.425781 240.316406 81.324219 239.511719 79.921875 C 237.808594 76.714844 246.226562 76.3125 249.53125 81.824219 C 249.53125 81.824219 249.53125 81.824219 249.53125 81.925781 C 251.738281 81.222656 254.039062 80.621094 256.246094 80.121094 C 253.742188 79.417969 250.035156 77.617188 249.53125 76.113281 C 248.429688 72.707031 256.644531 73.707031 258.949219 79.621094 C 262.558594 79.019531 266.164062 78.71875 269.671875 78.816406 C 266.164062 76.8125 261.054688 72.40625 260.953125 70 C 260.652344 64.390625 272.476562 69.398438 273.578125 79.019531 C 277.785156 79.320312 281.691406 80.019531 285 81.023438 L 285.199219 81.121094 C 281.992188 78.417969 277.386719 72.804688 277.683594 70.101562 C 278.488281 64.191406 290.007812 71.804688 289.007812 82.222656 C 289.007812 82.324219 289.007812 82.324219 288.90625 82.425781 C 292.511719 83.726562 296.019531 85.429688 299.125 87.535156 C 305.238281 91.742188 301.53125 92.84375 300.328125 91.140625 Z M 300.328125 91.140625 " fill-opacity="1" fill-rule="evenodd"/><path fill="#728442" d="M 361.945312 93.546875 C 363.449219 91.542969 365.75 89.738281 368.859375 88.234375 C 369.757812 97.554688 380.980469 102.464844 380.78125 97.054688 C 380.679688 94.246094 373.667969 88.636719 370.761719 87.535156 C 370.660156 87.535156 370.5625 87.433594 370.359375 87.433594 C 373.464844 86.03125 377.171875 84.929688 381.082031 84.027344 C 379.980469 93.347656 389.898438 100.761719 391 95.449219 C 391.601562 92.542969 385.890625 85.429688 383.285156 83.628906 C 387.390625 82.925781 391.800781 82.523438 396.007812 82.625 C 393.203125 90.941406 400.71875 99.558594 402.820312 94.949219 C 403.921875 92.542969 400.417969 85.128906 398.3125 82.726562 C 398.511719 82.726562 398.714844 82.726562 398.914062 82.726562 C 402.121094 82.925781 405.226562 83.425781 408.230469 84.226562 C 404.425781 91.242188 410.136719 100.058594 412.539062 96.152344 C 413.742188 94.148438 411.4375 87.035156 409.835938 84.828125 C 409.835938 84.730469 409.734375 84.628906 409.632812 84.628906 C 412.640625 85.429688 415.546875 86.53125 418.152344 87.636719 C 414.742188 92.84375 418.550781 100.257812 420.753906 97.355469 C 421.859375 95.851562 420.65625 90.238281 419.652344 88.335938 C 423.460938 90.039062 426.566406 91.742188 428.570312 92.945312 C 428.570312 93.246094 428.570312 93.746094 428.769531 94.046875 C 429.972656 95.75 434.582031 99.558594 436.484375 99.15625 C 440.09375 98.457031 434.980469 91.644531 428.671875 92.644531 C 427.46875 91.742188 426.265625 90.941406 425.0625 90.140625 C 427.667969 90.238281 432.078125 89.738281 432.980469 88.4375 C 435.082031 85.53125 426.96875 84.027344 422.960938 88.835938 C 420.355469 87.433594 417.75 86.132812 415.042969 85.128906 C 417.648438 84.929688 422.058594 83.828125 422.859375 82.425781 C 424.5625 79.21875 416.148438 78.816406 412.839844 84.328125 C 412.839844 84.328125 412.839844 84.328125 412.839844 84.429688 C 410.636719 83.726562 408.332031 83.125 406.128906 82.625 C 408.632812 81.925781 412.339844 80.121094 412.839844 78.617188 C 413.941406 75.210938 405.726562 76.214844 403.421875 82.125 C 399.816406 81.523438 396.210938 81.324219 392.703125 81.324219 C 396.210938 79.320312 401.320312 74.910156 401.417969 72.503906 C 401.71875 66.894531 389.898438 71.90625 388.796875 81.523438 C 384.585938 81.824219 380.679688 82.523438 377.375 83.527344 L 377.171875 83.628906 C 380.378906 80.921875 384.988281 75.3125 384.6875 72.605469 C 383.886719 66.695312 372.363281 74.308594 373.367188 84.730469 C 373.367188 84.828125 373.367188 84.828125 373.464844 84.929688 C 369.859375 86.230469 366.351562 87.9375 363.246094 90.140625 C 357.035156 94.148438 360.640625 95.148438 361.945312 93.546875 Z M 361.945312 93.546875 " fill-opacity="1" fill-rule="evenodd"/><path fill="#fbbf26" d="M 281.390625 75.511719 C 270.671875 71.304688 271.773438 40.542969 293.617188 53.769531 C 299.726562 59.980469 298.125 63.6875 298.925781 62.1875 C 302.933594 54.671875 308.542969 47.558594 316.757812 47.957031 C 324.375 48.257812 336.796875 60.484375 325.675781 74.210938 C 322.46875 78.117188 332.589844 72.503906 339.402344 82.425781 C 352.226562 101.160156 326.378906 96.953125 327.378906 99.558594 C 330.386719 107.074219 331.488281 113.285156 327.578125 116.691406 C 324.375 119.496094 309.445312 116.589844 307.140625 112.683594 C 302.734375 123.105469 273.277344 128.714844 280.792969 98.957031 C 270.671875 99.457031 263.15625 90.441406 266.863281 84.128906 C 270.371094 78.015625 280.589844 75.710938 281.390625 75.511719 Z M 281.390625 75.511719 " fill-opacity="1" fill-rule="evenodd"/><path fill="#ee7a10" d="M 291.011719 78.71875 C 286.503906 80.320312 292.8125 87.9375 295.21875 83.828125 C 297.023438 80.820312 292.714844 78.117188 291.011719 78.71875 Z M 291.011719 78.71875 " fill-opacity="1" fill-rule="evenodd"/><path fill="#ee7a10" d="M 302.734375 77.113281 C 296.21875 83.929688 309.546875 88.636719 308.242188 79.417969 C 308.042969 78.015625 303.433594 76.511719 302.734375 77.113281 Z M 302.734375 77.113281 " fill-opacity="1" fill-rule="evenodd"/><path fill="#ee7a10" d="M 297.722656 87.234375 C 294.816406 84.226562 300.730469 82.125 300.128906 86.230469 C 300.027344 86.832031 298.023438 87.535156 297.722656 87.234375 Z M 297.722656 87.234375 " fill-opacity="1" fill-rule="evenodd"/><path fill="#ee7a10" d="M 305.238281 88.835938 C 302.632812 92.84375 312.25 95.050781 311.648438 90.339844 C 311.148438 86.832031 306.140625 87.335938 305.238281 88.835938 Z M 305.238281 88.835938 " fill-opacity="1" fill-rule="evenodd"/><path fill="#ee7a10" d="M 313.554688 80.421875 C 312.550781 89.839844 325.976562 85.332031 319.363281 78.917969 C 318.160156 77.816406 313.652344 79.519531 313.554688 80.421875 Z M 313.554688 80.421875 " fill-opacity="1" fill-rule="evenodd"/><path fill="#ee7a10" d="M 315.757812 91.441406 C 311.550781 90.839844 315.054688 85.53125 317.058594 89.136719 C 317.359375 89.738281 316.15625 91.542969 315.757812 91.441406 Z M 315.757812 91.441406 " fill-opacity="1" fill-rule="evenodd"/><path fill="#ee7a10" d="M 312.75 98.253906 C 309.847656 95.25 315.757812 93.144531 315.15625 97.253906 C 315.15625 97.855469 313.050781 98.554688 312.75 98.253906 Z M 312.75 98.253906 " fill-opacity="1" fill-rule="evenodd"/><path fill="#ee7a10" d="M 307.640625 71.003906 C 306.640625 80.421875 320.066406 75.914062 313.351562 69.5 C 312.25 68.496094 307.742188 70.101562 307.640625 71.003906 Z M 307.640625 71.003906 " fill-opacity="1" fill-rule="evenodd"/><path fill="#ee7a10" d="M 302.433594 96.152344 C 299.527344 93.144531 305.4375 91.042969 304.835938 95.148438 C 304.738281 95.851562 302.734375 96.453125 302.433594 96.152344 Z M 302.433594 96.152344 " fill-opacity="1" fill-rule="evenodd"/><path fill="#ee7a10" d="M 295.21875 93.445312 C 292.3125 90.441406 298.222656 88.335938 297.625 92.445312 C 297.523438 93.144531 295.519531 93.746094 295.21875 93.445312 Z M 295.21875 93.445312 " fill-opacity="1" fill-rule="evenodd"/><path fill="#ee7a10" d="M 297.023438 79.417969 C 294.117188 76.414062 300.027344 74.308594 299.425781 78.417969 C 299.328125 79.019531 297.324219 79.71875 297.023438 79.417969 Z M 297.023438 79.417969 " fill-opacity="1" fill-rule="evenodd"/><path fill="#ee7a10" d="M 298.222656 72.40625 C 295.320312 69.398438 301.230469 67.296875 300.628906 71.402344 C 300.527344 72.003906 298.425781 72.707031 298.222656 72.40625 Z M 298.222656 72.40625 " fill-opacity="1" fill-rule="evenodd"/><path fill="#52bbc9" d="M 267.667969 98.757812 C 267.066406 109.578125 278.386719 120.398438 280.792969 117.292969 C 282.796875 114.6875 277.984375 107.472656 274.179688 99.359375 C 271.875 94.449219 272.875 97.753906 276.082031 100.160156 C 282.496094 105.269531 296.621094 108.074219 286.703125 100.257812 C 283.496094 97.753906 277.886719 95.652344 275.882812 94.246094 C 309.445312 99.359375 283.296875 90.539062 278.285156 89.339844 C 281.492188 87.132812 288.304688 76.011719 286.800781 73.207031 C 285 69.800781 278.085938 74.210938 272.476562 86.132812 C 274.679688 62.386719 268.367188 57.074219 266.164062 81.824219 C 255.34375 62.285156 252.4375 74.410156 256.042969 79.019531 C 256.847656 80.019531 261.855469 85.429688 261.855469 85.53125 C 253.441406 84.429688 245.425781 85.933594 245.523438 87.035156 C 245.824219 89.136719 261.65625 92.144531 261.453125 92.34375 C 253.640625 97.453125 253.339844 108.476562 254.84375 108.476562 C 260.351562 108.375 267.367188 103.667969 267.667969 98.757812 Z M 267.667969 98.757812 " fill-opacity="1" fill-rule="evenodd"/><path fill="#fbbf26" d="M 273.578125 87.734375 C 273.679688 87.734375 279.089844 94.046875 271.875 94.246094 C 267.566406 94.347656 263.859375 85.128906 273.578125 87.734375 Z M 273.578125 87.734375 " fill-opacity="1" fill-rule="evenodd"/><path fill="#e95707" d="M 336.195312 93.445312 C 327.78125 96.753906 328.683594 120.898438 345.8125 110.578125 C 350.625 105.769531 349.320312 102.765625 349.921875 103.964844 C 353.128906 109.878906 357.4375 115.390625 363.949219 115.1875 C 369.960938 114.988281 379.679688 105.371094 370.960938 94.648438 C 368.457031 91.542969 376.371094 95.949219 381.78125 88.234375 C 391.800781 73.507812 371.5625 76.8125 372.363281 74.808594 C 374.667969 68.898438 375.671875 63.890625 372.566406 61.382812 C 364.347656 54.769531 358.335938 66.09375 356.535156 69.097656 C 354.53125 57.878906 329.882812 51.867188 335.695312 75.210938 C 327.78125 74.808594 321.867188 81.824219 324.773438 86.832031 C 327.578125 91.441406 335.496094 93.246094 336.195312 93.445312 Z M 336.195312 93.445312 " fill-opacity="1" fill-rule="evenodd"/><path fill="#fbbf26" d="M 356.632812 77.917969 C 356.933594 77.917969 367.65625 85.128906 357.136719 94.046875 C 346.816406 102.863281 337.699219 74.710938 356.632812 77.917969 Z M 356.632812 77.917969 " fill-opacity="1" fill-rule="evenodd"/><path fill="#52bbc9" d="M 375.972656 88.738281 C 370.960938 82.023438 373.566406 70.203125 376.472656 71.203125 C 378.875 72.003906 378.875 78.71875 379.878906 85.632812 C 380.480469 89.839844 379.777344 87.234375 380.679688 84.328125 C 382.683594 78.316406 390.5 70.402344 387.492188 79.71875 C 386.492188 82.726562 383.785156 86.53125 383.085938 88.234375 C 402.519531 70.5 389.496094 87.433594 386.792969 90.339844 C 389.796875 90.441406 399.015625 94.648438 399.214844 97.152344 C 399.515625 100.160156 393.101562 100.257812 384.386719 94.949219 C 396.007812 109.378906 394.207031 115.488281 382.082031 100.460938 C 383.484375 117.691406 376.472656 111.179688 376.773438 106.570312 C 376.871094 105.570312 377.773438 99.957031 377.773438 99.859375 C 372.765625 104.167969 366.953125 106.671875 366.554688 105.871094 C 365.851562 104.46875 374.769531 95.652344 374.570312 95.652344 C 367.355469 95.652344 362.34375 88.738281 363.347656 88.136719 C 367.15625 85.632812 373.667969 85.632812 375.972656 88.738281 Z M 375.972656 88.738281 " fill-opacity="1" fill-rule="evenodd"/><path fill="#fbbf26" d="M 384.488281 93.246094 C 384.585938 93.144531 385.289062 86.832031 380.578125 89.839844 C 377.773438 91.542969 379.378906 99.15625 384.488281 93.246094 Z M 384.488281 93.246094 " fill-opacity="1" fill-rule="evenodd"/></svg>