<svg xmlns="http://www.w3.org/2000/svg" xmlns:xlink="http://www.w3.org/1999/xlink" width="940" zoomAndPan="magnify" viewBox="0 0 705 591.000005" height="788" preserveAspectRatio="xMidYMid meet" version="1.0"><path fill="#ca9862" d="M 424.890625 374.457031 C 433.503906 395.636719 429.730469 502.878906 438.148438 501.136719 C 440.472656 500.652344 447.730469 503.265625 449.566406 500.171875 C 455.375 490.402344 453.339844 465.164062 454.019531 457.136719 C 454.988281 444.761719 461.179688 370.492188 448.019531 370.492188 C 438.4375 370.394531 433.792969 372.039062 424.890625 374.457031 Z M 424.890625 374.457031 " fill-opacity="1" fill-rule="evenodd"/><path fill="#bc8039" d="M 293.375 316.921875 C 285.921875 330.941406 267.246094 368.65625 251.957031 416.136719 C 260.570312 451.046875 274.890625 481.988281 282.921875 492.046875 C 286.890625 492.917969 298.019531 487.597656 299.085938 485.085938 C 301.40625 479.765625 282.050781 440.3125 277.792969 416.425781 C 289.988281 407.335938 307.699219 389.542969 311.859375 384.417969 C 318.921875 382.96875 313.117188 513.613281 327.730469 532.855469 C 330.921875 535.757812 342.246094 532.082031 342.730469 528.695312 C 341.859375 514.386719 340.988281 403.757812 352.40625 405.691406 C 389.472656 411.976562 429.824219 408.109375 456.148438 397.183594 C 460.308594 395.441406 464.277344 506.164062 471.632812 506.164062 C 486.4375 506.164062 482.082031 514.289062 490.601562 481.214844 C 496.40625 458.78125 502.988281 318.46875 492.148438 297.097656 L 492.050781 296.902344 C 495.246094 291.292969 498.535156 280.171875 498.824219 278.144531 C 503.566406 250.582031 463.988281 236.851562 467.859375 239.847656 C 482.953125 251.550781 498.535156 272.921875 487.695312 291.777344 C 465.050781 277.851562 420.4375 273.886719 395.472656 288.199219 C 354.824219 311.40625 306.246094 292.648438 293.375 316.921875 Z M 293.375 316.921875 " fill-opacity="1" fill-rule="evenodd"/><path fill="#8e6334" d="M 293.761719 266.054688 C 281.859375 254.933594 262.890625 275.917969 274.601562 287.523438 C 276.246094 289.167969 256.792969 288.007812 253.40625 301.449219 C 249.34375 317.597656 264.246094 325.527344 263.375 325.625 C 257.375 326.203125 249.34375 329.492188 245.664062 335.582031 C 242.664062 340.417969 243.34375 353.761719 250.117188 357.726562 C 232.699219 356.375 224.664062 388.964844 256.792969 392.539062 C 235.792969 418.84375 270.730469 452.207031 305.375 422.421875 C 314.957031 472.125 363.34375 456.558594 378.246094 435.089844 C 395.375 447.371094 429.148438 457.71875 435.535156 431.511719 C 460.695312 451.335938 480.730469 423.292969 477.246094 411.203125 C 488.082031 414.394531 518.082031 407.625 497.46875 375.425781 C 500.859375 370.6875 539.082031 358.210938 495.824219 331.910156 C 514.695312 315.46875 502.695312 289.84375 481.117188 289.167969 C 496.019531 269.34375 472.792969 248.84375 450.246094 264.894531 C 445.40625 247.972656 413.761719 242.75 396.824219 267.796875 C 391.988281 274.953125 370.695312 244.683594 341.375 271.664062 C 338.859375 263.734375 311.472656 232.886719 293.761719 266.054688 Z M 293.761719 266.054688 " fill-opacity="1" fill-rule="evenodd"/><path fill="#694926" d="M 398.375 163.9375 C 413.664062 149.625 415.601562 100.695312 403.695312 84.546875 C 386.566406 61.335938 368.277344 54.277344 377.375 64.046875 C 391.214844 78.839844 390.632812 123.808594 382.019531 140.828125 C 375.4375 153.785156 396.246094 165.96875 398.375 163.9375 Z M 398.375 163.9375 " fill-opacity="1" fill-rule="evenodd"/><path fill="#694926" d="M 265.601562 174.089844 C 250.3125 159.78125 248.375 110.847656 260.277344 94.699219 C 277.40625 71.492188 295.699219 64.433594 286.601562 74.199219 C 272.761719 88.992188 273.441406 133.960938 281.957031 150.980469 C 288.535156 163.839844 267.828125 176.121094 265.601562 174.089844 Z M 265.601562 174.089844 " fill-opacity="1" fill-rule="evenodd"/><path fill="#ca9862" d="M 265.699219 298.257812 C 280.40625 313.535156 303.632812 323.207031 325.699219 324.945312 C 357.246094 327.460938 384.050781 314.890625 402.921875 293.808594 C 413.082031 282.496094 422.375 263.636719 421.988281 243.8125 C 421.503906 220.992188 411.246094 191.109375 405.535156 178.152344 C 453.632812 264.507812 450.730469 137.925781 393.050781 167.417969 C 381.246094 167.417969 383.859375 153.105469 344.375 153.105469 C 324.535156 153.105469 269.472656 154.945312 253.503906 163.9375 C 166.214844 214.609375 236.179688 248.746094 255.632812 174.476562 C 234.730469 232.015625 246.441406 278.238281 265.699219 298.257812 Z M 265.699219 298.257812 " fill-opacity="1" fill-rule="evenodd"/><path fill="#31302f" d="M 261.632812 252.226562 C 267.246094 256.289062 273.148438 247.683594 268.988281 244.585938 C 261.535156 238.976562 257.085938 248.9375 261.632812 252.226562 Z M 261.632812 252.226562 " fill-opacity="1" fill-rule="evenodd"/><path fill="#31302f" d="M 401.953125 256.386719 C 406.601562 260.15625 411.4375 252.226562 408.050781 249.421875 C 401.953125 244.296875 398.179688 253.386719 401.953125 256.386719 Z M 401.953125 256.386719 " fill-opacity="1" fill-rule="evenodd"/><path fill="#f4afb3" d="M 373.019531 263.832031 C 364.695312 276.789062 387.921875 285.203125 394.308594 275.726562 C 405.921875 258.511719 379.792969 253.386719 373.019531 263.832031 Z M 373.019531 263.832031 " fill-opacity="1" fill-rule="evenodd"/><path fill="#8e6334" d="M 235.699219 165.386719 C 225.730469 173.125 227.085938 192.464844 246.050781 191.402344 C 252.441406 191.015625 251.859375 179.023438 252.246094 190.722656 C 252.441406 195.65625 260.085938 200.78125 266.664062 197.589844 C 266.472656 203.683594 270.632812 209.582031 280.308594 209 C 282.828125 208.902344 284.085938 206.390625 284.664062 205.132812 C 284.859375 205.230469 285.148438 205.328125 285.34375 205.519531 C 285.34375 206.195312 285.4375 207.164062 285.4375 208.515625 C 285.632812 214.417969 298.503906 220.507812 303.34375 206.488281 C 311.375 232.304688 327.535156 219.542969 328.695312 207.550781 C 332.179688 214.320312 349.988281 212.09375 349.988281 201.167969 C 349.503906 206.777344 368.085938 207.742188 367.601562 193.625 C 374.085938 202.714844 388.601562 203.585938 388.890625 187.050781 C 388.890625 183.957031 391.308594 191.015625 396.246094 193.820312 C 409.988281 201.652344 421.601562 194.496094 413.859375 179.796875 C 428.664062 181.152344 425.664062 157.554688 409.890625 163.164062 C 409.40625 161.035156 408.632812 158.621094 407.277344 156.105469 C 428.472656 158.039062 419.472656 117.425781 390.148438 144.015625 C 395.664062 127.578125 363.050781 113.75 355.601562 132.121094 C 326.957031 106.789062 317.375 140.632812 316.890625 145.273438 C 310.792969 128.449219 284.570312 122.066406 281.570312 153.785156 C 272.375 125.355469 252.246094 137.730469 251.375 153.105469 C 246.441406 135.992188 220.699219 153.398438 235.699219 165.386719 Z M 235.699219 165.386719 " fill-opacity="1" fill-rule="evenodd"/><path fill="#fde3c4" d="M 300.921875 272.148438 C 276.730469 309.765625 344.179688 334.230469 362.664062 306.667969 C 396.148438 256.867188 320.472656 241.78125 300.921875 272.148438 Z M 300.921875 272.148438 " fill-opacity="1" fill-rule="evenodd"/><path fill="#31302f" d="M 332.085938 289.167969 C 331.695312 291.777344 332.375 290.714844 334.890625 290.90625 C 334.988281 290.90625 334.214844 282.109375 334.40625 280.945312 C 334.503906 280.269531 335.566406 273.40625 335.085938 273.40625 C 331.890625 273.40625 332.664062 285.394531 332.085938 289.167969 Z M 332.085938 289.167969 " fill-opacity="1" fill-rule="evenodd"/><path fill="#31302f" d="M 334.117188 292.453125 C 336.730469 292.453125 341.957031 290.90625 342.050781 288.394531 C 342.050781 288.296875 336.148438 290.328125 333.34375 290.425781 C 333.148438 290.425781 329.664062 289.941406 324.632812 288.488281 C 324.535156 291.679688 329.859375 292.550781 334.117188 292.453125 Z M 334.117188 292.453125 " fill-opacity="1" fill-rule="evenodd"/><path fill="#f4afb3" d="M 267.050781 261.21875 C 258.730469 274.179688 281.957031 282.589844 288.34375 273.113281 C 299.859375 255.902344 273.828125 250.777344 267.050781 261.21875 Z M 267.050781 261.21875 " fill-opacity="1" fill-rule="evenodd"/><path fill="#31302f" d="M 336.34375 260.738281 C 343.601562 261.605469 350.375 269.054688 334.988281 276.59375 C 330.246094 278.917969 315.632812 258.320312 336.34375 260.738281 Z M 336.34375 260.738281 " fill-opacity="1" fill-rule="evenodd"/><path fill="#694926" d="M 499.792969 184.730469 C 495.339844 182.601562 492.632812 186.855469 493.601562 189.855469 C 494.375 192.175781 498.148438 193.527344 500.179688 191.402344 C 501.730469 189.855469 501.730469 185.695312 499.792969 184.730469 Z M 499.792969 184.730469 " fill-opacity="1" fill-rule="evenodd"/><path fill="#4cbac9" d="M 487.019531 200.878906 C 488.375 199.136719 475.503906 178.152344 470.277344 176.703125 C 458.859375 173.414062 478.503906 199.039062 481.988281 200.492188 C 483.4375 200.976562 485.859375 202.425781 487.019531 200.878906 Z M 487.019531 200.878906 " fill-opacity="1" fill-rule="evenodd"/><path fill="#4cbac9" d="M 485.953125 202.523438 C 486.535156 200.007812 462.339844 184.730469 456.148438 185.792969 C 442.503906 188.210938 476.082031 204.941406 480.4375 204.648438 C 482.179688 204.457031 485.46875 204.746094 485.953125 202.523438 Z M 485.953125 202.523438 " fill-opacity="1" fill-rule="evenodd"/><path fill="#4cbac9" d="M 488.375 202.523438 C 489.246094 200.394531 513.824219 201.363281 517.695312 205.132812 C 526.210938 213.449219 494.179688 209 491.277344 206.679688 C 490.117188 205.714844 487.601562 204.359375 488.375 202.523438 Z M 488.375 202.523438 " fill-opacity="1" fill-rule="evenodd"/><path fill="#4cbac9" d="M 487.503906 204.261719 C 489.4375 202.523438 514.695312 215.964844 516.824219 221.863281 C 521.46875 234.917969 490.308594 213.933594 488.46875 210.066406 C 487.601562 208.515625 485.859375 205.808594 487.503906 204.261719 Z M 487.503906 204.261719 " fill-opacity="1" fill-rule="evenodd"/><path fill="#694926" d="M 495.4375 192.464844 C 496.308594 193.527344 496.890625 193.820312 494.375 197.6875 C 490.695312 203.390625 482.082031 217.703125 476.082031 221.476562 C 466.503906 227.472656 490.792969 186.953125 495.4375 192.464844 Z M 495.4375 192.464844 " fill-opacity="1" fill-rule="evenodd"/></svg>