<svg xmlns="http://www.w3.org/2000/svg" xmlns:xlink="http://www.w3.org/1999/xlink" width="940" zoomAndPan="magnify" viewBox="0 0 705 591.000005" height="788" preserveAspectRatio="xMidYMid meet" version="1.0"><defs><clipPath id="73129cc2f2"><path d="M 200 94.222656 L 513.050781 94.222656 L 513.050781 489.90625 L 200 489.90625 Z M 200 94.222656 " clip-rule="nonzero"/></clipPath><clipPath id="9b167a69bb"><path d="M 209.691406 213 L 465 213 L 465 530.648438 L 209.691406 530.648438 Z M 209.691406 213 " clip-rule="nonzero"/></clipPath></defs><g clip-path="url(#73129cc2f2)"><path fill="#736778" d="M 512.605469 231.472656 C 510.492188 251.171875 501.785156 269.566406 491.726562 286.652344 C 498.496094 297.058594 501.207031 309.140625 500.90625 321.472656 C 510.117188 365.125 508.007812 410.347656 501.144531 454.902344 C 491.792969 455.851562 469.976562 459.417969 450.882812 457.898438 C 450.835938 457.574219 450.796875 457.25 450.75 456.921875 C 448.5 442.105469 443.949219 427.671875 442.414062 412.765625 C 442.40625 412.652344 442.398438 412.535156 442.390625 412.421875 C 436.453125 416.207031 430.25 419.589844 423.84375 422.554688 C 424.359375 432.429688 424.542969 442.328125 424.40625 452.21875 C 410.191406 451.015625 393.914062 459.359375 382.976562 466.382812 C 381.339844 460.273438 378.8125 454.144531 377.703125 447.945312 C 377.003906 444.035156 376.921875 440.027344 377.386719 436.085938 C 364.65625 437.863281 351.75 438.273438 338.886719 437.476562 C 337.625 453.757812 335.890625 470.003906 333.6875 486.183594 C 322.621094 489.75 309.640625 489.808594 296.433594 487.878906 C 296.554688 484.265625 296.269531 480.597656 295.972656 476.996094 C 294.664062 461.136719 293.359375 445.273438 292.054688 429.414062 C 287.273438 428.074219 282.539062 426.589844 277.863281 424.964844 C 277.324219 424.777344 276.78125 424.582031 276.242188 424.390625 C 272.300781 442.914062 268.363281 461.441406 264.421875 479.972656 C 248.511719 474.648438 234.492188 468.117188 225.890625 463.554688 C 227.410156 430.644531 228.367188 397.707031 228.765625 364.761719 L 230.511719 365.339844 C 230.214844 359.449219 230.292969 353.507812 230.472656 347.714844 C 230.828125 336.476562 231.574219 324.777344 233.824219 313.644531 C 228.238281 307.964844 225.238281 303.847656 225.238281 303.847656 C 180.359375 268.316406 210.847656 177.804688 210.847656 177.804688 C 215.078125 6.085938 261.652344 155.8125 261.652344 155.8125 C 312.460938 128.742188 346.335938 156.65625 346.335938 156.65625 C 386.980469 7.773438 393.757812 171.882812 393.757812 171.882812 C 409.867188 208.972656 410.324219 239.542969 405.332031 262.644531 C 419.027344 263.804688 432.851562 263.425781 446.457031 261.4375 C 456.402344 259.984375 466.683594 257.472656 474.222656 250.828125 C 479.628906 246.066406 483.175781 239.554688 485.996094 232.929688 C 493.457031 215.375 496.519531 195.96875 494.820312 176.972656 C 509.359375 190.453125 514.722656 211.769531 512.605469 231.472656 " fill-opacity="1" fill-rule="nonzero"/></g><path fill="#d7d6d4" d="M 401.519531 204.234375 C 404.140625 203.847656 406.757812 203.464844 409.378906 203.082031 C 410.402344 202.933594 411.570312 202.691406 412.082031 201.789062 C 412.699219 200.695312 411.984375 199.351562 411.226562 198.355469 C 406.304688 191.894531 398.523438 187.722656 390.4375 187.070312 C 392.574219 186.277344 394.199219 183.316406 393.417969 180.910156 C 392.359375 177.644531 388.910156 175.828125 385.660156 174.71875 C 376.789062 171.6875 366.660156 171.527344 358.308594 175.773438 C 346.753906 181.652344 340.730469 194.40625 335.519531 206.265625 L 339.867188 204.878906 C 341.527344 209.515625 347.976562 209.566406 352.859375 208.914062 C 363.304688 207.515625 374.589844 207.023438 383.664062 212.363281 C 388.648438 215.292969 392.671875 219.839844 398.054688 221.945312 C 403.4375 224.046875 411.191406 222.105469 412.109375 216.40625 C 413.035156 210.675781 406.804688 206.636719 401.519531 204.234375 Z M 253.613281 179.582031 C 245.261719 175.332031 235.132812 175.492188 226.261719 178.523438 C 223.011719 179.632812 219.5625 181.449219 218.503906 184.71875 C 217.722656 187.125 219.347656 190.082031 221.484375 190.875 C 213.398438 191.527344 205.617188 195.699219 200.695312 202.160156 C 199.9375 203.15625 199.222656 204.507812 199.839844 205.59375 C 200.351562 206.496094 201.519531 206.742188 202.542969 206.894531 C 205.164062 207.277344 207.78125 207.660156 210.402344 208.042969 C 205.117188 210.445312 198.882812 214.484375 199.8125 220.210938 C 200.730469 225.914062 208.484375 227.855469 213.867188 225.75 C 219.25 223.648438 223.277344 219.097656 228.257812 216.167969 C 237.332031 210.828125 248.621094 211.324219 259.0625 212.71875 C 263.945312 213.371094 270.394531 213.324219 272.054688 208.683594 L 276.402344 210.070312 C 271.191406 198.210938 265.167969 185.460938 253.613281 179.582031 Z M 412.089844 293.324219 C 402.121094 273.949219 385.925781 257.285156 365.601562 249.382812 C 345.28125 241.476562 320.804688 243.242188 303.3125 256.257812 L 300.335938 256.441406 C 280.902344 245.207031 255.421875 245.269531 236.042969 256.605469 C 216.664062 267.9375 204.140625 290.105469 204.441406 312.535156 C 204.496094 316.738281 205.164062 321.339844 208.285156 324.15625 C 214.539062 329.804688 224.261719 324.191406 230.625 318.664062 C 228.789062 322.941406 226.917969 327.410156 227.15625 332.058594 C 227.390625 336.710938 230.429688 341.574219 235.035156 342.277344 C 240.441406 343.101562 244.492188 338.421875 247.265625 333.351562 C 245.457031 339.023438 247.566406 346.039062 253.011719 348.488281 C 258.652344 351.019531 266.027344 346.433594 266.757812 340.710938 C 267.425781 346.980469 269.582031 353.09375 273.03125 358.375 C 274.261719 360.269531 275.722656 362.105469 277.71875 363.164062 C 282.570312 365.722656 288.859375 362.53125 291.589844 357.78125 C 293.617188 354.261719 294.203125 350.191406 294.394531 346.089844 C 294.433594 351.917969 295.332031 357.789062 298.757812 362.398438 C 303.03125 368.148438 312.554688 370.390625 317.355469 365.078125 C 321.277344 360.746094 320.445312 353.726562 323.847656 348.976562 C 321.59375 354.347656 325.785156 361.023438 331.480469 362.261719 C 337.183594 363.507812 343.246094 360.046875 346.078125 354.957031 C 348.210938 351.125 348.726562 346.609375 348.113281 342.238281 C 348.886719 345.085938 349.988281 347.820312 351.882812 350.058594 C 354.707031 353.394531 359.769531 355.234375 363.605469 353.136719 C 365.855469 351.90625 367.292969 349.589844 368.339844 347.246094 C 371.097656 341.046875 371.765625 333.941406 370.195312 327.339844 C 371.710938 333.449219 375.890625 338.839844 381.425781 341.839844 C 382.597656 342.472656 383.910156 343.019531 385.234375 342.847656 C 388.230469 342.464844 389.550781 338.910156 389.976562 335.921875 C 390.75 330.5625 390.652344 325.074219 389.703125 319.746094 C 393.574219 323.234375 397.90625 326.921875 403.121094 327.113281 C 410.203125 327.375 416.042969 320.628906 417.035156 313.621094 C 418.027344 306.617188 415.328125 299.617188 412.089844 293.324219 Z M 219.980469 492.265625 C 215.796875 498.4375 208.980469 502.179688 203.164062 506.84375 C 197.347656 511.507812 192.058594 518.285156 193.082031 525.667969 C 208.132812 527.246094 223.335938 527.378906 238.40625 526.054688 C 243.996094 525.5625 250.109375 524.597656 253.8125 520.386719 C 256.40625 517.425781 257.3125 513.398438 258.132812 509.546875 C 260.230469 499.6875 262.324219 489.828125 264.421875 479.972656 C 248.511719 474.648438 234.492188 468.117188 225.890625 463.554688 C 225.828125 465.054688 225.761719 466.546875 225.691406 468.050781 C 225.289062 476.445312 224.703125 485.3125 219.980469 492.265625 Z M 383.777344 482.0625 C 382.609375 486.546875 379.957031 490.5 378.429688 494.875 C 376.898438 499.25 376.742188 504.664062 379.996094 507.964844 C 383.972656 511.992188 390.683594 510.859375 396.019531 508.96875 C 402.769531 506.578125 409.25 503.429688 415.300781 499.597656 C 417.179688 498.410156 419.0625 497.113281 420.324219 495.285156 C 422.03125 492.792969 422.382812 489.652344 422.652344 486.640625 C 423.683594 475.195312 424.257812 463.710938 424.40625 452.21875 C 410.191406 451.015625 393.914062 459.359375 382.976562 466.382812 C 384.386719 471.617188 385.136719 476.835938 383.777344 482.0625 Z M 450.882812 457.898438 C 452.976562 472.4375 452.558594 487.964844 445.265625 500.683594 C 442.773438 505.03125 439.414062 510.105469 441.644531 514.59375 C 444.210938 519.769531 451.648438 519.304688 457.296875 518.054688 C 465.226562 516.292969 473.160156 514.535156 481.089844 512.773438 C 484.109375 512.105469 487.332031 511.324219 489.414062 509.039062 C 491.191406 507.089844 491.820312 504.375 492.378906 501.792969 C 495.703125 486.316406 498.71875 470.648438 501.144531 454.902344 C 491.792969 455.851562 469.976562 459.417969 450.882812 457.898438 Z M 294.738281 497.636719 C 295.863281 494.496094 296.320312 491.210938 296.433594 487.878906 C 309.640625 489.808594 322.621094 489.75 333.6875 486.183594 C 332.453125 495.261719 331.082031 504.324219 329.554688 513.351562 C 328.839844 517.558594 327.84375 522.191406 324.378906 524.6875 C 322.046875 526.363281 319.042969 526.71875 316.179688 526.9375 C 305.238281 527.769531 294.203125 527.371094 283.351562 525.757812 C 281.601562 515.589844 291.265625 507.34375 294.738281 497.636719 " fill-opacity="1" fill-rule="nonzero"/><path fill="#f3a2d5" d="M 353.53125 160.460938 C 364.113281 156.65625 382.746094 168.078125 382.746094 168.078125 C 379.359375 58.953125 353.53125 160.460938 353.53125 160.460938 Z M 248.105469 158.773438 C 248.105469 158.773438 224.816406 163.421875 218.042969 173.152344 C 218.042969 173.152344 223.546875 60.222656 248.105469 158.773438 " fill-opacity="1" fill-rule="nonzero"/><g clip-path="url(#9b167a69bb)"><path fill="#1b1b17" d="M 462.667969 502.152344 C 462.542969 502.164062 462.5 502.007812 462.507812 501.910156 C 462.507812 501.820312 462.585938 501.675781 462.703125 501.785156 C 462.753906 501.832031 462.785156 501.902344 462.789062 501.96875 C 462.773438 502.003906 462.773438 502.082031 462.757812 502.199219 C 462.703125 502.625 462.308594 503.617188 462.109375 504.628906 C 461.875 505.652344 461.710938 506.792969 461.632812 507.996094 C 461.472656 510.414062 461.746094 512.609375 462.128906 514.140625 C 462.523438 515.675781 463.003906 516.558594 463.296875 516.496094 C 463.910156 516.359375 463.539062 512.644531 463.84375 508.136719 C 463.917969 507.015625 464.011719 505.9375 464.121094 504.964844 C 464.179688 504.476562 464.230469 504.011719 464.28125 503.574219 C 464.296875 503.464844 464.304688 503.355469 464.316406 503.246094 C 464.335938 503.121094 464.347656 502.996094 464.355469 502.867188 C 464.371094 502.613281 464.367188 502.355469 464.320312 502.085938 C 464.273438 501.824219 464.191406 501.535156 464.011719 501.269531 C 463.847656 501.03125 463.628906 500.875 463.398438 500.789062 C 463.167969 500.691406 462.945312 500.734375 462.851562 500.824219 C 462.753906 500.910156 462.71875 501.019531 462.722656 501.132812 C 462.738281 501.246094 462.835938 501.367188 462.996094 501.605469 C 462.804688 502.125 462.960938 502.113281 462.953125 502.132812 C 462.992188 502.097656 462.949219 502.042969 462.878906 502.074219 C 462.847656 502.074219 462.777344 502.132812 462.667969 502.152344 Z M 452.917969 501.484375 C 451.882812 503.132812 450.808594 505.675781 450.34375 508.652344 C 449.882812 511.625 450.128906 514.375 450.617188 516.261719 C 451.101562 518.164062 451.738281 519.214844 452.011719 519.136719 C 452.640625 518.953125 451.636719 514.441406 452.53125 508.992188 C 453.332031 503.527344 455.664062 499.535156 455.125 499.171875 C 454.886719 499.011719 453.960938 499.820312 452.917969 501.484375 Z M 400.800781 491.160156 C 400.441406 492.78125 400.277344 495.101562 400.609375 497.625 C 400.949219 500.152344 401.714844 502.351562 402.480469 503.824219 C 403.25 505.296875 403.960938 506.074219 404.226562 505.941406 C 404.796875 505.652344 403.398438 502.003906 402.804688 497.335938 C 402.160156 492.675781 402.5625 488.792969 401.933594 488.664062 C 401.644531 488.605469 401.15625 489.53125 400.800781 491.160156 Z M 391.574219 491.550781 L 390.917969 491.277344 C 390.480469 491.765625 389.78125 492.832031 389.238281 494.386719 C 388.671875 495.9375 388.269531 497.972656 388.246094 500.183594 C 388.242188 501.570312 388.390625 502.890625 388.636719 504.066406 C 388.902344 505.234375 389.21875 506.269531 389.597656 507.089844 C 390.335938 508.746094 391.089844 509.597656 391.351562 509.472656 C 391.941406 509.191406 390.375 505.246094 390.464844 500.195312 C 390.457031 496.171875 391.457031 492.851562 391.558594 491.570312 L 390.90625 491.300781 C 390.886719 491.679688 390.9375 491.882812 391.050781 491.925781 C 391.167969 491.972656 391.34375 491.847656 391.574219 491.550781 Z M 306.960938 515.546875 C 306.277344 517.035156 305.597656 519.21875 305.25 521.699219 C 304.898438 524.1875 304.960938 526.46875 305.210938 528.085938 C 305.453125 529.710938 305.839844 530.675781 306.136719 530.644531 C 306.769531 530.574219 306.769531 526.679688 307.441406 522.003906 C 308.074219 517.328125 309.144531 513.585938 308.554688 513.339844 C 308.277344 513.230469 307.636719 514.050781 306.960938 515.546875 Z M 294.601562 513.160156 C 293.402344 514.382812 292.035156 516.390625 291.175781 518.890625 C 290.320312 521.394531 290.167969 523.824219 290.367188 525.523438 C 290.570312 527.234375 291.03125 528.214844 291.3125 528.167969 C 291.953125 528.074219 291.6875 524.085938 293.269531 519.609375 C 294.765625 515.105469 297.417969 512.109375 296.96875 511.648438 C 296.769531 511.4375 295.804688 511.929688 294.601562 513.160156 Z M 228.199219 511.347656 C 227.332031 512.878906 226.46875 515.207031 226.117188 517.894531 C 225.785156 520.585938 226.035156 523.054688 226.488281 524.757812 C 226.941406 526.464844 227.519531 527.417969 227.796875 527.339844 C 228.421875 527.164062 227.652344 523.09375 228.320312 518.171875 C 228.910156 513.246094 230.667969 509.492188 230.113281 509.167969 C 229.859375 509.027344 229.0625 509.800781 228.199219 511.347656 Z M 217.53125 505.3125 C 216.570312 506.109375 215.535156 507.191406 214.519531 508.503906 C 213.527344 509.832031 212.5625 511.394531 211.773438 513.140625 C 211.003906 514.894531 210.488281 516.65625 210.167969 518.285156 C 209.878906 519.914062 209.765625 521.40625 209.8125 522.65625 C 209.902344 525.15625 210.429688 526.628906 210.699219 526.59375 C 211.035156 526.554688 211.070312 525.050781 211.378906 522.734375 C 211.527344 521.578125 211.789062 520.210938 212.164062 518.726562 C 212.5625 517.25 213.089844 515.65625 213.796875 514.035156 C 214.527344 512.433594 215.359375 510.972656 216.1875 509.683594 C 217.039062 508.410156 217.871094 507.300781 218.640625 506.417969 C 220.152344 504.632812 221.242188 503.601562 221.046875 503.332031 C 220.894531 503.101562 219.445312 503.695312 217.53125 505.3125 Z M 345.457031 298.792969 C 345.234375 297.40625 343.925781 296.460938 342.542969 296.6875 C 309.742188 301.960938 304.429688 281.089844 303.980469 279 L 303.304688 265.472656 C 307.683594 265.679688 320.945312 265.171875 325.164062 251.820312 C 325.164062 251.820312 304.414062 234.90625 275.628906 250.132812 C 275.628906 250.132812 276.367188 264.625 296.640625 265.429688 L 295.960938 279 C 295.503906 281.140625 290.15625 301.953125 257.398438 296.6875 C 256.015625 296.460938 254.710938 297.40625 254.488281 298.792969 C 254.265625 300.171875 255.207031 301.472656 256.59375 301.699219 C 260.503906 302.328125 264.070312 302.609375 267.332031 302.609375 C 289.679688 302.609375 297.507812 289.347656 299.96875 283.035156 C 302.433594 289.347656 310.257812 302.609375 332.605469 302.609375 C 335.871094 302.609375 339.441406 302.328125 343.351562 301.699219 C 344.738281 301.472656 345.679688 300.171875 345.457031 298.792969 Z M 353.109375 213.332031 C 347.496094 213.332031 342.945312 219.585938 342.945312 227.292969 C 342.945312 234.996094 347.496094 241.25 353.109375 241.25 C 358.71875 241.25 363.269531 234.996094 363.269531 227.292969 C 363.269531 219.585938 358.71875 213.332031 353.109375 213.332031 Z M 260.171875 231.519531 C 260.171875 239.230469 255.621094 245.476562 250.007812 245.476562 C 244.398438 245.476562 239.847656 239.230469 239.847656 231.519531 C 239.847656 223.8125 244.398438 217.5625 250.007812 217.5625 C 255.621094 217.5625 260.171875 223.8125 260.171875 231.519531 " fill-opacity="1" fill-rule="nonzero"/></g></svg>