<svg xmlns="http://www.w3.org/2000/svg" xmlns:xlink="http://www.w3.org/1999/xlink" width="940" zoomAndPan="magnify" viewBox="0 0 705 591.000005" height="788" preserveAspectRatio="xMidYMid meet" version="1.0"><defs><clipPath id="cd77605989"><path d="M 165 96 L 573 96 L 573 510.484375 L 165 510.484375 Z M 165 96 " clip-rule="nonzero"/></clipPath><clipPath id="7c5b3539f0"><path d="M 127.519531 130 L 556 130 L 556 394 L 127.519531 394 Z M 127.519531 130 " clip-rule="nonzero"/></clipPath></defs><path fill="#ea2e46" d="M 302.078125 87.480469 C 293.785156 70.183594 274.046875 84.996094 274.046875 84.996094 C 277.484375 67.105469 267.449219 63.894531 267.449219 63.894531 C 251.054688 59.570312 241.484375 79.464844 241.484375 79.464844 C 240.960938 61.070312 223.199219 59.585938 223.199219 59.585938 C 208.253906 59.078125 205.152344 81.652344 205.152344 81.652344 C 193.308594 64.0625 181.375 72.75 181.375 72.75 C 151.949219 94.839844 193.980469 128.71875 193.980469 128.71875 L 278.941406 120.726562 C 311.539062 104.6875 302.078125 87.480469 302.078125 87.480469 Z M 173.859375 171.324219 C 192.488281 193.332031 189.433594 217.460938 177.214844 218.535156 C 165.484375 219.566406 162.410156 212.585938 163.015625 203.695312 C 154.273438 217.328125 145.628906 210.1875 145.628906 210.1875 C 134.117188 191.789062 173.859375 171.324219 173.859375 171.324219 " fill-opacity="1" fill-rule="nonzero"/><path fill="#f5dc7c" d="M 509.035156 375.066406 C 499.195312 393.804688 487.601562 409.054688 470.410156 421.117188 C 472.09375 432.859375 472.277344 463.652344 422.003906 442.652344 L 422.011719 442.648438 C 420.378906 443.097656 418.71875 443.539062 417.023438 443.96875 C 399.847656 448.308594 376.804688 450.121094 352.105469 448.191406 C 307.328125 480.257812 302.027344 444.109375 301.507812 438.902344 C 268.8125 429.105469 238.09375 411.515625 218.730469 383.394531 C 197.5 352.578125 192.542969 323.558594 194.859375 301.894531 C 198.078125 271.867188 207.320312 217.367188 275.136719 211.617188 C 342.953125 205.871094 379.007812 219.097656 413.492188 223.003906 C 433.113281 225.226562 460.285156 222.164062 474.667969 218.445312 C 476.929688 217.859375 479.113281 217.78125 481.21875 218.132812 C 488.464844 219.347656 509.328125 219.292969 514.550781 227.765625 C 520.453125 237.34375 510.421875 256.042969 513.460938 266.726562 C 516.152344 276.191406 517.664062 284.386719 517.890625 288.292969 C 518.660156 301.644531 526.671875 341.464844 509.035156 375.066406 " fill-opacity="1" fill-rule="nonzero"/><g clip-path="url(#cd77605989)"><path fill="#da7747" d="M 561.324219 209.238281 C 552.78125 206.46875 532.871094 217.015625 532.871094 217.015625 C 532.871094 217.015625 563.6875 197.75 567.417969 188.75 C 571.148438 179.746094 561.070312 172.121094 551.046875 170.847656 C 541.023438 169.574219 524.78125 187.007812 524.78125 187.007812 C 524.78125 187.007812 541.253906 167.175781 542.074219 156.390625 C 542.898438 145.609375 533.015625 140.753906 522.398438 147.859375 C 511.777344 154.96875 481.257812 217.503906 481.257812 217.503906 C 481.238281 217.722656 481.230469 217.925781 481.21875 218.144531 C 496.660156 220.734375 507.734375 246.59375 513.460938 266.726562 C 530.605469 262.671875 558.433594 255.570312 561.15625 251.582031 C 565.113281 245.777344 566.679688 243.941406 559.941406 240.113281 C 554.820312 237.203125 536.84375 239.371094 536.84375 239.371094 C 536.84375 239.371094 557.964844 234.691406 567.714844 226.457031 C 577.457031 218.21875 569.863281 212.007812 561.324219 209.238281 Z M 412.800781 277.957031 C 413.296875 278.914062 414.273438 279.507812 415.351562 279.507812 C 415.804688 279.507812 416.257812 279.394531 416.660156 279.1875 C 418.164062 278.414062 419.308594 277.433594 420.148438 276.652344 C 421.085938 275.765625 421.96875 274.769531 422.765625 273.707031 C 423.558594 272.648438 424.261719 271.523438 424.859375 270.335938 C 425.355469 269.324219 425.964844 267.949219 426.257812 266.28125 C 426.375 265.613281 426.265625 264.914062 425.945312 264.316406 C 425.414062 263.320312 424.382812 262.699219 423.25 262.699219 C 422.753906 262.699219 422.257812 262.824219 421.816406 263.058594 C 420.316406 263.859375 419.199219 264.863281 418.382812 265.65625 C 417.449219 266.585938 416.59375 267.601562 415.839844 268.679688 C 415.070312 269.773438 414.402344 270.917969 413.84375 272.105469 C 413.371094 273.128906 412.792969 274.519531 412.519531 276.1875 C 412.421875 276.796875 412.519531 277.40625 412.800781 277.957031 Z M 422.382812 366.300781 C 422.230469 366.300781 422.070312 366.316406 421.875 366.347656 C 421.660156 366.378906 421.457031 366.425781 421.25 366.464844 C 424.003906 352.054688 419.492188 336.496094 416.160156 329.578125 C 414.171875 325.445312 411.429688 319.332031 407.785156 313.371094 C 407.621094 312.820312 407.316406 312.335938 406.898438 311.960938 C 404.535156 308.261719 401.8125 304.691406 398.691406 301.757812 C 399.894531 301.535156 400.910156 301.152344 401.695312 300.8125 C 402.753906 300.339844 403.785156 299.75 404.757812 299.066406 C 405.722656 298.386719 406.621094 297.601562 407.4375 296.734375 C 408.128906 295.984375 409.003906 294.945312 409.660156 293.507812 C 409.894531 292.984375 409.984375 292.410156 409.914062 291.847656 C 409.722656 290.304688 408.40625 289.136719 406.851562 289.136719 C 406.722656 289.136719 406.597656 289.144531 406.46875 289.164062 C 404.902344 289.351562 403.648438 289.875 402.714844 290.316406 C 401.648438 290.820312 400.632812 291.445312 399.699219 292.160156 C 398.753906 292.878906 397.878906 293.6875 397.089844 294.574219 C 396.421875 295.339844 395.574219 296.410156 394.941406 297.847656 C 394.839844 298.074219 394.769531 298.316406 394.734375 298.566406 C 389.214844 294.824219 382.644531 293.246094 374.851562 295.960938 C 366.839844 299.601562 357.738281 302.453125 347.53125 303.871094 C 332.980469 305.902344 322.21875 310.601562 314.554688 315.488281 C 303.371094 322.617188 296.195312 336.015625 297.035156 348.085938 C 297.421875 353.695312 298.613281 360.449219 301.316406 368.085938 C 309.371094 390.839844 348.050781 406.785156 394.363281 394.265625 C 395.742188 393.890625 397.09375 393.503906 398.417969 393.101562 C 408.304688 389.464844 414.398438 383.4375 417.921875 376.445312 C 419.265625 375.933594 420.527344 375.257812 421.6875 374.417969 C 423.136719 373.34375 424.21875 372.1875 424.992188 370.882812 C 425.355469 370.277344 425.492188 369.558594 425.382812 368.863281 C 425.148438 367.378906 423.886719 366.300781 422.382812 366.300781 Z M 436.75 345.328125 C 436.125 345.199219 435.5 345.132812 434.84375 345.132812 C 434.304688 345.132812 433.761719 345.171875 433.113281 345.265625 C 432.050781 345.425781 431.007812 345.710938 430.015625 346.109375 C 429.011719 346.507812 428.058594 347.011719 427.160156 347.621094 C 426.398438 348.15625 425.410156 348.921875 424.535156 350.117188 C 424.296875 350.441406 424.128906 350.816406 424.042969 351.199219 C 423.871094 351.964844 424.007812 352.753906 424.429688 353.414062 C 424.847656 354.074219 425.5 354.535156 426.265625 354.707031 C 426.96875 354.863281 427.671875 354.941406 428.429688 354.941406 C 428.875 354.941406 429.351562 354.914062 429.902344 354.851562 C 430.953125 354.726562 432.003906 354.480469 433.015625 354.121094 C 434.027344 353.769531 435.003906 353.296875 435.925781 352.703125 C 436.707031 352.195312 437.714844 351.464844 438.617188 350.273438 C 438.890625 349.90625 439.085938 349.472656 439.175781 349.03125 C 439.527344 347.339844 438.441406 345.679688 436.75 345.328125 Z M 422.664062 317.578125 C 421.664062 318.386719 420.761719 319.132812 419.792969 320.160156 C 419.378906 320.605469 419.117188 321.160156 419.042969 321.761719 C 418.949219 322.515625 419.152344 323.265625 419.621094 323.871094 C 420.089844 324.472656 420.765625 324.855469 421.519531 324.949219 C 421.925781 325 422.339844 325.023438 422.75 325.023438 C 423.851562 325.023438 424.980469 324.851562 426.226562 324.484375 C 427.636719 324.058594 428.988281 323.417969 430.242188 322.585938 C 431.492188 321.757812 432.605469 320.753906 433.558594 319.585938 C 434.660156 318.214844 435.382812 316.851562 435.765625 315.414062 C 435.933594 314.769531 435.886719 314.078125 435.628906 313.460938 C 435.15625 312.324219 434.050781 311.589844 432.820312 311.589844 C 432.417969 311.589844 432.023438 311.671875 431.605469 311.84375 C 430.308594 312.386719 429.273438 313.003906 428.222656 313.644531 C 427.238281 314.261719 426.3125 314.878906 425.402344 315.53125 C 424.4375 316.210938 423.546875 316.878906 422.664062 317.578125 Z M 424.15625 281.296875 C 423.351562 281.296875 422.5625 281.628906 421.984375 282.230469 C 420.90625 283.335938 420.015625 284.433594 419.152344 285.488281 L 418.886719 285.820312 L 416.160156 289.210938 L 413.40625 292.625 L 413.035156 293.089844 C 412.214844 294.121094 411.367188 295.179688 410.515625 296.429688 C 410.078125 297.078125 409.925781 297.882812 410.105469 298.640625 C 410.40625 299.925781 411.53125 300.820312 412.84375 300.820312 C 413.0625 300.820312 413.277344 300.792969 413.484375 300.746094 C 415.21875 300.339844 416.917969 299.566406 418.691406 298.367188 C 420.191406 297.332031 421.5625 296.082031 422.765625 294.65625 C 423.964844 293.234375 424.960938 291.664062 425.726562 289.976562 C 426.597656 288.03125 427.0625 286.222656 427.152344 284.433594 C 427.1875 283.574219 426.859375 282.738281 426.242188 282.144531 C 425.679688 281.597656 424.9375 281.296875 424.15625 281.296875 Z M 304.773438 285.90625 C 323.113281 282.28125 321.066406 253.472656 321.066406 253.472656 C 331.492188 269.355469 352.011719 273.792969 365.660156 267.109375 C 379.308594 260.421875 370.539062 237.628906 370.539062 237.628906 C 370.539062 237.628906 400.648438 247.371094 413.492188 223.003906 C 413.492188 223.003906 365.449219 215.691406 313.902344 159.324219 C 285.035156 127.757812 264.53125 81.808594 203.222656 101.410156 C 141.921875 121.011719 171.378906 184.21875 185.710938 208.039062 C 203.964844 238.375 195.058594 301.890625 195.058594 301.890625 C 222.15625 300.832031 224.765625 277.109375 224.765625 277.109375 C 224.765625 277.109375 233.28125 301.34375 248.414062 297.949219 C 263.550781 294.550781 266.652344 267.699219 266.652344 267.699219 C 266.652344 267.699219 286.4375 289.53125 304.773438 285.90625 Z M 295.21875 478.675781 C 289.308594 476.226562 273.753906 470.53125 267.191406 475.355469 C 260.324219 480.410156 256.683594 486.023438 256.53125 486.265625 C 255.792969 487.414062 256.128906 488.941406 257.277344 489.679688 C 257.695312 489.945312 258.15625 490.074219 258.613281 490.074219 C 259.425781 490.074219 260.226562 489.671875 260.699219 488.9375 C 260.734375 488.886719 264.035156 483.828125 270.125 479.34375 C 271.792969 478.121094 275.304688 478.195312 279.394531 478.964844 C 279.289062 478.992188 279.1875 479.015625 279.089844 479.042969 C 275.359375 480.128906 267.4375 488.023438 265.101562 490.414062 C 264.144531 491.394531 264.164062 492.960938 265.144531 493.914062 C 265.621094 494.386719 266.246094 494.621094 266.875 494.621094 C 267.515625 494.621094 268.160156 494.371094 268.644531 493.875 C 273.003906 489.417969 278.765625 484.296875 280.476562 483.800781 C 281.664062 483.449219 284.945312 483.457031 288.476562 483.621094 C 285.425781 485.753906 282.1875 488.222656 280.992188 489.859375 C 278.703125 493.003906 277.253906 504.089844 276.867188 507.410156 C 276.710938 508.769531 277.683594 510 279.042969 510.152344 C 279.140625 510.167969 279.234375 510.171875 279.332031 510.171875 C 280.570312 510.171875 281.644531 509.246094 281.789062 507.984375 C 282.511719 501.796875 283.945312 494.222656 284.996094 492.78125 C 286.238281 491.078125 292.894531 486.484375 297.226562 483.765625 C 297.25 483.75 297.273438 483.730469 297.292969 483.710938 C 297.339844 483.683594 297.382812 483.652344 297.425781 483.621094 C 297.449219 483.601562 297.46875 483.589844 297.492188 483.574219 C 297.519531 483.550781 297.542969 483.523438 297.566406 483.5 C 297.609375 483.460938 297.648438 483.417969 297.691406 483.378906 C 297.722656 483.34375 297.757812 483.316406 297.789062 483.28125 L 317.082031 460.84375 C 315.25 460.433594 313.636719 459.765625 312.210938 458.917969 Z M 527.609375 486.742188 C 527.894531 488.074219 527.046875 489.386719 525.710938 489.675781 C 525.480469 489.722656 505.1875 493.84375 492.703125 479.886719 C 492.898438 482.394531 493.570312 485.328125 495.289062 488.113281 C 498.359375 493.089844 504.019531 496.453125 512.113281 498.105469 C 513.453125 498.378906 514.316406 499.683594 514.039062 501.023438 C 513.804688 502.195312 512.769531 503.007812 511.617188 503.007812 C 511.453125 503.007812 511.289062 502.988281 511.117188 502.953125 C 501.605469 501.011719 494.84375 496.875 491.03125 490.648438 C 489.453125 488.074219 488.566406 485.433594 488.105469 482.976562 C 486.4375 488.886719 486.71875 497.28125 495.496094 506.242188 C 496.453125 507.21875 496.4375 508.789062 495.460938 509.746094 C 494.976562 510.214844 494.351562 510.449219 493.726562 510.449219 C 493.085938 510.449219 492.441406 510.203125 491.953125 509.707031 C 475.949219 493.359375 484.03125 478.03125 487.554688 472.9375 L 463.875 445.835938 C 465.234375 444.765625 466.34375 443.527344 467.25 442.171875 L 492.605469 471.199219 C 492.65625 471.253906 492.6875 471.320312 492.730469 471.375 C 492.792969 471.464844 492.863281 471.542969 492.917969 471.640625 C 502.554688 489.265625 523.777344 485.019531 524.675781 484.832031 C 526.015625 484.550781 527.328125 485.402344 527.609375 486.742188 " fill-opacity="1" fill-rule="nonzero"/></g><g clip-path="url(#7c5b3539f0)"><path fill="#f7ae3b" d="M 436.382812 347.09375 C 435.304688 346.867188 434.332031 346.917969 433.386719 347.050781 C 432.445312 347.191406 431.546875 347.4375 430.683594 347.785156 C 429.816406 348.128906 428.988281 348.5625 428.195312 349.101562 C 427.410156 349.652344 426.652344 350.28125 425.996094 351.175781 C 425.90625 351.300781 425.835938 351.445312 425.800781 351.597656 C 425.664062 352.203125 426.050781 352.808594 426.660156 352.949219 C 427.746094 353.191406 428.726562 353.164062 429.683594 353.0625 C 430.632812 352.949219 431.542969 352.730469 432.421875 352.417969 C 433.296875 352.113281 434.140625 351.707031 434.941406 351.195312 C 435.738281 350.675781 436.507812 350.070312 437.171875 349.191406 C 437.285156 349.042969 437.371094 348.863281 437.410156 348.664062 C 437.5625 347.945312 437.101562 347.242188 436.382812 347.09375 Z M 425.703125 322.761719 C 426.960938 322.378906 428.15625 321.808594 429.246094 321.078125 C 430.335938 320.359375 431.320312 319.472656 432.152344 318.460938 C 432.972656 317.433594 433.664062 316.289062 434.019531 314.949219 C 434.085938 314.699219 434.074219 314.417969 433.964844 314.15625 C 433.699219 313.523438 432.972656 313.226562 432.34375 313.492188 L 432.300781 313.511719 C 431.113281 314.007812 430.132812 314.589844 429.179688 315.171875 C 428.234375 315.765625 427.332031 316.367188 426.445312 317 C 425.554688 317.632812 424.683594 318.28125 423.796875 318.980469 C 422.917969 319.691406 422.023438 320.421875 421.132812 321.371094 L 421.113281 321.398438 C 420.964844 321.550781 420.863281 321.757812 420.832031 321.984375 C 420.757812 322.5625 421.171875 323.085938 421.746094 323.160156 C 423.121094 323.335938 424.441406 323.128906 425.703125 322.761719 Z M 423.601562 369.144531 C 423.496094 368.472656 422.863281 368.015625 422.191406 368.121094 L 422.15625 368.128906 C 420.828125 368.335938 419.679688 368.6875 418.550781 369.046875 C 417.425781 369.414062 416.34375 369.808594 415.273438 370.234375 C 414.199219 370.660156 413.128906 371.109375 412.046875 371.601562 C 410.964844 372.105469 409.871094 372.632812 408.730469 373.371094 L 408.703125 373.382812 C 408.515625 373.507812 408.367188 373.695312 408.285156 373.921875 C 408.101562 374.46875 408.394531 375.066406 408.9375 375.25 C 410.296875 375.710938 411.679688 375.796875 413.042969 375.714844 C 414.402344 375.621094 415.742188 375.328125 417.015625 374.867188 C 418.296875 374.40625 419.511719 373.769531 420.613281 372.964844 C 421.707031 372.15625 422.707031 371.199219 423.441406 369.964844 C 423.582031 369.726562 423.644531 369.441406 423.601562 369.144531 Z M 407.535156 344.5625 C 408.53125 344.300781 409.480469 343.941406 410.382812 343.492188 C 411.285156 343.050781 412.140625 342.515625 412.945312 341.878906 C 413.738281 341.230469 414.496094 340.507812 415.121094 339.523438 C 415.238281 339.339844 415.3125 339.125 415.320312 338.898438 C 415.359375 338.179688 414.8125 337.570312 414.09375 337.53125 C 412.929688 337.46875 411.898438 337.667969 410.910156 337.941406 C 409.925781 338.230469 408.992188 338.613281 408.109375 339.097656 C 407.222656 339.574219 406.382812 340.136719 405.59375 340.796875 C 404.804688 341.472656 404.058594 342.222656 403.445312 343.222656 C 403.359375 343.371094 403.296875 343.542969 403.289062 343.726562 C 403.246094 344.335938 403.703125 344.863281 404.3125 344.902344 C 405.488281 344.984375 406.53125 344.8125 407.535156 344.5625 Z M 403.832031 317.386719 C 404.617188 316.683594 405.351562 315.902344 405.945312 314.871094 C 406.054688 314.675781 406.117188 314.445312 406.113281 314.207031 C 406.101562 313.496094 405.519531 312.925781 404.804688 312.941406 C 403.617188 312.957031 402.574219 313.226562 401.578125 313.574219 C 400.589844 313.929688 399.65625 314.382812 398.773438 314.925781 C 397.890625 315.46875 397.0625 316.09375 396.285156 316.8125 C 395.515625 317.542969 394.792969 318.347656 394.210938 319.394531 C 394.125 319.554688 394.074219 319.738281 394.074219 319.929688 C 394.074219 320.535156 394.566406 321.027344 395.171875 321.023438 C 396.375 321.023438 397.425781 320.777344 398.4375 320.457031 C 399.441406 320.125 400.390625 319.699219 401.292969 319.1875 C 402.191406 318.679688 403.039062 318.082031 403.832031 317.386719 Z M 396.511719 299.125 C 396.574219 299.722656 397.113281 300.15625 397.710938 300.09375 C 398.925781 299.960938 399.964844 299.601562 400.953125 299.167969 C 401.9375 298.726562 402.859375 298.195312 403.71875 297.589844 C 404.582031 296.984375 405.382812 296.292969 406.113281 295.511719 C 406.839844 294.722656 407.511719 293.859375 408.015625 292.757812 C 408.109375 292.550781 408.152344 292.3125 408.121094 292.070312 C 408.035156 291.363281 407.394531 290.863281 406.6875 290.953125 C 405.488281 291.101562 404.464844 291.484375 403.492188 291.9375 C 402.527344 292.402344 401.628906 292.957031 400.789062 293.597656 C 399.949219 294.234375 399.167969 294.949219 398.453125 295.753906 C 397.746094 296.570312 397.085938 297.453125 396.59375 298.566406 C 396.523438 298.738281 396.488281 298.929688 396.511719 299.125 Z M 411.863281 298.234375 C 411.988281 298.78125 412.535156 299.117188 413.078125 298.988281 C 414.757812 298.597656 416.273438 297.820312 417.664062 296.878906 C 419.054688 295.925781 420.304688 294.777344 421.386719 293.492188 C 422.472656 292.207031 423.386719 290.773438 424.082031 289.242188 C 424.769531 287.703125 425.265625 286.074219 425.347656 284.351562 C 425.363281 284.023438 425.242188 283.6875 424.988281 283.4375 C 424.511719 282.976562 423.757812 282.992188 423.300781 283.464844 L 423.277344 283.484375 C 422.15625 284.648438 421.226562 285.804688 420.289062 286.949219 L 417.5625 290.347656 L 414.816406 293.75 C 413.894531 294.910156 412.945312 296.070312 412.023438 297.417969 L 412.007812 297.4375 C 411.859375 297.664062 411.792969 297.949219 411.863281 298.234375 Z M 414.40625 277.128906 C 414.671875 277.652344 415.316406 277.855469 415.832031 277.585938 C 417.035156 276.964844 418.007812 276.179688 418.910156 275.339844 C 419.800781 274.5 420.601562 273.585938 421.324219 272.621094 C 422.050781 271.65625 422.691406 270.632812 423.242188 269.539062 C 423.78125 268.441406 424.25 267.289062 424.480469 265.96875 C 424.527344 265.703125 424.488281 265.417969 424.355469 265.164062 C 424.03125 264.554688 423.273438 264.328125 422.667969 264.652344 C 421.480469 265.28125 420.53125 266.085938 419.652344 266.941406 C 418.785156 267.800781 418.007812 268.726562 417.316406 269.714844 C 416.621094 270.707031 416.003906 271.75 415.480469 272.859375 C 414.964844 273.972656 414.519531 275.140625 414.304688 276.476562 C 414.269531 276.691406 414.300781 276.917969 414.40625 277.128906 Z M 457.460938 342.871094 C 457.003906 354.335938 441.628906 380.144531 398.417969 393.101562 C 401.078125 387.628906 403.449219 380.734375 403.273438 373.742188 C 402.886719 358.210938 386.050781 362.859375 386.050781 362.859375 C 386.050781 362.859375 403.953125 353.109375 398.078125 340.90625 C 392.207031 328.703125 375.332031 337.617188 375.332031 337.617188 C 375.332031 337.617188 387.390625 326.339844 387.25 309.269531 C 387.1875 301.578125 381.300781 297.796875 374.851562 295.960938 C 395.210938 286.714844 408.554688 272.367188 415.101562 263.34375 C 424.214844 250.761719 440.21875 234.375 444.234375 260.691406 C 448.246094 287.003906 424.667969 307.429688 424.667969 307.429688 C 424.667969 307.429688 450.246094 289.964844 454.574219 305.609375 C 458.90625 321.253906 430.308594 341.570312 430.308594 341.570312 C 430.308594 341.570312 457.9375 331.050781 457.460938 342.871094 Z M 553.191406 245.730469 C 552.160156 245.363281 551.191406 245.285156 550.242188 245.292969 C 549.296875 245.308594 548.378906 245.433594 547.480469 245.660156 C 546.582031 245.886719 545.707031 246.207031 544.855469 246.636719 C 544.011719 247.078125 543.183594 247.601562 542.417969 248.402344 C 542.316406 248.507812 542.226562 248.640625 542.175781 248.789062 C 541.957031 249.375 542.257812 250.023438 542.84375 250.242188 C 543.882812 250.628906 544.855469 250.734375 545.8125 250.757812 C 546.761719 250.773438 547.691406 250.671875 548.597656 250.484375 C 549.5 250.296875 550.382812 250.003906 551.238281 249.605469 C 552.09375 249.195312 552.925781 248.699219 553.695312 247.914062 C 553.824219 247.78125 553.933594 247.617188 554 247.425781 C 554.25 246.734375 553.882812 245.972656 553.191406 245.730469 Z M 519.097656 175.699219 C 520.269531 175.160156 521.210938 174.425781 522.078125 173.632812 C 522.929688 172.835938 523.683594 171.953125 524.347656 171.011719 C 525.011719 170.070312 525.578125 169.0625 526.03125 167.988281 C 526.476562 166.90625 526.832031 165.777344 526.917969 164.492188 C 526.933594 164.242188 526.878906 163.984375 526.738281 163.757812 C 526.378906 163.160156 525.601562 162.96875 525.003906 163.332031 L 524.996094 163.335938 C 523.914062 163.988281 523.074219 164.773438 522.300781 165.597656 C 521.535156 166.425781 520.855469 167.304688 520.253906 168.234375 C 519.644531 169.160156 519.105469 170.132812 518.636719 171.164062 C 518.183594 172.207031 517.78125 173.292969 517.589844 174.554688 L 517.589844 174.5625 C 517.558594 174.761719 517.582031 174.972656 517.671875 175.171875 C 517.917969 175.707031 518.558594 175.945312 519.097656 175.699219 Z M 542.398438 189.160156 C 542.289062 188.472656 541.644531 188.003906 540.957031 188.113281 C 539.667969 188.320312 538.554688 188.757812 537.492188 189.269531 C 536.4375 189.792969 535.449219 190.402344 534.519531 191.101562 C 533.585938 191.796875 532.714844 192.566406 531.90625 193.429688 C 531.101562 194.304688 530.351562 195.246094 529.765625 196.421875 C 529.675781 196.609375 529.632812 196.824219 529.667969 197.046875 C 529.753906 197.632812 530.292969 198.039062 530.878906 197.953125 C 532.175781 197.765625 533.304688 197.347656 534.386719 196.859375 C 535.457031 196.363281 536.464844 195.777344 537.417969 195.109375 C 538.371094 194.445312 539.265625 193.699219 540.089844 192.859375 C 540.910156 192.011719 541.675781 191.085938 542.269531 189.933594 C 542.390625 189.703125 542.441406 189.4375 542.398438 189.160156 Z M 554.90625 217.621094 L 554.882812 217.617188 C 553.816406 217.433594 552.878906 217.480469 551.96875 217.589844 C 551.0625 217.714844 550.199219 217.910156 549.355469 218.191406 C 548.515625 218.46875 547.695312 218.8125 546.878906 219.246094 C 546.070312 219.695312 545.265625 220.199219 544.488281 220.972656 L 544.46875 220.988281 C 544.363281 221.09375 544.277344 221.222656 544.21875 221.367188 C 543.988281 221.945312 544.265625 222.597656 544.84375 222.828125 C 545.890625 223.246094 546.90625 223.351562 547.898438 223.351562 C 548.890625 223.339844 549.863281 223.191406 550.800781 222.921875 C 551.738281 222.660156 552.640625 222.269531 553.484375 221.753906 C 554.324219 221.226562 555.117188 220.59375 555.761719 219.679688 C 555.871094 219.527344 555.945312 219.34375 555.980469 219.148438 C 556.105469 218.429688 555.625 217.746094 554.90625 217.621094 Z M 532.289062 250.125 C 530.757812 249.917969 529.300781 249.992188 527.867188 250.15625 C 526.4375 250.328125 525.035156 250.609375 523.65625 250.992188 C 522.28125 251.375 520.929688 251.847656 519.605469 252.425781 C 518.28125 253.023438 516.984375 253.695312 515.757812 254.648438 C 515.558594 254.804688 515.410156 255.039062 515.371094 255.3125 C 515.289062 255.871094 515.679688 256.394531 516.238281 256.476562 C 517.773438 256.703125 519.242188 256.65625 520.683594 256.519531 C 522.121094 256.375 523.53125 256.121094 524.917969 255.777344 C 526.304688 255.4375 527.664062 254.992188 528.996094 254.4375 C 530.324219 253.875 531.628906 253.222656 532.863281 252.292969 C 533.109375 252.105469 533.285156 251.816406 533.328125 251.488281 C 533.421875 250.824219 532.953125 250.210938 532.289062 250.125 Z M 525.765625 231.46875 C 527.914062 230.40625 530.03125 229.269531 532.039062 227.851562 C 532.378906 227.613281 532.574219 227.195312 532.519531 226.757812 C 532.4375 226.125 531.859375 225.679688 531.226562 225.757812 C 528.789062 226.078125 526.457031 226.675781 524.15625 227.34375 C 521.863281 228.027344 519.609375 228.8125 517.390625 229.699219 C 515.175781 230.585938 512.992188 231.558594 510.851562 232.636719 C 508.714844 233.730469 506.605469 234.890625 504.601562 236.328125 C 504.324219 236.527344 504.160156 236.867188 504.203125 237.234375 C 504.269531 237.769531 504.757812 238.152344 505.292969 238.085938 C 507.738281 237.792969 510.074219 237.214844 512.386719 236.578125 C 514.695312 235.921875 516.960938 235.160156 519.1875 234.3125 C 521.421875 233.460938 523.613281 232.519531 525.765625 231.46875 Z M 513.519531 214.800781 C 515.261719 213.457031 516.945312 212.03125 518.554688 210.496094 C 520.148438 208.945312 521.699219 207.320312 522.992188 205.40625 C 523.210938 205.074219 523.261719 204.640625 523.074219 204.253906 C 522.796875 203.675781 522.101562 203.433594 521.527344 203.710938 L 521.515625 203.71875 C 519.492188 204.695312 517.625 205.839844 515.789062 207.039062 C 513.957031 208.25 512.179688 209.535156 510.460938 210.90625 C 508.742188 212.277344 507.078125 213.726562 505.488281 215.285156 C 503.914062 216.863281 502.382812 218.507812 501.101562 220.433594 C 500.917969 220.707031 500.882812 221.070312 501.03125 221.390625 C 501.265625 221.882812 501.851562 222.09375 502.339844 221.859375 L 502.347656 221.855469 C 504.390625 220.890625 506.273438 219.765625 508.128906 218.589844 C 509.980469 217.402344 511.773438 216.144531 513.519531 214.800781 Z M 507.796875 195.53125 C 509.105469 193.070312 510.351562 190.570312 511.335938 187.902344 C 511.488281 187.492188 511.398438 187.007812 511.066406 186.683594 C 510.609375 186.242188 509.886719 186.25 509.441406 186.703125 C 507.453125 188.734375 505.722656 190.929688 504.054688 193.167969 C 502.402344 195.410156 500.84375 197.714844 499.371094 200.074219 C 497.902344 202.433594 496.511719 204.84375 495.214844 207.3125 C 493.933594 209.792969 492.710938 212.3125 491.738281 214.988281 C 491.617188 215.328125 491.695312 215.730469 491.96875 216.003906 C 492.347656 216.378906 492.960938 216.378906 493.339844 216 C 495.34375 213.976562 497.097656 211.792969 498.792969 209.578125 C 500.472656 207.347656 502.054688 205.0625 503.554688 202.71875 C 505.0625 200.382812 506.476562 197.988281 507.796875 195.53125 Z M 329.757812 380.144531 C 328.988281 379.535156 328.167969 379.023438 327.300781 378.609375 C 326.433594 378.1875 325.519531 377.855469 324.5625 377.617188 C 323.59375 377.398438 322.589844 377.253906 321.453125 377.359375 C 321.296875 377.371094 321.132812 377.425781 320.984375 377.507812 C 320.457031 377.828125 320.285156 378.511719 320.597656 379.046875 C 321.183594 380.019531 321.894531 380.746094 322.644531 381.394531 C 323.402344 382.03125 324.210938 382.566406 325.058594 383.023438 C 325.90625 383.472656 326.804688 383.835938 327.75 384.097656 C 328.707031 384.347656 329.695312 384.515625 330.824219 384.425781 C 331.019531 384.410156 331.226562 384.347656 331.410156 384.238281 C 332.027344 383.851562 332.21875 383.046875 331.839844 382.425781 C 331.246094 381.464844 330.519531 380.769531 329.757812 380.144531 Z M 383.597656 384.242188 L 383.585938 384.242188 C 381.632812 384.242188 379.792969 384.425781 377.960938 384.605469 C 376.136719 384.800781 374.332031 385.019531 372.527344 385.253906 C 370.722656 385.488281 368.917969 385.734375 367.09375 386.003906 C 365.265625 386.289062 363.429688 386.578125 361.527344 387.050781 L 361.511719 387.054688 C 361.214844 387.132812 360.957031 387.34375 360.835938 387.652344 C 360.636719 388.160156 360.886719 388.734375 361.394531 388.9375 C 363.277344 389.679688 365.230469 390.050781 367.203125 390.234375 C 369.167969 390.414062 371.152344 390.382812 373.113281 390.167969 C 375.074219 389.953125 377.015625 389.546875 378.898438 388.9375 C 380.773438 388.320312 382.601562 387.523438 384.265625 386.378906 C 384.566406 386.167969 384.773438 385.808594 384.773438 385.410156 C 384.769531 384.765625 384.242188 384.242188 383.597656 384.242188 Z M 361.316406 375.253906 C 361.390625 374.601562 360.914062 374.003906 360.257812 373.933594 L 360.226562 373.929688 C 358.671875 373.757812 357.226562 373.765625 355.796875 373.773438 C 354.375 373.785156 352.976562 373.824219 351.578125 373.882812 C 350.175781 373.933594 348.773438 373.996094 347.34375 374.082031 C 345.910156 374.179688 344.457031 374.277344 342.898438 374.542969 L 342.875 374.546875 C 342.613281 374.59375 342.371094 374.742188 342.210938 374.972656 C 341.894531 375.4375 342.011719 376.070312 342.476562 376.386719 C 343.847656 377.328125 345.367188 377.902344 346.929688 378.296875 C 348.488281 378.675781 350.097656 378.851562 351.703125 378.828125 C 353.308594 378.808594 354.910156 378.582031 356.457031 378.152344 C 358.003906 377.707031 359.503906 377.078125 360.839844 376.089844 C 361.09375 375.894531 361.277344 375.601562 361.316406 375.253906 Z M 336.523438 358.519531 C 335.242188 358.226562 334.035156 358.21875 332.847656 358.292969 C 331.660156 358.382812 330.5 358.582031 329.363281 358.882812 C 328.230469 359.179688 327.121094 359.570312 326.035156 360.066406 C 324.953125 360.578125 323.890625 361.171875 322.898438 362.042969 C 322.734375 362.183594 322.617188 362.371094 322.5625 362.59375 C 322.425781 363.164062 322.773438 363.742188 323.347656 363.878906 C 324.632812 364.191406 325.847656 364.226562 327.046875 364.175781 C 328.238281 364.117188 329.402344 363.949219 330.546875 363.6875 C 331.691406 363.425781 332.8125 363.066406 333.898438 362.59375 C 334.992188 362.117188 336.058594 361.550781 337.058594 360.695312 C 337.253906 360.527344 337.402344 360.296875 337.464844 360.019531 C 337.621094 359.347656 337.199219 358.675781 336.523438 358.519531 Z M 360.421875 353.191406 C 359.273438 353.761719 358.125 354.382812 357.003906 355.25 L 356.992188 355.257812 C 356.808594 355.402344 356.671875 355.605469 356.617188 355.855469 C 356.492188 356.417969 356.847656 356.972656 357.410156 357.097656 C 358.828125 357.40625 360.207031 357.394531 361.5625 357.269531 C 362.914062 357.125 364.234375 356.835938 365.515625 356.417969 C 366.796875 356.003906 368.035156 355.457031 369.203125 354.769531 C 370.371094 354.074219 371.484375 353.265625 372.429688 352.167969 C 372.613281 351.949219 372.726562 351.664062 372.722656 351.359375 C 372.71875 350.679688 372.164062 350.136719 371.488281 350.140625 L 371.46875 350.140625 C 370.0625 350.152344 368.792969 350.382812 367.542969 350.664062 C 366.304688 350.953125 365.101562 351.308594 363.921875 351.734375 C 362.742188 352.15625 361.578125 352.632812 360.421875 353.191406 Z M 346.617188 340.25 C 347.851562 339.929688 349.09375 339.558594 350.359375 338.9375 L 350.371094 338.933594 C 350.582031 338.828125 350.757812 338.65625 350.863281 338.429688 C 351.101562 337.902344 350.867188 337.285156 350.347656 337.046875 C 349.027344 336.449219 347.6875 336.171875 346.339844 336.023438 C 344.996094 335.886719 343.648438 335.898438 342.320312 336.042969 C 340.984375 336.183594 339.667969 336.46875 338.390625 336.898438 C 337.113281 337.34375 335.871094 337.90625 334.726562 338.789062 C 334.503906 338.964844 334.335938 339.21875 334.273438 339.519531 C 334.140625 340.1875 334.574219 340.832031 335.238281 340.964844 L 335.253906 340.96875 C 336.628906 341.242188 337.910156 341.277344 339.179688 341.257812 C 340.445312 341.226562 341.683594 341.125 342.921875 340.953125 C 344.15625 340.785156 345.382812 340.554688 346.617188 340.25 Z M 323.488281 337.820312 C 324.074219 337.050781 324.671875 336.257812 325.238281 335.242188 L 325.273438 335.179688 C 325.386719 334.980469 325.441406 334.746094 325.433594 334.5 C 325.394531 333.804688 324.800781 333.269531 324.105469 333.308594 C 322.820312 333.375 321.660156 333.832031 320.617188 334.449219 C 319.574219 335.074219 318.652344 335.886719 317.890625 336.828125 C 317.125 337.769531 316.515625 338.835938 316.113281 339.980469 C 315.71875 341.128906 315.503906 342.355469 315.6875 343.628906 C 315.714844 343.808594 315.789062 343.992188 315.917969 344.144531 C 316.289062 344.609375 316.964844 344.679688 317.425781 344.308594 L 317.464844 344.277344 C 318.382812 343.535156 319.089844 342.8125 319.773438 342.109375 C 320.449219 341.402344 321.078125 340.707031 321.6875 340.003906 C 322.304688 339.300781 322.890625 338.582031 323.488281 337.820312 Z M 340.144531 324.105469 C 341.71875 324.753906 343.371094 325.023438 345.019531 325.109375 C 346.667969 325.183594 348.324219 325.042969 349.9375 324.714844 C 351.554688 324.390625 353.132812 323.871094 354.621094 323.15625 C 356.105469 322.433594 357.515625 321.535156 358.703125 320.3125 C 358.929688 320.074219 359.0625 319.746094 359.035156 319.390625 C 358.988281 318.734375 358.414062 318.238281 357.757812 318.285156 L 357.734375 318.289062 C 356.117188 318.410156 354.648438 318.683594 353.195312 318.964844 C 351.742188 319.25 350.320312 319.550781 348.902344 319.878906 C 347.480469 320.199219 346.066406 320.535156 344.625 320.894531 C 343.179688 321.269531 341.71875 321.644531 340.191406 322.214844 L 340.171875 322.222656 C 339.917969 322.316406 339.703125 322.511719 339.589844 322.78125 C 339.378906 323.300781 339.625 323.890625 340.144531 324.105469 Z M 246.597656 158.382812 C 247.328125 159.5 248.136719 160.539062 249.019531 161.511719 C 249.902344 162.488281 250.859375 163.394531 251.902344 164.222656 C 252.945312 165.042969 254.0625 165.804688 255.390625 166.363281 C 255.65625 166.476562 255.96875 166.496094 256.261719 166.394531 C 256.90625 166.175781 257.25 165.480469 257.03125 164.835938 C 256.566406 163.472656 255.890625 162.308594 255.140625 161.203125 C 254.390625 160.109375 253.558594 159.089844 252.644531 158.140625 C 251.734375 157.191406 250.753906 156.308594 249.695312 155.496094 C 248.625 154.699219 247.492188 153.953125 246.148438 153.410156 C 245.925781 153.316406 245.675781 153.300781 245.429688 153.378906 C 244.882812 153.558594 244.585938 154.148438 244.765625 154.695312 C 245.214844 156.074219 245.875 157.253906 246.597656 158.382812 Z M 274.40625 147.5 C 275.878906 148.90625 277.46875 150.210938 279.285156 151.246094 C 279.617188 151.429688 280.035156 151.457031 280.398438 151.269531 C 280.972656 150.972656 281.199219 150.265625 280.902344 149.695312 L 280.898438 149.6875 C 279.957031 147.867188 278.875 146.234375 277.773438 144.625 C 276.664062 143.019531 275.519531 141.464844 274.335938 139.929688 C 273.15625 138.398438 271.949219 136.886719 270.6875 135.394531 C 269.414062 133.90625 268.117188 132.429688 266.605469 131.035156 L 266.597656 131.023438 C 266.367188 130.8125 266.035156 130.714844 265.707031 130.789062 C 265.175781 130.917969 264.84375 131.445312 264.96875 131.976562 C 265.445312 134.015625 266.238281 135.914062 267.160156 137.734375 C 268.089844 139.546875 269.175781 141.277344 270.382812 142.910156 C 271.59375 144.550781 272.933594 146.085938 274.40625 147.5 Z M 236.019531 267.160156 C 235.902344 266.894531 235.6875 266.664062 235.398438 266.539062 C 234.78125 266.261719 234.054688 266.535156 233.777344 267.152344 C 233.179688 268.476562 232.878906 269.796875 232.667969 271.121094 C 232.460938 272.445312 232.375 273.765625 232.386719 275.089844 C 232.398438 276.414062 232.507812 277.738281 232.730469 279.066406 C 232.960938 280.390625 233.28125 281.714844 233.882812 283.042969 C 233.980469 283.261719 234.15625 283.449219 234.394531 283.558594 C 234.914062 283.796875 235.53125 283.574219 235.773438 283.050781 C 236.386719 281.730469 236.71875 280.410156 236.960938 279.085938 C 237.195312 277.761719 237.316406 276.4375 237.339844 275.113281 C 237.363281 273.792969 237.285156 272.464844 237.097656 271.140625 C 236.890625 269.8125 236.601562 268.488281 236.019531 267.160156 Z M 253.820312 237.9375 C 253.242188 236.75 252.527344 235.613281 251.503906 234.652344 C 251.308594 234.464844 251.042969 234.34375 250.75 234.324219 C 250.066406 234.273438 249.476562 234.785156 249.425781 235.464844 L 249.425781 235.492188 C 249.328125 236.828125 249.4375 238.035156 249.578125 239.21875 C 249.730469 240.398438 249.933594 241.546875 250.191406 242.683594 C 250.449219 243.824219 250.75 244.953125 251.109375 246.09375 C 251.484375 247.234375 251.894531 248.386719 252.535156 249.578125 L 252.546875 249.597656 C 252.652344 249.792969 252.820312 249.957031 253.042969 250.058594 C 253.570312 250.292969 254.191406 250.058594 254.425781 249.523438 C 255 248.242188 255.230469 246.917969 255.316406 245.601562 C 255.390625 244.28125 255.289062 242.960938 255.039062 241.671875 C 254.792969 240.386719 254.386719 239.128906 253.820312 237.9375 Z M 292.082031 254.203125 C 291.386719 253.027344 290.605469 251.925781 289.75 250.882812 C 288.898438 249.839844 287.96875 248.863281 286.949219 247.957031 C 285.925781 247.058594 284.828125 246.222656 283.511719 245.570312 C 283.242188 245.4375 282.925781 245.402344 282.617188 245.492188 C 281.96875 245.6875 281.601562 246.367188 281.792969 247.011719 C 282.210938 248.421875 282.851562 249.644531 283.558594 250.8125 C 284.277344 251.964844 285.078125 253.050781 285.964844 254.070312 C 286.84375 255.085938 287.804688 256.046875 288.84375 256.929688 C 289.894531 257.804688 291.007812 258.628906 292.34375 259.269531 C 292.558594 259.371094 292.820312 259.402344 293.070312 259.332031 C 293.625 259.171875 293.945312 258.601562 293.789062 258.050781 C 293.386719 256.625 292.769531 255.386719 292.082031 254.203125 Z M 325.472656 229.71875 C 323.742188 228.828125 321.96875 228.007812 320.035156 227.421875 C 319.734375 227.332031 319.394531 227.382812 319.132812 227.589844 C 318.703125 227.929688 318.628906 228.550781 318.964844 228.980469 C 320.214844 230.574219 321.621094 231.925781 323.082031 233.210938 C 324.542969 234.488281 326.074219 235.671875 327.65625 236.773438 C 329.238281 237.878906 330.875 238.898438 332.582031 239.824219 C 334.292969 240.738281 336.050781 241.585938 337.972656 242.1875 C 338.332031 242.296875 338.746094 242.234375 339.058594 241.984375 C 339.5625 241.578125 339.648438 240.84375 339.242188 240.335938 C 337.980469 238.761719 336.558594 237.429688 335.082031 236.167969 C 333.601562 234.917969 332.054688 233.757812 330.449219 232.6875 C 328.847656 231.613281 327.191406 230.621094 325.472656 229.71875 Z M 352.558594 220.335938 C 353.703125 221.507812 355 222.519531 356.410156 223.351562 C 357.8125 224.191406 359.332031 224.839844 360.910156 225.269531 C 362.492188 225.691406 364.136719 225.917969 365.8125 225.734375 C 366.132812 225.699219 366.445312 225.53125 366.648438 225.25 C 367.039062 224.714844 366.921875 223.964844 366.382812 223.578125 L 366.363281 223.5625 C 365.085938 222.628906 363.824219 221.898438 362.585938 221.167969 L 358.886719 219.070312 L 355.15625 216.992188 C 353.882812 216.304688 352.597656 215.597656 351.128906 214.964844 L 351.109375 214.953125 C 350.859375 214.847656 350.574219 214.839844 350.3125 214.953125 C 349.796875 215.171875 349.554688 215.765625 349.777344 216.28125 C 350.429688 217.832031 351.425781 219.15625 352.558594 220.335938 Z M 315.929688 205.355469 C 315.066406 204.339844 314.097656 203.589844 313.101562 202.917969 C 312.09375 202.253906 311.046875 201.699219 309.960938 201.230469 C 308.875 200.757812 307.753906 200.382812 306.585938 200.113281 C 305.414062 199.851562 304.210938 199.671875 302.894531 199.765625 C 302.632812 199.785156 302.371094 199.882812 302.160156 200.070312 C 301.636719 200.523438 301.582031 201.316406 302.035156 201.839844 C 302.898438 202.835938 303.878906 203.5625 304.890625 204.207031 C 305.910156 204.835938 306.964844 205.367188 308.066406 205.800781 C 309.164062 206.234375 310.300781 206.582031 311.476562 206.824219 C 312.660156 207.058594 313.875 207.210938 315.203125 207.101562 C 315.417969 207.082031 315.625 207 315.800781 206.851562 C 316.25 206.46875 316.304688 205.800781 315.929688 205.355469 Z M 315.46875 188.429688 C 317.167969 189.597656 318.917969 190.671875 320.71875 191.652344 C 322.519531 192.632812 324.371094 193.53125 326.273438 194.332031 C 328.183594 195.121094 330.132812 195.835938 332.222656 196.304688 C 332.535156 196.371094 332.882812 196.285156 333.125 196.046875 C 333.515625 195.664062 333.523438 195.039062 333.144531 194.652344 C 331.644531 193.121094 330.007812 191.839844 328.335938 190.632812 C 326.652344 189.4375 324.914062 188.339844 323.132812 187.328125 C 321.347656 186.3125 319.515625 185.386719 317.625 184.5625 C 315.734375 183.742188 313.796875 183.003906 311.714844 182.519531 C 311.339844 182.433594 310.921875 182.535156 310.628906 182.832031 C 310.171875 183.285156 310.167969 184.023438 310.625 184.480469 C 312.132812 185.996094 313.777344 187.25 315.46875 188.429688 Z M 301.40625 168.070312 C 301.167969 167.535156 300.859375 167.082031 300.480469 166.703125 C 300.105469 166.316406 299.65625 166.007812 299.128906 165.777344 C 298.597656 165.5625 298.003906 165.410156 297.207031 165.464844 C 296.363281 165.527344 295.679688 166.230469 295.664062 167.09375 C 295.652344 167.890625 295.835938 168.476562 296.085938 169 C 296.339844 169.507812 296.671875 169.9375 297.078125 170.292969 C 297.480469 170.652344 297.949219 170.9375 298.496094 171.144531 C 299.050781 171.335938 299.660156 171.476562 300.472656 171.402344 C 301.179688 171.335938 301.746094 170.757812 301.773438 170.027344 C 301.800781 169.21875 301.632812 168.609375 301.40625 168.070312 Z M 275.738281 163.460938 C 274.078125 162.515625 272.367188 161.640625 270.484375 161 C 270.132812 160.882812 269.726562 160.933594 269.402344 161.171875 C 268.882812 161.558594 268.777344 162.296875 269.164062 162.8125 C 270.355469 164.40625 271.714844 165.761719 273.132812 167.042969 C 274.550781 168.320312 276.039062 169.503906 277.585938 170.601562 C 279.132812 171.703125 280.738281 172.726562 282.402344 173.660156 C 284.082031 174.582031 285.808594 175.433594 287.699219 176.058594 C 287.996094 176.152344 288.332031 176.109375 288.597656 175.917969 C 289.042969 175.59375 289.136719 174.96875 288.8125 174.527344 C 287.636719 172.917969 286.292969 171.542969 284.894531 170.234375 C 283.492188 168.933594 282.023438 167.726562 280.496094 166.601562 C 278.972656 165.464844 277.386719 164.417969 275.738281 163.460938 Z M 281.085938 186.308594 C 280.027344 185.460938 278.898438 184.703125 277.703125 184.027344 C 276.5 183.363281 275.246094 182.769531 273.808594 182.410156 C 273.519531 182.335938 273.203125 182.367188 272.921875 182.523438 C 272.328125 182.847656 272.113281 183.59375 272.441406 184.183594 C 273.15625 185.480469 274.046875 186.542969 274.996094 187.535156 C 275.953125 188.519531 276.976562 189.414062 278.066406 190.226562 C 279.152344 191.042969 280.296875 191.777344 281.507812 192.429688 C 282.726562 193.066406 284.003906 193.640625 285.449219 193.992188 C 285.6875 194.046875 285.949219 194.019531 286.183594 193.894531 C 286.6875 193.625 286.875 192.996094 286.605469 192.488281 C 285.898438 191.179688 285.023438 190.09375 284.09375 189.078125 C 283.160156 188.070312 282.152344 187.152344 281.085938 186.308594 Z M 265.738281 189.964844 C 264.917969 188.644531 263.988281 187.539062 263.046875 186.46875 C 262.09375 185.414062 261.113281 184.414062 260.101562 183.453125 C 259.089844 182.484375 258.039062 181.566406 256.933594 180.683594 C 255.820312 179.800781 254.667969 178.949219 253.304688 178.21875 L 253.285156 178.214844 C 253.011719 178.066406 252.675781 178.027344 252.355469 178.128906 C 251.71875 178.332031 251.367188 179.011719 251.574219 179.648438 C 252.058594 181.164062 252.832031 182.488281 253.710938 183.722656 C 254.601562 184.949219 255.613281 186.070312 256.738281 187.082031 C 257.855469 188.09375 259.074219 188.996094 260.382812 189.761719 C 261.699219 190.519531 263.097656 191.160156 264.652344 191.515625 C 264.902344 191.566406 265.183594 191.527344 265.417969 191.382812 C 265.898438 191.085938 266.046875 190.453125 265.746094 189.976562 Z M 285.699219 217.722656 C 286.136719 217.390625 286.222656 216.765625 285.894531 216.328125 L 285.886719 216.324219 C 284.722656 214.785156 283.480469 213.445312 282.246094 212.117188 C 281 210.804688 279.753906 209.523438 278.492188 208.257812 C 277.230469 206.996094 275.957031 205.75 274.640625 204.511719 C 273.316406 203.28125 271.980469 202.054688 270.441406 200.910156 L 270.425781 200.898438 C 270.128906 200.679688 269.738281 200.605469 269.363281 200.730469 C 268.75 200.929688 268.410156 201.589844 268.609375 202.207031 C 269.230469 204.09375 270.179688 205.792969 271.273438 207.390625 C 272.371094 208.976562 273.628906 210.449219 275.019531 211.789062 C 276.410156 213.128906 277.925781 214.339844 279.554688 215.386719 C 281.183594 216.421875 282.914062 217.316406 284.816406 217.878906 C 285.105469 217.964844 285.4375 217.917969 285.699219 217.722656 Z M 222.523438 186 C 222.023438 185.203125 221.433594 184.457031 220.75 183.773438 C 220.054688 183.09375 219.285156 182.46875 218.273438 182.003906 C 218.097656 181.921875 217.898438 181.875 217.691406 181.878906 C 216.960938 181.898438 216.382812 182.503906 216.398438 183.234375 C 216.429688 184.347656 216.699219 185.300781 217.042969 186.207031 C 217.402344 187.105469 217.851562 187.941406 218.386719 188.722656 C 218.921875 189.5 219.535156 190.226562 220.246094 190.894531 C 220.96875 191.554688 221.757812 192.164062 222.785156 192.625 C 222.925781 192.683594 223.089844 192.722656 223.25 192.71875 C 223.871094 192.714844 224.371094 192.203125 224.363281 191.585938 C 224.351562 190.460938 224.101562 189.492188 223.785156 188.570312 C 223.453125 187.652344 223.027344 186.800781 222.523438 186 Z M 250.394531 215.050781 C 250.976562 215.035156 251.4375 214.554688 251.425781 213.96875 C 251.390625 212.601562 251.101562 211.367188 250.738281 210.167969 C 250.363281 208.976562 249.890625 207.839844 249.332031 206.75 C 248.777344 205.652344 248.128906 204.609375 247.382812 203.617188 C 246.625 202.632812 245.789062 201.683594 244.695312 200.875 C 244.476562 200.710938 244.199219 200.621094 243.90625 200.628906 C 243.222656 200.660156 242.683594 201.234375 242.710938 201.921875 C 242.761719 203.28125 243.078125 204.503906 243.464844 205.683594 C 243.867188 206.863281 244.367188 207.988281 244.957031 209.0625 C 245.546875 210.136719 246.21875 211.167969 246.996094 212.148438 C 247.78125 213.121094 248.640625 214.054688 249.75 214.855469 C 249.929688 214.984375 250.15625 215.058594 250.394531 215.050781 Z M 232.519531 183.089844 C 232.789062 183.414062 233.140625 183.667969 233.570312 183.847656 C 234.007812 184.015625 234.515625 184.125 235.234375 184.035156 C 236.027344 183.9375 236.710938 183.34375 236.882812 182.515625 C 237.027344 181.800781 236.957031 181.292969 236.824219 180.839844 C 236.683594 180.398438 236.457031 180.027344 236.15625 179.730469 C 235.855469 179.4375 235.484375 179.199219 235.03125 179.042969 C 234.570312 178.894531 234.042969 178.804688 233.3125 178.90625 C 232.644531 179 232.074219 179.496094 231.917969 180.1875 C 231.761719 180.910156 231.808594 181.445312 231.917969 181.914062 C 232.042969 182.378906 232.242188 182.769531 232.519531 183.089844 Z M 209.222656 255.027344 C 208.648438 254.679688 207.894531 254.863281 207.546875 255.4375 L 207.527344 255.472656 C 206.804688 256.664062 206.289062 257.8125 205.789062 258.949219 C 205.300781 260.082031 204.839844 261.203125 204.40625 262.328125 C 203.96875 263.457031 203.542969 264.59375 203.132812 265.765625 C 202.726562 266.949219 202.3125 268.15625 202.015625 269.535156 L 202.007812 269.5625 C 201.957031 269.792969 201.988281 270.046875 202.105469 270.273438 C 202.378906 270.777344 203.003906 270.960938 203.507812 270.695312 C 204.832031 269.988281 205.890625 268.984375 206.804688 267.875 C 207.707031 266.757812 208.441406 265.511719 208.996094 264.183594 C 209.550781 262.863281 209.921875 261.460938 210.082031 260.035156 C 210.234375 258.609375 210.195312 257.148438 209.757812 255.714844 C 209.671875 255.4375 209.488281 255.1875 209.222656 255.027344 Z M 221.6875 233.636719 C 221.574219 233.40625 221.386719 233.207031 221.140625 233.078125 C 220.527344 232.753906 219.765625 232.992188 219.441406 233.605469 C 218.835938 234.753906 218.519531 235.910156 218.300781 237.066406 C 218.085938 238.226562 217.980469 239.378906 217.984375 240.542969 C 217.988281 241.703125 218.085938 242.863281 218.292969 244.027344 C 218.515625 245.1875 218.824219 246.355469 219.414062 247.519531 C 219.507812 247.707031 219.660156 247.871094 219.855469 247.980469 C 220.375 248.261719 221.023438 248.066406 221.304688 247.550781 C 221.933594 246.398438 222.269531 245.242188 222.527344 244.085938 C 222.769531 242.929688 222.902344 241.773438 222.9375 240.613281 C 222.976562 239.453125 222.90625 238.296875 222.730469 237.132812 C 222.539062 235.972656 222.257812 234.804688 221.6875 233.636719 Z M 232.960938 220.492188 C 233.589844 220.644531 234.222656 220.261719 234.375 219.628906 C 234.617188 218.625 234.597656 217.730469 234.5 216.867188 C 234.390625 216.011719 234.175781 215.195312 233.871094 214.417969 C 233.570312 213.636719 233.171875 212.898438 232.671875 212.203125 C 232.160156 211.511719 231.566406 210.851562 230.703125 210.304688 C 230.574219 210.226562 230.425781 210.160156 230.269531 210.125 C 229.53125 209.960938 228.796875 210.421875 228.628906 211.164062 C 228.402344 212.160156 228.449219 213.046875 228.578125 213.894531 C 228.714844 214.746094 228.957031 215.546875 229.296875 216.3125 C 229.632812 217.078125 230.058594 217.804688 230.585938 218.488281 C 231.125 219.167969 231.746094 219.816406 232.628906 220.355469 C 232.726562 220.414062 232.84375 220.464844 232.960938 220.492188 Z M 210.09375 202.796875 C 209.308594 201.476562 208.394531 200.234375 207.351562 199.101562 C 206.300781 197.976562 205.140625 196.9375 203.742188 196.136719 C 203.511719 196.003906 203.234375 195.960938 202.960938 196.035156 C 202.421875 196.179688 202.097656 196.746094 202.246094 197.289062 L 202.25 197.296875 C 202.664062 198.820312 203.246094 200.164062 203.847656 201.480469 C 204.460938 202.785156 205.117188 204.039062 205.804688 205.273438 C 206.492188 206.503906 207.226562 207.710938 208.015625 208.902344 C 208.816406 210.085938 209.648438 211.269531 210.710938 212.40625 L 210.730469 212.417969 C 210.945312 212.652344 211.253906 212.796875 211.597656 212.800781 C 212.257812 212.808594 212.800781 212.273438 212.808594 211.605469 C 212.824219 209.988281 212.488281 208.460938 212.011719 206.988281 C 211.527344 205.519531 210.882812 204.113281 210.09375 202.796875 Z M 165.984375 150.984375 C 166.390625 161.191406 169.09375 171.605469 172.613281 181.058594 C 156.425781 182 136.089844 182.277344 127.507812 178.648438 C 127.507812 178.648438 143.976562 162.226562 165.984375 150.984375 " fill-opacity="1" fill-rule="nonzero"/></g><path fill="#493a2f" d="M 229.640625 135.1875 C 229.601562 137.09375 229.390625 139.046875 228.734375 141.007812 C 228.128906 142.964844 226.9375 144.988281 224.984375 146.484375 C 224 147.210938 222.835938 147.699219 221.671875 147.96875 C 220.496094 148.25 219.347656 148.234375 218.25 148.15625 C 217.148438 148.046875 216.171875 147.773438 215.175781 147.5 C 214.675781 147.390625 214.191406 147.171875 213.707031 146.960938 C 213.226562 146.742188 212.730469 146.570312 212.277344 146.289062 C 210.417969 145.234375 208.773438 143.738281 207.640625 141.957031 C 206.476562 140.191406 205.828125 138.203125 205.542969 136.257812 C 205.296875 134.285156 205.316406 132.390625 205.777344 130.449219 C 205.902344 129.9375 206.414062 129.621094 206.921875 129.746094 C 207.320312 129.835938 207.601562 130.167969 207.648438 130.546875 L 207.660156 130.648438 C 208.074219 133.949219 209.125 137.273438 211.054688 139.488281 C 212.039062 140.574219 213.136719 141.488281 214.460938 142.082031 C 214.78125 142.246094 215.152344 142.335938 215.484375 142.476562 C 215.824219 142.609375 216.160156 142.757812 216.542969 142.808594 C 217.28125 142.976562 218.023438 143.1875 218.710938 143.230469 C 220.101562 143.347656 221.246094 143.121094 222.191406 142.519531 C 223.164062 141.914062 223.964844 140.792969 224.613281 139.425781 C 225.871094 136.652344 226.429688 133.140625 226.804688 129.753906 L 226.808594 129.6875 C 226.878906 129.066406 227.441406 128.617188 228.0625 128.6875 C 228.546875 128.742188 228.925781 129.101562 229.035156 129.546875 C 229.492188 131.433594 229.640625 133.265625 229.640625 135.1875 " fill-opacity="1" fill-rule="nonzero"/></svg>