<svg xmlns="http://www.w3.org/2000/svg" xmlns:xlink="http://www.w3.org/1999/xlink" width="940" zoomAndPan="magnify" viewBox="0 0 705 591.000005" height="788" preserveAspectRatio="xMidYMid meet" version="1.0"><defs><clipPath id="8749fd8706"><path d="M 211.042969 98.074219 L 492.898438 98.074219 L 492.898438 530.703125 L 211.042969 530.703125 Z M 211.042969 98.074219 " clip-rule="nonzero"/></clipPath><clipPath id="7f5af1af7e"><path d="M 184.734375 113.101562 L 520.15625 113.101562 L 520.15625 530 L 184.734375 530 Z M 184.734375 113.101562 " clip-rule="nonzero"/></clipPath></defs><path fill="#d8ad5c" d="M 465.417969 287.929688 C 465.410156 287.1875 465.394531 286.445312 465.367188 285.703125 C 465.363281 285.574219 465.363281 285.449219 465.355469 285.328125 C 465.328125 284.472656 465.285156 283.621094 465.230469 282.769531 C 465.214844 282.535156 465.199219 282.304688 465.179688 282.066406 C 465.136719 281.410156 465.085938 280.757812 465.027344 280.109375 C 465.003906 279.867188 464.984375 279.625 464.964844 279.386719 C 464.878906 278.542969 464.792969 277.699219 464.6875 276.859375 C 464.675781 276.738281 464.65625 276.617188 464.640625 276.496094 C 464.546875 275.765625 464.445312 275.03125 464.332031 274.300781 C 464.296875 274.046875 464.253906 273.789062 464.214844 273.539062 C 464.105469 272.871094 463.992188 272.203125 463.871094 271.535156 C 463.832031 271.347656 463.804688 271.15625 463.769531 270.96875 C 463.609375 270.144531 463.441406 269.316406 463.257812 268.496094 C 463.210938 268.285156 463.160156 268.070312 463.109375 267.859375 C 462.964844 267.214844 462.808594 266.582031 462.652344 265.945312 C 462.585938 265.695312 462.523438 265.449219 462.457031 265.203125 C 462.25 264.414062 462.035156 263.625 461.804688 262.84375 C 461.789062 262.792969 461.773438 262.746094 461.765625 262.703125 C 461.523438 261.894531 461.269531 261.097656 461 260.300781 C 460.917969 260.058594 460.835938 259.8125 460.75 259.570312 C 460.542969 258.953125 460.320312 258.339844 460.09375 257.726562 C 460.011719 257.511719 459.9375 257.296875 459.851562 257.078125 C 459.550781 256.285156 459.234375 255.5 458.90625 254.714844 C 458.832031 254.539062 458.753906 254.367188 458.675781 254.195312 C 458.410156 253.558594 458.125 252.933594 457.839844 252.308594 C 457.726562 252.066406 457.613281 251.824219 457.5 251.582031 C 457.183594 250.917969 456.855469 250.253906 456.519531 249.597656 C 456.457031 249.472656 456.398438 249.34375 456.332031 249.21875 C 455.933594 248.453125 455.515625 247.6875 455.089844 246.933594 C 454.96875 246.71875 454.84375 246.5 454.71875 246.285156 C 454.382812 245.707031 454.039062 245.128906 453.6875 244.554688 C 453.554688 244.339844 453.421875 244.121094 453.285156 243.902344 C 452.816406 243.15625 452.335938 242.417969 451.835938 241.679688 C 451.757812 241.570312 451.683594 241.460938 451.605469 241.34375 C 451.164062 240.710938 450.71875 240.078125 450.253906 239.449219 C 450.089844 239.226562 449.925781 239.003906 449.757812 238.785156 C 449.324219 238.203125 448.878906 237.628906 448.421875 237.054688 C 448.292969 236.894531 448.171875 236.730469 448.042969 236.574219 C 447.464844 235.859375 446.875 235.160156 446.265625 234.457031 C 446.109375 234.277344 445.945312 234.101562 445.789062 233.921875 C 445.308594 233.378906 444.816406 232.839844 444.3125 232.304688 C 444.117188 232.101562 443.929688 231.894531 443.734375 231.6875 C 443.089844 231.015625 442.433594 230.351562 441.757812 229.6875 C 441.734375 229.664062 441.707031 229.636719 441.683594 229.617188 C 440.996094 228.945312 440.28125 228.285156 439.558594 227.628906 C 439.347656 227.433594 439.128906 227.242188 438.914062 227.050781 C 438.339844 226.539062 437.75 226.03125 437.15625 225.527344 C 436.957031 225.363281 436.765625 225.195312 436.566406 225.03125 C 435.792969 224.390625 435.003906 223.757812 434.191406 223.132812 C 434.023438 223 433.847656 222.867188 433.671875 222.738281 C 433.003906 222.230469 432.328125 221.726562 431.632812 221.226562 C 431.378906 221.046875 431.125 220.863281 430.871094 220.683594 C 430.117188 220.152344 429.347656 219.625 428.5625 219.105469 C 428.4375 219.019531 428.320312 218.933594 428.195312 218.855469 C 427.292969 218.261719 426.363281 217.675781 425.421875 217.097656 C 425.167969 216.9375 424.902344 216.785156 424.640625 216.628906 C 423.902344 216.183594 423.152344 215.742188 422.386719 215.304688 C 422.117188 215.152344 421.851562 215 421.578125 214.84375 C 420.582031 214.289062 419.574219 213.738281 418.535156 213.199219 C 418.394531 213.128906 418.253906 213.054688 418.113281 212.984375 C 417.199219 212.511719 416.265625 212.046875 415.320312 211.589844 C 415.003906 211.4375 414.6875 211.285156 414.367188 211.136719 C 413.480469 210.714844 412.574219 210.292969 411.65625 209.886719 C 411.425781 209.785156 411.199219 209.679688 410.964844 209.570312 C 409.832031 209.078125 408.679688 208.589844 407.507812 208.109375 C 407.21875 207.992188 406.925781 207.875 406.636719 207.757812 C 405.699219 207.386719 404.753906 207.019531 403.792969 206.65625 C 403.445312 206.523438 403.09375 206.390625 402.742188 206.261719 C 401.503906 205.804688 400.246094 205.351562 398.960938 204.914062 C 398.960938 204.914062 394.222656 199.511719 383 195.417969 C 371.007812 191.039062 351.578125 188.179688 322.597656 195.003906 C 321.40625 195.28125 320.230469 195.550781 319.007812 195.863281 C 319.007812 195.863281 318.96875 195.871094 318.933594 195.882812 C 318.921875 195.886719 318.914062 195.886719 318.902344 195.890625 C 318.84375 195.90625 318.753906 195.925781 318.644531 195.953125 C 318.632812 195.957031 318.621094 195.960938 318.605469 195.964844 C 318.492188 195.988281 318.355469 196.027344 318.191406 196.066406 C 318.171875 196.074219 318.144531 196.082031 318.117188 196.085938 C 317.945312 196.132812 317.746094 196.183594 317.523438 196.242188 C 317.511719 196.246094 317.492188 196.25 317.476562 196.257812 C 317.242188 196.320312 316.988281 196.390625 316.707031 196.464844 C 316.6875 196.46875 316.667969 196.476562 316.652344 196.480469 C 316.367188 196.5625 316.058594 196.644531 315.734375 196.742188 C 315.707031 196.75 315.6875 196.757812 315.660156 196.761719 C 315.328125 196.859375 314.972656 196.964844 314.597656 197.078125 C 314.574219 197.082031 314.550781 197.089844 314.535156 197.097656 C 291.574219 204.023438 190.363281 242.269531 250.707031 364.714844 C 250.707031 364.714844 250.707031 364.71875 250.710938 364.71875 C 250.710938 364.722656 250.710938 364.722656 250.710938 364.726562 C 252.476562 368.300781 254.375 371.949219 256.414062 375.664062 C 256.460938 375.75 256.507812 375.832031 256.554688 375.917969 C 257.503906 377.648438 258.496094 379.398438 259.511719 381.164062 C 259.6875 381.472656 259.871094 381.785156 260.050781 382.09375 C 261.070312 383.847656 262.109375 385.617188 263.195312 387.398438 C 263.195312 387.398438 300.921875 417.410156 312.375 465.792969 C 316.003906 481.121094 316.984375 498.296875 313.300781 516.945312 C 313.191406 517.5 313.089844 518.050781 312.972656 518.605469 L 389.910156 518.605469 C 389.910156 518.605469 389.78125 518.351562 389.570312 517.871094 C 387.886719 513.996094 380.765625 494.664062 390.632812 463.152344 C 395.917969 446.257812 406.089844 425.863281 424.609375 402.480469 C 424.609375 402.480469 424.648438 402.417969 424.714844 402.324219 C 424.71875 402.316406 424.726562 402.308594 424.730469 402.300781 C 424.882812 402.078125 425.183594 401.644531 425.605469 401.011719 C 425.609375 401.011719 425.609375 401.007812 425.609375 401.007812 C 428.410156 396.832031 436.644531 384.078125 444.90625 366.796875 C 445.972656 364.570312 447.035156 362.265625 448.09375 359.898438 C 448.109375 359.863281 448.121094 359.824219 448.140625 359.792969 C 448.835938 358.226562 449.523438 356.632812 450.207031 355.015625 C 450.222656 354.980469 450.234375 354.945312 450.25 354.910156 C 450.574219 354.136719 450.902344 353.355469 451.21875 352.570312 C 451.238281 352.523438 451.257812 352.476562 451.273438 352.433594 C 451.9375 350.8125 452.589844 349.167969 453.226562 347.5 C 453.265625 347.414062 453.296875 347.320312 453.328125 347.234375 C 453.636719 346.429688 453.941406 345.625 454.242188 344.808594 C 454.246094 344.789062 454.253906 344.777344 454.261719 344.757812 C 454.578125 343.90625 454.886719 343.046875 455.195312 342.179688 C 455.214844 342.125 455.234375 342.066406 455.257812 342.007812 C 455.53125 341.234375 455.800781 340.457031 456.070312 339.675781 C 456.113281 339.550781 456.15625 339.425781 456.195312 339.300781 C 456.769531 337.621094 457.324219 335.925781 457.859375 334.210938 C 457.90625 334.070312 457.949219 333.921875 457.996094 333.773438 C 458.230469 333.023438 458.457031 332.269531 458.679688 331.511719 C 458.714844 331.398438 458.75 331.289062 458.785156 331.175781 C 459.039062 330.304688 459.289062 329.433594 459.535156 328.558594 C 459.558594 328.484375 459.578125 328.410156 459.597656 328.339844 C 459.816406 327.558594 460.027344 326.777344 460.234375 325.996094 C 460.285156 325.808594 460.332031 325.625 460.378906 325.441406 C 460.597656 324.617188 460.808594 323.792969 461.011719 322.96875 C 461.019531 322.933594 461.03125 322.902344 461.039062 322.867188 C 461.253906 321.996094 461.460938 321.117188 461.664062 320.242188 C 461.703125 320.066406 461.742188 319.890625 461.78125 319.71875 C 461.945312 319 462.101562 318.28125 462.253906 317.566406 C 462.296875 317.375 462.335938 317.1875 462.375 316.996094 C 462.554688 316.125 462.738281 315.246094 462.90625 314.371094 C 462.917969 314.320312 462.921875 314.269531 462.929688 314.222656 C 463.089844 313.410156 463.234375 312.59375 463.378906 311.777344 C 463.414062 311.554688 463.457031 311.335938 463.492188 311.113281 C 463.617188 310.382812 463.738281 309.648438 463.851562 308.914062 C 463.875 308.765625 463.898438 308.617188 463.921875 308.46875 C 464.054688 307.597656 464.179688 306.722656 464.292969 305.851562 C 464.316406 305.671875 464.339844 305.496094 464.363281 305.316406 C 464.453125 304.605469 464.539062 303.902344 464.617188 303.195312 C 464.644531 302.964844 464.671875 302.730469 464.695312 302.5 C 464.886719 300.765625 465.042969 299.023438 465.160156 297.285156 C 465.171875 297.046875 465.1875 296.808594 465.203125 296.574219 C 465.242188 295.890625 465.28125 295.203125 465.3125 294.515625 C 465.320312 294.308594 465.332031 294.101562 465.339844 293.894531 C 465.375 293.03125 465.402344 292.167969 465.414062 291.308594 C 465.414062 291.140625 465.414062 290.976562 465.417969 290.8125 C 465.425781 290.101562 465.429688 289.394531 465.425781 288.6875 C 465.425781 288.433594 465.421875 288.179688 465.417969 287.929688 " fill-opacity="1" fill-rule="nonzero"/><g clip-path="url(#8749fd8706)"><path fill="#783f1a" d="M 362.328125 105.570312 C 362.328125 105.570312 412.441406 155.671875 413.960938 155.671875 C 415.480469 155.671875 429.148438 165.792969 433.195312 135.933594 L 436.234375 113.160156 C 436.234375 113.160156 420.035156 96.460938 402.320312 107.089844 C 402.320312 107.089844 381.5625 87.855469 362.328125 105.570312 Z M 245.101562 285.402344 C 272.710938 271.90625 270.96875 231.480469 311.199219 206.785156 C 354.484375 180.210938 314.238281 127.835938 314.238281 127.835938 L 306.867188 121.253906 C 296.503906 117.371094 227.171875 94.917969 227.171875 188.5625 C 227.171875 188.5625 222.210938 222.210938 231.375 255.164062 C 214.988281 281.171875 205.765625 318.03125 215.179688 370.066406 C 216.675781 378.347656 218.617188 386.988281 221.105469 396.054688 C 221.105469 396.054688 278.492188 473.730469 246.203125 489.085938 C 246.203125 489.085938 196.566406 523.394531 238.835938 523.515625 C 238.835938 523.515625 239.640625 523.925781 241.046875 524.542969 C 249.113281 528.082031 277.558594 538.5625 295.8125 520.214844 C 298.335938 517.675781 300.675781 514.617188 302.726562 510.886719 C 302.726562 510.886719 306.960938 493.167969 312.375 465.792969 C 300.921875 417.410156 263.195312 387.398438 263.195312 387.398438 C 262.109375 385.617188 261.074219 383.851562 260.050781 382.097656 C 259.871094 381.785156 259.6875 381.472656 259.511719 381.164062 C 258.496094 379.398438 257.507812 377.648438 256.554688 375.917969 C 256.507812 375.832031 256.460938 375.753906 256.414062 375.664062 C 254.375 371.949219 252.476562 368.300781 250.710938 364.726562 C 250.710938 364.722656 250.710938 364.722656 250.710938 364.71875 C 250.707031 364.71875 250.707031 364.714844 250.707031 364.714844 C 230.363281 323.4375 228.382812 291.730469 235.570312 267.5625 C 238.085938 273.78125 241.214844 279.808594 245.101562 285.402344 Z M 488.179688 370.984375 C 486.707031 378.984375 484.820312 387.320312 482.421875 396.054688 C 482.421875 396.054688 425.03125 473.730469 457.328125 489.085938 C 457.328125 489.085938 506.960938 523.394531 464.691406 523.515625 C 464.691406 523.515625 462.539062 524.625 458.972656 525.96875 C 448.40625 529.964844 425.429688 536.074219 409.308594 521.75 C 406.164062 518.957031 403.277344 515.398438 400.796875 510.886719 C 400.796875 510.886719 396.289062 492.027344 390.632812 463.152344 C 395.917969 446.257812 406.089844 425.863281 424.609375 402.480469 C 424.609375 402.480469 424.644531 402.421875 424.714844 402.324219 C 424.722656 402.316406 424.722656 402.3125 424.730469 402.300781 C 424.882812 402.082031 425.179688 401.644531 425.605469 401.011719 C 425.609375 401.011719 425.609375 401.011719 425.609375 401.007812 C 428.40625 396.835938 436.640625 384.085938 444.90625 366.796875 C 445.972656 364.570312 447.035156 362.265625 448.09375 359.898438 C 448.109375 359.863281 448.121094 359.824219 448.140625 359.792969 C 448.835938 358.226562 449.523438 356.632812 450.207031 355.015625 C 450.222656 354.980469 450.234375 354.945312 450.25 354.910156 C 450.574219 354.136719 450.902344 353.355469 451.21875 352.570312 C 451.238281 352.523438 451.257812 352.476562 451.273438 352.433594 C 451.9375 350.8125 452.589844 349.167969 453.226562 347.5 C 453.265625 347.414062 453.296875 347.320312 453.328125 347.234375 C 453.636719 346.429688 453.941406 345.625 454.242188 344.808594 C 454.246094 344.789062 454.253906 344.777344 454.261719 344.757812 C 454.578125 343.90625 454.886719 343.046875 455.195312 342.179688 C 455.214844 342.125 455.234375 342.066406 455.257812 342.007812 C 455.53125 341.234375 455.800781 340.457031 456.070312 339.675781 C 456.113281 339.550781 456.15625 339.425781 456.195312 339.300781 C 456.769531 337.621094 457.324219 335.925781 457.859375 334.210938 C 457.90625 334.070312 457.949219 333.921875 457.996094 333.773438 C 458.230469 333.023438 458.457031 332.269531 458.679688 331.511719 C 458.714844 331.398438 458.75 331.289062 458.785156 331.175781 C 459.039062 330.304688 459.289062 329.433594 459.535156 328.558594 C 459.558594 328.484375 459.578125 328.410156 459.597656 328.339844 C 459.816406 327.558594 460.027344 326.777344 460.234375 325.996094 C 460.285156 325.808594 460.332031 325.625 460.378906 325.441406 C 460.597656 324.617188 460.808594 323.792969 461.011719 322.96875 C 461.019531 322.933594 461.03125 322.902344 461.039062 322.867188 C 461.253906 321.996094 461.460938 321.117188 461.664062 320.242188 C 461.703125 320.066406 461.742188 319.890625 461.78125 319.71875 C 461.945312 319 462.101562 318.28125 462.253906 317.566406 C 462.296875 317.375 462.335938 317.1875 462.375 316.996094 C 462.554688 316.125 462.738281 315.246094 462.90625 314.371094 C 462.917969 314.320312 462.921875 314.269531 462.929688 314.222656 C 463.089844 313.410156 463.234375 312.59375 463.378906 311.777344 C 463.414062 311.554688 463.457031 311.335938 463.492188 311.113281 C 463.617188 310.382812 463.738281 309.648438 463.851562 308.914062 C 463.875 308.765625 463.898438 308.617188 463.921875 308.46875 C 464.054688 307.597656 464.179688 306.722656 464.292969 305.851562 C 464.316406 305.671875 464.339844 305.496094 464.363281 305.316406 C 464.453125 304.605469 464.539062 303.902344 464.617188 303.195312 C 464.644531 302.964844 464.671875 302.730469 464.695312 302.5 C 464.886719 300.765625 465.042969 299.023438 465.160156 297.285156 C 465.171875 297.046875 465.1875 296.808594 465.203125 296.574219 C 465.242188 295.890625 465.28125 295.203125 465.3125 294.515625 C 465.320312 294.308594 465.332031 294.101562 465.339844 293.894531 C 465.375 293.03125 465.402344 292.167969 465.414062 291.308594 C 465.414062 291.140625 465.414062 290.976562 465.417969 290.8125 C 465.425781 290.101562 465.429688 289.394531 465.425781 288.6875 C 465.425781 288.433594 465.421875 288.179688 465.417969 287.929688 C 465.410156 287.1875 465.394531 286.445312 465.367188 285.703125 C 465.363281 285.574219 465.363281 285.449219 465.355469 285.328125 C 465.328125 284.472656 465.285156 283.621094 465.230469 282.769531 C 465.214844 282.535156 465.199219 282.304688 465.179688 282.066406 C 465.136719 281.410156 465.085938 280.757812 465.027344 280.109375 C 465.003906 279.867188 464.984375 279.625 464.964844 279.386719 C 464.878906 278.542969 464.792969 277.699219 464.6875 276.859375 C 464.675781 276.738281 464.65625 276.617188 464.640625 276.496094 C 464.546875 275.765625 464.445312 275.03125 464.332031 274.300781 C 464.296875 274.046875 464.253906 273.789062 464.214844 273.539062 C 464.105469 272.871094 463.992188 272.203125 463.871094 271.535156 C 463.832031 271.347656 463.804688 271.15625 463.769531 270.96875 C 463.609375 270.144531 463.441406 269.316406 463.257812 268.496094 C 463.210938 268.285156 463.160156 268.070312 463.109375 267.859375 C 462.964844 267.214844 462.808594 266.582031 462.652344 265.945312 C 462.585938 265.695312 462.523438 265.449219 462.457031 265.203125 C 462.25 264.414062 462.035156 263.625 461.804688 262.84375 C 461.789062 262.792969 461.773438 262.746094 461.765625 262.703125 C 461.523438 261.894531 461.269531 261.097656 461 260.300781 C 460.917969 260.058594 460.835938 259.8125 460.75 259.570312 C 460.542969 258.953125 460.320312 258.339844 460.09375 257.726562 C 460.011719 257.511719 459.9375 257.296875 459.851562 257.078125 C 459.550781 256.285156 459.234375 255.5 458.90625 254.714844 C 458.832031 254.539062 458.753906 254.367188 458.675781 254.195312 C 458.410156 253.558594 458.125 252.933594 457.839844 252.308594 C 457.726562 252.066406 457.613281 251.824219 457.5 251.582031 C 457.183594 250.917969 456.855469 250.253906 456.519531 249.597656 C 456.457031 249.472656 456.398438 249.34375 456.332031 249.21875 C 455.933594 248.453125 455.515625 247.6875 455.089844 246.933594 C 454.96875 246.71875 454.84375 246.5 454.71875 246.285156 C 454.382812 245.703125 454.039062 245.128906 453.6875 244.554688 C 453.554688 244.339844 453.421875 244.121094 453.285156 243.902344 C 452.816406 243.15625 452.335938 242.417969 451.835938 241.679688 C 451.757812 241.570312 451.683594 241.460938 451.605469 241.34375 C 451.164062 240.710938 450.71875 240.078125 450.253906 239.449219 C 450.089844 239.226562 449.925781 239.003906 449.757812 238.785156 C 449.324219 238.203125 448.878906 237.628906 448.421875 237.054688 C 448.292969 236.894531 448.171875 236.730469 448.042969 236.574219 C 447.464844 235.859375 446.875 235.160156 446.265625 234.457031 C 446.109375 234.277344 445.945312 234.101562 445.789062 233.921875 C 445.308594 233.378906 444.816406 232.839844 444.3125 232.304688 C 444.117188 232.101562 443.929688 231.894531 443.734375 231.6875 C 443.089844 231.015625 442.433594 230.351562 441.757812 229.6875 C 441.734375 229.664062 441.707031 229.636719 441.683594 229.617188 C 440.996094 228.945312 440.28125 228.285156 439.558594 227.628906 C 439.347656 227.433594 439.128906 227.242188 438.914062 227.050781 C 438.339844 226.539062 437.75 226.03125 437.15625 225.527344 C 436.957031 225.363281 436.765625 225.195312 436.566406 225.03125 C 435.792969 224.390625 435.003906 223.757812 434.191406 223.132812 C 434.023438 223 433.847656 222.867188 433.671875 222.738281 C 433.003906 222.230469 432.328125 221.726562 431.632812 221.226562 C 431.378906 221.046875 431.125 220.863281 430.871094 220.683594 C 430.117188 220.152344 429.347656 219.625 428.5625 219.105469 C 428.4375 219.019531 428.320312 218.933594 428.195312 218.855469 C 427.292969 218.261719 426.363281 217.675781 425.421875 217.097656 C 425.167969 216.9375 424.902344 216.785156 424.640625 216.628906 C 423.902344 216.183594 423.152344 215.742188 422.386719 215.304688 C 422.117188 215.152344 421.851562 215 421.578125 214.84375 C 420.582031 214.289062 419.574219 213.738281 418.535156 213.199219 C 418.394531 213.128906 418.253906 213.054688 418.113281 212.984375 C 417.199219 212.511719 416.265625 212.046875 415.320312 211.589844 C 415.003906 211.4375 414.6875 211.285156 414.367188 211.136719 C 413.480469 210.714844 412.574219 210.292969 411.65625 209.886719 C 411.425781 209.785156 411.199219 209.679688 410.964844 209.570312 C 409.832031 209.078125 408.679688 208.589844 407.507812 208.109375 C 407.21875 207.992188 406.925781 207.875 406.636719 207.757812 C 405.699219 207.386719 404.753906 207.019531 403.792969 206.65625 C 403.445312 206.523438 403.09375 206.390625 402.742188 206.261719 C 401.503906 205.804688 400.246094 205.351562 398.960938 204.914062 C 398.960938 204.914062 394.222656 199.511719 383 195.417969 C 404.089844 199.886719 514.15625 230.15625 488.179688 370.984375 " fill-opacity="1" fill-rule="nonzero"/></g><path fill="#e88621" d="M 341.574219 315.078125 C 290.085938 324.230469 261.164062 308.527344 245.101562 285.402344 C 272.710938 271.90625 270.96875 231.480469 311.199219 206.785156 C 354.480469 180.210938 314.238281 127.835938 314.238281 127.835938 L 306.867188 121.253906 C 307.703125 121.570312 308.167969 121.765625 308.167969 121.765625 C 396.242188 59.011719 431.679688 190.589844 431.679688 190.589844 C 463.0625 318.117188 341.574219 315.078125 341.574219 315.078125 " fill-opacity="1" fill-rule="nonzero"/><path fill="#fdf2d4" d="M 441.269531 281.835938 C 443.09375 341.738281 396.007812 303.207031 396.007812 303.207031 C 366.085938 350.238281 318.425781 322.320312 318.425781 322.320312 C 280.632812 364.875 266.269531 311.894531 266.269531 311.894531 C 256.121094 246.476562 318.40625 210.316406 318.40625 210.316406 C 331.457031 184.667969 358.910156 201.867188 358.910156 201.867188 C 435.15625 207.511719 441.269531 281.835938 441.269531 281.835938 " fill-opacity="1" fill-rule="nonzero"/><path fill="#e88621" d="M 311.902344 219.304688 C 311.566406 219.402344 311.214844 219.507812 310.835938 219.621094 C 311.214844 219.507812 311.566406 219.402344 311.902344 219.304688 " fill-opacity="1" fill-rule="nonzero"/><path fill="#e88621" d="M 312.894531 219.023438 C 312.609375 219.105469 312.304688 219.1875 311.976562 219.285156 C 312.300781 219.1875 312.609375 219.105469 312.894531 219.023438 " fill-opacity="1" fill-rule="nonzero"/><path fill="#e88621" d="M 313.71875 218.800781 C 313.484375 218.863281 313.230469 218.929688 312.949219 219.007812 C 313.230469 218.929688 313.484375 218.863281 313.71875 218.800781 " fill-opacity="1" fill-rule="nonzero"/><path fill="#e88621" d="M 314.847656 218.507812 C 314.734375 218.53125 314.597656 218.570312 314.433594 218.609375 C 314.597656 218.570312 314.734375 218.53125 314.847656 218.507812 " fill-opacity="1" fill-rule="nonzero"/><path fill="#e88621" d="M 315.144531 218.433594 C 315.085938 218.449219 314.992188 218.46875 314.886719 218.496094 C 314.996094 218.46875 315.085938 218.449219 315.144531 218.433594 " fill-opacity="1" fill-rule="nonzero"/><path fill="#e88621" d="M 314.359375 218.628906 C 314.1875 218.675781 313.988281 218.726562 313.765625 218.785156 C 313.988281 218.726562 314.1875 218.675781 314.359375 218.628906 " fill-opacity="1" fill-rule="nonzero"/><path fill="#e88621" d="M 315.25 218.40625 C 315.25 218.40625 315.21875 218.414062 315.175781 218.425781 C 315.210938 218.414062 315.25 218.40625 315.25 218.40625 " fill-opacity="1" fill-rule="nonzero"/><g clip-path="url(#7f5af1af7e)"><path fill="#181211" d="M 457.445312 509.558594 C 459.097656 510.882812 460.910156 513.457031 461.515625 516.671875 C 462.109375 519.949219 461.695312 523.128906 461.460938 525.449219 C 461.203125 527.777344 461.121094 529.28125 461.46875 529.363281 C 461.800781 529.441406 462.488281 528.113281 463.207031 525.808594 C 463.5625 524.648438 463.914062 523.242188 464.113281 521.613281 C 464.316406 519.988281 464.347656 518.132812 463.996094 516.207031 C 463.253906 512.261719 460.746094 509.277344 458.425781 508.070312 C 457.269531 507.453125 456.222656 507.214844 455.496094 507.210938 C 454.777344 507.199219 454.386719 507.34375 454.367188 507.503906 C 454.324219 507.898438 455.78125 508.1875 457.445312 509.558594 Z M 439.339844 509.699219 C 439.996094 510.460938 440.636719 511.558594 441.160156 512.875 C 441.675781 514.167969 442.136719 515.808594 442.613281 517.457031 C 444.511719 524.113281 445.175781 529.773438 445.894531 529.746094 C 446.230469 529.730469 446.515625 528.269531 446.46875 525.902344 C 446.425781 523.539062 446.03125 520.261719 445.042969 516.777344 C 444.53125 515.03125 444.023438 513.425781 443.277344 511.914062 C 442.539062 510.4375 441.601562 509.207031 440.554688 508.386719 C 439.511719 507.558594 438.371094 507.25 437.628906 507.300781 C 437.25 507.316406 436.976562 507.386719 436.796875 507.484375 C 436.617188 507.574219 436.535156 507.660156 436.542969 507.746094 C 436.578125 508.140625 438.042969 508.105469 439.339844 509.699219 Z M 258.539062 508.8125 C 257.789062 509.6875 257.007812 510.832031 256.28125 512.183594 C 255.574219 513.539062 254.929688 515.109375 254.464844 516.820312 C 254.019531 518.535156 253.800781 520.222656 253.738281 521.746094 C 253.703125 523.28125 253.804688 524.660156 254.03125 525.792969 C 254.457031 528.070312 255.15625 529.339844 255.46875 529.257812 C 255.828125 529.167969 255.761719 527.789062 255.804688 525.648438 C 255.820312 524.578125 255.90625 523.308594 256.054688 521.921875 C 256.234375 520.53125 256.503906 519.023438 256.90625 517.46875 C 257.328125 515.917969 257.847656 514.476562 258.382812 513.183594 C 258.9375 511.902344 259.492188 510.761719 260.011719 509.824219 C 261.035156 507.945312 261.78125 506.777344 261.507812 506.519531 C 261.28125 506.296875 260.042969 507.054688 258.539062 508.8125 Z M 241.867188 505.363281 C 241.148438 506.050781 240.394531 506.972656 239.671875 508.074219 C 238.972656 509.183594 238.3125 510.488281 237.808594 511.925781 C 237.320312 513.367188 237.035156 514.796875 236.902344 516.109375 C 236.792969 517.421875 236.816406 518.609375 236.960938 519.589844 C 237.238281 521.558594 237.820312 522.671875 238.136719 522.605469 C 238.863281 522.472656 238.363281 517.886719 240.195312 512.746094 C 241.917969 507.570312 245.136719 504.265625 244.652344 503.714844 C 244.441406 503.46875 243.296875 503.984375 241.867188 505.363281 Z M 401.691406 203.632812 C 387.152344 150.289062 364.308594 188.660156 364.308594 188.660156 C 391.605469 186.515625 401.691406 203.632812 401.691406 203.632812 Z M 302.09375 202.984375 C 302.09375 202.984375 265.644531 177.179688 274 231.832031 C 274 231.832031 276.273438 212.097656 302.09375 202.984375 Z M 413.253906 272.105469 C 412.40625 271.128906 410.921875 271.019531 409.941406 271.871094 C 389.34375 289.722656 355.539062 259.347656 351.375 255.460938 L 349.660156 249.894531 L 347.628906 240.863281 C 365.65625 235.144531 377.335938 234.976562 367.894531 226.011719 C 367.894531 226.011719 360.808594 210.832031 336.007812 218.421875 C 336.007812 218.421875 314.238281 222.46875 317.277344 242.710938 C 317.277344 242.710938 323.136719 249.039062 342.492188 242.578125 L 345.121094 251.105469 L 346.742188 258.316406 C 345.0625 263.753906 330.820312 306.910156 304.0625 301.640625 C 302.789062 301.394531 301.554688 302.222656 301.304688 303.492188 C 301.054688 304.765625 301.882812 305.996094 303.15625 306.25 C 305.070312 306.625 306.921875 306.804688 308.714844 306.804688 C 334.285156 306.800781 347.671875 270.730469 350.75 261.238281 C 357.996094 267.578125 376.679688 282.242188 394.554688 282.242188 C 401.007812 282.242188 407.355469 280.324219 413.019531 275.421875 C 414 274.574219 414.105469 273.085938 413.253906 272.105469 Z M 229.574219 128.085938 C 209.878906 121.84375 197.984375 141.839844 197.984375 141.839844 L 206.210938 163.289062 C 217.058594 191.402344 228.011719 178.390625 229.488281 178.042969 C 230.96875 177.691406 268.125 117.359375 268.125 117.359375 C 245.3125 104.578125 229.574219 128.085938 229.574219 128.085938 Z M 312.375 465.792969 C 306.960938 493.167969 302.726562 510.886719 302.726562 510.886719 C 300.675781 514.617188 298.335938 517.675781 295.8125 520.214844 C 298.214844 519.855469 300.621094 519.480469 303.015625 519.078125 C 306.445312 518.503906 309.921875 517.855469 313.300781 516.945312 C 316.984375 498.296875 316.003906 481.121094 312.375 465.792969 Z M 246.203125 489.085938 C 278.492188 473.730469 221.105469 396.054688 221.105469 396.054688 C 218.617188 386.988281 216.675781 378.347656 215.179688 370.066406 C 208.222656 372.894531 201.949219 377 196.808594 382.761719 C 184.773438 396.265625 182.132812 416.460938 187.128906 433.84375 C 192.128906 451.230469 203.855469 466.035156 217.496094 477.925781 C 205.363281 487.058594 196.015625 499.84375 190.984375 514.175781 C 190.367188 515.945312 189.820312 517.957031 190.660156 519.632812 C 191.753906 521.832031 194.597656 522.363281 197.039062 522.605469 C 211.660156 524.0625 226.359375 524.699219 241.046875 524.542969 C 239.640625 523.925781 238.835938 523.515625 238.835938 523.515625 C 196.566406 523.394531 246.203125 489.085938 246.203125 489.085938 Z M 517.761719 435.355469 C 522.757812 417.96875 520.117188 397.773438 508.078125 384.269531 C 502.566406 378.089844 495.742188 373.820312 488.179688 370.984375 C 486.707031 378.984375 484.820312 387.320312 482.421875 396.054688 C 482.421875 396.054688 425.03125 473.730469 457.328125 489.085938 C 457.328125 489.085938 506.960938 523.394531 464.691406 523.515625 C 464.691406 523.515625 462.539062 524.625 458.972656 525.96875 C 475.285156 526.339844 491.617188 525.730469 507.847656 524.113281 C 510.292969 523.871094 513.132812 523.339844 514.230469 521.144531 C 515.070312 519.464844 514.523438 517.449219 513.902344 515.683594 C 508.875 501.351562 499.527344 488.570312 487.394531 479.433594 C 501.03125 467.542969 512.761719 452.742188 517.761719 435.355469 Z M 409.308594 521.75 C 406.824219 521.382812 404.347656 521 401.871094 520.585938 C 397.757812 519.898438 393.570312 519.097656 389.570312 517.871094 C 387.886719 513.996094 380.765625 494.664062 390.632812 463.152344 C 396.289062 492.027344 400.796875 510.886719 400.796875 510.886719 C 403.277344 515.398438 406.164062 518.957031 409.308594 521.75 " fill-opacity="1" fill-rule="nonzero"/></g></svg>