<svg xmlns="http://www.w3.org/2000/svg" xmlns:xlink="http://www.w3.org/1999/xlink" width="940" zoomAndPan="magnify" viewBox="0 0 705 591.000005" height="788" preserveAspectRatio="xMidYMid meet" version="1.0"><defs><clipPath id="3615a26e3a"><path d="M 241 48.890625 L 575 48.890625 L 575 512 L 241 512 Z M 241 48.890625 " clip-rule="nonzero"/></clipPath></defs><path fill="#5a2b15" d="M 309.089844 445.953125 C 309.089844 445.953125 279.683594 156.523438 205.429688 141.652344 C 153.996094 131.355469 43.578125 178.863281 66.339844 243.59375 C 90.027344 310.929688 291.085938 472.832031 291.085938 472.832031 L 309.089844 445.953125 " fill-opacity="1" fill-rule="nonzero"/><path fill="#46170f" d="M 300.589844 458.648438 C 271.421875 434.832031 101.773438 294.40625 80.136719 232.898438 C 71.464844 208.242188 82.125 186.09375 101.476562 168.671875 C 73.894531 187.242188 55.78125 213.558594 66.339844 243.59375 C 90.027344 310.929688 291.085938 472.832031 291.085938 472.832031 L 300.589844 458.648438 " fill-opacity="1" fill-rule="nonzero"/><path fill="#46170f" d="M 168.628906 158.675781 C 168.628906 158.675781 169.59375 159.246094 171.394531 160.320312 C 173.171875 161.441406 175.933594 162.804688 179.03125 165.273438 C 180.59375 166.46875 182.445312 167.695312 184.253906 169.238281 C 186.042969 170.808594 187.976562 172.503906 190.046875 174.320312 C 192.054688 176.203125 194.066406 178.324219 196.261719 180.507812 C 197.386719 181.578125 198.410156 182.777344 199.472656 184.003906 C 200.535156 185.226562 201.625 186.480469 202.738281 187.753906 C 207.125 192.917969 211.605469 198.746094 215.992188 205.140625 C 218.246094 208.304688 220.316406 211.703125 222.570312 215.09375 C 224.777344 218.515625 226.804688 222.140625 228.984375 225.761719 C 231.027344 229.457031 233.105469 233.214844 235.207031 237.015625 C 237.199219 240.871094 239.285156 244.75 241.183594 248.746094 C 245.035156 256.71875 248.820312 264.878906 252.351562 273.136719 L 254.957031 279.351562 C 255.785156 281.433594 256.617188 283.515625 257.445312 285.589844 C 259.128906 289.734375 260.6875 293.90625 262.261719 298.03125 C 265.433594 306.277344 268.164062 314.535156 270.859375 322.492188 C 273.511719 330.472656 275.882812 338.242188 278.03125 345.636719 C 280.230469 353.015625 282.117188 360.046875 283.792969 366.550781 C 285.507812 373.046875 286.917969 379.042969 288.144531 384.359375 C 289.378906 389.671875 290.351562 394.332031 291.128906 398.167969 C 291.929688 402 292.445312 405.042969 292.824219 407.105469 C 293.183594 409.171875 293.375 410.273438 293.375 410.273438 C 293.375 410.273438 292.019531 406.011719 289.648438 398.554688 C 288.445312 394.839844 286.984375 390.324219 285.308594 385.144531 C 283.597656 379.984375 281.664062 374.160156 279.558594 367.808594 C 277.390625 361.484375 275.042969 354.632812 272.5625 347.386719 C 270.054688 340.148438 267.265625 332.578125 264.457031 324.722656 C 263 320.816406 261.511719 316.847656 260.007812 312.824219 C 258.460938 308.820312 256.898438 304.769531 255.324219 300.6875 C 253.722656 296.613281 252.132812 292.5 250.425781 288.417969 C 249.585938 286.371094 248.742188 284.320312 247.902344 282.265625 L 245.273438 276.148438 C 241.867188 267.949219 238.214844 259.859375 234.496094 251.964844 C 232.597656 248.03125 230.714844 244.132812 228.851562 240.285156 C 226.898438 236.480469 224.96875 232.730469 223.070312 229.035156 C 221.0625 225.402344 219.085938 221.835938 217.152344 218.339844 C 215.113281 214.914062 213.246094 211.46875 211.199219 208.273438 C 207.171875 201.824219 203.210938 195.828125 199.285156 190.484375 C 197.261719 187.867188 195.441406 185.242188 193.484375 182.941406 C 191.539062 180.640625 189.75 178.382812 187.957031 176.371094 C 186.101562 174.410156 184.367188 172.574219 182.761719 170.878906 C 181.15625 169.179688 179.511719 167.824219 178.109375 166.480469 C 175.328125 163.769531 172.789062 161.976562 171.164062 160.660156 C 169.511719 159.367188 168.628906 158.675781 168.628906 158.675781 " fill-opacity="1" fill-rule="nonzero"/><path fill="#46170f" d="M 214.640625 174.65625 C 214.640625 174.65625 213.933594 176.660156 212.550781 180.085938 C 211.75 181.75 210.855469 183.863281 209.605469 186.148438 C 208.972656 187.285156 208.300781 188.496094 207.59375 189.773438 C 206.882812 191.054688 205.996094 192.300781 205.144531 193.664062 C 204.296875 195.03125 203.324219 196.386719 202.320312 197.800781 C 201.339844 199.230469 200.246094 200.644531 199.089844 202.078125 C 197.960938 203.53125 196.75 204.988281 195.46875 206.429688 C 194.210938 207.902344 192.878906 209.363281 191.476562 210.796875 C 190.78125 211.523438 190.082031 212.253906 189.375 212.988281 C 188.644531 213.695312 187.90625 214.410156 187.160156 215.125 C 185.691406 216.578125 184.144531 217.984375 182.558594 219.367188 C 179.421875 222.179688 176.066406 224.828125 172.683594 227.433594 C 169.25 229.96875 165.773438 232.445312 162.238281 234.699219 C 160.476562 235.84375 158.722656 236.957031 156.949219 237.988281 C 155.191406 239.054688 153.4375 240.074219 151.691406 241.035156 C 144.730469 244.925781 137.988281 248.074219 132.089844 250.46875 C 129.160156 251.707031 126.421875 252.710938 123.984375 253.5625 C 121.554688 254.441406 119.394531 255.089844 117.617188 255.628906 C 114.0625 256.683594 111.976562 257.105469 111.976562 257.105469 C 111.976562 257.105469 113.808594 256.058594 117.015625 254.21875 C 120.203125 252.375 124.734375 249.734375 130.109375 246.519531 C 132.792969 244.910156 135.667969 243.113281 138.703125 241.230469 C 141.738281 239.34375 144.910156 237.324219 148.160156 235.195312 C 151.414062 233.070312 154.734375 230.816406 158.078125 228.503906 C 161.414062 226.175781 164.765625 223.769531 168.058594 221.289062 C 171.347656 218.808594 174.597656 216.273438 177.71875 213.695312 C 180.847656 211.121094 183.886719 208.535156 186.726562 205.929688 C 188.179688 204.660156 189.535156 203.335938 190.886719 202.0625 C 192.257812 200.808594 193.523438 199.503906 194.773438 198.25 C 195.398438 197.625 196.019531 197.007812 196.628906 196.398438 C 197.214844 195.769531 197.796875 195.152344 198.363281 194.546875 C 199.519531 193.339844 200.648438 192.179688 201.648438 190.996094 C 203.714844 188.679688 205.539062 186.496094 207.160156 184.535156 C 208.722656 182.535156 210.089844 180.792969 211.214844 179.359375 C 213.347656 176.339844 214.640625 174.65625 214.640625 174.65625 " fill-opacity="1" fill-rule="nonzero"/><path fill="#46170f" d="M 244.265625 222.6875 C 244.265625 222.6875 243.558594 224.6875 242.175781 228.113281 C 241.371094 229.78125 240.476562 231.894531 239.226562 234.175781 C 238.597656 235.3125 237.921875 236.523438 237.21875 237.800781 C 236.503906 239.078125 235.621094 240.332031 234.765625 241.691406 C 233.917969 243.058594 232.949219 244.414062 231.945312 245.828125 C 230.964844 247.257812 229.871094 248.675781 228.714844 250.105469 C 227.582031 251.5625 226.375 253.015625 225.089844 254.457031 C 223.835938 255.929688 222.503906 257.386719 221.105469 258.824219 C 220.410156 259.550781 219.707031 260.28125 219 261.015625 C 218.265625 261.722656 217.527344 262.433594 216.785156 263.152344 C 215.3125 264.601562 213.769531 266.011719 212.183594 267.390625 C 209.046875 270.203125 205.691406 272.855469 202.308594 275.457031 C 198.875 277.996094 195.398438 280.472656 191.863281 282.726562 C 190.101562 283.867188 188.34375 284.984375 186.574219 286.015625 C 184.816406 287.082031 183.0625 288.097656 181.316406 289.058594 C 174.355469 292.949219 167.609375 296.097656 161.714844 298.492188 C 158.785156 299.726562 156.046875 300.734375 153.605469 301.585938 C 151.179688 302.464844 149.015625 303.113281 147.242188 303.648438 C 143.6875 304.707031 141.601562 305.128906 141.601562 305.128906 C 141.601562 305.128906 143.433594 304.078125 146.636719 302.242188 C 149.828125 300.394531 154.359375 297.757812 159.734375 294.542969 C 162.417969 292.933594 165.292969 291.136719 168.328125 289.253906 C 171.363281 287.367188 174.535156 285.347656 177.785156 283.21875 C 181.039062 281.09375 184.359375 278.84375 187.703125 276.53125 C 191.035156 274.199219 194.390625 271.796875 197.683594 269.3125 C 200.972656 266.835938 204.21875 264.300781 207.34375 261.722656 C 210.472656 259.144531 213.507812 256.5625 216.347656 253.957031 C 217.804688 252.6875 219.160156 251.367188 220.507812 250.089844 C 221.882812 248.835938 223.144531 247.53125 224.394531 246.28125 C 225.023438 245.652344 225.640625 245.035156 226.253906 244.425781 C 226.839844 243.796875 227.417969 243.179688 227.988281 242.574219 C 229.144531 241.367188 230.273438 240.207031 231.269531 239.023438 C 233.339844 236.707031 235.164062 234.519531 236.78125 232.5625 C 238.347656 230.5625 239.714844 228.820312 240.835938 227.386719 C 242.972656 224.371094 244.265625 222.6875 244.265625 222.6875 " fill-opacity="1" fill-rule="nonzero"/><path fill="#46170f" d="M 265.417969 268.605469 C 265.417969 268.605469 264.9375 270.25 263.957031 273.0625 C 263.429688 274.457031 262.941406 276.203125 262.0625 278.089844 C 261.144531 279.964844 260.097656 282.113281 258.855469 284.417969 C 257.675781 286.789062 256.046875 289.023438 254.429688 291.535156 C 252.855469 294.078125 250.800781 296.429688 248.785156 298.96875 C 248.273438 299.601562 247.757812 300.234375 247.234375 300.871094 C 246.699219 301.496094 246.113281 302.082031 245.550781 302.691406 C 244.417969 303.90625 243.257812 305.132812 242.074219 306.347656 C 239.738281 308.828125 237.082031 311.019531 234.558594 313.363281 C 231.902344 315.546875 229.234375 317.722656 226.515625 319.730469 C 225.148438 320.71875 223.773438 321.683594 222.410156 322.621094 C 221.066406 323.582031 219.703125 324.484375 218.324219 325.3125 C 216.960938 326.15625 215.617188 326.984375 214.300781 327.796875 C 212.953125 328.554688 211.636719 329.296875 210.355469 330.015625 C 207.800781 331.46875 205.273438 332.640625 202.96875 333.757812 C 198.332031 335.953125 194.335938 337.484375 191.5 338.4375 C 188.671875 339.417969 186.996094 339.804688 186.996094 339.804688 C 186.996094 339.804688 192.488281 335.863281 200.726562 329.953125 C 202.742188 328.445312 204.953125 326.875 207.238281 325.132812 C 208.386719 324.28125 209.570312 323.40625 210.777344 322.511719 C 211.96875 321.601562 213.183594 320.667969 214.417969 319.71875 C 216.9375 317.886719 219.367188 315.78125 221.964844 313.816406 C 224.476562 311.746094 227.03125 309.648438 229.554688 307.523438 C 230.789062 306.433594 232.027344 305.34375 233.257812 304.257812 C 234.484375 303.167969 235.757812 302.136719 236.898438 300.984375 C 239.195312 298.714844 241.675781 296.664062 243.753906 294.390625 C 245.863281 292.152344 248.113281 290.136719 249.90625 287.957031 C 250.855469 286.902344 251.777344 285.871094 252.671875 284.882812 C 253.597656 283.902344 254.480469 282.949219 255.203125 281.96875 C 256.699219 280.03125 258.167969 278.28125 259.476562 276.710938 C 260.71875 275.082031 261.71875 273.554688 262.605469 272.363281 C 264.34375 269.945312 265.417969 268.605469 265.417969 268.605469 " fill-opacity="1" fill-rule="nonzero"/><path fill="#46170f" d="M 280.929688 320.753906 C 280.929688 320.753906 280.574219 322.054688 279.816406 324.257812 C 279.402344 325.34375 279.042969 326.710938 278.324219 328.171875 C 277.578125 329.628906 276.722656 331.304688 275.703125 333.113281 C 274.707031 334.949219 273.339844 336.625 271.984375 338.550781 C 271.316406 339.515625 270.5625 340.453125 269.734375 341.34375 C 268.933594 342.265625 268.074219 343.179688 267.214844 344.121094 C 266.78125 344.585938 266.347656 345.058594 265.90625 345.535156 C 265.429688 345.972656 264.953125 346.40625 264.472656 346.847656 C 263.511719 347.734375 262.535156 348.625 261.527344 349.5 C 259.535156 351.273438 257.308594 352.800781 255.167969 354.449219 C 252.910156 355.914062 250.6875 357.441406 248.382812 358.738281 C 246.078125 360.03125 243.808594 361.304688 241.519531 362.332031 C 240.375 362.859375 239.269531 363.398438 238.160156 363.875 C 237.039062 364.324219 235.945312 364.757812 234.875 365.183594 C 232.75 366.046875 230.664062 366.683594 228.765625 367.300781 C 224.917969 368.4375 221.660156 369.164062 219.339844 369.527344 C 217.03125 369.925781 215.679688 369.992188 215.679688 369.992188 C 215.679688 369.992188 216.820312 369.300781 218.816406 368.089844 C 220.78125 366.914062 223.59375 365.238281 226.96875 363.222656 C 228.625 362.1875 230.457031 361.171875 232.332031 359.984375 C 233.28125 359.410156 234.253906 358.828125 235.25 358.230469 C 236.230469 357.613281 237.230469 356.984375 238.25 356.347656 C 240.316406 355.125 242.339844 353.699219 244.472656 352.382812 C 246.570312 351.011719 248.648438 349.554688 250.757812 348.148438 C 252.78125 346.632812 254.890625 345.21875 256.851562 343.695312 C 258.75 342.109375 260.832031 340.753906 262.5625 339.15625 C 264.308594 337.578125 266.214844 336.230469 267.714844 334.671875 C 268.511719 333.925781 269.285156 333.199219 270.035156 332.5 C 270.804688 331.804688 271.554688 331.136719 272.164062 330.433594 C 273.433594 329.0625 274.679688 327.816406 275.792969 326.691406 C 276.863281 325.519531 277.726562 324.375 278.488281 323.503906 C 279.992188 321.726562 280.929688 320.753906 280.929688 320.753906 " fill-opacity="1" fill-rule="nonzero"/><path fill="#46170f" d="M 287.203125 362.835938 C 287.203125 362.835938 287.101562 363.847656 286.777344 365.554688 C 286.609375 366.40625 286.421875 367.445312 286.144531 368.613281 C 285.820312 369.769531 285.265625 371.070312 284.691406 372.511719 C 284.394531 373.226562 284.074219 373.980469 283.71875 374.742188 C 283.304688 375.453125 282.875 376.1875 282.4375 376.941406 C 281.996094 377.703125 281.503906 378.457031 281.015625 379.25 C 280.53125 380.042969 279.882812 380.726562 279.300781 381.488281 C 278.703125 382.246094 278.070312 382.992188 277.429688 383.746094 C 276.769531 384.488281 276.03125 385.160156 275.300781 385.855469 C 274.558594 386.535156 273.851562 387.277344 273.058594 387.914062 L 270.621094 389.777344 C 269.007812 391.039062 267.222656 392.027344 265.5 393.054688 C 264.648438 393.585938 263.730469 393.964844 262.851562 394.390625 C 261.960938 394.796875 261.109375 395.257812 260.214844 395.578125 C 258.4375 396.246094 256.734375 396.90625 255.050781 397.328125 C 254.210938 397.546875 253.410156 397.78125 252.617188 397.957031 C 251.816406 398.109375 251.046875 398.257812 250.304688 398.394531 C 247.335938 398.910156 244.820312 399.011719 243.054688 398.953125 C 241.296875 398.925781 240.289062 398.730469 240.289062 398.730469 C 240.289062 398.730469 241.171875 398.269531 242.714844 397.457031 C 243.480469 397.089844 244.382812 396.542969 245.429688 396.03125 C 246.457031 395.445312 247.636719 394.886719 248.875 394.175781 C 250.128906 393.5 251.46875 392.777344 252.855469 391.96875 C 254.273438 391.230469 255.679688 390.300781 257.1875 389.460938 C 258.636719 388.550781 260.136719 387.609375 261.664062 386.652344 C 263.105469 385.597656 264.703125 384.710938 266.09375 383.558594 L 268.285156 381.972656 C 268.980469 381.40625 269.671875 380.839844 270.359375 380.28125 C 271.027344 379.703125 271.753906 379.1875 272.410156 378.617188 C 273.039062 378.019531 273.664062 377.433594 274.304688 376.871094 C 274.929688 376.296875 275.589844 375.765625 276.164062 375.179688 C 276.734375 374.597656 277.277344 374.007812 277.84375 373.453125 C 278.410156 372.894531 278.960938 372.351562 279.496094 371.828125 C 279.976562 371.277344 280.4375 370.742188 280.882812 370.230469 C 281.785156 369.1875 282.703125 368.28125 283.464844 367.363281 C 284.175781 366.402344 284.851562 365.589844 285.398438 364.910156 C 286.496094 363.566406 287.203125 362.835938 287.203125 362.835938 " fill-opacity="1" fill-rule="nonzero"/><path fill="#46170f" d="M 133.167969 190.433594 C 133.167969 190.433594 134.078125 190.953125 135.789062 191.933594 C 136.644531 192.421875 137.699219 193.027344 138.9375 193.742188 C 139.554688 194.101562 140.234375 194.457031 140.925781 194.902344 C 141.601562 195.363281 142.324219 195.859375 143.085938 196.382812 C 144.617188 197.425781 146.316406 198.589844 148.160156 199.855469 C 149.914062 201.234375 151.8125 202.726562 153.839844 204.316406 C 155.910156 205.875 157.894531 207.761719 160.09375 209.652344 C 162.3125 211.527344 164.472656 213.664062 166.730469 215.894531 C 167.867188 217.007812 169.027344 218.148438 170.207031 219.308594 C 171.339844 220.503906 172.492188 221.730469 173.667969 222.972656 C 174.835938 224.230469 176.023438 225.503906 177.226562 226.800781 C 178.382812 228.136719 179.550781 229.492188 180.742188 230.875 C 181.925781 232.253906 183.125 233.648438 184.34375 235.070312 C 185.515625 236.515625 186.707031 237.984375 187.90625 239.464844 C 190.359375 242.402344 192.667969 245.539062 195.042969 248.710938 C 199.777344 255.070312 204.523438 261.75 209.070312 268.710938 C 211.359375 272.179688 213.5625 275.742188 215.832031 279.28125 C 218.015625 282.871094 220.210938 286.472656 222.40625 290.078125 C 226.632812 297.375 230.765625 304.726562 234.675781 312.042969 C 235.65625 313.871094 236.632812 315.691406 237.601562 317.503906 C 238.53125 319.335938 239.453125 321.160156 240.375 322.976562 C 242.222656 326.589844 243.980469 330.199219 245.722656 333.742188 C 249.222656 340.816406 252.371094 347.769531 255.328125 354.367188 C 258.289062 360.96875 260.957031 367.261719 263.328125 373.109375 C 268.128906 384.78125 271.75 394.652344 274.160156 401.605469 C 275.390625 405.074219 276.257812 407.835938 276.871094 409.710938 C 277.464844 411.585938 277.785156 412.589844 277.785156 412.589844 C 277.785156 412.589844 275.953125 408.808594 272.75 402.191406 C 269.542969 395.585938 264.90625 386.179688 259.304688 374.933594 C 256.46875 369.335938 253.394531 363.265625 250.144531 356.847656 C 246.820312 350.480469 243.3125 343.757812 239.679688 336.808594 C 236.03125 329.878906 232.105469 322.796875 228.148438 315.59375 C 224.203125 308.382812 220.019531 301.160156 215.777344 293.980469 C 213.648438 290.394531 211.519531 286.808594 209.394531 283.242188 C 207.195312 279.722656 205.058594 276.179688 202.835938 272.734375 C 198.378906 265.851562 194.058594 259.035156 189.558594 252.660156 C 187.335938 249.453125 185.113281 246.324219 182.890625 243.300781 C 181.789062 241.78125 180.699219 240.277344 179.621094 238.792969 C 178.503906 237.339844 177.398438 235.90625 176.308594 234.492188 C 175.214844 233.074219 174.136719 231.683594 173.070312 230.308594 C 171.96875 228.96875 170.882812 227.652344 169.816406 226.355469 C 168.753906 225.046875 167.710938 223.761719 166.6875 222.503906 C 165.617188 221.285156 164.566406 220.089844 163.539062 218.921875 C 162.507812 217.75 161.496094 216.601562 160.511719 215.480469 C 159.515625 214.363281 158.476562 213.347656 157.511719 212.300781 C 155.539062 210.253906 153.761719 208.203125 151.886719 206.503906 C 150.054688 204.738281 148.339844 203.09375 146.753906 201.566406 C 145.097656 200.132812 143.578125 198.8125 142.199219 197.621094 C 139.496094 195.164062 137.082031 193.523438 135.558594 192.28125 C 134 191.074219 133.167969 190.433594 133.167969 190.433594 " fill-opacity="1" fill-rule="nonzero"/><path fill="#46170f" d="M 106.117188 217.792969 C 106.117188 217.792969 108.949219 220.050781 113.792969 224.117188 C 116.195312 226.171875 119.214844 228.539062 122.390625 231.609375 C 125.625 234.613281 129.300781 237.992188 133.210938 241.785156 C 137.035156 245.636719 141.179688 249.8125 145.484375 254.316406 C 149.726562 258.863281 154.164062 263.695312 158.703125 268.742188 C 163.15625 273.859375 167.722656 279.179688 172.300781 284.636719 C 176.800781 290.152344 181.386719 295.75 185.84375 301.441406 C 190.242188 307.179688 194.738281 312.851562 198.921875 318.605469 C 203.179688 324.304688 207.292969 329.96875 211.183594 335.519531 C 215.132812 341.027344 218.777344 346.464844 222.257812 351.609375 C 225.773438 356.730469 228.925781 361.683594 231.875 366.226562 C 237.726562 375.355469 242.398438 383.089844 245.578125 388.558594 C 248.777344 394.015625 250.480469 397.210938 250.480469 397.210938 C 250.480469 397.210938 248.238281 394.378906 244.3125 389.417969 C 242.371094 386.929688 240.007812 383.910156 237.300781 380.441406 C 234.605469 376.96875 231.527344 373.078125 228.261719 368.773438 C 221.65625 360.222656 213.949219 350.253906 205.691406 339.570312 C 201.570312 334.230469 197.308594 328.71875 192.976562 323.113281 C 188.671875 317.492188 184.199219 311.867188 179.789062 306.1875 C 175.339844 300.542969 170.894531 294.894531 166.515625 289.335938 C 162.085938 283.820312 157.726562 278.390625 153.507812 273.140625 C 149.242188 267.921875 145.113281 262.886719 141.203125 258.109375 C 137.175781 253.433594 133.445312 248.9375 129.996094 244.785156 C 126.4375 240.753906 123.199219 237.027344 120.339844 233.699219 C 117.507812 230.347656 114.847656 227.566406 112.738281 225.210938 C 108.484375 220.53125 106.117188 217.792969 106.117188 217.792969 " fill-opacity="1" fill-rule="nonzero"/><path fill="#46170f" d="M 311.324219 503.667969 C 318.089844 509.769531 368.992188 540.820312 373.566406 538.539062 C 378.144531 536.269531 378.144531 531.722656 380.890625 525.652344 C 382.261719 522.621094 385.46875 524.136719 389.355469 525.652344 C 393.246094 527.167969 397.824219 528.683594 401.945312 525.652344 C 410.183594 519.585938 394.621094 512.765625 401.945312 507.457031 C 405.421875 504.933594 410.539062 506.425781 414.960938 507.917969 C 419.835938 509.5625 423.867188 511.207031 423.914062 507.457031 C 424.105469 492.34375 367.164062 475.613281 349.773438 474.859375 C 332.378906 474.097656 285.941406 480.765625 311.324219 503.667969 " fill-opacity="1" fill-rule="nonzero"/><path fill="#46170f" d="M 473.234375 487.03125 C 480 493.136719 530.90625 524.183594 535.476562 521.90625 C 540.058594 519.632812 540.058594 515.085938 542.800781 509.019531 C 544.175781 505.984375 547.378906 507.503906 551.273438 509.019531 C 555.160156 510.535156 559.738281 512.050781 563.855469 509.019531 C 572.097656 502.953125 556.535156 496.132812 563.855469 490.820312 C 567.335938 488.296875 572.453125 489.789062 576.867188 491.28125 C 581.746094 492.929688 585.78125 494.574219 585.828125 490.820312 C 586.019531 475.710938 529.074219 458.980469 511.6875 458.226562 C 494.292969 457.464844 447.859375 464.128906 473.234375 487.03125 " fill-opacity="1" fill-rule="nonzero"/><path fill="#46170f" d="M 625.65625 182.1875 C 630.757812 179.566406 645.015625 152.160156 643.164062 150.402344 C 641.320312 148.644531 638.363281 149.191406 634.210938 148.703125 C 630.046875 148.210938 637.09375 142.292969 632.476562 139.363281 C 630.140625 137.878906 628.179688 139.132812 626.28125 140.390625 C 624.441406 141.609375 622.667969 142.832031 620.675781 141.542969 C 616.632812 138.933594 623.523438 130.984375 618.875 131.804688 C 609.058594 133.53125 602.882812 160.792969 603.8125 168.59375 C 604.75 176.398438 620.550781 184.8125 625.65625 182.1875 " fill-opacity="1" fill-rule="nonzero"/><path fill="#6a3619" d="M 509.953125 82.234375 C 509.953125 82.234375 522.765625 118.988281 536.460938 118.988281 C 547.148438 118.988281 557.835938 101.464844 546.292969 89.074219 C 536.960938 79.054688 509.953125 82.234375 509.953125 82.234375 " fill-opacity="1" fill-rule="nonzero"/><path fill="#561d14" d="M 516.90625 89.316406 C 516.90625 89.316406 524.503906 93.550781 529.910156 103.859375 C 532.722656 109.207031 542.605469 104.425781 536.535156 94.378906 C 531.628906 86.25 516.90625 89.316406 516.90625 89.316406 " fill-opacity="1" fill-rule="nonzero"/><g clip-path="url(#3615a26e3a)"><path fill="#78411d" d="M 541.980469 215.574219 C 540.058594 187.066406 544.949219 183.890625 544.949219 149.542969 C 544.949219 93.960938 491.410156 48.902344 425.351562 48.902344 C 359.304688 48.902344 305.753906 93.960938 305.753906 149.542969 C 305.753906 182.550781 317.976562 187.121094 317.976562 208.308594 C 317.976562 231.707031 234.152344 266.855469 241.847656 378.398438 C 248.621094 476.601562 337.953125 511.59375 422.050781 511.59375 C 506.148438 511.59375 574.324219 454.222656 574.324219 383.457031 C 574.324219 289.929688 543.882812 243.828125 541.980469 215.574219 " fill-opacity="1" fill-rule="nonzero"/></g><path fill="#e2c3be" d="M 317.8125 210.09375 C 317.914062 209.5 317.976562 208.914062 317.976562 208.335938 C 317.976562 208.914062 317.921875 209.5 317.824219 210.089844 C 317.820312 210.089844 317.816406 210.09375 317.8125 210.09375 M 305.753906 149.546875 C 305.753906 149.519531 305.753906 149.496094 305.753906 149.46875 C 305.753906 149.492188 305.753906 149.523438 305.753906 149.546875 M 305.753906 149.449219 C 305.753906 149.429688 305.753906 149.410156 305.753906 149.394531 C 305.753906 149.410156 305.753906 149.429688 305.753906 149.449219 M 305.753906 149.371094 C 305.753906 149.351562 305.753906 149.335938 305.753906 149.316406 C 305.753906 149.339844 305.753906 149.351562 305.753906 149.371094 M 305.753906 149.296875 C 305.753906 149.269531 305.753906 149.25 305.753906 149.226562 C 305.753906 149.246094 305.753906 149.273438 305.753906 149.296875 M 305.753906 149.21875 C 305.753906 149.195312 305.753906 149.167969 305.753906 149.144531 C 305.753906 149.167969 305.753906 149.195312 305.753906 149.21875 M 305.753906 149.121094 C 305.753906 149.105469 305.753906 149.085938 305.753906 149.070312 C 305.753906 149.085938 305.753906 149.105469 305.753906 149.121094 M 305.753906 149.039062 C 305.753906 149.023438 305.753906 149.011719 305.753906 148.996094 C 305.753906 149.011719 305.753906 149.023438 305.753906 149.039062 M 305.753906 148.964844 C 305.753906 148.949219 305.757812 148.933594 305.757812 148.914062 C 305.757812 148.9375 305.753906 148.949219 305.753906 148.964844 M 305.757812 148.890625 C 305.757812 148.867188 305.757812 148.847656 305.757812 148.824219 C 305.757812 148.847656 305.757812 148.867188 305.757812 148.890625 M 305.757812 148.785156 C 305.757812 148.769531 305.757812 148.761719 305.757812 148.75 C 305.757812 148.761719 305.757812 148.773438 305.757812 148.785156 M 305.757812 148.707031 C 305.757812 148.699219 305.757812 148.6875 305.757812 148.675781 C 305.757812 148.6875 305.757812 148.695312 305.757812 148.707031 M 305.757812 148.636719 C 305.757812 148.625 305.757812 148.617188 305.757812 148.609375 C 305.757812 148.613281 305.757812 148.628906 305.757812 148.636719 M 305.757812 148.4375 C 305.757812 148.433594 305.757812 148.429688 305.757812 148.425781 C 305.757812 148.433594 305.757812 148.433594 305.757812 148.4375 M 305.761719 148.371094 C 305.761719 148.367188 305.761719 148.363281 305.761719 148.359375 C 305.761719 148.363281 305.761719 148.367188 305.761719 148.371094 " fill-opacity="1" fill-rule="nonzero"/><path fill="#6c351a" d="M 317.824219 210.085938 C 317.925781 209.496094 317.976562 208.914062 317.976562 208.335938 C 317.976562 208.328125 317.976562 208.320312 317.976562 208.308594 C 317.976562 187.125 305.753906 182.550781 305.753906 149.546875 C 305.753906 149.523438 305.753906 149.496094 305.753906 149.472656 C 305.753906 149.460938 305.753906 149.453125 305.753906 149.445312 C 305.753906 149.429688 305.753906 149.410156 305.753906 149.390625 C 305.753906 149.386719 305.753906 149.378906 305.753906 149.371094 C 305.753906 149.347656 305.753906 149.335938 305.753906 149.3125 C 305.753906 149.308594 305.753906 149.300781 305.753906 149.292969 C 305.753906 149.273438 305.753906 149.246094 305.753906 149.226562 C 305.753906 149.222656 305.753906 149.222656 305.753906 149.21875 C 305.753906 149.195312 305.753906 149.167969 305.753906 149.144531 C 305.753906 149.136719 305.753906 149.125 305.753906 149.121094 C 305.753906 149.105469 305.753906 149.085938 305.753906 149.070312 C 305.753906 149.058594 305.753906 149.050781 305.757812 149.039062 C 305.757812 149.023438 305.757812 149.011719 305.757812 148.996094 C 305.757812 148.984375 305.757812 148.976562 305.757812 148.964844 C 305.757812 148.945312 305.757812 148.933594 305.757812 148.917969 C 305.757812 148.90625 305.757812 148.898438 305.757812 148.890625 C 305.757812 148.863281 305.757812 148.84375 305.757812 148.820312 C 305.757812 148.808594 305.757812 148.792969 305.757812 148.78125 C 305.757812 148.773438 305.757812 148.757812 305.757812 148.746094 C 305.757812 148.730469 305.757812 148.722656 305.757812 148.710938 C 305.757812 148.695312 305.757812 148.6875 305.757812 148.675781 C 305.757812 148.660156 305.757812 148.648438 305.757812 148.632812 C 305.757812 148.628906 305.757812 148.613281 305.757812 148.605469 C 305.757812 148.550781 305.761719 148.492188 305.761719 148.4375 C 305.761719 148.433594 305.761719 148.429688 305.761719 148.425781 C 305.761719 148.40625 305.761719 148.390625 305.761719 148.367188 C 305.761719 148.363281 305.761719 148.363281 305.761719 148.359375 C 305.761719 148.335938 305.761719 148.316406 305.761719 148.296875 C 306.078125 126.359375 314.746094 106.117188 329.203125 89.695312 C 328.453125 93.550781 327.960938 97.519531 327.765625 101.601562 C 327.234375 112.734375 317.480469 129.03125 321.949219 167.28125 C 323.871094 183.6875 332.175781 203.054688 317.824219 210.085938 " fill-opacity="1" fill-rule="nonzero"/><path fill="#622e17" d="M 422.046875 511.59375 C 414.691406 511.59375 407.296875 511.328125 399.921875 510.773438 C 366.984375 508.296875 334.425781 500.113281 307.460938 484.535156 C 276.46875 466.625 252.878906 438.953125 244.625 398.960938 C 244.46875 398.210938 244.316406 397.449219 244.175781 396.6875 C 243.066406 390.847656 242.28125 384.757812 241.84375 378.402344 C 241.796875 377.695312 241.75 376.992188 241.710938 376.296875 C 242.132812 376.273438 242.570312 376.253906 243.027344 376.246094 C 243.050781 376.246094 243.070312 376.246094 243.09375 376.246094 C 247.140625 376.246094 241.066406 383 246 385.261719 C 246.625 385.546875 247.203125 385.667969 247.742188 385.667969 C 249.386719 385.667969 250.703125 384.542969 251.984375 383.417969 C 253.261719 382.292969 254.503906 381.171875 255.988281 381.171875 C 256.433594 381.171875 256.902344 381.269531 257.398438 381.503906 C 261.433594 383.390625 256.820312 391.070312 259.660156 391.070312 C 259.890625 391.070312 260.167969 391.019531 260.507812 390.910156 C 268.246094 388.433594 271.285156 369.46875 271.070312 358.421875 C 271.59375 357.460938 272.015625 356.292969 272.308594 354.902344 C 272.3125 354.886719 272.316406 354.863281 272.320312 354.84375 C 272.324219 354.820312 272.328125 354.796875 272.332031 354.773438 C 276.175781 335.789062 306.113281 300.53125 344.332031 280.535156 C 342.6875 299.71875 324.507812 312.699219 317.480469 330 C 308.453125 352.230469 308.710938 375.519531 317.140625 397.847656 C 332.199219 437.714844 371.8125 456.046875 411.648438 461.054688 C 418.015625 461.855469 424.34375 462.242188 430.628906 462.242188 C 488.777344 462.242188 542.5 428.96875 574.289062 381.101562 C 574.300781 381.890625 574.320312 382.664062 574.320312 383.457031 C 574.320312 414.035156 561.59375 442.113281 540.351562 464.140625 C 526.644531 478.355469 509.394531 490.050781 489.726562 498.273438 C 469.339844 506.800781 446.355469 511.59375 422.046875 511.59375 M 241.875 349.964844 C 242.304688 344.246094 242.992188 338.777344 243.902344 333.53125 C 244.558594 336.640625 245.453125 339.566406 246.527344 342.265625 C 245.21875 343.503906 243.5625 346.382812 241.875 349.964844 " fill-opacity="1" fill-rule="nonzero"/><path fill="#78411d" d="M 338.894531 82.234375 C 338.894531 82.234375 326.082031 118.988281 312.386719 118.988281 C 301.703125 118.988281 291.011719 101.464844 302.558594 89.074219 C 311.886719 79.054688 338.894531 82.234375 338.894531 82.234375 " fill-opacity="1" fill-rule="nonzero"/><path fill="#561d14" d="M 332.601562 89.316406 C 332.601562 89.316406 325 93.550781 319.59375 103.859375 C 316.785156 109.207031 306.90625 104.425781 312.972656 94.378906 C 317.882812 86.25 332.601562 89.316406 332.601562 89.316406 " fill-opacity="1" fill-rule="nonzero"/><path fill="#46170f" d="M 453.648438 141.015625 C 453.648438 146.132812 434.972656 167.28125 423.863281 167.28125 C 412.746094 167.28125 394.078125 146.132812 394.078125 141.015625 C 394.078125 135.898438 407.414062 131.742188 423.863281 131.742188 C 440.308594 131.742188 453.648438 135.898438 453.648438 141.015625 " fill-opacity="1" fill-rule="nonzero"/><path fill="#2f0e08" d="M 493.554688 135.660156 C 493.554688 140.96875 489.25 145.273438 483.933594 145.273438 C 478.617188 145.273438 474.316406 140.96875 474.316406 135.660156 C 474.316406 130.351562 478.617188 126.042969 483.933594 126.042969 C 489.25 126.042969 493.554688 130.351562 493.554688 135.660156 " fill-opacity="1" fill-rule="nonzero"/><path fill="#2f0e08" d="M 372.566406 135.660156 C 372.566406 140.96875 368.253906 145.273438 362.941406 145.273438 C 357.628906 145.273438 353.324219 140.96875 353.324219 135.660156 C 353.324219 130.351562 357.628906 126.042969 362.941406 126.042969 C 368.253906 126.042969 372.566406 130.351562 372.566406 135.660156 " fill-opacity="1" fill-rule="nonzero"/><path fill="#ffffff" d="M 417.519531 233.675781 C 412.792969 231.953125 407.0625 228.859375 406.597656 223.90625 C 405.277344 209.804688 403.171875 196.53125 403.171875 196.53125 L 411.410156 196.933594 L 418.78125 189.882812 L 423.808594 177.753906 C 423.808594 177.753906 422.894531 211.675781 422.894531 220.222656 C 422.894531 228.769531 420.921875 234.921875 417.519531 233.675781 " fill-opacity="1" fill-rule="nonzero"/><path fill="#ffffff" d="M 430.199219 233.675781 C 434.925781 231.953125 440.660156 228.859375 441.121094 223.90625 C 442.441406 209.804688 444.523438 196.691406 444.523438 196.691406 L 437.058594 196.769531 L 426.476562 188.273438 L 423.914062 177.753906 C 423.914062 177.753906 424.777344 211.351562 424.777344 219.902344 C 424.777344 228.449219 426.796875 234.921875 430.199219 233.675781 " fill-opacity="1" fill-rule="nonzero"/><path fill="#46170f" d="M 423.402344 166 C 423.402344 166 422.039062 183.148438 424.457031 188.167969 C 425.902344 191.183594 431.265625 199.335938 436.394531 200.617188 C 441.523438 201.898438 478.722656 180.109375 478.722656 180.109375 C 478.722656 180.109375 441.203125 196.449219 437.355469 193.890625 C 433.507812 191.324219 428.054688 187.824219 428.054688 187.824219 L 423.402344 166 " fill-opacity="1" fill-rule="nonzero"/><path fill="#46170f" d="M 423.402344 166 C 423.402344 166 424.722656 185.496094 423.539062 188.007812 C 422.160156 190.941406 416.566406 199.335938 411.4375 200.617188 C 406.304688 201.898438 369.109375 180.109375 369.109375 180.109375 C 369.109375 180.109375 406.625 196.449219 410.472656 193.890625 C 414.324219 191.324219 418.621094 186.355469 418.621094 186.355469 L 423.402344 166 " fill-opacity="1" fill-rule="nonzero"/><path fill="#78411d" d="M 516.90625 220.699219 C 552.234375 211.726562 595.84375 184.378906 602.257812 166 C 608.671875 147.621094 633.027344 172.9375 626.621094 205.792969 C 620.214844 238.648438 583.671875 286.089844 551.28125 287.367188 C 518.886719 288.652344 481.578125 229.675781 516.90625 220.699219 " fill-opacity="1" fill-rule="nonzero"/><path fill="#e2c3be" d="M 561.777344 285.449219 C 568.851562 283.199219 575.960938 279.105469 582.738281 273.789062 C 575.960938 279.105469 568.855469 283.195312 561.78125 285.449219 L 561.777344 285.449219 " fill-opacity="1" fill-rule="nonzero"/><path fill="#6c351a" d="M 561.769531 285.453125 C 561.769531 285.449219 561.773438 285.449219 561.777344 285.449219 C 561.773438 285.449219 561.769531 285.449219 561.769531 285.453125 " fill-opacity="1" fill-rule="nonzero"/><path fill="#e2c3be" d="M 582.742188 273.785156 C 582.757812 273.773438 582.769531 273.761719 582.78125 273.753906 C 582.769531 273.761719 582.753906 273.773438 582.742188 273.785156 M 582.792969 273.746094 C 582.804688 273.738281 582.8125 273.730469 582.824219 273.71875 C 582.816406 273.726562 582.800781 273.738281 582.792969 273.746094 M 582.835938 273.710938 C 582.839844 273.707031 582.84375 273.703125 582.851562 273.699219 C 582.84375 273.703125 582.839844 273.707031 582.835938 273.710938 M 626.617188 205.792969 C 626.621094 205.777344 626.628906 205.753906 626.628906 205.734375 C 626.628906 205.753906 626.621094 205.777344 626.617188 205.792969 " fill-opacity="1" fill-rule="nonzero"/><path fill="#6c351a" d="M 561.523438 285.492188 C 558.871094 285.492188 569.808594 266.363281 580.023438 257.882812 C 590.890625 248.867188 600.140625 235.246094 606.097656 222.269531 C 614.417969 204.132812 617.890625 181.226562 613.121094 161.007812 C 621.667969 165.730469 630.804688 184.050781 626.640625 205.667969 C 626.636719 205.691406 626.632812 205.710938 626.628906 205.734375 C 626.625 205.753906 626.621094 205.777344 626.617188 205.792969 C 622.277344 228.027344 604.152344 256.929688 582.847656 273.699219 C 582.839844 273.703125 582.835938 273.707031 582.832031 273.710938 C 582.828125 273.714844 582.824219 273.71875 582.824219 273.71875 C 582.8125 273.730469 582.804688 273.738281 582.792969 273.75 C 582.789062 273.75 582.785156 273.75 582.78125 273.753906 C 582.769531 273.765625 582.757812 273.773438 582.746094 273.785156 C 582.742188 273.785156 582.738281 273.789062 582.738281 273.789062 C 575.957031 279.109375 568.855469 283.199219 561.773438 285.449219 C 561.773438 285.449219 561.769531 285.449219 561.769531 285.453125 C 561.679688 285.480469 561.597656 285.492188 561.523438 285.492188 " fill-opacity="1" fill-rule="nonzero"/><path fill="#46170f" d="M 246.957031 341.90625 C 242.25 345.195312 231.84375 374.285156 233.917969 375.769531 C 235.988281 377.261719 238.839844 376.324219 243.027344 376.242188 C 247.210938 376.167969 241.039062 382.988281 246.003906 385.261719 C 248.511719 386.410156 250.28125 384.914062 251.984375 383.417969 C 253.648438 381.953125 255.246094 380.492188 257.398438 381.5 C 261.761719 383.542969 256.015625 392.351562 260.507812 390.910156 C 270 387.871094 272.421875 360.027344 270.4375 352.417969 C 268.453125 344.808594 251.660156 338.609375 246.957031 341.90625 " fill-opacity="1" fill-rule="nonzero"/><path fill="#78411d" d="M 344.882812 280.246094 C 306.402344 300.191406 276.195312 335.699219 272.332031 354.773438 C 268.472656 373.851562 240.910156 352.070312 242.796875 318.648438 C 244.691406 285.226562 277.003906 241.324219 306.378906 227.613281 C 343.171875 210.445312 381.15625 261.449219 344.882812 280.246094 " fill-opacity="1" fill-rule="nonzero"/><path fill="#40130d" d="M 265.558594 361.882812 C 265.492188 361.882812 265.425781 361.882812 265.363281 361.878906 C 265.425781 361.882812 265.492188 361.882812 265.558594 361.882812 " fill-opacity="1" fill-rule="nonzero"/><path fill="#592614" d="M 271.070312 358.421875 C 271.597656 357.460938 272.015625 356.292969 272.308594 354.902344 C 272.015625 356.292969 271.597656 357.460938 271.070312 358.421875 " fill-opacity="1" fill-rule="nonzero"/><path fill="#40130d" d="M 265.558594 361.882812 C 267.832031 361.882812 269.773438 360.785156 271.070312 358.421875 C 269.773438 360.785156 267.832031 361.882812 265.558594 361.882812 " fill-opacity="1" fill-rule="nonzero"/><path fill="#6c351a" d="M 344.332031 280.535156 C 344.515625 280.4375 344.695312 280.34375 344.882812 280.246094 C 344.910156 280.234375 344.941406 280.21875 344.96875 280.199219 C 344.941406 280.21875 344.910156 280.234375 344.882812 280.246094 C 344.695312 280.34375 344.515625 280.4375 344.332031 280.535156 " fill-opacity="1" fill-rule="nonzero"/><path fill="#6c351a" d="M 344.96875 280.199219 C 344.984375 280.195312 344.996094 280.1875 345.011719 280.179688 C 344.996094 280.1875 344.984375 280.195312 344.96875 280.199219 M 345.019531 280.175781 C 345.023438 280.175781 345.023438 280.175781 345.023438 280.175781 L 345.019531 280.175781 " fill-opacity="1" fill-rule="nonzero"/><path fill="#6c351a" d="M 265.558594 361.882812 C 265.492188 361.882812 265.425781 361.882812 265.363281 361.878906 C 256.128906 361.625 241.695312 343.660156 242.761719 319.375 C 242.761719 319.367188 242.761719 319.359375 242.761719 319.347656 C 242.769531 319.164062 242.777344 318.976562 242.789062 318.792969 C 242.789062 318.792969 242.789062 318.789062 242.789062 318.785156 C 242.792969 318.738281 242.792969 318.695312 242.796875 318.648438 C 242.824219 318.277344 242.867188 317.890625 242.894531 317.519531 C 248.847656 326.957031 254.78125 330.820312 260.964844 330.820312 C 267.964844 330.820312 275.285156 325.867188 283.316406 318.421875 C 306.832031 296.628906 340.15625 276.722656 352.355469 274.964844 C 350.359375 276.871094 347.957031 278.636719 345.023438 280.175781 C 345.023438 280.175781 345.023438 280.175781 345.019531 280.175781 C 345.015625 280.175781 345.015625 280.175781 345.011719 280.179688 C 344.996094 280.1875 344.984375 280.195312 344.96875 280.199219 C 344.941406 280.21875 344.910156 280.234375 344.882812 280.246094 C 344.695312 280.34375 344.515625 280.4375 344.332031 280.535156 C 306.117188 300.527344 276.175781 335.785156 272.332031 354.773438 C 272.328125 354.796875 272.324219 354.820312 272.320312 354.84375 C 272.316406 354.863281 272.3125 354.882812 272.308594 354.902344 C 272.015625 356.292969 271.597656 357.460938 271.070312 358.421875 C 269.773438 360.785156 267.832031 361.882812 265.558594 361.882812 " fill-opacity="1" fill-rule="nonzero"/></svg>