<svg xmlns="http://www.w3.org/2000/svg" xmlns:xlink="http://www.w3.org/1999/xlink" width="940" zoomAndPan="magnify" viewBox="0 0 705 591.000005" height="788" preserveAspectRatio="xMidYMid meet" version="1.0"><defs><clipPath id="21649ba00c"><path d="M 74.6875 142 L 631.054688 142 L 631.054688 498.367188 L 74.6875 498.367188 Z M 74.6875 142 " clip-rule="nonzero"/></clipPath></defs><path fill="#d2ab4d" d="M 248.757812 367.085938 C 245.902344 371.371094 166.007812 458.460938 166.007812 458.460938 C 166.007812 458.460938 118.980469 449.882812 108.980469 485.621094 C 108.980469 485.621094 151.722656 501.347656 176.011719 492.769531 C 176.011719 492.769531 255.902344 466.796875 292.933594 431.296875 C 292.933594 431.296875 402.710938 458.574219 489.75 418.550781 L 489.75 451.3125 C 489.75 451.3125 458.433594 452.738281 457.007812 477.042969 C 457.007812 477.042969 534.039062 497.054688 534.039062 448.449219 L 550.113281 390.792969 L 579.644531 332.890625 L 525.46875 287.269531 L 248.757812 367.085938 " fill-opacity="1" fill-rule="nonzero"/><path fill="#95471d" d="M 445.769531 299.453125 C 437.605469 298.210938 429.746094 296.957031 422.675781 296.8125 C 429.761719 296.976562 437.621094 298.222656 445.769531 299.453125 " fill-opacity="1" fill-rule="nonzero"/><path fill="#95471d" d="M 421.371094 296.800781 C 421.65625 296.800781 421.941406 296.804688 422.230469 296.808594 C 421.941406 296.804688 421.65625 296.800781 421.371094 296.800781 " fill-opacity="1" fill-rule="nonzero"/><path fill="#95471d" d="M 515.347656 278.089844 C 498.808594 306.871094 470.898438 303.238281 445.769531 299.453125 C 437.605469 298.210938 429.746094 296.957031 422.675781 296.8125 C 422.527344 296.808594 422.378906 296.8125 422.230469 296.808594 C 421.941406 296.804688 421.65625 296.800781 421.371094 296.800781 C 418.851562 296.789062 416.429688 296.929688 414.144531 297.273438 C 385.683594 301.5625 395.6875 338.613281 320.082031 342.902344 C 319.078125 342.957031 318.089844 342.980469 317.121094 342.992188 C 295.605469 343.175781 281.871094 331.652344 273.285156 315.402344 C 262.304688 324.632812 247.089844 331.050781 226.257812 332.890625 C 226.257812 332.890625 212.617188 337.089844 193.992188 340.113281 C 165.957031 344.664062 126.628906 346.574219 105.523438 327.53125 C 106.117188 327.054688 106.476562 326.820312 106.476562 326.820312 C 122.671875 344.332031 158.507812 338.96875 158.507812 338.96875 C 213.277344 334.921875 190.300781 268.683594 190.300781 268.683594 C 183.632812 254.746094 178.035156 239.375 178.152344 237.46875 C 185.179688 191.964844 214.113281 165.753906 237.089844 151.8125 C 252.453125 154.316406 269.121094 161.34375 286.386719 175.878906 C 286.386719 175.878906 305.242188 227.136719 297.144531 271.175781 C 318.914062 279.914062 349.527344 282.210938 392.710938 270.109375 L 516.777344 204.472656 C 516.777344 204.472656 521.058594 203.753906 528.085938 203.753906 C 532.851562 224.007812 530.707031 251.527344 515.347656 278.089844 Z M 159.222656 221.984375 C 159.222656 221.984375 169.105469 179.332031 202.5625 153.484375 C 173.390625 161.105469 154.460938 181.359375 154.460938 181.359375 C 142.316406 201.609375 119.933594 238.183594 119.933594 238.183594 C 116.957031 239.96875 114.101562 241.640625 111.476562 243.304688 C 122.074219 242.472656 146.246094 238.777344 159.222656 221.984375 Z M 588.6875 142.640625 C 596.070312 126.441406 600.71875 109.167969 599.640625 91.652344 C 599.640625 91.652344 613.929688 88.792969 611.074219 114.527344 C 610.953125 114.527344 612.980469 125.960938 607.625 147.527344 L 588.6875 142.640625 " fill-opacity="1" fill-rule="nonzero"/><g clip-path="url(#21649ba00c)"><path fill="#eadaa0" d="M 237.210938 151.933594 C 224.589844 149.789062 212.921875 150.863281 202.5625 153.597656 C 169.105469 179.453125 159.222656 222.101562 159.222656 222.101562 C 146.246094 238.898438 122.074219 242.59375 111.597656 243.425781 C 108.382812 243.664062 106.476562 243.664062 106.476562 243.664062 C 106.476562 243.664062 74.6875 248.308594 74.6875 299.777344 C 74.6875 345.757812 100.050781 331.105469 105.523438 327.53125 C 106.117188 327.054688 106.476562 326.820312 106.476562 326.820312 C 122.671875 344.332031 158.507812 338.96875 158.507812 338.96875 C 213.277344 334.921875 190.300781 268.683594 190.300781 268.683594 C 183.632812 254.746094 178.035156 239.375 178.152344 237.46875 C 185.179688 191.964844 214.113281 165.753906 237.210938 151.933594 Z M 630.839844 368.632812 C 630.839844 368.632812 630.839844 445.714844 598.097656 481.332031 C 598.097656 481.332031 546.78125 498.484375 542.492188 471.328125 C 542.492188 471.328125 532.492188 458.460938 561.066406 451.3125 L 573.925781 405.683594 C 573.925781 405.683594 539.757812 394.246094 534.039062 361.484375 C 534.039062 361.484375 504.035156 405.683594 402.832031 414.261719 C 402.832031 414.261719 409.976562 442.734375 365.800781 461.316406 L 294.484375 498.367188 L 221.734375 498.367188 C 221.734375 498.367188 220.304688 466.914062 273.050781 468.347656 L 320.082031 424.148438 C 320.082031 424.148438 255.679688 433.996094 193.992188 340.113281 C 212.617188 337.089844 226.257812 332.890625 226.257812 332.890625 C 247.089844 331.050781 262.304688 324.632812 273.285156 315.402344 C 281.871094 331.652344 295.605469 343.175781 317.121094 342.992188 C 318.171875 342.984375 319.230469 342.960938 320.320312 342.902344 C 395.804688 338.613281 385.804688 301.5625 414.378906 297.273438 C 416.59375 296.9375 418.933594 296.800781 421.371094 296.800781 C 421.65625 296.800781 421.941406 296.804688 422.230469 296.808594 C 422.378906 296.8125 422.527344 296.8125 422.675781 296.8125 C 429.761719 296.976562 437.621094 298.222656 445.769531 299.453125 C 470.914062 303.273438 498.929688 307.011719 515.585938 278.089844 C 530.828125 251.40625 533.085938 224.007812 528.324219 203.753906 C 532.730469 203.753906 538.207031 204.113281 544.398438 205.183594 C 558.566406 190.292969 577.140625 168.015625 588.6875 142.761719 L 607.625 147.644531 C 603.335938 164.679688 594.40625 188.03125 576.1875 217.097656 C 605.359375 234.96875 633.816406 276.066406 630.839844 368.632812 " fill-opacity="1" fill-rule="nonzero"/></g><path fill="#12100f" d="M 220.542969 232.941406 C 220.542969 232.941406 219.945312 179.453125 184.464844 232.941406 C 184.464844 232.941406 210.894531 204.113281 220.542969 232.941406 Z M 153.628906 224.839844 C 153.628906 224.839844 153.269531 189.460938 129.816406 224.839844 C 129.816406 224.839844 147.316406 205.78125 153.628906 224.839844 Z M 151.84375 320.625 C 151.84375 320.625 146.246094 330.273438 127.550781 331.105469 C 127.550781 331.105469 114.933594 331.699219 105.765625 328.011719 C 105.644531 328.011719 105.523438 328.011719 105.40625 328.011719 C 105.050781 328.011719 104.691406 327.890625 104.332031 327.652344 C 103.738281 327.292969 103.140625 326.820312 102.546875 326.339844 C 93.617188 318.480469 93.738281 301.441406 94.808594 291.675781 C 78.617188 295.488281 74.925781 279.28125 74.925781 279.28125 C 73.855469 262.367188 82.070312 261.058594 82.070312 261.058594 C 129.097656 261.058594 124.335938 282.742188 124.335938 282.742188 C 119.933594 300.726562 99.691406 290.125 99.691406 290.125 C 99.453125 290.246094 99.332031 290.246094 99.09375 290.363281 C 98.027344 298.824219 97.667969 316.929688 105.644531 323.484375 C 106.003906 323.71875 106.359375 324.078125 106.714844 324.199219 C 106.835938 324.199219 106.835938 324.316406 106.835938 324.316406 C 109.214844 325.746094 115.167969 328.484375 127.3125 327.890625 C 127.3125 327.890625 141.003906 327.175781 149.339844 317.761719 C 149.339844 317.761719 150.890625 316.214844 152.078125 317.761719 C 151.84375 317.882812 153.03125 319.3125 151.84375 320.625 " fill-opacity="1" fill-rule="nonzero"/><path fill="#5f2c17" d="M 105.128906 326.738281 C 101.058594 329.394531 86.027344 338.152344 78.558594 323.644531 C 78.160156 356.667969 90.523438 374.832031 90.523438 374.832031 C 99.8125 397.464844 135.53125 386.742188 135.53125 386.742188 C 157.933594 380.476562 163.738281 359.839844 164.363281 342.269531 C 142.382812 342.960938 119.523438 339.722656 105.128906 326.738281 Z M 112.394531 242.632812 C 122.871094 241.796875 147.039062 238.105469 160.019531 221.308594 C 160.019531 221.308594 166.371094 193.941406 186.097656 169.761719 C 186.082031 169.742188 186.070312 169.71875 186.054688 169.695312 C 166.363281 193.863281 160.019531 221.1875 160.019531 221.1875 C 147.039062 237.988281 122.871094 241.675781 112.273438 242.515625 C 114.890625 240.84375 117.75 239.179688 120.726562 237.390625 C 120.726562 237.390625 143.113281 200.820312 155.257812 180.566406 C 155.257812 180.566406 163.585938 171.660156 177.707031 163.4375 C 168.320312 160.542969 158.507812 167.894531 158.507812 167.894531 L 117.3125 218.648438 C 111.304688 227.636719 106.191406 236.289062 101.847656 244.59375 C 105.082031 243.195312 107.273438 242.867188 107.273438 242.867188 C 107.273438 242.867188 109.179688 242.867188 112.394531 242.632812 Z M 323.652344 225.914062 C 379.136719 329.796875 333.773438 383.882812 333.773438 383.882812 C 322.222656 405.5625 287.8125 391.265625 287.8125 391.265625 C 247.925781 375.664062 268.882812 317.050781 268.882812 317.050781 C 282.457031 281.429688 247.210938 186.246094 259.359375 171.351562 C 271.503906 156.460938 287.8125 171.351562 287.8125 171.351562 L 323.652344 225.914062 " fill-opacity="1" fill-rule="nonzero"/></svg>