<svg xmlns="http://www.w3.org/2000/svg" xmlns:xlink="http://www.w3.org/1999/xlink" width="940" zoomAndPan="magnify" viewBox="0 0 705 591.000005" height="788" preserveAspectRatio="xMidYMid meet" version="1.0"><defs><clipPath id="1807458fa8"><path d="M 102.914062 102.703125 L 601.964844 102.703125 L 601.964844 490.867188 L 102.914062 490.867188 Z M 102.914062 102.703125 " clip-rule="nonzero"/></clipPath></defs><path fill="#dbddbf" d="M 524.734375 452.59375 C 524.324219 443.660156 520.597656 435.222656 516.339844 427.363281 C 503.367188 403.457031 481.625 381.101562 454.464844 379.972656 C 435.09375 379.175781 417.066406 389.304688 400.996094 400.160156 C 395.46875 403.890625 389.316406 410.296875 392.433594 416.195312 L 394.957031 414.199219 C 398.511719 423.984375 407.496094 431.042969 417.289062 434.5625 C 427.082031 438.078125 437.691406 438.5 448.09375 438.410156 C 463.121094 438.277344 479.644531 437.617188 491.371094 447.027344 C 496.664062 451.273438 500.53125 457.667969 500.515625 464.460938 C 500.507812 468.203125 499.460938 472.375 501.683594 475.382812 C 504.40625 479.070312 510.277344 478.371094 514.136719 475.894531 C 521.660156 471.074219 525.144531 461.519531 524.734375 452.59375 Z M 310.59375 380.816406 C 314.472656 385.710938 317.753906 391.625 317.265625 397.859375 C 316.484375 407.894531 306.730469 414.457031 298.007812 419.476562 C 287.007812 425.800781 276 432.128906 265 438.453125 C 254.839844 444.296875 244.546875 450.195312 233.253906 453.324219 C 221.960938 456.449219 209.378906 456.558594 199.007812 451.09375 C 195.894531 449.453125 192.65625 446.417969 193.519531 443.003906 C 194.34375 439.757812 198.21875 438.558594 201.464844 437.746094 C 234.703125 429.492188 263.5 404.988281 277 373.492188 L 275.027344 374.71875 C 278.808594 368.757812 286.988281 366.691406 293.8125 368.507812 C 300.632812 370.320312 306.207031 375.28125 310.59375 380.816406 " fill-opacity="1" fill-rule="nonzero"/><g clip-path="url(#1807458fa8)"><path fill="#fbfce4" d="M 601.964844 435.371094 C 601.898438 437.183594 601 438.859375 600.015625 440.382812 C 596.976562 445.101562 592.902344 449.144531 588.171875 452.148438 C 583.367188 455.195312 576.179688 456.769531 572.632812 452.320312 C 569.632812 448.550781 571.292969 443.042969 570.6875 438.261719 C 569.976562 432.558594 565.953125 427.863281 561.746094 423.953125 C 555.402344 418.054688 548.203125 413.078125 540.460938 409.195312 C 539.789062 409.601562 539.0625 409.941406 538.34375 410.25 C 524.25 416.320312 508.199219 417.734375 493.269531 414.210938 C 490.9375 413.660156 488.527344 412.988281 486.191406 413.507812 C 483.65625 414.074219 481.648438 415.929688 479.613281 417.539062 C 468.289062 426.5 453.292969 429.105469 438.921875 430.429688 C 414.230469 432.703125 389.265625 432.035156 364.726562 428.453125 C 363.515625 428.277344 362.257812 428.050781 361.015625 427.761719 C 360.730469 428.523438 360.433594 429.273438 360.121094 430.023438 C 349.097656 456.355469 322.308594 471.914062 297.269531 485.597656 C 294.152344 487.300781 291.003906 489.019531 287.570312 489.925781 C 284.070312 490.855469 280.40625 490.910156 276.789062 490.84375 C 266.472656 490.667969 256.179688 489.589844 246.050781 487.632812 C 249.269531 476.855469 258.210938 467.96875 269 464.828125 C 274.023438 463.359375 279.414062 463.050781 284.148438 460.828125 C 288.773438 458.652344 292.382812 454.835938 295.878906 451.101562 C 303.882812 442.5625 311.882812 434.019531 319.882812 425.480469 C 321.578125 423.667969 323.410156 421.328125 322.644531 418.96875 C 322.042969 417.113281 320.082031 416.121094 318.320312 415.285156 C 303.066406 408.019531 289.398438 397.4375 278.535156 384.492188 C 271.496094 376.101562 265.65625 366.78125 259.84375 357.496094 C 255.757812 350.96875 251.605469 344.171875 248.28125 337.132812 C 247.851562 336.800781 247.632812 336.605469 247.632812 336.605469 L 247.449219 335.304688 C 243.289062 326.015625 240.691406 316.316406 241.703125 306.257812 L 243.207031 305.816406 L 242.402344 300.195312 C 221.355469 312.835938 201.585938 299.757812 201.585938 299.757812 C 207.96875 310.984375 201.96875 316.042969 201.96875 316.042969 C 192.300781 327.070312 163.132812 303.601562 163.132812 303.601562 C 167.019531 321.253906 155.609375 319.496094 155.609375 319.496094 C 98.011719 289.667969 103.027344 228.421875 103.027344 228.421875 C 100.246094 204.484375 203.777344 159.429688 203.777344 159.429688 C 205.777344 158.148438 207.792969 156.992188 209.820312 155.957031 L 216.121094 144.566406 C 199.105469 139.953125 194.179688 135.347656 194.179688 135.347656 C 205.113281 98.597656 235.035156 102.859375 235.035156 102.859375 C 248.90625 104.011719 246.097656 135.125 244.296875 148.175781 C 245.230469 148.1875 246.15625 148.214844 247.078125 148.253906 C 233.121094 158.613281 205.386719 183.007812 225.828125 200.785156 C 225.828125 200.785156 246.726562 223.046875 275.320312 222.082031 C 303.914062 221.117188 308.734375 251.910156 308.734375 251.910156 C 308.734375 251.910156 314.828125 275.183594 336.980469 279.539062 C 337.269531 286.066406 337.40625 292.175781 337.4375 297.648438 C 339.636719 301.90625 343.449219 305.242188 347.921875 307.472656 C 347.613281 310.582031 347.644531 313.707031 348.179688 316.835938 C 350.167969 328.476562 362.027344 339.1875 373.195312 335.367188 C 380.089844 333.003906 384.773438 325.964844 391.859375 324.246094 C 398.402344 322.65625 404.976562 326.011719 411.253906 328.441406 C 418.867188 331.390625 427.164062 333.074219 435.242188 331.855469 C 446.746094 330.117188 456.742188 322.609375 463.925781 313.449219 C 468.480469 307.628906 472.054688 301.152344 475.253906 294.464844 C 478.597656 294.6875 481.921875 295.121094 485.175781 295.921875 C 493.800781 298.042969 501.722656 302.804688 507.785156 309.289062 C 510.125 311.792969 512.195312 314.546875 513.914062 317.511719 C 515.78125 320.753906 517.226562 324.222656 518.242188 327.824219 C 520.574219 336.066406 520.636719 344.972656 518.257812 353.207031 C 528.941406 354.613281 539.222656 358.929688 547.71875 365.566406 C 547.683594 365.886719 547.648438 366.207031 547.613281 366.527344 C 552.429688 368.320312 557.027344 371.929688 560.765625 375.5625 C 576.953125 391.289062 590.421875 409.8125 600.390625 430.066406 C 601.214844 431.738281 602.035156 433.507812 601.964844 435.371094 " fill-opacity="1" fill-rule="nonzero"/></g><path fill="#b08150" d="M 241.949219 300.054688 C 242.726562 300.046875 243.703125 299.988281 244.839844 299.695312 C 245.40625 299.539062 246.011719 299.328125 246.621094 298.96875 C 247.222656 298.609375 247.832031 298.089844 248.277344 297.390625 C 248.71875 296.695312 249.027344 295.828125 249.03125 294.910156 C 249.058594 293.992188 248.828125 293.082031 248.488281 292.21875 C 248.144531 291.359375 247.679688 290.527344 247.144531 289.746094 C 246.621094 288.957031 246.019531 288.179688 245.375 287.40625 C 242.761719 284.332031 239.035156 281.46875 234.378906 279.765625 L 233.726562 281.972656 C 237.042969 282.789062 240.8125 283.289062 244.703125 282.421875 C 245.671875 282.199219 246.636719 281.890625 247.570312 281.476562 C 248.515625 281.046875 249.414062 280.496094 250.242188 279.851562 C 251.898438 278.558594 253.269531 276.828125 254.105469 274.777344 C 254.707031 273.28125 254.976562 271.613281 254.761719 269.988281 C 254.578125 268.355469 253.9375 266.90625 253.210938 265.625 C 251.734375 263.089844 249.75 260.976562 247.546875 259.359375 C 245.335938 257.742188 242.910156 256.59375 240.460938 255.945312 C 240.15625 255.867188 239.855469 255.765625 239.546875 255.710938 L 239.15625 255.632812 L 239.101562 255.628906 L 238.851562 255.617188 C 238.757812 255.613281 238.648438 255.613281 238.535156 255.621094 L 238.445312 255.621094 L 238.402344 255.625 L 238.425781 255.617188 L 238.515625 255.585938 C 238.625 255.542969 238.75 255.472656 238.882812 255.375 C 239.039062 255.253906 239.195312 255.136719 239.347656 255.023438 C 239.699219 254.746094 240.03125 254.460938 240.339844 254.160156 C 241.601562 252.964844 242.503906 251.527344 243.019531 250.0625 C 243.539062 248.59375 243.640625 247.0625 243.328125 245.722656 C 243.042969 244.382812 242.234375 243.230469 241.351562 242.5625 C 239.566406 241.15625 237.625 241.121094 236.53125 241.496094 C 235.414062 241.898438 235.082031 242.480469 235.136719 242.523438 C 235.214844 242.636719 235.6875 242.253906 236.679688 242.097656 C 237.636719 241.957031 239.238281 242.195312 240.578125 243.46875 C 241.25 244.089844 241.746094 244.925781 241.910156 246.007812 C 242.085938 247.070312 241.941406 248.28125 241.449219 249.46875 C 240.960938 250.65625 240.160156 251.820312 239.058594 252.773438 C 238.789062 253.019531 238.496094 253.25 238.1875 253.46875 L 237.933594 253.644531 L 237.523438 253.910156 C 237.394531 254 237.195312 254.097656 237.035156 254.191406 C 236.867188 254.285156 236.691406 254.378906 236.484375 254.464844 C 236.277344 254.554688 236.113281 254.648438 235.875 254.734375 L 235.09375 254.996094 C 234.984375 255.035156 234.789062 255.085938 234.605469 255.132812 L 234.058594 255.277344 L 232.835938 255.589844 C 230.742188 256.121094 228.617188 256.65625 226.46875 257.199219 L 227.546875 257.238281 L 227.945312 257.257812 L 228.320312 257.28125 L 228.761719 257.289062 L 229.675781 257.304688 C 231.039062 257.328125 232.417969 257.351562 233.816406 257.378906 C 234.625 257.378906 235.179688 257.4375 235.835938 257.476562 L 236.804688 257.539062 C 237.125 257.5625 237.464844 257.574219 237.730469 257.625 C 238.011719 257.664062 238.289062 257.722656 238.554688 257.785156 L 239.03125 257.894531 C 239.308594 257.949219 239.574219 258.042969 239.84375 258.121094 C 242.015625 258.753906 244.164062 259.828125 246.109375 261.289062 C 248.050781 262.753906 249.777344 264.644531 251.046875 266.863281 C 251.664062 267.964844 252.148438 269.121094 252.265625 270.292969 C 252.417969 271.460938 252.222656 272.683594 251.757812 273.835938 C 251.117188 275.414062 250.027344 276.832031 248.683594 277.878906 C 248.015625 278.40625 247.296875 278.855469 246.542969 279.203125 C 245.769531 279.554688 244.964844 279.820312 244.144531 280.019531 C 240.839844 280.796875 237.394531 280.4375 234.261719 279.730469 L 233.609375 281.941406 C 237.886719 283.40625 241.402344 285.929688 243.933594 288.679688 C 245.175781 290.070312 246.308594 291.492188 246.953125 292.878906 C 247.613281 294.269531 247.683594 295.644531 247.085938 296.675781 C 246.535156 297.71875 245.46875 298.308594 244.515625 298.671875 C 243.53125 299.03125 242.628906 299.199219 241.890625 299.320312 C 240.40625 299.546875 239.570312 299.597656 239.570312 299.742188 C 239.566406 299.855469 240.382812 300.054688 241.949219 300.054688 Z M 348.179688 316.835938 C 350.167969 328.476562 362.027344 339.1875 373.195312 335.367188 C 380.089844 333.003906 384.773438 325.964844 391.859375 324.246094 C 398.402344 322.65625 404.976562 326.011719 411.253906 328.441406 C 418.867188 331.390625 427.164062 333.074219 435.242188 331.855469 C 446.746094 330.117188 456.742188 322.609375 463.925781 313.449219 C 468.480469 307.628906 472.054688 301.152344 475.253906 294.464844 C 471.402344 294.210938 467.515625 294.242188 463.664062 294.355469 C 438.492188 295.078125 413.417969 298.835938 389.140625 305.511719 C 379.257812 308.230469 369.203125 311.46875 358.988281 310.585938 C 355.207031 310.257812 351.367188 309.191406 347.921875 307.472656 C 347.613281 310.582031 347.644531 313.707031 348.179688 316.835938 Z M 310.882812 173.644531 C 311.949219 167.996094 323.449219 104.933594 306.664062 103.535156 C 306.664062 103.535156 276.746094 99.273438 265.808594 136.023438 C 265.808594 136.023438 270.730469 140.628906 287.75 145.242188 L 281.773438 156.046875 C 272.726562 152.464844 260.511719 148.847656 247.078125 148.253906 C 233.121094 158.613281 205.386719 183.007812 225.828125 200.785156 C 225.828125 200.785156 246.726562 223.046875 275.320312 222.082031 C 299.238281 221.277344 306.523438 242.683594 308.265625 249.710938 C 308.605469 251.082031 308.734375 251.910156 308.734375 251.910156 C 308.734375 251.910156 314.828125 275.183594 336.980469 279.539062 C 335.394531 243.703125 329.207031 195.484375 310.882812 173.644531 Z M 513.914062 317.511719 C 512.195312 314.546875 510.125 311.792969 507.785156 309.289062 C 523.128906 304.6875 537.183594 295.488281 547.921875 283.503906 C 563.546875 266.054688 572.417969 243.164062 575.046875 219.882812 C 580.164062 221.570312 583.652344 227.210938 582.882812 232.542969 C 585.550781 226.976562 589.429688 221.996094 594.171875 218.050781 C 596.671875 228.589844 594.78125 240.101562 589.039062 249.277344 C 591.378906 248.347656 593.722656 247.414062 596.058594 246.476562 C 596.59375 252.34375 593.824219 258.402344 589.035156 261.824219 C 592.941406 259.304688 598.683594 262.492188 599.757812 267.011719 C 600.835938 271.535156 598.246094 276.292969 594.574219 279.140625 C 590.898438 281.988281 586.308594 283.320312 581.839844 284.589844 C 586.941406 285.664062 591.613281 288.660156 594.710938 292.84375 C 587.207031 298.570312 578.5 302.707031 569.320312 304.910156 C 572.308594 305.4375 574.96875 307.535156 576.183594 310.3125 C 567.496094 316.714844 556.664062 320.144531 545.878906 319.910156 C 547.945312 320.375 549.847656 321.550781 551.1875 323.195312 C 547.074219 327.558594 540.417969 328.09375 534.417969 328.148438 C 529.023438 328.203125 523.632812 328.085938 518.242188 327.824219 C 517.226562 324.222656 515.78125 320.753906 513.914062 317.511719 " fill-opacity="1" fill-rule="nonzero"/><path fill="#2b1814" d="M 161.359375 302.300781 C 159.816406 301.351562 157.570312 300.019531 154.957031 298.167969 C 152.328125 296.335938 149.363281 293.925781 146.054688 291.1875 C 142.710938 288.492188 139.222656 285.464844 135.949219 281.84375 C 134.320312 280.039062 132.8125 278.195312 131.425781 276.359375 C 130.066406 274.578125 128.992188 272.699219 128.136719 270.808594 C 126.425781 267.023438 125.519531 263.308594 124.898438 260.175781 C 124.570312 258.46875 124.328125 256.9375 124.132812 255.59375 C 127.453125 254.375 146.816406 246.558594 147.378906 229.726562 C 147.378906 229.726562 123.070312 213.195312 107.574219 225.816406 C 107.574219 225.816406 105.566406 243.535156 122.738281 255.167969 C 122.78125 256.664062 122.898438 258.441406 123.132812 260.449219 C 123.550781 263.714844 124.296875 267.632812 126.007812 271.742188 C 126.859375 273.789062 127.996094 275.882812 129.441406 277.839844 C 130.84375 279.75 132.386719 281.671875 134.082031 283.539062 C 137.460938 287.285156 141.183594 290.414062 144.601562 293.003906 C 147.988281 295.644531 151.152344 297.972656 153.980469 299.664062 C 156.796875 301.371094 159.21875 302.488281 160.914062 303.179688 C 162.613281 303.867188 163.605469 304.121094 163.671875 303.972656 C 163.75 303.808594 162.902344 303.253906 161.359375 302.300781 Z M 205.835938 164.09375 C 201 162.207031 194.695312 166.824219 191.746094 174.402344 C 188.800781 181.976562 190.328125 189.648438 195.160156 191.527344 C 199.996094 193.410156 206.300781 188.796875 209.25 181.21875 C 212.195312 173.640625 210.667969 165.972656 205.835938 164.09375 Z M 261.679688 193.242188 C 258.550781 201.300781 251.304688 206.003906 245.503906 203.746094 C 239.703125 201.488281 237.542969 193.117188 240.679688 185.058594 C 243.816406 177 251.058594 172.292969 256.863281 174.554688 C 262.65625 176.8125 264.816406 185.179688 261.679688 193.242188 " fill-opacity="1" fill-rule="nonzero"/><path fill="#b08150" d="M 354.753906 284.128906 C 354.867188 284.109375 354.980469 284.085938 355.085938 284.0625 C 355.28125 283.621094 355.46875 283.179688 355.660156 282.738281 L 354.753906 284.128906 " fill-opacity="1" fill-rule="nonzero"/></svg>