<svg xmlns="http://www.w3.org/2000/svg" xmlns:xlink="http://www.w3.org/1999/xlink" width="940" zoomAndPan="magnify" viewBox="0 0 705 591.000005" height="788" preserveAspectRatio="xMidYMid meet" version="1.0"><defs><clipPath id="bd5db49370"><path d="M 405 293 L 537.125 293 L 537.125 442 L 405 442 Z M 405 293 " clip-rule="nonzero"/></clipPath></defs><path fill="#985d5e" d="M 423.039062 65.578125 C 438.753906 57.585938 457.515625 51.816406 473.480469 55.367188 C 490.578125 59.175781 503.640625 74.019531 509.472656 90.535156 C 515.304688 107.046875 514.96875 125.078125 513.226562 142.507812 C 513.027344 144.542969 512.746094 146.714844 511.421875 148.273438 C 510.460938 149.402344 509.058594 150.054688 507.65625 150.523438 C 501.46875 152.582031 494.527344 151.445312 488.683594 148.539062 C 482.847656 145.628906 477.976562 141.078125 473.652344 136.199219 C 461.875 122.90625 453.589844 106.886719 442.40625 93.09375 C 441.386719 91.832031 440.300781 90.558594 438.84375 89.851562 C 437.363281 89.132812 435.652344 89.078125 434.007812 89.160156 C 427.726562 89.472656 421.546875 91.617188 416.425781 95.257812 C 415.308594 96.050781 413.953125 96.960938 412.683594 96.449219 C 408.664062 94.839844 400.503906 85.898438 401.894531 81.34375 C 402.878906 78.117188 405.773438 75.894531 408.578125 74.027344 C 412.925781 71.136719 417.8125 68.234375 423.039062 65.578125 " fill-opacity="1" fill-rule="nonzero"/><path fill="#935354" d="M 507.878906 136.074219 C 504.332031 138.28125 498.808594 138.03125 494.746094 137.285156 C 476.921875 134 467.296875 118.273438 458.035156 104.566406 C 452.921875 96.996094 450.324219 85.652344 441.109375 83.277344 C 435.21875 81.757812 431.003906 85.390625 425.113281 83.800781 C 419.554688 82.292969 413.480469 77.445312 409.914062 73.164062 C 409.472656 73.453125 409.011719 73.738281 408.578125 74.027344 C 405.773438 75.898438 402.878906 78.121094 401.894531 81.347656 C 400.5 85.902344 408.664062 94.835938 412.683594 96.449219 C 413.953125 96.960938 415.308594 96.050781 416.421875 95.261719 C 421.546875 91.617188 427.726562 89.476562 434.007812 89.160156 C 435.648438 89.082031 437.363281 89.132812 438.839844 89.851562 C 440.300781 90.5625 441.386719 91.832031 442.40625 93.09375 C 453.589844 106.890625 461.875 122.910156 473.652344 136.203125 C 477.980469 141.078125 482.84375 145.628906 488.683594 148.539062 C 494.523438 151.449219 501.464844 152.585938 507.65625 150.523438 C 509.058594 150.058594 510.460938 149.398438 511.421875 148.273438 C 512.746094 146.71875 513.027344 144.546875 513.226562 142.511719 C 513.664062 138.097656 514.015625 133.648438 514.195312 129.195312 C 512.617188 131.921875 510.617188 134.367188 507.878906 136.074219 " fill-opacity="1" fill-rule="nonzero"/><path fill="#935354" d="M 471.203125 126.550781 C 479.273438 133.976562 489.832031 136.941406 500.597656 134.855469 C 502.324219 134.519531 501.589844 131.886719 499.867188 132.222656 C 490.105469 134.113281 480.449219 131.351562 473.128906 124.621094 C 471.835938 123.429688 469.902344 125.355469 471.203125 126.550781 " fill-opacity="1" fill-rule="nonzero"/><path fill="#935354" d="M 505.765625 134.230469 C 507.65625 133.78125 509.359375 132.820312 510.734375 131.453125 C 511.992188 130.214844 510.058594 128.28125 508.804688 129.523438 C 507.742188 130.574219 506.492188 131.253906 505.039062 131.597656 C 503.328125 132.003906 504.054688 134.636719 505.765625 134.230469 " fill-opacity="1" fill-rule="nonzero"/><path fill="#935354" d="M 498.644531 130.5625 C 500.78125 130.753906 502.902344 130.582031 504.992188 130.085938 C 506.703125 129.679688 505.976562 127.046875 504.265625 127.449219 C 502.402344 127.890625 500.546875 128.003906 498.644531 127.832031 C 496.890625 127.675781 496.90625 130.410156 498.644531 130.5625 " fill-opacity="1" fill-rule="nonzero"/><path fill="#935354" d="M 469.359375 118.535156 C 471.691406 121.765625 474.542969 124.464844 477.921875 126.570312 C 479.425781 127.503906 480.792969 125.140625 479.304688 124.210938 C 476.335938 122.363281 473.769531 119.996094 471.71875 117.160156 C 470.695312 115.746094 468.328125 117.105469 469.359375 118.535156 " fill-opacity="1" fill-rule="nonzero"/><path fill="#935354" d="M 468.503906 112.386719 C 467.746094 111.414062 467.113281 110.304688 466.648438 109.164062 C 466.375 108.472656 465.75 107.996094 464.96875 108.210938 C 464.3125 108.390625 463.738281 109.199219 464.019531 109.890625 C 464.667969 111.503906 465.503906 112.941406 466.574219 114.316406 C 467.03125 114.90625 468.027344 114.796875 468.503906 114.316406 C 469.078125 113.742188 468.964844 112.96875 468.503906 112.386719 " fill-opacity="1" fill-rule="nonzero"/><path fill="#935354" d="M 469.402344 112.277344 C 470.523438 114.121094 471.898438 115.792969 473.507812 117.238281 C 474.8125 118.410156 476.75 116.488281 475.441406 115.308594 C 473.996094 114.011719 472.769531 112.554688 471.757812 110.898438 C 470.84375 109.398438 468.480469 110.769531 469.402344 112.277344 " fill-opacity="1" fill-rule="nonzero"/><path fill="#935354" d="M 444.894531 87.515625 C 451.421875 91.117188 455.15625 97.558594 458.695312 103.863281 C 459.554688 105.402344 461.917969 104.023438 461.054688 102.484375 C 457.28125 95.769531 453.210938 88.988281 446.273438 85.160156 C 444.726562 84.308594 443.347656 86.667969 444.894531 87.515625 " fill-opacity="1" fill-rule="nonzero"/><path fill="#935354" d="M 418.261719 78.480469 C 421.4375 81.007812 425.257812 82.226562 429.3125 81.753906 C 431.039062 81.550781 431.058594 78.816406 429.3125 79.019531 C 426.019531 79.410156 422.816406 78.636719 420.195312 76.550781 C 418.832031 75.46875 416.882812 77.386719 418.261719 78.480469 " fill-opacity="1" fill-rule="nonzero"/><path fill="#935354" d="M 451.195312 87.105469 C 453.097656 88.886719 454.769531 90.855469 456.203125 93.035156 C 457.167969 94.5 459.535156 93.136719 458.566406 91.65625 C 457.007812 89.285156 455.191406 87.109375 453.125 85.171875 C 451.839844 83.96875 449.90625 85.898438 451.195312 87.105469 " fill-opacity="1" fill-rule="nonzero"/><path fill="#985d5e" d="M 260.265625 67.761719 C 244.546875 59.769531 225.785156 54 209.820312 57.554688 C 192.722656 61.355469 179.660156 76.203125 173.828125 92.71875 C 167.996094 109.234375 168.339844 127.265625 170.074219 144.695312 C 170.273438 146.730469 170.550781 148.902344 171.882812 150.457031 C 172.839844 151.585938 174.242188 152.242188 175.644531 152.710938 C 181.835938 154.769531 188.777344 153.632812 194.613281 150.726562 C 200.453125 147.816406 205.324219 143.265625 209.648438 138.386719 C 221.425781 125.09375 229.710938 109.070312 240.894531 95.277344 C 241.914062 94.015625 243 92.742188 244.460938 92.035156 C 245.941406 91.320312 247.648438 91.265625 249.292969 91.347656 C 255.574219 91.660156 261.753906 93.800781 266.882812 97.441406 C 267.996094 98.234375 269.347656 99.144531 270.617188 98.632812 C 274.636719 97.023438 282.800781 88.085938 281.410156 83.53125 C 280.421875 80.304688 277.527344 78.078125 274.71875 76.207031 C 270.378906 73.324219 265.488281 70.417969 260.265625 67.761719 " fill-opacity="1" fill-rule="nonzero"/><path fill="#935354" d="M 175.421875 138.253906 C 178.96875 140.460938 184.488281 140.214844 188.554688 139.464844 C 206.378906 136.183594 216 120.457031 225.265625 106.75 C 230.382812 99.179688 232.976562 87.835938 242.191406 85.460938 C 248.082031 83.941406 252.300781 87.574219 258.1875 85.980469 C 263.746094 84.476562 269.820312 79.628906 273.382812 75.347656 C 273.828125 75.636719 274.289062 75.921875 274.71875 76.207031 C 277.53125 78.078125 280.425781 80.304688 281.410156 83.527344 C 282.800781 88.085938 274.636719 97.019531 270.617188 98.632812 C 269.347656 99.144531 267.996094 98.234375 266.882812 97.441406 C 261.753906 93.800781 255.574219 91.65625 249.296875 91.34375 C 247.652344 91.265625 245.941406 91.320312 244.460938 92.035156 C 243 92.742188 241.914062 94.015625 240.894531 95.277344 C 229.710938 109.070312 221.425781 125.09375 209.652344 138.382812 C 205.324219 143.265625 200.453125 147.8125 194.617188 150.722656 C 188.777344 153.628906 181.835938 154.765625 175.644531 152.710938 C 174.242188 152.242188 172.839844 151.585938 171.882812 150.457031 C 170.550781 148.898438 170.273438 146.730469 170.074219 144.691406 C 169.636719 140.277344 169.289062 135.832031 169.101562 131.375 C 170.683594 134.101562 172.679688 136.550781 175.421875 138.253906 " fill-opacity="1" fill-rule="nonzero"/><path fill="#935354" d="M 210.171875 126.804688 C 202.851562 133.535156 193.199219 136.300781 183.429688 134.40625 C 181.710938 134.074219 180.976562 136.707031 182.707031 137.042969 C 193.46875 139.125 204.027344 136.164062 212.101562 128.734375 C 213.402344 127.542969 211.464844 125.613281 210.171875 126.804688 " fill-opacity="1" fill-rule="nonzero"/><path fill="#935354" d="M 178.257812 133.785156 C 176.808594 133.441406 175.558594 132.761719 174.5 131.710938 C 173.25 130.46875 171.316406 132.398438 172.566406 133.640625 C 173.945312 135.007812 175.644531 135.96875 177.53125 136.417969 C 179.246094 136.824219 179.972656 134.191406 178.257812 133.785156 " fill-opacity="1" fill-rule="nonzero"/><path fill="#935354" d="M 184.65625 130.019531 C 182.753906 130.191406 180.898438 130.078125 179.035156 129.640625 C 177.320312 129.234375 176.597656 131.867188 178.308594 132.269531 C 180.398438 132.765625 182.519531 132.945312 184.65625 132.75 C 186.398438 132.597656 186.410156 129.863281 184.65625 130.019531 " fill-opacity="1" fill-rule="nonzero"/><path fill="#935354" d="M 211.578125 119.34375 C 209.535156 122.183594 206.964844 124.546875 203.996094 126.394531 C 202.503906 127.324219 203.875 129.6875 205.375 128.753906 C 208.757812 126.648438 211.609375 123.953125 213.941406 120.71875 C 214.972656 119.289062 212.597656 117.929688 211.578125 119.34375 " fill-opacity="1" fill-rule="nonzero"/><path fill="#935354" d="M 216.726562 116.5 C 217.796875 115.125 218.628906 113.6875 219.28125 112.070312 C 219.5625 111.382812 218.984375 110.574219 218.328125 110.394531 C 217.546875 110.179688 216.925781 110.660156 216.648438 111.347656 C 216.1875 112.488281 215.554688 113.597656 214.796875 114.566406 C 214.339844 115.15625 214.222656 115.925781 214.796875 116.5 C 215.273438 116.980469 216.269531 117.089844 216.726562 116.5 " fill-opacity="1" fill-rule="nonzero"/><path fill="#935354" d="M 211.539062 113.085938 C 210.53125 114.742188 209.304688 116.195312 207.859375 117.492188 C 206.542969 118.671875 208.484375 120.597656 209.789062 119.425781 C 211.398438 117.980469 212.773438 116.308594 213.898438 114.460938 C 214.816406 112.957031 212.453125 111.582031 211.539062 113.085938 " fill-opacity="1" fill-rule="nonzero"/><path fill="#935354" d="M 237.03125 87.34375 C 230.089844 91.171875 226.015625 97.957031 222.25 104.671875 C 221.386719 106.207031 223.746094 107.585938 224.609375 106.046875 C 228.144531 99.746094 231.882812 93.300781 238.410156 89.703125 C 239.949219 88.851562 238.570312 86.492188 237.03125 87.34375 " fill-opacity="1" fill-rule="nonzero"/><path fill="#935354" d="M 263.109375 78.734375 C 260.488281 80.816406 257.285156 81.59375 253.992188 81.203125 C 252.246094 81 252.261719 83.734375 253.992188 83.933594 C 258.046875 84.414062 261.863281 83.1875 265.039062 80.667969 C 266.417969 79.570312 264.46875 77.652344 263.109375 78.734375 " fill-opacity="1" fill-rule="nonzero"/><path fill="#935354" d="M 230.171875 87.355469 C 228.105469 89.296875 226.289062 91.472656 224.734375 93.839844 C 223.761719 95.320312 226.128906 96.6875 227.09375 95.21875 C 228.523438 93.042969 230.199219 91.074219 232.101562 89.289062 C 233.390625 88.082031 231.457031 86.152344 230.171875 87.355469 " fill-opacity="1" fill-rule="nonzero"/><g clip-path="url(#bd5db49370)"><path fill="#985d5e" d="M 508.085938 310.03125 C 508.253906 307.292969 508.332031 304.550781 508.332031 301.808594 C 508.328125 300.019531 508.296875 298.183594 508.929688 296.515625 C 509.570312 294.84375 511.054688 293.359375 512.839844 293.3125 C 521.664062 293.074219 521.628906 314.683594 521.8125 320.085938 C 521.648438 315.1875 530.636719 309.148438 533.152344 315.242188 C 534.414062 318.304688 531.695312 325.847656 530.992188 329.015625 C 529.933594 333.777344 528.5 338.449219 527.050781 343.074219 C 527.742188 340.859375 534.753906 334.242188 536.789062 338.136719 C 537.109375 338.75 537.039062 339.496094 536.921875 340.179688 C 536.226562 344.234375 534.21875 347.921875 532.550781 351.679688 C 527.363281 363.351562 526.199219 375.5625 523.429688 387.847656 C 521.027344 398.492188 515.203125 409.082031 508.359375 417.503906 C 490.574219 439.375 462.496094 445.101562 435.65625 440.292969 C 428.574219 439.027344 407.027344 434.894531 406.054688 427.511719 C 404.5 415.714844 420.417969 419.488281 426.585938 419.765625 C 437.941406 420.28125 449.382812 419.21875 459.328125 413.191406 C 475.214844 403.554688 490.109375 386.148438 496.695312 369.367188 C 503.070312 353.105469 505.621094 334.75 507.597656 315.929688 C 507.800781 313.96875 507.96875 312 508.085938 310.03125 " fill-opacity="1" fill-rule="nonzero"/></g><path fill="#f3dacd" d="M 432.199219 469.332031 C 432.199219 470.296875 432.175781 471.257812 432.152344 472.28125 C 432.113281 474.6875 432.023438 477.984375 431.847656 481.875 C 431.714844 484.957031 431.542969 488.410156 431.257812 492.058594 C 431.21875 492.515625 431.191406 492.976562 431.148438 493.457031 C 430.886719 496.867188 430.515625 500.425781 430.058594 504.011719 C 428.003906 520.398438 423.761719 536.894531 414.980469 540.28125 C 405.953125 543.757812 392.53125 543.058594 380.730469 538.777344 C 376.035156 537.070312 371.988281 534.773438 370.507812 529.730469 C 366.617188 516.597656 374.289062 509.691406 380.515625 498.4375 C 392.359375 477.003906 385.847656 441.628906 385.847656 441.628906 C 385.542969 436.316406 426.363281 426.003906 430.058594 437.457031 C 431.324219 441.300781 432.046875 447.371094 432.222656 456.464844 C 432.304688 460.222656 432.304688 464.480469 432.199219 469.332031 " fill-opacity="1" fill-rule="nonzero"/><path fill="#f3dacd" d="M 305.074219 532.046875 C 303.28125 536.964844 299.089844 539.015625 294.308594 540.4375 C 282.265625 543.976562 268.828125 543.835938 260.027344 539.816406 C 251.9375 536.101562 248.644531 520.960938 247.40625 505.398438 C 247.050781 500.886719 246.875 496.332031 246.785156 492.03125 C 246.730469 488.4375 246.75 485.023438 246.785156 481.90625 C 246.855469 477.410156 247 473.585938 247.105469 470.875 C 247.121094 470.148438 247.15625 469.441406 247.191406 468.75 C 247.898438 451.667969 249.210938 441.664062 251.332031 436.25 C 255.742188 425.058594 295.867188 437.859375 295.210938 443.152344 C 295.210938 443.152344 286.554688 478.066406 297.035156 500.195312 C 302.542969 511.824219 309.765625 519.152344 305.074219 532.046875 " fill-opacity="1" fill-rule="nonzero"/><path fill="#f3dacd" d="M 477.625 339.15625 C 473.996094 360.808594 444.601562 364.949219 441.5 351.125 C 435.941406 326.179688 422.257812 309.574219 406.269531 290.292969 C 397.835938 280.152344 389.199219 270.09375 379.265625 261.363281 L 393.253906 248.316406 C 409.964844 256.742188 418.324219 260.515625 428.84375 268.289062 C 431.339844 270.148438 433.957031 272.234375 436.847656 274.679688 C 438.085938 275.722656 439.378906 276.839844 440.742188 278.023438 C 442.105469 279.210938 443.527344 280.472656 444.976562 281.796875 C 448.65625 285.105469 452.570312 288.808594 456.375 292.789062 C 459.03125 295.585938 461.636719 298.527344 464.058594 301.570312 C 466.433594 304.527344 468.625 307.609375 470.558594 310.78125 C 476.03125 319.773438 479.257812 329.453125 477.625 339.15625 " fill-opacity="1" fill-rule="nonzero"/><path fill="#f3dacd" d="M 294.746094 257.277344 C 268.503906 288.660156 240.5 311.238281 232.507812 347.039062 C 229.421875 360.863281 200.019531 356.722656 196.394531 335.0625 C 192.4375 311.453125 217.136719 288.066406 233.28125 273.929688 C 250.964844 258.441406 258.351562 255.53125 280.765625 244.234375 L 294.746094 257.277344 " fill-opacity="1" fill-rule="nonzero"/><path fill="#f3dacd" d="M 427.214844 442.433594 C 416.308594 458.625 396.03125 466.972656 377.257812 470.074219 C 352.699219 474.140625 325.289062 475.84375 301.097656 469.183594 C 293.601562 467.101562 286.085938 464.375 279.179688 460.878906 C 259.160156 450.71875 249.238281 436.296875 243.910156 416.699219 C 242.683594 412.171875 241.699219 407.367188 240.894531 402.273438 C 240.28125 398.449219 239.886719 394.558594 239.710938 390.652344 C 239.515625 386.214844 239.558594 381.710938 239.867188 377.214844 C 240.128906 372.6875 240.652344 368.144531 241.394531 363.601562 C 242.117188 359.054688 243.054688 354.554688 244.148438 350.050781 C 245.023438 346.554688 245.960938 343.082031 247.011719 339.609375 C 248.28125 335.433594 249.679688 331.28125 251.164062 327.195312 C 254.417969 318.257812 258.15625 309.582031 262.109375 301.390625 C 264.1875 297 266.351562 292.761719 268.515625 288.671875 C 273.304688 279.605469 279.265625 260.488281 281.472656 250.675781 C 282.105469 247.792969 285.890625 225.152344 286.589844 213.09375 C 286.589844 213.09375 387.832031 200.660156 387.792969 221.066406 C 387.792969 237.109375 391.746094 248.03125 397.058594 263.566406 C 399.265625 270.015625 401.449219 276.523438 403.941406 282.949219 C 406.28125 288.980469 408.902344 294.945312 412.09375 300.667969 C 417.140625 309.695312 422.320312 318.652344 426.78125 328.003906 C 427.257812 329.078125 427.765625 330.125 428.238281 331.214844 C 429.640625 334.382812 430.910156 337.664062 432.066406 340.984375 C 432.285156 341.640625 432.523438 342.296875 432.722656 342.949219 C 433.726562 345.964844 434.644531 349.003906 435.472656 352.019531 C 435.695312 352.824219 435.914062 353.613281 436.113281 354.398438 C 436.875 357.285156 437.550781 360.234375 438.167969 363.207031 C 439.0625 367.710938 439.78125 372.273438 440.285156 376.90625 C 440.699219 380.707031 440.964844 384.535156 441.074219 388.378906 C 441.550781 407.496094 437.835938 426.660156 427.214844 442.433594 " fill-opacity="1" fill-rule="nonzero"/><path fill="#f2d5bb" d="M 441.082031 388.375 C 440.972656 384.535156 440.703125 380.707031 440.285156 376.902344 C 439.78125 372.28125 439.0625 367.699219 438.15625 363.21875 C 437.550781 360.222656 436.863281 357.285156 436.121094 354.398438 C 435.90625 353.601562 435.695312 352.824219 435.484375 352.027344 C 434.472656 348.347656 433.339844 344.628906 432.066406 340.980469 C 431.496094 339.34375 430.898438 337.714844 430.269531 336.097656 C 432.808594 349.347656 432.75 366.382812 432.289062 379.753906 C 431.570312 400.375 429.84375 416.75 417.113281 433.40625 C 403.261719 451.53125 388.121094 459.707031 365.964844 463.347656 C 343.554688 467.027344 315.605469 465.328125 292.671875 458.246094 C 272.511719 452.023438 254.527344 434.460938 243.753906 416.039062 C 249.042969 435.964844 258.945312 450.609375 279.171875 460.875 C 286.09375 464.378906 293.601562 467.101562 301.089844 469.175781 C 325.292969 475.851562 352.691406 474.128906 377.265625 470.078125 C 396.035156 466.980469 416.304688 458.625 427.214844 442.425781 C 437.839844 426.667969 441.558594 407.496094 441.082031 388.375 " fill-opacity="1" fill-rule="nonzero"/><path fill="#f2c8a5" d="M 376.246094 532.859375 C 376.007812 532.144531 375.886719 531.238281 375.886719 530.21875 C 375.867188 526.195312 377.789062 520.523438 379.6875 517.691406 C 379.957031 517.285156 379.847656 516.734375 379.4375 516.46875 C 379.03125 516.195312 378.484375 516.304688 378.210938 516.714844 C 376.089844 519.949219 374.132812 525.679688 374.117188 530.21875 C 374.117188 531.375 374.246094 532.457031 374.570312 533.421875 C 374.726562 533.886719 375.226562 534.132812 375.6875 533.980469 C 376.152344 533.824219 376.402344 533.320312 376.246094 532.859375 " fill-opacity="1" fill-rule="nonzero"/><path fill="#f2c8a5" d="M 383.597656 535.964844 C 383.578125 535.6875 383.574219 535.40625 383.574219 535.125 C 383.566406 530.738281 385.527344 526.378906 387.890625 522.539062 C 388.148438 522.117188 388.019531 521.574219 387.605469 521.316406 C 387.1875 521.0625 386.640625 521.191406 386.386719 521.609375 C 383.945312 525.582031 381.808594 530.207031 381.800781 535.125 C 381.800781 535.4375 381.808594 535.753906 381.828125 536.066406 C 381.855469 536.554688 382.273438 536.929688 382.765625 536.898438 C 383.25 536.871094 383.625 536.453125 383.597656 535.964844 " fill-opacity="1" fill-rule="nonzero"/><path fill="#f2c8a5" d="M 392.550781 538.070312 C 392.515625 537.769531 392.496094 537.449219 392.496094 537.117188 C 392.492188 535.355469 393.019531 533.21875 393.785156 531.171875 C 394.550781 529.121094 395.550781 527.15625 396.441406 525.679688 C 396.691406 525.257812 396.5625 524.714844 396.140625 524.464844 C 395.71875 524.210938 395.175781 524.347656 394.925781 524.765625 C 393.976562 526.332031 392.941406 528.378906 392.128906 530.550781 C 391.320312 532.722656 390.730469 535.015625 390.726562 537.117188 C 390.726562 537.515625 390.75 537.90625 390.796875 538.28125 C 390.855469 538.769531 391.296875 539.117188 391.78125 539.054688 C 392.269531 538.996094 392.609375 538.554688 392.550781 538.070312 " fill-opacity="1" fill-rule="nonzero"/><path fill="#f2c8a5" d="M 303.371094 533.074219 C 303.378906 532.875 303.378906 532.679688 303.378906 532.484375 C 303.378906 527.484375 301.886719 522.808594 299.375 519.003906 C 299.105469 518.59375 298.554688 518.484375 298.148438 518.75 C 297.738281 519.019531 297.628906 519.570312 297.898438 519.980469 C 300.21875 523.496094 301.609375 527.839844 301.609375 532.484375 C 301.609375 532.667969 301.605469 532.851562 301.601562 533.03125 C 301.589844 533.523438 301.976562 533.925781 302.46875 533.9375 C 302.957031 533.949219 303.359375 533.5625 303.371094 533.074219 " fill-opacity="1" fill-rule="nonzero"/><path fill="#f2c8a5" d="M 295.757812 537.417969 C 295.777344 537.109375 295.78125 536.796875 295.78125 536.488281 C 295.777344 531.5625 293.636719 526.9375 291.203125 522.964844 C 290.945312 522.546875 290.402344 522.414062 289.984375 522.667969 C 289.566406 522.925781 289.4375 523.472656 289.691406 523.890625 C 292.058594 527.730469 294.019531 532.09375 294.011719 536.488281 C 294.011719 536.765625 294.003906 537.042969 293.988281 537.320312 C 293.960938 537.804688 294.335938 538.226562 294.824219 538.25 C 295.3125 538.277344 295.730469 537.90625 295.757812 537.417969 " fill-opacity="1" fill-rule="nonzero"/><path fill="#f2c8a5" d="M 286.792969 539.636719 C 286.835938 539.257812 286.859375 538.871094 286.859375 538.472656 C 286.855469 536.367188 286.261719 534.074219 285.453125 531.902344 C 284.640625 529.734375 283.605469 527.6875 282.660156 526.121094 C 282.40625 525.699219 281.863281 525.5625 281.445312 525.816406 C 281.023438 526.070312 280.890625 526.613281 281.144531 527.03125 C 282.03125 528.507812 283.027344 530.476562 283.792969 532.523438 C 284.5625 534.574219 285.089844 536.707031 285.085938 538.472656 C 285.085938 538.804688 285.070312 539.121094 285.035156 539.425781 C 284.972656 539.910156 285.320312 540.355469 285.804688 540.414062 C 286.292969 540.472656 286.734375 540.125 286.792969 539.636719 " fill-opacity="1" fill-rule="nonzero"/><path fill="#f3dacd" d="M 464.402344 181.464844 C 464.179688 183.140625 463.761719 184.816406 462.765625 186.160156 C 461.59375 187.730469 459.4375 188.714844 457.628906 187.972656 C 456.273438 187.414062 455.429688 186.078125 454.679688 184.820312 C 452.398438 181.007812 450.117188 177.195312 447.835938 173.378906 C 451.628906 179.71875 452.1875 190.304688 452.464844 197.5 C 452.765625 205.261719 451.46875 212.722656 448.8125 220.066406 C 447.574219 223.511719 445.199219 227.847656 441.566406 229.566406 C 435.933594 232.234375 434.6875 225.25 434.105469 220.65625 C 434.636719 224.875 424.445312 234.09375 421.640625 236.808594 C 415.347656 242.910156 406.789062 247.03125 398.726562 250.21875 C 376.867188 258.855469 353.074219 262.25 329.660156 260.320312 C 307.28125 258.476562 281.597656 252.207031 262.714844 239.542969 C 254.878906 234.285156 247.070312 227.339844 241.46875 219.695312 C 238.59375 215.773438 236.347656 211.382812 234.835938 206.761719 C 234.136719 204.621094 231.074219 195.886719 232.613281 193.941406 C 230.5625 196.535156 229.917969 199.941406 228.496094 202.925781 C 227.074219 205.910156 224.179688 208.757812 220.921875 208.1875 C 216.855469 207.46875 215.53125 202.347656 215.371094 198.226562 C 214.695312 180.5 219.660156 162.605469 229.363281 147.757812 C 226.292969 151.355469 222.910156 154.683594 219.257812 157.6875 C 217.875 158.828125 216.21875 159.988281 214.453125 159.675781 C 212.699219 159.367188 211.476562 157.617188 211.230469 155.851562 C 210.980469 154.085938 211.492188 152.308594 212.058594 150.621094 C 219.636719 127.867188 235.839844 109.726562 253.769531 94.203125 C 260.066406 88.75 266.871094 83.835938 274.214844 79.882812 C 280.609375 76.4375 288.441406 73.878906 294.242188 69.535156 C 298.894531 66.046875 303.453125 61.359375 307.558594 57.335938 C 311.636719 53.34375 318.816406 46.132812 325.152344 49.675781 C 329.546875 52.136719 326.332031 62.335938 326.164062 66.304688 C 331.765625 60.375 338.777344 55.785156 346.457031 53.023438 C 348.753906 52.199219 351.84375 51.773438 353.179688 53.816406 C 353.855469 54.847656 353.808594 56.171875 353.695312 57.398438 C 353.339844 61.132812 352.546875 64.839844 351.351562 68.398438 C 358.699219 63.113281 367.109375 59.296875 375.921875 57.242188 C 378.859375 56.554688 382.277344 56.171875 384.589844 58.117188 C 386.933594 60.09375 387.089844 63.726562 386.128906 66.644531 C 385.160156 69.558594 383.320312 72.101562 382.203125 74.964844 C 390.683594 75.226562 399.714844 79.339844 407.453125 82.5625 C 416.886719 86.492188 425.570312 93.816406 432.886719 100.921875 C 452.621094 120.109375 467.441406 152.714844 464.507812 180.640625 C 464.476562 180.914062 464.445312 181.191406 464.402344 181.464844 " fill-opacity="1" fill-rule="nonzero"/><path fill="#f2d5bb" d="M 441 109.957031 C 444.117188 118.171875 446.039062 126.796875 446.929688 135.640625 C 448.230469 148.542969 447.9375 162.378906 445.089844 175.066406 C 440.691406 194.644531 428.640625 211.972656 412.972656 224.28125 C 395.980469 237.628906 375.796875 245.152344 354.394531 247.484375 C 330.070312 250.140625 304.859375 246.242188 282.277344 236.914062 C 263.273438 229.066406 243.574219 217.765625 232.753906 199.710938 C 233.410156 202.582031 234.464844 205.613281 234.835938 206.761719 C 236.347656 211.386719 238.59375 215.773438 241.46875 219.699219 C 247.070312 227.34375 254.878906 234.285156 262.714844 239.546875 C 281.59375 252.207031 307.28125 258.476562 329.660156 260.320312 C 353.070312 262.25 376.863281 258.855469 398.722656 250.21875 C 406.785156 247.03125 415.34375 242.910156 421.640625 236.808594 C 424.445312 234.09375 434.636719 224.878906 434.101562 220.660156 C 434.683594 225.25 435.933594 232.238281 441.566406 229.570312 C 445.199219 227.847656 447.566406 223.515625 448.8125 220.070312 C 451.46875 212.722656 452.761719 205.261719 452.460938 197.5 C 452.183594 190.308594 451.625 179.722656 447.835938 173.378906 C 450.117188 177.195312 452.394531 181.007812 454.675781 184.824219 C 455.429688 186.082031 456.269531 187.417969 457.628906 187.976562 C 459.4375 188.714844 461.597656 187.734375 462.761719 186.164062 C 463.757812 184.816406 464.179688 183.140625 464.402344 181.464844 C 464.441406 181.191406 464.472656 180.917969 464.507812 180.644531 C 467.019531 156.714844 456.484375 129.371094 441 109.957031 " fill-opacity="1" fill-rule="nonzero"/><path fill="#433634" d="M 382.542969 174.597656 C 382.542969 192.140625 410.539062 193 410.542969 174.597656 C 410.542969 156.980469 382.542969 156.140625 382.542969 174.597656 " fill-opacity="1" fill-rule="nonzero"/><path fill="#f4f4f4" d="M 398.230469 167.558594 C 398.230469 171.894531 405.160156 172.105469 405.160156 167.558594 C 405.160156 163.195312 398.230469 162.988281 398.230469 167.558594 " fill-opacity="1" fill-rule="nonzero"/><path fill="#433634" d="M 325.617188 197.925781 C 325.496094 198.433594 325.4375 198.925781 325.4375 199.394531 C 325.429688 201.148438 326.273438 202.597656 327.519531 203.519531 C 328.765625 204.453125 330.390625 204.917969 332.09375 204.921875 C 334.28125 204.921875 336.613281 204.140625 338.421875 202.441406 C 340.230469 200.738281 341.464844 198.109375 341.457031 194.585938 C 341.457031 194.027344 341.425781 193.445312 341.367188 192.847656 C 341.324219 192.429688 340.953125 192.128906 340.539062 192.167969 C 340.121094 192.210938 339.824219 192.582031 339.863281 192.996094 C 339.921875 193.550781 339.945312 194.082031 339.945312 194.585938 C 339.941406 197.769531 338.875 199.929688 337.382812 201.339844 C 335.890625 202.75 333.925781 203.410156 332.09375 203.410156 C 330.671875 203.410156 329.347656 203.007812 328.425781 202.308594 C 327.503906 201.609375 326.957031 200.671875 326.949219 199.394531 C 326.949219 199.050781 326.992188 198.675781 327.089844 198.273438 C 327.183594 197.867188 326.933594 197.460938 326.527344 197.363281 C 326.121094 197.265625 325.714844 197.519531 325.617188 197.925781 " fill-opacity="1" fill-rule="nonzero"/><path fill="#433634" d="M 353.796875 198.269531 C 353.902344 198.710938 353.945312 199.121094 353.945312 199.496094 C 353.9375 200.78125 353.425781 201.726562 352.585938 202.414062 C 351.738281 203.101562 350.535156 203.5 349.21875 203.5 C 347.441406 203.5 345.484375 202.78125 343.972656 201.1875 C 342.46875 199.589844 341.367188 197.101562 341.363281 193.445312 C 341.363281 193.277344 341.363281 193.113281 341.371094 192.953125 C 341.386719 192.535156 341.058594 192.183594 340.644531 192.167969 C 340.226562 192.148438 339.875 192.472656 339.859375 192.890625 C 339.851562 193.082031 339.847656 193.269531 339.847656 193.445312 C 339.847656 197.402344 341.066406 200.320312 342.878906 202.226562 C 344.6875 204.132812 347.035156 205.011719 349.21875 205.011719 C 350.832031 205.011719 352.371094 204.53125 353.535156 203.589844 C 354.703125 202.65625 355.464844 201.21875 355.457031 199.496094 C 355.457031 198.992188 355.394531 198.46875 355.269531 197.925781 C 355.171875 197.519531 354.765625 197.265625 354.359375 197.363281 C 353.953125 197.457031 353.699219 197.867188 353.796875 198.269531 " fill-opacity="1" fill-rule="nonzero"/><path fill="#84493e" d="M 353.175781 179.90625 C 354.378906 180.863281 355.300781 182.140625 355.789062 183.832031 C 356.511719 186.355469 354.46875 189.273438 352.566406 190.679688 C 350.582031 192.152344 348.113281 192.839844 345.664062 193.214844 C 343.300781 193.578125 340.898438 193.679688 338.511719 193.515625 C 336.261719 193.359375 333.992188 192.953125 331.980469 191.9375 C 326.640625 189.242188 325.191406 182.332031 330.886719 179.335938 C 335.4375 176.945312 341.421875 176.898438 346.386719 177.625 C 348.660156 177.953125 351.328125 178.441406 353.175781 179.90625 " fill-opacity="1" fill-rule="nonzero"/><path fill="#f9abc5" d="M 425.105469 195.476562 C 425.304688 198.816406 421.527344 201.773438 417.644531 202.558594 C 413.117188 203.480469 407.808594 202.957031 403.417969 201.765625 C 401.425781 201.222656 399.3125 200.390625 397.8125 199.140625 C 394.894531 196.691406 395.488281 192.839844 399.21875 191.003906 C 403.996094 188.640625 409.726562 187.914062 415.183594 188.714844 C 419.1875 189.304688 423.578125 190.714844 424.847656 194.238281 C 424.996094 194.652344 425.078125 195.066406 425.105469 195.476562 " fill-opacity="1" fill-rule="nonzero"/><path fill="#433634" d="M 268.828125 174.597656 C 268.828125 192.140625 296.828125 193 296.835938 174.597656 C 296.835938 156.980469 268.832031 156.140625 268.828125 174.597656 " fill-opacity="1" fill-rule="nonzero"/><path fill="#f4f4f4" d="M 284.519531 167.558594 C 284.519531 171.894531 291.445312 172.105469 291.445312 167.558594 C 291.445312 163.195312 284.519531 162.988281 284.519531 167.558594 " fill-opacity="1" fill-rule="nonzero"/><path fill="#f9abc5" d="M 254.265625 195.476562 C 254.0625 198.816406 257.84375 201.773438 261.726562 202.558594 C 266.257812 203.480469 271.5625 202.957031 275.949219 201.765625 C 277.945312 201.222656 280.0625 200.390625 281.554688 199.140625 C 284.472656 196.691406 283.882812 192.839844 280.15625 191.003906 C 275.371094 188.640625 269.644531 187.914062 264.1875 188.714844 C 260.183594 189.304688 255.789062 190.714844 254.523438 194.238281 C 254.375 194.652344 254.289062 195.066406 254.265625 195.476562 " fill-opacity="1" fill-rule="nonzero"/><path fill="#f1c6ad" d="M 308.1875 280.539062 C 307.710938 282.023438 307.484375 283.566406 307.484375 285.109375 C 307.484375 289.183594 309.066406 293.253906 311.988281 296.164062 C 312.550781 296.722656 313.203125 297.265625 313.953125 297.695312 C 314.707031 298.117188 315.574219 298.414062 316.527344 298.429688 L 316.59375 298.429688 C 317.558594 298.429688 318.433594 298.136719 319.195312 297.746094 C 319.960938 297.355469 320.632812 296.863281 321.242188 296.402344 C 326.078125 292.707031 330.457031 288.414062 334.246094 283.660156 L 333.394531 282.980469 L 332.53125 282.308594 C 331.347656 283.839844 330.769531 285.730469 330.769531 287.609375 C 330.769531 289.488281 331.339844 291.378906 332.523438 292.90625 C 334.191406 295.050781 336.835938 296.214844 339.488281 296.222656 C 340.605469 296.222656 341.726562 296.011719 342.777344 295.558594 C 345.3125 294.464844 346.957031 292.40625 348.480469 290.464844 C 350 288.507812 351.425781 286.648438 353.25 285.613281 L 352.710938 284.664062 L 351.625 284.566406 L 351.617188 284.6875 C 351.621094 286.625 351.78125 288.828125 352.460938 290.800781 C 352.804688 291.785156 353.277344 292.714844 353.960938 293.503906 C 354.644531 294.292969 355.550781 294.921875 356.648438 295.25 C 357.199219 295.414062 357.75 295.492188 358.292969 295.492188 C 359.855469 295.488281 361.28125 294.871094 362.535156 294.042969 C 363.789062 293.21875 364.898438 292.164062 365.851562 291.152344 C 368.015625 288.855469 370.101562 286.480469 372.097656 284.039062 C 372.480469 283.570312 372.414062 282.882812 371.945312 282.5 C 371.480469 282.117188 370.792969 282.1875 370.410156 282.652344 C 368.441406 285.058594 366.390625 287.390625 364.261719 289.65625 C 363.375 290.597656 362.367188 291.542969 361.332031 292.222656 C 360.292969 292.90625 359.253906 293.308594 358.292969 293.304688 C 357.953125 293.304688 357.621094 293.261719 357.28125 293.15625 C 356.585938 292.945312 356.0625 292.582031 355.609375 292.070312 C 354.9375 291.300781 354.460938 290.152344 354.179688 288.828125 C 353.898438 287.511719 353.800781 286.042969 353.800781 284.6875 L 352.972656 284.6875 L 353.800781 284.761719 L 353.800781 284.6875 L 352.972656 284.6875 L 353.800781 284.761719 C 353.835938 284.359375 353.644531 283.964844 353.300781 283.742188 C 352.960938 283.523438 352.523438 283.511719 352.171875 283.714844 C 349.808594 285.070312 348.265625 287.207031 346.761719 289.125 C 345.253906 291.058594 343.8125 292.75 341.914062 293.554688 C 341.15625 293.875 340.328125 294.039062 339.488281 294.039062 C 337.484375 294.042969 335.441406 293.121094 334.253906 291.566406 C 333.398438 290.46875 332.957031 289.046875 332.957031 287.609375 C 332.957031 286.171875 333.402344 284.746094 334.253906 283.648438 C 334.625 283.171875 334.539062 282.492188 334.070312 282.117188 C 333.597656 281.75 332.914062 281.828125 332.539062 282.296875 C 328.859375 286.914062 324.605469 291.078125 319.917969 294.664062 C 319.34375 295.101562 318.761719 295.511719 318.203125 295.800781 C 317.636719 296.089844 317.105469 296.246094 316.59375 296.246094 L 316.554688 296.246094 C 316.054688 296.238281 315.546875 296.082031 315.027344 295.785156 C 314.511719 295.496094 313.996094 295.078125 313.527344 294.613281 C 311.054688 292.160156 309.667969 288.613281 309.667969 285.109375 C 309.667969 283.78125 309.863281 282.464844 310.265625 281.210938 C 310.449219 280.636719 310.136719 280.019531 309.5625 279.835938 C 308.988281 279.652344 308.371094 279.96875 308.1875 280.539062 " fill-opacity="1" fill-rule="nonzero"/><path fill="#f1c6ad" d="M 323.191406 307.523438 C 322.785156 308.519531 322.59375 309.574219 322.59375 310.621094 C 322.597656 312.832031 323.429688 315.035156 325.023438 316.640625 C 326.625 318.246094 328.84375 319.089844 331.0625 319.089844 C 332.101562 319.089844 333.144531 318.902344 334.128906 318.507812 C 336.933594 317.363281 338.730469 314.980469 340.332031 312.890625 C 341.148438 311.8125 341.964844 310.738281 342.785156 309.65625 L 341.914062 308.996094 L 340.824219 308.945312 C 340.8125 309.109375 340.808594 309.273438 340.808594 309.441406 C 340.8125 312.316406 341.941406 315.140625 343.9375 317.21875 C 344.511719 317.820312 345.195312 318.378906 345.972656 318.796875 C 346.753906 319.210938 347.640625 319.492188 348.597656 319.492188 L 348.820312 319.488281 L 348.828125 319.488281 C 350.140625 319.417969 351.222656 318.859375 352.148438 318.339844 C 356.808594 315.703125 360.648438 311.671875 363.058594 306.890625 C 363.332031 306.355469 363.117188 305.699219 362.578125 305.425781 C 362.039062 305.15625 361.382812 305.371094 361.113281 305.90625 C 358.894531 310.296875 355.347656 314.023438 351.070312 316.441406 C 350.226562 316.917969 349.429688 317.277344 348.722656 317.304688 L 348.730469 317.304688 L 348.597656 317.308594 C 348.074219 317.308594 347.539062 317.152344 347.007812 316.871094 C 346.476562 316.589844 345.957031 316.171875 345.511719 315.703125 C 343.917969 314.054688 342.992188 311.738281 342.996094 309.441406 C 342.996094 309.316406 343 309.183594 343.003906 309.050781 C 343.027344 308.574219 342.738281 308.136719 342.289062 307.972656 C 341.839844 307.804688 341.332031 307.957031 341.046875 308.339844 C 340.226562 309.417969 339.40625 310.492188 338.589844 311.570312 C 337.011719 313.667969 335.390625 315.664062 333.3125 316.480469 C 332.605469 316.765625 331.839844 316.902344 331.0625 316.902344 C 329.398438 316.910156 327.714844 316.253906 326.570312 315.097656 C 325.425781 313.957031 324.777344 312.277344 324.78125 310.621094 C 324.78125 309.835938 324.925781 309.0625 325.214844 308.351562 C 325.441406 307.792969 325.171875 307.152344 324.613281 306.929688 C 324.054688 306.699219 323.417969 306.964844 323.191406 307.523438 " fill-opacity="1" fill-rule="nonzero"/><path fill="#f2d5b6" d="M 447.066406 133.121094 C 445.441406 145.363281 442.652344 157.328125 438.820312 169.066406 C 437.726562 172.425781 443 173.851562 444.089844 170.519531 C 448.074219 158.296875 450.835938 145.863281 452.527344 133.121094 C 452.992188 129.636719 447.523438 129.679688 447.066406 133.121094 " fill-opacity="1" fill-rule="nonzero"/><path fill="#f2d5b6" d="M 444.984375 141.679688 C 444.835938 137.261719 444.921875 132.855469 445.25 128.445312 C 445.511719 124.929688 440.042969 124.957031 439.785156 128.445312 C 439.464844 132.855469 439.375 137.261719 439.523438 141.679688 C 439.636719 145.191406 445.101562 145.203125 444.984375 141.679688 " fill-opacity="1" fill-rule="nonzero"/><path fill="#f2d5b6" d="M 436.828125 177.574219 C 436.496094 179.035156 436.191406 179.871094 435.53125 181.074219 C 434.824219 182.382812 435.203125 184.046875 436.515625 184.8125 C 437.769531 185.546875 439.542969 185.136719 440.253906 183.832031 C 441.074219 182.320312 441.714844 180.703125 442.09375 179.023438 C 442.425781 177.574219 441.671875 176.070312 440.1875 175.667969 C 438.804688 175.285156 437.160156 176.121094 436.828125 177.574219 " fill-opacity="1" fill-rule="nonzero"/><path fill="#f2d5b6" d="M 371.101562 242.96875 C 380.246094 241.476562 388.808594 238.234375 396.667969 233.335938 C 399.652344 231.480469 396.914062 226.753906 393.914062 228.621094 C 386.414062 233.289062 378.359375 236.28125 369.648438 237.699219 C 366.179688 238.261719 367.65625 243.523438 371.101562 242.96875 " fill-opacity="1" fill-rule="nonzero"/><path fill="#f2d5b6" d="M 346.492188 246.117188 C 351.1875 246.359375 355.8125 246.019531 360.4375 245.207031 C 363.902344 244.59375 362.429688 239.332031 358.988281 239.9375 C 354.84375 240.667969 350.6875 240.871094 346.492188 240.652344 C 342.96875 240.46875 342.988281 245.933594 346.492188 246.117188 " fill-opacity="1" fill-rule="nonzero"/><path fill="#f2d5b6" d="M 353.648438 238.488281 C 359.445312 238.132812 365.1875 237.394531 370.886719 236.28125 C 372.613281 235.9375 371.882812 233.304688 370.160156 233.644531 C 364.699219 234.714844 359.203125 235.414062 353.648438 235.753906 C 351.898438 235.859375 351.886719 238.59375 353.648438 238.488281 " fill-opacity="1" fill-rule="nonzero"/><path fill="#f2d5b6" d="M 270.355469 229.167969 C 276.132812 233.011719 282.441406 235.789062 289.164062 237.492188 C 292.585938 238.351562 294.03125 233.082031 290.617188 232.222656 C 284.3125 230.628906 278.523438 228.046875 273.113281 224.449219 C 270.171875 222.492188 267.4375 227.226562 270.355469 229.167969 " fill-opacity="1" fill-rule="nonzero"/><path fill="#f2d5b6" d="M 294.933594 239.449219 C 298.238281 241.105469 301.753906 241.964844 305.460938 241.886719 C 308.976562 241.816406 308.984375 236.351562 305.460938 236.421875 C 302.730469 236.480469 300.136719 235.960938 297.691406 234.730469 C 294.550781 233.152344 291.785156 237.867188 294.933594 239.449219 " fill-opacity="1" fill-rule="nonzero"/><path fill="#f2d5b6" d="M 404.578125 228.574219 C 409.332031 225.824219 413.828125 222.714844 418.101562 219.273438 C 419.476562 218.167969 417.53125 216.246094 416.171875 217.339844 C 412.078125 220.636719 407.746094 223.582031 403.199219 226.214844 C 401.675781 227.09375 403.050781 229.453125 404.578125 228.574219 " fill-opacity="1" fill-rule="nonzero"/><path fill="#f2d5b6" d="M 435.203125 176.019531 C 437.109375 171.425781 438.429688 166.695312 439.175781 161.78125 C 439.4375 160.058594 436.808594 159.320312 436.542969 161.054688 C 435.796875 165.96875 434.476562 170.699219 432.566406 175.292969 C 431.894531 176.917969 434.535156 177.621094 435.203125 176.019531 " fill-opacity="1" fill-rule="nonzero"/><path fill="#f2d5b6" d="M 432.628906 368.992188 C 430.59375 377.136719 428.558594 385.285156 426.519531 393.429688 C 426.09375 395.140625 428.726562 395.863281 429.15625 394.15625 C 431.191406 386.011719 433.230469 377.867188 435.261719 369.71875 C 435.691406 368.011719 433.054688 367.285156 432.628906 368.992188 " fill-opacity="1" fill-rule="nonzero"/><path fill="#f2d5b6" d="M 428.820312 378.558594 C 429.355469 375.515625 429.648438 372.457031 429.667969 369.367188 C 429.679688 367.605469 426.945312 367.605469 426.9375 369.367188 C 426.917969 372.214844 426.679688 375.027344 426.191406 377.835938 C 425.882812 379.554688 428.519531 380.289062 428.820312 378.558594 " fill-opacity="1" fill-rule="nonzero"/><path fill="#f2d5b6" d="M 426.742188 398.28125 C 426.042969 400.789062 425.429688 403.320312 424.910156 405.875 C 424.5625 407.59375 427.195312 408.328125 427.546875 406.601562 C 428.066406 404.046875 428.675781 401.515625 429.375 399.003906 C 429.847656 397.304688 427.210938 396.585938 426.742188 398.28125 " fill-opacity="1" fill-rule="nonzero"/><path fill="#f2d5b6" d="M 404.671875 443.667969 C 409.066406 440.160156 412.890625 436.113281 416.210938 431.582031 C 417.257812 430.15625 414.882812 428.800781 413.855469 430.203125 C 410.675781 434.539062 406.941406 438.378906 402.742188 441.738281 C 401.367188 442.835938 403.3125 444.753906 404.671875 443.667969 " fill-opacity="1" fill-rule="nonzero"/><path fill="#f2d5b6" d="M 389.199219 454.605469 C 392.804688 453.257812 396.289062 451.648438 399.640625 449.75 C 401.171875 448.882812 399.792969 446.523438 398.257812 447.390625 C 395.117188 449.175781 391.859375 450.707031 388.472656 451.96875 C 386.835938 452.582031 387.542969 455.222656 389.199219 454.605469 " fill-opacity="1" fill-rule="nonzero"/><path fill="#f2d5b6" d="M 393.15625 447.425781 C 396.597656 445.363281 399.953125 443.175781 403.238281 440.863281 C 404.664062 439.855469 403.300781 437.484375 401.855469 438.503906 C 398.578125 440.816406 395.21875 443.003906 391.773438 445.066406 C 390.265625 445.96875 391.640625 448.332031 393.15625 447.425781 " fill-opacity="1" fill-rule="nonzero"/><path fill="#f2d5b6" d="M 346.839844 466.902344 C 354.257812 465.761719 361.453125 463.871094 368.472656 461.214844 C 370.105469 460.59375 369.402344 457.953125 367.746094 458.578125 C 360.726562 461.238281 353.535156 463.128906 346.109375 464.269531 C 344.375 464.539062 345.117188 467.171875 346.839844 466.902344 " fill-opacity="1" fill-rule="nonzero"/><path fill="#f2d5b6" d="M 340.257812 463.144531 C 343.429688 463.28125 346.566406 463.054688 349.695312 462.523438 C 351.429688 462.230469 350.691406 459.597656 348.96875 459.890625 C 346.082031 460.378906 343.1875 460.535156 340.257812 460.410156 C 338.496094 460.335938 338.503906 463.066406 340.257812 463.144531 " fill-opacity="1" fill-rule="nonzero"/><path fill="#f2d5b6" d="M 279.539062 450.515625 C 285.058594 453.410156 290.609375 456.191406 296.835938 457.121094 C 298.558594 457.378906 299.300781 454.742188 297.5625 454.488281 C 291.5625 453.589844 286.238281 450.945312 280.917969 448.160156 C 279.359375 447.339844 277.976562 449.699219 279.539062 450.515625 " fill-opacity="1" fill-rule="nonzero"/><path fill="#f2c8a5" d="M 326.394531 147.347656 C 327.332031 149.113281 327.832031 151.117188 327.832031 153.117188 C 327.832031 153.253906 327.828125 153.394531 327.824219 153.542969 C 327.808594 154.144531 328.289062 154.648438 328.890625 154.660156 C 329.496094 154.675781 329.996094 154.199219 330.011719 153.59375 C 330.015625 153.4375 330.019531 153.28125 330.019531 153.117188 C 330.015625 150.757812 329.433594 148.40625 328.324219 146.324219 C 328.042969 145.792969 327.378906 145.589844 326.847656 145.871094 C 326.316406 146.15625 326.113281 146.816406 326.394531 147.347656 " fill-opacity="1" fill-rule="nonzero"/><path fill="#f2c8a5" d="M 335.214844 152.820312 C 334.984375 154.28125 334.871094 155.757812 334.871094 157.230469 C 334.871094 158.328125 334.929688 159.425781 335.058594 160.515625 C 335.128906 161.113281 335.671875 161.542969 336.269531 161.472656 C 336.871094 161.402344 337.296875 160.859375 337.230469 160.261719 C 337.113281 159.257812 337.054688 158.246094 337.054688 157.230469 C 337.054688 155.867188 337.160156 154.503906 337.371094 153.160156 C 337.464844 152.5625 337.058594 152.003906 336.464844 151.910156 C 335.867188 151.816406 335.308594 152.226562 335.214844 152.820312 " fill-opacity="1" fill-rule="nonzero"/><path fill="#f2c8a5" d="M 349.941406 152.207031 C 349.105469 154.367188 348.675781 156.679688 348.675781 158.996094 L 348.683594 159.273438 C 348.710938 159.875 349.222656 160.335938 349.824219 160.3125 C 350.425781 160.28125 350.894531 159.769531 350.867188 159.167969 L 350.863281 158.996094 C 350.863281 156.949219 351.242188 154.902344 351.980469 152.996094 C 352.199219 152.433594 351.917969 151.800781 351.355469 151.582031 C 350.792969 151.367188 350.160156 151.644531 349.941406 152.207031 " fill-opacity="1" fill-rule="nonzero"/><path fill="#f2c8a5" d="M 344.132812 144.4375 C 343.824219 145.6875 343.671875 146.972656 343.671875 148.257812 C 343.671875 148.511719 343.679688 148.769531 343.691406 149.035156 C 343.726562 149.636719 344.238281 150.101562 344.84375 150.070312 C 345.445312 150.039062 345.910156 149.519531 345.871094 148.917969 C 345.863281 148.703125 345.859375 148.484375 345.859375 148.257812 C 345.859375 147.148438 345.988281 146.035156 346.253906 144.957031 C 346.402344 144.371094 346.042969 143.78125 345.457031 143.632812 C 344.871094 143.492188 344.28125 143.847656 344.136719 144.4375 L 344.132812 144.4375 " fill-opacity="1" fill-rule="nonzero"/><path fill="#f2c8a5" d="M 334.320312 136.242188 C 334.15625 137.078125 334.074219 137.925781 334.074219 138.777344 C 334.074219 140.386719 334.363281 141.992188 334.941406 143.5 C 335.15625 144.0625 335.789062 144.347656 336.347656 144.132812 C 336.917969 143.917969 337.199219 143.285156 336.980469 142.722656 C 336.503906 141.464844 336.257812 140.121094 336.257812 138.777344 C 336.257812 138.066406 336.328125 137.359375 336.464844 136.664062 C 336.578125 136.074219 336.195312 135.496094 335.601562 135.382812 C 335.011719 135.265625 334.4375 135.652344 334.320312 136.242188 " fill-opacity="1" fill-rule="nonzero"/><path fill="#f2c8a5" d="M 354.410156 136.839844 C 353.664062 138.527344 353.175781 140.324219 352.960938 142.152344 C 352.890625 142.753906 353.320312 143.296875 353.914062 143.367188 C 354.519531 143.4375 355.058594 143.007812 355.132812 142.410156 C 355.324219 140.796875 355.753906 139.207031 356.410156 137.722656 C 356.65625 137.175781 356.402344 136.527344 355.851562 136.285156 C 355.300781 136.039062 354.65625 136.289062 354.410156 136.839844 " fill-opacity="1" fill-rule="nonzero"/><path fill="#f2c8a5" d="M 344.511719 127.390625 C 343.746094 129.140625 343.351562 131.046875 343.351562 132.957031 C 343.351562 133.34375 343.367188 133.742188 343.40625 134.144531 C 343.460938 134.746094 343.992188 135.1875 344.59375 135.128906 C 345.195312 135.078125 345.636719 134.542969 345.578125 133.945312 C 345.550781 133.617188 345.539062 133.289062 345.539062 132.957031 C 345.539062 131.351562 345.871094 129.734375 346.515625 128.265625 C 346.753906 127.710938 346.5 127.066406 345.949219 126.828125 C 345.398438 126.585938 344.75 126.839844 344.511719 127.390625 " fill-opacity="1" fill-rule="nonzero"/><path fill="#f2c8a5" d="M 319.867188 133.480469 C 320.164062 135.679688 320.6875 137.847656 321.429688 139.9375 C 321.632812 140.507812 322.257812 140.804688 322.828125 140.605469 C 323.394531 140.402344 323.691406 139.773438 323.492188 139.203125 C 322.796875 137.257812 322.308594 135.238281 322.035156 133.191406 C 321.953125 132.59375 321.40625 132.171875 320.808594 132.253906 C 320.210938 132.332031 319.789062 132.882812 319.871094 133.480469 L 319.867188 133.480469 " fill-opacity="1" fill-rule="nonzero"/><path fill="#f2c8a5" d="M 327.839844 126.1875 C 328.230469 127.746094 328.617188 129.304688 329.003906 130.863281 C 329.152344 131.449219 329.746094 131.804688 330.332031 131.65625 C 330.917969 131.511719 331.269531 130.917969 331.125 130.332031 C 330.734375 128.777344 330.347656 127.21875 329.960938 125.660156 C 329.8125 125.074219 329.21875 124.71875 328.636719 124.867188 C 328.050781 125.011719 327.695312 125.605469 327.839844 126.1875 " fill-opacity="1" fill-rule="nonzero"/><path fill="#f2c8a5" d="M 357.394531 122.742188 C 356.328125 124.78125 355.484375 126.9375 354.886719 129.160156 C 354.730469 129.746094 355.074219 130.34375 355.65625 130.503906 C 356.238281 130.65625 356.835938 130.316406 356.996094 129.730469 C 357.550781 127.664062 358.339844 125.652344 359.332031 123.75 C 359.609375 123.214844 359.402344 122.554688 358.867188 122.277344 C 358.332031 121.996094 357.671875 122.207031 357.394531 122.742188 " fill-opacity="1" fill-rule="nonzero"/><path fill="#f2c8a5" d="M 341.953125 162.847656 C 341.953125 165.183594 341.953125 167.519531 341.953125 169.855469 C 341.953125 170.460938 342.445312 170.945312 343.050781 170.945312 C 343.652344 170.945312 344.140625 170.460938 344.140625 169.855469 C 344.140625 167.519531 344.140625 165.183594 344.140625 162.847656 C 344.140625 162.242188 343.652344 161.753906 343.050781 161.753906 C 342.445312 161.753906 341.957031 162.242188 341.957031 162.847656 L 341.953125 162.847656 " fill-opacity="1" fill-rule="nonzero"/><path fill="#985d5e" d="M 432.722656 342.949219 C 430.210938 347.78125 425.074219 350.730469 419.894531 352.519531 C 415.085938 354.179688 409.820312 355.078125 404.878906 353.765625 C 399.964844 352.433594 395.507812 348.542969 394.652344 343.539062 C 393.996094 339.652344 395.507812 335.761719 396.707031 332.023438 C 398.632812 325.953125 399.613281 318.609375 395.398438 313.847656 C 392.425781 310.460938 387.3125 309.058594 385.300781 305.019531 C 383.941406 302.308594 384.382812 298.988281 385.78125 296.300781 C 387.179688 293.636719 389.429688 291.496094 391.726562 289.550781 C 395.351562 286.511719 399.550781 281.855469 403.941406 282.949219 C 406.28125 288.980469 408.902344 294.945312 412.09375 300.667969 C 417.140625 309.695312 422.320312 318.652344 426.78125 328.003906 C 427.257812 329.078125 427.765625 330.125 428.238281 331.214844 C 429.640625 334.382812 430.910156 337.664062 432.066406 340.984375 C 432.285156 341.640625 432.523438 342.296875 432.722656 342.949219 " fill-opacity="1" fill-rule="nonzero"/><path fill="#985d5e" d="M 282.128906 407.738281 C 271.902344 414.949219 259.097656 417.332031 246.773438 416.980469 C 245.632812 416.9375 244.695312 416.847656 243.910156 416.699219 C 242.683594 412.171875 241.699219 407.367188 240.894531 402.273438 C 240.28125 398.449219 239.886719 394.558594 239.710938 390.652344 C 239.515625 386.214844 239.558594 381.710938 239.867188 377.214844 C 240.128906 372.6875 240.652344 368.144531 241.394531 363.601562 C 242.117188 359.054688 243.054688 354.554688 244.148438 350.050781 C 245.023438 346.554688 245.960938 343.082031 247.011719 339.609375 C 248.28125 335.433594 249.679688 331.28125 251.164062 327.195312 C 254.417969 318.257812 258.15625 309.582031 262.109375 301.390625 C 267.726562 300.976562 273.738281 301.390625 277.191406 305.652344 C 281.5625 311.027344 278.984375 318.894531 278.652344 325.820312 C 278.066406 337.378906 284.292969 348.042969 290.457031 357.832031 C 292.796875 361.523438 295.179688 365.238281 296.597656 369.371094 C 301.40625 383.21875 294.125 399.28125 282.128906 407.738281 " fill-opacity="1" fill-rule="nonzero"/><path fill="#985d5e" d="M 432.199219 469.332031 C 432.199219 470.296875 432.175781 471.257812 432.152344 472.28125 C 432.113281 474.6875 432.023438 477.984375 431.847656 481.875 C 431.714844 484.957031 431.542969 488.410156 431.257812 492.058594 C 431.21875 492.515625 431.191406 492.976562 431.148438 493.457031 C 427.214844 492.824219 423.519531 490.550781 421.421875 487.164062 C 419.238281 483.667969 418.714844 479.296875 419.5 475.253906 C 420.289062 471.234375 422.296875 467.519531 424.835938 464.285156 C 426.277344 462.429688 429.382812 457.925781 432.222656 456.464844 C 432.304688 460.222656 432.304688 464.480469 432.199219 469.332031 " fill-opacity="1" fill-rule="nonzero"/></svg>