<svg xmlns="http://www.w3.org/2000/svg" xmlns:xlink="http://www.w3.org/1999/xlink" width="940" zoomAndPan="magnify" viewBox="0 0 705 591.000005" height="788" preserveAspectRatio="xMidYMid meet" version="1.0"><defs><clipPath id="95478134f0"><path d="M 227 59 L 454 59 L 454 472 L 227 472 Z M 227 59 " clip-rule="nonzero"/></clipPath></defs><path fill="#8b941b" d="M 270.9375 487.484375 C 263.652344 482.359375 255.417969 483.648438 247.046875 488.191406 C 244.554688 489.542969 239.421875 489.582031 236.613281 490.144531 C 234.195312 490.738281 232.078125 492.542969 229.515625 492.535156 C 226.558594 492.496094 223.847656 491.882812 220.953125 491.058594 C 219.382812 490.933594 214.136719 489.921875 213.449219 488.683594 C 214.960938 487.027344 216.53125 487.152344 218.550781 486.527344 C 220.363281 486.078125 221.0625 484.753906 222.722656 483.703125 C 224.386719 482.652344 226.167969 482.597656 227.796875 481.941406 C 230.667969 480.589844 229.195312 479.289062 226.84375 479.101562 C 222.710938 478.96875 219.023438 480.644531 214.742188 479.90625 C 210.882812 478.808594 207.808594 477.773438 205.527344 474.234375 C 207.253906 472.398438 208.039062 472.464844 205.597656 470.886719 C 204.84375 470.429688 201.835938 468.609375 201.929688 467.433594 C 202.234375 466.078125 205.941406 466.574219 207.003906 465.667969 C 208.664062 464.621094 208.972656 463.261719 211.355469 463.058594 C 210.515625 461.214844 207.890625 461.992188 206.53125 461.683594 C 204.996094 461.167969 203.914062 459.898438 203.011719 458.839844 C 201.929688 457.566406 199.242188 449.261719 202.917969 450.148438 C 203.222656 448.789062 200.816406 446.820312 200.734375 445.433594 C 200.316406 443.230469 201.320312 440.546875 201.691406 438.40625 C 201.785156 437.230469 201.667969 436.234375 202.152344 435.089844 C 202.671875 433.550781 202.457031 433.730469 203.996094 434.25 C 205.53125 434.769531 208.097656 434.777344 209.601562 435.6875 C 211.679688 436.839844 212.433594 437.292969 214.699219 436.09375 C 216.753906 435.074219 218.324219 435.199219 220.433594 435.960938 C 222.902344 437.144531 226.605469 440.207031 227.558594 443.046875 C 229.011719 442.175781 229.347656 440.425781 229.476562 438.859375 C 229.386719 437.46875 228.613281 434.84375 231.050781 436.417969 C 231.507812 435.664062 230.761719 432.644531 232.148438 432.558594 C 232.753906 432.410156 234.886719 435.34375 235.246094 435.769531 C 237.261719 437.707031 239.277344 439.644531 240.867188 441.941406 C 242.640625 444.453125 242.144531 448.160156 242.496094 451.148438 C 242.40625 452.324219 242.425781 454.496094 243.753906 455.195312 C 245.46875 455.925781 246.410156 454.027344 247.109375 452.703125 C 248.386719 449.054688 247.761719 447.03125 246.441406 443.769531 C 245.335938 440.328125 249.171875 439.25 248.820312 436.261719 C 248.734375 434.875 247.503906 433 248.382812 431.886719 C 249.292969 430.378906 250.34375 432.042969 251.242188 433.101562 C 253.078125 434.828125 254.878906 436.945312 256.714844 438.671875 C 259.453125 441.457031 260.621094 444.117188 260.699219 448.070312 C 260.722656 450.242188 260.777344 452.023438 260.800781 454.195312 C 260.824219 456.367188 261.660156 458.210938 262.109375 460.023438 C 262.96875 464.039062 263.261719 467.8125 263.339844 471.765625 C 263.511719 474.539062 263.40625 478.28125 265.425781 480.21875 Z M 270.9375 487.484375 " fill-opacity="1" fill-rule="nonzero"/><g clip-path="url(#95478134f0)"><path fill="#f68e5d" d="M 446.804688 361.5625 C 439.222656 343.183594 429.476562 325.769531 417.5625 309.324219 C 412.148438 301.585938 407.816406 292.878906 403.484375 285.140625 C 398.070312 276.433594 390.488281 269.660156 386.15625 259.988281 C 389.40625 259.988281 391.570312 260.957031 394.820312 260.957031 C 395.902344 251.28125 380.742188 235.800781 376.410156 227.097656 C 372.695312 221.121094 367.957031 213.78125 365.703125 206.324219 C 387.363281 197.4375 407.566406 180.121094 407.484375 160.085938 C 407.4375 147.996094 394.839844 146.585938 392.273438 138.613281 C 389.980469 131.511719 391.660156 123.890625 391.070312 116.511719 C 394.8125 109.824219 398.894531 101.601562 398.894531 94.0625 C 398.894531 82.710938 392.707031 71.363281 383.421875 65.175781 C 375.300781 70.050781 370.476562 76.835938 363.261719 82.019531 C 348.332031 73.246094 331.597656 68.941406 315.378906 69.394531 C 303.667969 69.722656 292.238281 72.535156 281.953125 77.914062 C 279.503906 76.085938 277.078125 74.359375 275.117188 72.398438 C 269.960938 67.238281 264.800781 58.984375 257.582031 58.984375 C 248.296875 65.175781 246.234375 80.648438 244.171875 90.96875 C 242.707031 99.765625 244.382812 108.039062 248.800781 115.054688 C 247.136719 122.359375 248.789062 130.578125 246.238281 137.390625 C 242.109375 147.707031 225.429688 147.703125 227.492188 160.085938 C 227.363281 174.488281 249.875 192.488281 266.929688 202.429688 C 266.300781 207.597656 262.515625 212.027344 260.53125 216.453125 C 257.28125 225.160156 251.867188 233.867188 247.535156 241.609375 C 241.039062 252.25 236.707031 262.890625 231.292969 272.5625 C 229.125 276.433594 225.875 283.207031 228.042969 287.074219 C 229.125 289.976562 232.375 289.007812 233.457031 292.878906 C 234.539062 294.8125 233.457031 298.683594 233.457031 300.617188 C 233.457031 311.257812 233.457031 320.933594 236.707031 330.609375 C 239.957031 341.25 249.703125 349.957031 257.28125 358.664062 C 273.527344 376.078125 280.023438 400.261719 289.773438 420.578125 C 294.105469 431.21875 298.433594 442.828125 303.851562 452.5 C 306.015625 457.335938 309.265625 461.207031 312.515625 465.078125 C 316.847656 470.882812 317.929688 471.847656 325.511719 471.847656 C 348.253906 469.914062 370.996094 469.914062 392.65625 466.042969 C 404.566406 464.109375 417.5625 458.304688 427.308594 452.5 C 441.390625 445.726562 444.636719 437.988281 450.054688 425.414062 C 456.550781 406.0625 454.382812 379.945312 446.804688 361.5625 Z M 446.804688 361.5625 " fill-opacity="1" fill-rule="nonzero"/></g><path fill="#f7ece4" d="M 257.355469 196.339844 C 277.261719 208.773438 286.914062 222.953125 292.1875 241.582031 C 292.414062 242.382812 291.460938 242.800781 290.894531 242.335938 C 285.183594 237.621094 278.9375 233.167969 271.359375 233.207031 C 279.519531 242.894531 288.007812 255.964844 290.332031 268.46875 C 292.625 280.804688 291.921875 299.9375 278.527344 280.335938 C 277.464844 287.429688 278.972656 301.648438 281.128906 313.347656 C 283.285156 325.046875 289.582031 339.539062 294.867188 344.453125 C 303.46875 352.449219 314.210938 357.308594 324.097656 363.433594 C 329.492188 350.613281 339.574219 341.8125 349.714844 332.667969 C 354.890625 328.003906 360.085938 323.132812 363.917969 317.261719 C 367.921875 311.128906 369.707031 304.546875 371.753906 297.691406 C 367.699219 299.035156 363.5 299.8125 359.910156 302.292969 C 359.394531 302.648438 358.785156 302.160156 358.746094 301.621094 C 358.230469 294.050781 364.398438 291.371094 367.210938 285.285156 C 368.488281 282.523438 369.789062 276.203125 366.460938 274.4375 C 364.015625 273.140625 361.398438 272.265625 359.269531 270.421875 C 346.726562 259.566406 343.53125 241.027344 353.945312 227.945312 C 349.953125 227.476562 343.714844 226.65625 342.167969 222.871094 C 340.867188 219.683594 344.363281 216.8125 346.648438 215.234375 C 351.53125 211.855469 357.25 210.191406 369.0625 206.710938 C 393.558594 199.488281 407.230469 180.394531 407.472656 160.5625 C 396.113281 155.816406 368.140625 153.007812 356.425781 154.097656 C 337.792969 155.828125 332.164062 172.453125 316.871094 180.191406 C 305.34375 170.390625 290.5625 156.929688 280.675781 154.5 C 268.035156 151.394531 260.675781 149.800781 247.585938 149.929688 C 240.367188 150.003906 231.460938 151.238281 227.371094 157.074219 C 227.28125 157.992188 227.308594 158.988281 227.492188 160.082031 C 227.386719 171.894531 237.449219 183.90625 257.355469 196.339844 Z M 257.355469 196.339844 " fill-opacity="1" fill-rule="nonzero"/><path fill="#9c4639" d="M 329.910156 162.796875 C 337.414062 166.828125 325.355469 180.894531 317.074219 180.09375 C 311.277344 179.535156 296.671875 166.035156 303.085938 162.222656 C 309.496094 158.410156 322.40625 158.761719 329.910156 162.796875 Z M 329.910156 162.796875 " fill-opacity="1" fill-rule="nonzero"/><path fill="#9c4639" d="M 331.457031 184.875 C 325.90625 186.753906 322.007812 182.890625 318.570312 179.0625 C 317.894531 178.304688 316.714844 178.597656 316.207031 179.367188 C 314.714844 181.640625 312.589844 183.121094 310.21875 184.375 C 306.066406 186.574219 302.230469 184.902344 297.980469 184.996094 C 297.347656 185.011719 297.054688 185.753906 297.476562 186.210938 C 303.359375 192.558594 314.871094 186.914062 318.804688 180.882812 C 318.019531 180.984375 317.230469 181.085938 316.441406 181.1875 C 320.144531 185.285156 327.0625 191.316406 332.300781 186.320312 C 332.910156 185.738281 332.285156 184.59375 331.457031 184.875 Z M 331.457031 184.875 " fill-opacity="1" fill-rule="nonzero"/><path fill="#9c4639" d="M 268.238281 354.238281 C 259.984375 365.585938 261.015625 395.503906 264.109375 413.042969 C 266.175781 424.390625 272.363281 433.675781 277.519531 445.023438 C 280.613281 453.277344 287.835938 464.625 288.867188 473.910156 C 288.867188 477.003906 288.867188 479.066406 286.800781 483.195312 C 282.675781 488.351562 276.488281 490.417969 283.707031 493.511719 C 289.894531 496.609375 307.429688 496.609375 312.589844 491.449219 C 319.808594 486.292969 318.777344 470.816406 318.777344 462.5625 C 318.777344 452.246094 315.683594 443.992188 312.589844 433.675781 C 307.429688 410.980469 310.957031 421.296875 309.925781 398.601562 C 309.921875 398.597656 276.488281 342.890625 268.238281 354.238281 Z M 268.238281 354.238281 " fill-opacity="1" fill-rule="nonzero"/><path fill="#9c4639" d="M 385.824219 352.175781 C 387.886719 374.871094 377.570312 398.597656 369.320312 419.230469 C 365.195312 430.578125 359.003906 440.898438 353.847656 451.214844 C 348.691406 461.53125 345.59375 468.753906 346.625 479.066406 C 346.625 486.289062 347.65625 487.320312 340.4375 489.386719 C 335.28125 490.417969 330.121094 490.417969 324.964844 490.417969 C 318.777344 490.417969 317.746094 488.355469 315.683594 482.164062 C 313.617188 475.976562 312.585938 471.847656 312.585938 465.65625 C 310.523438 441.929688 313.617188 420.265625 322.902344 397.570312 C 328.0625 386.21875 385.824219 352.175781 385.824219 352.175781 Z M 385.824219 352.175781 " fill-opacity="1" fill-rule="nonzero"/><path fill="#9c4639" d="M 344.253906 133.632812 C 344.246094 133.308594 344.238281 132.984375 344.230469 132.660156 C 344.328125 131.328125 344.640625 130.148438 345.171875 129.117188 C 346.113281 127.289062 347.484375 126.511719 349.011719 126.496094 C 348.90625 126.488281 348.800781 126.480469 348.695312 126.46875 C 348.828125 126.472656 348.960938 126.488281 349.09375 126.492188 C 349.242188 126.496094 349.390625 126.503906 349.542969 126.519531 C 349.960938 126.542969 350.375 126.558594 350.804688 126.597656 C 351.996094 126.707031 353.449219 127.964844 354.390625 129.042969 C 356.296875 131.222656 357.332031 134.855469 357.105469 138.179688 C 356.8125 142.378906 354.566406 145.601562 351.710938 145.925781 C 349.445312 146.183594 347.101562 144.59375 345.625 141.808594 C 344.871094 140.378906 344.398438 138.800781 344.195312 137.070312 C 344.054688 135.824219 344.089844 134.699219 344.253906 133.632812 Z M 344.253906 133.632812 " fill-opacity="1" fill-rule="nonzero"/><path fill="#9c4639" d="M 280.21875 128.992188 C 280.324219 128.683594 280.429688 128.378906 280.539062 128.070312 C 281.097656 126.859375 281.804688 125.863281 282.664062 125.082031 C 284.1875 123.707031 285.742188 123.460938 287.179688 123.980469 C 287.082031 123.9375 286.988281 123.890625 286.890625 123.84375 C 287.015625 123.894531 287.132812 123.957031 287.257812 124.007812 C 287.394531 124.058594 287.53125 124.125 287.667969 124.191406 C 288.050781 124.359375 288.4375 124.519531 288.824219 124.707031 C 289.898438 125.230469 290.816406 126.914062 291.320312 128.257812 C 292.339844 130.96875 292.035156 134.734375 290.648438 137.765625 C 288.902344 141.597656 285.667969 143.820312 282.878906 143.121094 C 280.667969 142.566406 279.03125 140.253906 278.625 137.125 C 278.425781 135.523438 278.535156 133.875 278.953125 132.1875 C 279.257812 130.972656 279.691406 129.933594 280.21875 128.992188 Z M 280.21875 128.992188 " fill-opacity="1" fill-rule="nonzero"/><path fill="#d19086" d="M 255.859375 110.253906 C 255.859375 108.191406 255.34375 106.128906 254.828125 104.0625 C 253.796875 99.9375 252.761719 96.328125 252.761719 91.675781 C 252.765625 86.582031 253.023438 77.152344 256.503906 73.039062 C 260.871094 67.882812 264.085938 74.636719 267.722656 78.273438 C 270.816406 81.367188 274.941406 83.949219 272.363281 89.105469 C 269.265625 95.292969 257.921875 99.421875 258.4375 106.644531 Z M 255.859375 110.253906 " fill-opacity="1" fill-rule="nonzero"/><path fill="#d19086" d="M 386.117188 113.863281 C 386.117188 111.800781 386.632812 109.738281 387.148438 107.675781 C 388.179688 103.546875 389.210938 99.9375 389.210938 95.296875 C 389.210938 90.132812 388.429688 84.367188 386.523438 79.5625 C 383.019531 70.75 379.210938 76.925781 374.253906 81.882812 C 371.160156 84.976562 367.035156 87.558594 369.613281 92.714844 C 372.707031 98.90625 384.054688 103.03125 383.539062 110.253906 Z M 386.117188 113.863281 " fill-opacity="1" fill-rule="nonzero"/><path fill="#f68e5d" d="M 267.71875 342.890625 C 266.171875 347.015625 265.65625 352.175781 266.171875 356.816406 C 266.6875 362.492188 272.359375 372.808594 277.519531 375.386719 C 278.550781 372.808594 279.066406 370.230469 281.644531 371.261719 C 283.707031 371.777344 286.285156 376.421875 287.832031 377.96875 C 290.410156 382.09375 292.988281 386.738281 293.503906 391.894531 C 294.019531 401.179688 304.242188 417.464844 311.976562 424.171875 C 313.523438 422.109375 318.828125 383.53125 292.472656 362.496094 C 289.324219 359.980469 287.316406 356.304688 284.222656 353.726562 C 282.675781 352.695312 279.066406 351.144531 279.066406 348.566406 " fill-opacity="1" fill-rule="nonzero"/><path fill="#f68e5d" d="M 324.453125 382.609375 C 320.839844 385.703125 318.261719 393.441406 316.714844 398.082031 C 315.167969 402.726562 313.621094 409.429688 314.136719 414.074219 C 317.746094 415.621094 321.871094 410.460938 323.933594 408.914062 C 327.546875 405.820312 330.640625 403.242188 333.734375 399.628906 C 336.828125 396.535156 339.40625 392.925781 342.5 389.828125 C 345.082031 387.765625 348.175781 382.609375 351.785156 382.609375 C 351.785156 386.21875 351.269531 390.347656 351.785156 393.957031 C 357.457031 394.472656 361.585938 385.1875 364.679688 381.578125 C 368.289062 377.96875 370.867188 370.746094 374.992188 368.167969 C 378.605469 372.808594 378.089844 379.511719 381.699219 383.640625 C 386.855469 380.03125 389.433594 371.777344 392.53125 366.101562 C 395.625 359.914062 398.203125 352.691406 398.71875 345.46875 C 398.71875 343.40625 399.234375 339.796875 397.6875 338.25 C 395.625 336.703125 392.011719 338.25 389.433594 339.796875 C 384.277344 342.375 379.121094 344.953125 374.476562 348.566406 C 363.648438 355.785156 351.785156 360.945312 341.988281 369.199219 C 336.3125 373.324219 331.15625 377.449219 326 382.609375 C 323.9375 384.671875 316.714844 389.316406 316.203125 392.410156 " fill-opacity="1" fill-rule="nonzero"/><path fill="#f68e5d" d="M 433.269531 352.175781 C 451.835938 354.238281 479.6875 366.617188 490 383.125 C 503.410156 402.726562 505.472656 425.421875 500.316406 448.117188 C 494.128906 475.972656 475.5625 489.382812 449.773438 500.734375 C 438.429688 504.859375 430.175781 513.113281 417.796875 517.242188 C 406.453125 520.335938 396.136719 520.335938 383.761719 520.335938 C 363.132812 520.335938 344.566406 511.050781 322.902344 511.050781 C 312.589844 511.050781 302.273438 512.082031 291.960938 516.207031 C 282.675781 519.304688 268.234375 530.652344 268.234375 514.144531 C 267.203125 489.382812 301.242188 473.910156 320.839844 466.6875 C 342.5 459.46875 365.195312 458.433594 385.824219 450.179688 C 400.261719 446.054688 414.703125 438.835938 420.890625 424.390625 C 425.019531 416.136719 423.988281 401.695312 420.890625 393.441406 " fill-opacity="1" fill-rule="nonzero"/><path fill="#f7ece4" d="M 394.234375 516.246094 C 379.882812 510.992188 366.8125 503.140625 354.488281 494.179688 C 353.976562 493.804688 353.972656 492.945312 354.675781 492.765625 C 365.183594 490.054688 376.152344 490.433594 386.738281 488.265625 C 368.15625 483.117188 348.632812 478 329.300781 480.847656 C 328.589844 480.949219 327.9375 480.144531 328.546875 479.550781 C 335.730469 472.589844 344.929688 468.109375 354.285156 464.75 C 349.121094 463.472656 343.910156 462.566406 338.667969 461.910156 C 332.691406 463.226562 326.730469 464.726562 320.839844 466.6875 C 301.246094 473.910156 267.203125 489.382812 268.238281 514.144531 C 268.238281 530.652344 282.675781 519.300781 291.960938 516.207031 C 302.277344 512.082031 312.589844 511.050781 322.90625 511.050781 C 344.566406 511.050781 363.132812 520.335938 383.761719 520.335938 C 391.457031 520.335938 398.351562 520.332031 405.195312 519.589844 C 401.496094 518.667969 397.835938 517.5625 394.234375 516.246094 Z M 394.234375 516.246094 " fill-opacity="1" fill-rule="nonzero"/><path fill="#f7ece4" d="M 374.328125 452.125 C 393.535156 455.664062 410.519531 449.558594 424.007812 435.683594 C 430.164062 429.355469 433.640625 421.164062 435.304688 412.605469 C 436.996094 403.894531 437.953125 393.035156 436.019531 384.34375 C 435.867188 383.664062 434.796875 383.660156 434.648438 384.34375 C 433.113281 391.332031 434.121094 398.921875 433.546875 406.054688 C 432.847656 414.773438 430.335938 423.042969 425.34375 430.269531 C 414.089844 446.574219 393.777344 453.714844 374.625 451.054688 C 373.933594 450.960938 373.613281 451.996094 374.328125 452.125 Z M 374.328125 452.125 " fill-opacity="1" fill-rule="nonzero"/><path fill="#f7ece4" d="M 268.488281 282.570312 C 268.328125 286.214844 266.808594 291.117188 268.398438 294.523438 C 268.621094 295.003906 269.417969 294.988281 269.648438 294.523438 C 270.402344 292.988281 270.375 291.386719 270.484375 289.699219 C 270.636719 287.324219 270.714844 284.949219 270.660156 282.570312 C 270.628906 281.164062 268.546875 281.175781 268.488281 282.570312 Z M 268.488281 282.570312 " fill-opacity="1" fill-rule="nonzero"/><path fill="#f7ece4" d="M 255.914062 287.820312 C 255.375 289.351562 255.253906 291.101562 255.492188 292.695312 C 255.71875 294.222656 257.011719 296.21875 258.800781 295.660156 C 259.328125 295.492188 259.609375 294.984375 259.488281 294.449219 C 259.253906 293.441406 258.507812 292.726562 258.382812 291.648438 C 258.238281 290.40625 258.25 289.015625 257.859375 287.820312 C 257.535156 286.84375 256.242188 286.875 255.914062 287.820312 Z M 255.914062 287.820312 " fill-opacity="1" fill-rule="nonzero"/><path fill="#f7ece4" d="M 385.492188 299.125 C 385.574219 300.929688 385.328125 302.699219 384.90625 304.453125 C 384.53125 306.015625 383.949219 307.433594 383.917969 309.054688 C 383.894531 310.078125 385.179688 310.269531 385.699219 309.539062 C 387.765625 306.648438 388.277344 302.257812 387.523438 298.847656 C 387.273438 297.707031 385.441406 297.960938 385.492188 299.125 Z M 385.492188 299.125 " fill-opacity="1" fill-rule="nonzero"/><path fill="#f7ece4" d="M 394.855469 307.890625 C 394.132812 309.195312 392.722656 310.242188 392.664062 311.8125 C 392.636719 312.539062 393.589844 313.179688 394.222656 312.707031 C 394.867188 312.226562 395.289062 311.628906 395.753906 310.980469 C 396.1875 310.378906 396.625 309.78125 396.957031 309.117188 C 397.652344 307.726562 395.621094 306.507812 394.855469 307.890625 Z M 394.855469 307.890625 " fill-opacity="1" fill-rule="nonzero"/><path fill="#f7ece4" d="M 352.230469 347.957031 C 352.878906 345.90625 353.921875 344.105469 355.246094 342.417969 C 356.523438 340.792969 358.132812 339.453125 359.214844 337.675781 C 359.714844 336.859375 358.726562 335.867188 357.90625 336.367188 C 354.09375 338.703125 351.207031 343.089844 350.207031 347.398438 C 349.90625 348.71875 351.824219 349.246094 352.230469 347.957031 Z M 352.230469 347.957031 " fill-opacity="1" fill-rule="nonzero"/><path fill="#f7ece4" d="M 365.917969 347.105469 C 367.09375 345.0625 369.160156 344.027344 370.664062 342.296875 C 371.410156 341.4375 370.488281 340.3125 369.488281 340.773438 C 367.175781 341.832031 365.191406 343.738281 364.109375 346.046875 C 363.542969 347.25 365.230469 348.292969 365.917969 347.105469 Z M 365.917969 347.105469 " fill-opacity="1" fill-rule="nonzero"/><path fill="#f7ece4" d="M 272.875 332.230469 C 272.207031 337.269531 276.8125 342.753906 281.207031 344.675781 C 282.195312 345.109375 283.257812 343.972656 282.414062 343.113281 C 279.464844 340.105469 275.050781 336.886719 275.097656 332.230469 C 275.113281 330.75 273.058594 330.855469 272.875 332.230469 Z M 272.875 332.230469 " fill-opacity="1" fill-rule="nonzero"/><path fill="#f7ece4" d="M 432.019531 461.714844 C 435.84375 461.128906 438.332031 460.3125 441.257812 457.664062 C 443.90625 455.269531 446.675781 452.140625 448.675781 449.1875 C 449.316406 448.246094 448.105469 447.289062 447.226562 447.734375 C 444.773438 448.980469 443.105469 451.621094 441.351562 453.660156 C 438.503906 456.976562 435.648438 458.636719 431.507812 459.867188 C 430.296875 460.226562 430.824219 461.898438 432.019531 461.714844 Z M 432.019531 461.714844 " fill-opacity="1" fill-rule="nonzero"/><path fill="#f7ece4" d="M 448.867188 462.285156 C 451.703125 462.320312 454.042969 460.347656 455.703125 458.25 C 456.574219 457.144531 455.269531 455.839844 454.164062 456.710938 C 453.332031 457.371094 452.519531 458.035156 451.703125 458.71875 C 450.722656 459.53125 449.515625 459.976562 448.386719 460.527344 C 447.511719 460.953125 447.976562 462.277344 448.867188 462.285156 Z M 448.867188 462.285156 " fill-opacity="1" fill-rule="nonzero"/><path fill="#f7ece4" d="M 454.160156 421.578125 C 454.75 420.394531 455.140625 419.113281 455.484375 417.835938 C 455.835938 416.515625 456.425781 415.269531 456.480469 413.890625 C 456.515625 412.964844 455.394531 412.648438 454.78125 413.1875 C 452.851562 414.875 452.308594 418.625 452.257812 421.0625 C 452.234375 422.050781 453.703125 422.5 454.160156 421.578125 Z M 454.160156 421.578125 " fill-opacity="1" fill-rule="nonzero"/><path fill="#f7ece4" d="M 462.085938 423.019531 C 462.75 419.984375 463.609375 416.21875 461.816406 413.414062 C 461.355469 412.691406 459.941406 412.894531 460.058594 413.890625 C 460.40625 416.839844 460.433594 419.480469 459.917969 422.421875 C 459.671875 423.828125 461.773438 424.449219 462.085938 423.019531 Z M 462.085938 423.019531 " fill-opacity="1" fill-rule="nonzero"/><path fill="#8b941b" d="M 422.070312 343.574219 C 427.21875 336.308594 425.964844 328.066406 421.457031 319.675781 C 420.113281 317.179688 420.097656 312.042969 419.542969 309.234375 C 418.957031 306.816406 417.164062 304.691406 417.183594 302.125 C 417.234375 299.167969 417.855469 296.457031 418.691406 293.566406 C 418.824219 292 419.855469 286.753906 421.097656 286.070312 C 422.746094 287.589844 422.613281 289.15625 423.234375 291.183594 C 423.671875 292.996094 424.996094 293.703125 426.039062 295.367188 C 427.082031 297.035156 427.128906 298.816406 427.78125 300.449219 C 429.121094 303.328125 430.425781 301.855469 430.625 299.503906 C 430.777344 295.371094 429.113281 291.679688 429.867188 287.398438 C 430.980469 283.542969 432.027344 280.472656 435.574219 278.207031 C 437.402344 279.9375 437.335938 280.722656 438.925781 278.289062 C 439.382812 277.539062 441.214844 274.535156 442.390625 274.632812 C 443.746094 274.945312 443.234375 278.652344 444.132812 279.714844 C 445.175781 281.382812 446.53125 281.695312 446.726562 284.078125 C 448.574219 283.246094 447.804688 280.617188 448.117188 279.261719 C 448.644531 277.726562 449.917969 276.648438 450.980469 275.75 C 452.253906 274.675781 460.570312 272.015625 459.667969 275.691406 C 461.023438 276.003906 463 273.605469 464.390625 273.523438 C 466.597656 273.117188 469.273438 274.132812 471.414062 274.507812 C 472.589844 274.609375 473.585938 274.496094 474.730469 274.988281 C 476.261719 275.511719 476.082031 275.296875 475.5625 276.832031 C 475.035156 278.367188 475.019531 280.933594 474.101562 282.4375 C 472.941406 284.507812 472.484375 285.261719 473.675781 287.53125 C 474.6875 289.589844 474.554688 291.160156 473.785156 293.265625 C 472.59375 295.730469 469.519531 299.421875 466.675781 300.367188 C 467.542969 301.820312 469.289062 302.164062 470.855469 302.296875 C 472.242188 302.21875 474.875 301.453125 473.289062 303.882812 C 474.039062 304.34375 477.0625 303.609375 477.144531 304.996094 C 477.289062 305.601562 474.347656 307.722656 473.921875 308.082031 C 471.976562 310.089844 470.03125 312.097656 467.730469 313.683594 C 465.210938 315.445312 461.503906 314.933594 458.515625 315.273438 C 457.339844 315.175781 455.167969 315.191406 454.464844 316.515625 C 453.730469 318.226562 455.625 319.175781 456.945312 319.878906 C 460.585938 321.175781 462.613281 320.554688 465.882812 319.25 C 469.328125 318.160156 470.386719 322 473.375 321.660156 C 474.765625 321.578125 476.644531 320.355469 477.753906 321.238281 C 479.257812 322.152344 477.589844 323.195312 476.527344 324.097656 C 474.796875 325.925781 472.671875 327.71875 470.9375 329.546875 C 468.140625 332.273438 465.476562 333.429688 461.527344 333.492188 C 459.355469 333.507812 457.574219 333.554688 455.402344 333.570312 C 453.230469 333.585938 451.382812 334.417969 449.570312 334.855469 C 445.550781 335.703125 441.777344 335.976562 437.824219 336.039062 C 435.046875 336.199219 431.308594 336.085938 429.363281 338.089844 Z M 422.070312 343.574219 " fill-opacity="1" fill-rule="nonzero"/></svg>