<svg xmlns="http://www.w3.org/2000/svg" xmlns:xlink="http://www.w3.org/1999/xlink" width="940" zoomAndPan="magnify" viewBox="0 0 705 591.000005" height="788" preserveAspectRatio="xMidYMid meet" version="1.0"><defs><clipPath id="911882fe6d"><path d="M 364 114 L 639 114 L 639 470 L 364 470 Z M 364 114 " clip-rule="nonzero"/></clipPath><clipPath id="c6b706ab7f"><path d="M 377.035156 270.070312 L 418.441406 219.222656 L 478.734375 167.648438 L 520.867188 138.59375 L 573.167969 118.980469 L 607.308594 114.621094 L 632.007812 128.421875 L 638.546875 158.207031 L 630.554688 187.988281 L 616.027344 217.042969 L 605.855469 267.164062 L 592.054688 294.769531 L 549.195312 298.398438 L 517.960938 298.398438 L 539.753906 310.75 L 557.914062 325.277344 L 573.894531 358.691406 L 573.167969 376.125 L 565.90625 405.179688 L 551.375 424.066406 L 531.035156 444.40625 L 504.886719 463.292969 L 464.933594 469.832031 L 427.886719 466.199219 L 409 454.578125 L 400.285156 438.59375 L 377.765625 376.851562 L 364.6875 344.164062 L 371.953125 327.457031 L 379.945312 322.371094 L 381.398438 316.558594 L 380.671875 306.390625 L 390.113281 296.945312 Z M 377.035156 270.070312 " clip-rule="evenodd"/></clipPath><linearGradient x1="988.08209" gradientTransform="matrix(0.585932, 0, 0, 0.58592, 59.595608, 110.588779)" y1="286.45001" x2="520.69727" gradientUnits="userSpaceOnUse" y2="286.45001" id="111fdc3b7d"><stop stop-opacity="1" stop-color="rgb(0%, 100%, 100%)" offset="0"/><stop stop-opacity="1" stop-color="rgb(0%, 99.624634%, 100%)" offset="0.00390625"/><stop stop-opacity="1" stop-color="rgb(0%, 99.249268%, 100%)" offset="0.0078125"/><stop stop-opacity="1" stop-color="rgb(0%, 98.873901%, 100%)" offset="0.0117188"/><stop stop-opacity="1" stop-color="rgb(0%, 98.498535%, 100%)" offset="0.015625"/><stop stop-opacity="1" stop-color="rgb(0%, 98.123169%, 100%)" offset="0.0195313"/><stop stop-opacity="1" stop-color="rgb(0%, 97.747803%, 100%)" offset="0.0234375"/><stop stop-opacity="1" stop-color="rgb(0%, 97.372437%, 100%)" offset="0.0273438"/><stop stop-opacity="1" stop-color="rgb(0%, 96.99707%, 100%)" offset="0.03125"/><stop stop-opacity="1" stop-color="rgb(0%, 96.621704%, 100%)" offset="0.0351563"/><stop stop-opacity="1" stop-color="rgb(0%, 96.246338%, 100%)" offset="0.0390625"/><stop stop-opacity="1" stop-color="rgb(0%, 95.870972%, 100%)" offset="0.0429688"/><stop stop-opacity="1" stop-color="rgb(0%, 95.495605%, 100%)" offset="0.046875"/><stop stop-opacity="1" stop-color="rgb(0%, 95.120239%, 100%)" offset="0.0507813"/><stop stop-opacity="1" stop-color="rgb(0%, 94.744873%, 100%)" offset="0.0546875"/><stop stop-opacity="1" stop-color="rgb(0%, 94.367981%, 100%)" offset="0.0585938"/><stop stop-opacity="1" stop-color="rgb(0%, 93.992615%, 100%)" offset="0.0625"/><stop stop-opacity="1" stop-color="rgb(0%, 93.617249%, 100%)" offset="0.0664062"/><stop stop-opacity="1" stop-color="rgb(0%, 93.241882%, 100%)" offset="0.0703125"/><stop stop-opacity="1" stop-color="rgb(0%, 92.866516%, 100%)" offset="0.0742188"/><stop stop-opacity="1" stop-color="rgb(0%, 92.49115%, 100%)" offset="0.078125"/><stop stop-opacity="1" stop-color="rgb(0%, 92.115784%, 100%)" offset="0.0820313"/><stop stop-opacity="1" stop-color="rgb(0%, 91.740417%, 100%)" offset="0.0859375"/><stop stop-opacity="1" stop-color="rgb(0%, 91.365051%, 100%)" offset="0.0898438"/><stop stop-opacity="1" stop-color="rgb(0%, 90.989685%, 100%)" offset="0.09375"/><stop stop-opacity="1" stop-color="rgb(0%, 90.614319%, 100%)" offset="0.0976563"/><stop stop-opacity="1" stop-color="rgb(0%, 90.238953%, 100%)" offset="0.101563"/><stop stop-opacity="1" stop-color="rgb(0%, 89.863586%, 100%)" offset="0.105469"/><stop stop-opacity="1" stop-color="rgb(0%, 89.48822%, 100%)" offset="0.109375"/><stop stop-opacity="1" stop-color="rgb(0%, 89.112854%, 100%)" offset="0.113281"/><stop stop-opacity="1" stop-color="rgb(0%, 88.737488%, 100%)" offset="0.117188"/><stop stop-opacity="1" stop-color="rgb(0%, 88.362122%, 100%)" offset="0.121094"/><stop stop-opacity="1" stop-color="rgb(0%, 87.986755%, 100%)" offset="0.125"/><stop stop-opacity="1" stop-color="rgb(0%, 87.611389%, 100%)" offset="0.128906"/><stop stop-opacity="1" stop-color="rgb(0%, 87.236023%, 100%)" offset="0.132813"/><stop stop-opacity="1" stop-color="rgb(0%, 86.860657%, 100%)" offset="0.136719"/><stop stop-opacity="1" stop-color="rgb(0%, 86.485291%, 100%)" offset="0.140625"/><stop stop-opacity="1" stop-color="rgb(0%, 86.109924%, 100%)" offset="0.144531"/><stop stop-opacity="1" stop-color="rgb(0%, 85.734558%, 100%)" offset="0.148438"/><stop stop-opacity="1" stop-color="rgb(0%, 85.359192%, 100%)" offset="0.152344"/><stop stop-opacity="1" stop-color="rgb(0%, 84.983826%, 100%)" offset="0.15625"/><stop stop-opacity="1" stop-color="rgb(0%, 84.608459%, 100%)" offset="0.160156"/><stop stop-opacity="1" stop-color="rgb(0%, 84.233093%, 100%)" offset="0.164063"/><stop stop-opacity="1" stop-color="rgb(0%, 83.857727%, 100%)" offset="0.167969"/><stop stop-opacity="1" stop-color="rgb(0%, 83.482361%, 100%)" offset="0.171875"/><stop stop-opacity="1" stop-color="rgb(0%, 83.106995%, 100%)" offset="0.175781"/><stop stop-opacity="1" stop-color="rgb(0%, 82.731628%, 100%)" offset="0.179688"/><stop stop-opacity="1" stop-color="rgb(0%, 82.356262%, 100%)" offset="0.183594"/><stop stop-opacity="1" stop-color="rgb(0%, 81.980896%, 100%)" offset="0.1875"/><stop stop-opacity="1" stop-color="rgb(0%, 81.60553%, 100%)" offset="0.191406"/><stop stop-opacity="1" stop-color="rgb(0%, 81.230164%, 100%)" offset="0.195313"/><stop stop-opacity="1" stop-color="rgb(0%, 80.854797%, 100%)" offset="0.199219"/><stop stop-opacity="1" stop-color="rgb(0%, 80.479431%, 100%)" offset="0.203125"/><stop stop-opacity="1" stop-color="rgb(0%, 80.104065%, 100%)" offset="0.207031"/><stop stop-opacity="1" stop-color="rgb(0%, 79.728699%, 100%)" offset="0.210938"/><stop stop-opacity="1" stop-color="rgb(0%, 79.353333%, 100%)" offset="0.214844"/><stop stop-opacity="1" stop-color="rgb(0%, 78.977966%, 100%)" offset="0.21875"/><stop stop-opacity="1" stop-color="rgb(0%, 78.6026%, 100%)" offset="0.222656"/><stop stop-opacity="1" stop-color="rgb(0%, 78.227234%, 100%)" offset="0.226563"/><stop stop-opacity="1" stop-color="rgb(0%, 77.851868%, 100%)" offset="0.230469"/><stop stop-opacity="1" stop-color="rgb(0%, 77.476501%, 100%)" offset="0.234375"/><stop stop-opacity="1" stop-color="rgb(0%, 77.101135%, 100%)" offset="0.238281"/><stop stop-opacity="1" stop-color="rgb(0%, 76.725769%, 100%)" offset="0.242188"/><stop stop-opacity="1" stop-color="rgb(0%, 76.350403%, 100%)" offset="0.246094"/><stop stop-opacity="1" stop-color="rgb(0%, 75.975037%, 100%)" offset="0.25"/><stop stop-opacity="1" stop-color="rgb(0%, 75.59967%, 100%)" offset="0.253906"/><stop stop-opacity="1" stop-color="rgb(0%, 75.224304%, 100%)" offset="0.257812"/><stop stop-opacity="1" stop-color="rgb(0%, 74.848938%, 100%)" offset="0.261719"/><stop stop-opacity="1" stop-color="rgb(0%, 74.473572%, 100%)" offset="0.265625"/><stop stop-opacity="1" stop-color="rgb(0%, 74.09668%, 100%)" offset="0.269531"/><stop stop-opacity="1" stop-color="rgb(0%, 73.721313%, 100%)" offset="0.273438"/><stop stop-opacity="1" stop-color="rgb(0%, 73.345947%, 100%)" offset="0.277344"/><stop stop-opacity="1" stop-color="rgb(0%, 72.970581%, 100%)" offset="0.28125"/><stop stop-opacity="1" stop-color="rgb(0%, 72.595215%, 100%)" offset="0.285156"/><stop stop-opacity="1" stop-color="rgb(0%, 72.219849%, 100%)" offset="0.289062"/><stop stop-opacity="1" stop-color="rgb(0%, 71.844482%, 100%)" offset="0.292969"/><stop stop-opacity="1" stop-color="rgb(0%, 71.469116%, 100%)" offset="0.296875"/><stop stop-opacity="1" stop-color="rgb(0%, 71.09375%, 100%)" offset="0.300781"/><stop stop-opacity="1" stop-color="rgb(0%, 70.718384%, 100%)" offset="0.304688"/><stop stop-opacity="1" stop-color="rgb(0%, 70.343018%, 100%)" offset="0.308594"/><stop stop-opacity="1" stop-color="rgb(0%, 69.967651%, 100%)" offset="0.3125"/><stop stop-opacity="1" stop-color="rgb(0%, 69.592285%, 100%)" offset="0.316406"/><stop stop-opacity="1" stop-color="rgb(0%, 69.216919%, 100%)" offset="0.320313"/><stop stop-opacity="1" stop-color="rgb(0%, 68.841553%, 100%)" offset="0.324219"/><stop stop-opacity="1" stop-color="rgb(0%, 68.466187%, 100%)" offset="0.328125"/><stop stop-opacity="1" stop-color="rgb(0%, 68.09082%, 100%)" offset="0.332031"/><stop stop-opacity="1" stop-color="rgb(0%, 67.715454%, 100%)" offset="0.335938"/><stop stop-opacity="1" stop-color="rgb(0%, 67.340088%, 100%)" offset="0.339844"/><stop stop-opacity="1" stop-color="rgb(0%, 66.964722%, 100%)" offset="0.34375"/><stop stop-opacity="1" stop-color="rgb(0%, 66.589355%, 100%)" offset="0.347656"/><stop stop-opacity="1" stop-color="rgb(0%, 66.213989%, 100%)" offset="0.351562"/><stop stop-opacity="1" stop-color="rgb(0%, 65.838623%, 100%)" offset="0.355469"/><stop stop-opacity="1" stop-color="rgb(0%, 65.463257%, 100%)" offset="0.359375"/><stop stop-opacity="1" stop-color="rgb(0%, 65.087891%, 100%)" offset="0.363281"/><stop stop-opacity="1" stop-color="rgb(0%, 64.712524%, 100%)" offset="0.367188"/><stop stop-opacity="1" stop-color="rgb(0%, 64.337158%, 100%)" offset="0.371094"/><stop stop-opacity="1" stop-color="rgb(0%, 63.961792%, 100%)" offset="0.375"/><stop stop-opacity="1" stop-color="rgb(0%, 63.586426%, 100%)" offset="0.378906"/><stop stop-opacity="1" stop-color="rgb(0%, 63.21106%, 100%)" offset="0.382813"/><stop stop-opacity="1" stop-color="rgb(0%, 62.835693%, 100%)" offset="0.386719"/><stop stop-opacity="1" stop-color="rgb(0%, 62.460327%, 100%)" offset="0.390625"/><stop stop-opacity="1" stop-color="rgb(0%, 62.084961%, 100%)" offset="0.394531"/><stop stop-opacity="1" stop-color="rgb(0%, 61.709595%, 100%)" offset="0.398438"/><stop stop-opacity="1" stop-color="rgb(0%, 61.334229%, 100%)" offset="0.402344"/><stop stop-opacity="1" stop-color="rgb(0%, 60.958862%, 100%)" offset="0.40625"/><stop stop-opacity="1" stop-color="rgb(0%, 60.583496%, 100%)" offset="0.410156"/><stop stop-opacity="1" stop-color="rgb(0%, 60.20813%, 100%)" offset="0.414062"/><stop stop-opacity="1" stop-color="rgb(0%, 59.832764%, 100%)" offset="0.417969"/><stop stop-opacity="1" stop-color="rgb(0%, 59.457397%, 100%)" offset="0.421875"/><stop stop-opacity="1" stop-color="rgb(0%, 59.082031%, 100%)" offset="0.425781"/><stop stop-opacity="1" stop-color="rgb(0%, 58.706665%, 100%)" offset="0.429688"/><stop stop-opacity="1" stop-color="rgb(0%, 58.331299%, 100%)" offset="0.433594"/><stop stop-opacity="1" stop-color="rgb(0%, 57.955933%, 100%)" offset="0.4375"/><stop stop-opacity="1" stop-color="rgb(0%, 57.580566%, 100%)" offset="0.441406"/><stop stop-opacity="1" stop-color="rgb(0%, 57.2052%, 100%)" offset="0.445313"/><stop stop-opacity="1" stop-color="rgb(0%, 56.829834%, 100%)" offset="0.449219"/><stop stop-opacity="1" stop-color="rgb(0%, 56.454468%, 100%)" offset="0.453125"/><stop stop-opacity="1" stop-color="rgb(0%, 56.079102%, 100%)" offset="0.457031"/><stop stop-opacity="1" stop-color="rgb(0%, 55.703735%, 100%)" offset="0.460938"/><stop stop-opacity="1" stop-color="rgb(0%, 55.328369%, 100%)" offset="0.464844"/><stop stop-opacity="1" stop-color="rgb(0%, 54.953003%, 100%)" offset="0.46875"/><stop stop-opacity="1" stop-color="rgb(0%, 54.577637%, 100%)" offset="0.472656"/><stop stop-opacity="1" stop-color="rgb(0%, 54.202271%, 100%)" offset="0.476562"/><stop stop-opacity="1" stop-color="rgb(0%, 53.825378%, 100%)" offset="0.480469"/><stop stop-opacity="1" stop-color="rgb(0%, 53.450012%, 100%)" offset="0.484375"/><stop stop-opacity="1" stop-color="rgb(0%, 53.074646%, 100%)" offset="0.488281"/><stop stop-opacity="1" stop-color="rgb(0%, 52.69928%, 100%)" offset="0.492188"/><stop stop-opacity="1" stop-color="rgb(0%, 52.323914%, 100%)" offset="0.496094"/><stop stop-opacity="1" stop-color="rgb(0%, 51.948547%, 100%)" offset="0.5"/><stop stop-opacity="1" stop-color="rgb(0%, 51.573181%, 100%)" offset="0.503906"/><stop stop-opacity="1" stop-color="rgb(0%, 51.197815%, 100%)" offset="0.507813"/><stop stop-opacity="1" stop-color="rgb(0%, 50.822449%, 100%)" offset="0.511719"/><stop stop-opacity="1" stop-color="rgb(0%, 50.447083%, 100%)" offset="0.515625"/><stop stop-opacity="1" stop-color="rgb(0%, 50.071716%, 100%)" offset="0.519531"/><stop stop-opacity="1" stop-color="rgb(0%, 49.69635%, 100%)" offset="0.523438"/><stop stop-opacity="1" stop-color="rgb(0%, 49.320984%, 100%)" offset="0.527344"/><stop stop-opacity="1" stop-color="rgb(0%, 48.945618%, 100%)" offset="0.53125"/><stop stop-opacity="1" stop-color="rgb(0%, 48.570251%, 100%)" offset="0.535156"/><stop stop-opacity="1" stop-color="rgb(0%, 48.194885%, 100%)" offset="0.539063"/><stop stop-opacity="1" stop-color="rgb(0%, 47.819519%, 100%)" offset="0.542969"/><stop stop-opacity="1" stop-color="rgb(0%, 47.444153%, 100%)" offset="0.546875"/><stop stop-opacity="1" stop-color="rgb(0%, 47.068787%, 100%)" offset="0.550781"/><stop stop-opacity="1" stop-color="rgb(0%, 46.69342%, 100%)" offset="0.554688"/><stop stop-opacity="1" stop-color="rgb(0%, 46.318054%, 100%)" offset="0.558594"/><stop stop-opacity="1" stop-color="rgb(0%, 45.942688%, 100%)" offset="0.5625"/><stop stop-opacity="1" stop-color="rgb(0%, 45.567322%, 100%)" offset="0.566406"/><stop stop-opacity="1" stop-color="rgb(0%, 45.191956%, 100%)" offset="0.570312"/><stop stop-opacity="1" stop-color="rgb(0%, 44.816589%, 100%)" offset="0.574219"/><stop stop-opacity="1" stop-color="rgb(0%, 44.441223%, 100%)" offset="0.578125"/><stop stop-opacity="1" stop-color="rgb(0%, 44.065857%, 100%)" offset="0.582031"/><stop stop-opacity="1" stop-color="rgb(0%, 43.690491%, 100%)" offset="0.585938"/><stop stop-opacity="1" stop-color="rgb(0%, 43.315125%, 100%)" offset="0.589844"/><stop stop-opacity="1" stop-color="rgb(0%, 42.939758%, 100%)" offset="0.59375"/><stop stop-opacity="1" stop-color="rgb(0%, 42.564392%, 100%)" offset="0.597656"/><stop stop-opacity="1" stop-color="rgb(0%, 42.189026%, 100%)" offset="0.601563"/><stop stop-opacity="1" stop-color="rgb(0%, 41.81366%, 100%)" offset="0.605469"/><stop stop-opacity="1" stop-color="rgb(0%, 41.438293%, 100%)" offset="0.609375"/><stop stop-opacity="1" stop-color="rgb(0%, 41.062927%, 100%)" offset="0.613281"/><stop stop-opacity="1" stop-color="rgb(0%, 40.687561%, 100%)" offset="0.617188"/><stop stop-opacity="1" stop-color="rgb(0%, 40.312195%, 100%)" offset="0.621094"/><stop stop-opacity="1" stop-color="rgb(0%, 39.936829%, 100%)" offset="0.625"/><stop stop-opacity="1" stop-color="rgb(0%, 39.561462%, 100%)" offset="0.628906"/><stop stop-opacity="1" stop-color="rgb(0%, 39.186096%, 100%)" offset="0.632813"/><stop stop-opacity="1" stop-color="rgb(0%, 38.81073%, 100%)" offset="0.636719"/><stop stop-opacity="1" stop-color="rgb(0%, 38.435364%, 100%)" offset="0.640625"/><stop stop-opacity="1" stop-color="rgb(0%, 38.059998%, 100%)" offset="0.644531"/><stop stop-opacity="1" stop-color="rgb(0%, 37.684631%, 100%)" offset="0.648438"/><stop stop-opacity="1" stop-color="rgb(0%, 37.309265%, 100%)" offset="0.652344"/><stop stop-opacity="1" stop-color="rgb(0%, 36.933899%, 100%)" offset="0.65625"/><stop stop-opacity="1" stop-color="rgb(0%, 36.558533%, 100%)" offset="0.660156"/><stop stop-opacity="1" stop-color="rgb(0%, 36.183167%, 100%)" offset="0.664063"/><stop stop-opacity="1" stop-color="rgb(0%, 35.8078%, 100%)" offset="0.667969"/><stop stop-opacity="1" stop-color="rgb(0%, 35.432434%, 100%)" offset="0.671875"/><stop stop-opacity="1" stop-color="rgb(0%, 35.057068%, 100%)" offset="0.675781"/><stop stop-opacity="1" stop-color="rgb(0%, 34.681702%, 100%)" offset="0.679688"/><stop stop-opacity="1" stop-color="rgb(0%, 34.306335%, 100%)" offset="0.683594"/><stop stop-opacity="1" stop-color="rgb(0%, 33.930969%, 100%)" offset="0.6875"/><stop stop-opacity="1" stop-color="rgb(0%, 33.554077%, 100%)" offset="0.691406"/><stop stop-opacity="1" stop-color="rgb(0%, 33.178711%, 100%)" offset="0.695312"/><stop stop-opacity="1" stop-color="rgb(0%, 32.803345%, 100%)" offset="0.699219"/><stop stop-opacity="1" stop-color="rgb(0%, 32.427979%, 100%)" offset="0.703125"/><stop stop-opacity="1" stop-color="rgb(0%, 32.052612%, 100%)" offset="0.707031"/><stop stop-opacity="1" stop-color="rgb(0%, 31.677246%, 100%)" offset="0.710938"/><stop stop-opacity="1" stop-color="rgb(0%, 31.30188%, 100%)" offset="0.714844"/><stop stop-opacity="1" stop-color="rgb(0%, 30.926514%, 100%)" offset="0.71875"/><stop stop-opacity="1" stop-color="rgb(0%, 30.551147%, 100%)" offset="0.722656"/><stop stop-opacity="1" stop-color="rgb(0%, 30.175781%, 100%)" offset="0.726563"/><stop stop-opacity="1" stop-color="rgb(0%, 29.800415%, 100%)" offset="0.730469"/><stop stop-opacity="1" stop-color="rgb(0%, 29.425049%, 100%)" offset="0.734375"/><stop stop-opacity="1" stop-color="rgb(0%, 29.049683%, 100%)" offset="0.738281"/><stop stop-opacity="1" stop-color="rgb(0%, 28.674316%, 100%)" offset="0.742188"/><stop stop-opacity="1" stop-color="rgb(0%, 28.29895%, 100%)" offset="0.746094"/><stop stop-opacity="1" stop-color="rgb(0%, 27.923584%, 100%)" offset="0.75"/><stop stop-opacity="1" stop-color="rgb(0%, 27.548218%, 100%)" offset="0.753906"/><stop stop-opacity="1" stop-color="rgb(0%, 27.172852%, 100%)" offset="0.757813"/><stop stop-opacity="1" stop-color="rgb(0%, 26.797485%, 100%)" offset="0.761719"/><stop stop-opacity="1" stop-color="rgb(0%, 26.422119%, 100%)" offset="0.765625"/><stop stop-opacity="1" stop-color="rgb(0%, 26.046753%, 100%)" offset="0.769531"/><stop stop-opacity="1" stop-color="rgb(0%, 25.671387%, 100%)" offset="0.773438"/><stop stop-opacity="1" stop-color="rgb(0%, 25.296021%, 100%)" offset="0.777344"/><stop stop-opacity="1" stop-color="rgb(0%, 24.920654%, 100%)" offset="0.78125"/><stop stop-opacity="1" stop-color="rgb(0%, 24.545288%, 100%)" offset="0.785156"/><stop stop-opacity="1" stop-color="rgb(0%, 24.169922%, 100%)" offset="0.789063"/><stop stop-opacity="1" stop-color="rgb(0%, 23.794556%, 100%)" offset="0.792969"/><stop stop-opacity="1" stop-color="rgb(0%, 23.419189%, 100%)" offset="0.796875"/><stop stop-opacity="1" stop-color="rgb(0%, 23.043823%, 100%)" offset="0.800781"/><stop stop-opacity="1" stop-color="rgb(0%, 22.668457%, 100%)" offset="0.804688"/><stop stop-opacity="1" stop-color="rgb(0%, 22.293091%, 100%)" offset="0.808594"/><stop stop-opacity="1" stop-color="rgb(0%, 21.917725%, 100%)" offset="0.8125"/><stop stop-opacity="1" stop-color="rgb(0%, 21.542358%, 100%)" offset="0.816406"/><stop stop-opacity="1" stop-color="rgb(0%, 21.166992%, 100%)" offset="0.820312"/><stop stop-opacity="1" stop-color="rgb(0%, 20.791626%, 100%)" offset="0.824219"/><stop stop-opacity="1" stop-color="rgb(0%, 20.41626%, 100%)" offset="0.828125"/><stop stop-opacity="1" stop-color="rgb(0%, 20.040894%, 100%)" offset="0.832031"/><stop stop-opacity="1" stop-color="rgb(0%, 19.665527%, 100%)" offset="0.835938"/><stop stop-opacity="1" stop-color="rgb(0%, 19.290161%, 100%)" offset="0.839844"/><stop stop-opacity="1" stop-color="rgb(0%, 18.914795%, 100%)" offset="0.84375"/><stop stop-opacity="1" stop-color="rgb(0%, 18.539429%, 100%)" offset="0.847656"/><stop stop-opacity="1" stop-color="rgb(0%, 18.164062%, 100%)" offset="0.851563"/><stop stop-opacity="1" stop-color="rgb(0%, 17.788696%, 100%)" offset="0.855469"/><stop stop-opacity="1" stop-color="rgb(0%, 17.41333%, 100%)" offset="0.859375"/><stop stop-opacity="1" stop-color="rgb(0%, 17.037964%, 100%)" offset="0.863281"/><stop stop-opacity="1" stop-color="rgb(0%, 16.662598%, 100%)" offset="0.867188"/><stop stop-opacity="1" stop-color="rgb(0%, 16.287231%, 100%)" offset="0.871094"/><stop stop-opacity="1" stop-color="rgb(0%, 15.911865%, 100%)" offset="0.875"/><stop stop-opacity="1" stop-color="rgb(0%, 15.536499%, 100%)" offset="0.878906"/><stop stop-opacity="1" stop-color="rgb(0%, 15.161133%, 100%)" offset="0.882813"/><stop stop-opacity="1" stop-color="rgb(0%, 14.785767%, 100%)" offset="0.886719"/><stop stop-opacity="1" stop-color="rgb(0%, 14.4104%, 100%)" offset="0.890625"/><stop stop-opacity="1" stop-color="rgb(0%, 14.035034%, 100%)" offset="0.894531"/><stop stop-opacity="1" stop-color="rgb(0%, 13.659668%, 100%)" offset="0.898438"/><stop stop-opacity="1" stop-color="rgb(0%, 13.282776%, 100%)" offset="0.902344"/><stop stop-opacity="1" stop-color="rgb(0%, 12.90741%, 100%)" offset="0.90625"/><stop stop-opacity="1" stop-color="rgb(0%, 12.532043%, 100%)" offset="0.910156"/><stop stop-opacity="1" stop-color="rgb(0%, 12.156677%, 100%)" offset="0.914063"/><stop stop-opacity="1" stop-color="rgb(0%, 11.781311%, 100%)" offset="0.917969"/><stop stop-opacity="1" stop-color="rgb(0%, 11.405945%, 100%)" offset="0.921875"/><stop stop-opacity="1" stop-color="rgb(0%, 11.030579%, 100%)" offset="0.925781"/><stop stop-opacity="1" stop-color="rgb(0%, 10.655212%, 100%)" offset="0.929688"/><stop stop-opacity="1" stop-color="rgb(0%, 10.279846%, 100%)" offset="0.933594"/><stop stop-opacity="1" stop-color="rgb(0%, 9.90448%, 100%)" offset="0.9375"/><stop stop-opacity="1" stop-color="rgb(0%, 9.529114%, 100%)" offset="0.941406"/><stop stop-opacity="1" stop-color="rgb(0%, 9.153748%, 100%)" offset="0.945312"/><stop stop-opacity="1" stop-color="rgb(0%, 8.778381%, 100%)" offset="0.949219"/><stop stop-opacity="1" stop-color="rgb(0%, 8.403015%, 100%)" offset="0.953125"/><stop stop-opacity="1" stop-color="rgb(0%, 8.027649%, 100%)" offset="0.957031"/><stop stop-opacity="1" stop-color="rgb(0%, 7.652283%, 100%)" offset="0.960938"/><stop stop-opacity="1" stop-color="rgb(0%, 7.276917%, 100%)" offset="0.964844"/><stop stop-opacity="1" stop-color="rgb(0%, 6.90155%, 100%)" offset="0.96875"/><stop stop-opacity="1" stop-color="rgb(0%, 6.526184%, 100%)" offset="0.972656"/><stop stop-opacity="1" stop-color="rgb(0%, 6.150818%, 100%)" offset="0.976563"/><stop stop-opacity="1" stop-color="rgb(0%, 5.775452%, 100%)" offset="0.980469"/><stop stop-opacity="1" stop-color="rgb(0%, 5.400085%, 100%)" offset="0.984375"/><stop stop-opacity="1" stop-color="rgb(0%, 5.024719%, 100%)" offset="0.988281"/><stop stop-opacity="1" stop-color="rgb(0%, 4.649353%, 100%)" offset="0.992188"/><stop stop-opacity="1" stop-color="rgb(0%, 4.273987%, 100%)" offset="0.996094"/><stop stop-opacity="1" stop-color="rgb(0%, 3.898621%, 100%)" offset="1"/></linearGradient><clipPath id="00342b0821"><path d="M 66 126 L 360 126 L 360 475 L 66 475 Z M 66 126 " clip-rule="nonzero"/></clipPath><clipPath id="1a0b5d4be1"><path d="M 75.578125 142.226562 L 87.925781 126.972656 L 109.71875 129.875 L 136.597656 132.054688 L 163.472656 138.59375 L 216.5 159.660156 L 281.878906 207.601562 L 339.265625 266.441406 L 334.90625 282.421875 L 330.550781 299.128906 L 337.085938 311.476562 L 336.359375 322.371094 L 351.613281 327.457031 L 359.605469 338.351562 L 353.066406 354.332031 L 347.984375 360.871094 L 333.453125 405.90625 L 319.652344 444.40625 L 309.484375 460.386719 L 295.679688 466.199219 L 274.613281 472.011719 L 241.925781 474.191406 L 212.871094 466.199219 L 185.265625 447.3125 L 160.566406 421.164062 L 154.03125 408.8125 L 146.039062 372.492188 L 156.9375 339.078125 L 172.917969 320.917969 L 199.792969 300.582031 L 147.492188 304.9375 L 124.246094 304.9375 L 111.910156 290.40625 L 98.835938 243.921875 L 94.476562 227.214844 L 86.484375 209.78125 L 74.136719 191.621094 L 66.144531 164.019531 Z M 75.578125 142.226562 " clip-rule="evenodd"/></clipPath><linearGradient x1="11.179002" gradientTransform="matrix(0.585932, 0, 0, 0.58592, 59.595608, 110.588779)" y1="324.26001" x2="512.02118" gradientUnits="userSpaceOnUse" y2="324.26001" id="fdd81a2ecc"><stop stop-opacity="1" stop-color="rgb(0%, 99.995422%, 100%)" offset="0"/><stop stop-opacity="1" stop-color="rgb(0%, 99.620056%, 100%)" offset="0.00390625"/><stop stop-opacity="1" stop-color="rgb(0%, 99.24469%, 100%)" offset="0.0078125"/><stop stop-opacity="1" stop-color="rgb(0%, 98.869324%, 100%)" offset="0.0117188"/><stop stop-opacity="1" stop-color="rgb(0%, 98.493958%, 100%)" offset="0.015625"/><stop stop-opacity="1" stop-color="rgb(0%, 98.118591%, 100%)" offset="0.0195312"/><stop stop-opacity="1" stop-color="rgb(0%, 97.743225%, 100%)" offset="0.0234375"/><stop stop-opacity="1" stop-color="rgb(0%, 97.367859%, 100%)" offset="0.0273437"/><stop stop-opacity="1" stop-color="rgb(0%, 96.992493%, 100%)" offset="0.03125"/><stop stop-opacity="1" stop-color="rgb(0%, 96.617126%, 100%)" offset="0.0351562"/><stop stop-opacity="1" stop-color="rgb(0%, 96.24176%, 100%)" offset="0.0390625"/><stop stop-opacity="1" stop-color="rgb(0%, 95.866394%, 100%)" offset="0.0429687"/><stop stop-opacity="1" stop-color="rgb(0%, 95.491028%, 100%)" offset="0.046875"/><stop stop-opacity="1" stop-color="rgb(0%, 95.115662%, 100%)" offset="0.0507812"/><stop stop-opacity="1" stop-color="rgb(0%, 94.740295%, 100%)" offset="0.0546875"/><stop stop-opacity="1" stop-color="rgb(0%, 94.364929%, 100%)" offset="0.0585937"/><stop stop-opacity="1" stop-color="rgb(0%, 93.989563%, 100%)" offset="0.0625"/><stop stop-opacity="1" stop-color="rgb(0%, 93.614197%, 100%)" offset="0.0664062"/><stop stop-opacity="1" stop-color="rgb(0%, 93.238831%, 100%)" offset="0.0703125"/><stop stop-opacity="1" stop-color="rgb(0%, 92.863464%, 100%)" offset="0.0742188"/><stop stop-opacity="1" stop-color="rgb(0%, 92.488098%, 100%)" offset="0.078125"/><stop stop-opacity="1" stop-color="rgb(0%, 92.112732%, 100%)" offset="0.0820312"/><stop stop-opacity="1" stop-color="rgb(0%, 91.737366%, 100%)" offset="0.0859375"/><stop stop-opacity="1" stop-color="rgb(0%, 91.362%, 100%)" offset="0.0898438"/><stop stop-opacity="1" stop-color="rgb(0%, 90.986633%, 100%)" offset="0.09375"/><stop stop-opacity="1" stop-color="rgb(0%, 90.611267%, 100%)" offset="0.0976562"/><stop stop-opacity="1" stop-color="rgb(0%, 90.235901%, 100%)" offset="0.101562"/><stop stop-opacity="1" stop-color="rgb(0%, 89.860535%, 100%)" offset="0.105469"/><stop stop-opacity="1" stop-color="rgb(0%, 89.485168%, 100%)" offset="0.109375"/><stop stop-opacity="1" stop-color="rgb(0%, 89.109802%, 100%)" offset="0.113281"/><stop stop-opacity="1" stop-color="rgb(0%, 88.734436%, 100%)" offset="0.117188"/><stop stop-opacity="1" stop-color="rgb(0%, 88.35907%, 100%)" offset="0.121094"/><stop stop-opacity="1" stop-color="rgb(0%, 87.983704%, 100%)" offset="0.125"/><stop stop-opacity="1" stop-color="rgb(0%, 87.608337%, 100%)" offset="0.128906"/><stop stop-opacity="1" stop-color="rgb(0%, 87.232971%, 100%)" offset="0.132813"/><stop stop-opacity="1" stop-color="rgb(0%, 86.857605%, 100%)" offset="0.136719"/><stop stop-opacity="1" stop-color="rgb(0%, 86.482239%, 100%)" offset="0.140625"/><stop stop-opacity="1" stop-color="rgb(0%, 86.106873%, 100%)" offset="0.144531"/><stop stop-opacity="1" stop-color="rgb(0%, 85.731506%, 100%)" offset="0.148438"/><stop stop-opacity="1" stop-color="rgb(0%, 85.35614%, 100%)" offset="0.152344"/><stop stop-opacity="1" stop-color="rgb(0%, 84.980774%, 100%)" offset="0.15625"/><stop stop-opacity="1" stop-color="rgb(0%, 84.605408%, 100%)" offset="0.160156"/><stop stop-opacity="1" stop-color="rgb(0%, 84.230042%, 100%)" offset="0.164062"/><stop stop-opacity="1" stop-color="rgb(0%, 83.854675%, 100%)" offset="0.167969"/><stop stop-opacity="1" stop-color="rgb(0%, 83.479309%, 100%)" offset="0.171875"/><stop stop-opacity="1" stop-color="rgb(0%, 83.103943%, 100%)" offset="0.175781"/><stop stop-opacity="1" stop-color="rgb(0%, 82.728577%, 100%)" offset="0.179688"/><stop stop-opacity="1" stop-color="rgb(0%, 82.35321%, 100%)" offset="0.183594"/><stop stop-opacity="1" stop-color="rgb(0%, 81.977844%, 100%)" offset="0.1875"/><stop stop-opacity="1" stop-color="rgb(0%, 81.602478%, 100%)" offset="0.191406"/><stop stop-opacity="1" stop-color="rgb(0%, 81.227112%, 100%)" offset="0.195313"/><stop stop-opacity="1" stop-color="rgb(0%, 80.851746%, 100%)" offset="0.199219"/><stop stop-opacity="1" stop-color="rgb(0%, 80.476379%, 100%)" offset="0.203125"/><stop stop-opacity="1" stop-color="rgb(0%, 80.101013%, 100%)" offset="0.207031"/><stop stop-opacity="1" stop-color="rgb(0%, 79.725647%, 100%)" offset="0.210938"/><stop stop-opacity="1" stop-color="rgb(0%, 79.350281%, 100%)" offset="0.214844"/><stop stop-opacity="1" stop-color="rgb(0%, 78.974915%, 100%)" offset="0.21875"/><stop stop-opacity="1" stop-color="rgb(0%, 78.598022%, 100%)" offset="0.222656"/><stop stop-opacity="1" stop-color="rgb(0%, 78.222656%, 100%)" offset="0.226563"/><stop stop-opacity="1" stop-color="rgb(0%, 77.84729%, 100%)" offset="0.230469"/><stop stop-opacity="1" stop-color="rgb(0%, 77.471924%, 100%)" offset="0.234375"/><stop stop-opacity="1" stop-color="rgb(0%, 77.096558%, 100%)" offset="0.238281"/><stop stop-opacity="1" stop-color="rgb(0%, 76.721191%, 100%)" offset="0.242188"/><stop stop-opacity="1" stop-color="rgb(0%, 76.345825%, 100%)" offset="0.246094"/><stop stop-opacity="1" stop-color="rgb(0%, 75.970459%, 100%)" offset="0.25"/><stop stop-opacity="1" stop-color="rgb(0%, 75.595093%, 100%)" offset="0.253906"/><stop stop-opacity="1" stop-color="rgb(0%, 75.219727%, 100%)" offset="0.257812"/><stop stop-opacity="1" stop-color="rgb(0%, 74.84436%, 100%)" offset="0.261719"/><stop stop-opacity="1" stop-color="rgb(0%, 74.468994%, 100%)" offset="0.265625"/><stop stop-opacity="1" stop-color="rgb(0%, 74.093628%, 100%)" offset="0.269531"/><stop stop-opacity="1" stop-color="rgb(0%, 73.718262%, 100%)" offset="0.273437"/><stop stop-opacity="1" stop-color="rgb(0%, 73.342896%, 100%)" offset="0.277344"/><stop stop-opacity="1" stop-color="rgb(0%, 72.967529%, 100%)" offset="0.28125"/><stop stop-opacity="1" stop-color="rgb(0%, 72.592163%, 100%)" offset="0.285156"/><stop stop-opacity="1" stop-color="rgb(0%, 72.216797%, 100%)" offset="0.289062"/><stop stop-opacity="1" stop-color="rgb(0%, 71.841431%, 100%)" offset="0.292969"/><stop stop-opacity="1" stop-color="rgb(0%, 71.466064%, 100%)" offset="0.296875"/><stop stop-opacity="1" stop-color="rgb(0%, 71.090698%, 100%)" offset="0.300781"/><stop stop-opacity="1" stop-color="rgb(0%, 70.715332%, 100%)" offset="0.304688"/><stop stop-opacity="1" stop-color="rgb(0%, 70.339966%, 100%)" offset="0.308594"/><stop stop-opacity="1" stop-color="rgb(0%, 69.9646%, 100%)" offset="0.3125"/><stop stop-opacity="1" stop-color="rgb(0%, 69.589233%, 100%)" offset="0.316406"/><stop stop-opacity="1" stop-color="rgb(0%, 69.213867%, 100%)" offset="0.320313"/><stop stop-opacity="1" stop-color="rgb(0%, 68.838501%, 100%)" offset="0.324219"/><stop stop-opacity="1" stop-color="rgb(0%, 68.463135%, 100%)" offset="0.328125"/><stop stop-opacity="1" stop-color="rgb(0%, 68.087769%, 100%)" offset="0.332031"/><stop stop-opacity="1" stop-color="rgb(0%, 67.712402%, 100%)" offset="0.335938"/><stop stop-opacity="1" stop-color="rgb(0%, 67.337036%, 100%)" offset="0.339844"/><stop stop-opacity="1" stop-color="rgb(0%, 66.96167%, 100%)" offset="0.34375"/><stop stop-opacity="1" stop-color="rgb(0%, 66.586304%, 100%)" offset="0.347656"/><stop stop-opacity="1" stop-color="rgb(0%, 66.210938%, 100%)" offset="0.351562"/><stop stop-opacity="1" stop-color="rgb(0%, 65.835571%, 100%)" offset="0.355469"/><stop stop-opacity="1" stop-color="rgb(0%, 65.460205%, 100%)" offset="0.359375"/><stop stop-opacity="1" stop-color="rgb(0%, 65.084839%, 100%)" offset="0.363281"/><stop stop-opacity="1" stop-color="rgb(0%, 64.709473%, 100%)" offset="0.367188"/><stop stop-opacity="1" stop-color="rgb(0%, 64.334106%, 100%)" offset="0.371094"/><stop stop-opacity="1" stop-color="rgb(0%, 63.95874%, 100%)" offset="0.375"/><stop stop-opacity="1" stop-color="rgb(0%, 63.583374%, 100%)" offset="0.378906"/><stop stop-opacity="1" stop-color="rgb(0%, 63.208008%, 100%)" offset="0.382812"/><stop stop-opacity="1" stop-color="rgb(0%, 62.832642%, 100%)" offset="0.386719"/><stop stop-opacity="1" stop-color="rgb(0%, 62.457275%, 100%)" offset="0.390625"/><stop stop-opacity="1" stop-color="rgb(0%, 62.081909%, 100%)" offset="0.394531"/><stop stop-opacity="1" stop-color="rgb(0%, 61.706543%, 100%)" offset="0.398437"/><stop stop-opacity="1" stop-color="rgb(0%, 61.331177%, 100%)" offset="0.402344"/><stop stop-opacity="1" stop-color="rgb(0%, 60.955811%, 100%)" offset="0.40625"/><stop stop-opacity="1" stop-color="rgb(0%, 60.580444%, 100%)" offset="0.410156"/><stop stop-opacity="1" stop-color="rgb(0%, 60.205078%, 100%)" offset="0.414062"/><stop stop-opacity="1" stop-color="rgb(0%, 59.829712%, 100%)" offset="0.417969"/><stop stop-opacity="1" stop-color="rgb(0%, 59.454346%, 100%)" offset="0.421875"/><stop stop-opacity="1" stop-color="rgb(0%, 59.078979%, 100%)" offset="0.425781"/><stop stop-opacity="1" stop-color="rgb(0%, 58.703613%, 100%)" offset="0.429687"/><stop stop-opacity="1" stop-color="rgb(0%, 58.328247%, 100%)" offset="0.433594"/><stop stop-opacity="1" stop-color="rgb(0%, 57.952881%, 100%)" offset="0.4375"/><stop stop-opacity="1" stop-color="rgb(0%, 57.577515%, 100%)" offset="0.441406"/><stop stop-opacity="1" stop-color="rgb(0%, 57.202148%, 100%)" offset="0.445312"/><stop stop-opacity="1" stop-color="rgb(0%, 56.826782%, 100%)" offset="0.449219"/><stop stop-opacity="1" stop-color="rgb(0%, 56.451416%, 100%)" offset="0.453125"/><stop stop-opacity="1" stop-color="rgb(0%, 56.07605%, 100%)" offset="0.457031"/><stop stop-opacity="1" stop-color="rgb(0%, 55.700684%, 100%)" offset="0.460937"/><stop stop-opacity="1" stop-color="rgb(0%, 55.325317%, 100%)" offset="0.464844"/><stop stop-opacity="1" stop-color="rgb(0%, 54.949951%, 100%)" offset="0.46875"/><stop stop-opacity="1" stop-color="rgb(0%, 54.574585%, 100%)" offset="0.472656"/><stop stop-opacity="1" stop-color="rgb(0%, 54.199219%, 100%)" offset="0.476562"/><stop stop-opacity="1" stop-color="rgb(0%, 53.823853%, 100%)" offset="0.480469"/><stop stop-opacity="1" stop-color="rgb(0%, 53.448486%, 100%)" offset="0.484375"/><stop stop-opacity="1" stop-color="rgb(0%, 53.07312%, 100%)" offset="0.488281"/><stop stop-opacity="1" stop-color="rgb(0%, 52.697754%, 100%)" offset="0.492187"/><stop stop-opacity="1" stop-color="rgb(0%, 52.322388%, 100%)" offset="0.496094"/><stop stop-opacity="1" stop-color="rgb(0%, 51.947021%, 100%)" offset="0.5"/><stop stop-opacity="1" stop-color="rgb(0%, 51.571655%, 100%)" offset="0.503906"/><stop stop-opacity="1" stop-color="rgb(0%, 51.196289%, 100%)" offset="0.507813"/><stop stop-opacity="1" stop-color="rgb(0%, 50.820923%, 100%)" offset="0.511719"/><stop stop-opacity="1" stop-color="rgb(0%, 50.445557%, 100%)" offset="0.515625"/><stop stop-opacity="1" stop-color="rgb(0%, 50.07019%, 100%)" offset="0.519531"/><stop stop-opacity="1" stop-color="rgb(0%, 49.694824%, 100%)" offset="0.523438"/><stop stop-opacity="1" stop-color="rgb(0%, 49.319458%, 100%)" offset="0.527344"/><stop stop-opacity="1" stop-color="rgb(0%, 48.944092%, 100%)" offset="0.53125"/><stop stop-opacity="1" stop-color="rgb(0%, 48.568726%, 100%)" offset="0.535156"/><stop stop-opacity="1" stop-color="rgb(0%, 48.193359%, 100%)" offset="0.539062"/><stop stop-opacity="1" stop-color="rgb(0%, 47.817993%, 100%)" offset="0.542969"/><stop stop-opacity="1" stop-color="rgb(0%, 47.442627%, 100%)" offset="0.546875"/><stop stop-opacity="1" stop-color="rgb(0%, 47.067261%, 100%)" offset="0.550781"/><stop stop-opacity="1" stop-color="rgb(0%, 46.691895%, 100%)" offset="0.554688"/><stop stop-opacity="1" stop-color="rgb(0%, 46.316528%, 100%)" offset="0.558594"/><stop stop-opacity="1" stop-color="rgb(0%, 45.941162%, 100%)" offset="0.5625"/><stop stop-opacity="1" stop-color="rgb(0%, 45.565796%, 100%)" offset="0.566406"/><stop stop-opacity="1" stop-color="rgb(0%, 45.19043%, 100%)" offset="0.570312"/><stop stop-opacity="1" stop-color="rgb(0%, 44.815063%, 100%)" offset="0.574219"/><stop stop-opacity="1" stop-color="rgb(0%, 44.439697%, 100%)" offset="0.578125"/><stop stop-opacity="1" stop-color="rgb(0%, 44.064331%, 100%)" offset="0.582031"/><stop stop-opacity="1" stop-color="rgb(0%, 43.688965%, 100%)" offset="0.585938"/><stop stop-opacity="1" stop-color="rgb(0%, 43.313599%, 100%)" offset="0.589844"/><stop stop-opacity="1" stop-color="rgb(0%, 42.938232%, 100%)" offset="0.59375"/><stop stop-opacity="1" stop-color="rgb(0%, 42.562866%, 100%)" offset="0.597656"/><stop stop-opacity="1" stop-color="rgb(0%, 42.1875%, 100%)" offset="0.601562"/><stop stop-opacity="1" stop-color="rgb(0%, 41.812134%, 100%)" offset="0.605469"/><stop stop-opacity="1" stop-color="rgb(0%, 41.436768%, 100%)" offset="0.609375"/><stop stop-opacity="1" stop-color="rgb(0%, 41.061401%, 100%)" offset="0.613281"/><stop stop-opacity="1" stop-color="rgb(0%, 40.686035%, 100%)" offset="0.617188"/><stop stop-opacity="1" stop-color="rgb(0%, 40.310669%, 100%)" offset="0.621094"/><stop stop-opacity="1" stop-color="rgb(0%, 39.935303%, 100%)" offset="0.625"/><stop stop-opacity="1" stop-color="rgb(0%, 39.559937%, 100%)" offset="0.628906"/><stop stop-opacity="1" stop-color="rgb(0%, 39.18457%, 100%)" offset="0.632812"/><stop stop-opacity="1" stop-color="rgb(0%, 38.809204%, 100%)" offset="0.636719"/><stop stop-opacity="1" stop-color="rgb(0%, 38.433838%, 100%)" offset="0.640625"/><stop stop-opacity="1" stop-color="rgb(0%, 38.058472%, 100%)" offset="0.644531"/><stop stop-opacity="1" stop-color="rgb(0%, 37.683105%, 100%)" offset="0.648438"/><stop stop-opacity="1" stop-color="rgb(0%, 37.307739%, 100%)" offset="0.652344"/><stop stop-opacity="1" stop-color="rgb(0%, 36.932373%, 100%)" offset="0.65625"/><stop stop-opacity="1" stop-color="rgb(0%, 36.557007%, 100%)" offset="0.660156"/><stop stop-opacity="1" stop-color="rgb(0%, 36.181641%, 100%)" offset="0.664063"/><stop stop-opacity="1" stop-color="rgb(0%, 35.806274%, 100%)" offset="0.667969"/><stop stop-opacity="1" stop-color="rgb(0%, 35.430908%, 100%)" offset="0.671875"/><stop stop-opacity="1" stop-color="rgb(0%, 35.055542%, 100%)" offset="0.675781"/><stop stop-opacity="1" stop-color="rgb(0%, 34.680176%, 100%)" offset="0.679688"/><stop stop-opacity="1" stop-color="rgb(0%, 34.30481%, 100%)" offset="0.683594"/><stop stop-opacity="1" stop-color="rgb(0%, 33.929443%, 100%)" offset="0.6875"/><stop stop-opacity="1" stop-color="rgb(0%, 33.554077%, 100%)" offset="0.691406"/><stop stop-opacity="1" stop-color="rgb(0%, 33.178711%, 100%)" offset="0.695313"/><stop stop-opacity="1" stop-color="rgb(0%, 32.803345%, 100%)" offset="0.699219"/><stop stop-opacity="1" stop-color="rgb(0%, 32.427979%, 100%)" offset="0.703125"/><stop stop-opacity="1" stop-color="rgb(0%, 32.052612%, 100%)" offset="0.707031"/><stop stop-opacity="1" stop-color="rgb(0%, 31.677246%, 100%)" offset="0.710938"/><stop stop-opacity="1" stop-color="rgb(0%, 31.30188%, 100%)" offset="0.714844"/><stop stop-opacity="1" stop-color="rgb(0%, 30.926514%, 100%)" offset="0.71875"/><stop stop-opacity="1" stop-color="rgb(0%, 30.551147%, 100%)" offset="0.722656"/><stop stop-opacity="1" stop-color="rgb(0%, 30.175781%, 100%)" offset="0.726563"/><stop stop-opacity="1" stop-color="rgb(0%, 29.800415%, 100%)" offset="0.730469"/><stop stop-opacity="1" stop-color="rgb(0%, 29.425049%, 100%)" offset="0.734375"/><stop stop-opacity="1" stop-color="rgb(0%, 29.049683%, 100%)" offset="0.738281"/><stop stop-opacity="1" stop-color="rgb(0%, 28.674316%, 100%)" offset="0.742188"/><stop stop-opacity="1" stop-color="rgb(0%, 28.29895%, 100%)" offset="0.746094"/><stop stop-opacity="1" stop-color="rgb(0%, 27.923584%, 100%)" offset="0.75"/><stop stop-opacity="1" stop-color="rgb(0%, 27.548218%, 100%)" offset="0.753906"/><stop stop-opacity="1" stop-color="rgb(0%, 27.172852%, 100%)" offset="0.757813"/><stop stop-opacity="1" stop-color="rgb(0%, 26.797485%, 100%)" offset="0.761719"/><stop stop-opacity="1" stop-color="rgb(0%, 26.422119%, 100%)" offset="0.765625"/><stop stop-opacity="1" stop-color="rgb(0%, 26.046753%, 100%)" offset="0.769531"/><stop stop-opacity="1" stop-color="rgb(0%, 25.671387%, 100%)" offset="0.773438"/><stop stop-opacity="1" stop-color="rgb(0%, 25.296021%, 100%)" offset="0.777344"/><stop stop-opacity="1" stop-color="rgb(0%, 24.920654%, 100%)" offset="0.78125"/><stop stop-opacity="1" stop-color="rgb(0%, 24.545288%, 100%)" offset="0.785156"/><stop stop-opacity="1" stop-color="rgb(0%, 24.169922%, 100%)" offset="0.789063"/><stop stop-opacity="1" stop-color="rgb(0%, 23.794556%, 100%)" offset="0.792969"/><stop stop-opacity="1" stop-color="rgb(0%, 23.419189%, 100%)" offset="0.796875"/><stop stop-opacity="1" stop-color="rgb(0%, 23.043823%, 100%)" offset="0.800781"/><stop stop-opacity="1" stop-color="rgb(0%, 22.668457%, 100%)" offset="0.804688"/><stop stop-opacity="1" stop-color="rgb(0%, 22.293091%, 100%)" offset="0.808594"/><stop stop-opacity="1" stop-color="rgb(0%, 21.917725%, 100%)" offset="0.8125"/><stop stop-opacity="1" stop-color="rgb(0%, 21.542358%, 100%)" offset="0.816406"/><stop stop-opacity="1" stop-color="rgb(0%, 21.166992%, 100%)" offset="0.820312"/><stop stop-opacity="1" stop-color="rgb(0%, 20.791626%, 100%)" offset="0.824219"/><stop stop-opacity="1" stop-color="rgb(0%, 20.41626%, 100%)" offset="0.828125"/><stop stop-opacity="1" stop-color="rgb(0%, 20.040894%, 100%)" offset="0.832031"/><stop stop-opacity="1" stop-color="rgb(0%, 19.665527%, 100%)" offset="0.835938"/><stop stop-opacity="1" stop-color="rgb(0%, 19.290161%, 100%)" offset="0.839844"/><stop stop-opacity="1" stop-color="rgb(0%, 18.914795%, 100%)" offset="0.84375"/><stop stop-opacity="1" stop-color="rgb(0%, 18.537903%, 100%)" offset="0.847656"/><stop stop-opacity="1" stop-color="rgb(0%, 18.162537%, 100%)" offset="0.851563"/><stop stop-opacity="1" stop-color="rgb(0%, 17.78717%, 100%)" offset="0.855469"/><stop stop-opacity="1" stop-color="rgb(0%, 17.411804%, 100%)" offset="0.859375"/><stop stop-opacity="1" stop-color="rgb(0%, 17.036438%, 100%)" offset="0.863281"/><stop stop-opacity="1" stop-color="rgb(0%, 16.661072%, 100%)" offset="0.867188"/><stop stop-opacity="1" stop-color="rgb(0%, 16.285706%, 100%)" offset="0.871094"/><stop stop-opacity="1" stop-color="rgb(0%, 15.910339%, 100%)" offset="0.875"/><stop stop-opacity="1" stop-color="rgb(0%, 15.534973%, 100%)" offset="0.878906"/><stop stop-opacity="1" stop-color="rgb(0%, 15.159607%, 100%)" offset="0.882813"/><stop stop-opacity="1" stop-color="rgb(0%, 14.784241%, 100%)" offset="0.886719"/><stop stop-opacity="1" stop-color="rgb(0%, 14.408875%, 100%)" offset="0.890625"/><stop stop-opacity="1" stop-color="rgb(0%, 14.033508%, 100%)" offset="0.894531"/><stop stop-opacity="1" stop-color="rgb(0%, 13.658142%, 100%)" offset="0.898438"/><stop stop-opacity="1" stop-color="rgb(0%, 13.282776%, 100%)" offset="0.902344"/><stop stop-opacity="1" stop-color="rgb(0%, 12.90741%, 100%)" offset="0.90625"/><stop stop-opacity="1" stop-color="rgb(0%, 12.532043%, 100%)" offset="0.910156"/><stop stop-opacity="1" stop-color="rgb(0%, 12.156677%, 100%)" offset="0.914062"/><stop stop-opacity="1" stop-color="rgb(0%, 11.781311%, 100%)" offset="0.917969"/><stop stop-opacity="1" stop-color="rgb(0%, 11.405945%, 100%)" offset="0.921875"/><stop stop-opacity="1" stop-color="rgb(0%, 11.030579%, 100%)" offset="0.925781"/><stop stop-opacity="1" stop-color="rgb(0%, 10.655212%, 100%)" offset="0.929688"/><stop stop-opacity="1" stop-color="rgb(0%, 10.279846%, 100%)" offset="0.933594"/><stop stop-opacity="1" stop-color="rgb(0%, 9.90448%, 100%)" offset="0.9375"/><stop stop-opacity="1" stop-color="rgb(0%, 9.529114%, 100%)" offset="0.941406"/><stop stop-opacity="1" stop-color="rgb(0%, 9.153748%, 100%)" offset="0.945312"/><stop stop-opacity="1" stop-color="rgb(0%, 8.778381%, 100%)" offset="0.949219"/><stop stop-opacity="1" stop-color="rgb(0%, 8.403015%, 100%)" offset="0.953125"/><stop stop-opacity="1" stop-color="rgb(0%, 8.027649%, 100%)" offset="0.957031"/><stop stop-opacity="1" stop-color="rgb(0%, 7.652283%, 100%)" offset="0.960938"/><stop stop-opacity="1" stop-color="rgb(0%, 7.276917%, 100%)" offset="0.964844"/><stop stop-opacity="1" stop-color="rgb(0%, 6.90155%, 100%)" offset="0.96875"/><stop stop-opacity="1" stop-color="rgb(0%, 6.526184%, 100%)" offset="0.972656"/><stop stop-opacity="1" stop-color="rgb(0%, 6.150818%, 100%)" offset="0.976562"/><stop stop-opacity="1" stop-color="rgb(0%, 5.775452%, 100%)" offset="0.980469"/><stop stop-opacity="1" stop-color="rgb(0%, 5.400085%, 100%)" offset="0.984375"/><stop stop-opacity="1" stop-color="rgb(0%, 5.024719%, 100%)" offset="0.988281"/><stop stop-opacity="1" stop-color="rgb(0%, 4.649353%, 100%)" offset="0.992188"/><stop stop-opacity="1" stop-color="rgb(0%, 4.273987%, 100%)" offset="0.996094"/><stop stop-opacity="1" stop-color="rgb(0%, 3.898621%, 100%)" offset="1"/></linearGradient><clipPath id="3176a42ee5"><path d="M 59.59375 110.53125 L 644.355469 110.53125 L 644.355469 479 L 59.59375 479 Z M 59.59375 110.53125 " clip-rule="nonzero"/></clipPath></defs><path fill="#874000" d="M 350.886719 254.09375 L 350.886719 261.355469 L 340.714844 272.253906 L 332 285.328125 L 329.820312 298.402344 L 336.359375 310.75 L 337.085938 320.195312 L 353.792969 331.089844 L 373.40625 328.183594 L 379.941406 320.195312 L 381.394531 318.015625 L 378.488281 304.214844 L 402.460938 291.140625 L 376.308594 272.253906 L 367.59375 261.355469 L 371.226562 249.007812 L 369.773438 243.921875 L 365.414062 243.921875 L 367.59375 236.660156 L 353.792969 237.386719 L 355.972656 243.921875 L 348.707031 247.554688 Z M 350.886719 254.09375 " fill-opacity="1" fill-rule="evenodd"/><g clip-path="url(#911882fe6d)"><g clip-path="url(#c6b706ab7f)"><path fill="url(#111fdc3b7d)" d="M 364.6875 114.621094 L 364.6875 469.832031 L 638.546875 469.832031 L 638.546875 114.621094 Z M 364.6875 114.621094 " fill-rule="nonzero"/></g></g><g clip-path="url(#00342b0821)"><g clip-path="url(#1a0b5d4be1)"><path fill="url(#fdd81a2ecc)" d="M 66.144531 126.972656 L 66.144531 474.191406 L 359.605469 474.191406 L 359.605469 126.972656 Z M 66.144531 126.972656 " fill-rule="nonzero"/></g></g><g clip-path="url(#3176a42ee5)"><path fill="#000000" d="M 602.332031 110.589844 L 607.777344 110.589844 C 622.730469 111.425781 640.132812 117.175781 644.355469 133.128906 L 644.355469 138.410156 C 641.25 142.328125 643.074219 147.464844 644.355469 151.695312 L 644.355469 155.910156 C 640.320312 162.886719 642.902344 171.476562 639.007812 178.449219 C 628.226562 189.273438 629.691406 206.445312 619.253906 217.496094 C 619.746094 230.4375 614.71875 242.085938 610.675781 253.957031 C 611.460938 269.246094 603.40625 283.03125 595.613281 295.558594 C 594.324219 298.609375 591.230469 300.035156 588.148438 300.589844 C 568.261719 304.511719 547.839844 302.859375 527.878906 300.421875 C 538.21875 307.769531 552.246094 313.445312 561.933594 323.097656 C 569.527344 337.597656 578.871094 351.875 582.160156 368.175781 C 576.921875 378.59375 570.324219 389.230469 571.683594 401.648438 C 572.445312 410.824219 560.554688 412.125 558.417969 420.128906 C 552.492188 424.617188 552.058594 432.042969 548.753906 438.066406 C 535.921875 444.046875 523.253906 452.027344 515.542969 464.1875 C 502.964844 466.417969 490.320312 469.441406 478.636719 474.796875 C 459.160156 472.863281 437.117188 477.035156 420.535156 463.824219 C 407.867188 461.8125 404.441406 447.515625 399.191406 437.777344 C 389.136719 412.402344 379.761719 386.746094 371.375 360.777344 C 370.785156 359.511719 370.445312 357.308594 368.574219 357.851562 C 368.40625 381.59375 377.371094 406.40625 367.15625 429.234375 C 366.4375 431.671875 363.78125 437.355469 360.605469 434.234375 C 346.015625 412.753906 359.277344 385.761719 352.738281 362.253906 C 351.332031 361.375 349.613281 362.222656 348.898438 363.570312 C 335.785156 396.605469 330.15625 433.792969 308.9375 463.074219 C 294.265625 465.945312 282.089844 479.613281 266.066406 475.667969 C 261.214844 478.65625 255.480469 476.976562 250.222656 478.546875 L 241.679688 478.546875 C 227.792969 469.632812 205.183594 476.414062 197.664062 458.84375 C 189.316406 453.136719 180.75 447.03125 171.144531 443.179688 C 166.796875 434.375 162.75 424.886719 155.085938 418.3125 C 153.140625 416.367188 149.519531 415.101562 149.511719 411.878906 C 149.546875 400.003906 147.527344 387.355469 140.367188 377.65625 C 139.738281 360.558594 150.988281 346.15625 157.632812 331.140625 C 165.714844 322.125 175.6875 315.105469 185.625 308.335938 C 165.621094 309.164062 144.167969 315.972656 124.652344 308.664062 C 113.050781 296.804688 104.171875 281.0625 102.691406 264.300781 C 100.773438 257.882812 98.371094 251.609375 95.523438 245.542969 C 92.851562 239.144531 97.03125 230.34375 91.035156 225.539062 C 86.414062 218.90625 81.082031 212.269531 79.980469 203.96875 C 78.941406 198.332031 72.738281 196.175781 69.621094 191.949219 C 66.023438 186.859375 66.789062 180.160156 63.996094 174.722656 C 59.816406 167.828125 65.191406 158.902344 59.59375 152.476562 L 59.59375 150.378906 C 59.941406 143.804688 63.480469 137.894531 66.765625 132.410156 C 81.15625 123.085938 99.480469 122.746094 116.019531 124.410156 C 152.144531 129.34375 186.425781 143.160156 218.917969 159.273438 C 266.296875 186.355469 311.21875 219.878906 343.726562 264.117188 C 348.191406 269.414062 349.480469 258.582031 349.46875 255.617188 C 345.976562 251.058594 346.695312 243.699219 353.058594 242.261719 C 341.171875 222.949219 321.488281 210.242188 307.328125 192.734375 C 301.226562 183.851562 290.511719 178.214844 286.550781 168.042969 C 291.195312 168.441406 293.597656 173.527344 296.582031 176.539062 C 313.203125 197.488281 333.53125 215.25 351.390625 234.855469 C 356.996094 236.691406 362.898438 240.488281 367.832031 234.851562 C 382.609375 217.710938 398.300781 200.984375 411.613281 182.523438 C 416.042969 178.777344 419.640625 168.898438 425.714844 169.90625 C 422.394531 177.921875 413.195312 181.625 409 189.289062 C 396.289062 208.414062 376.800781 222.785156 366.722656 243.527344 C 371.785156 244.191406 377.429688 249.746094 372.816406 254.480469 C 370.375 256.839844 373.074219 271.324219 377.382812 264.28125 C 388.847656 242.972656 404.375 224.050781 422.210938 207.769531 C 454.695312 177.730469 489.792969 149.324219 530.800781 131.792969 C 553.15625 120.625 577.390625 112.898438 602.332031 110.589844 M 604.910156 119.054688 C 593.859375 121.207031 612.242188 128.511719 614.519531 123.621094 C 611.882812 121.304688 608.84375 117.742188 604.910156 119.054688 M 563.644531 126.085938 C 560.496094 127.375 555.503906 128.371094 554.246094 131.570312 C 556.953125 132.339844 576.011719 124.945312 563.644531 126.085938 M 95.101562 131.847656 C 92.800781 133.617188 90.035156 136.019531 89.003906 138.597656 C 93.433594 139.855469 98.101562 137.253906 101.839844 135.179688 C 101.113281 132.457031 97.617188 131.34375 95.101562 131.847656 M 570.851562 132.566406 C 566.703125 133.171875 561.539062 134.136719 559.992188 138.695312 C 561.703125 139.980469 562.125 141.785156 560.585938 143.414062 C 566.222656 146.464844 578.003906 145.90625 578.351562 137.882812 C 574.253906 137.179688 575.613281 130.515625 570.851562 132.566406 M 620.027344 136.644531 C 617.457031 140.582031 620.433594 145.703125 625.777344 143.832031 C 630.9375 140.964844 623.503906 135.71875 620.027344 136.644531 M 138.421875 136.996094 C 140.207031 140.710938 149.488281 142.199219 153.738281 142.222656 C 151.035156 137.988281 143.4375 137.285156 138.421875 136.996094 M 130.722656 142.96875 C 133.59375 147.6875 127.023438 147.8125 127.667969 151.339844 C 133.195312 155.597656 140.96875 156.746094 147.449219 153.929688 C 146.453125 152.101562 146.078125 150.460938 148.105469 149.242188 C 143.8125 145.023438 136.726562 142.886719 130.722656 142.96875 M 594.828125 149.546875 C 591.621094 149.839844 587.625 151.015625 585.828125 153.828125 C 588.289062 155.445312 589.988281 157.859375 589.671875 161.011719 C 594.816406 164.675781 599.550781 160.9375 603.875 157.949219 C 602.890625 153.367188 600.738281 147.8125 594.828125 149.546875 M 82.75 150.675781 C 78.785156 150.4375 74.941406 158.757812 81.410156 157.894531 C 86.582031 159.753906 87.871094 149 82.75 150.675781 M 506.917969 150.601562 C 500.097656 154.0625 493.621094 158.796875 488.453125 164.457031 C 488.136719 165.238281 484.695312 168.226562 487.296875 168.519531 C 494.804688 165.207031 501.605469 160.421875 507.597656 154.890625 C 509.296875 153.453125 510.539062 149.441406 506.917969 150.601562 M 525.03125 150.636719 C 520.183594 151.09375 515.527344 154.75 512.5625 157.988281 C 517.4375 156.617188 521.5625 153.402344 526.429688 151.9375 C 526.816406 150.6875 526.230469 150.21875 525.03125 150.636719 M 189.671875 156.335938 C 193.722656 162.078125 197.429688 158.234375 189.671875 156.335938 M 627.035156 156.496094 C 626.960938 159.371094 623.15625 162.382812 627.75 163.046875 C 633.992188 165.300781 632.296875 154.800781 627.035156 156.496094 M 201.386719 157.695312 C 202.363281 166.542969 215.523438 171.179688 223.335938 174.792969 C 226.289062 175.820312 224.839844 172.671875 223.382812 171.789062 C 216.703125 166.269531 209.589844 160.632812 201.386719 157.695312 M 528.667969 158.910156 C 519.023438 161.46875 504.222656 162.019531 500.867188 173.257812 C 511.25 175.328125 521.015625 168.195312 531.101562 166.085938 C 536.84375 165.769531 534.945312 156.101562 528.667969 158.910156 M 183.367188 159.886719 C 184.546875 162.429688 190.914062 164.878906 193.691406 164.105469 C 190.746094 162.0625 186.960938 160.550781 183.367188 159.886719 M 110.945312 161.234375 C 105.203125 160.082031 103.914062 166.15625 104.136719 170.46875 C 108.824219 175.1875 121.042969 175.0625 121.136719 166.8125 C 122.207031 161.222656 114.75 160.128906 110.945312 161.234375 M 176.671875 168.742188 C 175.292969 169.222656 171.609375 171.875 174.445312 172.761719 C 185.261719 174.886719 195.597656 179.394531 206.535156 180.835938 C 211.792969 179.691406 206.664062 172.972656 203.484375 172.703125 C 194.675781 170.691406 185.871094 167.464844 176.671875 168.742188 M 596.695312 169.785156 C 590.234375 176.75 607.566406 178.480469 606.78125 171.113281 C 604.359375 168.59375 599.8125 170.175781 596.695312 169.785156 M 77.496094 170.582031 C 72.867188 170.222656 74.167969 177.746094 77.769531 177.429688 C 83.273438 179.726562 82.949219 167.359375 77.496094 170.582031 M 546.714844 171.359375 C 539.890625 173.429688 527.023438 170.667969 525.433594 179.609375 C 535.730469 185.46875 547.859375 178.613281 558.457031 176.359375 C 559.988281 169.972656 550.707031 171.289062 546.714844 171.359375 M 625.875 176.359375 C 620.667969 177.414062 625.484375 182.246094 628.582031 180.402344 C 631.40625 179.058594 628.25 175.15625 625.875 176.359375 M 157.773438 179.992188 C 155.226562 180.382812 151.675781 180.882812 150.972656 183.800781 C 159.996094 188.234375 170.554688 189.085938 180.542969 189.390625 C 182.675781 189.382812 189.726562 186.285156 185.929688 184.015625 C 177.109375 180.261719 167.273438 179.152344 157.773438 179.992188 M 106.351562 180.484375 C 96.457031 184.621094 112.019531 187.761719 114.691406 183.800781 C 115.058594 179.714844 108.9375 180.332031 106.351562 180.484375 M 611.882812 182.925781 C 601.535156 184.882812 621.546875 192.230469 619.613281 184.035156 C 617.890625 182.1875 614.246094 182.996094 611.882812 182.925781 M 465.265625 186.25 C 463.621094 188.984375 462.957031 192.613281 458.574219 191.914062 C 456.90625 197.421875 449.9375 199.480469 447.566406 204.230469 C 450.695312 210.246094 458.417969 210.410156 464.410156 210.914062 C 461.890625 217.804688 471.980469 222.792969 477.546875 219.230469 C 486.242188 214.355469 496.6875 205.867188 495.722656 194.761719 C 484.882812 184.011719 475.328125 201.0625 464.347656 199.34375 C 462.425781 195.019531 473.171875 188.21875 465.265625 186.25 M 574.8125 188.746094 C 571.4375 189.449219 567.65625 191.453125 567.6875 195.355469 C 572.390625 199.105469 579.773438 200.933594 585.253906 197.945312 C 586.371094 192.710938 579.125 189.261719 574.8125 188.746094 M 82.09375 189.238281 C 77.851562 189.730469 79.558594 196.703125 83.511719 193.859375 C 88.628906 192.964844 85.816406 188.644531 82.09375 189.238281 M 242.078125 191.640625 C 240.808594 194.808594 248.730469 198.640625 248.757812 203.09375 C 237.660156 207.203125 228.644531 190.308594 217.863281 199.378906 C 215.3125 212.175781 228.234375 221.703125 239.066406 225.429688 C 245.730469 226.441406 247.726562 219.984375 250.128906 215.542969 C 255.292969 213.417969 262.136719 211.804688 265.816406 207.921875 C 260.027344 200.515625 250.816406 194.492188 242.078125 191.640625 M 96.210938 194.066406 C 93.53125 194.101562 88.75 194.59375 90.964844 198.640625 C 95.929688 203.324219 106.957031 193.351562 96.210938 194.066406 M 514.132812 197.582031 C 508.648438 199.34375 503.210938 204.265625 502.074219 209.941406 C 505.847656 214.664062 514.414062 212.144531 519.734375 211.636719 C 528.394531 209.179688 523.003906 194.089844 514.132812 197.582031 M 133.773438 198.136719 C 129.492188 199.109375 123.882812 203.46875 124.945312 208.09375 C 132.296875 209.601562 140.910156 207.898438 146.273438 202.433594 C 145.863281 197.117188 137.300781 198.289062 133.773438 198.136719 M 612.453125 199.894531 C 606.914062 201.6875 605.292969 207.191406 612.492188 208.226562 C 619.617188 209.925781 617.425781 200.550781 612.453125 199.894531 M 194.042969 203.421875 C 190.640625 203.652344 184.328125 206.851562 187.128906 210.945312 C 189.398438 220.519531 202.246094 220.238281 209.15625 216.605469 C 209.933594 209.316406 200.804688 203.164062 194.042969 203.421875 M 551.226562 204.617188 C 547.335938 203.933594 538.753906 206.957031 542.976562 211.359375 C 547.941406 217.664062 558.371094 207.347656 551.226562 204.617188 M 587.332031 209.785156 C 578.5625 213.675781 597.898438 221.539062 599.800781 214.894531 C 599.574219 209.25 591.269531 210.265625 587.332031 209.785156 M 97.933594 210.925781 C 94.152344 211.871094 91.277344 220.113281 96.996094 219.867188 C 104.359375 221.257812 106.019531 210.257812 97.933594 210.925781 M 159.515625 212.214844 C 156.097656 211.601562 155.265625 215.695312 157.816406 217.4375 C 161.132812 222.46875 167.835938 219.757812 171 216.046875 C 168.316406 212.84375 163.570312 211.40625 159.515625 212.214844 M 121.890625 218.554688 C 116.769531 219.628906 110.03125 220.171875 108.832031 226.554688 C 113.769531 230.351562 120.847656 226.265625 125.804688 224.28125 C 131.449219 221.9375 125.136719 217.78125 121.890625 218.554688 M 506.238281 220.414062 C 500.484375 220.230469 492.265625 222.1875 492.296875 229.171875 C 500.210938 242.070312 516.257812 242.777344 529.96875 243.65625 C 534.980469 242.996094 541.203125 239.132812 541.125 233.320312 C 536.972656 230.484375 533.796875 226.519531 530.214844 223.042969 C 522.234375 222.210938 514.414062 219.582031 506.238281 220.414062 M 558.082031 221.621094 C 554.796875 222.222656 551.09375 225.796875 553.910156 229.089844 C 560.808594 233.433594 569.332031 236.550781 577.425781 234.675781 C 579.808594 224.824219 565.636719 221.109375 558.082031 221.621094 M 445.039062 224.589844 C 437.40625 227.097656 431.832031 233.507812 423.824219 235.132812 C 410.65625 244.347656 398.40625 255.335938 389.535156 268.847656 C 408.886719 260.367188 426.96875 249.335938 446.171875 240.546875 C 449.710938 238.953125 452.046875 235.628906 454.179688 232.546875 C 456.335938 227.496094 449.433594 223.261719 445.039062 224.589844 M 202.921875 225.722656 C 193.160156 227.238281 179.875 227.011719 174.988281 237.65625 C 168.203125 242.667969 176.699219 248.632812 181.574219 250.488281 C 195.378906 247.777344 213.753906 248.46875 220.058594 232.957031 C 218.640625 225.234375 209.085938 225.011719 202.921875 225.722656 M 266.160156 226.828125 C 263.132812 228.851562 255.597656 230.308594 258.507812 235.039062 C 265.234375 246.042969 279.753906 247.875 290.703125 252.710938 C 302.398438 257.949219 314.03125 263.566406 326.164062 267.59375 C 312.125 247.179688 289.082031 234.257812 266.160156 226.828125 M 148.347656 229.179688 C 142.128906 232.015625 129.332031 235.628906 136.546875 244.113281 C 144.1875 242.75 154.394531 242.789062 158.628906 235.097656 C 160.136719 228.714844 152.359375 229.296875 148.347656 229.179688 M 602.285156 233.199219 C 597.128906 234.476562 595.964844 243.949219 602.90625 242.917969 C 610.476562 245.796875 608.515625 232.765625 602.285156 233.199219 M 357.359375 240.28125 C 353.464844 242.460938 360.671875 242.492188 357.359375 240.28125 M 364.457031 240.304688 C 361.128906 242.355469 366.261719 242.929688 364.457031 240.304688 M 559.652344 241.390625 C 557.257812 241.90625 556.265625 244.535156 557.261719 246.761719 C 558.5 258.375 580.511719 260.457031 578.714844 246.023438 C 574.078125 241.570312 566 241.628906 559.652344 241.390625 M 359.324219 243.195312 C 356.1875 249.175781 368.75 241.976562 359.324219 243.195312 M 109.21875 243.902344 C 104.625 244.742188 102.308594 251.976562 107.207031 253.980469 C 110.34375 253.207031 114.648438 252.570312 116.261719 249.347656 C 115.910156 246.125 112.570312 242.761719 109.21875 243.902344 M 352.707031 246.171875 C 351.90625 249.691406 356.234375 245.449219 352.707031 246.171875 M 367.273438 246.640625 C 364.84375 249.289062 370.691406 247.746094 367.273438 246.640625 M 464.21875 246.804688 C 451.574219 248.578125 442.65625 259.34375 430.613281 262.980469 C 428.945312 263.039062 425.980469 266.363281 430.667969 264.359375 C 451.667969 257.515625 473.699219 263.53125 495.136719 263.527344 C 499.121094 260.292969 496.921875 252.585938 491.835938 251.238281 C 482.878906 248.636719 473.710938 245.550781 464.21875 246.804688 M 149.042969 249.160156 C 143.617188 250.300781 137.042969 251.609375 133.464844 256.050781 C 135.28125 267.3125 153.90625 266.421875 155.828125 255.429688 C 158.769531 250.921875 154.175781 246.09375 149.042969 249.160156 M 597.3125 249.007812 C 592.554688 251.527344 595.144531 260.644531 601.125 258.253906 C 609.382812 256.671875 603.019531 246.96875 597.3125 249.007812 M 355.621094 249.464844 C 353.792969 252.351562 359.703125 249.242188 355.621094 249.464844 M 363.804688 249.59375 C 361.554688 252.492188 368.113281 249.949219 363.804688 249.59375 M 242.15625 250.347656 C 235.382812 250.824219 229.058594 253.417969 222.660156 255.441406 C 219.695312 256.476562 215.742188 258.933594 218.015625 262.394531 C 212.570312 266.246094 218.085938 270.421875 222.691406 268.4375 C 242.652344 264.804688 263.210938 261.171875 283.339844 265.917969 C 281.03125 261.28125 273.019531 263.386719 269.78125 258.957031 C 261.78125 253.507812 251.929688 249.691406 242.15625 250.347656 M 319.773438 254.109375 C 324.113281 260.167969 328.011719 267.175781 334.691406 270.925781 C 337.484375 271.652344 334.960938 268.742188 333.769531 268.230469 C 327.664062 264.9375 325.691406 257.449219 319.773438 254.109375 M 355.058594 257.238281 C 349.648438 260.824219 358.496094 260.542969 355.058594 257.238281 M 363.921875 257.15625 C 361.882812 261.5 370.398438 257.5625 363.921875 257.15625 M 114.835938 257.929688 C 112.234375 259.113281 107.847656 258.5 107.335938 262.089844 C 105.703125 268.332031 117.65625 270.851562 118.75 264.515625 C 118.5 262.007812 118.527344 257.082031 114.835938 257.929688 M 392.785156 258.664062 C 389.375 263.304688 384.378906 267.011719 381.371094 271.675781 C 386.558594 270.324219 391.964844 262.230469 392.785156 258.664062 M 526.230469 259.050781 C 523.757812 260.046875 521.179688 260.777344 518.527344 259.992188 C 520.894531 263.367188 518.53125 268.230469 523.390625 270.445312 C 524.003906 279.988281 543.152344 281.898438 542.390625 271.167969 C 548.039062 270.523438 542.777344 267.230469 540.316406 265.59375 C 538.019531 259.953125 531.410156 259.476562 526.230469 259.050781 M 191.21875 266.179688 C 186.929688 268.027344 181.394531 264.746094 178.101562 268.957031 C 175.820312 272.304688 172.902344 275.414062 169.820312 277.59375 C 171.355469 279.613281 176.664062 279.574219 172.734375 282.941406 C 178.152344 290.203125 193.253906 285.152344 192.472656 275.40625 C 197.296875 273.984375 197.675781 263.484375 191.21875 266.179688 M 359.207031 265.605469 C 355.820312 274.890625 357.476562 286.960938 357.777344 295.667969 C 359.550781 286.710938 359.644531 275.25 359.207031 265.605469 M 346.976562 266.609375 C 342.171875 271.476562 351.578125 267.257812 346.976562 266.609375 M 370.132812 266.550781 C 370.378906 273.15625 375.953125 267.960938 370.132812 266.550781 M 469.492188 269.714844 C 449.175781 270.523438 427.621094 270.242188 408.320312 274.019531 C 411.730469 276.152344 417.90625 276.800781 422.488281 276.796875 C 447.402344 278.957031 473.820312 280.234375 497.75 274.574219 C 491.109375 268.238281 478.8125 269.527344 469.492188 269.714844 M 589.699219 270.714844 C 581.011719 274.136719 590.410156 280.585938 596.144531 277.386719 C 598.414062 273.390625 594.351562 268.183594 589.699219 270.714844 M 242.488281 273.144531 C 233.511719 274.324219 224.148438 273.425781 217.058594 280.210938 C 237.285156 283.769531 257.988281 282.164062 278.257812 280.117188 C 288.558594 278.074219 299.691406 278.96875 309.425781 274.585938 C 287.210938 271.757812 264.730469 274.9375 242.488281 273.144531 M 348.191406 273.035156 C 347.183594 273.703125 346.597656 274.816406 346.105469 275.886719 C 348.238281 278.441406 351.109375 271.992188 348.191406 273.035156 M 368.375 273.0625 C 368.117188 280.6875 374.152344 274.007812 368.375 273.0625 M 339.929688 277.710938 C 337.097656 277.84375 337.050781 283.222656 340.84375 280.6875 C 344.269531 280.011719 343.039062 276.667969 339.929688 277.710938 M 378.003906 279.046875 C 375.253906 279.003906 373.039062 280.160156 376.457031 281.835938 C 379.050781 285.355469 381.746094 278.054688 378.003906 279.046875 M 119.226562 279.390625 C 115.910156 280.691406 116.859375 284.652344 117.988281 287.25 C 122.078125 288.378906 126.433594 286.644531 129.894531 284.472656 C 129.179688 279.761719 122.976562 278.988281 119.226562 279.390625 M 349.164062 280.351562 C 347.082031 283.292969 345.441406 289.382812 348.402344 291.609375 C 349.925781 288.90625 351.355469 282.929688 349.164062 280.351562 M 558.070312 281.320312 C 555.265625 281.101562 554.707031 284.554688 554.820312 286.703125 C 559.800781 289.1875 568.394531 293.542969 571.121094 286.347656 C 568.933594 281.273438 562.90625 280.199219 558.070312 281.320312 M 367.28125 281.777344 C 365.632812 284.253906 366.628906 288.367188 367.75 291.179688 C 371.253906 289.570312 370.589844 282.238281 367.28125 281.777344 M 584.800781 286.371094 C 582.699219 291.273438 588.175781 293.253906 591.59375 290.980469 C 593.355469 286.429688 587.691406 285.761719 584.800781 286.371094 M 155.296875 288.953125 C 151.878906 289.515625 144.164062 289.761719 146.921875 295.023438 C 148 302.253906 155.992188 297.761719 159.683594 295.605469 C 163.070312 293.074219 158.675781 287.992188 155.296875 288.953125 M 126.304688 295.980469 C 119.417969 297.496094 127.234375 304.933594 130.632812 300.691406 C 133.257812 297.765625 129.773438 293.910156 126.304688 295.980469 M 333.238281 297.609375 C 332.921875 304.335938 342.007812 296.519531 333.238281 297.609375 M 380.445312 298.242188 C 376.859375 303.484375 390.394531 296.777344 380.445312 298.242188 M 319.410156 299.4375 C 302.269531 303.847656 283.144531 304.757812 268.800781 316.222656 C 264.324219 318.210938 263.703125 325.875 264.683594 329.101562 C 279.085938 323.402344 292.761719 315.203125 307.808594 310.792969 C 309.707031 309.703125 315.933594 307.746094 314.089844 311.640625 C 302.140625 318.636719 291.601562 327.855469 279.5 334.59375 C 269.417969 340.472656 253.011719 344.761719 251.828125 358.386719 C 252.015625 363.652344 258.65625 359.5625 261.289062 359.195312 C 286.023438 345.273438 307.667969 326.566406 328.121094 307.019531 C 334.414062 301.949219 323.410156 298.886719 319.410156 299.4375 M 394.484375 299.53125 C 391.238281 300.117188 388.097656 301.515625 385.398438 303.390625 C 388.355469 308.449219 393.625 311.570312 397.691406 315.648438 C 417.15625 330.859375 435.886719 347.738281 458.574219 358.023438 C 469.058594 362.171875 464.304688 349.203125 461.417969 345.097656 C 456.214844 340.320312 448.84375 339.050781 442.882812 335.4375 C 431.304688 331.621094 422.480469 322.445312 411.71875 316.886719 C 409.226562 314.859375 404.324219 313.527344 404.253906 309.871094 C 421.222656 312.515625 436.457031 321.363281 452.535156 326.945312 C 451.496094 322.863281 451.367188 318.332031 448.929688 314.757812 C 432.804688 304.546875 413.03125 301.757812 394.484375 299.53125 M 466.496094 304.1875 C 462.652344 306.234375 454.273438 304.328125 453.359375 308.992188 C 460.964844 312.871094 471.945312 315.800781 479.597656 310.726562 C 478.386719 306.167969 471.15625 303.902344 466.496094 304.1875 M 511.21875 304.082031 C 502.917969 308.183594 514.769531 322.457031 518.667969 312.929688 C 522.703125 308.160156 516.023438 302.792969 511.21875 304.082031 M 244.714844 307.058594 C 241.632812 309.308594 236.941406 309.996094 235.523438 313.839844 C 243.964844 315.472656 257.382812 317.300781 263.492188 309.226562 C 258.53125 306.90625 250.667969 306.882812 244.714844 307.058594 M 205.070312 308.238281 C 200.347656 308.390625 193.207031 315.121094 199.210938 318.421875 C 201.386719 322.890625 206.535156 319.019531 209.273438 316.898438 C 209.496094 314.308594 209.285156 307.605469 205.070312 308.238281 M 334.046875 311.625 C 323.210938 326.582031 307.707031 336.84375 295.707031 350.816406 C 287.820312 363.4375 283.691406 377.933594 277.84375 391.550781 C 277.058594 393.390625 275.699219 397.761719 279.042969 397.132812 C 283.941406 392.488281 280.835938 383.984375 286.28125 379.414062 C 294.722656 361.566406 309.523438 347.9375 320.667969 331.851562 C 321.570312 330.355469 324.355469 326.734375 325.574219 329.734375 C 314.628906 354.789062 300.179688 378.132812 287.503906 402.335938 C 285.242188 405.878906 283.953125 415.296875 290.242188 414.851562 C 294.359375 408.746094 293.207031 401 296.746094 394.609375 C 306.261719 372.15625 322.550781 353.1875 330.554688 329.988281 C 332.746094 324.320312 336.289062 316.714844 334.046875 311.625 M 381.871094 311.765625 C 388.328125 348.839844 419.5625 375.976562 428.410156 412.039062 C 431.128906 415.671875 432.863281 409.628906 433.738281 407.507812 C 433.152344 400.1875 427.46875 394.773438 424.75 388.210938 C 413.398438 369.367188 402.144531 350.445312 392.738281 330.539062 C 391.683594 329.191406 393.847656 327.71875 394.691406 329.136719 C 407.171875 343.800781 419.277344 358.796875 429.828125 374.902344 C 437.183594 379.867188 434.757812 391.046875 441.160156 396.417969 C 443.816406 392.480469 439.046875 386.359375 437.265625 382.109375 C 433.039062 369.859375 428.101562 357.453125 420.109375 347.128906 C 407.28125 335.582031 393.511719 323.542969 381.871094 311.765625 M 338.195312 313.535156 C 334.199219 317.121094 339.640625 316.539062 338.195312 313.535156 M 378.976562 315.011719 C 378.789062 318.9375 382.894531 314.839844 378.976562 315.011719 M 543.6875 317.554688 C 538.570312 319.515625 545.445312 327.890625 548.773438 324.332031 C 550.15625 320.789062 546.839844 317.671875 543.6875 317.554688 M 459.347656 321.0625 C 456.835938 331.628906 471.789062 335.484375 479.621094 337.410156 C 488.585938 339.957031 496.265625 345.664062 505.347656 347.773438 C 507.960938 346.527344 507.523438 342.851562 508.113281 340.34375 C 504.113281 329.792969 491.292969 327.503906 481.664062 326.289062 C 474.414062 324.835938 466.796875 322.195312 459.347656 321.0625 M 509.496094 321.09375 C 506.09375 324.398438 516.140625 328.230469 517.570312 325.375 C 516.757812 321.902344 512.8125 320.148438 509.496094 321.09375 M 343.308594 321.878906 C 341.785156 324.386719 345.535156 322.949219 343.308594 321.878906 M 255.582031 322.886719 C 242.652344 328.5625 227.804688 329.003906 215.460938 336.179688 C 212.558594 340.519531 206.835938 345.007812 209.859375 350.75 C 219.84375 350.855469 227.171875 343.484375 236.207031 340.554688 C 243.246094 336.953125 253.628906 336.847656 257.105469 328.398438 C 257.945312 326.746094 258.511719 321.976562 255.582031 322.886719 M 373.859375 322.902344 C 372.109375 326.523438 377 323.277344 373.859375 322.902344 M 338.609375 323.300781 C 331.117188 357.179688 304.800781 383.539062 299.898438 418.277344 C 299.535156 425.949219 304.789062 417.046875 305.609375 414.023438 C 312.722656 395.292969 318.289062 376.050781 326.652344 357.835938 C 327.285156 356.277344 326.949219 353.089844 329.582031 353.863281 C 326.234375 374.066406 319.9375 393.664062 314.164062 413.273438 C 313.378906 416.730469 312.132812 421.402344 315.207031 424.089844 C 318.625 423.691406 319.308594 419.53125 320.277344 416.925781 C 326.996094 390.382812 333.953125 363.929688 339.582031 337.128906 C 339.273438 333 340.773438 326.394531 338.609375 323.300781 M 207.507812 324.703125 C 204.8125 325.570312 200.625 326.777344 200.90625 330.296875 C 203.757812 333.71875 214.980469 325.324219 207.507812 324.703125 M 378.394531 324.695312 C 377.183594 334.292969 380.082031 343.519531 382.269531 352.730469 C 389.136719 374.652344 394.539062 396.96875 401.675781 418.8125 C 402.273438 421.789062 408.777344 423.339844 407.070312 418.25 C 401.839844 397.238281 392.582031 375.347656 390.472656 354.519531 C 402.007812 373.632812 406.953125 396.957031 416.679688 417.339844 C 418.0625 420.757812 421.214844 416.75 419.457031 414.621094 C 413.851562 383.480469 391.808594 359.140625 382.164062 329.519531 C 381.203125 327.902344 380.46875 323.757812 378.394531 324.695312 M 172.023438 325.152344 C 167.496094 325.726562 167.4375 334.9375 172.546875 332.148438 C 177.539062 331.726562 178.328125 322.574219 172.023438 325.152344 M 343.765625 326.96875 C 343.484375 332.496094 344.417969 338.167969 342.96875 343.585938 C 335.324219 374.359375 327.828125 405.207031 319.796875 435.855469 C 318.429688 436.683594 318.203125 443.703125 320.453125 440.578125 C 331.671875 410.039062 340.867188 378.828125 350.289062 347.710938 C 352.894531 340.023438 348.441406 331.410156 343.765625 326.96875 M 372.625 330.4375 C 371.632812 336.039062 369.835938 341.523438 369.683594 347.253906 C 376.402344 372.074219 385.882812 396.007812 394.480469 420.21875 C 396.707031 425.355469 397.480469 431.484375 401.148438 435.816406 C 393.019531 403 383.410156 370.585938 374.066406 338.097656 C 372.917969 336.105469 375.625 330.460938 372.625 330.4375 M 448.128906 331.007812 C 449.957031 334.804688 455.6875 338.691406 459.523438 340.128906 C 461.503906 335.089844 452.28125 331.851562 448.128906 331.007812 M 265.25 334.480469 C 260.253906 334.253906 254.125 340.398438 257.441406 344.828125 C 259.765625 341.464844 265.246094 338.3125 265.25 334.480469 M 549.65625 337.445312 C 547.734375 339.71875 554.527344 341.28125 556.894531 341.398438 C 557.285156 338.121094 551.953125 337.585938 549.65625 337.445312 M 468.589844 340.292969 C 466.976562 347.3125 472.964844 354.027344 478.035156 358.339844 C 486.152344 367.234375 499.167969 367.484375 510.292969 367.75 C 512.1875 366.003906 515.800781 362.140625 511.320312 360.804688 C 497.296875 353.558594 482.914062 346.847656 468.589844 340.292969 M 532.722656 341.128906 C 529.332031 341.011719 530.332031 345.441406 527.914062 346.929688 C 528.734375 355.914062 541.027344 360.792969 546.375 352.332031 C 545.140625 346.375 539.144531 340.8125 532.722656 341.128906 M 168.304688 343.390625 C 166.160156 344.300781 164.019531 345.371094 162.234375 346.890625 C 162.894531 352.402344 175.664062 342.824219 168.304688 343.390625 M 246.855469 343.46875 C 233.367188 350.757812 219.09375 357.285156 206.417969 365.972656 C 203.113281 373.785156 212.648438 373.09375 217.070312 370.71875 C 231.109375 371.664062 244.28125 360.742188 248.789062 347.75 C 249.425781 346.035156 250.667969 341.652344 246.855469 343.46875 M 184.230469 345.769531 C 178.9375 347.957031 173.101562 352.285156 173.320312 358.589844 C 176.511719 362.546875 183.28125 365.855469 186.773438 360.261719 C 193.339844 357.910156 193.089844 342.730469 184.230469 345.769531 M 437.992188 356.628906 C 439.296875 366.800781 447.230469 375.335938 450.660156 385.105469 C 451.832031 386.335938 451.726562 390.007812 453.945312 389.921875 C 451.753906 379.65625 442.65625 371.511719 441.359375 361.128906 C 450.394531 363.699219 457.191406 372.136719 462.25 380.171875 C 465.019531 377.769531 459.132812 374.398438 458.433594 372.089844 C 454.023438 364.046875 444.554688 362.113281 437.992188 356.628906 M 523.851562 357.40625 C 523.183594 359.925781 526.582031 361.328125 528.410156 362.527344 C 532.964844 360.875 526.464844 356.222656 523.851562 357.40625 M 279.003906 358.695312 C 269.605469 364.210938 258.347656 370.074219 255.839844 381.636719 C 261.320312 375.414062 265.890625 364.34375 276.273438 363.851562 C 273.964844 374.199219 266.386719 382.777344 263.664062 393.144531 C 264.3125 392.890625 265.34375 392.996094 265.625 392.21875 C 269.796875 380.992188 276.066406 370.683594 280.226562 359.453125 C 280.761719 358.679688 279.449219 358.140625 279.003906 358.695312 M 194.488281 362.230469 C 191.921875 362.875 189.855469 364.65625 187.804688 366.226562 C 189.128906 370.914062 199.265625 363.699219 194.488281 362.230469 M 567.066406 363.355469 C 564.175781 364.203125 560.273438 366.789062 561.480469 370.261719 C 562.582031 373.726562 568.226562 374.773438 570 371.335938 C 572.132812 368.738281 570.304688 363.800781 567.066406 363.355469 M 464.703125 366.289062 C 462.558594 369.160156 468.121094 373.859375 470.492188 375.765625 C 474.082031 374.230469 463.496094 368.664062 468.546875 367.316406 C 472.308594 368.269531 474.269531 373.09375 478.296875 373.027344 C 476.8125 368.09375 469.328125 366.554688 464.703125 366.289062 M 250.972656 368.703125 C 246.535156 369.097656 242.167969 371.761719 239.546875 374.851562 C 242.6875 378.382812 246.3125 368.066406 250.445312 371.410156 C 250.925781 374.582031 244.335938 376.691406 246.398438 379.320312 C 249.769531 378.15625 258.171875 367.636719 250.972656 368.703125 M 153.257812 369.800781 C 146.90625 371.011719 151.632812 383.445312 157.011719 379.777344 C 162.332031 377.617188 158.90625 367.378906 153.257812 369.800781 M 534.757812 375.050781 C 524.703125 380.691406 535.863281 395.539062 544.875 391.492188 C 549.5625 384.625 543.933594 373.203125 534.757812 375.050781 M 509.414062 377.933594 C 506.53125 380.664062 513.417969 384.789062 515.398438 381.207031 C 515.597656 378.359375 511.566406 377.421875 509.414062 377.933594 M 182.332031 379.738281 C 173.683594 381.214844 173.132812 390.320312 175.433594 396.710938 C 181.863281 400.339844 187.207031 391.339844 189.660156 386.570312 C 187.980469 384.078125 185.671875 379.515625 182.332031 379.738281 M 206.535156 382.085938 C 204.015625 382.714844 198.878906 388.082031 204.824219 387.113281 C 209.628906 389.042969 213.636719 380.082031 206.535156 382.085938 M 484.613281 391.988281 C 481.488281 396.953125 489.722656 400.117188 493.648438 399.917969 C 493.414062 395.769531 488.5625 391.882812 484.613281 391.988281 M 508.722656 392.042969 C 498.351562 396.589844 514.207031 419.167969 519.058594 405.761719 C 522.527344 399.285156 514.253906 393.113281 508.722656 392.042969 M 233.273438 395.59375 C 229.550781 396.195312 226.664062 398.855469 225.421875 402.421875 C 228.796875 407.941406 239.417969 396.71875 233.273438 395.59375 M 208.175781 396.753906 C 204.121094 398.640625 200.390625 402.699219 200.355469 407.425781 C 202.644531 410.65625 207.070312 418.472656 210.128906 411.734375 C 214.644531 408.136719 217.222656 395.21875 208.175781 396.753906 M 558.515625 399.605469 C 555.136719 401.832031 550.71875 407.015625 556.148438 409.929688 C 561.9375 411.421875 564.78125 398.773438 558.515625 399.605469 M 534.902344 402.546875 C 534.667969 406.707031 540.195312 414.902344 545.035156 415.71875 C 550.957031 410.15625 540.421875 403.425781 534.902344 402.546875 M 479.375 406.042969 C 473.265625 410.027344 480.78125 418.945312 481.066406 424.402344 C 482.152344 429.84375 487.988281 425.917969 491.308594 425.621094 C 493.167969 417.691406 486.785156 408.042969 479.375 406.042969 M 160.480469 406.613281 C 155.265625 408.582031 159.820312 417.136719 164.050781 416.074219 C 168.683594 412.027344 166.066406 407.097656 160.480469 406.613281 M 183.035156 407.914062 C 177.753906 409.957031 172.851562 414.136719 171.519531 419.835938 C 176.929688 424.601562 180.902344 416.09375 183.457031 412.589844 C 184.335938 410.984375 187.628906 406.289062 183.035156 407.914062 M 239.015625 409.566406 C 232.492188 412.992188 227.40625 420.371094 227.476562 427.792969 C 230.179688 430.945312 237.585938 434.984375 238.417969 427.671875 C 240.023438 422.695312 245.816406 411.628906 239.015625 409.566406 M 447.742188 410.71875 C 442.738281 414.453125 446.242188 423.761719 449.488281 428.082031 C 459.355469 427.441406 455.289062 411.570312 447.742188 410.71875 M 465.382812 410.714844 C 457.480469 416.859375 465.519531 434.621094 475.496094 429.679688 C 474.066406 423.160156 472.425781 412.8125 465.382812 410.714844 M 269.527344 413.027344 C 265.085938 416.632812 262.554688 423.183594 264.582031 428.507812 C 272.738281 437.515625 279.289062 414 269.527344 413.027344 M 252.605469 413.648438 C 247.238281 418.03125 244.09375 426.199219 244.277344 433.148438 C 255.753906 440.414062 261.859375 415.371094 252.605469 413.648438 M 436.566406 423.667969 C 425.863281 424.203125 432.425781 443.824219 441.605469 437.621094 C 445.515625 433.757812 441.394531 424.53125 436.566406 423.667969 M 506.320312 424.179688 C 502.226562 429.667969 509.636719 438.511719 516.246094 437.304688 C 515.632812 432.171875 512.367188 424.519531 506.320312 424.179688 M 530.996094 424.710938 C 527.121094 428.027344 526.132812 436.953125 532.929688 436.730469 C 540.996094 436.042969 538.171875 423.410156 530.996094 424.710938 M 281.492188 426.59375 C 276.277344 428.25 271.539062 441.527344 280.636719 440.964844 C 288.253906 442.171875 291.125 423.597656 281.492188 426.59375 M 406.097656 427.777344 C 402.121094 430.980469 408.214844 441.804688 413.972656 437.339844 C 414.734375 432.785156 411.066406 427.078125 406.097656 427.777344 M 420.6875 427.675781 C 417.132812 430.605469 417.53125 440.191406 423.664062 438.582031 C 427.578125 435.773438 425.382812 428.109375 420.6875 427.675781 M 211.164062 428.929688 C 206.359375 431.550781 202.164062 437.082031 202.136719 442.71875 C 206.789062 443.9375 211.558594 442.605469 212.566406 437.472656 C 213.375 435.007812 217.59375 426.992188 211.164062 428.929688 M 298.109375 429.527344 C 292.433594 430.742188 291.136719 441.796875 297.414062 442.816406 C 301.773438 440.964844 304.050781 430.753906 298.109375 429.527344 M 311.300781 430.074219 C 307.375 431.632812 304.433594 436.402344 306.074219 440.578125 C 312.90625 445.367188 320.84375 429.21875 311.300781 430.074219 M 185.601562 430.710938 C 178.042969 431.859375 184.234375 447.792969 190.066406 440.390625 C 194.183594 436.425781 190.710938 431.003906 185.601562 430.710938 M 498.070312 446.554688 C 488.5625 446.925781 495.898438 464.351562 502.0625 456.335938 C 504.867188 453.371094 502.015625 446.445312 498.070312 446.554688 M 457.667969 447.6875 C 451.578125 448.074219 454.035156 455.53125 455.617188 459.234375 C 457.378906 463.003906 460.976562 458.625 463.679688 458.316406 C 463.332031 454.449219 463.167969 447.03125 457.667969 447.6875 M 261.519531 450.125 C 254.609375 451.671875 255.03125 464.632812 262.621094 464.398438 C 265.855469 461.53125 268.023438 449.058594 261.519531 450.125 M 413.828125 451.136719 C 410.574219 454.71875 415.433594 460.085938 418.480469 455.988281 C 422.382812 453.152344 416.898438 449.601562 413.828125 451.136719 M 221.566406 451.757812 C 217.183594 452.484375 213.867188 458.871094 218.226562 461.824219 C 224.777344 468.953125 230.640625 450.597656 221.566406 451.757812 M 427.988281 452.421875 C 421.445312 453.011719 426.089844 464.515625 431.351562 462.746094 C 438.335938 462.089844 433.660156 449.917969 427.988281 452.421875 M 477.699219 452.367188 C 471.527344 455.328125 478.601562 467.898438 484.582031 462.9375 C 487.507812 459.222656 482.925781 450.773438 477.699219 452.367188 M 304.261719 453.011719 C 298.660156 451.835938 297.941406 463.019531 303.894531 459.851562 C 309.335938 460.636719 310.496094 450.558594 304.261719 453.011719 M 444.699219 452.960938 C 434.738281 452.742188 444.027344 470.078125 451.203125 463.570312 C 451.609375 459.761719 450.054688 452.589844 444.699219 452.960938 M 288.25 454.566406 C 286.367188 457.136719 282.335938 463.273438 287.757812 464.132812 C 294.8125 464.867188 294.167969 455.144531 288.25 454.566406 M 274.820312 455.882812 C 269.070312 455.890625 265.683594 461.199219 266.769531 466.535156 C 272.867188 472.316406 284.488281 455.824219 274.820312 455.882812 M 238.726562 456.464844 C 233.980469 457.472656 230.710938 468.246094 237.679688 467.449219 C 245.734375 469.738281 247.457031 453.207031 238.726562 456.464844 Z M 238.726562 456.464844 " fill-opacity="1" fill-rule="nonzero"/></g></svg>