<svg xmlns="http://www.w3.org/2000/svg" xmlns:xlink="http://www.w3.org/1999/xlink" width="940" zoomAndPan="magnify" viewBox="0 0 705 591.000005" height="788" preserveAspectRatio="xMidYMid meet" version="1.0"><path fill="#ffffff" d="M 166.210938 488.039062 C 166.210938 488.039062 163.6875 488.039062 160.636719 471.308594 C 156.742188 450.367188 165.371094 411.539062 166.632812 408.488281 C 157.792969 401.859375 123.699219 369.976562 125.382812 325.886719 C 127.066406 281.800781 160.003906 237.289062 160.003906 237.289062 C 160.003906 237.289062 164.949219 143.746094 214.511719 90.714844 C 232.507812 92.503906 283.4375 136.382812 292.699219 144.589844 C 316.164062 137.433594 382.984375 138.378906 407.820312 144.378906 C 407.820312 144.378906 441.703125 105.550781 488.425781 92.820312 C 496.320312 95.660156 549.566406 184.890625 539.671875 238.132812 C 555.667969 252.652344 610.074219 335.359375 535.253906 412.382812 C 549.566406 452.578125 540.515625 488.144531 540.515625 488.144531 Z M 166.210938 488.039062 C 166.210938 488.039062 160.636719 485.195312 159.164062 474.988281 C 155.898438 452.683594 165.160156 412.171875 166.632812 408.382812 C 157.792969 401.859375 123.699219 369.976562 125.382812 325.886719 C 127.066406 281.800781 160.003906 237.289062 160.003906 237.289062 C 160.003906 237.289062 162.84375 141.433594 212.410156 88.292969 C 230.402344 90.082031 284.492188 134.066406 293.75 142.378906 C 317.21875 135.222656 383.089844 138.273438 407.925781 144.273438 C 407.925781 144.273438 441.914062 103.234375 488.742188 90.503906 C 496.632812 93.34375 549.777344 184.785156 539.777344 238.027344 C 555.773438 252.546875 610.175781 335.253906 535.359375 412.277344 C 549.671875 452.472656 539.671875 488.039062 539.671875 488.039062 Z M 166.210938 488.039062 " fill-opacity="1" fill-rule="nonzero"/><path fill="#efb07d" d="M 324.375 141.011719 C 324.375 141.011719 386.25 209.933594 305.957031 273.382812 C 225.667969 336.832031 123.59375 304.84375 137.378906 277.484375 C 137.378906 277.484375 150.742188 243.605469 163.371094 235.605469 C 155.691406 215.296875 173.789062 158.476562 190.308594 124.808594 C 190.308594 124.808594 206.9375 93.027344 214.511719 90.714844 C 222.089844 88.398438 271.230469 122.597656 291.015625 140.800781 C 303.644531 142.378906 324.375 141.011719 324.375 141.011719 Z M 483.796875 375.132812 C 474.011719 359.875 446.964844 337.882812 442.546875 368.714844 C 431.601562 360.085938 419.183594 363.875 420.765625 384.183594 C 412.976562 376.289062 394.5625 374.1875 392.246094 409.121094 C 389.929688 444.054688 408.558594 488.246094 408.558594 488.246094 L 500.316406 488.246094 C 500.210938 488.246094 493.582031 390.496094 483.796875 375.132812 Z M 483.796875 375.132812 " fill-opacity="1" fill-rule="nonzero"/><path fill="#ef5454" d="M 211.25 180.574219 C 211.25 180.574219 196.097656 203.933594 183.679688 224.980469 C 183.363281 152.480469 219.144531 120.914062 219.144531 120.914062 C 210.09375 140.589844 211.25 180.574219 211.25 180.574219 Z M 489.375 180.574219 C 489.375 180.574219 503.160156 203.933594 515.472656 224.980469 C 515.785156 152.480469 480.007812 120.914062 480.007812 120.914062 C 489.164062 140.589844 489.375 180.574219 489.375 180.574219 Z M 183.679688 368.925781 C 124.542969 323.152344 147.691406 259.070312 147.691406 259.070312 C 115.175781 294.003906 118.226562 367.765625 156.214844 404.804688 C 158.953125 407.4375 162.003906 409.960938 165.265625 412.382812 C 170.738281 398.703125 178.417969 381.027344 183.679688 368.925781 Z M 550.828125 259.070312 C 550.828125 259.070312 573.664062 322.3125 515.890625 368.082031 C 520.730469 379.867188 528.835938 399.230469 534.621094 411.328125 C 537.359375 409.226562 539.988281 407.015625 542.304688 404.804688 C 580.1875 367.765625 583.238281 294.003906 550.828125 259.070312 Z M 208.09375 417.117188 C 208.09375 417.117188 212.828125 387.96875 231.140625 391.863281 C 238.402344 393.441406 241.871094 402.175781 238.714844 410.488281 C 246.503906 396.28125 254.183594 397.964844 257.445312 399.019531 C 260.710938 400.070312 267.863281 405.542969 264.078125 418.167969 C 272.285156 405.015625 282.703125 409.226562 284.910156 412.90625 C 287.121094 416.484375 292.066406 421.535156 279.125 460.46875 C 272.8125 478.042969 269.023438 488.246094 269.023438 488.246094 L 202.832031 488.246094 Z M 497.792969 488.246094 L 431.601562 488.246094 C 431.601562 488.246094 427.8125 478.042969 421.5 460.46875 C 408.558594 421.535156 413.503906 416.484375 415.710938 412.90625 C 417.921875 409.332031 428.339844 405.015625 436.546875 418.167969 C 432.65625 405.542969 439.808594 400.070312 443.179688 399.019531 C 446.441406 397.964844 454.121094 396.28125 461.910156 410.488281 C 458.75 402.175781 462.222656 393.441406 469.484375 391.863281 C 487.796875 387.96875 492.53125 417.117188 492.53125 417.117188 Z M 394.140625 439.949219 L 392.351562 428.164062 C 379.09375 430.375 364.886719 433.003906 349.734375 433.003906 C 334.582031 433.003906 320.480469 430.375 307.117188 428.164062 L 305.328125 439.949219 C 305.328125 439.949219 301.644531 453.3125 297.117188 465.519531 C 315.324219 470.042969 349.628906 471.308594 349.628906 471.308594 C 349.628906 471.308594 383.933594 470.042969 402.136719 465.519531 C 398.558594 452.472656 394.140625 439.949219 394.140625 439.949219 Z M 433.179688 151.113281 C 433.179688 151.113281 463.277344 110.179688 488.003906 96.1875 C 488.953125 92.609375 474.429688 89.871094 453.070312 106.289062 C 431.707031 122.808594 407.1875 144.167969 407.1875 144.167969 Z M 268.390625 151.113281 C 268.390625 151.113281 253.238281 110.496094 213.566406 96.1875 C 213.988281 92.082031 227.667969 92.082031 245.242188 103.234375 C 262.8125 114.390625 296.910156 143.429688 296.910156 143.429688 Z M 268.390625 151.113281 " fill-opacity="0.298" fill-rule="nonzero"/><path fill="#ffffff" d="M 212.410156 92.820312 C 212.410156 92.820312 174.421875 163.320312 177.050781 241.183594 C 154.425781 259.070312 142.640625 277.484375 130.644531 308.316406 C 130.222656 289.585938 141.378906 268.332031 160.003906 237.394531 C 162.84375 197.726562 171.578125 129.4375 212.410156 92.820312 Z M 160.953125 408.066406 C 160.953125 408.066406 164.84375 408.488281 167.894531 394.492188 C 129.699219 356.191406 130.011719 310.316406 130.011719 310.316406 C 110.019531 354.089844 160.953125 408.066406 160.953125 408.066406 Z M 570.507812 310.316406 C 570.507812 310.316406 570.820312 356.191406 532.625 394.492188 C 535.675781 408.59375 539.570312 408.066406 539.570312 408.066406 C 539.570312 408.066406 590.5 354.089844 570.507812 310.316406 Z M 570.507812 310.316406 " fill-opacity="1" fill-rule="nonzero"/><path fill="#89e3f7" d="M 279.019531 249.285156 C 279.019531 249.285156 254.183594 280.539062 231.664062 320.835938 C 205.464844 367.976562 205.570312 488.246094 205.570312 488.246094 L 146.640625 488.246094 C 146.640625 488.246094 146.535156 369.03125 179.261719 318.3125 C 212.410156 266.859375 226.089844 266.753906 226.089844 266.753906 Z M 420.660156 249.285156 C 420.660156 249.285156 445.492188 280.539062 468.011719 320.835938 C 494.214844 367.871094 494.109375 488.246094 494.109375 488.246094 L 553.039062 488.246094 C 553.039062 488.246094 553.144531 369.03125 520.417969 318.3125 C 487.269531 266.859375 473.589844 266.753906 473.589844 266.753906 Z M 420.660156 249.285156 " fill-opacity="1" fill-rule="nonzero"/><path fill="#2b0806" d="M 555.5625 488.246094 L 497.792969 488.246094 C 497.792969 488.246094 488.003906 387.445312 484.953125 359.140625 C 532.414062 505.398438 510.839844 364.292969 506.738281 343.039062 C 520.3125 368.820312 528.097656 464.363281 536.9375 438.792969 C 545.671875 413.222656 522.941406 331.042969 523.996094 332.726562 C 553.984375 379.238281 555.5625 488.246094 555.5625 488.246094 Z M 145.0625 488.246094 L 202.832031 488.246094 C 202.832031 488.246094 212.617188 387.445312 215.671875 359.140625 C 168.210938 505.398438 189.785156 364.292969 193.886719 343.039062 C 180.3125 368.820312 172.527344 464.363281 163.6875 438.792969 C 154.953125 413.222656 177.683594 331.148438 176.628906 332.726562 C 146.746094 379.238281 145.0625 488.246094 145.0625 488.246094 Z M 145.0625 488.246094 " fill-opacity="0.2" fill-rule="nonzero"/><path fill="#2b0806" d="M 386.039062 205.933594 C 379.09375 201.726562 384.25 191.308594 391.195312 195.515625 C 396.980469 199.726562 400.664062 204.460938 410.660156 206.25 C 414.027344 206.878906 417.082031 207.933594 417.082031 210.984375 C 417.1875 213.929688 412.660156 214.773438 409.292969 214.246094 C 401.402344 212.984375 392.878906 210.144531 386.039062 205.933594 Z M 551.039062 401.226562 C 607.125 334.832031 566.296875 265.070312 545.460938 238.027344 C 543.039062 144.589844 497.582031 84.613281 486.113281 85.980469 C 447.175781 96.394531 409.714844 134.59375 404.242188 140.273438 C 381.828125 134.382812 361.097656 133.75 350.890625 133.960938 C 340.683594 133.855469 319.953125 134.382812 297.539062 140.273438 C 291.960938 134.59375 254.5 96.394531 215.566406 85.980469 C 203.988281 84.613281 158.636719 144.484375 156.109375 237.921875 C 135.378906 264.859375 94.867188 334.097656 149.796875 400.175781 C 148.746094 406.910156 147.796875 414.066406 147.0625 421.429688 C 144.429688 449.945312 141.378906 471.832031 139.90625 488.144531 L 148.535156 488.144531 C 148.535156 488.144531 150.324219 420.800781 163.476562 368.609375 C 176.945312 315.472656 212.410156 278.75 220.722656 270.644531 C 222.40625 270.332031 224.195312 270.015625 226.195312 269.488281 C 239.875 266.121094 256.394531 262.332031 269.652344 258.125 C 250.710938 278.539062 212.828125 329.570312 205.042969 417.644531 C 202.410156 447.84375 199.359375 470.886719 197.886719 488.144531 L 206.410156 488.144531 C 206.410156 488.144531 207.671875 438.6875 215.671875 390.285156 C 220.40625 378.183594 225.035156 370.398438 231.980469 363.558594 C 245.765625 349.984375 259.550781 360.925781 254.5 379.132812 C 258.710938 372.503906 263.445312 365.347656 270.496094 369.03125 C 279.230469 373.449219 276.703125 391.023438 276.703125 391.023438 C 276.703125 391.023438 287.542969 380.078125 293.960938 383.023438 C 304.273438 387.757812 307.324219 408.066406 299.539062 443.105469 C 297.855469 450.894531 292.910156 469.097656 287.542969 488.144531 L 296.699219 488.144531 C 297.644531 484.671875 298.382812 481.828125 298.800781 479.933594 L 298.90625 479.515625 L 301.328125 469.308594 C 306.589844 446.789062 309.324219 429.535156 310.796875 416.066406 C 314.691406 380.921875 293.015625 368.609375 283.4375 378.816406 C 285.332031 360.71875 268.917969 355.140625 259.445312 364.085938 C 259.972656 360.824219 258.394531 356.085938 254.710938 352.929688 C 249.027344 348.511719 245.136719 349.773438 245.136719 349.773438 C 241.453125 349.984375 237.03125 351.351562 231.980469 354.824219 C 227.246094 357.980469 223.5625 362.296875 219.667969 368.398438 C 220.195312 366.1875 220.617188 364.085938 221.144531 361.980469 C 232.929688 312.839844 265.445312 271.066406 279.753906 254.546875 C 287.648438 251.285156 293.015625 247.8125 293.75 244.023438 C 294.804688 238.34375 220.40625 245.601562 214.617188 249.496094 C 206.199219 255.074219 215.460938 258.441406 220.828125 256.335938 C 208.9375 261.597656 201.78125 271.382812 213.777344 271.488281 C 204.832031 278.539062 167.054688 312.105469 151.691406 387.96875 C 131.800781 361.453125 108.652344 308.421875 164.949219 239.289062 C 163.265625 218.035156 168.421875 145.113281 213.566406 96.292969 C 219.878906 93.132812 253.34375 111.96875 287.4375 143.324219 C 281.125 145.429688 274.703125 148.0625 268.496094 151.113281 C 270.917969 153.847656 302.484375 143.640625 350.890625 143.640625 C 399.296875 143.640625 430.972656 153.847656 433.285156 151.113281 C 427.078125 147.957031 420.660156 145.429688 414.34375 143.324219 C 448.4375 111.96875 481.902344 93.027344 488.214844 96.292969 C 526.203125 141.851562 539.359375 204.882812 536.410156 239.289062 C 593.339844 309.261719 568.925781 362.820312 548.933594 389.023438 C 533.675781 312.316406 495.582031 278.539062 486.53125 271.488281 C 498.632812 271.382812 491.375 261.597656 479.480469 256.335938 C 484.847656 258.441406 494.109375 255.179688 485.691406 249.496094 C 479.902344 245.601562 405.503906 238.34375 406.558594 244.023438 C 407.292969 247.8125 412.660156 251.285156 420.554688 254.546875 C 434.863281 271.171875 467.378906 312.839844 479.167969 361.980469 C 479.691406 364.296875 480.21875 366.609375 480.746094 368.925781 C 476.746094 362.507812 472.957031 358.085938 468.117188 354.824219 C 463.066406 351.457031 458.648438 349.984375 454.964844 349.773438 C 454.964844 349.773438 451.070312 348.511719 445.386719 352.929688 C 441.703125 356.085938 440.125 360.824219 440.652344 364.085938 C 431.179688 355.140625 414.765625 360.71875 416.660156 378.816406 C 407.082031 368.609375 385.40625 381.027344 389.300781 416.066406 C 390.773438 429.535156 393.613281 446.894531 398.769531 469.308594 L 401.191406 479.515625 L 401.296875 479.933594 C 401.71875 481.828125 402.453125 484.671875 403.402344 488.144531 L 412.554688 488.144531 C 407.1875 468.992188 402.242188 450.789062 400.558594 443.105469 C 392.878906 408.171875 395.824219 387.863281 406.136719 383.023438 C 412.660156 379.972656 423.394531 391.023438 423.394531 391.023438 C 423.394531 391.023438 420.867188 373.554688 429.601562 369.03125 C 436.652344 365.453125 441.285156 372.503906 445.597656 379.132812 C 440.546875 361.03125 454.332031 350.089844 468.117188 363.558594 C 475.273438 370.609375 480.007812 378.605469 484.847656 391.230469 C 492.742188 439.320312 494.003906 488.144531 494.003906 488.144531 L 502.527344 488.144531 C 501.054688 470.886719 498.003906 447.84375 495.371094 417.644531 C 487.585938 329.675781 449.703125 278.539062 430.761719 258.125 C 444.019531 262.332031 460.539062 266.121094 474.21875 269.488281 C 476.21875 270.015625 478.113281 270.332031 479.691406 270.644531 C 488.003906 278.75 523.46875 315.472656 536.9375 368.609375 C 550.195312 420.800781 551.878906 488.144531 551.878906 488.144531 L 560.402344 488.144531 C 558.929688 471.832031 555.878906 449.945312 553.25 421.429688 C 552.933594 414.488281 552.089844 407.753906 551.039062 401.226562 Z M 305.640625 195.515625 C 299.855469 199.726562 296.171875 204.460938 286.175781 206.25 C 282.808594 206.878906 279.753906 207.933594 279.753906 210.984375 C 279.652344 213.929688 284.175781 214.773438 287.542969 214.246094 C 295.433594 212.984375 303.957031 210.144531 310.796875 205.933594 C 317.742188 201.621094 312.585938 191.308594 305.640625 195.515625 Z M 371.515625 272.015625 C 369.9375 277.589844 367.621094 281.695312 365.730469 281.0625 C 363.730469 280.433594 362.046875 266.859375 361.730469 259.28125 C 357.835938 255.492188 353.730469 253.074219 349.734375 252.96875 C 329.109375 253.808594 307.222656 312.734375 313.851562 316.945312 C 322.375 322.207031 340.578125 324.308594 349.734375 324.308594 C 358.886719 324.308594 376.988281 322.207031 385.617188 316.945312 C 389.722656 314.3125 382.566406 289.902344 371.515625 272.015625 Z M 480.113281 120.914062 C 480.113281 120.914062 489.164062 158.898438 484.21875 190.046875 C 491.6875 193.203125 515.574219 224.980469 515.574219 224.980469 C 515.574219 224.980469 511.472656 203.722656 494.53125 185.519531 C 498.214844 164.898438 491.582031 131.644531 480.113281 120.914062 Z M 204.726562 185.519531 C 187.785156 203.722656 183.679688 224.980469 183.679688 224.980469 C 183.679688 224.980469 207.671875 193.203125 215.039062 190.046875 C 210.09375 158.898438 219.144531 120.914062 219.144531 120.914062 C 207.566406 131.644531 200.9375 164.898438 204.726562 185.519531 Z M 204.726562 185.519531 " fill-opacity="1" fill-rule="nonzero"/><path fill="#ef5454" d="M 376.144531 298.953125 C 378.144531 305.582031 378.671875 310.632812 377.09375 311.683594 C 370.570312 315.785156 356.574219 317.367188 349.628906 317.367188 C 342.578125 317.367188 328.6875 315.785156 322.164062 311.683594 C 320.796875 310.839844 321.007812 306.949219 322.375 301.6875 C 348.261719 276.433594 367.621094 289.796875 376.144531 298.953125 Z M 376.144531 298.953125 C 378.144531 305.582031 378.671875 310.632812 377.09375 311.683594 C 370.570312 315.785156 356.574219 317.367188 349.628906 317.367188 C 342.578125 317.367188 328.6875 315.785156 322.164062 311.683594 C 320.796875 310.839844 321.007812 306.949219 322.375 301.6875 C 348.261719 276.433594 367.621094 289.796875 376.144531 298.953125 Z M 376.144531 298.953125 " fill-opacity="1" fill-rule="nonzero"/></svg>