<svg xmlns="http://www.w3.org/2000/svg" xmlns:xlink="http://www.w3.org/1999/xlink" width="940" zoomAndPan="magnify" viewBox="0 0 705 591.000005" height="788" preserveAspectRatio="xMidYMid meet" version="1.0"><path fill="#f7c67e" d="M 552.667969 352.199219 C 552.667969 444.835938 448.941406 492.726562 320.945312 492.726562 C 192.953125 492.726562 89.226562 444.835938 89.226562 352.199219 C 89.226562 325.953125 97.550781 301.0625 112.472656 278.914062 C 121.285156 265.949219 131.671875 254.398438 143.632812 244.265625 C 151.394531 237.628906 159.589844 231.585938 168.222656 226.136719 C 174.378906 222.207031 180.792969 218.535156 187.457031 215.121094 C 195 211.265625 202.875 207.699219 211.109375 204.492188 C 212.75 203.875 214.414062 203.226562 216.066406 202.609375 C 227.9375 198.246094 240.050781 194.707031 252.402344 191.992188 C 274.976562 186.953125 297.828125 184.449219 320.957031 184.480469 C 427.382812 184.480469 516.957031 236.398438 544.1875 307.140625 C 546.980469 314.324219 549.089844 321.703125 550.515625 329.277344 C 551.941406 336.851562 552.660156 344.492188 552.667969 352.199219 Z M 552.667969 352.199219 " fill-opacity="1" fill-rule="nonzero"/><path fill="#f7c67e" d="M 90.957031 332.429688 C 85.839844 341.574219 81.929688 351.207031 79.21875 361.332031 C 76.875 370.242188 75.574219 379.304688 75.316406 388.519531 C 75.058594 397.730469 75.847656 406.851562 77.6875 415.882812 C 85.980469 457.734375 114.53125 495.402344 148.367188 519.414062 C 156.964844 525.535156 166.070312 530.773438 175.6875 535.128906 C 176.042969 535.328125 176.410156 535.507812 176.789062 535.65625 C 185.839844 539.636719 194.621094 543.027344 203.136719 545.824219 C 204.824219 546.394531 206.441406 546.925781 208.082031 547.398438 C 215.792969 549.875 223.617188 551.90625 231.558594 553.488281 C 236.976562 554.589844 242.195312 555.460938 247.269531 556.078125 C 251.15625 556.5625 254.980469 556.890625 258.632812 557.089844 C 314.792969 560.394531 346.613281 534.171875 330.460938 500.621094 C 321.9375 483.078125 304.441406 475.742188 278.621094 467.304688 L 275.890625 466.445312 C 269.601562 464.429688 262.796875 462.328125 255.5625 459.96875 C 252.359375 458.925781 249.042969 457.824219 245.652344 456.667969 C 240.046875 454.792969 234.144531 452.734375 228.035156 450.386719 C 221.921875 448.042969 215.667969 445.597656 209.148438 442.765625 C 207.621094 442.09375 206.132812 441.476562 204.648438 440.804688 C 195.375 436.632812 186.796875 432.226562 178.945312 427.820312 C 150.714844 411.949219 131.433594 394.78125 118.21875 379.449219 C 112.726562 373.15625 107.773438 366.464844 103.367188 359.371094 C 93.398438 343.355469 90.957031 332.429688 90.957031 332.429688 Z M 90.957031 332.429688 " fill-opacity="1" fill-rule="nonzero"/><path fill="#f29f6e" d="M 278.621094 470.621094 C 278.277344 470.621094 277.945312 470.574219 277.617188 470.476562 L 266.949219 467.097656 C 262.972656 465.839844 258.832031 464.53125 254.527344 463.132812 C 251.289062 462.058594 247.988281 460.957031 244.617188 459.828125 C 238.097656 457.625 232.296875 455.585938 226.910156 453.503906 C 219.964844 450.882812 213.699219 448.363281 207.90625 445.796875 L 206.351562 445.125 C 205.351562 444.695312 204.347656 444.265625 203.347656 443.8125 C 194.296875 439.769531 185.519531 435.355469 177.292969 430.683594 C 152.429688 416.808594 131.6875 400.285156 115.632812 381.652344 C 110.019531 375.21875 104.964844 368.378906 100.457031 361.132812 C 90.359375 344.84375 87.785156 333.597656 87.675781 333.15625 C 87.578125 332.71875 87.566406 332.277344 87.644531 331.835938 C 87.722656 331.394531 87.882812 330.984375 88.125 330.605469 C 88.367188 330.226562 88.671875 329.910156 89.039062 329.652344 C 89.40625 329.394531 89.808594 329.21875 90.246094 329.121094 C 90.683594 329.023438 91.125 329.015625 91.566406 329.09375 C 92.007812 329.171875 92.417969 329.328125 92.796875 329.570312 C 93.175781 329.8125 93.492188 330.117188 93.75 330.484375 C 94.007812 330.851562 94.183594 331.253906 94.28125 331.691406 C 94.28125 331.792969 96.78125 342.363281 106.226562 357.597656 C 110.539062 364.539062 115.386719 371.089844 120.761719 377.246094 C 136.265625 395.273438 156.40625 411.300781 180.585938 424.835938 C 188.636719 429.40625 197.214844 433.734375 206.089844 437.6875 C 207.070312 438.128906 208.027344 438.539062 209.007812 438.96875 L 210.570312 439.640625 C 216.308594 442.128906 222.441406 444.605469 229.289062 447.207031 C 234.597656 449.242188 240.300781 451.292969 246.742188 453.429688 C 250.113281 454.589844 253.414062 455.691406 256.652344 456.730469 C 260.925781 458.121094 265.054688 459.429688 269.007812 460.675781 L 279.65625 464.054688 C 280.09375 464.121094 280.5 464.269531 280.882812 464.5 C 281.261719 464.730469 281.582031 465.023438 281.84375 465.378906 C 282.105469 465.734375 282.292969 466.128906 282.398438 466.558594 C 282.503906 466.988281 282.523438 467.421875 282.457031 467.863281 C 282.390625 468.300781 282.242188 468.707031 282.015625 469.089844 C 281.785156 469.46875 281.492188 469.789062 281.136719 470.050781 C 280.777344 470.3125 280.386719 470.5 279.957031 470.605469 C 279.523438 470.710938 279.089844 470.730469 278.652344 470.664062 Z M 278.621094 470.621094 " fill-opacity="1" fill-rule="nonzero"/><path fill="#f29f6e" d="M 252.390625 192.023438 C 252.171875 192.730469 251.867188 193.398438 251.488281 194.03125 C 250.484375 195.796875 249.117188 197.21875 247.390625 198.292969 C 244.769531 201.332031 238.945312 209.8125 233.78125 224.339844 C 225.578125 247.195312 221.726562 276.820312 222.75 309.972656 C 222.769531 310.78125 222.714844 311.582031 222.578125 312.378906 C 222.445312 313.171875 222.234375 313.949219 221.945312 314.703125 C 221.660156 315.457031 221.300781 316.175781 220.871094 316.863281 C 220.445312 317.546875 219.953125 318.183594 219.398438 318.769531 C 218.847656 319.359375 218.242188 319.886719 217.585938 320.355469 C 216.929688 320.824219 216.230469 321.226562 215.496094 321.558594 C 214.761719 321.890625 214 322.152344 213.214844 322.332031 C 212.425781 322.515625 211.628906 322.621094 210.824219 322.648438 L 210.449219 322.648438 C 209.65625 322.648438 208.871094 322.574219 208.09375 322.421875 C 207.316406 322.269531 206.558594 322.046875 205.824219 321.75 C 205.089844 321.453125 204.390625 321.085938 203.726562 320.652344 C 203.0625 320.21875 202.445312 319.726562 201.878906 319.175781 C 201.308594 318.625 200.800781 318.023438 200.347656 317.371094 C 199.894531 316.71875 199.507812 316.03125 199.1875 315.308594 C 198.867188 314.582031 198.621094 313.832031 198.445312 313.058594 C 198.273438 312.285156 198.171875 311.503906 198.148438 310.710938 C 196.640625 259.585938 205.859375 224.230469 216.066406 202.621094 C 227.933594 198.265625 240.042969 194.734375 252.390625 192.023438 Z M 252.390625 192.023438 " fill-opacity="1" fill-rule="nonzero"/><path fill="#f29f6e" d="M 211.109375 204.527344 C 210.070312 205.757812 208.824219 206.734375 207.378906 207.445312 C 202.90625 211.542969 181.589844 234.339844 183.769531 291.304688 C 183.796875 292.109375 183.746094 292.910156 183.617188 293.707031 C 183.488281 294.503906 183.28125 295.277344 183 296.035156 C 182.71875 296.789062 182.367188 297.511719 181.941406 298.195312 C 181.519531 298.882812 181.035156 299.523438 180.488281 300.113281 C 179.9375 300.707031 179.339844 301.238281 178.6875 301.710938 C 178.035156 302.1875 177.34375 302.59375 176.609375 302.929688 C 175.878906 303.269531 175.121094 303.53125 174.335938 303.722656 C 173.554688 303.914062 172.757812 304.023438 171.953125 304.058594 L 171.46875 304.058594 C 170.683594 304.054688 169.902344 303.980469 169.128906 303.828125 C 168.355469 303.675781 167.605469 303.453125 166.875 303.15625 C 166.144531 302.863281 165.449219 302.5 164.789062 302.070312 C 164.128906 301.640625 163.515625 301.152344 162.949219 300.605469 C 162.382812 300.058594 161.875 299.460938 161.421875 298.816406 C 160.96875 298.171875 160.582031 297.488281 160.261719 296.769531 C 159.941406 296.050781 159.691406 295.304688 159.515625 294.539062 C 159.335938 293.773438 159.230469 292.996094 159.203125 292.207031 C 159.003906 287.164062 159.003906 282.292969 159.125 277.601562 C 159.304688 270.695312 159.867188 263.820312 160.8125 256.972656 C 162.179688 246.429688 164.652344 236.148438 168.222656 226.136719 C 174.378906 222.207031 180.792969 218.535156 187.457031 215.121094 C 195 211.300781 202.90625 207.730469 211.109375 204.527344 Z M 211.109375 204.527344 " fill-opacity="1" fill-rule="nonzero"/><path fill="#f7c67e" d="M 434.417969 398.492188 C 324.304688 404.605469 232.21875 359.128906 226.8125 261.566406 C 222.339844 181.230469 279.082031 110.050781 360.753906 84 C 368.617188 81.5 376.59375 79.453125 384.691406 77.855469 C 388.992188 76.953125 393.378906 76.21875 397.847656 75.652344 C 403.917969 74.792969 410.070312 74.175781 416.335938 73.847656 C 419.421875 73.679688 422.492188 73.558594 425.519531 73.515625 C 432.003906 73.433594 438.425781 73.601562 444.789062 74.011719 C 454.121094 74.683594 463.375 75.929688 472.550781 77.746094 C 556.675781 94.550781 621.078125 159.0625 625.605469 239.429688 C 631.011719 336.980469 544.539062 392.378906 434.417969 398.492188 Z M 434.417969 398.492188 " fill-opacity="1" fill-rule="nonzero"/><path fill="#f29f6e" d="M 554.441406 365.933594 C 554.238281 365.578125 553.980469 365.277344 553.660156 365.023438 C 553.339844 364.773438 552.984375 364.59375 552.589844 364.480469 C 552.199219 364.371094 551.800781 364.339844 551.394531 364.386719 C 550.992188 364.433594 550.613281 364.558594 550.253906 364.753906 C 518.863281 382.378906 478.75 392.949219 434.242188 395.429688 C 315.011719 402.039062 234.761719 349.445312 229.875 261.402344 C 229.300781 251.066406 229.757812 240.773438 231.238281 230.53125 C 232.722656 220.285156 235.203125 210.289062 238.683594 200.539062 C 238.828125 200.152344 238.890625 199.753906 238.875 199.34375 C 238.855469 198.929688 238.761719 198.539062 238.585938 198.164062 C 238.414062 197.792969 238.171875 197.464844 237.867188 197.1875 C 237.5625 196.910156 237.214844 196.703125 236.828125 196.566406 C 236.441406 196.429688 236.039062 196.375 235.628906 196.398438 C 235.21875 196.421875 234.828125 196.523438 234.457031 196.703125 C 234.085938 196.882812 233.765625 197.128906 233.492188 197.4375 C 233.222656 197.75 233.019531 198.097656 232.890625 198.492188 C 229.277344 208.621094 226.699219 219.011719 225.164062 229.660156 C 223.625 240.308594 223.160156 251 223.761719 261.742188 C 228.574219 348.378906 302.589844 402.136719 414.34375 402.136719 C 420.949219 402.136719 427.707031 401.945312 434.617188 401.5625 C 480.046875 399.042969 521.097656 388.171875 553.292969 370.128906 C 553.648438 369.929688 553.953125 369.667969 554.203125 369.34375 C 554.453125 369.019531 554.628906 368.664062 554.738281 368.269531 C 554.84375 367.875 554.871094 367.476562 554.820312 367.074219 C 554.769531 366.667969 554.644531 366.289062 554.441406 365.933594 Z M 554.441406 365.933594 " fill-opacity="1" fill-rule="nonzero"/><path fill="#f7c67e" d="M 494.539062 107.195312 C 494.539062 107.195312 570.40625 29.648438 597.539062 48.636719 C 624.667969 67.625 601.371094 176.097656 601.371094 176.097656 Z M 494.539062 107.195312 " fill-opacity="1" fill-rule="nonzero"/><path fill="#f7c67e" d="M 335.769531 116.019531 C 335.769531 116.019531 251.773438 47.347656 226.921875 69.21875 C 202.070312 91.09375 237.21875 196.332031 237.21875 196.332031 Z M 335.769531 116.019531 " fill-opacity="1" fill-rule="nonzero"/><path fill="#fff3e7" d="M 526.910156 98.296875 C 526.910156 98.296875 572.277344 51.71875 590.601562 64.5625 C 608.921875 77.402344 593.199219 150.824219 593.199219 150.824219 C 574.933594 126.714844 553.292969 108.417969 526.910156 98.296875 Z M 526.910156 98.296875 " fill-opacity="1" fill-rule="nonzero"/><path fill="#fff3e7" d="M 304.925781 112.195312 C 304.925781 112.195312 255.707031 73.8125 238.859375 88.617188 C 222.011719 103.417969 245.828125 174.625 245.828125 174.625 C 261.367188 148.070312 279.996094 125.886719 304.925781 112.195312 Z M 304.925781 112.195312 " fill-opacity="1" fill-rule="nonzero"/><path fill="#62442f" d="M 394.679688 244.097656 C 394.679688 244.996094 394.589844 245.882812 394.414062 246.761719 C 394.242188 247.640625 393.980469 248.492188 393.640625 249.320312 C 393.296875 250.148438 392.875 250.933594 392.378906 251.679688 C 391.882812 252.425781 391.316406 253.113281 390.683594 253.746094 C 390.046875 254.382812 389.359375 254.949219 388.613281 255.445312 C 387.871094 255.941406 387.082031 256.363281 386.257812 256.707031 C 385.429688 257.050781 384.574219 257.308594 383.695312 257.484375 C 382.816406 257.65625 381.929688 257.746094 381.035156 257.746094 C 380.140625 257.746094 379.253906 257.65625 378.375 257.484375 C 377.496094 257.308594 376.640625 257.050781 375.8125 256.707031 C 374.988281 256.363281 374.199219 255.941406 373.457031 255.445312 C 372.710938 254.949219 372.023438 254.382812 371.386719 253.746094 C 370.753906 253.113281 370.1875 252.425781 369.691406 251.679688 C 369.195312 250.933594 368.773438 250.148438 368.429688 249.320312 C 368.089844 248.492188 367.828125 247.640625 367.65625 246.761719 C 367.480469 245.882812 367.390625 244.996094 367.390625 244.097656 C 367.390625 243.203125 367.480469 242.316406 367.65625 241.4375 C 367.828125 240.558594 368.089844 239.703125 368.429688 238.875 C 368.773438 238.046875 369.195312 237.261719 369.691406 236.515625 C 370.1875 235.773438 370.753906 235.082031 371.386719 234.449219 C 372.023438 233.816406 372.710938 233.25 373.457031 232.753906 C 374.199219 232.253906 374.988281 231.835938 375.8125 231.492188 C 376.640625 231.148438 377.496094 230.890625 378.375 230.714844 C 379.253906 230.539062 380.140625 230.453125 381.035156 230.453125 C 381.929688 230.453125 382.816406 230.539062 383.695312 230.714844 C 384.574219 230.890625 385.429688 231.148438 386.257812 231.492188 C 387.082031 231.835938 387.871094 232.253906 388.613281 232.753906 C 389.359375 233.25 390.046875 233.816406 390.683594 234.449219 C 391.316406 235.082031 391.882812 235.773438 392.378906 236.515625 C 392.875 237.261719 393.296875 238.046875 393.640625 238.875 C 393.980469 239.703125 394.242188 240.558594 394.414062 241.4375 C 394.589844 242.316406 394.679688 243.203125 394.679688 244.097656 Z M 394.679688 244.097656 " fill-opacity="1" fill-rule="nonzero"/><path fill="#62442f" d="M 509.492188 237.722656 C 509.492188 238.617188 509.40625 239.503906 509.230469 240.382812 C 509.054688 241.261719 508.796875 242.117188 508.453125 242.945312 C 508.109375 243.773438 507.691406 244.558594 507.191406 245.304688 C 506.695312 246.046875 506.128906 246.738281 505.496094 247.371094 C 504.863281 248.003906 504.171875 248.570312 503.429688 249.066406 C 502.683594 249.566406 501.898438 249.984375 501.070312 250.328125 C 500.242188 250.671875 499.390625 250.929688 498.511719 251.105469 C 497.632812 251.28125 496.746094 251.367188 495.847656 251.367188 C 494.953125 251.367188 494.066406 251.28125 493.1875 251.105469 C 492.308594 250.929688 491.457031 250.671875 490.628906 250.328125 C 489.800781 249.984375 489.015625 249.566406 488.269531 249.066406 C 487.523438 248.570312 486.835938 248.003906 486.203125 247.371094 C 485.570312 246.738281 485.003906 246.046875 484.503906 245.304688 C 484.007812 244.558594 483.585938 243.773438 483.246094 242.945312 C 482.902344 242.117188 482.644531 241.261719 482.46875 240.382812 C 482.292969 239.503906 482.207031 238.617188 482.207031 237.722656 C 482.207031 236.824219 482.292969 235.9375 482.46875 235.058594 C 482.644531 234.179688 482.902344 233.328125 483.246094 232.5 C 483.585938 231.671875 484.007812 230.886719 484.503906 230.140625 C 485.003906 229.394531 485.570312 228.707031 486.203125 228.074219 C 486.835938 227.4375 487.523438 226.875 488.269531 226.375 C 489.015625 225.878906 489.800781 225.457031 490.628906 225.113281 C 491.457031 224.769531 492.308594 224.511719 493.1875 224.335938 C 494.066406 224.164062 494.953125 224.074219 495.847656 224.074219 C 496.746094 224.074219 497.632812 224.164062 498.511719 224.335938 C 499.390625 224.511719 500.242188 224.769531 501.070312 225.113281 C 501.898438 225.457031 502.683594 225.878906 503.429688 226.375 C 504.171875 226.875 504.863281 227.4375 505.496094 228.074219 C 506.128906 228.707031 506.695312 229.394531 507.191406 230.140625 C 507.691406 230.886719 508.109375 231.671875 508.453125 232.5 C 508.796875 233.328125 509.054688 234.179688 509.230469 235.058594 C 509.40625 235.9375 509.492188 236.824219 509.492188 237.722656 Z M 509.492188 237.722656 " fill-opacity="1" fill-rule="nonzero"/><path fill="#62442f" d="M 565.40625 262.613281 C 565.011719 262.605469 564.632812 262.535156 564.265625 262.390625 C 563.898438 262.25 563.566406 262.050781 563.269531 261.789062 C 562.972656 261.527344 562.734375 261.222656 562.546875 260.878906 C 562.359375 260.53125 562.238281 260.160156 562.183594 259.773438 C 562.128906 259.382812 562.140625 258.992188 562.226562 258.609375 C 562.308594 258.222656 562.457031 257.863281 562.667969 257.53125 C 562.878906 257.199219 563.144531 256.914062 563.457031 256.675781 C 563.769531 256.4375 564.117188 256.261719 564.492188 256.148438 L 604.132812 247.074219 C 604.355469 246.988281 604.582031 246.925781 604.816406 246.890625 C 605.050781 246.855469 605.285156 246.84375 605.523438 246.859375 C 605.757812 246.871094 605.992188 246.910156 606.21875 246.976562 C 606.445312 247.039062 606.664062 247.128906 606.875 247.238281 C 607.082031 247.351562 607.277344 247.484375 607.457031 247.636719 C 607.636719 247.789062 607.800781 247.960938 607.945312 248.148438 C 608.089844 248.335938 608.210938 248.539062 608.3125 248.753906 C 608.410156 248.96875 608.488281 249.191406 608.539062 249.421875 C 608.59375 249.652344 608.621094 249.886719 608.625 250.125 C 608.625 250.359375 608.601562 250.59375 608.554688 250.828125 C 608.507812 251.058594 608.433594 251.28125 608.339844 251.5 C 608.242188 251.714844 608.125 251.917969 607.984375 252.109375 C 607.84375 252.300781 607.683594 252.476562 607.507812 252.632812 C 607.328125 252.789062 607.136719 252.925781 606.929688 253.039062 C 606.722656 253.15625 606.507812 253.25 606.28125 253.316406 C 606.054688 253.386719 605.824219 253.429688 605.585938 253.449219 L 565.945312 262.535156 C 565.769531 262.570312 565.589844 262.597656 565.40625 262.613281 Z M 565.40625 262.613281 " fill-opacity="1" fill-rule="nonzero"/><path fill="#62442f" d="M 607.710938 281.070312 L 607.425781 281.070312 L 566.683594 279.785156 C 566.449219 279.8125 566.210938 279.816406 565.976562 279.792969 C 565.738281 279.769531 565.507812 279.722656 565.28125 279.648438 C 565.054688 279.578125 564.839844 279.480469 564.632812 279.359375 C 564.425781 279.242188 564.238281 279.101562 564.0625 278.941406 C 563.886719 278.78125 563.730469 278.601562 563.59375 278.410156 C 563.453125 278.214844 563.339844 278.007812 563.246094 277.789062 C 563.15625 277.570312 563.085938 277.34375 563.042969 277.109375 C 563 276.875 562.980469 276.640625 562.988281 276.402344 C 562.996094 276.164062 563.027344 275.929688 563.085938 275.699219 C 563.144531 275.46875 563.226562 275.246094 563.332031 275.035156 C 563.4375 274.820312 563.5625 274.621094 563.710938 274.4375 C 563.863281 274.25 564.027344 274.082031 564.214844 273.933594 C 564.398438 273.785156 564.597656 273.65625 564.808594 273.550781 C 565.023438 273.441406 565.242188 273.359375 565.472656 273.300781 C 565.703125 273.242188 565.9375 273.210938 566.175781 273.199219 C 566.414062 273.191406 566.648438 273.210938 566.882812 273.253906 L 607.625 274.53125 C 608.019531 274.582031 608.390625 274.699219 608.742188 274.882812 C 609.097656 275.070312 609.40625 275.3125 609.667969 275.609375 C 609.933594 275.90625 610.140625 276.238281 610.28125 276.609375 C 610.425781 276.980469 610.5 277.363281 610.507812 277.761719 C 610.511719 278.160156 610.449219 278.546875 610.3125 278.921875 C 610.179688 279.296875 609.984375 279.636719 609.726562 279.941406 C 609.472656 280.242188 609.167969 280.492188 608.820312 280.6875 C 608.476562 280.882812 608.105469 281.011719 607.710938 281.070312 Z M 607.710938 281.070312 " fill-opacity="1" fill-rule="nonzero"/><path fill="#62442f" d="M 314.96875 276.554688 C 314.78125 276.574219 314.59375 276.574219 314.40625 276.554688 L 273.953125 271.929688 C 273.5625 271.832031 273.203125 271.671875 272.875 271.441406 C 272.542969 271.214844 272.265625 270.9375 272.035156 270.605469 C 271.808594 270.277344 271.644531 269.917969 271.546875 269.527344 C 271.449219 269.140625 271.425781 268.746094 271.472656 268.347656 C 271.515625 267.949219 271.632812 267.570312 271.8125 267.214844 C 271.996094 266.859375 272.238281 266.546875 272.535156 266.277344 C 272.832031 266.007812 273.167969 265.800781 273.539062 265.652344 C 273.914062 265.503906 274.300781 265.429688 274.699219 265.421875 L 315.15625 270.058594 C 315.539062 270.132812 315.902344 270.269531 316.238281 270.472656 C 316.574219 270.675781 316.863281 270.929688 317.109375 271.234375 C 317.355469 271.542969 317.539062 271.878906 317.664062 272.253906 C 317.789062 272.625 317.84375 273.007812 317.835938 273.398438 C 317.824219 273.789062 317.746094 274.167969 317.597656 274.53125 C 317.453125 274.898438 317.25 275.222656 316.984375 275.515625 C 316.722656 275.808594 316.417969 276.042969 316.070312 276.226562 C 315.722656 276.410156 315.355469 276.527344 314.96875 276.578125 Z M 314.96875 276.554688 " fill-opacity="1" fill-rule="nonzero"/><path fill="#62442f" d="M 274.953125 299.554688 C 274.554688 299.535156 274.175781 299.449219 273.808594 299.292969 C 273.445312 299.136719 273.117188 298.921875 272.828125 298.648438 C 272.542969 298.375 272.308594 298.0625 272.136719 297.703125 C 271.960938 297.347656 271.855469 296.972656 271.816406 296.574219 C 271.777344 296.179688 271.808594 295.789062 271.910156 295.40625 C 272.011719 295.023438 272.179688 294.667969 272.40625 294.34375 C 272.636719 294.019531 272.914062 293.746094 273.242188 293.523438 C 273.570312 293.296875 273.929688 293.140625 274.316406 293.042969 L 314.625 287.261719 C 314.855469 287.195312 315.085938 287.15625 315.320312 287.136719 C 315.558594 287.121094 315.792969 287.128906 316.027344 287.164062 C 316.261719 287.199219 316.488281 287.257812 316.710938 287.339844 C 316.933594 287.421875 317.140625 287.527344 317.339844 287.65625 C 317.539062 287.785156 317.722656 287.933594 317.890625 288.101562 C 318.058594 288.269531 318.203125 288.453125 318.332031 288.652344 C 318.460938 288.851562 318.566406 289.0625 318.648438 289.28125 C 318.730469 289.503906 318.789062 289.734375 318.820312 289.964844 C 318.855469 290.199219 318.863281 290.4375 318.847656 290.671875 C 318.828125 290.910156 318.789062 291.140625 318.71875 291.367188 C 318.652344 291.59375 318.5625 291.8125 318.449219 292.019531 C 318.335938 292.226562 318.203125 292.421875 318.046875 292.597656 C 317.890625 292.777344 317.71875 292.9375 317.53125 293.078125 C 317.339844 293.222656 317.136719 293.339844 316.921875 293.441406 C 316.707031 293.539062 316.484375 293.613281 316.253906 293.664062 C 316.023438 293.714844 315.789062 293.738281 315.550781 293.738281 L 275.238281 299.519531 C 275.144531 299.539062 275.050781 299.546875 274.953125 299.554688 Z M 274.953125 299.554688 " fill-opacity="1" fill-rule="nonzero"/><path fill="#dc7a5d" d="M 361.25 270.035156 C 360.652344 269.480469 359.992188 269.015625 359.265625 268.636719 C 358.542969 268.261719 357.78125 267.988281 356.984375 267.820312 C 356.183594 267.652344 355.378906 267.59375 354.5625 267.644531 C 353.75 267.695312 352.957031 267.851562 352.1875 268.121094 C 351.203125 268.480469 350.304688 268.992188 349.492188 269.652344 C 348.679688 270.316406 348 271.09375 347.449219 271.984375 C 346.117188 270.292969 344.402344 269.191406 342.308594 268.683594 C 341.511719 268.5 340.707031 268.425781 339.886719 268.464844 C 339.070312 268.5 338.273438 268.648438 337.5 268.90625 C 336.722656 269.160156 335.996094 269.515625 335.316406 269.972656 C 334.636719 270.429688 334.03125 270.96875 333.5 271.589844 C 332.648438 272.621094 332.039062 273.78125 331.675781 275.070312 C 331.308594 276.359375 331.214844 277.664062 331.398438 278.992188 C 332.03125 282.683594 333.5 286.011719 335.800781 288.96875 C 337.6875 291.730469 340.023438 294.039062 342.804688 295.898438 C 343.515625 296.3125 344.25 296.679688 345.007812 297 C 345.597656 297.300781 346.21875 297.523438 346.867188 297.660156 C 347.515625 297.800781 348.171875 297.851562 348.835938 297.8125 C 349.496094 297.777344 350.144531 297.652344 350.773438 297.445312 C 351.40625 297.234375 351.996094 296.945312 352.550781 296.578125 C 353.257812 296.1875 353.9375 295.746094 354.585938 295.257812 C 357.152344 293.089844 359.21875 290.519531 360.785156 287.546875 C 362.753906 284.355469 363.855469 280.882812 364.089844 277.140625 C 364.125 275.8125 363.898438 274.527344 363.40625 273.292969 C 362.910156 272.058594 362.191406 270.972656 361.25 270.035156 Z M 361.25 270.035156 " fill-opacity="1" fill-rule="nonzero"/><path fill="#dc7a5d" d="M 548.855469 259.617188 C 548.261719 259.058594 547.601562 258.59375 546.875 258.214844 C 546.152344 257.839844 545.390625 257.566406 544.59375 257.398438 C 543.792969 257.226562 542.988281 257.167969 542.171875 257.222656 C 541.359375 257.273438 540.566406 257.433594 539.796875 257.699219 C 538.8125 258.058594 537.914062 258.570312 537.101562 259.234375 C 536.289062 259.898438 535.609375 260.675781 535.058594 261.566406 C 534.414062 260.742188 533.648438 260.046875 532.769531 259.480469 C 531.886719 258.914062 530.9375 258.507812 529.917969 258.261719 C 529.121094 258.078125 528.3125 258.007812 527.496094 258.042969 C 526.679688 258.082031 525.882812 258.230469 525.109375 258.484375 C 524.332031 258.742188 523.601562 259.097656 522.925781 259.554688 C 522.246094 260.011719 521.640625 260.546875 521.109375 261.171875 C 520.261719 262.203125 519.65625 263.363281 519.296875 264.648438 C 518.933594 265.933594 518.84375 267.238281 519.027344 268.558594 C 519.6875 272.238281 521.171875 275.542969 523.488281 278.472656 C 525.367188 281.242188 527.703125 283.550781 530.492188 285.402344 C 531.199219 285.820312 531.933594 286.1875 532.691406 286.503906 C 533.28125 286.804688 533.902344 287.027344 534.550781 287.164062 C 535.203125 287.304688 535.859375 287.355469 536.519531 287.316406 C 537.183594 287.28125 537.832031 287.15625 538.460938 286.949219 C 539.089844 286.738281 539.683594 286.449219 540.234375 286.082031 C 540.941406 285.6875 541.621094 285.246094 542.273438 284.761719 C 544.839844 282.59375 546.90625 280.023438 548.472656 277.050781 C 550.4375 273.863281 551.539062 270.394531 551.773438 266.65625 C 551.792969 265.332031 551.550781 264.058594 551.042969 262.835938 C 550.535156 261.613281 549.808594 260.539062 548.855469 259.617188 Z M 548.855469 259.617188 " fill-opacity="1" fill-rule="nonzero"/><path fill="#fff3e7" d="M 399.28125 266.875 C 405.105469 261.457031 424.605469 249.914062 439.085938 248.601562 C 453.566406 247.292969 474.386719 255.058594 481.007812 259.519531 C 497.621094 270.730469 499.878906 284.367188 492.546875 292.957031 C 483.132812 303.96875 451.429688 308.519531 442.5 276.007812 C 436.761719 315.183594 403.246094 306.339844 397.761719 301.335938 C 391.035156 295.125 384.164062 280.949219 399.28125 266.875 Z M 399.28125 266.875 " fill-opacity="1" fill-rule="nonzero"/><path fill="#dc7a5d" d="M 457.707031 252.699219 C 457.980469 257.589844 450.59375 264.453125 441.035156 264.980469 C 431.476562 265.507812 423.417969 259.472656 423.097656 254.617188 C 422.777344 249.761719 430.355469 245.320312 439.914062 244.792969 C 449.46875 244.265625 457.429688 247.753906 457.707031 252.699219 Z M 457.707031 252.699219 " fill-opacity="1" fill-rule="nonzero"/><path fill="#f29f6e" d="M 443.359375 149.742188 C 443.375 150.550781 443.308594 151.347656 443.167969 152.140625 C 443.027344 152.9375 442.808594 153.707031 442.511719 154.457031 C 442.21875 155.210938 441.855469 155.921875 441.417969 156.601562 C 440.984375 157.28125 440.484375 157.910156 439.925781 158.492188 C 439.367188 159.070312 438.757812 159.589844 438.09375 160.050781 C 437.433594 160.511719 436.730469 160.902344 435.992188 161.226562 C 435.253906 161.546875 434.492188 161.792969 433.703125 161.964844 C 432.914062 162.136719 432.117188 162.230469 431.3125 162.242188 L 431.058594 162.242188 C 430.261719 162.246094 429.472656 162.167969 428.6875 162.015625 C 427.90625 161.863281 427.144531 161.636719 426.40625 161.335938 C 425.667969 161.035156 424.964844 160.667969 424.300781 160.230469 C 423.632812 159.792969 423.015625 159.292969 422.445312 158.738281 C 421.875 158.179688 421.363281 157.570312 420.914062 156.914062 C 420.460938 156.253906 420.078125 155.558594 419.761719 154.828125 C 419.445312 154.097656 419.203125 153.339844 419.035156 152.558594 C 418.867188 151.78125 418.773438 150.992188 418.757812 150.195312 C 418.066406 109.265625 406.21875 86.632812 397.894531 75.640625 C 403.960938 74.78125 410.117188 74.164062 416.382812 73.835938 C 419.464844 73.671875 422.535156 73.550781 425.566406 73.503906 C 434.835938 90.640625 442.742188 115.699219 443.359375 149.742188 Z M 443.359375 149.742188 " fill-opacity="1" fill-rule="nonzero"/><path fill="#f29f6e" d="M 481.492188 133.300781 C 481.503906 134.109375 481.441406 134.914062 481.296875 135.710938 C 481.152344 136.507812 480.933594 137.28125 480.636719 138.035156 C 480.339844 138.789062 479.972656 139.507812 479.535156 140.1875 C 479.097656 140.867188 478.597656 141.5 478.035156 142.082031 C 477.472656 142.664062 476.859375 143.1875 476.191406 143.648438 C 475.527344 144.109375 474.824219 144.503906 474.082031 144.824219 C 473.335938 145.148438 472.570312 145.394531 471.78125 145.566406 C 470.988281 145.738281 470.1875 145.832031 469.378906 145.84375 L 469.179688 145.84375 C 468.378906 145.84375 467.589844 145.765625 466.804688 145.609375 C 466.019531 145.453125 465.257812 145.222656 464.519531 144.921875 C 463.78125 144.617188 463.078125 144.242188 462.410156 143.804688 C 461.742188 143.363281 461.125 142.863281 460.554688 142.300781 C 459.984375 141.738281 459.476562 141.128906 459.023438 140.46875 C 458.574219 139.808594 458.191406 139.109375 457.875 138.375 C 457.5625 137.640625 457.320312 136.882812 457.152344 136.101562 C 456.984375 135.320312 456.894531 134.527344 456.878906 133.730469 C 456.386719 106.195312 450.933594 86.929688 444.824219 73.980469 C 454.152344 74.652344 463.40625 75.894531 472.582031 77.710938 C 477.59375 92.613281 481.082031 111.027344 481.492188 133.300781 Z M 481.492188 133.300781 " fill-opacity="1" fill-rule="nonzero"/><path fill="#f29f6e" d="M 397.078125 142.5625 C 397.09375 143.371094 397.027344 144.175781 396.886719 144.972656 C 396.742188 145.769531 396.519531 146.546875 396.226562 147.300781 C 395.929688 148.054688 395.5625 148.769531 395.125 149.453125 C 394.683594 150.132812 394.183594 150.765625 393.621094 151.347656 C 393.058594 151.933594 392.445312 152.453125 391.78125 152.917969 C 391.117188 153.378906 390.410156 153.773438 389.667969 154.09375 C 388.925781 154.417969 388.160156 154.664062 387.367188 154.839844 C 386.578125 155.011719 385.777344 155.101562 384.964844 155.117188 L 384.769531 155.117188 C 383.96875 155.117188 383.175781 155.042969 382.390625 154.886719 C 381.605469 154.734375 380.84375 154.503906 380.101562 154.203125 C 379.363281 153.898438 378.65625 153.527344 377.988281 153.085938 C 377.324219 152.648438 376.703125 152.144531 376.132812 151.585938 C 375.5625 151.023438 375.054688 150.410156 374.601562 149.75 C 374.152344 149.089844 373.769531 148.390625 373.457031 147.65625 C 373.140625 146.917969 372.902344 146.160156 372.734375 145.375 C 372.570312 144.59375 372.480469 143.800781 372.46875 143.003906 C 372.015625 116.019531 366.6875 97.042969 360.742188 84.035156 C 368.609375 81.523438 376.589844 79.460938 384.691406 77.855469 C 391.460938 94.101562 396.582031 115.457031 397.078125 142.5625 Z M 397.078125 142.5625 " fill-opacity="1" fill-rule="nonzero"/><path fill="#f29f6e" d="M 278.621094 467.261719 C 265.824219 493.34375 259.164062 523.269531 258.632812 557.046875 C 314.792969 560.351562 346.613281 534.125 330.460938 500.578125 C 321.925781 483.035156 304.441406 475.699219 278.621094 467.261719 Z M 278.621094 467.261719 " fill-opacity="1" fill-rule="nonzero"/><path fill="#f29f6e" d="M 228.113281 450.34375 C 213.488281 477.878906 205.109375 509.820312 203.136719 545.78125 C 204.824219 546.351562 206.441406 546.878906 208.082031 547.355469 C 215.792969 549.832031 223.617188 551.863281 231.558594 553.445312 C 232.757812 517.496094 240.808594 486.148438 255.5625 459.925781 C 252.359375 458.878906 249.042969 457.777344 245.652344 456.621094 C 240.089844 454.75 234.191406 452.691406 228.113281 450.34375 Z M 228.113281 450.34375 " fill-opacity="1" fill-rule="nonzero"/><path fill="#f29f6e" d="M 178.945312 427.820312 C 163.035156 453.847656 152.828125 484.476562 148.367188 519.421875 C 156.964844 525.546875 166.070312 530.785156 175.6875 535.140625 C 178.703125 498.289062 188.480469 466.644531 204.722656 440.816406 C 195.375 436.632812 186.796875 432.226562 178.945312 427.820312 Z M 178.945312 427.820312 " fill-opacity="1" fill-rule="nonzero"/></svg>