<svg xmlns="http://www.w3.org/2000/svg" xmlns:xlink="http://www.w3.org/1999/xlink" width="940" zoomAndPan="magnify" viewBox="0 0 705 591.000005" height="788" preserveAspectRatio="xMidYMid meet" version="1.0"><defs><clipPath id="a2eeab85e7"><path d="M 165 44.015625 L 363 44.015625 L 363 200 L 165 200 Z M 165 44.015625 " clip-rule="nonzero"/></clipPath><clipPath id="16af0987e7"><path d="M 165 44.015625 L 220 44.015625 L 220 111 L 165 111 Z M 165 44.015625 " clip-rule="nonzero"/></clipPath></defs><path fill="#bcaeab" d="M 361.707031 424.492188 C 361.707031 424.492188 347.371094 447.558594 360.792969 479.730469 C 374.21875 511.90625 374.75 528.417969 347.222656 537.011719 C 319.695312 545.601562 243.859375 528.890625 268.507812 438.945312 " fill-opacity="1" fill-rule="nonzero"/><path fill="#bcaeab" d="M 394.617188 424.492188 C 394.617188 424.492188 408.953125 447.558594 395.519531 479.730469 C 382.085938 511.90625 381.570312 528.417969 409.101562 537.03125 C 436.628906 545.640625 512.457031 528.914062 487.808594 438.964844 " fill-opacity="1" fill-rule="nonzero"/><path fill="#bcaeab" d="M 498.707031 280.921875 C 498.707031 360.464844 436.667969 401.585938 360.121094 401.585938 C 283.574219 401.585938 221.535156 360.464844 221.535156 280.921875 C 221.511719 270.050781 222.671875 259.3125 225.019531 248.699219 C 227.367188 238.085938 230.839844 227.855469 235.445312 218.011719 C 240.433594 207.328125 246.644531 197.410156 254.074219 188.253906 C 258.585938 182.710938 263.484375 177.535156 268.773438 172.730469 C 272.421875 169.359375 276.246094 166.203125 280.246094 163.257812 C 284.777344 159.929688 289.492188 156.890625 294.394531 154.140625 C 295.382812 153.605469 296.371094 153.050781 297.363281 152.515625 C 304.347656 148.820312 311.605469 145.78125 319.140625 143.398438 C 332.464844 139.09375 346.128906 136.945312 360.132812 136.953125 C 423.789062 136.953125 477.394531 181.5 493.648438 242.265625 C 497.035156 254.925781 498.71875 267.8125 498.707031 280.921875 Z M 498.707031 280.921875 " fill-opacity="1" fill-rule="nonzero"/><g clip-path="url(#a2eeab85e7)"><path fill="#bcaeab" d="M 353.824219 199.777344 C 357.097656 192.8125 359.457031 185.554688 360.902344 177.996094 C 362.148438 171.34375 362.625 164.632812 362.328125 157.871094 C 362.035156 151.105469 360.972656 144.464844 359.152344 137.945312 C 350.867188 107.722656 327.949219 81.65625 301.894531 65.816406 C 295.273438 61.785156 288.324219 58.425781 281.050781 55.738281 C 280.777344 55.613281 280.5 55.503906 280.21875 55.414062 C 273.367188 52.976562 266.769531 50.957031 260.417969 49.355469 C 259.152344 49.027344 257.933594 48.71875 256.71875 48.453125 C 250.917969 47.058594 245.058594 45.996094 239.136719 45.265625 C 235.109375 44.742188 231.238281 44.382812 227.484375 44.195312 C 224.617188 44.039062 221.84375 44.039062 219.113281 44.039062 C 177.773438 44.601562 155.847656 65.492188 169.449219 89.21875 C 176.625 101.625 189.832031 106.046875 209.203125 110.890625 L 211.242188 111.382812 C 215.953125 112.523438 221.050781 113.710938 226.476562 115.046875 C 228.882812 115.652344 231.367188 116.285156 233.890625 116.949219 C 238.097656 118.027344 242.523438 119.222656 247.105469 120.621094 C 251.6875 122.015625 256.421875 123.480469 261.339844 125.214844 C 262.5 125.621094 263.625 125.996094 264.746094 126.410156 C 271.8125 128.976562 278.328125 131.71875 284.324219 134.570312 C 305.84375 144.664062 320.902344 156.226562 331.40625 166.761719 C 335.757812 171.070312 339.738281 175.699219 343.34375 180.652344 C 351.460938 191.894531 353.824219 199.777344 353.824219 199.777344 Z M 353.824219 199.777344 " fill-opacity="1" fill-rule="nonzero"/></g><path fill="#bcaeab" d="M 544.269531 341.695312 C 543.644531 330.648438 541.707031 319.839844 538.457031 309.261719 C 535.210938 298.6875 530.746094 288.652344 525.066406 279.160156 C 529.292969 256.09375 539.25 191.234375 520.175781 177.886719 C 504.109375 166.644531 468.15625 194.804688 447.378906 213.378906 C 436.230469 208.738281 424.734375 205.234375 412.890625 202.863281 C 405.011719 201.3125 397.066406 200.246094 389.054688 199.667969 C 383.601562 199.3125 378.066406 199.171875 372.503906 199.242188 C 369.902344 199.242188 367.257812 199.378906 364.585938 199.519531 C 359.199219 199.804688 353.925781 200.332031 348.746094 201.074219 C 344.914062 201.566406 341.148438 202.203125 337.453125 202.972656 C 330.492188 204.347656 323.632812 206.105469 316.875 208.25 C 304.152344 212.300781 292.019531 217.679688 280.476562 224.386719 C 258.171875 208.28125 217.121094 182.175781 201.945312 195.558594 C 181.316406 213.675781 208.679688 298.453125 210.636719 304.394531 C 207.199219 313.371094 204.734375 322.609375 203.246094 332.105469 C 201.757812 341.601562 201.277344 351.152344 201.808594 360.75 C 206.460938 444.46875 285.53125 483.574219 380.097656 478.277344 C 474.660156 472.980469 548.921875 425.464844 544.269531 341.695312 Z M 544.269531 341.695312 " fill-opacity="1" fill-rule="nonzero"/><path fill="#f4d1cc" d="M 459.527344 220.523438 C 459.527344 220.523438 498.488281 180.53125 514.246094 191.570312 C 530.007812 202.605469 516.484375 265.628906 516.484375 265.628906 C 500.765625 244.925781 482.183594 229.207031 459.527344 220.523438 Z M 459.527344 220.523438 " fill-opacity="1" fill-rule="nonzero"/><path fill="#f4d1cc" d="M 268.894531 232.464844 C 268.894531 232.464844 226.625 199.5 212.171875 212.210938 C 197.71875 224.921875 218.160156 286.058594 218.160156 286.058594 C 231.4375 263.261719 247.480469 244.214844 268.894531 232.464844 Z M 268.894531 232.464844 " fill-opacity="1" fill-rule="nonzero"/><path fill="#62442f" d="M 345.964844 345.714844 C 345.964844 346.484375 345.890625 347.246094 345.742188 348 C 345.589844 348.753906 345.367188 349.488281 345.074219 350.199219 C 344.777344 350.910156 344.417969 351.585938 343.992188 352.226562 C 343.5625 352.863281 343.078125 353.457031 342.53125 354 C 341.988281 354.546875 341.398438 355.03125 340.757812 355.460938 C 340.117188 355.886719 339.441406 356.246094 338.730469 356.542969 C 338.019531 356.835938 337.285156 357.058594 336.53125 357.210938 C 335.777344 357.359375 335.015625 357.433594 334.246094 357.433594 C 333.476562 357.433594 332.714844 357.359375 331.960938 357.210938 C 331.203125 357.058594 330.472656 356.835938 329.761719 356.542969 C 329.050781 356.246094 328.375 355.886719 327.734375 355.460938 C 327.09375 355.03125 326.503906 354.546875 325.957031 354 C 325.414062 353.457031 324.929688 352.863281 324.5 352.226562 C 324.074219 351.585938 323.710938 350.910156 323.417969 350.199219 C 323.121094 349.488281 322.902344 348.753906 322.75 348 C 322.601562 347.246094 322.523438 346.484375 322.523438 345.714844 C 322.523438 344.945312 322.601562 344.183594 322.75 343.425781 C 322.902344 342.671875 323.121094 341.9375 323.417969 341.226562 C 323.710938 340.515625 324.074219 339.839844 324.5 339.203125 C 324.929688 338.5625 325.414062 337.96875 325.957031 337.425781 C 326.503906 336.882812 327.09375 336.394531 327.734375 335.96875 C 328.375 335.539062 329.050781 335.179688 329.761719 334.886719 C 330.472656 334.589844 331.203125 334.367188 331.960938 334.21875 C 332.714844 334.066406 333.476562 333.992188 334.246094 333.992188 C 335.015625 333.992188 335.777344 334.066406 336.53125 334.21875 C 337.285156 334.367188 338.019531 334.589844 338.730469 334.886719 C 339.441406 335.179688 340.117188 335.539062 340.757812 335.96875 C 341.398438 336.394531 341.988281 336.882812 342.53125 337.425781 C 343.078125 337.96875 343.5625 338.5625 343.992188 339.203125 C 344.417969 339.839844 344.777344 340.515625 345.074219 341.226562 C 345.367188 341.9375 345.589844 342.671875 345.742188 343.425781 C 345.890625 344.183594 345.964844 344.945312 345.964844 345.714844 Z M 345.964844 345.714844 " fill-opacity="1" fill-rule="nonzero"/><path fill="#62442f" d="M 444.570312 340.238281 C 444.570312 341.007812 444.492188 341.769531 444.34375 342.527344 C 444.191406 343.28125 443.972656 344.011719 443.675781 344.722656 C 443.382812 345.433594 443.019531 346.109375 442.59375 346.75 C 442.164062 347.390625 441.679688 347.984375 441.136719 348.527344 C 440.589844 349.070312 440 349.558594 439.359375 349.984375 C 438.71875 350.414062 438.042969 350.773438 437.332031 351.066406 C 436.621094 351.363281 435.890625 351.585938 435.136719 351.734375 C 434.378906 351.886719 433.617188 351.960938 432.847656 351.960938 C 432.078125 351.960938 431.316406 351.886719 430.5625 351.734375 C 429.808594 351.585938 429.074219 351.363281 428.363281 351.066406 C 427.652344 350.773438 426.976562 350.414062 426.335938 349.984375 C 425.695312 349.558594 425.105469 349.070312 424.5625 348.527344 C 424.015625 347.984375 423.53125 347.390625 423.101562 346.75 C 422.675781 346.109375 422.316406 345.433594 422.019531 344.722656 C 421.726562 344.011719 421.503906 343.28125 421.351562 342.527344 C 421.203125 341.769531 421.128906 341.007812 421.128906 340.238281 C 421.128906 339.46875 421.203125 338.707031 421.351562 337.953125 C 421.503906 337.199219 421.726562 336.464844 422.019531 335.753906 C 422.316406 335.042969 422.675781 334.367188 423.101562 333.726562 C 423.53125 333.085938 424.015625 332.496094 424.5625 331.949219 C 425.105469 331.40625 425.695312 330.921875 426.335938 330.492188 C 426.976562 330.066406 427.652344 329.703125 428.363281 329.410156 C 429.074219 329.117188 429.808594 328.894531 430.5625 328.742188 C 431.316406 328.59375 432.078125 328.519531 432.847656 328.519531 C 433.617188 328.519531 434.378906 328.59375 435.136719 328.742188 C 435.890625 328.894531 436.621094 329.117188 437.332031 329.410156 C 438.042969 329.703125 438.71875 330.066406 439.359375 330.492188 C 440 330.921875 440.589844 331.40625 441.136719 331.949219 C 441.679688 332.496094 442.164062 333.085938 442.59375 333.726562 C 443.019531 334.367188 443.382812 335.042969 443.675781 335.753906 C 443.972656 336.464844 444.191406 337.199219 444.34375 337.953125 C 444.492188 338.707031 444.570312 339.46875 444.570312 340.238281 Z M 444.570312 340.238281 " fill-opacity="1" fill-rule="nonzero"/><path fill="#62442f" d="M 405.300781 371.945312 C 394.847656 372.519531 390.203125 371.09375 388.472656 360.710938 C 388.445312 360.628906 388.417969 360.542969 388.382812 360.464844 C 388.335938 360.285156 388.269531 360.113281 388.183594 359.949219 C 388.109375 359.785156 388.015625 359.628906 387.90625 359.484375 C 387.804688 359.347656 387.6875 359.226562 387.5625 359.117188 C 387.425781 358.988281 387.277344 358.875 387.117188 358.78125 C 386.96875 358.695312 386.820312 358.621094 386.660156 358.5625 C 386.480469 358.503906 386.292969 358.457031 386.105469 358.425781 C 386.015625 358.425781 385.9375 358.363281 385.839844 358.355469 C 385.742188 358.367188 385.644531 358.382812 385.550781 358.40625 C 385.453125 358.394531 385.355469 358.394531 385.253906 358.40625 C 385.160156 358.425781 385.074219 358.460938 384.988281 358.503906 C 384.820312 358.542969 384.664062 358.601562 384.511719 358.683594 C 384.332031 358.761719 384.164062 358.867188 384.007812 358.988281 C 383.882812 359.082031 383.765625 359.191406 383.660156 359.304688 C 383.53125 359.449219 383.414062 359.605469 383.3125 359.769531 C 383.230469 359.910156 383.160156 360.058594 383.105469 360.214844 C 383.039062 360.398438 382.988281 360.585938 382.957031 360.78125 C 382.933594 360.863281 382.914062 360.949219 382.898438 361.039062 C 382.375 371.53125 377.949219 373.472656 367.457031 374.054688 C 367.089844 374.082031 366.742188 374.179688 366.410156 374.34375 C 366.082031 374.507812 365.796875 374.730469 365.550781 375.003906 C 365.308594 375.28125 365.128906 375.59375 365.007812 375.945312 C 364.886719 376.292969 364.839844 376.648438 364.859375 377.019531 C 364.878906 377.386719 364.96875 377.734375 365.128906 378.066406 C 365.285156 378.402344 365.5 378.691406 365.773438 378.9375 C 366.046875 379.1875 366.355469 379.375 366.703125 379.5 C 367.046875 379.625 367.40625 379.683594 367.773438 379.667969 C 376.574219 379.171875 383.027344 377.3125 386.246094 371.015625 C 390.144531 376.957031 396.765625 378.054688 405.566406 377.570312 C 405.945312 377.558594 406.304688 377.472656 406.652344 377.316406 C 406.996094 377.15625 407.292969 376.9375 407.550781 376.660156 C 407.804688 376.382812 407.996094 376.0625 408.125 375.707031 C 408.253906 375.351562 408.304688 374.984375 408.285156 374.605469 C 408.265625 374.226562 408.171875 373.871094 408.007812 373.527344 C 407.839844 373.1875 407.617188 372.894531 407.332031 372.644531 C 407.046875 372.394531 406.722656 372.210938 406.363281 372.089844 C 406.003906 371.972656 405.636719 371.925781 405.261719 371.957031 Z M 405.300781 371.945312 " fill-opacity="1" fill-rule="nonzero"/><path fill="#62442f" d="M 492.578125 361.632812 C 492.230469 361.648438 491.890625 361.597656 491.558594 361.484375 C 491.226562 361.375 490.925781 361.207031 490.65625 360.984375 C 490.390625 360.757812 490.171875 360.492188 490 360.1875 C 489.832031 359.882812 489.722656 359.558594 489.671875 359.210938 C 489.625 358.863281 489.640625 358.519531 489.722656 358.179688 C 489.800781 357.839844 489.9375 357.527344 490.136719 357.238281 C 490.332031 356.949219 490.578125 356.707031 490.863281 356.507812 C 491.152344 356.308594 491.464844 356.167969 491.804688 356.089844 L 525.886719 348.289062 C 526.25 348.203125 526.617188 348.195312 526.984375 348.257812 C 527.351562 348.320312 527.695312 348.449219 528.007812 348.648438 C 528.324219 348.847656 528.589844 349.101562 528.804688 349.402344 C 529.023438 349.707031 529.171875 350.042969 529.253906 350.40625 C 529.335938 350.769531 529.347656 351.136719 529.285156 351.503906 C 529.222656 351.871094 529.089844 352.210938 528.890625 352.527344 C 528.691406 352.84375 528.441406 353.109375 528.136719 353.324219 C 527.832031 353.539062 527.5 353.6875 527.136719 353.773438 L 493.074219 361.5625 C 492.910156 361.601562 492.746094 361.625 492.578125 361.632812 Z M 492.578125 361.632812 " fill-opacity="1" fill-rule="nonzero"/><path fill="#62442f" d="M 528.917969 377.449219 L 528.710938 377.449219 L 493.757812 376.34375 C 493.371094 376.347656 493 376.28125 492.644531 376.136719 C 492.289062 375.988281 491.972656 375.78125 491.703125 375.507812 C 491.433594 375.230469 491.226562 374.914062 491.085938 374.558594 C 490.945312 374.199219 490.882812 373.828125 490.894531 373.441406 C 490.90625 373.058594 490.996094 372.691406 491.15625 372.339844 C 491.320312 371.992188 491.546875 371.691406 491.832031 371.433594 C 492.121094 371.175781 492.445312 370.988281 492.8125 370.867188 C 493.175781 370.742188 493.550781 370.699219 493.933594 370.730469 L 528.886719 371.828125 C 529.246094 371.84375 529.589844 371.925781 529.914062 372.074219 C 530.242188 372.222656 530.53125 372.425781 530.78125 372.683594 C 531.027344 372.941406 531.222656 373.234375 531.359375 373.566406 C 531.496094 373.898438 531.566406 374.242188 531.570312 374.601562 C 531.574219 374.960938 531.511719 375.308594 531.382812 375.640625 C 531.257812 375.976562 531.070312 376.277344 530.828125 376.539062 C 530.585938 376.804688 530.300781 377.015625 529.976562 377.171875 C 529.65625 377.324219 529.316406 377.414062 528.957031 377.441406 Z M 528.917969 377.449219 " fill-opacity="1" fill-rule="nonzero"/><path fill="#62442f" d="M 277.515625 373.582031 C 277.355469 373.59375 277.199219 373.59375 277.039062 373.582031 L 242.292969 369.621094 C 241.933594 369.566406 241.59375 369.449219 241.28125 369.265625 C 240.964844 369.078125 240.695312 368.84375 240.472656 368.550781 C 240.25 368.261719 240.089844 367.941406 239.992188 367.589844 C 239.894531 367.238281 239.867188 366.878906 239.910156 366.515625 C 239.949219 366.152344 240.058594 365.8125 240.234375 365.492188 C 240.410156 365.171875 240.636719 364.894531 240.921875 364.664062 C 241.203125 364.433594 241.519531 364.261719 241.867188 364.152344 C 242.21875 364.046875 242.574219 364.007812 242.9375 364.039062 L 277.671875 367.996094 C 278.023438 368.035156 278.359375 368.136719 278.671875 368.300781 C 278.984375 368.460938 279.257812 368.675781 279.492188 368.945312 C 279.722656 369.210938 279.898438 369.507812 280.019531 369.84375 C 280.136719 370.175781 280.191406 370.519531 280.183594 370.871094 C 280.171875 371.226562 280.097656 371.566406 279.960938 371.890625 C 279.824219 372.214844 279.628906 372.503906 279.382812 372.757812 C 279.136719 373.011719 278.851562 373.210938 278.527344 373.355469 C 278.207031 373.5 277.867188 373.582031 277.515625 373.601562 Z M 277.515625 373.582031 " fill-opacity="1" fill-rule="nonzero"/><path fill="#62442f" d="M 243.15625 393.328125 C 242.792969 393.355469 242.433594 393.3125 242.085938 393.199219 C 241.738281 393.085938 241.425781 392.910156 241.144531 392.675781 C 240.867188 392.4375 240.640625 392.15625 240.472656 391.835938 C 240.300781 391.511719 240.199219 391.167969 240.160156 390.800781 C 240.125 390.4375 240.160156 390.082031 240.261719 389.730469 C 240.367188 389.378906 240.53125 389.0625 240.757812 388.773438 C 240.988281 388.488281 241.261719 388.253906 241.578125 388.074219 C 241.898438 387.894531 242.238281 387.78125 242.601562 387.738281 L 277.246094 382.785156 C 277.617188 382.734375 277.980469 382.753906 278.339844 382.84375 C 278.703125 382.9375 279.03125 383.09375 279.328125 383.316406 C 279.625 383.539062 279.871094 383.8125 280.0625 384.128906 C 280.25 384.449219 280.371094 384.792969 280.425781 385.164062 C 280.476562 385.53125 280.460938 385.894531 280.367188 386.253906 C 280.277344 386.617188 280.117188 386.945312 279.894531 387.242188 C 279.671875 387.542969 279.402344 387.785156 279.082031 387.976562 C 278.761719 388.164062 278.417969 388.289062 278.050781 388.339844 L 243.402344 393.289062 Z M 243.15625 393.328125 " fill-opacity="1" fill-rule="nonzero"/><path fill="#f4d1cc" d="M 400.09375 351.257812 C 400.332031 355.453125 393.984375 361.34375 385.777344 361.800781 C 377.574219 362.253906 370.613281 357.109375 370.375 352.890625 C 370.140625 348.671875 376.601562 344.910156 384.820312 344.457031 C 393.035156 344 399.867188 347.050781 400.09375 351.257812 Z M 400.09375 351.257812 " fill-opacity="1" fill-rule="nonzero"/><path fill="#f4d1cc" d="M 317.257812 367.988281 C 316.746094 367.507812 316.179688 367.105469 315.558594 366.78125 C 314.9375 366.457031 314.285156 366.222656 313.597656 366.078125 C 312.914062 365.933594 312.21875 365.882812 311.519531 365.929688 C 310.820312 365.972656 310.140625 366.113281 309.480469 366.34375 C 307.738281 366.976562 306.382812 368.078125 305.410156 369.648438 C 304.261719 368.199219 302.792969 367.25 300.996094 366.808594 C 300.3125 366.652344 299.621094 366.59375 298.921875 366.628906 C 298.222656 366.660156 297.542969 366.789062 296.875 367.007812 C 296.210938 367.226562 295.589844 367.53125 295.007812 367.921875 C 294.425781 368.3125 293.90625 368.773438 293.453125 369.304688 C 292.722656 370.191406 292.199219 371.1875 291.886719 372.292969 C 291.570312 373.398438 291.492188 374.519531 291.652344 375.660156 C 292.207031 378.832031 293.480469 381.6875 295.472656 384.222656 C 297.089844 386.59375 299.097656 388.574219 301.488281 390.160156 C 302.089844 390.511719 302.710938 390.820312 303.351562 391.09375 C 304.40625 391.523438 305.5 391.757812 306.636719 391.796875 C 307.761719 391.628906 308.824219 391.277344 309.824219 390.734375 C 310.4375 390.398438 311.019531 390.019531 311.578125 389.597656 C 313.78125 387.753906 315.554688 385.5625 316.902344 383.023438 C 318.59375 380.292969 319.542969 377.320312 319.753906 374.113281 C 319.78125 372.964844 319.582031 371.855469 319.148438 370.789062 C 318.714844 369.722656 318.082031 368.789062 317.257812 367.988281 Z M 317.257812 367.988281 " fill-opacity="1" fill-rule="nonzero"/><path fill="#f4d1cc" d="M 478.363281 359.039062 C 477.851562 358.558594 477.289062 358.15625 476.667969 357.832031 C 476.046875 357.511719 475.394531 357.277344 474.707031 357.132812 C 474.023438 356.984375 473.332031 356.9375 472.632812 356.980469 C 471.933594 357.027344 471.253906 357.164062 470.59375 357.394531 C 468.847656 358.023438 467.492188 359.128906 466.523438 360.710938 C 465.382812 359.253906 463.910156 358.300781 462.109375 357.859375 C 461.425781 357.707031 460.734375 357.644531 460.035156 357.679688 C 459.335938 357.714844 458.652344 357.839844 457.988281 358.058594 C 457.320312 358.28125 456.699219 358.585938 456.117188 358.972656 C 455.535156 359.363281 455.015625 359.824219 454.558594 360.355469 C 453.828125 361.242188 453.308594 362.238281 452.992188 363.34375 C 452.679688 364.449219 452.601562 365.570312 452.753906 366.710938 C 453.316406 369.886719 454.589844 372.738281 456.585938 375.273438 C 458.203125 377.644531 460.203125 379.625 462.59375 381.210938 C 463.199219 381.566406 463.820312 381.882812 464.464844 382.152344 C 464.972656 382.414062 465.503906 382.601562 466.0625 382.71875 C 466.621094 382.835938 467.183594 382.878906 467.753906 382.847656 C 468.320312 382.816406 468.875 382.707031 469.417969 382.527344 C 469.957031 382.347656 470.464844 382.101562 470.9375 381.785156 C 471.546875 381.445312 472.128906 381.070312 472.691406 380.660156 C 474.890625 378.808594 476.660156 376.613281 478.007812 374.074219 C 479.703125 371.34375 480.652344 368.375 480.859375 365.164062 C 480.890625 364.015625 480.6875 362.90625 480.253906 361.839844 C 479.820312 360.773438 479.191406 359.839844 478.363281 359.039062 Z M 478.363281 359.039062 " fill-opacity="1" fill-rule="nonzero"/><path fill="#918380" d="M 387.777344 264.695312 C 387.792969 265.390625 387.734375 266.078125 387.613281 266.757812 C 387.492188 267.441406 387.300781 268.101562 387.050781 268.746094 C 386.796875 269.390625 386.480469 270.003906 386.109375 270.589844 C 385.734375 271.171875 385.304688 271.710938 384.824219 272.210938 C 384.34375 272.710938 383.820312 273.15625 383.25 273.550781 C 382.683594 273.945312 382.082031 274.28125 381.445312 274.558594 C 380.8125 274.835938 380.15625 275.050781 379.476562 275.195312 C 378.800781 275.34375 378.117188 275.425781 377.425781 275.4375 L 377.257812 275.4375 C 376.570312 275.4375 375.890625 275.371094 375.21875 275.242188 C 374.546875 275.109375 373.894531 274.914062 373.261719 274.65625 C 372.625 274.398438 372.023438 274.082031 371.449219 273.703125 C 370.878906 273.328125 370.347656 272.898438 369.859375 272.421875 C 369.367188 271.941406 368.929688 271.417969 368.542969 270.855469 C 368.15625 270.289062 367.824219 269.691406 367.554688 269.0625 C 367.285156 268.433594 367.074219 267.785156 366.929688 267.113281 C 366.785156 266.445312 366.707031 265.769531 366.695312 265.082031 C 366.089844 229.941406 355.914062 210.507812 348.765625 201.074219 C 353.984375 200.332031 359.261719 199.804688 364.605469 199.519531 C 367.25 199.378906 369.890625 199.28125 372.523438 199.242188 C 380.453125 213.960938 387.246094 235.472656 387.777344 264.695312 Z M 387.777344 264.695312 " fill-opacity="1" fill-rule="nonzero"/><path fill="#918380" d="M 420.515625 250.578125 C 420.527344 251.273438 420.472656 251.964844 420.351562 252.648438 C 420.226562 253.332031 420.039062 253.996094 419.785156 254.644531 C 419.53125 255.289062 419.214844 255.90625 418.839844 256.492188 C 418.464844 257.074219 418.039062 257.617188 417.554688 258.117188 C 417.074219 258.617188 416.546875 259.066406 415.976562 259.460938 C 415.40625 259.859375 414.800781 260.195312 414.164062 260.472656 C 413.527344 260.75 412.871094 260.964844 412.191406 261.109375 C 411.511719 261.257812 410.824219 261.339844 410.128906 261.351562 L 409.921875 261.351562 C 409.238281 261.347656 408.558594 261.277344 407.886719 261.140625 C 407.214844 261.007812 406.5625 260.808594 405.929688 260.542969 C 405.292969 260.28125 404.691406 259.960938 404.121094 259.582031 C 403.550781 259.203125 403.019531 258.773438 402.535156 258.289062 C 402.046875 257.808594 401.609375 257.285156 401.222656 256.71875 C 400.839844 256.152344 400.511719 255.550781 400.242188 254.921875 C 399.972656 254.292969 399.765625 253.640625 399.621094 252.96875 C 399.480469 252.300781 399.402344 251.621094 399.390625 250.9375 C 398.972656 227.304688 394.292969 210.765625 389.046875 199.636719 C 397.0625 200.226562 405.007812 201.300781 412.890625 202.863281 C 417.179688 215.644531 420.167969 231.453125 420.515625 250.578125 Z M 420.515625 250.578125 " fill-opacity="1" fill-rule="nonzero"/><path fill="#918380" d="M 348.023438 258.5 C 348.039062 259.195312 347.984375 259.882812 347.859375 260.566406 C 347.738281 261.246094 347.550781 261.914062 347.296875 262.558594 C 347.042969 263.203125 346.730469 263.820312 346.355469 264.402344 C 345.980469 264.988281 345.554688 265.53125 345.074219 266.03125 C 344.589844 266.53125 344.066406 266.980469 343.496094 267.375 C 342.925781 267.773438 342.324219 268.109375 341.6875 268.386719 C 341.054688 268.664062 340.394531 268.878906 339.71875 269.027344 C 339.039062 269.175781 338.355469 269.257812 337.660156 269.269531 L 337.484375 269.269531 C 336.792969 269.269531 336.113281 269.207031 335.4375 269.074219 C 334.761719 268.941406 334.105469 268.746094 333.46875 268.484375 C 332.832031 268.226562 332.226562 267.90625 331.652344 267.527344 C 331.078125 267.148438 330.542969 266.71875 330.054688 266.234375 C 329.5625 265.753906 329.125 265.226562 328.734375 264.660156 C 328.347656 264.089844 328.019531 263.488281 327.75 262.855469 C 327.476562 262.222656 327.273438 261.570312 327.128906 260.898438 C 326.988281 260.226562 326.910156 259.542969 326.902344 258.855469 C 326.515625 235.691406 321.953125 219.386719 316.832031 208.21875 C 323.601562 206.074219 330.46875 204.316406 337.433594 202.945312 C 343.203125 216.910156 347.609375 235.253906 348.023438 258.5 Z M 348.023438 258.5 " fill-opacity="1" fill-rule="nonzero"/><path fill="#918380" d="M 396.636719 479.484375 C 396.3125 479.480469 395.996094 479.417969 395.691406 479.292969 C 395.390625 479.167969 395.121094 478.992188 394.882812 478.765625 C 394.644531 478.542969 394.460938 478.277344 394.320312 477.980469 C 394.183594 477.683594 394.109375 477.371094 394.089844 477.042969 C 394.070312 476.71875 394.113281 476.398438 394.214844 476.089844 C 394.320312 475.777344 394.476562 475.496094 394.6875 475.246094 C 394.894531 474.992188 395.144531 474.789062 395.433594 474.632812 C 395.71875 474.476562 396.027344 474.378906 396.351562 474.335938 C 432.164062 470.378906 463.941406 459.921875 488.242188 444.164062 C 488.527344 443.953125 488.84375 443.808594 489.191406 443.730469 C 489.539062 443.648438 489.886719 443.640625 490.234375 443.707031 C 490.585938 443.769531 490.90625 443.898438 491.203125 444.097656 C 491.5 444.292969 491.742188 444.542969 491.9375 444.839844 C 492.128906 445.136719 492.257812 445.460938 492.316406 445.8125 C 492.375 446.160156 492.363281 446.507812 492.28125 446.855469 C 492.199219 447.199219 492.050781 447.515625 491.835938 447.796875 C 491.621094 448.082031 491.363281 448.3125 491.054688 448.488281 C 466.078125 464.683594 433.53125 475.394531 396.925781 479.464844 Z M 396.636719 479.484375 " fill-opacity="1" fill-rule="nonzero"/><path fill="#918380" d="M 360.941406 481.304688 C 323.695312 480.980469 290.007812 473.386719 263.527344 459.398438 C 263.210938 459.246094 262.9375 459.039062 262.703125 458.773438 C 262.472656 458.511719 262.300781 458.210938 262.191406 457.878906 C 262.082031 457.542969 262.039062 457.203125 262.070312 456.851562 C 262.101562 456.5 262.195312 456.171875 262.359375 455.859375 C 262.527344 455.550781 262.746094 455.285156 263.015625 455.0625 C 263.289062 454.839844 263.597656 454.679688 263.933594 454.585938 C 264.273438 454.488281 264.617188 454.460938 264.964844 454.503906 C 265.3125 454.546875 265.640625 454.660156 265.941406 454.835938 C 291.679688 468.457031 324.554688 475.820312 360.972656 476.148438 C 361.300781 476.167969 361.613281 476.25 361.910156 476.386719 C 362.207031 476.527344 362.46875 476.71875 362.695312 476.957031 C 362.921875 477.195312 363.09375 477.46875 363.214844 477.777344 C 363.335938 478.082031 363.394531 478.398438 363.394531 478.726562 C 363.394531 479.054688 363.335938 479.375 363.214844 479.679688 C 363.09375 479.984375 362.921875 480.257812 362.695312 480.496094 C 362.46875 480.738281 362.207031 480.925781 361.910156 481.066406 C 361.613281 481.207031 361.300781 481.285156 360.972656 481.304688 Z M 360.941406 481.304688 " fill-opacity="1" fill-rule="nonzero"/><path fill="#918380" d="M 280.433594 226.96875 C 279.875 226.96875 279.371094 226.804688 278.921875 226.476562 C 267.976562 218.476562 256.539062 211.253906 244.609375 204.816406 C 244.292969 204.664062 244.015625 204.457031 243.78125 204.195312 C 243.550781 203.933594 243.375 203.632812 243.265625 203.300781 C 243.152344 202.964844 243.109375 202.625 243.136719 202.273438 C 243.164062 201.921875 243.261719 201.589844 243.425781 201.277344 C 243.589844 200.96875 243.804688 200.699219 244.078125 200.476562 C 244.351562 200.253906 244.65625 200.09375 244.996094 199.996094 C 245.332031 199.898438 245.675781 199.871094 246.027344 199.914062 C 246.375 199.957031 246.703125 200.066406 247.007812 200.242188 C 258.65625 206.527344 269.84375 213.554688 280.5625 221.316406 C 291.839844 214.90625 303.660156 209.730469 316.023438 205.796875 C 322.882812 203.617188 329.84375 201.832031 336.910156 200.4375 C 340.621094 199.667969 344.492188 199.015625 348.371094 198.460938 C 353.746094 197.695312 359.171875 197.171875 364.445312 196.894531 C 367.121094 196.757812 369.792969 196.648438 372.425781 196.609375 C 378.058594 196.550781 383.679688 196.6875 389.183594 197.035156 C 397.304688 197.625 405.359375 198.710938 413.347656 200.289062 C 424.835938 202.585938 436.011719 205.9375 446.867188 210.347656 C 454.089844 203.945312 461.101562 198.203125 467.730469 193.261719 C 468.007812 193.070312 468.308594 192.933594 468.636719 192.859375 C 468.964844 192.785156 469.296875 192.773438 469.628906 192.828125 C 469.960938 192.882812 470.269531 192.996094 470.558594 193.171875 C 470.84375 193.34375 471.089844 193.566406 471.289062 193.839844 C 471.488281 194.109375 471.632812 194.40625 471.714844 194.730469 C 471.800781 195.058594 471.820312 195.386719 471.777344 195.722656 C 471.730469 196.054688 471.625 196.367188 471.457031 196.660156 C 471.292969 196.953125 471.074219 197.203125 470.8125 197.410156 C 463.941406 202.527344 456.636719 208.539062 449.09375 215.230469 C 448.722656 215.5625 448.292969 215.769531 447.804688 215.851562 C 447.3125 215.9375 446.839844 215.882812 446.378906 215.695312 C 435.382812 211.144531 424.042969 207.714844 412.367188 205.398438 C 404.597656 203.863281 396.757812 202.8125 388.859375 202.242188 C 383.511719 201.894531 378.019531 201.757812 372.523438 201.824219 C 369.960938 201.824219 367.355469 201.964844 364.742188 202.101562 C 359.617188 202.371094 354.351562 202.882812 349.09375 203.628906 C 345.300781 204.113281 341.570312 204.746094 337.957031 205.496094 C 331.074219 206.855469 324.292969 208.59375 317.605469 210.714844 C 305.070312 214.710938 293.113281 220.011719 281.730469 226.613281 C 281.332031 226.851562 280.898438 226.96875 280.433594 226.96875 Z M 280.433594 226.96875 " fill-opacity="1" fill-rule="nonzero"/><g clip-path="url(#16af0987e7)"><path fill="#918380" d="M 209.203125 110.890625 C 217.199219 91.089844 220.5 68.8125 219.101562 44.058594 C 177.773438 44.601562 155.847656 65.492188 169.449219 89.21875 C 176.625 101.625 189.832031 106.066406 209.203125 110.890625 Z M 209.203125 110.890625 " fill-opacity="1" fill-rule="nonzero"/></g><path fill="#918380" d="M 247.105469 120.621094 C 256.359375 99.691406 260.824219 75.863281 260.371094 49.34375 C 259.101562 49.019531 257.886719 48.710938 256.667969 48.445312 C 250.882812 47.050781 245.039062 45.992188 239.136719 45.265625 C 240.128906 71.667969 235.910156 95.058594 226.476562 115.046875 C 228.882812 115.652344 231.367188 116.285156 233.890625 116.949219 C 238.097656 118.027344 242.523438 119.273438 247.105469 120.621094 Z M 247.105469 120.621094 " fill-opacity="1" fill-rule="nonzero"/><path fill="#918380" d="M 284.324219 134.570312 C 294.609375 114.660156 300.46875 91.683594 301.894531 65.816406 C 295.273438 61.785156 288.324219 58.425781 281.050781 55.738281 C 280.78125 82.902344 275.289062 106.601562 264.746094 126.382812 C 271.8125 128.976562 278.328125 131.71875 284.324219 134.570312 Z M 284.324219 134.570312 " fill-opacity="1" fill-rule="nonzero"/><path fill="#918380" d="M 320 537.910156 C 319.625 537.691406 319.324219 537.394531 319.097656 537.023438 C 318.875 536.648438 318.75 536.246094 318.722656 535.8125 L 318.59375 533.921875 C 318.386719 528.542969 317.8125 523.203125 316.875 517.902344 C 316.824219 517.566406 316.839844 517.234375 316.921875 516.902344 C 317 516.574219 317.140625 516.269531 317.335938 515.992188 C 317.535156 515.714844 317.777344 515.484375 318.0625 515.300781 C 318.347656 515.117188 318.660156 514.992188 318.992188 514.929688 C 319.328125 514.867188 319.660156 514.867188 319.996094 514.933594 C 320.328125 514.996094 320.640625 515.121094 320.925781 515.308594 C 321.210938 515.492188 321.453125 515.722656 321.648438 516 C 321.84375 516.277344 321.980469 516.582031 322.058594 516.914062 C 323.050781 522.441406 323.664062 528.011719 323.902344 533.625 L 324.019531 535.503906 C 324.042969 535.855469 324 536.195312 323.886719 536.527344 C 323.773438 536.859375 323.601562 537.15625 323.371094 537.417969 C 323.136719 537.679688 322.867188 537.890625 322.550781 538.042969 C 322.238281 538.199219 321.90625 538.285156 321.554688 538.308594 C 320.996094 538.34375 320.476562 538.210938 320 537.910156 Z M 320 537.910156 " fill-opacity="1" fill-rule="nonzero"/><path fill="#918380" d="M 350.894531 535.179688 C 350.167969 534.75 349.746094 534.113281 349.628906 533.277344 L 349.371094 531.386719 C 348.742188 526.039062 347.75 520.761719 346.402344 515.546875 C 346.3125 515.210938 346.292969 514.871094 346.339844 514.527344 C 346.386719 514.183594 346.5 513.859375 346.671875 513.558594 C 346.847656 513.257812 347.070312 513.003906 347.347656 512.789062 C 347.621094 512.578125 347.925781 512.425781 348.261719 512.335938 C 348.597656 512.242188 348.9375 512.21875 349.28125 512.261719 C 349.625 512.304688 349.949219 512.410156 350.253906 512.578125 C 350.554688 512.75 350.816406 512.96875 351.03125 513.242188 C 351.246094 513.515625 351.402344 513.820312 351.5 514.152344 C 352.898438 519.582031 353.925781 525.085938 354.578125 530.65625 L 354.84375 532.546875 C 354.914062 533.046875 354.84375 533.527344 354.632812 533.988281 C 354.425781 534.449219 354.109375 534.820312 353.691406 535.101562 C 353.269531 535.382812 352.804688 535.527344 352.296875 535.542969 C 351.792969 535.558594 351.320312 535.433594 350.886719 535.179688 Z M 350.894531 535.179688 " fill-opacity="1" fill-rule="nonzero"/><path fill="#918380" d="M 436.324219 537.910156 C 436.695312 537.6875 436.992188 537.390625 437.21875 537.019531 C 437.445312 536.648438 437.570312 536.246094 437.601562 535.8125 L 437.730469 533.921875 C 437.949219 528.542969 438.53125 523.203125 439.472656 517.902344 C 439.507812 517.574219 439.484375 517.246094 439.398438 516.925781 C 439.3125 516.601562 439.171875 516.308594 438.972656 516.039062 C 438.777344 515.769531 438.535156 515.546875 438.253906 515.371094 C 437.972656 515.191406 437.667969 515.070312 437.339844 515.007812 C 437.015625 514.945312 436.6875 514.945312 436.359375 515.007812 C 436.03125 515.070312 435.726562 515.1875 435.445312 515.363281 C 435.160156 515.539062 434.921875 515.761719 434.722656 516.03125 C 434.523438 516.296875 434.378906 516.59375 434.292969 516.914062 C 433.296875 522.441406 432.683594 528.011719 432.453125 533.625 L 432.332031 535.503906 C 432.3125 535.855469 432.355469 536.195312 432.46875 536.527344 C 432.582031 536.859375 432.753906 537.15625 432.984375 537.417969 C 433.214844 537.679688 433.488281 537.890625 433.804688 538.042969 C 434.117188 538.199219 434.449219 538.285156 434.796875 538.308594 C 435.347656 538.335938 435.855469 538.203125 436.324219 537.910156 Z M 436.324219 537.910156 " fill-opacity="1" fill-rule="nonzero"/><path fill="#918380" d="M 405.429688 535.179688 C 406.152344 534.746094 406.570312 534.113281 406.6875 533.277344 L 406.953125 531.386719 C 407.582031 526.039062 408.574219 520.761719 409.921875 515.546875 C 410.015625 515.210938 410.039062 514.867188 409.996094 514.519531 C 409.953125 514.175781 409.84375 513.847656 409.671875 513.542969 C 409.496094 513.242188 409.273438 512.980469 408.996094 512.765625 C 408.71875 512.550781 408.414062 512.398438 408.078125 512.304688 C 407.738281 512.214844 407.398438 512.1875 407.050781 512.234375 C 406.703125 512.277344 406.378906 512.382812 406.074219 512.558594 C 405.769531 512.730469 405.511719 512.957031 405.296875 513.230469 C 405.082031 513.507812 404.925781 513.816406 404.835938 514.152344 C 403.429688 519.582031 402.402344 525.082031 401.757812 530.65625 L 401.488281 532.546875 C 401.421875 533.046875 401.492188 533.527344 401.699219 533.988281 C 401.90625 534.449219 402.222656 534.820312 402.644531 535.101562 C 403.066406 535.382812 403.53125 535.527344 404.035156 535.542969 C 404.542969 535.558594 405.011719 535.433594 405.449219 535.179688 Z M 405.429688 535.179688 " fill-opacity="1" fill-rule="nonzero"/><path fill="#918380" d="M 301.90625 182.15625 C 301.320312 182.15625 300.742188 182.105469 300.164062 182.007812 C 299.589844 181.910156 299.023438 181.761719 298.472656 181.566406 C 297.921875 181.375 297.390625 181.132812 296.878906 180.851562 C 296.371094 180.566406 295.886719 180.238281 295.429688 179.871094 C 294.976562 179.507812 294.554688 179.105469 294.167969 178.664062 C 293.78125 178.226562 293.433594 177.757812 293.125 177.261719 C 292.816406 176.765625 292.554688 176.246094 292.335938 175.703125 C 292.117188 175.160156 291.941406 174.605469 291.820312 174.035156 C 291.695312 173.460938 291.617188 172.886719 291.589844 172.300781 C 291.566406 171.71875 291.585938 171.136719 291.660156 170.554688 C 291.730469 169.972656 291.851562 169.40625 292.019531 168.84375 C 292.191406 168.285156 292.40625 167.742188 292.667969 167.21875 C 292.925781 166.695312 293.230469 166.199219 293.578125 165.726562 C 293.921875 165.257812 294.304688 164.816406 294.726562 164.410156 C 295.144531 164.003906 295.597656 163.636719 296.078125 163.304688 C 296.5625 162.976562 297.070312 162.6875 297.601562 162.445312 C 299.492188 161.574219 344.679688 141.289062 402.03125 152.199219 C 402.707031 152.316406 403.363281 152.5 404 152.75 C 404.636719 153 405.246094 153.308594 405.820312 153.675781 C 406.394531 154.046875 406.929688 154.46875 407.421875 154.945312 C 407.914062 155.417969 408.355469 155.9375 408.742188 156.5 C 409.132812 157.0625 409.460938 157.660156 409.730469 158.289062 C 410.003906 158.917969 410.207031 159.566406 410.351562 160.234375 C 410.492188 160.90625 410.566406 161.582031 410.574219 162.265625 C 410.578125 162.949219 410.519531 163.628906 410.390625 164.300781 C 410.261719 164.972656 410.070312 165.625 409.8125 166.257812 C 409.554688 166.890625 409.238281 167.496094 408.859375 168.066406 C 408.480469 168.636719 408.050781 169.164062 407.570312 169.648438 C 407.085938 170.132812 406.5625 170.566406 405.992188 170.949219 C 405.425781 171.328125 404.824219 171.648438 404.191406 171.910156 C 403.558594 172.171875 402.910156 172.367188 402.238281 172.5 C 401.566406 172.632812 400.886719 172.695312 400.203125 172.695312 C 399.519531 172.691406 398.84375 172.621094 398.171875 172.484375 C 347.234375 162.800781 306.609375 181.027344 306.203125 181.214844 C 304.835938 181.839844 303.40625 182.152344 301.90625 182.15625 Z M 301.90625 182.15625 " fill-opacity="1" fill-rule="nonzero"/><path fill="#918380" d="M 297.222656 215.785156 C 296.660156 215.785156 296.101562 215.738281 295.546875 215.648438 C 294.988281 215.554688 294.445312 215.421875 293.910156 215.242188 C 293.378906 215.058594 292.863281 214.839844 292.363281 214.574219 C 291.867188 214.308594 291.394531 214.003906 290.949219 213.664062 C 290.5 213.320312 290.082031 212.945312 289.699219 212.535156 C 289.3125 212.125 288.960938 211.6875 288.648438 211.21875 C 288.332031 210.75 288.058594 210.261719 287.824219 209.75 C 287.589844 209.238281 287.398438 208.710938 287.25 208.164062 C 287.105469 207.621094 287 207.070312 286.945312 206.511719 C 286.886719 205.949219 286.875 205.386719 286.910156 204.828125 C 286.945312 204.265625 287.023438 203.707031 287.148438 203.160156 C 287.273438 202.609375 287.445312 202.074219 287.65625 201.554688 C 287.871094 201.03125 288.125 200.53125 288.417969 200.050781 C 288.714844 199.570312 289.046875 199.121094 289.414062 198.695312 C 289.785156 198.269531 290.183594 197.875 290.617188 197.515625 C 291.050781 197.15625 291.511719 196.832031 291.996094 196.550781 C 294.15625 195.28125 345.835938 165.75 420.375 184.164062 C 421.042969 184.320312 421.6875 184.539062 422.308594 184.820312 C 422.929688 185.105469 423.519531 185.445312 424.074219 185.847656 C 424.628906 186.246094 425.136719 186.695312 425.601562 187.199219 C 426.066406 187.699219 426.480469 188.242188 426.835938 188.824219 C 427.195312 189.40625 427.492188 190.019531 427.726562 190.660156 C 427.960938 191.304688 428.132812 191.960938 428.238281 192.636719 C 428.339844 193.3125 428.378906 193.992188 428.347656 194.675781 C 428.320312 195.359375 428.222656 196.03125 428.058594 196.695312 C 427.894531 197.359375 427.667969 198 427.375 198.621094 C 427.082031 199.238281 426.734375 199.820312 426.328125 200.371094 C 425.921875 200.921875 425.460938 201.425781 424.957031 201.882812 C 424.449219 202.339844 423.902344 202.746094 423.3125 203.09375 C 422.726562 203.445312 422.109375 203.730469 421.464844 203.960938 C 420.820312 204.1875 420.160156 204.347656 419.480469 204.445312 C 418.804688 204.539062 418.125 204.566406 417.441406 204.527344 C 416.761719 204.488281 416.089844 204.382812 415.425781 204.210938 C 348.9375 187.777344 302.875 214.109375 302.421875 214.367188 C 300.816406 215.3125 299.085938 215.785156 297.222656 215.785156 Z M 297.222656 215.785156 " fill-opacity="1" fill-rule="nonzero"/></svg>