<svg xmlns="http://www.w3.org/2000/svg" xmlns:xlink="http://www.w3.org/1999/xlink" width="940" zoomAndPan="magnify" viewBox="0 0 705 591.000005" height="788" preserveAspectRatio="xMidYMid meet" version="1.0"><defs><clipPath id="4648c6ebab"><path d="M 102.882812 70 L 440 70 L 440 385 L 102.882812 385 Z M 102.882812 70 " clip-rule="nonzero"/></clipPath><clipPath id="761da590c9"><path d="M 102.882812 70 L 292 70 L 292 278 L 102.882812 278 Z M 102.882812 70 " clip-rule="nonzero"/></clipPath></defs><path fill="#f7f7f7" d="M 184.453125 316.65625 C 184.453125 316.65625 194.753906 344.164062 170.28125 374.246094 C 145.804688 404.328125 140.664062 421.390625 170.28125 437.097656 C 199.898438 452.804688 292.617188 454.125 288.75 354.601562 " fill-opacity="1" fill-rule="nonzero"/><path fill="#f7f7f7" d="M 282.464844 392.835938 C 282.464844 392.835938 292.769531 420.34375 268.304688 450.453125 C 243.839844 480.566406 238.6875 497.605469 268.304688 513.3125 C 297.921875 529.023438 390.632812 530.34375 386.765625 430.816406 " fill-opacity="1" fill-rule="nonzero"/><path fill="#f7f7f7" d="M 563.273438 346.1875 C 563.273438 429.3125 488.484375 472.289062 396.203125 472.289062 C 303.921875 472.289062 229.125 429.3125 229.125 346.1875 C 229.125 295.363281 257.09375 250.402344 299.933594 223.191406 C 327.128906 205.847656 360.339844 195.703125 396.203125 195.703125 C 472.941406 195.703125 537.578125 242.277344 557.148438 305.753906 C 561.230469 318.925781 563.273438 332.40625 563.273438 346.1875 Z M 563.273438 346.1875 " fill-opacity="1" fill-rule="nonzero"/><path fill="#c1aea8" d="M 557.148438 305.746094 C 518.703125 364.980469 482.351562 333.925781 457.773438 305.746094 C 424.496094 267.546875 326.585938 255.320312 300.4375 223.769531 L 299.914062 223.144531 C 327.128906 205.847656 360.339844 195.703125 396.203125 195.703125 C 472.941406 195.703125 537.578125 242.277344 557.148438 305.746094 Z M 557.148438 305.746094 " fill-opacity="1" fill-rule="nonzero"/><g clip-path="url(#4648c6ebab)"><path fill="#f7f7f7" d="M 425.277344 203.34375 C 429.148438 212.074219 432.074219 221.105469 434.058594 230.445312 C 436.039062 239.785156 437.039062 249.226562 437.050781 258.773438 C 437.050781 259.640625 437.050781 260.515625 437.050781 261.351562 C 435.507812 342.851562 361.273438 384.875 269.960938 384.875 C 184.859375 384.875 114.644531 348.3125 104.253906 277.429688 C 103.339844 271.246094 102.882812 265.027344 102.882812 258.773438 C 102.882812 223.464844 116.4375 190.996094 139.074219 165.316406 C 133.167969 138.144531 124.492188 86.484375 140.378906 73.820312 C 158.472656 59.308594 207.945312 100.058594 224.003906 114.113281 C 239.074219 110.222656 254.394531 108.28125 269.960938 108.289062 C 277.238281 108.277344 284.488281 108.707031 291.714844 109.582031 C 304.839844 111.101562 317.648438 114.027344 330.128906 118.363281 C 342.078125 122.527344 353.441406 127.921875 364.222656 134.539062 C 387.652344 120.65625 421.363281 104.292969 433.648438 116.851562 C 447.066406 130.609375 434.441406 176.238281 425.277344 203.34375 Z M 425.277344 203.34375 " fill-opacity="1" fill-rule="nonzero"/></g><g clip-path="url(#761da590c9)"><path fill="#c1aea8" d="M 171.320312 268.746094 C 160.507812 272.285156 149.460938 274.785156 138.175781 276.246094 C 126.894531 277.707031 115.574219 278.101562 104.21875 277.429688 C 103.3125 271.246094 102.871094 265.023438 102.882812 258.773438 C 102.882812 223.464844 116.4375 190.996094 139.074219 165.316406 C 133.167969 138.144531 124.492188 86.484375 140.378906 73.820312 C 158.472656 59.308594 207.945312 100.058594 224.003906 114.113281 C 239.074219 110.222656 254.394531 108.28125 269.960938 108.289062 C 277.238281 108.277344 284.488281 108.707031 291.714844 109.582031 C 294.246094 177.742188 246.097656 244.503906 171.320312 268.746094 Z M 171.320312 268.746094 " fill-opacity="1" fill-rule="nonzero"/></g><path fill="#f7c67e" d="M 425.277344 203.34375 C 429.148438 212.074219 432.074219 221.105469 434.058594 230.445312 C 436.039062 239.785156 437.039062 249.226562 437.050781 258.773438 C 437.050781 259.640625 437.050781 260.515625 437.050781 261.351562 C 424.933594 267.421875 411.050781 270.542969 396.203125 270.542969 C 349.96875 270.542969 312.398438 240.648438 312.398438 182.8125 C 312.398438 158.496094 318.988281 136.195312 330.101562 118.410156 C 342.050781 122.578125 353.414062 127.96875 364.195312 134.585938 C 387.621094 120.703125 421.335938 104.339844 433.621094 116.898438 C 447.066406 130.609375 434.441406 176.238281 425.277344 203.34375 Z M 425.277344 203.34375 " fill-opacity="1" fill-rule="nonzero"/><path fill="#62442f" d="M 218.9375 256.71875 C 218.9375 257.433594 218.867188 258.144531 218.726562 258.847656 C 218.585938 259.550781 218.378906 260.234375 218.105469 260.894531 C 217.828125 261.554688 217.492188 262.183594 217.09375 262.78125 C 216.695312 263.378906 216.242188 263.929688 215.734375 264.433594 C 215.230469 264.941406 214.675781 265.394531 214.082031 265.792969 C 213.484375 266.191406 212.855469 266.527344 212.191406 266.800781 C 211.53125 267.074219 210.847656 267.28125 210.144531 267.421875 C 209.441406 267.5625 208.730469 267.632812 208.011719 267.632812 C 207.296875 267.632812 206.585938 267.5625 205.882812 267.421875 C 205.179688 267.28125 204.496094 267.074219 203.832031 266.800781 C 203.167969 266.527344 202.539062 266.191406 201.945312 265.792969 C 201.347656 265.394531 200.796875 264.941406 200.289062 264.433594 C 199.78125 263.929688 199.328125 263.378906 198.929688 262.78125 C 198.53125 262.183594 198.195312 261.554688 197.921875 260.894531 C 197.644531 260.234375 197.4375 259.550781 197.300781 258.847656 C 197.160156 258.144531 197.089844 257.433594 197.089844 256.71875 C 197.089844 256.003906 197.160156 255.292969 197.300781 254.589844 C 197.4375 253.886719 197.644531 253.203125 197.921875 252.542969 C 198.195312 251.878906 198.53125 251.25 198.929688 250.65625 C 199.328125 250.058594 199.78125 249.507812 200.289062 249.003906 C 200.796875 248.496094 201.347656 248.042969 201.945312 247.644531 C 202.539062 247.246094 203.167969 246.910156 203.832031 246.636719 C 204.496094 246.363281 205.179688 246.15625 205.882812 246.015625 C 206.585938 245.875 207.296875 245.804688 208.011719 245.804688 C 208.730469 245.804688 209.441406 245.875 210.144531 246.015625 C 210.847656 246.15625 211.53125 246.363281 212.191406 246.636719 C 212.855469 246.910156 213.484375 247.246094 214.082031 247.644531 C 214.675781 248.042969 215.230469 248.496094 215.734375 249.003906 C 216.242188 249.507812 216.695312 250.058594 217.09375 250.65625 C 217.492188 251.25 217.828125 251.878906 218.105469 252.542969 C 218.378906 253.203125 218.585938 253.886719 218.726562 254.589844 C 218.867188 255.292969 218.9375 256.003906 218.9375 256.71875 Z M 218.9375 256.71875 " fill-opacity="1" fill-rule="nonzero"/><path fill="#62442f" d="M 310.722656 263.636719 C 310.722656 264.351562 310.652344 265.0625 310.511719 265.765625 C 310.371094 266.46875 310.164062 267.148438 309.890625 267.8125 C 309.617188 268.472656 309.277344 269.101562 308.878906 269.699219 C 308.480469 270.292969 308.03125 270.84375 307.523438 271.351562 C 307.015625 271.859375 306.464844 272.3125 305.867188 272.707031 C 305.269531 273.105469 304.640625 273.441406 303.980469 273.71875 C 303.316406 273.992188 302.632812 274.199219 301.929688 274.339844 C 301.226562 274.476562 300.515625 274.546875 299.796875 274.546875 C 299.082031 274.546875 298.371094 274.476562 297.667969 274.339844 C 296.964844 274.199219 296.28125 273.992188 295.617188 273.71875 C 294.957031 273.441406 294.324219 273.105469 293.730469 272.707031 C 293.132812 272.3125 292.582031 271.859375 292.074219 271.351562 C 291.566406 270.84375 291.113281 270.292969 290.714844 269.699219 C 290.316406 269.101562 289.980469 268.472656 289.707031 267.8125 C 289.433594 267.148438 289.226562 266.46875 289.085938 265.765625 C 288.945312 265.0625 288.875 264.351562 288.875 263.636719 C 288.875 262.917969 288.945312 262.210938 289.085938 261.507812 C 289.226562 260.804688 289.433594 260.121094 289.707031 259.460938 C 289.980469 258.796875 290.316406 258.167969 290.714844 257.574219 C 291.113281 256.976562 291.566406 256.425781 292.074219 255.917969 C 292.582031 255.414062 293.132812 254.960938 293.730469 254.5625 C 294.324219 254.164062 294.957031 253.828125 295.617188 253.554688 C 296.28125 253.277344 296.964844 253.070312 297.667969 252.933594 C 298.371094 252.792969 299.082031 252.722656 299.796875 252.722656 C 300.515625 252.722656 301.226562 252.792969 301.929688 252.933594 C 302.632812 253.070312 303.316406 253.277344 303.980469 253.554688 C 304.640625 253.828125 305.269531 254.164062 305.867188 254.5625 C 306.464844 254.960938 307.015625 255.414062 307.523438 255.917969 C 308.03125 256.425781 308.480469 256.976562 308.878906 257.574219 C 309.277344 258.167969 309.617188 258.796875 309.890625 259.460938 C 310.164062 260.121094 310.371094 260.804688 310.511719 261.507812 C 310.652344 262.210938 310.722656 262.917969 310.722656 263.636719 Z M 310.722656 263.636719 " fill-opacity="1" fill-rule="nonzero"/><path fill="#62442f" d="M 270.496094 289.570312 C 260.761719 288.839844 256.648438 286.953125 256.351562 277.203125 C 256.351562 277.117188 256.351562 277.050781 256.296875 276.964844 C 256.277344 276.792969 256.238281 276.625 256.179688 276.460938 C 256.125 276.296875 256.054688 276.144531 255.972656 275.996094 C 255.898438 275.859375 255.808594 275.738281 255.707031 275.625 C 255.59375 275.488281 255.46875 275.363281 255.332031 275.253906 C 255.207031 275.160156 255.074219 275.074219 254.933594 275.003906 C 254.777344 274.921875 254.609375 274.851562 254.4375 274.804688 C 254.351562 274.804688 254.285156 274.730469 254.199219 274.710938 C 254.113281 274.691406 254.019531 274.710938 253.933594 274.710938 C 253.84375 274.6875 253.75 274.671875 253.65625 274.664062 C 253.570312 274.675781 253.484375 274.695312 253.402344 274.71875 C 253.242188 274.738281 253.085938 274.777344 252.933594 274.832031 C 252.757812 274.886719 252.589844 274.960938 252.429688 275.050781 C 252.304688 275.121094 252.1875 275.207031 252.078125 275.300781 C 251.9375 275.417969 251.8125 275.546875 251.695312 275.691406 C 251.601562 275.8125 251.519531 275.941406 251.449219 276.078125 C 251.363281 276.238281 251.296875 276.40625 251.25 276.585938 C 251.214844 276.65625 251.1875 276.726562 251.164062 276.804688 C 249.390625 286.441406 245.039062 287.6875 235.304688 286.953125 C 234.953125 286.914062 234.605469 286.941406 234.261719 287.042969 C 233.917969 287.144531 233.609375 287.308594 233.335938 287.535156 C 233.0625 287.761719 232.839844 288.035156 232.675781 288.351562 C 232.511719 288.667969 232.417969 289.003906 232.390625 289.359375 C 232.363281 289.714844 232.410156 290.058594 232.523438 290.398438 C 232.640625 290.734375 232.816406 291.035156 233.054688 291.300781 C 233.292969 291.566406 233.574219 291.773438 233.894531 291.925781 C 234.21875 292.074219 234.558594 292.15625 234.914062 292.167969 C 243.105469 292.785156 249.296875 291.84375 253.011719 286.460938 C 255.867188 292.386719 261.886719 294.242188 270.074219 294.859375 C 270.425781 294.886719 270.769531 294.847656 271.105469 294.738281 C 271.441406 294.632812 271.742188 294.460938 272.011719 294.234375 C 272.277344 294.007812 272.492188 293.734375 272.652344 293.421875 C 272.8125 293.109375 272.90625 292.777344 272.933594 292.425781 C 272.960938 292.074219 272.921875 291.730469 272.8125 291.398438 C 272.703125 291.0625 272.535156 290.761719 272.304688 290.492188 C 272.078125 290.226562 271.804688 290.011719 271.492188 289.851562 C 271.179688 289.691406 270.847656 289.597656 270.496094 289.570312 Z M 270.496094 289.570312 " fill-opacity="1" fill-rule="nonzero"/><path fill="#62442f" d="M 352.394531 290.644531 C 352.070312 290.617188 351.757812 290.53125 351.464844 290.386719 C 351.167969 290.242188 350.910156 290.050781 350.691406 289.808594 C 350.46875 289.566406 350.296875 289.292969 350.179688 288.988281 C 350.058594 288.683594 350 288.367188 350 288.039062 C 350 287.710938 350.058594 287.394531 350.179688 287.089844 C 350.296875 286.785156 350.46875 286.511719 350.691406 286.269531 C 350.910156 286.027344 351.167969 285.835938 351.464844 285.691406 C 351.757812 285.546875 352.070312 285.460938 352.394531 285.433594 L 384.773438 282.367188 C 385.128906 282.320312 385.480469 282.339844 385.824219 282.433594 C 386.167969 282.527344 386.480469 282.683594 386.761719 282.90625 C 387.042969 283.128906 387.265625 283.394531 387.4375 283.707031 C 387.609375 284.023438 387.710938 284.355469 387.746094 284.710938 C 387.777344 285.066406 387.742188 285.414062 387.632812 285.753906 C 387.523438 286.09375 387.351562 286.402344 387.121094 286.671875 C 386.886719 286.941406 386.609375 287.152344 386.289062 287.3125 C 385.964844 287.46875 385.628906 287.554688 385.269531 287.574219 L 352.816406 290.636719 C 352.675781 290.652344 352.535156 290.65625 352.394531 290.644531 Z M 352.394531 290.644531 " fill-opacity="1" fill-rule="nonzero"/><path fill="#62442f" d="M 384.070312 309.664062 L 383.84375 309.664062 L 351.671875 304.402344 C 351.328125 304.347656 351.007812 304.226562 350.714844 304.046875 C 350.417969 303.863281 350.167969 303.628906 349.964844 303.347656 C 349.761719 303.066406 349.621094 302.757812 349.542969 302.417969 C 349.464844 302.078125 349.453125 301.738281 349.507812 301.394531 C 349.5625 301.054688 349.683594 300.734375 349.867188 300.441406 C 350.050781 300.144531 350.28125 299.894531 350.566406 299.691406 C 350.847656 299.492188 351.160156 299.351562 351.496094 299.269531 C 351.835938 299.191406 352.175781 299.179688 352.519531 299.238281 L 384.679688 304.5 C 385.015625 304.546875 385.332031 304.660156 385.625 304.832031 C 385.917969 305.003906 386.167969 305.226562 386.375 305.496094 C 386.582031 305.765625 386.730469 306.066406 386.820312 306.394531 C 386.910156 306.71875 386.9375 307.054688 386.894531 307.390625 C 386.855469 307.730469 386.753906 308.046875 386.589844 308.34375 C 386.429688 308.644531 386.214844 308.898438 385.949219 309.113281 C 385.6875 309.328125 385.390625 309.488281 385.066406 309.585938 C 384.742188 309.6875 384.410156 309.722656 384.070312 309.691406 Z M 384.070312 309.664062 " fill-opacity="1" fill-rule="nonzero"/><path fill="#62442f" d="M 152.195312 275.554688 C 152.042969 275.546875 151.894531 275.527344 151.75 275.488281 L 120.128906 267.601562 C 119.792969 267.519531 119.484375 267.375 119.207031 267.167969 C 118.925781 266.960938 118.695312 266.707031 118.519531 266.410156 C 118.339844 266.113281 118.222656 265.792969 118.171875 265.449219 C 118.121094 265.105469 118.136719 264.765625 118.222656 264.429688 C 118.304688 264.09375 118.449219 263.785156 118.65625 263.503906 C 118.863281 263.226562 119.117188 262.996094 119.414062 262.820312 C 119.710938 262.640625 120.03125 262.523438 120.375 262.472656 C 120.71875 262.421875 121.058594 262.4375 121.398438 262.523438 L 153.023438 270.410156 C 153.34375 270.488281 153.636719 270.625 153.902344 270.8125 C 154.167969 271.003906 154.394531 271.234375 154.574219 271.507812 C 154.753906 271.78125 154.878906 272.078125 154.949219 272.398438 C 155.015625 272.71875 155.023438 273.039062 154.972656 273.363281 C 154.921875 273.6875 154.8125 273.988281 154.644531 274.269531 C 154.480469 274.554688 154.269531 274.796875 154.011719 275 C 153.753906 275.203125 153.46875 275.351562 153.15625 275.449219 C 152.84375 275.542969 152.523438 275.582031 152.195312 275.554688 Z M 152.195312 275.554688 " fill-opacity="1" fill-rule="nonzero"/><path fill="#62442f" d="M 118.035156 289.617188 C 117.699219 289.589844 117.382812 289.5 117.082031 289.351562 C 116.78125 289.203125 116.519531 289 116.296875 288.75 C 116.074219 288.5 115.90625 288.21875 115.792969 287.902344 C 115.675781 287.585938 115.625 287.261719 115.636719 286.925781 C 115.648438 286.589844 115.71875 286.269531 115.855469 285.960938 C 115.988281 285.652344 116.175781 285.382812 116.414062 285.148438 C 116.65625 284.910156 116.929688 284.730469 117.238281 284.597656 C 117.546875 284.46875 117.871094 284.402344 118.207031 284.394531 L 150.796875 284.015625 C 151.144531 284.007812 151.480469 284.070312 151.800781 284.199219 C 152.125 284.328125 152.414062 284.511719 152.660156 284.753906 C 152.910156 284.996094 153.105469 285.277344 153.242188 285.597656 C 153.378906 285.917969 153.449219 286.25 153.453125 286.597656 C 153.460938 286.945312 153.398438 287.28125 153.265625 287.601562 C 153.136719 287.925781 152.953125 288.210938 152.707031 288.460938 C 152.464844 288.707031 152.183594 288.902344 151.863281 289.039062 C 151.542969 289.171875 151.210938 289.242188 150.863281 289.246094 L 118.265625 289.628906 Z M 118.035156 289.617188 " fill-opacity="1" fill-rule="nonzero"/><path fill="#f29f6e" d="M 268.191406 269.828125 C 267.894531 273.738281 261.316406 278.390625 253.675781 277.832031 C 246.039062 277.269531 240.230469 271.65625 240.523438 267.746094 C 240.820312 263.835938 247.257812 261.132812 254.894531 261.714844 C 262.535156 262.292969 268.484375 265.917969 268.191406 269.828125 Z M 268.191406 269.828125 " fill-opacity="1" fill-rule="nonzero"/><path fill="#f29f6e" d="M 189.605469 275.222656 C 189.1875 274.71875 188.714844 274.277344 188.179688 273.902344 C 187.644531 273.53125 187.070312 273.234375 186.453125 273.015625 C 185.835938 272.800781 185.203125 272.667969 184.550781 272.625 C 183.898438 272.582031 183.253906 272.625 182.613281 272.757812 C 180.929688 273.125 179.542969 273.96875 178.453125 275.300781 C 177.566406 273.816406 176.320312 272.765625 174.710938 272.140625 C 174.097656 271.914062 173.464844 271.777344 172.816406 271.722656 C 172.164062 271.671875 171.519531 271.703125 170.878906 271.828125 C 170.238281 271.949219 169.625 272.15625 169.039062 272.445312 C 168.453125 272.734375 167.917969 273.09375 167.433594 273.53125 C 166.648438 274.261719 166.046875 275.117188 165.621094 276.101562 C 165.195312 277.082031 164.988281 278.109375 164.996094 279.179688 C 165.128906 282.175781 165.960938 284.964844 167.492188 287.542969 C 168.699219 289.929688 170.3125 292.003906 172.328125 293.765625 C 172.839844 294.167969 173.375 294.53125 173.9375 294.859375 C 174.863281 295.378906 175.84375 295.726562 176.890625 295.90625 C 177.949219 295.890625 178.976562 295.695312 179.964844 295.316406 C 180.570312 295.074219 181.15625 294.792969 181.726562 294.480469 C 183.984375 293.039062 185.890625 291.230469 187.441406 289.046875 C 189.339844 286.722656 190.578125 284.089844 191.164062 281.152344 C 191.328125 280.097656 191.273438 279.054688 191 278.023438 C 190.730469 276.996094 190.265625 276.058594 189.605469 275.222656 Z M 189.605469 275.222656 " fill-opacity="1" fill-rule="nonzero"/><path fill="#f29f6e" d="M 339.585938 286.515625 C 339.171875 286.015625 338.699219 285.574219 338.164062 285.203125 C 337.628906 284.828125 337.054688 284.535156 336.4375 284.316406 C 335.824219 284.097656 335.191406 283.96875 334.539062 283.921875 C 333.890625 283.878906 333.246094 283.921875 332.605469 284.050781 C 330.921875 284.429688 329.53125 285.289062 328.433594 286.621094 C 327.554688 285.136719 326.3125 284.085938 324.703125 283.460938 C 324.089844 283.234375 323.457031 283.09375 322.808594 283.039062 C 322.15625 282.984375 321.511719 283.019531 320.871094 283.140625 C 320.226562 283.265625 319.617188 283.46875 319.03125 283.761719 C 318.445312 284.050781 317.910156 284.414062 317.425781 284.851562 C 316.640625 285.582031 316.039062 286.4375 315.613281 287.421875 C 315.191406 288.40625 314.980469 289.433594 314.988281 290.503906 C 315.125 293.496094 315.957031 296.285156 317.484375 298.867188 C 318.6875 301.253906 320.300781 303.328125 322.320312 305.089844 C 322.835938 305.488281 323.371094 305.851562 323.929688 306.183594 C 324.367188 306.484375 324.835938 306.726562 325.335938 306.902344 C 325.835938 307.082031 326.347656 307.191406 326.878906 307.230469 C 327.40625 307.269531 327.933594 307.238281 328.453125 307.136719 C 328.976562 307.035156 329.472656 306.863281 329.949219 306.628906 C 330.554688 306.394531 331.144531 306.121094 331.710938 305.800781 C 333.96875 304.363281 335.875 302.550781 337.425781 300.371094 C 339.324219 298.046875 340.566406 295.414062 341.148438 292.472656 C 341.316406 291.414062 341.261719 290.367188 340.992188 289.332031 C 340.71875 288.296875 340.25 287.355469 339.585938 286.515625 Z M 339.585938 286.515625 " fill-opacity="1" fill-rule="nonzero"/><path fill="#f7f7f7" d="M 516.453125 494.503906 C 509.46875 498.75 502.25 502.554688 494.796875 505.921875 C 485.90625 510.042969 476.699219 513.273438 467.179688 515.617188 C 422.277344 526.578125 393.335938 508.8125 403.003906 480.414062 C 407.964844 465.933594 420.707031 459.027344 439.707031 450.167969 C 446.019531 447.238281 453.039062 444.097656 460.722656 440.332031 C 468.410156 436.5625 476.914062 432.207031 485.933594 426.90625 C 557.195312 384.875 562.679688 333.972656 562.679688 333.972656 C 602.308594 392.828125 563.273438 466.179688 516.453125 494.503906 Z M 516.453125 494.503906 " fill-opacity="1" fill-rule="nonzero"/><path fill="#f7c67e" d="M 494.796875 505.914062 C 485.90625 510.035156 476.699219 513.265625 467.179688 515.605469 C 422.277344 526.566406 393.335938 508.804688 403.003906 480.40625 C 407.964844 465.925781 420.707031 459.015625 439.707031 450.160156 C 446.019531 447.230469 453.039062 444.089844 460.722656 440.320312 C 474.09375 451.3125 494.5625 473.402344 494.796875 505.914062 Z M 494.796875 505.914062 " fill-opacity="1" fill-rule="nonzero"/><path fill="#c1aea8" d="M 467.21875 515.605469 C 422.316406 526.566406 393.375 508.804688 403.042969 480.40625 C 408.003906 465.925781 420.746094 459.015625 439.746094 450.160156 C 449.097656 461.054688 462.542969 481.917969 467.21875 515.605469 Z M 467.21875 515.605469 " fill-opacity="1" fill-rule="nonzero"/><path fill="#c1aea8" d="M 381.625 474.535156 C 381.414062 474.535156 381.210938 474.507812 381.007812 474.460938 C 380.804688 474.410156 380.609375 474.339844 380.425781 474.242188 C 380.242188 474.148438 380.070312 474.03125 379.910156 473.898438 C 379.753906 473.761719 379.613281 473.609375 379.492188 473.4375 C 379.371094 473.269531 379.269531 473.089844 379.191406 472.894531 C 379.113281 472.703125 379.058594 472.503906 379.03125 472.296875 C 379 472.09375 378.992188 471.886719 379.011719 471.679688 C 379.027344 471.472656 379.070312 471.269531 379.136719 471.070312 C 383.050781 459.570312 384.746094 446.058594 384.15625 430.921875 C 384.140625 430.574219 384.195312 430.238281 384.316406 429.914062 C 384.433594 429.585938 384.613281 429.296875 384.847656 429.039062 C 385.085938 428.785156 385.359375 428.585938 385.675781 428.441406 C 385.992188 428.292969 386.324219 428.214844 386.671875 428.199219 C 387.015625 428.199219 387.347656 428.261719 387.667969 428.382812 C 387.988281 428.507812 388.273438 428.6875 388.523438 428.921875 C 388.777344 429.152344 388.976562 429.425781 389.125 429.734375 C 389.273438 430.042969 389.359375 430.371094 389.382812 430.710938 C 390.003906 446.496094 388.222656 460.644531 384.097656 472.753906 C 383.917969 473.285156 383.601562 473.714844 383.148438 474.042969 C 382.691406 474.371094 382.183594 474.535156 381.625 474.535156 Z M 381.625 474.535156 " fill-opacity="1" fill-rule="nonzero"/><path fill="#c1aea8" d="M 274.304688 444.699219 C 273.828125 444.695312 273.386719 444.574219 272.976562 444.332031 C 272.566406 444.09375 272.246094 443.765625 272.015625 443.347656 C 271.785156 442.933594 271.671875 442.488281 271.683594 442.011719 C 271.695312 441.539062 271.824219 441.097656 272.074219 440.691406 C 287.761719 415.546875 280.09375 393.96875 280.007812 393.75 C 279.886719 393.425781 279.832031 393.089844 279.847656 392.742188 C 279.859375 392.394531 279.9375 392.0625 280.082031 391.746094 C 280.226562 391.429688 280.425781 391.15625 280.679688 390.917969 C 280.9375 390.683594 281.226562 390.503906 281.550781 390.382812 C 281.878906 390.261719 282.214844 390.207031 282.5625 390.21875 C 282.910156 390.230469 283.242188 390.3125 283.558594 390.457031 C 283.871094 390.601562 284.148438 390.800781 284.386719 391.054688 C 284.621094 391.308594 284.800781 391.597656 284.921875 391.921875 C 285.285156 392.875 293.636719 416.03125 276.523438 443.460938 C 276.285156 443.847656 275.96875 444.148438 275.574219 444.367188 C 275.179688 444.589844 274.757812 444.699219 274.304688 444.699219 Z M 274.304688 444.699219 " fill-opacity="1" fill-rule="nonzero"/><path fill="#c1aea8" d="M 275.550781 441.226562 C 274.988281 441.230469 274.476562 441.066406 274.019531 440.742188 C 253.21875 425.792969 239.488281 407.042969 232.011719 383.425781 C 231.90625 383.097656 231.867188 382.757812 231.898438 382.410156 C 231.925781 382.066406 232.023438 381.738281 232.183594 381.429688 C 232.34375 381.121094 232.554688 380.855469 232.824219 380.628906 C 233.089844 380.40625 233.386719 380.242188 233.71875 380.136719 C 234.050781 380.03125 234.390625 379.996094 234.738281 380.027344 C 235.082031 380.054688 235.410156 380.152344 235.71875 380.3125 C 236.027344 380.472656 236.296875 380.683594 236.519531 380.953125 C 236.742188 381.21875 236.90625 381.515625 237.011719 381.847656 C 244.125 404.347656 257.230469 422.226562 277.074219 436.488281 C 277.304688 436.648438 277.5 436.839844 277.667969 437.0625 C 277.835938 437.285156 277.964844 437.53125 278.050781 437.792969 C 278.140625 438.058594 278.1875 438.332031 278.1875 438.609375 C 278.191406 438.886719 278.148438 439.160156 278.0625 439.425781 C 277.980469 439.691406 277.855469 439.9375 277.691406 440.164062 C 277.527344 440.390625 277.332031 440.582031 277.105469 440.746094 C 276.878906 440.910156 276.636719 441.035156 276.371094 441.121094 C 276.101562 441.207031 275.832031 441.246094 275.550781 441.246094 Z M 275.550781 441.226562 " fill-opacity="1" fill-rule="nonzero"/><path fill="#c1aea8" d="M 259.285156 507.765625 C 258.957031 507.761719 258.640625 507.699219 258.332031 507.578125 C 258.011719 507.449219 257.726562 507.265625 257.476562 507.023438 C 257.226562 506.78125 257.035156 506.5 256.898438 506.179688 C 256.761719 505.863281 256.691406 505.53125 256.6875 505.183594 C 256.683594 504.835938 256.746094 504.503906 256.875 504.179688 C 257.085938 503.648438 262.21875 491.03125 272.589844 481.890625 C 272.851562 481.671875 273.144531 481.511719 273.46875 481.40625 C 273.792969 481.304688 274.125 481.265625 274.464844 481.292969 C 274.804688 481.316406 275.128906 481.40625 275.433594 481.558594 C 275.738281 481.710938 276.003906 481.914062 276.226562 482.167969 C 276.453125 482.421875 276.625 482.710938 276.738281 483.03125 C 276.847656 483.351562 276.898438 483.683594 276.882812 484.023438 C 276.867188 484.363281 276.785156 484.6875 276.644531 484.996094 C 276.5 485.304688 276.304688 485.574219 276.058594 485.808594 C 266.636719 494.113281 261.773438 506.007812 261.773438 506.121094 C 261.566406 506.625 261.238281 507.03125 260.785156 507.332031 C 260.332031 507.632812 259.832031 507.777344 259.285156 507.765625 Z M 259.285156 507.765625 " fill-opacity="1" fill-rule="nonzero"/><path fill="#c1aea8" d="M 286.683594 520.839844 C 286.511719 520.84375 286.339844 520.828125 286.171875 520.792969 C 285.828125 520.726562 285.515625 520.597656 285.226562 520.402344 C 284.9375 520.210938 284.695312 519.972656 284.503906 519.683594 C 284.308594 519.394531 284.179688 519.082031 284.113281 518.738281 C 284.042969 518.398438 284.042969 518.058594 284.113281 517.71875 C 284.238281 517.074219 287.359375 501.859375 297.933594 492.535156 C 298.191406 492.304688 298.488281 492.132812 298.816406 492.023438 C 299.144531 491.910156 299.484375 491.863281 299.828125 491.886719 C 300.175781 491.910156 300.507812 491.996094 300.820312 492.148438 C 301.128906 492.300781 301.402344 492.507812 301.632812 492.769531 C 301.863281 493.027344 302.03125 493.324219 302.144531 493.652344 C 302.257812 493.980469 302.304688 494.316406 302.28125 494.664062 C 302.257812 495.011719 302.171875 495.339844 302.019531 495.652344 C 301.867188 495.964844 301.660156 496.234375 301.398438 496.464844 C 292.179688 504.589844 289.273438 518.59375 289.246094 518.738281 C 289.1875 519.03125 289.078125 519.3125 288.925781 519.570312 C 288.769531 519.828125 288.574219 520.054688 288.339844 520.246094 C 288.109375 520.4375 287.847656 520.582031 287.5625 520.6875 C 287.28125 520.789062 286.988281 520.839844 286.683594 520.839844 Z M 286.683594 520.839844 " fill-opacity="1" fill-rule="nonzero"/><path fill="#c1aea8" d="M 162.128906 431.121094 C 161.800781 431.117188 161.480469 431.050781 161.175781 430.929688 C 160.851562 430.800781 160.566406 430.617188 160.316406 430.375 C 160.070312 430.132812 159.875 429.851562 159.738281 429.53125 C 159.597656 429.214844 159.527344 428.878906 159.519531 428.53125 C 159.511719 428.183594 159.574219 427.847656 159.699219 427.527344 C 159.917969 426.992188 165.042969 414.386719 175.414062 405.242188 C 175.671875 405 175.96875 404.820312 176.300781 404.699219 C 176.632812 404.574219 176.972656 404.523438 177.328125 404.539062 C 177.679688 404.554688 178.019531 404.640625 178.335938 404.792969 C 178.65625 404.945312 178.933594 405.15625 179.167969 405.421875 C 179.402344 405.683594 179.574219 405.984375 179.6875 406.320312 C 179.800781 406.65625 179.84375 407 179.816406 407.351562 C 179.789062 407.703125 179.695312 408.039062 179.53125 408.351562 C 179.371094 408.667969 179.152344 408.9375 178.878906 409.164062 C 169.472656 417.46875 164.59375 429.351562 164.59375 429.476562 C 164.390625 429.976562 164.066406 430.378906 163.617188 430.679688 C 163.164062 430.976562 162.667969 431.125 162.128906 431.121094 Z M 162.128906 431.121094 " fill-opacity="1" fill-rule="nonzero"/><path fill="#c1aea8" d="M 187.917969 442.976562 C 187.746094 442.980469 187.574219 442.964844 187.402344 442.929688 C 187.066406 442.863281 186.753906 442.734375 186.46875 442.542969 C 186.183594 442.355469 185.945312 442.117188 185.75 441.832031 C 185.558594 441.550781 185.425781 441.238281 185.355469 440.902344 C 185.289062 440.566406 185.285156 440.230469 185.347656 439.894531 C 185.46875 439.246094 188.605469 424.035156 199.164062 414.710938 C 199.425781 414.480469 199.71875 414.308594 200.050781 414.195312 C 200.378906 414.085938 200.714844 414.039062 201.0625 414.0625 C 201.410156 414.082031 201.738281 414.171875 202.050781 414.324219 C 202.363281 414.476562 202.636719 414.683594 202.863281 414.941406 C 203.09375 415.203125 203.265625 415.5 203.378906 415.828125 C 203.492188 416.15625 203.535156 416.492188 203.515625 416.839844 C 203.492188 417.1875 203.40625 417.515625 203.253906 417.828125 C 203.097656 418.140625 202.890625 418.410156 202.632812 418.640625 C 193.414062 426.726562 190.5 440.730469 190.5 440.84375 C 190.441406 441.144531 190.335938 441.425781 190.179688 441.691406 C 190.023438 441.953125 189.828125 442.183594 189.59375 442.375 C 189.359375 442.570312 189.097656 442.71875 188.808594 442.824219 C 188.519531 442.925781 188.222656 442.976562 187.917969 442.976562 Z M 187.917969 442.976562 " fill-opacity="1" fill-rule="nonzero"/><path fill="#c1aea8" d="M 269.953125 387.480469 C 228.457031 387.480469 191.261719 378.917969 162.394531 362.742188 C 162.09375 362.574219 161.835938 362.351562 161.621094 362.078125 C 161.40625 361.808594 161.25 361.503906 161.15625 361.171875 C 161.0625 360.835938 161.039062 360.496094 161.078125 360.152344 C 161.121094 359.808594 161.226562 359.484375 161.394531 359.183594 C 161.5625 358.878906 161.785156 358.621094 162.058594 358.40625 C 162.332031 358.191406 162.632812 358.039062 162.96875 357.945312 C 163.300781 357.847656 163.640625 357.824219 163.984375 357.863281 C 164.332031 357.902344 164.652344 358.007812 164.957031 358.175781 C 193.050781 373.941406 229.355469 382.277344 269.953125 382.277344 C 270.300781 382.277344 270.632812 382.34375 270.953125 382.476562 C 271.273438 382.609375 271.558594 382.796875 271.804688 383.042969 C 272.050781 383.289062 272.238281 383.570312 272.371094 383.890625 C 272.503906 384.210938 272.570312 384.546875 272.570312 384.894531 C 272.570312 385.238281 272.503906 385.574219 272.371094 385.894531 C 272.238281 386.214844 272.050781 386.496094 271.804688 386.742188 C 271.558594 386.988281 271.273438 387.175781 270.953125 387.308594 C 270.632812 387.441406 270.300781 387.507812 269.953125 387.507812 Z M 269.953125 387.480469 " fill-opacity="1" fill-rule="nonzero"/><path fill="#c1aea8" d="M 395.328125 350.183594 C 394.773438 350.1875 394.265625 350.027344 393.8125 349.707031 C 393.359375 349.386719 393.039062 348.964844 392.855469 348.441406 C 392.671875 347.917969 392.652344 347.390625 392.804688 346.855469 C 392.957031 346.324219 393.246094 345.882812 393.679688 345.53125 C 412.527344 330.308594 425.011719 311.195312 430.820312 288.722656 C 430.921875 288.40625 431.078125 288.117188 431.289062 287.859375 C 431.5 287.601562 431.753906 287.390625 432.046875 287.226562 C 432.339844 287.066406 432.652344 286.964844 432.980469 286.921875 C 433.3125 286.878906 433.640625 286.898438 433.964844 286.980469 C 434.289062 287.0625 434.585938 287.203125 434.855469 287.398438 C 435.128906 287.59375 435.351562 287.835938 435.53125 288.117188 C 435.710938 288.398438 435.828125 288.707031 435.890625 289.035156 C 435.953125 289.363281 435.953125 289.691406 435.886719 290.019531 C 429.839844 313.613281 416.753906 333.660156 397.011719 349.605469 C 396.519531 350 395.960938 350.195312 395.328125 350.183594 Z M 395.328125 350.183594 " fill-opacity="1" fill-rule="nonzero"/><path fill="#c1aea8" d="M 462.570312 442.074219 C 462.277344 442.074219 461.988281 442.023438 461.707031 441.925781 C 461.429688 441.828125 461.171875 441.6875 460.941406 441.503906 C 460.710938 441.320312 460.515625 441.105469 460.355469 440.855469 C 460.199219 440.605469 460.085938 440.335938 460.019531 440.046875 C 459.953125 439.757812 459.933594 439.46875 459.96875 439.175781 C 460 438.878906 460.078125 438.597656 460.207031 438.332031 C 460.332031 438.066406 460.5 437.828125 460.707031 437.617188 C 460.917969 437.40625 461.152344 437.234375 461.417969 437.105469 C 469.789062 432.988281 477.390625 428.90625 484.636719 424.632812 C 520.824219 403.320312 539.398438 379.71875 548.632812 363.675781 C 558.625 346.324219 560.109375 333.832031 560.121094 333.707031 C 560.15625 333.363281 560.253906 333.042969 560.421875 332.738281 C 560.585938 332.4375 560.800781 332.175781 561.070312 331.960938 C 561.335938 331.742188 561.636719 331.585938 561.964844 331.488281 C 562.296875 331.390625 562.632812 331.359375 562.976562 331.394531 C 563.316406 331.433594 563.640625 331.535156 563.941406 331.703125 C 564.242188 331.867188 564.5 332.082031 564.714844 332.351562 C 564.933594 332.617188 565.089844 332.914062 565.191406 333.242188 C 565.289062 333.570312 565.324219 333.90625 565.289062 334.25 C 565.0625 336.378906 558.84375 386.910156 487.257812 429.113281 C 479.894531 433.453125 472.191406 437.589844 463.6875 441.777344 C 463.335938 441.960938 462.964844 442.058594 462.570312 442.074219 Z M 462.570312 442.074219 " fill-opacity="1" fill-rule="nonzero"/><path fill="#f7f7f7" d="M 369.910156 143.949219 C 369.910156 143.949219 412.765625 113.503906 424.90625 125.792969 C 437.050781 138.085938 414.972656 191.441406 414.972656 191.441406 C 403.109375 172.917969 388.480469 156.761719 369.910156 143.949219 Z M 369.910156 143.949219 " fill-opacity="1" fill-rule="nonzero"/><path fill="#f7f7f7" d="M 208.6875 118.859375 C 208.6875 118.859375 165.984375 79.539062 152.40625 90.183594 C 138.824219 100.828125 152.261719 154.097656 152.261719 154.097656 C 166.996094 138.210938 187.183594 126.347656 208.6875 118.859375 Z M 208.6875 118.859375 " fill-opacity="1" fill-rule="nonzero"/></svg>