<svg xmlns="http://www.w3.org/2000/svg" xmlns:xlink="http://www.w3.org/1999/xlink" width="940" zoomAndPan="magnify" viewBox="0 0 705 591.000005" height="788" preserveAspectRatio="xMidYMid meet" version="1.0"><defs><clipPath id="18f589e5c2"><path d="M 185.4375 69 L 486 69 L 486 357 L 185.4375 357 Z M 185.4375 69 " clip-rule="nonzero"/></clipPath><clipPath id="b3fd463bf3"><path d="M 185.4375 69 L 486 69 L 486 279 L 185.4375 279 Z M 185.4375 69 " clip-rule="nonzero"/></clipPath></defs><path fill="#fff3e7" d="M 571.859375 384.277344 C 565.953125 418.707031 556.390625 485.308594 474.742188 476.25 L 473.773438 444.964844 C 473.773438 444.964844 499.398438 444.664062 513.566406 411.136719 C 520.46875 394.78125 521.511719 377.402344 523.835938 362.847656 C 526.28125 347.542969 530.113281 335.355469 543.652344 330.738281 C 567.996094 322.4375 574.769531 355.6875 572.617188 378.71875 C 572.398438 380.621094 572.160156 382.511719 571.859375 384.277344 Z M 571.859375 384.277344 " fill-opacity="1" fill-rule="nonzero"/><path fill="#a38b89" d="M 571.859375 384.277344 C 565.953125 418.707031 556.390625 485.308594 474.742188 476.25 L 473.773438 444.964844 C 473.773438 444.964844 499.398438 444.664062 513.566406 411.136719 C 520.46875 394.78125 521.511719 377.402344 523.835938 362.847656 C 537.34375 362.535156 558.695312 364.613281 572.617188 378.71875 C 572.398438 380.621094 572.160156 382.511719 571.859375 384.277344 Z M 571.859375 384.277344 " fill-opacity="1" fill-rule="nonzero"/><path fill="#fff3e7" d="M 490.90625 428.542969 C 489.386719 444.820312 485.710938 460.589844 479.867188 475.855469 C 455.960938 539.378906 283.210938 490.394531 283.210938 490.394531 L 269.207031 441.371094 C 241.53125 394.746094 235.34375 347.132812 260.777344 298.019531 L 444.871094 298.019531 C 444.871094 298.019531 497.933594 349.234375 490.90625 428.542969 Z M 490.90625 428.542969 " fill-opacity="1" fill-rule="nonzero"/><path fill="#fff3e7" d="M 419.964844 327.082031 C 419.964844 327.082031 471.21875 525.472656 380.144531 525.472656 C 302.09375 525.472656 346.003906 461.347656 344.871094 446.847656 " fill-opacity="1" fill-rule="nonzero"/><path fill="#a38b89" d="M 490.90625 428.542969 C 462.296875 372.628906 420.535156 331.507812 371.851562 298.054688 L 444.871094 298.054688 C 444.871094 298.054688 497.933594 349.234375 490.90625 428.542969 Z M 490.90625 428.542969 " fill-opacity="1" fill-rule="nonzero"/><path fill="#fff3e7" d="M 287 525.511719 C 234.949219 525.484375 229.460938 460.46875 234.21875 404.894531 C 234.785156 398.449219 235.464844 392.167969 236.242188 386.097656 C 238.796875 366.378906 242.414062 346.855469 247.085938 327.53125 C 247.136719 327.386719 247.175781 327.238281 247.207031 327.089844 L 273.015625 330.511719 L 274.414062 330.703125 L 322.28125 446.8125 C 321.148438 461.375 365.078125 525.511719 287 525.511719 Z M 287 525.511719 " fill-opacity="1" fill-rule="nonzero"/><path fill="#a38b89" d="M 273.976562 331.011719 C 259.917969 348.367188 247.339844 366.730469 236.242188 386.105469 C 238.796875 366.386719 242.414062 346.867188 247.085938 327.539062 Z M 273.976562 331.011719 " fill-opacity="1" fill-rule="nonzero"/><g clip-path="url(#18f589e5c2)"><path fill="#fff3e7" d="M 485.503906 239.890625 C 485.613281 252.765625 483.550781 265.285156 479.320312 277.449219 C 460.960938 329.402344 403.511719 356.074219 335.515625 356.074219 C 267.835938 356.089844 210.625 329.660156 191.933594 278.222656 C 187.539062 265.835938 185.40625 253.070312 185.527344 239.925781 C 185.527344 210.441406 191.019531 182.375 208.746094 156.976562 C 203.476562 131.890625 195.6875 84.277344 209.945312 72.601562 C 226.203125 59.261719 270.644531 96.78125 285.015625 109.738281 L 287.578125 109.0625 C 302.488281 105.125 317.648438 102.800781 333.054688 102.085938 C 342.710938 101.8125 352.285156 102.554688 361.785156 104.308594 C 361.871094 104.339844 361.964844 104.363281 362.058594 104.371094 C 362.734375 104.5 363.386719 104.589844 364.027344 104.753906 C 367.972656 105.558594 371.824219 106.363281 375.300781 107.132812 L 376.996094 107.515625 C 377.636719 107.652344 378.285156 107.808594 378.898438 107.972656 C 379.164062 107.996094 379.421875 108.0625 379.667969 108.164062 C 380.582031 108.355469 381.425781 108.550781 382.257812 108.777344 L 383.457031 109.0625 C 398.613281 95.53125 441.792969 59.480469 457.765625 72.601562 C 471.429688 83.828125 464.8125 128.195312 459.59375 153.914062 C 478.414062 178.707031 484.71875 202.6875 485.460938 233.589844 C 485.476562 235.648438 485.503906 237.769531 485.503906 239.890625 Z M 485.503906 239.890625 " fill-opacity="1" fill-rule="nonzero"/></g><g clip-path="url(#b3fd463bf3)"><path fill="#a38b89" d="M 485.503906 239.890625 C 485.613281 252.765625 483.550781 265.285156 479.320312 277.449219 C 378.898438 266.804688 360 219.027344 349.777344 193.273438 C 348.386719 189.835938 344.816406 180.601562 342.785156 186.453125 C 340.753906 192.304688 341.15625 200.503906 338.207031 198.933594 C 335.261719 197.359375 333.742188 174.246094 330.289062 176.296875 C 326.839844 178.34375 328.324219 199.378906 324.664062 200.066406 C 321 200.75 321.082031 190.675781 317.734375 185.375 C 314.382812 180.070312 310.988281 192.15625 310.621094 192.960938 C 281.574219 257.125 224.324219 273.910156 191.933594 278.222656 C 187.539062 265.835938 185.40625 253.070312 185.527344 239.925781 C 185.527344 210.441406 191.019531 182.375 208.746094 156.976562 C 203.476562 131.890625 195.6875 84.277344 209.945312 72.601562 C 226.203125 59.261719 270.644531 96.78125 285.015625 109.738281 L 287.578125 109.0625 C 302.488281 105.125 317.648438 102.800781 333.054688 102.085938 C 342.710938 101.8125 352.285156 102.554688 361.785156 104.308594 C 361.871094 104.339844 361.964844 104.363281 362.058594 104.371094 C 362.734375 104.5 363.386719 104.589844 364.027344 104.753906 C 368.035156 105.496094 371.824219 106.300781 375.300781 107.132812 L 376.996094 107.515625 C 377.636719 107.652344 378.285156 107.808594 378.898438 107.972656 C 379.164062 107.996094 379.421875 108.0625 379.667969 108.164062 C 380.582031 108.355469 381.425781 108.550781 382.257812 108.777344 L 383.457031 109.0625 C 398.613281 95.53125 441.792969 59.480469 457.765625 72.601562 C 471.429688 83.828125 464.8125 128.195312 459.59375 153.914062 C 478.414062 178.707031 484.71875 202.6875 485.460938 233.589844 C 485.476562 235.648438 485.503906 237.769531 485.503906 239.890625 Z M 485.503906 239.890625 " fill-opacity="1" fill-rule="nonzero"/></g><path fill="#62442f" d="M 301.863281 257.058594 C 301.863281 257.699219 301.804688 258.332031 301.683594 258.960938 C 301.566406 259.585938 301.386719 260.195312 301.152344 260.785156 C 300.917969 261.375 300.632812 261.9375 300.292969 262.46875 C 299.953125 263 299.566406 263.492188 299.132812 263.945312 C 298.699219 264.398438 298.226562 264.800781 297.71875 265.15625 C 297.210938 265.511719 296.671875 265.808594 296.105469 266.054688 C 295.539062 266.300781 294.957031 266.484375 294.355469 266.609375 C 293.757812 266.734375 293.148438 266.796875 292.539062 266.796875 C 291.925781 266.796875 291.320312 266.734375 290.71875 266.609375 C 290.117188 266.484375 289.535156 266.300781 288.96875 266.054688 C 288.402344 265.808594 287.867188 265.511719 287.355469 265.15625 C 286.847656 264.800781 286.375 264.398438 285.941406 263.945312 C 285.511719 263.492188 285.125 263 284.78125 262.46875 C 284.441406 261.9375 284.15625 261.375 283.921875 260.785156 C 283.6875 260.195312 283.511719 259.585938 283.390625 258.960938 C 283.269531 258.332031 283.210938 257.699219 283.210938 257.058594 C 283.210938 256.421875 283.269531 255.785156 283.390625 255.160156 C 283.511719 254.53125 283.6875 253.925781 283.921875 253.332031 C 284.15625 252.742188 284.441406 252.183594 284.78125 251.648438 C 285.125 251.117188 285.511719 250.625 285.941406 250.175781 C 286.375 249.722656 286.847656 249.320312 287.355469 248.964844 C 287.867188 248.609375 288.402344 248.308594 288.96875 248.0625 C 289.535156 247.820312 290.117188 247.632812 290.71875 247.511719 C 291.320312 247.386719 291.925781 247.324219 292.539062 247.324219 C 293.148438 247.324219 293.757812 247.386719 294.355469 247.511719 C 294.957031 247.632812 295.539062 247.820312 296.105469 248.0625 C 296.671875 248.308594 297.210938 248.609375 297.71875 248.964844 C 298.226562 249.320312 298.699219 249.722656 299.132812 250.175781 C 299.566406 250.625 299.953125 251.117188 300.292969 251.648438 C 300.632812 252.183594 300.917969 252.742188 301.152344 253.332031 C 301.386719 253.925781 301.566406 254.53125 301.683594 255.160156 C 301.804688 255.785156 301.863281 256.421875 301.863281 257.058594 Z M 301.863281 257.058594 " fill-opacity="1" fill-rule="nonzero"/><path fill="#62442f" d="M 380.4375 257.058594 C 380.4375 257.699219 380.378906 258.332031 380.257812 258.960938 C 380.136719 259.585938 379.960938 260.195312 379.726562 260.785156 C 379.492188 261.375 379.207031 261.9375 378.863281 262.46875 C 378.523438 263 378.136719 263.492188 377.707031 263.945312 C 377.273438 264.398438 376.800781 264.800781 376.292969 265.15625 C 375.78125 265.511719 375.246094 265.808594 374.679688 266.054688 C 374.113281 266.300781 373.53125 266.484375 372.929688 266.609375 C 372.328125 266.734375 371.722656 266.796875 371.109375 266.796875 C 370.5 266.796875 369.890625 266.734375 369.289062 266.609375 C 368.691406 266.484375 368.105469 266.300781 367.542969 266.054688 C 366.976562 265.808594 366.4375 265.511719 365.929688 265.15625 C 365.421875 264.800781 364.949219 264.398438 364.515625 263.945312 C 364.082031 263.492188 363.695312 263 363.355469 262.46875 C 363.015625 261.9375 362.726562 261.375 362.496094 260.785156 C 362.261719 260.195312 362.082031 259.585938 361.964844 258.960938 C 361.84375 258.332031 361.785156 257.699219 361.785156 257.058594 C 361.785156 256.421875 361.84375 255.785156 361.964844 255.160156 C 362.082031 254.53125 362.261719 253.925781 362.496094 253.332031 C 362.726562 252.742188 363.015625 252.183594 363.355469 251.648438 C 363.695312 251.117188 364.082031 250.625 364.515625 250.175781 C 364.949219 249.722656 365.421875 249.320312 365.929688 248.964844 C 366.4375 248.609375 366.976562 248.308594 367.542969 248.0625 C 368.105469 247.820312 368.691406 247.632812 369.292969 247.511719 C 369.890625 247.386719 370.5 247.324219 371.109375 247.324219 C 371.722656 247.324219 372.328125 247.386719 372.929688 247.511719 C 373.53125 247.632812 374.113281 247.820312 374.679688 248.0625 C 375.246094 248.308594 375.78125 248.609375 376.292969 248.964844 C 376.800781 249.320312 377.273438 249.722656 377.707031 250.175781 C 378.136719 250.625 378.523438 251.117188 378.863281 251.648438 C 379.207031 252.183594 379.492188 252.742188 379.726562 253.332031 C 379.960938 253.925781 380.136719 254.53125 380.257812 255.160156 C 380.378906 255.785156 380.4375 256.421875 380.4375 257.058594 Z M 380.4375 257.058594 " fill-opacity="1" fill-rule="nonzero"/><path fill="#62442f" d="M 317.699219 286.753906 C 317.386719 286.753906 317.089844 286.695312 316.804688 286.578125 C 316.519531 286.457031 316.265625 286.289062 316.046875 286.070312 C 315.828125 285.851562 315.660156 285.601562 315.542969 285.316406 C 315.421875 285.03125 315.363281 284.730469 315.363281 284.421875 C 315.363281 284.113281 315.421875 283.816406 315.542969 283.53125 C 315.660156 283.246094 315.828125 282.992188 316.046875 282.773438 C 316.265625 282.554688 316.519531 282.386719 316.804688 282.269531 C 317.089844 282.152344 317.386719 282.089844 317.699219 282.089844 C 326.035156 282.089844 329.660156 280.683594 330.511719 272.035156 C 330.535156 271.734375 330.617188 271.449219 330.753906 271.179688 C 330.894531 270.910156 331.078125 270.679688 331.308594 270.484375 C 331.539062 270.289062 331.800781 270.148438 332.089844 270.054688 C 332.375 269.964844 332.671875 269.933594 332.972656 269.960938 C 333.273438 270 333.554688 270.097656 333.820312 270.25 C 334.082031 270.402344 334.308594 270.597656 334.492188 270.835938 C 334.679688 271.078125 334.8125 271.34375 334.890625 271.636719 C 334.972656 271.929688 334.996094 272.226562 334.957031 272.527344 C 333.796875 284.367188 327.480469 286.753906 317.699219 286.753906 Z M 317.699219 286.753906 " fill-opacity="1" fill-rule="nonzero"/><path fill="#62442f" d="M 347.828125 286.753906 C 338.042969 286.753906 331.746094 284.367188 330.539062 272.492188 C 330.5 272.191406 330.523438 271.894531 330.605469 271.601562 C 330.683594 271.308594 330.820312 271.042969 331.003906 270.800781 C 331.191406 270.5625 331.414062 270.363281 331.675781 270.210938 C 331.941406 270.0625 332.222656 269.964844 332.523438 269.921875 C 332.824219 269.894531 333.121094 269.925781 333.410156 270.015625 C 333.699219 270.105469 333.960938 270.246094 334.191406 270.441406 C 334.425781 270.636719 334.609375 270.871094 334.746094 271.140625 C 334.882812 271.410156 334.964844 271.695312 334.984375 272 C 335.902344 280.683594 339.488281 282.054688 347.800781 282.054688 C 348.109375 282.054688 348.40625 282.113281 348.691406 282.234375 C 348.976562 282.351562 349.230469 282.519531 349.449219 282.738281 C 349.667969 282.957031 349.835938 283.207031 349.957031 283.496094 C 350.074219 283.78125 350.132812 284.078125 350.132812 284.386719 C 350.132812 284.695312 350.074219 284.992188 349.957031 285.277344 C 349.835938 285.5625 349.667969 285.816406 349.449219 286.035156 C 349.230469 286.253906 348.976562 286.421875 348.691406 286.539062 C 348.40625 286.660156 348.109375 286.71875 347.800781 286.71875 Z M 347.828125 286.753906 " fill-opacity="1" fill-rule="nonzero"/><path fill="#fff3e7" d="M 401.441406 113.148438 C 401.441406 113.148438 435.304688 78.589844 446.945312 87.550781 C 458.589844 96.507812 447.789062 144.414062 447.789062 144.414062 C 441.253906 137.628906 434.082031 131.601562 426.269531 126.332031 C 418.460938 121.0625 410.183594 116.667969 401.441406 113.148438 Z M 401.441406 113.148438 " fill-opacity="1" fill-rule="nonzero"/><path fill="#fff3e7" d="M 266.773438 114.804688 C 266.773438 114.804688 233.011719 80.5 221.3125 89.3125 C 209.617188 98.125 220.28125 145.082031 220.28125 145.082031 C 232.617188 131.378906 248.871094 122.957031 266.773438 114.804688 Z M 266.773438 114.804688 " fill-opacity="1" fill-rule="nonzero"/><path fill="#e5d9cd" d="M 333.035156 502.800781 L 332.699219 502.800781 C 332.398438 502.746094 332.121094 502.636719 331.867188 502.472656 C 331.609375 502.308594 331.394531 502.105469 331.21875 501.855469 C 331.042969 501.609375 330.921875 501.335938 330.851562 501.042969 C 330.785156 500.746094 330.773438 500.449219 330.820312 500.148438 C 332.652344 487.667969 327.492188 471.15625 324.515625 464.171875 C 320.1875 454.023438 320.050781 447.214844 320.050781 446.921875 C 320.039062 446.617188 320.089844 446.324219 320.195312 446.042969 C 320.300781 445.757812 320.457031 445.507812 320.664062 445.285156 C 320.871094 445.066406 321.113281 444.890625 321.386719 444.765625 C 321.664062 444.640625 321.953125 444.574219 322.253906 444.5625 C 322.554688 444.578125 322.839844 444.644531 323.113281 444.765625 C 323.386719 444.886719 323.625 445.054688 323.835938 445.265625 C 324.046875 445.480469 324.210938 445.722656 324.328125 445.996094 C 324.445312 446.273438 324.507812 446.558594 324.515625 446.855469 C 324.515625 446.984375 324.699219 453.128906 328.597656 462.28125 C 331.753906 469.695312 337.210938 487.304688 335.242188 500.84375 C 335.207031 501.113281 335.125 501.363281 334.996094 501.601562 C 334.871094 501.84375 334.707031 502.050781 334.503906 502.230469 C 334.300781 502.410156 334.074219 502.550781 333.820312 502.648438 C 333.570312 502.746094 333.308594 502.796875 333.035156 502.800781 Z M 333.035156 502.800781 " fill-opacity="1" fill-rule="nonzero"/><path fill="#e5d9cd" d="M 334.464844 487.347656 C 334.339844 487.359375 334.214844 487.359375 334.089844 487.347656 C 333.792969 487.289062 333.515625 487.171875 333.261719 487.003906 C 333.011719 486.835938 332.796875 486.628906 332.628906 486.375 C 332.457031 486.125 332.339844 485.851562 332.277344 485.554688 C 332.210938 485.257812 332.207031 484.960938 332.257812 484.660156 C 333.476562 477.179688 335.511719 469.925781 338.371094 462.902344 C 342.289062 453.714844 342.453125 447.542969 342.453125 447.488281 C 342.445312 447.175781 342.496094 446.875 342.609375 446.585938 C 342.726562 446.296875 342.890625 446.042969 343.113281 445.824219 C 343.332031 445.601562 343.589844 445.4375 343.878906 445.320312 C 344.167969 445.207031 344.46875 445.15625 344.777344 445.164062 C 345.082031 445.175781 345.371094 445.246094 345.644531 445.371094 C 345.921875 445.496094 346.160156 445.667969 346.367188 445.890625 C 346.574219 446.113281 346.730469 446.363281 346.835938 446.648438 C 346.941406 446.929688 346.988281 447.222656 346.976562 447.523438 C 346.976562 447.808594 346.839844 454.621094 342.507812 464.777344 C 339.785156 471.429688 337.839844 478.304688 336.679688 485.402344 C 336.640625 485.667969 336.558594 485.921875 336.429688 486.160156 C 336.304688 486.398438 336.136719 486.609375 335.933594 486.785156 C 335.730469 486.964844 335.503906 487.101562 335.25 487.199219 C 334.996094 487.296875 334.734375 487.347656 334.464844 487.347656 Z M 334.464844 487.347656 " fill-opacity="1" fill-rule="nonzero"/><path fill="#e5d9cd" d="M 369.855469 356.007812 C 369.578125 356.003906 369.308594 355.949219 369.050781 355.84375 C 368.792969 355.742188 368.558594 355.59375 368.355469 355.40625 C 368.152344 355.21875 367.984375 355 367.859375 354.75 C 367.738281 354.5 367.660156 354.238281 367.632812 353.960938 C 367.59375 353.660156 367.613281 353.363281 367.691406 353.066406 C 367.769531 352.773438 367.898438 352.503906 368.082031 352.261719 C 368.265625 352.019531 368.488281 351.820312 368.746094 351.664062 C 369.007812 351.511719 369.289062 351.410156 369.589844 351.363281 C 389.605469 348.824219 407.335938 343.265625 423.78125 334.367188 C 424.046875 334.226562 424.328125 334.144531 424.628906 334.121094 C 424.925781 334.09375 425.21875 334.128906 425.503906 334.222656 C 425.789062 334.320312 426.042969 334.46875 426.265625 334.667969 C 426.492188 334.867188 426.667969 335.101562 426.792969 335.375 C 426.933594 335.644531 427.015625 335.933594 427.046875 336.234375 C 427.074219 336.539062 427.046875 336.835938 426.960938 337.128906 C 426.875 337.421875 426.738281 337.6875 426.554688 337.925781 C 426.367188 338.167969 426.140625 338.363281 425.878906 338.519531 C 408.945312 347.660156 390.722656 353.382812 370.160156 356 Z M 369.855469 356.007812 " fill-opacity="1" fill-rule="nonzero"/><path fill="#e5d9cd" d="M 281.554688 352.1875 C 281.40625 352.199219 281.253906 352.199219 281.105469 352.1875 C 272.992188 350.476562 265.09375 348.058594 257.410156 344.9375 C 257.128906 344.816406 256.882812 344.648438 256.664062 344.433594 C 256.449219 344.214844 256.28125 343.964844 256.164062 343.6875 C 256.042969 343.40625 255.980469 343.113281 255.976562 342.804688 C 255.96875 342.5 256.019531 342.207031 256.128906 341.921875 C 256.226562 341.636719 256.375 341.382812 256.578125 341.160156 C 256.78125 340.9375 257.015625 340.761719 257.289062 340.636719 C 257.5625 340.511719 257.851562 340.441406 258.152344 340.433594 C 258.453125 340.425781 258.742188 340.476562 259.023438 340.585938 C 266.46875 343.605469 274.128906 345.945312 281.992188 347.605469 C 282.289062 347.675781 282.558594 347.800781 282.808594 347.976562 C 283.054688 348.152344 283.257812 348.371094 283.421875 348.625 C 283.585938 348.882812 283.695312 349.15625 283.75 349.457031 C 283.804688 349.753906 283.800781 350.050781 283.742188 350.347656 C 283.691406 350.605469 283.601562 350.84375 283.46875 351.066406 C 283.335938 351.289062 283.171875 351.484375 282.972656 351.652344 C 282.773438 351.820312 282.550781 351.949219 282.308594 352.042969 C 282.066406 352.132812 281.816406 352.179688 281.554688 352.1875 Z M 281.554688 352.1875 " fill-opacity="1" fill-rule="nonzero"/><path fill="#e5d9cd" d="M 284.765625 526.671875 C 284.519531 526.667969 284.277344 526.625 284.042969 526.542969 C 283.808594 526.460938 283.597656 526.339844 283.402344 526.1875 C 283.207031 526.035156 283.042969 525.851562 282.90625 525.644531 C 282.773438 525.4375 282.675781 525.210938 282.617188 524.96875 L 282.175781 523.34375 C 280.789062 518.601562 279.71875 513.789062 278.964844 508.90625 C 278.917969 508.609375 278.925781 508.308594 278.996094 508.015625 C 279.066406 507.71875 279.1875 507.449219 279.367188 507.199219 C 279.542969 506.953125 279.757812 506.75 280.015625 506.585938 C 280.273438 506.425781 280.550781 506.316406 280.851562 506.265625 C 281.148438 506.222656 281.445312 506.242188 281.738281 506.320312 C 282.027344 506.398438 282.292969 506.53125 282.53125 506.714844 C 282.769531 506.898438 282.964844 507.125 283.113281 507.386719 C 283.261719 507.648438 283.351562 507.929688 283.386719 508.230469 C 284.121094 512.914062 285.152344 517.53125 286.480469 522.082031 L 286.917969 523.707031 C 287.003906 524.003906 287.027344 524.300781 286.996094 524.605469 C 286.964844 524.90625 286.875 525.195312 286.730469 525.464844 C 286.585938 525.730469 286.398438 525.964844 286.160156 526.160156 C 285.925781 526.355469 285.664062 526.496094 285.371094 526.589844 C 285.171875 526.644531 284.972656 526.671875 284.765625 526.671875 Z M 284.765625 526.671875 " fill-opacity="1" fill-rule="nonzero"/><path fill="#e5d9cd" d="M 311.875 523.570312 C 311.628906 523.566406 311.390625 523.523438 311.15625 523.441406 C 310.925781 523.359375 310.710938 523.242188 310.519531 523.089844 C 310.324219 522.9375 310.160156 522.757812 310.027344 522.550781 C 309.890625 522.34375 309.796875 522.121094 309.734375 521.878906 L 309.296875 520.28125 C 308.152344 515.6875 306.714844 511.191406 304.984375 506.785156 C 304.867188 506.503906 304.804688 506.210938 304.800781 505.902344 C 304.796875 505.597656 304.847656 505.300781 304.957031 505.015625 C 305.066406 504.730469 305.222656 504.476562 305.429688 504.25 C 305.636719 504.023438 305.878906 503.847656 306.15625 503.714844 C 306.433594 503.597656 306.71875 503.539062 307.019531 503.535156 C 307.320312 503.535156 307.609375 503.59375 307.886719 503.710938 C 308.164062 503.828125 308.40625 503.996094 308.613281 504.210938 C 308.820312 504.429688 308.976562 504.675781 309.085938 504.957031 C 310.890625 509.550781 312.394531 514.238281 313.589844 519.027344 L 314.019531 520.617188 C 314.101562 520.910156 314.128906 521.210938 314.097656 521.511719 C 314.066406 521.816406 313.976562 522.101562 313.835938 522.371094 C 313.695312 522.640625 313.503906 522.871094 313.273438 523.070312 C 313.039062 523.265625 312.777344 523.410156 312.488281 523.507812 C 312.289062 523.558594 312.085938 523.582031 311.875 523.570312 Z M 311.875 523.570312 " fill-opacity="1" fill-rule="nonzero"/><path fill="#e5d9cd" d="M 353.667969 522.089844 L 353.511719 522.089844 C 353.207031 522.0625 352.921875 521.976562 352.65625 521.835938 C 352.386719 521.695312 352.15625 521.507812 351.960938 521.273438 C 351.765625 521.039062 351.625 520.78125 351.53125 520.492188 C 351.441406 520.203125 351.40625 519.90625 351.433594 519.605469 L 351.542969 517.929688 C 351.753906 512.980469 352.289062 508.066406 353.144531 503.183594 C 353.195312 502.886719 353.300781 502.613281 353.464844 502.359375 C 353.625 502.105469 353.828125 501.894531 354.074219 501.722656 C 354.324219 501.550781 354.59375 501.433594 354.886719 501.371094 C 355.179688 501.304688 355.476562 501.300781 355.769531 501.355469 C 356.066406 501.425781 356.339844 501.546875 356.585938 501.722656 C 356.835938 501.898438 357.042969 502.117188 357.207031 502.371094 C 357.371094 502.628906 357.480469 502.90625 357.535156 503.203125 C 357.589844 503.503906 357.589844 503.800781 357.527344 504.097656 C 356.710938 508.78125 356.203125 513.5 356 518.25 L 355.898438 519.933594 C 355.882812 520.21875 355.816406 520.496094 355.695312 520.757812 C 355.574219 521.019531 355.414062 521.25 355.207031 521.449219 C 355 521.648438 354.761719 521.804688 354.496094 521.914062 C 354.230469 522.027344 353.953125 522.085938 353.667969 522.089844 Z M 353.667969 522.089844 " fill-opacity="1" fill-rule="nonzero"/><path fill="#e5d9cd" d="M 378.761719 526.898438 L 378.644531 526.898438 C 378.339844 526.871094 378.054688 526.789062 377.785156 526.648438 C 377.515625 526.507812 377.285156 526.320312 377.085938 526.089844 C 376.890625 525.859375 376.746094 525.597656 376.652344 525.308594 C 376.558594 525.019531 376.523438 524.722656 376.546875 524.421875 L 376.65625 522.730469 C 377.046875 517.992188 377.136719 513.246094 376.921875 508.496094 C 376.902344 508.199219 376.9375 507.914062 377.03125 507.632812 C 377.128906 507.351562 377.273438 507.097656 377.46875 506.875 C 377.660156 506.652344 377.890625 506.476562 378.15625 506.34375 C 378.421875 506.210938 378.703125 506.136719 379 506.117188 C 379.296875 506.09375 379.582031 506.132812 379.863281 506.226562 C 380.144531 506.320312 380.398438 506.46875 380.621094 506.660156 C 380.84375 506.855469 381.019531 507.085938 381.152344 507.351562 C 381.285156 507.617188 381.359375 507.898438 381.378906 508.195312 C 381.617188 513.144531 381.527344 518.09375 381.113281 523.03125 L 381.011719 524.714844 C 381 525.007812 380.9375 525.285156 380.816406 525.550781 C 380.699219 525.816406 380.535156 526.050781 380.324219 526.257812 C 380.113281 526.460938 379.875 526.617188 379.605469 526.726562 C 379.335938 526.839844 379.054688 526.894531 378.761719 526.898438 Z M 378.761719 526.898438 " fill-opacity="1" fill-rule="nonzero"/><path fill="#e5d9cd" d="M 416.535156 510.910156 C 416.023438 510.910156 415.574219 510.75 415.179688 510.425781 C 414.941406 510.230469 414.746094 510 414.597656 509.730469 C 414.449219 509.464844 414.355469 509.175781 414.3125 508.871094 C 414.273438 508.566406 414.292969 508.265625 414.371094 507.96875 C 414.449219 507.671875 414.578125 507.398438 414.757812 507.152344 C 427.011719 490.421875 432.652344 465.597656 431.984375 431.269531 C 431.96875 430.96875 432.015625 430.671875 432.121094 430.390625 C 432.226562 430.105469 432.378906 429.851562 432.585938 429.628906 C 432.789062 429.40625 433.03125 429.230469 433.304688 429.101562 C 433.578125 428.976562 433.867188 428.90625 434.171875 428.890625 C 434.46875 428.902344 434.757812 428.964844 435.035156 429.082031 C 435.3125 429.203125 435.554688 429.367188 435.765625 429.582031 C 435.980469 429.792969 436.144531 430.039062 436.261719 430.3125 C 436.378906 430.589844 436.441406 430.878906 436.449219 431.179688 C 437.144531 466.625 431.203125 492.433594 418.308594 510.003906 C 417.871094 510.605469 417.277344 510.910156 416.535156 510.910156 Z M 416.535156 510.910156 " fill-opacity="1" fill-rule="nonzero"/><path fill="#62442f" d="M 417.613281 277.558594 C 417.34375 277.550781 417.085938 277.5 416.835938 277.402344 C 416.585938 277.304688 416.359375 277.167969 416.160156 276.988281 C 415.960938 276.8125 415.792969 276.605469 415.667969 276.371094 C 415.539062 276.132812 415.457031 275.882812 415.417969 275.617188 C 415.355469 275.316406 415.355469 275.011719 415.417969 274.710938 C 415.476562 274.40625 415.59375 274.125 415.765625 273.867188 C 415.933594 273.613281 416.148438 273.398438 416.40625 273.226562 C 416.664062 273.054688 416.945312 272.9375 417.246094 272.875 L 444.703125 267.976562 C 445.003906 267.929688 445.296875 267.941406 445.589844 268.015625 C 445.882812 268.089844 446.152344 268.214844 446.394531 268.394531 C 446.636719 268.574219 446.835938 268.792969 446.988281 269.050781 C 447.144531 269.308594 447.242188 269.589844 447.285156 269.886719 C 447.339844 270.1875 447.335938 270.484375 447.273438 270.78125 C 447.207031 271.082031 447.089844 271.355469 446.921875 271.609375 C 446.75 271.859375 446.535156 272.070312 446.285156 272.238281 C 446.03125 272.40625 445.753906 272.523438 445.453125 272.582031 L 417.996094 277.476562 C 417.871094 277.515625 417.746094 277.542969 417.613281 277.558594 Z M 417.613281 277.558594 " fill-opacity="1" fill-rule="nonzero"/><path fill="#62442f" d="M 445.785156 292.359375 L 445.59375 292.359375 L 417.871094 289.828125 C 417.566406 289.792969 417.285156 289.703125 417.015625 289.558594 C 416.75 289.410156 416.523438 289.21875 416.332031 288.984375 C 416.140625 288.746094 416.003906 288.484375 415.917969 288.191406 C 415.832031 287.902344 415.804688 287.605469 415.839844 287.304688 C 415.855469 287 415.929688 286.714844 416.0625 286.441406 C 416.195312 286.167969 416.378906 285.933594 416.605469 285.734375 C 416.832031 285.535156 417.089844 285.386719 417.378906 285.292969 C 417.667969 285.195312 417.960938 285.160156 418.261719 285.183594 L 445.976562 287.707031 C 446.269531 287.738281 446.546875 287.828125 446.804688 287.964844 C 447.066406 288.105469 447.289062 288.289062 447.480469 288.511719 C 447.671875 288.734375 447.816406 288.988281 447.914062 289.265625 C 448.007812 289.542969 448.050781 289.832031 448.039062 290.125 C 448.027344 290.417969 447.960938 290.703125 447.84375 290.972656 C 447.722656 291.242188 447.558594 291.480469 447.351562 291.6875 C 447.140625 291.894531 446.902344 292.058594 446.632812 292.175781 C 446.363281 292.292969 446.078125 292.355469 445.785156 292.367188 Z M 445.785156 292.359375 " fill-opacity="1" fill-rule="nonzero"/><path fill="#62442f" d="M 246.234375 277.558594 C 246.109375 277.570312 245.980469 277.570312 245.851562 277.558594 L 218.394531 272.664062 C 218.09375 272.605469 217.820312 272.492188 217.5625 272.324219 C 217.308594 272.15625 217.097656 271.945312 216.925781 271.691406 C 216.753906 271.441406 216.636719 271.164062 216.574219 270.867188 C 216.511719 270.566406 216.507812 270.269531 216.5625 269.96875 C 216.605469 269.671875 216.703125 269.390625 216.855469 269.132812 C 217.007812 268.871094 217.207031 268.652344 217.449219 268.472656 C 217.691406 268.292969 217.957031 268.167969 218.25 268.09375 C 218.542969 268.023438 218.835938 268.011719 219.136719 268.058594 L 246.59375 272.957031 C 246.898438 273.019531 247.175781 273.132812 247.433594 273.304688 C 247.691406 273.476562 247.90625 273.691406 248.078125 273.949219 C 248.25 274.207031 248.367188 274.488281 248.425781 274.789062 C 248.484375 275.09375 248.484375 275.398438 248.421875 275.699219 C 248.375 275.957031 248.289062 276.199219 248.15625 276.425781 C 248.027344 276.652344 247.863281 276.851562 247.664062 277.019531 C 247.460938 277.191406 247.242188 277.320312 246.996094 277.414062 C 246.75 277.503906 246.496094 277.550781 246.234375 277.558594 Z M 246.234375 277.558594 " fill-opacity="1" fill-rule="nonzero"/><path fill="#62442f" d="M 218.066406 292.359375 C 217.769531 292.347656 217.488281 292.285156 217.21875 292.167969 C 216.945312 292.046875 216.707031 291.886719 216.5 291.679688 C 216.289062 291.46875 216.125 291.230469 216.007812 290.960938 C 215.886719 290.691406 215.824219 290.410156 215.8125 290.117188 C 215.796875 289.820312 215.839844 289.535156 215.9375 289.257812 C 216.03125 288.980469 216.175781 288.726562 216.367188 288.503906 C 216.558594 288.277344 216.785156 288.097656 217.042969 287.957031 C 217.304688 287.816406 217.578125 287.730469 217.871094 287.695312 L 245.59375 285.171875 C 245.898438 285.15625 246.191406 285.199219 246.476562 285.300781 C 246.765625 285.398438 247.019531 285.546875 247.25 285.746094 C 247.476562 285.945312 247.660156 286.179688 247.796875 286.453125 C 247.933594 286.722656 248.011719 287.007812 248.039062 287.308594 C 248.0625 287.609375 248.03125 287.90625 247.941406 288.195312 C 247.851562 288.484375 247.707031 288.746094 247.515625 288.980469 C 247.324219 289.214844 247.097656 289.402344 246.828125 289.546875 C 246.5625 289.691406 246.28125 289.78125 245.980469 289.816406 L 218.265625 292.347656 Z M 218.066406 292.359375 " fill-opacity="1" fill-rule="nonzero"/><path fill="#f29f6e" d="M 344.605469 264.683594 C 344.605469 268.1875 339.296875 272.777344 332.761719 272.777344 C 326.226562 272.777344 320.917969 268.203125 320.917969 264.683594 C 320.917969 261.164062 326.21875 258.359375 332.761719 258.359375 C 339.304688 258.359375 344.605469 261.191406 344.605469 264.683594 Z M 344.605469 264.683594 " fill-opacity="1" fill-rule="nonzero"/><path fill="#f29f6e" d="M 278.050781 274.75 C 277.675781 274.332031 277.25 273.976562 276.773438 273.679688 C 276.296875 273.382812 275.785156 273.160156 275.246094 273.003906 C 274.707031 272.851562 274.15625 272.777344 273.59375 272.78125 C 273.035156 272.785156 272.484375 272.863281 271.945312 273.023438 C 270.519531 273.484375 269.390625 274.339844 268.566406 275.589844 C 267.742188 274.339844 266.613281 273.480469 265.179688 273.023438 C 264.640625 272.863281 264.09375 272.785156 263.53125 272.78125 C 262.96875 272.777344 262.417969 272.855469 261.878906 273.007812 C 261.339844 273.160156 260.832031 273.382812 260.355469 273.679688 C 259.878906 273.976562 259.453125 274.332031 259.078125 274.75 C 258.453125 275.464844 257.996094 276.269531 257.699219 277.171875 C 257.402344 278.070312 257.289062 278.992188 257.363281 279.933594 C 257.664062 282.585938 258.550781 285.023438 260.027344 287.246094 C 261.195312 289.277344 262.703125 291.015625 264.550781 292.460938 C 265.007812 292.78125 265.488281 293.070312 265.988281 293.328125 C 266.804688 293.726562 267.664062 293.96875 268.566406 294.058594 C 269.472656 293.96875 270.332031 293.722656 271.148438 293.328125 C 271.648438 293.070312 272.125 292.78125 272.585938 292.460938 C 274.429688 291.015625 275.9375 289.277344 277.105469 287.246094 C 278.585938 285.023438 279.46875 282.585938 279.761719 279.933594 C 279.839844 278.988281 279.730469 278.066406 279.433594 277.167969 C 279.136719 276.269531 278.675781 275.460938 278.050781 274.75 Z M 278.050781 274.75 " fill-opacity="1" fill-rule="nonzero"/><path fill="#f29f6e" d="M 406.4375 274.75 C 406.0625 274.332031 405.636719 273.976562 405.160156 273.679688 C 404.683594 273.382812 404.175781 273.160156 403.636719 273.003906 C 403.097656 272.851562 402.546875 272.777344 401.984375 272.78125 C 401.421875 272.785156 400.871094 272.863281 400.332031 273.023438 C 398.90625 273.484375 397.78125 274.339844 396.957031 275.589844 C 396.128906 274.339844 395 273.480469 393.570312 273.023438 C 393.03125 272.863281 392.480469 272.785156 391.921875 272.78125 C 391.359375 272.777344 390.808594 272.855469 390.269531 273.007812 C 389.730469 273.160156 389.21875 273.382812 388.742188 273.679688 C 388.265625 273.976562 387.839844 274.332031 387.464844 274.75 C 386.84375 275.464844 386.382812 276.269531 386.085938 277.167969 C 385.789062 278.070312 385.679688 278.992188 385.753906 279.933594 C 386.050781 282.585938 386.941406 285.023438 388.417969 287.246094 C 389.585938 289.277344 391.089844 291.011719 392.929688 292.460938 C 393.394531 292.78125 393.875 293.070312 394.375 293.328125 C 394.761719 293.566406 395.175781 293.75 395.613281 293.871094 C 396.050781 293.996094 396.496094 294.058594 396.953125 294.058594 C 397.40625 294.058594 397.855469 293.996094 398.292969 293.875 C 398.730469 293.75 399.140625 293.566406 399.527344 293.328125 C 400.03125 293.070312 400.511719 292.78125 400.976562 292.460938 C 402.820312 291.015625 404.324219 289.277344 405.496094 287.246094 C 406.972656 285.023438 407.859375 282.585938 408.148438 279.933594 C 408.226562 278.988281 408.117188 278.070312 407.820312 277.167969 C 407.523438 276.269531 407.0625 275.464844 406.4375 274.75 Z M 406.4375 274.75 " fill-opacity="1" fill-rule="nonzero"/></svg>